<?xml version="1.0" encoding="utf-8"?>
<!-- Generator: Adobe Illustrator 17.0.0, SVG Export Plug-In . SVG Version: 6.00 Build 0)  -->
<!DOCTYPE svg PUBLIC "-//W3C//DTD SVG 1.1//EN" "http://www.w3.org/Graphics/SVG/1.1/DTD/svg11.dtd">
<svg version="1.1" id="Layer_1" xmlns="http://www.w3.org/2000/svg" xmlns:xlink="http://www.w3.org/1999/xlink" x="0px" y="0px"
	 width="418px" height="130.333px" viewBox="0 0 418 245.333" enable-background="new 0 0 418 245.333" xml:space="preserve">
<rect x="0" fill="#FEFEFE" width="418" height="245.333"/>
<g>
	<g>
		<path fill="#C52275" d="M342.29,174.646c0.551-1.069,1.41-1.68,2.625-1.755c3.439-0.248,6.886-0.071,10.328-0.101
			c2.318-0.019,4.635-0.09,6.949,0.131c0.24,2.04,0.139,4.088,0.056,6.132c-0.506,0.439-1.08,0.353-1.658,0.203
			c-5.029-1.305-10.148-2.228-15.185-3.495C344.342,175.49,343.198,175.389,342.29,174.646z"/>
		<path fill="#B32074" d="M362.253,190.15c0,1.365,0,2.727,0,4.092c-1.601,0.386-3.072-0.319-4.564-0.63
			c-4.609-0.968-9.162-2.213-13.771-3.199c-0.78-0.169-1.658-0.229-2.235-0.93c-0.049-1.2-0.038-2.4-0.007-3.6
			c0.42-0.578,0.949-0.315,1.451-0.184c4.227,1.118,8.521,1.946,12.774,2.959C358.016,189.16,360.157,189.565,362.253,190.15z"/>
		<path fill="#C22275" d="M341.844,185.774c0,1.264,0,2.531,0.004,3.795c0.6,0.889,0.338,1.886,0.371,2.85
			c0.015,0.694,0.03,1.391-0.004,2.085c0.022,0.608,0.022,1.215,0,1.819c0.038,0.968,0.022,1.935-0.004,2.903
			c0.007,0.551,0.022,1.103-0.458,1.504c-0.255-0.454-0.15-0.953-0.15-1.429c-0.004-7.249-0.004-14.499,0.007-21.748
			c0-1.016-0.045-2.055,0.683-2.907c2.862,0.645,5.746,1.196,8.573,1.958c3.342,0.896,6.807,1.226,10.092,2.355
			c0.398,0.135,0.863,0.071,1.294,0.098c0,0.975,0,1.946,0,2.922c-0.765,0.619-1.56,0.263-2.359,0.09
			c-5.213-1.129-10.366-2.52-15.602-3.537c-2.066-0.401-2.07-0.368-2.081,1.804c0.022,0.855,0.034,1.71,0.007,2.565
			C342.189,183.869,342.448,184.877,341.844,185.774z"/>
		<path fill="#B82174" d="M341.844,185.774c0-0.975,0-1.95,0-2.922c0.503-0.461,1.08-0.334,1.654-0.214
			c5.033,1.069,10.028,2.291,15.009,3.585c1.249,0.326,2.655,0.098,3.747,1.009c0,0.975,0,1.946,0,2.922
			c-3.754-0.071-7.283-1.309-10.887-2.134C348.19,187.289,344.934,186.861,341.844,185.774z"/>
		<path fill="#BE2275" d="M341.84,180.242c-0.004-0.049-0.011-0.098-0.015-0.146c-0.09-2.449-0.105-2.37,2.329-1.98
			c5.01,0.803,9.848,2.366,14.833,3.274c1.088,0.199,2.111,0.758,3.267,0.581c0,0.975,0,1.946,0,2.922
			c-0.585,0.461-1.219,0.218-1.815,0.079c-5.757-1.328-11.559-2.453-17.27-3.972C342.654,180.865,342.099,180.816,341.84,180.242z"
			/>
		<path fill="#AF1F74" d="M341.844,192.491c0-0.971,0-1.946,0-2.918c3.004,0.683,6.008,1.358,9.008,2.044
			c3.799,0.87,7.598,1.751,11.397,2.629c0,0.878,0,1.751,0,2.629c-0.915,0.308-1.815,0.116-2.712-0.083
			c-4.665-1.028-9.26-2.389-13.981-3.169C344.282,193.406,343.007,193.121,341.844,192.491z"/>
		<path fill="#831971" d="M364.579,217.907c-0.634,0.326-1.328,0.27-2.003,0.27c-7.054,0.011-14.109,0.011-21.163,0
			c-0.671,0-1.369,0.079-1.999-0.263c0.585-0.596,1.346-0.48,2.059-0.48c3.78,0,7.564-0.06,11.345,0.045
			c1.598,0.011,3.203,0,4.815,0c-4.8-0.956-9.541-2.171-14.311-3.263c-3.642-0.833-7.309-1.556-10.929-2.49
			c-0.679-0.176-1.343-0.18-1.999,0.083c-0.544-0.608-0.855-1.339-1.114-2.096c0.383-0.75,1.013-0.581,1.646-0.469
			c3.439,0.615,6.766,1.725,10.19,2.381c5.768,1.103,11.424,2.689,17.173,3.882c1.616,0.334,3.207,0.776,4.819,1.121
			C363.769,216.771,364.609,216.887,364.579,217.907z"/>
		<path fill="#A81E73" d="M341.848,199.204c0-0.971,0-1.946,0-2.918c0.383-0.341,0.814-0.244,1.245-0.135
			c5.854,1.451,11.772,2.625,17.604,4.182c0.649,0.173,1.575,0.195,1.294,1.328c-0.491,0.919-0.934,1.883-2.081,2.168
			c-2.997-1.305-6.229-1.729-9.372-2.468C347.627,200.674,344.702,200.081,341.848,199.204z"/>
		<path fill="#7C1770" d="M353.181,217.888c-4.59,0.011-9.177,0.019-13.768,0.03c-3.424-0.465-6.094-2.183-8.18-4.887
			c0.21-1.114,1.076-0.754,1.699-0.66c1.916,0.281,3.765,0.908,5.671,1.271c4.137,0.791,8.153,2.13,12.327,2.768
			C351.831,216.545,352.874,216.725,353.181,217.888z"/>
		<path fill="#BB2175" d="M341.84,180.242c4.65,1.028,9.207,2.464,13.925,3.21c2.183,0.345,4.324,0.953,6.484,1.444
			c0,0.78,0,1.556,0,2.336c-3.608-0.345-7.032-1.526-10.55-2.299c-3.282-0.72-6.507-1.714-9.86-2.081
			C341.84,181.982,341.84,181.112,341.84,180.242z"/>
		<path fill="#CB2577" d="M375.402,172.914c0.293,2.145,0.323,4.29-0.019,6.432c-2.066,0.315-4.144,0.064-6.218,0.135
			c-0.525,0.019-0.645-0.289-0.641-0.743c0.007-1.744,0.007-3.488,0-5.228c0-0.465,0.146-0.746,0.66-0.728
			C371.254,172.854,373.336,172.614,375.402,172.914z"/>
		<path fill="#AD1F74" d="M341.844,192.491c2.828,0.544,5.689,0.968,8.48,1.669c2.614,0.656,5.247,1.215,7.868,1.826
			c1.35,0.315,2.708,0.593,4.062,0.889c0,0.679,0,1.361,0,2.04c-0.833,0.608-1.714,0.21-2.528,0.022
			c-5.479-1.279-10.966-2.524-16.468-3.717c-0.529-0.113-1.043-0.251-1.414-0.683C341.844,193.852,341.844,193.169,341.844,192.491z
			"/>
		<path fill="#A41E73" d="M341.848,199.204c0.713-0.315,1.335-0.071,2.059,0.131c2.254,0.641,4.564,1.088,6.848,1.628
			c2.809,0.664,5.607,1.369,8.423,2.003c0.544,0.124,0.761,0.338,0.728,0.859c-1.624,0.686-3.312,0.289-4.977,0.304
			c-0.131-0.06-0.27-0.12-0.416-0.105c-4.017,0.473-7.786-0.788-11.611-1.65c-0.36-0.083-0.623-0.244-0.829-0.536
			c-0.334-0.304-0.338-0.701-0.319-1.106C341.784,200.224,341.814,199.714,341.848,199.204z"/>
		<path fill="#871971" d="M364.579,217.907c-0.473-0.941-1.463-0.9-2.265-1.088c-6.188-1.451-12.391-2.839-18.587-4.26
			c-4.403-1.009-8.802-2.033-13.201-3.064c-0.465-0.109-0.859-0.008-1.249,0.218c-0.195-0.458-0.443-0.9-0.364-1.425
			c0.053-0.056,0.105-0.116,0.154-0.173c0.66-0.353,1.32-0.116,1.965,0.03c1.916,0.428,3.814,0.956,5.749,1.298
			c0.443,0.079,0.81,0.285,1.14,0.57c1.193,1.125,2.727,1.256,4.234,1.373c1.238,0.098,2.487,0.064,3.728,0.086
			c3.282,0.623,6.496,1.556,9.762,2.239c3.278,0.686,6.496,1.62,9.792,2.231c0.679,0.128,1.448,0.323,1.796,1.091
			C366.488,217.742,365.539,217.836,364.579,217.907z"/>
		<path fill="#AA1E73" d="M341.844,194.535c3.687,0.686,7.317,1.631,10.981,2.408c3.139,0.664,6.222,1.628,9.428,1.969
			c0.071,0.93,0.248,1.871-0.266,2.745c-0.007-0.66-0.551-0.769-1.001-0.866c-4.099-0.889-8.15-1.999-12.267-2.835
			c-2.299-0.465-4.613-0.998-6.874-1.673C341.844,195.701,341.844,195.12,341.844,194.535z"/>
		<path fill="#BF2375" d="M328.613,206.821c-0.33-0.638-0.218-1.331-0.218-2.003c-0.008-10.25,0.019-20.499-0.022-30.749
			c-0.004-1.193,0.293-1.504,1.481-1.305c3.582,0.608,5.427,2.847,5.517,6.871c-1.609-0.63-3.353-0.773-4.973-1.369
			c-0.949-0.349-1.35,0.038-1.343,1.005c0.007,0.964,0.011,1.928,0.011,2.892c0.045,1.208,0.038,2.415,0.011,3.623
			c0.038,1.343,0.041,2.689,0,4.032c0.03,1.073,0.041,2.149-0.004,3.222c0.019,1.065,0.045,2.13,0,3.195
			c0.022,0.964,0.034,1.928-0.004,2.892c0.011,0.604,0.03,1.211,0,1.815c0.019,0.69,0.026,1.376,0.007,2.066
			c-0.019,0.866,0.041,1.736-0.019,2.603C329.048,206.067,329.018,206.513,328.613,206.821z"/>
		<path fill="#801870" d="M353.181,217.888c-1.695-1.478-3.912-1.2-5.884-1.736c-2.04-0.559-4.065-1.2-6.139-1.568
			c-2.997-0.529-5.914-1.388-8.903-1.928c-0.379-0.068-0.788-0.038-1.02,0.379c-0.394-0.33-0.709-0.713-0.844-1.223
			c0.015-0.533,0.03-0.945,0.825-0.716c1.241,0.356,2.531,0.518,3.792,0.844c3.683,0.945,7.426,1.65,11.142,2.468
			c1.646,0.364,3.285,0.773,4.928,1.159c2.535,0.596,5.07,1.185,7.602,1.785c0.18,0.041,0.379,0.109,0.371,0.54
			C357.1,217.888,355.139,217.888,353.181,217.888z"/>
		<path fill="#B92175" d="M328.68,181.978c-0.007-1.11,0.022-2.224-0.03-3.334c-0.045-0.979,0.45-1.234,1.253-0.968
			c1.511,0.503,3.015,1.005,4.617,1.088c0.596,0.03,0.484,0.671,0.859,0.874c0.075,0.529,0.21,1.054,0.21,1.583
			c0.015,8.127,0.015,16.254,0.015,24.377c-0.705-0.146-0.525-0.746-0.623-1.208c-0.034-0.668-0.03-1.335-0.015-2.006
			c-0.007-0.596-0.034-1.193-0.004-1.785c-0.03-0.96-0.038-1.92-0.008-2.88c-0.038-1.155-0.038-2.31-0.004-3.465
			c-0.034-1.069-0.038-2.134,0-3.203c-0.026-1.215-0.038-2.43,0.007-3.642c-0.09-1.103,0.375-2.336-0.244-3.282
			c-0.634-0.964-1.988-0.514-2.963-0.923C330.732,182.785,329.535,182.803,328.68,181.978z"/>
		<path fill="#8A1A71" d="M367.238,217.033c-3.758-1.376-7.733-1.879-11.577-2.918c-2.374-0.641-4.8-1.091-7.163-1.774
			c-0.87-0.251-2.018,0.218-2.61-0.87c1.751,0,3.503,0,5.258,0c3.593,0.791,7.148,1.748,10.749,2.501
			c1.856,0.39,3.653,1.001,5.521,1.35c0.518,0.098,1.024,0.33,1.309,0.844C368.37,216.703,367.853,216.954,367.238,217.033z"/>
		<path fill="#A41E73" d="M375.432,205.958c-0.015,0.184-0.03,0.368-0.045,0.548c-0.353,0.469,0.011,1.061-0.27,1.541
			c-0.075,0.93-0.349,1.785-0.904,2.546c-1.553-1.95-3.799-1.834-5.952-1.988c-0.323-0.022-0.66,0.214-0.975-0.049
			c0.533-1.02,0.938-2.081,1.121-3.222c0.176-0.236,0.071-0.626,0.409-0.776c0.461-0.203,0.956-0.233,1.403-0.056
			c1.571,0.619,3.289,0.6,4.875,1.148C375.241,205.714,375.35,205.819,375.432,205.958z"/>
		<path fill="#911B72" d="M371.588,214.108c-0.375,0.585-0.81,1.114-1.47,1.403c-4.088-1.016-8.21-1.886-12.294-2.922
			c-0.821-0.21-1.871-0.053-2.299-1.118c2.393-0.011,4.785-0.022,7.178-0.034c2.974-0.086,5.734,0.844,8.491,1.781
			C371.577,213.35,371.888,213.62,371.588,214.108z"/>
		<path fill="#BC2376" d="M371.881,193.098c-0.971-0.135-2.516,0.536-3.278-0.251c-0.75-0.776-0.21-2.31-0.225-3.507
			c-0.038-3.004-0.011-3.004,3.027-3.004c1.069,0,2.138,0.038,3.203-0.011c0.773-0.038,1.013,0.263,0.99,1.013
			c-0.041,1.553-0.06,3.105,0.007,4.654c0.041,0.923-0.311,1.193-1.178,1.125C373.658,193.049,372.878,193.098,371.881,193.098z"/>
		<path fill="#8D1A71" d="M355.525,211.471c1.71,0.788,3.574,1.013,5.382,1.444c2.715,0.653,5.449,1.223,8.168,1.86
			c0.416,0.098,0.829,0.3,1.043,0.735c-0.555,0.026-0.769,0.776-1.395,0.656c-4.485-1.298-9.057-2.243-13.599-3.312
			c-1.339-0.315-2.824-0.45-3.983-1.384C352.604,211.471,354.063,211.471,355.525,211.471z"/>
		<path fill="#921B72" d="M335.352,204.462c0.068,0.383-0.101,0.818,0.248,1.136c0.131,0.593,0.259,1.185,0.39,1.778
			c-2.494-0.334-4.947-0.848-7.306-1.748c-0.004-0.874-0.004-1.748-0.008-2.621C330.957,203.25,333.196,203.655,335.352,204.462z"/>
		<path fill="#AC2175" d="M368.674,204.754c-0.086,0.191-0.176,0.383-0.263,0.578c-0.015-1.5,0.007-3.004-0.056-4.504
			c-0.034-0.803,0.308-0.986,1.028-0.971c1.744,0.038,3.492,0.015,5.236,0.011c0.521,0,1.001,0.022,0.968,0.735
			c-0.083,1.785,0.191,3.578-0.15,5.356l-0.083-0.06c-0.559-0.728-0.326-1.586-0.375-2.393c-0.038-0.626-0.146-1.163-0.885-1.298
			c-1.29-0.236-2.532-0.664-3.814-0.938c-1.088-0.233-1.245,0.191-1.223,1.106C369.079,203.179,369.259,204.038,368.674,204.754z"/>
		<path fill="#971C72" d="M371.588,214.108c-0.034-0.319-0.188-0.488-0.521-0.593c-2.745-0.87-5.562-1.444-8.367-2.078
			c0.998-0.413,1.999-0.825,3-1.238c1.954,0.533,3.927,0.99,5.873,1.541c0.544,0.154,1.478,0.12,1.181,1.193
			C372.469,213.429,372.192,213.928,371.588,214.108z"/>
		<path fill="#9F1D73" d="M367.286,208.553c1.988-0.806,3.814,0.022,5.704,0.484c0.968,0.236,1.335,0.626,1.223,1.556
			c-0.041,0.401-0.232,0.716-0.529,0.983c-1.459-0.63-3.019-0.881-4.564-1.185c-0.893-0.176-1.8-0.341-2.269-1.279
			C366.998,208.921,367.14,208.737,367.286,208.553z"/>
		<path fill="#9A1C72" d="M366.851,209.109c1.594,1.028,3.465,1.088,5.236,1.448c0.735,0.15,1.279,0.338,1.598,1.016
			c-0.176,0.548-0.488,0.998-0.93,1.361c-0.12-0.788-0.833-0.709-1.335-0.848c-1.519-0.428-3.049-0.81-4.59-1.155
			c-0.495-0.113-0.941-0.195-1.133-0.731C366.083,209.836,366.469,209.472,366.851,209.109z"/>
		<path fill="#8D1B72" d="M328.684,205.628c2.509,0.274,4.965,0.773,7.306,1.748c0.206,0.386,0.413,0.773,0.623,1.155
			c-0.566,0.45-1.193,0.259-1.785,0.113c-1.44-0.356-2.925-0.484-4.35-0.9c-0.638-0.188-1.121-0.068-1.493,0.484l-0.067,0.056
			c-0.33-0.443-0.293-0.956-0.296-1.463C328.639,206.423,328.661,206.026,328.684,205.628z"/>
		<path fill="#A11F74" d="M342.069,201.837c2.588,0.42,5.1,1.099,7.598,1.92c1.091,0.36,2.389,0.079,3.593,0.128
			c0.559,0.022,1.166-0.199,1.665,0.24c-3.18,0.019-6.361,0.09-9.537,0.034C343.843,204.132,342.643,203.378,342.069,201.837z"/>
		<path fill="#891A71" d="M328.98,208.231c-0.139-1.013,0.21-1.234,1.226-0.986c2.115,0.514,4.268,0.87,6.402,1.29
			c0.439,0.491,0.874,0.986,1.313,1.478C334.887,209.682,332.026,208.512,328.98,208.231z"/>
		<path fill="#C92979" d="M375.402,172.914c-1.838,0.004-3.679,0.049-5.517-0.007c-0.964-0.03-1.279,0.319-1.234,1.26
			c0.064,1.305,0.079,2.618-0.004,3.919c-0.067,1.076,0.405,1.305,1.365,1.275c1.789-0.056,3.582-0.015,5.371-0.015
			c-2.141,0.48-4.309,0.105-6.466,0.199c-0.548,0.022-0.555-0.42-0.555-0.821c0-1.744,0.004-3.488,0-5.232
			c0-0.416,0.038-0.825,0.585-0.795C371.101,172.809,373.268,172.396,375.402,172.914z"/>
		<path fill="#CA2879" d="M362.193,172.921c-5.761-0.011-11.517-0.022-17.278-0.03c0.326-0.064,0.649-0.184,0.975-0.184
			c5.172-0.011,10.347-0.011,15.519-0.004C361.687,172.7,362.002,172.614,362.193,172.921z"/>
		<path fill="#A81F74" d="M375.117,208.047c0.034-0.525-0.229-1.099,0.27-1.541C375.428,207.042,375.432,207.571,375.117,208.047z"
			/>
		<path fill="#B01F74" d="M335.352,187.233c0,1.264,0,2.531,0,3.795c-0.311,0.281-0.69,0.398-1.08,0.304
			c-1.875-0.454-3.803-0.69-5.592-1.47c0-1.361,0-2.727,0-4.088c0.191-0.169,0.431-0.293,0.668-0.229
			C331.35,186.1,333.462,186.276,335.352,187.233z"/>
		<path fill="#B52074" d="M335.352,187.233c-1.778-0.079-3.435-0.713-5.145-1.106c-0.51-0.116-1.016-0.236-1.526-0.353
			c0-1.264,0-2.532,0-3.795c1.946,0.319,3.762,1.193,5.757,1.309c0.645,0.038,1.001,0.443,0.949,1.189
			C335.318,185.388,335.36,186.314,335.352,187.233z"/>
		<path fill="#AB1F74" d="M328.68,189.862c1.736-0.124,3.308,0.63,4.958,0.949c0.574,0.113,1.133,0.229,1.714,0.218
			c0,1.073,0,2.141,0,3.214c-0.15,0.124-0.308,0.281-0.495,0.285c-2.179,0.03-4.272-0.315-6.177-1.451
			C328.68,192.003,328.68,190.931,328.68,189.862z"/>
		<path fill="#A71E73" d="M328.68,193.076c2.235,0.323,4.354,1.309,6.672,1.166c0,1.166,0,2.336,0,3.503
			c-0.233,0.203-0.514,0.3-0.799,0.225c-1.969-0.514-4.088-0.518-5.873-1.684C328.68,195.217,328.68,194.145,328.68,193.076z"/>
		<path fill="#A41D73" d="M328.68,196.286c2.224,0.488,4.448,0.975,6.672,1.459c0,0.971,0,1.946,0,2.918
			c-1.478,0.326-2.813-0.431-4.227-0.611c-0.818-0.105-1.725-0.293-2.445-0.848C328.68,198.232,328.68,197.257,328.68,196.286z"/>
		<path fill="#991C72" d="M335.352,204.462c-2.284-0.21-4.538-0.559-6.676-1.451c0-0.683,0-1.369,0.004-2.051
			c0.619-0.54,1.309-0.221,1.943-0.094c1.635,0.326,3.357,0.42,4.733,1.549C335.352,203.097,335.352,203.779,335.352,204.462z"/>
		<path fill="#9F1D73" d="M335.352,202.414c-2.194-0.626-4.384-1.275-6.672-1.455c0-0.585,0-1.17,0-1.751
			c2.265,0.304,4.485,0.806,6.672,1.459C335.352,201.248,335.352,201.829,335.352,202.414z"/>
		<path fill="#A81F74" d="M368.674,204.754c0-0.536-0.004-1.069-0.004-1.605c0-2.779,0.007-2.802,2.749-2.096
			c1.076,0.278,2.108,0.728,3.233,0.78c0.698,0.03,0.735,0.484,0.731,1.005c-0.015,1.02-0.019,2.04-0.03,3.06
			c-1.643-0.195-3.3-0.311-4.849-0.956C369.897,204.687,369.285,204.792,368.674,204.754z"/>
		<path fill="#B82275" d="M371.892,192.779c-0.049,0-0.098,0-0.146,0c-3.315,0-3.555-0.296-3.087-3.608
			c0.075-0.54,0.251-0.784,0.818-0.735c1.883,0.169,3.627,0.93,5.479,1.279c0.923,0.176,0.308,1.53,0.401,2.344
			c0.083,0.698-0.48,0.72-0.99,0.716C373.542,192.776,372.717,192.779,371.892,192.779z"/>
	</g>
	<g>
		<path fill="#D8D9D9" d="M40.347,120.992c112.91,0,225.82,0.001,338.729,0.001c0.009,11.624-0.162,23.252,0.125,34.869
			c0.101,4.072-1.157,5.02-5.097,5.012c-65.214-0.12-130.428-0.085-195.642-0.085c-44.231,0-88.462-0.061-132.692,0.096
			c-4.313,0.015-5.676-1.061-5.554-5.478C40.535,143.943,40.339,132.465,40.347,120.992z"/>
		<path fill="#D8D9D9" d="M302.442,31.296c14.791,0,29.584,0.112,44.373-0.074c3.987-0.05,5.211,1.292,5.186,5.228
			c-0.145,22.941-0.135,45.884-0.015,68.825c0.023,4.37-1.754,5.799-5.964,5.785c-29.281-0.101-58.562-0.044-87.843-0.061
			c-5.5-0.003-5.9-0.442-5.902-5.95c-0.006-22.791,0.085-45.582-0.083-68.372c-0.031-4.153,1.213-5.525,5.421-5.464
			C272.555,31.427,287.499,31.296,302.442,31.296z"/>
		<path fill="#7F7F81" d="M124.126,44.15c-22.322,0-44.645,0.002-66.967-0.004c-1.204,0-2.413-0.013-3.612-0.112
			c-1.134-0.094-1.464-0.903-1.404-1.916c0.049-0.825,0.417-1.473,1.305-1.544c1.199-0.096,2.407-0.123,3.611-0.123
			c44.494-0.006,88.988-0.005,133.482-0.005c0.603,0,1.208-0.023,1.81,0.006c1.462,0.071,3.368-0.288,3.442,1.893
			c0.083,2.436-2.004,1.77-3.342,1.777c-10.859,0.051-21.719,0.029-32.579,0.029C147.957,44.15,136.041,44.15,124.126,44.15z"/>
		<path fill="#194C51" d="M77.966,34.014c-7.07,0-14.144-0.149-21.207,0.071c-2.978,0.093-3.081-1.371-2.969-3.552
			c0.106-2.063-0.505-4.05,3.008-4c14.137,0.2,28.279,0.178,42.417,0.015c3.412-0.039,2.936,1.914,3.038,4.031
			c0.11,2.283-0.225,3.581-3.078,3.501C92.11,33.881,85.036,34.014,77.966,34.014z"/>
		<path fill="#194C51" d="M167.76,61.44c-7.841,0-15.682,0.032-23.522-0.032c-1.306-0.011-3.236,0.744-3.298-1.798
			c-0.062-2.546,1.825-1.927,3.186-1.93c15.833-0.032,31.665-0.034,47.498,0.003c1.347,0.003,3.269-0.664,3.33,1.811
			c0.061,2.485-1.848,1.917-3.219,1.925C183.744,61.463,175.752,61.44,167.76,61.44z"/>
		<path fill="#194C51" d="M88.678,61.438c-7.836,0-15.673,0.029-23.508-0.028c-1.319-0.01-3.237,0.71-3.253-1.836
			c-0.015-2.537,1.872-1.89,3.227-1.892c15.823-0.033,31.646-0.022,47.469-0.019c1.488,0,3.168-0.297,3.029,2.113
			c-0.127,2.211-1.793,1.632-3.004,1.639C104.652,61.46,96.665,61.438,88.678,61.438z"/>
		<path fill="#194C51" d="M88.375,77.519c-7.829,0-15.658,0.023-23.487-0.026c-1.185-0.007-2.844,0.633-2.973-1.62
			c-0.144-2.517,1.628-2.029,3.036-2.031c15.809-0.018,31.618-0.027,47.426,0.017c1.293,0.004,3.216-0.782,3.179,1.85
			c-0.037,2.632-1.976,1.763-3.243,1.774C104.335,77.554,96.355,77.519,88.375,77.519z"/>
		<path fill="#194C51" d="M168.515,77.519c-7.834,0-15.668,0.036-23.501-0.035c-1.264-0.011-3.203,0.867-3.242-1.772
			c-0.039-2.639,1.883-1.848,3.174-1.852c15.818-0.044,31.636-0.035,47.454-0.017c1.408,0.002,3.192-0.483,3.049,2.028
			c-0.128,2.24-1.79,1.615-2.981,1.622C184.484,77.542,176.499,77.519,168.515,77.519z"/>
		<path fill="#4B7E7F" d="M132.618,94.782c3.748,0.086,6.692,3.254,6.577,7.076c-0.111,3.668-2.974,6.475-6.626,6.497
			c-3.792,0.023-6.999-3.107-6.94-6.772C125.689,97.869,128.948,94.698,132.618,94.782z"/>
		<path fill="#4B7E7F" d="M64.986,101.528c0.041,3.953-2.814,6.853-6.72,6.826c-3.813-0.026-6.93-3.158-6.842-6.873
			c0.081-3.428,3.23-6.603,6.649-6.704C61.787,94.667,64.947,97.753,64.986,101.528z"/>
		<path fill="#4B7E7F" d="M113.087,94.778c3.674,0.019,6.859,3.286,6.804,6.979c-0.055,3.691-3.302,6.704-7.106,6.592
			c-3.628-0.106-6.426-2.995-6.457-6.668C106.296,97.881,109.353,94.759,113.087,94.778z"/>
		<path fill="#4B7E7F" d="M83.524,101.657c-0.029,3.741-3.183,6.757-7,6.696c-3.902-0.063-6.66-3.013-6.535-6.99
			c0.113-3.599,3.053-6.523,6.614-6.58C80.194,94.725,83.552,98.061,83.524,101.657z"/>
		<path fill="#4B7E7F" d="M101.47,101.544c0.031,3.813-2.989,6.826-6.823,6.809c-3.832-0.017-6.82-3.063-6.746-6.877
			c0.068-3.482,3.128-6.584,6.6-6.69C98.163,94.674,101.44,97.852,101.47,101.544z"/>
		<path fill="#4B7E7F" d="M134.756,63.682c-2.734-0.472-4.503-1.94-4.371-4.531c0.139-2.707,1.827-4.517,4.769-4.263
			c2.655,0.228,4.066,1.935,3.895,4.591C138.877,62.158,137.061,63.333,134.756,63.682z"/>
		<path fill="#4B7E7F" d="M60.063,75.287c-0.474,2.505-1.676,4.225-4.442,4.197c-2.669-0.027-4.314-1.437-4.368-4.094
			c-0.058-2.884,1.617-4.416,4.518-4.385C58.558,71.035,59.643,72.862,60.063,75.287z"/>
		<path fill="#4B7E7F" d="M139.144,75.498c-0.552,2.788-2.095,4.132-4.752,3.975c-2.743-0.162-4.173-1.943-4.017-4.445
			c0.171-2.763,1.981-4.308,4.903-3.998C138.019,71.321,139.016,73.146,139.144,75.498z"/>
		<path fill="#4B7E7F" d="M55.622,54.804c2.615,0.276,4.276,1.786,4.336,4.317c0.061,2.557-1.602,4.38-4.175,4.418
			c-2.718,0.04-4.614-1.557-4.531-4.481C51.326,56.421,53.014,55.066,55.622,54.804z"/>
		<path fill="#7F7F81" d="M209.945,151.762c-17.651,0-35.301,0-52.952-0.001c-1.056,0-2.112-0.007-3.168-0.028
			c-1.215-0.025-2.023-0.475-1.974-1.869c0.05-1.418,0.967-1.711,2.131-1.722c0.905-0.008,1.81-0.021,2.715-0.021
			c35.603-0.001,71.206-0.001,106.81-0.001c0.754,0,1.509-0.014,2.263,0.008c1.203,0.035,2.56-0.099,2.644,1.664
			c0.099,2.081-1.443,1.955-2.801,1.957c-9.655,0.014-19.31,0.01-28.965,0.011C227.746,151.763,218.846,151.762,209.945,151.762z"/>
		<path fill="#7F7F81" d="M210.172,142.763c-10.261,0-20.523,0.039-30.783-0.045c-1.43-0.012-3.755,0.974-3.934-1.645
			c-0.19-2.774,2.198-1.931,3.633-1.935c20.673-0.053,41.347-0.054,62.02,0.002c1.432,0.004,3.81-0.873,3.716,1.858
			c-0.092,2.641-2.43,1.713-3.868,1.724C230.694,142.799,220.433,142.763,210.172,142.763z"/>
		<path fill="#194C51" d="M182.532,130.995c-5.56,0-11.12,0.029-16.68-0.021c-1.365-0.012-3.193,0.572-3.14-1.966
			c0.044-2.114,1.503-1.889,2.822-1.89c11.571-0.015,23.142-0.006,34.712-0.013c1.431-0.001,2.738,0.018,2.71,2.038
			c-0.03,2.134-1.523,1.843-2.843,1.846C194.253,131.003,188.393,130.995,182.532,130.995z"/>
		<path fill="#194C51" d="M238.225,130.995c-5.714,0-11.428,0.024-17.142-0.019c-1.24-0.009-2.857,0.485-2.979-1.694
			c-0.134-2.383,1.517-2.169,3.021-2.17c11.428-0.007,22.856-0.004,34.284-0.004c1.54,0,3.14-0.135,2.977,2.215
			c-0.152,2.178-1.793,1.639-3.018,1.649C249.653,131.023,243.939,130.995,238.225,130.995z"/>
		<path fill="#194C51" d="M291.487,130.996c-5.561,0-11.124,0.044-16.684-0.033c-1.303-0.018-3.211,0.761-3.342-1.75
			c-0.128-2.443,1.624-2.091,3.069-2.093c11.423-0.02,22.847-0.017,34.27-0.003c1.313,0.002,2.824-0.277,2.914,1.823
			c0.106,2.471-1.665,2.037-3.093,2.044C302.91,131.012,297.199,130.996,291.487,130.996z"/>
		<path fill="#194C51" d="M346.831,130.995c-5.714,0-11.428,0.011-17.142-0.008c-1.31-0.004-2.812,0.287-2.842-1.852
			c-0.028-2.045,1.323-2.024,2.726-2.024c11.578-0.001,23.156-0.006,34.734,0.007c1.331,0.001,2.776-0.194,2.836,1.901
			c0.06,2.126-1.361,1.97-2.72,1.972C358.559,131,352.695,130.994,346.831,130.995z"/>
		<path fill="#194C51" d="M74.485,130.994c-5.419,0-10.839,0.053-16.256-0.036c-1.411-0.023-3.593,0.916-3.507-2.002
			c0.074-2.519,1.963-1.813,3.282-1.818c11.139-0.049,22.278-0.049,33.416,0c1.322,0.006,3.212-0.692,3.284,1.821
			c0.083,2.913-2.101,1.977-3.512,1.999C85.625,131.046,80.054,130.994,74.485,130.994z"/>
		<path fill="#194C51" d="M129.952,130.992c-5.723,0.001-11.446,0.011-17.168-0.006c-1.313-0.004-2.76,0.294-2.762-1.893
			c-0.002-2.119,1.348-1.978,2.718-1.978c11.596-0.003,23.192,0.007,34.788-0.01c1.523-0.002,2.646,0.216,2.555,2.174
			c-0.084,1.829-1.311,1.706-2.512,1.708C141.699,130.996,135.826,130.99,129.952,130.992z"/>
		<path fill="#EAEBEB" d="M258.621,95.883c0-18.483,0.036-36.717-0.04-54.951c-0.011-2.629,1.049-3.332,3.502-3.326
			c26.694,0.056,53.389,0.045,80.083,0.016c2.075-0.002,3.451,0.323,3.444,2.901c-0.056,18.976-0.03,37.952-0.03,57.589
			c-4.249-3.04-7.487-6.361-10.313-9.907c-4.537-5.693-10.087-10.348-15.007-15.634c-1.992-2.14-3.918-1.705-5.814,0.259
			c-2.409,2.495-5.051,4.783-7.295,7.414c-2.154,2.525-3.632,2.835-5.705-0.149c-3.25-4.677-6.89-9.08-10.293-13.653
			c-3.39-4.557-5.553-4.677-9.087-0.051c-7.013,9.18-13.91,18.448-20.849,27.684C260.682,94.785,260.279,95.625,258.621,95.883z"/>
		<path fill="#EAEBEB" d="M301.196,104.661c-11.773,0-23.546,0.009-35.319-0.014c-1.016-0.002-2.281,0.427-2.979-0.518
			c-0.858-1.162,0.436-1.937,0.997-2.69c6.904-9.274,13.852-18.515,20.818-27.742c1.892-2.506,3.21-1.05,4.521,0.717
			c3.58,4.824,7.19,9.626,10.819,14.414c2.902,3.829,4.728,3.845,7.646,0.136c8.703-11.06,9.674-11.257,18.855-0.885
			c4.102,4.634,8.453,8.994,12.694,13.477c0.59,0.624,1.444,1.573,1.312,2.186c-0.289,1.342-1.704,0.9-2.687,0.903
			C325.648,104.67,313.422,104.661,301.196,104.661z"/>
		<path fill="#D8D9D9" d="M329.283,53.43c0.026,6.541-4.273,11.276-10.319,11.364c-5.258,0.076-10.527-5.363-10.522-10.862
			c0.005-5.504,5.295-10.931,10.555-10.828C324.82,43.217,329.261,47.675,329.283,53.43z"/>
		<path fill="#E9EAEA" d="M318.9,49.464c2.183,0.702,4.194,1.391,4.018,4.146c-0.159,2.488-1.177,4.677-3.891,4.474
			c-2.023-0.151-4.127-1.481-4.14-3.998C314.874,51.508,316.742,50.244,318.9,49.464z"/>
	</g>
</g>
</svg>
