<?xml version="1.0" encoding="utf-8"?>
<!-- Generator: Adobe Illustrator 17.0.0, SVG Export Plug-In . SVG Version: 6.00 Build 0)  -->
<!DOCTYPE svg PUBLIC "-//W3C//DTD SVG 1.1//EN" "http://www.w3.org/Graphics/SVG/1.1/DTD/svg11.dtd">
<svg version="1.1" id="Layer_1" xmlns="http://www.w3.org/2000/svg" xmlns:xlink="http://www.w3.org/1999/xlink" x="0px" y="0px"
	 width="418px" height="130.33px" viewBox="0 0 418 245.33" enable-background="new 0 0 418 245.33" xml:space="preserve">
<rect y="1.333" fill="#FFFFFF" width="418" height="242.665"/>
<g>
	<path fill="#D8D9D9" d="M208.79,147.184c-53.87,0-107.741-0.041-161.607,0.082c-3.963,0.007-5.582-0.841-5.281-5.121
		c0.383-5.478,0.324-11.019,0.011-16.508c-0.212-3.706,1.228-4.845,4.611-4.373c0.439,0.06,0.893,0.007,1.34,0.007
		c107.443,0,214.882,0,322.325,0c5.85,0,5.854,0.004,5.857,5.709c0.004,5.359-0.201,10.725,0.071,16.069
		c0.175,3.472-1.154,4.216-4.376,4.201c-21.576-0.123-43.153-0.063-64.733-0.063C274.263,147.184,241.527,147.184,208.79,147.184z"
		/>
	<path fill="#4B7E7F" d="M255.154,101.586c-3.625-0.045-6.762-3.305-6.669-6.929c0.093-3.669,3.29-6.594,7.048-6.453
		c3.636,0.134,6.311,2.932,6.326,6.609C261.879,98.553,258.827,101.634,255.154,101.586z"/>
	<path fill="#4B7E7F" d="M146.159,101.586c-3.639-0.033-6.788-3.275-6.695-6.892c0.097-3.684,3.256-6.609,7.015-6.49
		c3.595,0.112,6.341,2.955,6.371,6.583C152.876,98.519,149.829,101.619,146.159,101.586z"/>
	<path fill="#4B7E7F" d="M219.34,88.193c3.762-0.033,6.754,2.966,6.702,6.728c-0.048,3.558-2.884,6.505-6.404,6.658
		c-3.639,0.156-6.899-2.906-6.989-6.572C212.556,91.333,215.607,88.226,219.34,88.193z"/>
	<path fill="#4B7E7F" d="M244.076,94.928c-0.041,3.718-3.171,6.777-6.818,6.658c-3.394-0.112-6.483-3.226-6.557-6.613
		c-0.082-3.68,2.977-6.754,6.739-6.777C241.281,88.178,244.117,91.051,244.076,94.928z"/>
	<path fill="#4B7E7F" d="M200.004,88.2c3.773-0.086,6.885,2.854,6.94,6.557c0.056,3.569-3.2,6.847-6.773,6.825
		c-3.52-0.022-6.442-2.88-6.576-6.442C193.443,91.237,196.167,88.289,200.004,88.2z"/>
	<path fill="#4B7E7F" d="M188.691,94.928c-0.037,3.718-3.171,6.777-6.818,6.658c-3.394-0.112-6.483-3.226-6.561-6.613
		c-0.086-3.673,2.977-6.751,6.739-6.773C185.903,88.178,188.732,91.043,188.691,94.928z"/>
	<path fill="#4B7E7F" d="M170.906,94.992c-0.074,3.703-3.267,6.762-6.881,6.587c-3.632-0.175-6.635-3.502-6.434-7.123
		c0.197-3.55,3.126-6.267,6.747-6.252C168.182,88.215,170.985,91.11,170.906,94.992z"/>
	<path fill="#4B7E7F" d="M273.519,101.578c-3.606,0.112-6.832-3.029-6.858-6.676c-0.026-3.606,2.698-6.509,6.285-6.698
		c3.818-0.201,6.888,2.56,7.063,6.352C280.177,98.211,277.17,101.467,273.519,101.578z"/>
	<path fill="#194C51" d="M93.528,135.558c-12.63,0-25.264,0.019-37.895-0.026c-1.459-0.004-3.494,0.744-3.524-2.017
		c-0.03-2.564,1.734-2.285,3.372-2.285c25.413,0,50.823-0.007,76.236,0.015c1.515,0,3.461-0.573,3.506,2.095
		c0.048,3.089-2.248,2.173-3.8,2.181C118.793,135.584,106.162,135.558,93.528,135.558z"/>
	<path fill="#194C51" d="M328.164,131.189c10.989,0,21.982-0.015,32.971,0.019c1.481,0.004,3.379-0.655,3.453,2.088
		c0.074,2.694-1.697,2.263-3.279,2.263c-22.425,0.007-44.854,0.015-67.278-0.015c-1.481,0-3.45,0.674-3.483-2.069
		c-0.041-3.037,2.151-2.255,3.751-2.259C305.586,131.167,316.877,131.189,328.164,131.189z"/>
	<path fill="#FEFEFE" d="M202.002,35.789c0.037,3.513-1.128,6.244-5.05,6.561c-3.189,0.257-5.258-2.631-5.191-6.885
		c0.056-3.42,0.941-6.285,5.08-6.442C200.283,28.893,202.069,31.308,202.002,35.789z"/>
	<g>
		
			<rect x="114.212" y="62.925" fill="none" stroke="#9FA0A8" stroke-width="0.5" stroke-miterlimit="10" width="146.901" height="10.907"/>
		<rect x="257.392" y="61.831" fill="#4B7E7F" width="42.665" height="13.025"/>
	</g>
	<g>
		<path fill="#C52275" d="M338.952,173.11c0.547-1.061,1.399-1.667,2.605-1.742c3.412-0.246,6.832-0.071,10.249-0.1
			c2.3-0.019,4.6-0.089,6.896,0.13c0.238,2.024,0.138,4.056,0.056,6.084c-0.502,0.435-1.072,0.35-1.645,0.201
			c-4.99-1.295-10.07-2.21-15.068-3.468C340.987,173.948,339.852,173.847,338.952,173.11z"/>
		<path fill="#B32074" d="M358.761,188.494c0,1.355,0,2.705,0,4.06c-1.589,0.383-3.048-0.316-4.529-0.625
			c-4.574-0.96-9.091-2.196-13.665-3.174c-0.774-0.167-1.645-0.227-2.218-0.923c-0.048-1.191-0.037-2.382-0.007-3.573
			c0.417-0.573,0.941-0.313,1.44-0.182c4.194,1.109,8.455,1.931,12.675,2.936C354.555,187.512,356.68,187.914,358.761,188.494z"/>
		<path fill="#C22275" d="M338.509,184.152c0,1.254,0,2.512,0.004,3.766c0.595,0.882,0.335,1.872,0.368,2.828
			c0.015,0.688,0.03,1.381-0.004,2.069c0.022,0.603,0.022,1.206,0,1.805c0.037,0.96,0.022,1.92-0.004,2.88
			c0.007,0.547,0.022,1.094-0.454,1.492c-0.253-0.45-0.149-0.945-0.149-1.418c-0.004-7.193-0.004-14.387,0.007-21.58
			c0-1.008-0.045-2.039,0.677-2.884c2.839,0.64,5.701,1.187,8.507,1.943c3.316,0.889,6.754,1.217,10.014,2.337
			c0.394,0.134,0.856,0.071,1.284,0.097c0,0.968,0,1.931,0,2.899c-0.759,0.614-1.548,0.26-2.341,0.089
			c-5.173-1.12-10.286-2.501-15.481-3.509c-2.05-0.398-2.054-0.365-2.065,1.79c0.022,0.848,0.033,1.697,0.007,2.545
			C338.851,182.261,339.108,183.262,338.509,184.152z"/>
		<path fill="#B82174" d="M338.509,184.152c0-0.968,0-1.935,0-2.899c0.499-0.458,1.072-0.331,1.641-0.212
			c4.994,1.061,9.951,2.274,14.893,3.558c1.239,0.324,2.635,0.097,3.718,1.001c0,0.968,0,1.931,0,2.899
			c-3.725-0.071-7.227-1.299-10.803-2.117C344.805,185.655,341.575,185.231,338.509,184.152z"/>
		<path fill="#BE2275" d="M338.505,178.663c-0.004-0.048-0.011-0.097-0.015-0.145c-0.089-2.43-0.104-2.352,2.311-1.965
			c4.972,0.796,9.772,2.348,14.718,3.249c1.079,0.197,2.095,0.752,3.241,0.577c0,0.968,0,1.931,0,2.899
			c-0.581,0.458-1.209,0.216-1.801,0.078c-5.712-1.317-11.469-2.434-17.137-3.941C339.313,179.28,338.762,179.232,338.505,178.663z"
			/>
		<path fill="#AF1F74" d="M338.509,190.817c0-0.964,0-1.931,0-2.895c2.981,0.677,5.962,1.347,8.939,2.028
			c3.77,0.863,7.539,1.738,11.309,2.609c0,0.871,0,1.738,0,2.609c-0.908,0.305-1.801,0.115-2.691-0.082
			c-4.629-1.02-9.188-2.371-13.873-3.145C340.928,191.725,339.663,191.442,338.509,190.817z"/>
		<path fill="#831971" d="M361.068,216.036c-0.629,0.324-1.317,0.268-1.987,0.268c-7,0.011-14,0.011-21,0
			c-0.666,0-1.358,0.078-1.983-0.26c0.581-0.592,1.336-0.476,2.043-0.476c3.751,0,7.506-0.06,11.257,0.045
			c1.585,0.011,3.178,0,4.778,0c-4.763-0.949-9.467-2.155-14.201-3.238c-3.613-0.826-7.253-1.544-10.844-2.471
			c-0.674-0.175-1.332-0.179-1.983,0.082c-0.54-0.603-0.848-1.329-1.105-2.08c0.38-0.744,1.005-0.577,1.634-0.465
			c3.412,0.61,6.713,1.712,10.111,2.363c5.723,1.094,11.335,2.668,17.04,3.852c1.604,0.331,3.182,0.77,4.782,1.113
			C360.264,214.909,361.098,215.024,361.068,216.036z"/>
		<path fill="#A81E73" d="M338.513,197.478c0-0.964,0-1.931,0-2.895c0.38-0.339,0.808-0.242,1.236-0.134
			c5.809,1.44,11.681,2.605,17.468,4.149c0.644,0.171,1.563,0.194,1.284,1.317c-0.487,0.912-0.927,1.868-2.065,2.151
			c-2.973-1.295-6.181-1.716-9.3-2.449C344.247,198.937,341.345,198.349,338.513,197.478z"/>
		<path fill="#7C1770" d="M349.759,216.018c-4.555,0.011-9.106,0.019-13.661,0.03c-3.398-0.461-6.047-2.166-8.116-4.849
			c0.208-1.105,1.068-0.748,1.686-0.655c1.902,0.279,3.736,0.901,5.627,1.262c4.105,0.785,8.09,2.114,12.232,2.746
			C348.419,214.685,349.453,214.864,349.759,216.018z"/>
		<path fill="#BB2175" d="M338.505,178.663c4.614,1.02,9.136,2.445,13.817,3.185c2.166,0.342,4.291,0.945,6.434,1.433
			c0,0.774,0,1.544,0,2.318c-3.58-0.342-6.978-1.515-10.468-2.281c-3.256-0.715-6.457-1.701-9.783-2.065
			C338.505,180.389,338.505,179.526,338.505,178.663z"/>
		<path fill="#CB2577" d="M371.808,171.391c0.29,2.129,0.32,4.257-0.019,6.382c-2.05,0.313-4.112,0.063-6.17,0.134
			c-0.521,0.019-0.64-0.287-0.636-0.737c0.007-1.73,0.007-3.461,0-5.188c0-0.461,0.145-0.741,0.655-0.722
			C367.692,171.332,369.757,171.093,371.808,171.391z"/>
		<path fill="#AD1F74" d="M338.509,190.817c2.806,0.54,5.645,0.96,8.414,1.656c2.594,0.651,5.206,1.206,7.807,1.812
			c1.34,0.313,2.687,0.588,4.03,0.882c0,0.674,0,1.351,0,2.024c-0.826,0.603-1.701,0.208-2.508,0.022
			c-5.437-1.269-10.881-2.504-16.34-3.688c-0.525-0.112-1.035-0.249-1.403-0.677C338.509,192.167,338.509,191.49,338.509,190.817z"
			/>
		<path fill="#A41E73" d="M338.513,197.478c0.707-0.313,1.325-0.071,2.043,0.13c2.237,0.636,4.529,1.079,6.795,1.615
			c2.787,0.659,5.563,1.358,8.358,1.987c0.54,0.123,0.755,0.335,0.722,0.852c-1.611,0.681-3.286,0.287-4.938,0.301
			c-0.13-0.06-0.268-0.119-0.413-0.104c-3.986,0.469-7.726-0.781-11.521-1.637c-0.357-0.082-0.618-0.242-0.822-0.532
			c-0.331-0.301-0.335-0.696-0.316-1.098C338.449,198.49,338.479,197.984,338.513,197.478z"/>
		<path fill="#871971" d="M361.068,216.036c-0.469-0.934-1.451-0.893-2.248-1.079c-6.14-1.44-12.295-2.817-18.443-4.227
			c-4.369-1.001-8.734-2.017-13.099-3.04c-0.461-0.108-0.852-0.007-1.239,0.216c-0.194-0.454-0.439-0.893-0.361-1.414
			c0.052-0.056,0.104-0.115,0.153-0.171c0.655-0.35,1.31-0.115,1.95,0.03c1.902,0.424,3.785,0.949,5.705,1.288
			c0.439,0.078,0.804,0.283,1.131,0.566c1.183,1.116,2.705,1.247,4.201,1.362c1.228,0.097,2.467,0.063,3.699,0.086
			c3.256,0.618,6.445,1.544,9.687,2.222c3.252,0.681,6.445,1.608,9.716,2.214c0.674,0.127,1.436,0.32,1.783,1.083
			C362.962,215.872,362.02,215.965,361.068,216.036z"/>
		<path fill="#AA1E73" d="M338.509,192.845c3.658,0.681,7.26,1.619,10.896,2.389c3.115,0.659,6.174,1.615,9.355,1.954
			c0.071,0.923,0.246,1.857-0.264,2.724c-0.007-0.655-0.547-0.763-0.994-0.86c-4.067-0.882-8.087-1.983-12.173-2.813
			c-2.281-0.461-4.577-0.99-6.821-1.66C338.509,194.002,338.509,193.425,338.509,192.845z"/>
		<path fill="#BF2375" d="M325.38,205.036c-0.327-0.633-0.216-1.321-0.216-1.987c-0.007-10.17,0.019-20.341-0.022-30.511
			c-0.004-1.183,0.29-1.492,1.47-1.295c3.554,0.603,5.385,2.825,5.474,6.818c-1.596-0.625-3.327-0.767-4.935-1.358
			c-0.941-0.346-1.34,0.037-1.332,0.997c0.007,0.956,0.011,1.913,0.011,2.869c0.045,1.198,0.037,2.397,0.011,3.595
			c0.037,1.332,0.041,2.668,0,4c0.03,1.064,0.041,2.132-0.004,3.197c0.019,1.057,0.045,2.114,0,3.171
			c0.022,0.956,0.033,1.913-0.004,2.869c0.011,0.599,0.03,1.202,0,1.801c0.019,0.685,0.026,1.366,0.007,2.05
			c-0.019,0.86,0.041,1.723-0.019,2.583C325.812,204.288,325.782,204.731,325.38,205.036z"/>
		<path fill="#801870" d="M349.759,216.018c-1.682-1.466-3.881-1.191-5.839-1.723c-2.024-0.554-4.034-1.191-6.092-1.556
			c-2.973-0.525-5.869-1.377-8.835-1.913c-0.376-0.067-0.781-0.037-1.012,0.376c-0.391-0.327-0.703-0.707-0.837-1.213
			c0.015-0.528,0.03-0.938,0.819-0.711c1.232,0.354,2.512,0.514,3.762,0.837c3.654,0.938,7.368,1.637,11.056,2.449
			c1.634,0.361,3.26,0.767,4.89,1.15c2.516,0.592,5.031,1.176,7.543,1.771c0.179,0.041,0.376,0.108,0.368,0.536
			C353.647,216.018,351.701,216.018,349.759,216.018z"/>
		<path fill="#B92175" d="M325.447,180.386c-0.007-1.102,0.022-2.207-0.03-3.308c-0.045-0.971,0.447-1.224,1.243-0.96
			c1.5,0.499,2.992,0.997,4.581,1.079c0.592,0.03,0.48,0.666,0.852,0.867c0.074,0.525,0.208,1.046,0.208,1.57
			c0.015,8.064,0.015,16.128,0.015,24.189c-0.7-0.145-0.521-0.741-0.618-1.198c-0.034-0.662-0.03-1.325-0.015-1.991
			c-0.007-0.592-0.034-1.183-0.004-1.771c-0.03-0.953-0.037-1.905-0.007-2.858c-0.037-1.146-0.037-2.292-0.004-3.439
			c-0.034-1.061-0.037-2.117,0-3.178c-0.026-1.206-0.037-2.411,0.007-3.613c-0.089-1.094,0.372-2.318-0.242-3.256
			c-0.629-0.956-1.972-0.51-2.94-0.915C327.483,181.186,326.295,181.204,325.447,180.386z"/>
		<path fill="#8A1A71" d="M363.706,215.169c-3.729-1.366-7.673-1.864-11.488-2.895c-2.356-0.636-4.763-1.083-7.108-1.76
			c-0.863-0.249-2.002,0.216-2.59-0.863c1.738,0,3.476,0,5.217,0c3.565,0.785,7.093,1.734,10.665,2.482
			c1.842,0.387,3.625,0.994,5.478,1.34c0.514,0.097,1.016,0.327,1.299,0.837C364.83,214.842,364.317,215.091,363.706,215.169z"/>
		<path fill="#A41E73" d="M371.837,204.18c-0.015,0.182-0.03,0.365-0.045,0.543c-0.35,0.465,0.011,1.053-0.268,1.529
			c-0.074,0.923-0.346,1.771-0.897,2.527c-1.541-1.935-3.77-1.82-5.906-1.972c-0.32-0.022-0.655,0.212-0.968-0.048
			c0.528-1.012,0.93-2.065,1.113-3.197c0.175-0.234,0.071-0.621,0.406-0.77c0.458-0.201,0.949-0.231,1.392-0.056
			c1.559,0.614,3.264,0.595,4.838,1.139C371.648,203.938,371.756,204.042,371.837,204.18z"/>
		<path fill="#911B72" d="M368.023,212.266c-0.372,0.581-0.804,1.105-1.459,1.392c-4.056-1.008-8.146-1.872-12.199-2.899
			c-0.815-0.208-1.857-0.052-2.281-1.109c2.374-0.011,4.748-0.022,7.123-0.033c2.951-0.086,5.69,0.837,8.425,1.768
			C368.012,211.515,368.321,211.783,368.023,212.266z"/>
		<path fill="#BC2376" d="M368.313,191.419c-0.964-0.134-2.497,0.532-3.252-0.249c-0.744-0.77-0.208-2.292-0.223-3.479
			c-0.037-2.981-0.011-2.981,3.003-2.981c1.061,0,2.121,0.037,3.178-0.011c0.767-0.037,1.005,0.26,0.982,1.005
			c-0.041,1.541-0.06,3.081,0.007,4.618c0.041,0.915-0.309,1.183-1.169,1.116C370.077,191.371,369.303,191.419,368.313,191.419z"/>
		<path fill="#8D1A71" d="M352.084,209.65c1.697,0.781,3.546,1.005,5.34,1.433c2.694,0.648,5.407,1.213,8.105,1.846
			c0.413,0.097,0.822,0.298,1.035,0.729c-0.551,0.026-0.763,0.77-1.384,0.651c-4.451-1.288-8.987-2.225-13.494-3.286
			c-1.329-0.313-2.802-0.447-3.952-1.373C349.185,209.65,350.633,209.65,352.084,209.65z"/>
		<path fill="#921B72" d="M332.067,202.695c0.067,0.38-0.1,0.811,0.246,1.128c0.13,0.588,0.257,1.176,0.387,1.764
			c-2.475-0.331-4.908-0.841-7.249-1.734c-0.004-0.867-0.004-1.734-0.007-2.601C327.706,201.493,329.927,201.895,332.067,202.695z"
			/>
		<path fill="#AC2175" d="M365.131,202.985c-0.086,0.19-0.175,0.38-0.26,0.573c-0.015-1.489,0.007-2.981-0.056-4.469
			c-0.034-0.796,0.305-0.979,1.02-0.964c1.73,0.037,3.465,0.015,5.195,0.011c0.517,0,0.994,0.022,0.96,0.729
			c-0.082,1.771,0.19,3.55-0.149,5.314l-0.082-0.06c-0.554-0.722-0.324-1.574-0.372-2.374c-0.037-0.621-0.145-1.154-0.878-1.288
			c-1.28-0.234-2.512-0.659-3.785-0.93c-1.079-0.231-1.236,0.19-1.213,1.098C365.533,201.422,365.712,202.275,365.131,202.985z"/>
		<path fill="#971C72" d="M368.023,212.266c-0.034-0.316-0.186-0.484-0.517-0.588c-2.724-0.863-5.519-1.433-8.302-2.062
			c0.99-0.409,1.983-0.819,2.977-1.228c1.939,0.528,3.896,0.982,5.828,1.529c0.54,0.153,1.466,0.119,1.172,1.183
			C368.898,211.593,368.622,212.088,368.023,212.266z"/>
		<path fill="#9F1D73" d="M363.755,206.755c1.972-0.8,3.785,0.022,5.66,0.48c0.96,0.234,1.325,0.621,1.213,1.544
			c-0.041,0.398-0.231,0.711-0.525,0.975c-1.448-0.625-2.996-0.875-4.529-1.176c-0.886-0.175-1.786-0.339-2.251-1.269
			C363.468,207.12,363.609,206.937,363.755,206.755z"/>
		<path fill="#9A1C72" d="M363.323,207.306c1.582,1.02,3.439,1.079,5.195,1.436c0.729,0.149,1.269,0.335,1.585,1.008
			c-0.175,0.543-0.484,0.99-0.923,1.351c-0.119-0.781-0.826-0.703-1.325-0.841c-1.507-0.424-3.025-0.804-4.555-1.146
			c-0.491-0.112-0.934-0.194-1.124-0.726C362.56,208.028,362.943,207.667,363.323,207.306z"/>
		<path fill="#8D1B72" d="M325.451,203.852c2.49,0.272,4.927,0.767,7.249,1.734c0.205,0.383,0.409,0.767,0.618,1.146
			c-0.562,0.447-1.183,0.257-1.771,0.112c-1.429-0.354-2.903-0.48-4.317-0.893c-0.633-0.186-1.113-0.067-1.481,0.48l-0.067,0.056
			c-0.327-0.439-0.29-0.949-0.294-1.451C325.406,204.641,325.428,204.247,325.451,203.852z"/>
		<path fill="#A11F74" d="M338.732,200.09c2.568,0.417,5.061,1.09,7.539,1.905c1.083,0.357,2.37,0.078,3.565,0.127
			c0.554,0.022,1.157-0.197,1.652,0.238c-3.156,0.019-6.311,0.089-9.463,0.034C340.492,202.368,339.302,201.62,338.732,200.09z"/>
		<path fill="#891A71" d="M325.745,206.435c-0.138-1.005,0.208-1.224,1.217-0.979c2.099,0.51,4.235,0.863,6.352,1.28
			c0.435,0.487,0.867,0.979,1.302,1.466C331.606,207.875,328.766,206.714,325.745,206.435z"/>
		<path fill="#C92979" d="M371.808,171.391c-1.823,0.004-3.651,0.048-5.474-0.007c-0.956-0.03-1.269,0.316-1.224,1.25
			c0.063,1.295,0.078,2.598-0.004,3.889c-0.067,1.068,0.402,1.295,1.355,1.265c1.775-0.056,3.554-0.015,5.329-0.015
			c-2.125,0.476-4.276,0.104-6.416,0.197c-0.543,0.022-0.551-0.417-0.551-0.815c0-1.73,0.004-3.461,0-5.191
			c0-0.413,0.037-0.819,0.581-0.789C367.539,171.287,369.69,170.878,371.808,171.391z"/>
		<path fill="#CA2879" d="M358.701,171.398c-5.716-0.011-11.428-0.022-17.144-0.03c0.324-0.063,0.644-0.182,0.968-0.182
			c5.132-0.011,10.267-0.011,15.399-0.004C358.199,171.179,358.511,171.093,358.701,171.398z"/>
		<path fill="#A81F74" d="M371.525,206.253c0.034-0.521-0.227-1.09,0.268-1.529C371.834,205.255,371.837,205.78,371.525,206.253z"/>
		<path fill="#B01F74" d="M332.067,185.599c0,1.254,0,2.512,0,3.766c-0.309,0.279-0.685,0.394-1.072,0.301
			c-1.861-0.45-3.773-0.685-5.549-1.459c0-1.351,0-2.705,0-4.056c0.19-0.167,0.428-0.29,0.662-0.227
			C328.097,184.475,330.192,184.65,332.067,185.599z"/>
		<path fill="#B52074" d="M332.067,185.599c-1.764-0.078-3.409-0.707-5.106-1.098c-0.506-0.115-1.008-0.234-1.515-0.35
			c0-1.254,0-2.512,0-3.766c1.931,0.316,3.733,1.183,5.712,1.299c0.64,0.037,0.994,0.439,0.941,1.18
			C332.034,183.768,332.075,184.687,332.067,185.599z"/>
		<path fill="#AB1F74" d="M325.447,188.208c1.723-0.123,3.282,0.625,4.92,0.941c0.569,0.112,1.124,0.227,1.701,0.216
			c0,1.064,0,2.125,0,3.189c-0.149,0.123-0.305,0.279-0.491,0.283c-2.162,0.03-4.239-0.313-6.129-1.44
			C325.447,190.333,325.447,189.268,325.447,188.208z"/>
		<path fill="#A71E73" d="M325.447,191.397c2.218,0.32,4.321,1.299,6.62,1.157c0,1.157,0,2.318,0,3.476
			c-0.231,0.201-0.51,0.298-0.793,0.223c-1.954-0.51-4.056-0.514-5.828-1.671C325.447,193.522,325.447,192.458,325.447,191.397z"/>
		<path fill="#A41D73" d="M325.447,194.583c2.207,0.484,4.414,0.968,6.62,1.448c0,0.964,0,1.931,0,2.895
			c-1.466,0.324-2.791-0.428-4.194-0.607c-0.811-0.104-1.712-0.29-2.426-0.841C325.447,196.514,325.447,195.546,325.447,194.583z"/>
		<path fill="#991C72" d="M332.067,202.695c-2.266-0.208-4.503-0.554-6.624-1.44c0-0.677,0-1.358,0.004-2.036
			c0.614-0.536,1.299-0.22,1.928-0.093c1.622,0.324,3.331,0.417,4.696,1.537C332.067,201.341,332.067,202.018,332.067,202.695z"/>
		<path fill="#9F1D73" d="M332.067,200.663c-2.177-0.621-4.35-1.265-6.62-1.444c0-0.581,0-1.161,0-1.738
			c2.248,0.301,4.451,0.8,6.62,1.448C332.067,199.506,332.067,200.083,332.067,200.663z"/>
		<path fill="#A81F74" d="M365.131,202.985c0-0.532-0.004-1.061-0.004-1.593c0-2.758,0.007-2.78,2.728-2.08
			c1.068,0.275,2.091,0.722,3.208,0.774c0.692,0.03,0.729,0.48,0.726,0.997c-0.015,1.012-0.019,2.024-0.03,3.037
			c-1.63-0.194-3.275-0.309-4.812-0.949C366.345,202.918,365.738,203.023,365.131,202.985z"/>
		<path fill="#B82275" d="M368.324,191.103c-0.048,0-0.097,0-0.145,0c-3.29,0-3.528-0.294-3.063-3.58
			c0.074-0.536,0.249-0.778,0.811-0.729c1.868,0.167,3.599,0.923,5.437,1.269c0.915,0.175,0.305,1.518,0.398,2.326
			c0.082,0.692-0.476,0.715-0.982,0.711C369.962,191.099,369.143,191.103,368.324,191.103z"/>
	</g>
</g>
<rect x="40.035" y="114.957" fill="#FEFEFE" width="337.93" height="15.416"/>
<g>
	<path fill="#194C51" d="M246.91,122.749c-0.019,6.427-3.529,10.248-9.384,10.216c-5.779-0.032-9.384-4.031-9.326-10.343
		c0.057-6.351,3.7-10.299,9.447-10.242C243.451,112.437,246.929,116.328,246.91,122.749z"/>
	<path fill="#194C51" d="M186.711,122.723c0-6.574,3.331-10.35,9.142-10.356c5.83-0.006,9.256,3.789,9.275,10.274
		c0.019,6.523-3.357,10.318-9.18,10.324C190.055,132.978,186.711,129.265,186.711,122.723z"/>
	<path fill="#194C51" d="M218.257,132.946c-5.003,0.064-8.214-1.462-9.657-5.404c-1.583-4.31-1.589-8.614,1.577-12.359
		c2.753-3.255,6.44-3.096,10.172-2.429c0.655,0.114,1.335,0.483,1.856,0.909c1.322,1.068,3.414,2.295,2.244,4.107
		c-1.182,1.837-2.772,0.852-4.253-0.629c-2.231-2.231-5.029-1.92-6.942,0.343c-2.524,2.982-2.257,6.593-0.394,9.822
		c1.418,2.454,3.916,2.753,6.478,1.793c1.125-0.42,2.371-0.935,2.212-2.518c-0.153-1.583-1.456-1.182-2.39-1.208
		c-1.278-0.032-1.952-0.49-1.875-1.844c0.089-1.507,1.246-1.666,2.231-1.443c2.073,0.47,5.372-1.729,5.97,1.971
		c0.515,3.179,0.979,6.898-3.567,8.068C220.406,132.513,218.873,132.806,218.257,132.946z"/>
	<path fill="#194C51" d="M171.11,122.545c0-2.435-0.013-4.876,0.006-7.311c0.013-1.202-0.14-2.46,1.736-2.505
		c1.945-0.045,2.314,1.004,2.289,2.626c-0.045,3.306,0.172,6.631-0.057,9.924c-0.216,3.096,0.648,4.635,4.005,4.132
		c1.189-0.178,2.435-0.038,3.649-0.006c1.157,0.032,2.015,0.381,1.933,1.818c-0.07,1.138-0.776,1.449-1.704,1.462
		c-3.306,0.032-6.618-0.006-9.924,0.045c-1.697,0.025-1.971-0.947-1.952-2.34C171.142,127.771,171.11,125.158,171.11,122.545z"/>
	<path fill="#FEFEFE" d="M242.828,122.405c-0.064,3.738-0.884,7.069-5.245,7.044c-4.304-0.025-5.302-3.389-5.283-6.942
		c0.013-3.363,1.043-6.446,5.073-6.599C241.811,115.73,242.714,118.915,242.828,122.405z"/>
	<path fill="#FEFEFE" d="M201.302,122.59c-0.401,3.433-0.985,6.961-5.436,6.885c-4.406-0.076-5.162-3.49-5.137-7.012
		c0.019-3.357,0.877-6.459,5.01-6.586C200.253,115.736,200.882,119.15,201.302,122.59z"/>
</g>
</svg>
