<?xml version="1.0" encoding="utf-8"?>
<!-- Generator: Adobe Illustrator 17.0.0, SVG Export Plug-In . SVG Version: 6.00 Build 0)  -->
<!DOCTYPE svg PUBLIC "-//W3C//DTD SVG 1.1//EN" "http://www.w3.org/Graphics/SVG/1.1/DTD/svg11.dtd">
<svg version="1.1" id="Layer_1" xmlns="http://www.w3.org/2000/svg" xmlns:xlink="http://www.w3.org/1999/xlink" x="0px" y="0px"
	 width="418px" height="130.333px" viewBox="0 0 418 245.333" enable-background="new 0 0 418 245.333" xml:space="preserve">
<rect y="0.002" fill="#FFFFFF" width="418" height="245.33"/>
<rect x="42.077" y="245.333" fill="#FEFEFE" width="337.93" height="15.416"/>
<g>
	<g>
		<path fill="#194C51" d="M106.954,29.246c-0.012,4.051-2.223,6.46-5.915,6.439c-3.642-0.021-5.915-2.54-5.878-6.519
			c0.037-4.003,2.333-6.492,5.954-6.455C104.773,22.748,106.965,25.199,106.954,29.246z"/>
		<path fill="#194C51" d="M69.013,29.23c0-4.143,2.099-6.524,5.761-6.526c3.674-0.004,5.835,2.388,5.846,6.476
			c0.012,4.111-2.115,6.503-5.786,6.508C71.121,35.693,69.013,33.353,69.013,29.23z"/>
		<path fill="#194C51" d="M88.896,35.672c-3.154,0.039-5.176-0.922-6.087-3.405c-0.998-2.717-1.002-5.43,0.993-7.789
			c1.735-2.051,4.059-1.951,6.411-1.531c0.412,0.072,0.842,0.304,1.17,0.572c0.834,0.673,2.152,1.446,1.414,2.589
			c-0.745,1.158-1.747,0.538-2.68-0.397c-1.406-1.406-3.17-1.21-4.375,0.217c-1.591,1.88-1.422,4.154-0.249,6.19
			c0.894,1.547,2.468,1.735,4.083,1.131c0.71-0.265,1.494-0.589,1.395-1.586c-0.096-0.998-0.918-0.745-1.506-0.761
			c-0.805-0.021-1.23-0.309-1.182-1.163c0.056-0.95,0.786-1.05,1.406-0.91c1.306,0.297,3.386-1.09,3.763,1.242
			c0.325,2.003,0.618,4.347-2.248,5.085C90.249,35.4,89.284,35.585,88.896,35.672z"/>
		<path fill="#194C51" d="M59.181,29.118c0-1.535-0.007-3.074,0.004-4.607c0.007-0.757-0.088-1.551,1.094-1.579
			c1.226-0.028,1.458,0.633,1.442,1.655c-0.028,2.083,0.108,4.179-0.037,6.255c-0.136,1.951,0.409,2.921,2.524,2.605
			c0.749-0.112,1.535-0.025,2.301-0.004c0.729,0.021,1.271,0.241,1.218,1.147c-0.044,0.717-0.49,0.913-1.074,0.922
			c-2.083,0.021-4.171-0.004-6.255,0.028c-1.069,0.016-1.242-0.597-1.23-1.474C59.2,32.412,59.181,30.764,59.181,29.118z"/>
		<path fill="#FEFEFE" d="M104.381,29.03c-0.041,2.356-0.556,4.455-3.306,4.439c-2.713-0.016-3.342-2.136-3.331-4.375
			c0.009-2.12,0.657-4.063,3.198-4.159C103.74,24.823,104.309,26.83,104.381,29.03z"/>
		<path fill="#FEFEFE" d="M78.209,29.146c-0.252,2.163-0.621,4.388-3.426,4.34c-2.777-0.048-3.253-2.2-3.237-4.419
			c0.012-2.115,0.554-4.071,3.157-4.151C77.549,24.826,77.944,26.978,78.209,29.146z"/>
	</g>
	<g>
		<path fill="#4B7E7F" d="M132.029,64.88c0-5.469,0.035-10.546-0.022-15.622c-0.016-1.431,0.502-1.911,1.923-1.901
			c7.596,0.049,15.194,0.036,22.79,0.009c1.181-0.004,1.872,0.253,1.861,1.638c-0.043,5.46-0.017,10.921-0.017,17.194
			c-2.595-2.743-4.766-4.875-6.739-7.178c-1.359-1.586-2.469-1.859-3.74-0.04c-1.426,2.042-2.5,2.482-4.212-0.045
			c-3.132-4.624-3.306-4.503-6.661-0.1c-1.392,1.827-2.795,3.646-4.205,5.459C132.901,64.43,132.695,64.488,132.029,64.88z"/>
		<path fill="#4B7E7F" d="M133.171,67.472c2.312-3.072,4.407-5.833,6.476-8.614c0.661-0.888,1.209-0.863,1.839,0.025
			c0.751,1.06,1.658,2.022,2.316,3.134c1.325,2.24,2.638,2.129,4.006,0.121c1.379-2.023,2.593-2.247,4.189-0.097
			c1.36,1.833,3.078,3.401,4.956,5.43C148.951,67.472,141.356,67.472,133.171,67.472z"/>
		<path fill="#FEDDE7" d="M151.548,52.474c-0.051,0.697-0.463,1.149-1.119,1.175c-0.807,0.033-1.356-0.455-1.317-1.286
			c0.039-0.826,0.643-1.287,1.424-1.18C151.151,51.268,151.573,51.757,151.548,52.474z"/>
	</g>
	<g>
		<path fill="#4B7E7F" d="M132.029,99.149c0-5.469,0.035-10.546-0.022-15.622c-0.016-1.431,0.502-1.911,1.923-1.901
			c7.596,0.049,15.194,0.036,22.79,0.009c1.181-0.004,1.872,0.253,1.861,1.638c-0.043,5.46-0.017,10.921-0.017,17.194
			c-2.595-2.743-4.766-4.875-6.739-7.178c-1.359-1.586-2.469-1.859-3.74-0.04c-1.426,2.042-2.5,2.482-4.212-0.045
			c-3.132-4.624-3.306-4.503-6.661-0.1c-1.392,1.827-2.795,3.646-4.205,5.459C132.901,98.699,132.695,98.757,132.029,99.149z"/>
		<path fill="#4B7E7F" d="M133.171,101.74c2.312-3.072,4.407-5.833,6.476-8.614c0.661-0.888,1.209-0.863,1.839,0.025
			c0.751,1.06,1.658,2.022,2.316,3.134c1.325,2.24,2.638,2.129,4.006,0.121c1.379-2.023,2.593-2.247,4.189-0.097
			c1.36,1.833,3.078,3.401,4.956,5.43C148.951,101.74,141.356,101.74,133.171,101.74z"/>
		<path fill="#FEDDE7" d="M151.548,86.743c-0.051,0.697-0.463,1.149-1.119,1.175c-0.807,0.033-1.356-0.455-1.317-1.286
			c0.039-0.826,0.643-1.287,1.424-1.18C151.151,85.537,151.573,86.026,151.548,86.743z"/>
	</g>
	<g>
		<path fill="#4B7E7F" d="M132.029,132.012c0-5.469,0.035-10.546-0.022-15.622c-0.016-1.431,0.502-1.911,1.923-1.901
			c7.596,0.049,15.194,0.036,22.79,0.009c1.181-0.004,1.872,0.253,1.861,1.638c-0.043,5.46-0.017,10.921-0.017,17.194
			c-2.595-2.743-4.766-4.875-6.739-7.178c-1.359-1.586-2.469-1.859-3.74-0.04c-1.426,2.042-2.5,2.482-4.212-0.045
			c-3.132-4.624-3.306-4.503-6.661-0.1c-1.392,1.827-2.795,3.646-4.205,5.459C132.901,131.563,132.695,131.62,132.029,132.012z"/>
		<path fill="#4B7E7F" d="M133.171,134.604c2.312-3.072,4.407-5.833,6.476-8.614c0.661-0.888,1.209-0.863,1.839,0.025
			c0.751,1.06,1.658,2.022,2.316,3.134c1.325,2.24,2.638,2.129,4.006,0.121c1.379-2.023,2.593-2.247,4.189-0.097
			c1.36,1.833,3.078,3.401,4.956,5.43C148.951,134.604,141.356,134.604,133.171,134.604z"/>
		<path fill="#FEDDE7" d="M151.548,119.606c-0.051,0.697-0.463,1.149-1.119,1.175c-0.807,0.033-1.356-0.455-1.317-1.286
			c0.039-0.826,0.643-1.287,1.424-1.18C151.151,118.4,151.573,118.889,151.548,119.606z"/>
	</g>
	<path fill="#D8D9D9" d="M211.923,165.171c-54.332,0-108.663-0.048-162.994,0.093c-4.231,0.011-5.986-0.937-5.542-5.402
		c0.369-3.716,0.19-7.501,0.039-11.247c-0.105-2.594,0.963-3.556,3.441-3.312c0.892,0.088,1.8,0.013,2.7,0.013
		c108.213,0,216.426,0,324.638,0c6.137,0,6.138,0.002,6.141,5.963c0.002,3.002-0.267,6.033,0.065,8.998
		c0.456,4.078-1.143,4.994-5.044,4.98c-39.472-0.14-78.945-0.085-118.418-0.085C241.941,165.171,226.932,165.171,211.923,165.171z"
		/>
	<path fill="#194C51" d="M169.424,29.288c10.487,0,20.975,0.099,31.46-0.064c2.949-0.046,3.874,0.798,3.79,3.782
		c-0.077,2.721-0.5,3.965-3.656,3.945c-21.123-0.132-42.247-0.122-63.37-0.006c-2.963,0.016-3.904-0.827-3.826-3.807
		c0.072-2.731,0.504-3.99,3.694-3.928C148.148,29.416,158.787,29.288,169.424,29.288z"/>
	<path fill="#194C51" d="M247.304,29.288c10.479,0,20.961,0.158,31.434-0.091c3.391-0.081,3.484,1.459,3.492,3.996
		c0.007,2.414-0.134,3.786-3.27,3.764c-21.256-0.144-42.513-0.154-63.769,0.007c-3.325,0.025-3.452-1.42-3.581-4
		c-0.152-3.027,0.904-3.783,3.81-3.74C226.046,29.384,236.676,29.288,247.304,29.288z"/>
	<path fill="#194C51" d="M324.466,36.882c-10.179,0-20.359-0.11-30.535,0.068c-3.018,0.053-3.793-0.928-3.719-3.819
		c0.069-2.671,0.387-3.947,3.608-3.923c20.506,0.155,41.015,0.173,61.52-0.012c3.475-0.031,3.366,1.602,3.44,4.051
		c0.076,2.514-0.276,3.769-3.33,3.711C345.125,36.76,334.795,36.882,324.466,36.882z"/>
	<path fill="#7F7F81" d="M325.987,47.015c10.197,0,20.395-0.031,30.591,0.037c1.309,0.009,3.421-0.829,3.581,1.479
		c0.178,2.564-2.009,2.112-3.571,2.114c-20.694,0.022-41.389,0.026-62.083-0.011c-1.344-0.002-3.328,0.62-3.333-1.8
		c-0.005-2.432,1.99-1.785,3.323-1.791C304.992,46.993,315.49,47.016,325.987,47.015z"/>
	<path fill="#7F7F81" d="M90.002,58.976c-10.35-0.001-20.7,0.036-31.049-0.043c-1.404-0.011-3.75,0.931-3.721-1.8
		c0.029-2.701,2.36-1.763,3.77-1.767c20.399-0.06,40.798-0.056,61.198-0.012c1.618,0.004,4.194-0.755,3.97,2.12
		c-0.194,2.489-2.599,1.439-4.019,1.452C110.101,59.021,100.051,58.977,90.002,58.976z"/>
	<path fill="#7F7F81" d="M314.14,59.569c-6.443,0-12.885,0.037-19.327-0.028c-1.486-0.015-3.603,0.7-3.72-1.942
		c-0.118-2.656,1.942-2.173,3.493-2.176c13.484-0.028,26.969-0.025,40.453-0.004c1.597,0.002,3.688-0.327,3.575,2.177
		c-0.112,2.473-2.251,1.943-3.797,1.953C327.924,59.595,321.032,59.569,314.14,59.569z"/>
	<path fill="#7F7F81" d="M82.644,87.502c8.545,0,17.089-0.033,25.633,0.035c1.316,0.01,3.363-0.757,3.507,1.598
		c0.17,2.761-2.104,1.992-3.556,1.996c-16.789,0.047-33.578,0.046-50.367-0.001c-1.322-0.004-3.35,0.741-3.502-1.607
		c-0.18-2.793,2.118-1.973,3.551-1.985C66.154,87.465,74.399,87.502,82.644,87.502z"/>
	<path fill="#7F7F81" d="M240.499,100.447c-8.238,0-16.477,0.047-24.715-0.045c-1.415-0.016-3.725,0.954-3.857-1.675
		c-0.136-2.72,2.2-1.907,3.638-1.912c16.776-0.053,33.553-0.048,50.329-0.007c1.335,0.003,3.371-0.678,3.421,1.692
		c0.057,2.724-2.213,1.899-3.653,1.911C257.275,100.484,248.887,100.447,240.499,100.447z"/>
	<path fill="#7F7F81" d="M82.942,123.854c-8.396,0-16.792,0.03-25.187-0.032c-1.319-0.01-3.303,0.716-3.414-1.696
		c-0.113-2.447,1.845-1.91,3.216-1.913c16.941-0.032,33.883-0.036,50.825,0.007c1.33,0.003,3.362-0.686,3.404,1.706
		c0.049,2.762-2.237,1.876-3.656,1.889C99.734,123.895,91.338,123.854,82.942,123.854z"/>
	<path fill="#194C51" d="M75.372,50.436c-5.852,0-11.704,0.003-17.556-0.002c-1.355-0.001-2.756,0.166-2.806-1.911
		c-0.048-1.992,1.151-2.095,2.628-2.093c11.854,0.016,23.709,0.018,35.563-0.003c1.516-0.003,2.621,0.172,2.558,2.144
		c-0.068,2.134-1.515,1.855-2.83,1.858C87.076,50.445,81.224,50.436,75.372,50.436z"/>
	<path fill="#194C51" d="M248.788,73.1c-3.288,0-6.579-0.094-9.862,0.027c-3.245,0.119-2.512-2.159-2.621-3.992
		c-0.114-1.933-0.062-3.542,2.663-3.498c6.574,0.108,13.151,0.103,19.725,0.002c2.748-0.042,2.72,1.624,2.638,3.533
		c-0.08,1.879,0.512,4.081-2.682,3.956C255.367,73,252.076,73.1,248.788,73.1z"/>
	<path fill="#194C51" d="M224.76,55.316c2.536-0.001,5.083,0.143,7.606-0.038c2.965-0.213,4.657,0.198,4.621,3.944
		c-0.036,3.773-2.087,3.526-4.597,3.498c-5.818-0.065-11.644-0.192-17.453,0.044c-3.34,0.135-3.009-1.792-3.075-3.967
		c-0.069-2.251,0.19-3.724,3.054-3.531C218.184,55.486,221.478,55.317,224.76,55.316z"/>
	<path fill="#194C51" d="M74.064,115.346c-5.699,0-11.398,0.002-17.097-0.002c-1.35-0.001-2.739,0.193-2.793-1.903
		c-0.051-1.99,1.103-2.117,2.594-2.114c11.548,0.018,23.097,0.02,34.645-0.002c1.515-0.003,2.615,0.168,2.558,2.142
		c-0.061,2.126-1.48,1.872-2.808,1.875C85.462,115.351,79.763,115.346,74.064,115.346z"/>
	<path fill="#194C51" d="M231.708,87.936c5.539,0,11.077-0.017,16.616,0.012c1.434,0.007,3.16-0.359,3.142,2.032
		c-0.018,2.429-1.797,1.948-3.194,1.951c-11.227,0.026-22.454,0.02-33.681,0.007c-1.304-0.002-2.794,0.302-2.91-1.796
		c-0.128-2.33,1.41-2.212,2.962-2.209C220.331,87.941,226.02,87.935,231.708,87.936z"/>
	<path fill="#7F7F81" d="M184.005,45.47c5.379,0,10.758-0.005,16.137,0.004c1.368,0.002,2.778-0.064,2.873,1.919
		c0.108,2.24-1.393,2.28-2.974,2.279c-11.057-0.004-22.114,0-33.171-0.006c-1.376-0.001-2.792,0.022-2.892-1.927
		c-0.114-2.231,1.417-2.271,2.993-2.27C172.649,45.471,178.327,45.47,184.005,45.47z"/>
	<path fill="#7F7F81" d="M79.082,64.238c6.73,0,13.46-0.033,20.19,0.028c1.33,0.012,3.31-0.683,3.365,1.735
		c0.055,2.443-1.923,1.826-3.267,1.83c-13.61,0.039-27.219,0.043-40.829-0.008c-1.303-0.005-3.287,0.732-3.346-1.726
		c-0.059-2.485,1.923-1.819,3.248-1.83C65.323,64.205,72.203,64.238,79.082,64.238z"/>
	<path fill="#7F7F81" d="M235.815,109.311c-6.875,0-13.749,0.034-20.623-0.03c-1.319-0.012-3.299,0.674-3.302-1.78
		c-0.003-2.461,1.982-1.777,3.298-1.782c13.599-0.047,27.199-0.045,40.799-0.005c1.339,0.004,3.316-0.645,3.317,1.78
		c0.001,2.415-1.965,1.783-3.313,1.793C249.265,109.34,242.54,109.311,235.815,109.311z"/>
	<path fill="#7F7F81" d="M77.981,99.602c-6.751,0-13.503,0.034-20.254-0.029c-1.337-0.012-3.314,0.656-3.387-1.746
		c-0.074-2.437,1.898-1.878,3.263-1.881c13.502-0.038,27.005-0.038,40.508-0.001c1.535,0.004,3.746-0.508,3.644,2.057
		c-0.093,2.337-2.204,1.549-3.52,1.565C91.484,99.645,84.732,99.603,77.981,99.602z"/>
	<path fill="#194C51" d="M223.022,73.082c-2.238,0-4.488-0.149-6.71,0.037c-2.987,0.25-4.572-0.199-4.557-3.943
		c0.015-3.753,1.919-3.592,4.471-3.55c5.07,0.084,10.148,0.162,15.213-0.028c2.784-0.105,3.219,1.192,3.08,3.499
		c-0.126,2.077,0.425,4.306-2.998,4.031C228.705,72.902,225.856,73.082,223.022,73.082z"/>
	<path fill="#194C51" d="M270.158,55.321c2.238-0.001,4.483,0.119,6.711-0.031c2.861-0.192,4.65-0.003,4.591,3.862
		c-0.056,3.673-1.805,3.64-4.42,3.582c-5.07-0.112-10.149-0.173-15.214,0.022c-2.732,0.105-3.306-1.06-3.135-3.439
		c0.147-2.052-0.485-4.318,2.967-4.041C264.474,55.502,267.323,55.322,270.158,55.321z"/>
	<path fill="#194C51" d="M73.924,82.253c-5.704,0-11.408-0.011-17.112,0.008c-1.416,0.005-2.685,0.107-2.602-2.004
		c0.074-1.88,1.268-1.694,2.453-1.694c11.558-0.006,23.117,0.001,34.675-0.01c1.406-0.001,2.696-0.126,2.595,2.006
		c-0.109,2.274-1.703,1.662-2.896,1.673C85.333,82.281,79.628,82.254,73.924,82.253z"/>
	<path fill="#7F7F81" d="M183.082,58.075c-5.247,0-10.494,0.038-15.739-0.026c-1.355-0.017-3.314,0.563-3.268-1.872
		c0.039-2.048,1.711-1.729,2.99-1.732c10.943-0.025,21.886-0.026,32.829,0.001c1.263,0.003,2.937-0.383,3.029,1.677
		c0.109,2.459-1.834,1.916-3.201,1.929C194.175,58.108,188.628,58.075,183.082,58.075z"/>
	<path fill="#7F7F81" d="M183.518,83.328c-5.403,0-10.805,0.033-16.207-0.023c-1.377-0.014-3.302,0.499-3.241-1.926
		c0.051-2.06,1.712-1.73,2.99-1.733c10.955-0.025,21.91-0.026,32.865,0c1.267,0.003,2.926-0.371,3.002,1.706
		c0.09,2.442-1.818,1.942-3.202,1.955C194.323,83.359,188.92,83.328,183.518,83.328z"/>
	<path fill="#7F7F81" d="M183.5,126.357c-5.399,0-10.799,0.031-16.198-0.021c-1.379-0.013-3.305,0.514-3.232-1.916
		c0.062-2.086,1.767-1.669,3.015-1.673c10.949-0.032,21.897-0.032,32.846-0.001c1.246,0.004,2.938-0.427,2.996,1.682
		c0.067,2.457-1.861,1.893-3.229,1.907C194.299,126.389,188.9,126.357,183.5,126.357z"/>
	<path fill="#7F7F81" d="M183.533,88.584c5.553,0,11.106-0.009,16.659,0.006c1.344,0.004,2.853-0.167,2.755,1.943
		c-0.084,1.794-1.41,1.657-2.589,1.658c-11.256,0.013-22.512,0.012-33.767-0.001c-1.198-0.001-2.501,0.063-2.544-1.715
		c-0.052-2.132,1.523-1.873,2.829-1.879C172.427,88.568,177.98,88.584,183.533,88.584z"/>
	<path fill="#7F7F81" d="M184.006,113.793c5.377,0,10.755-0.016,16.132,0.012c1.293,0.007,2.869-0.274,2.807,1.86
		c-0.061,2.103-1.651,1.761-2.917,1.764c-11.053,0.025-22.107,0.023-33.16,0.002c-1.304-0.002-2.873,0.225-2.819-1.878
		c0.054-2.11,1.673-1.735,2.93-1.744C172.654,113.771,178.33,113.793,184.006,113.793z"/>
	<path fill="#7F7F81" d="M177.282,131.11c3.441,0,6.881-0.024,10.322,0.011c1.47,0.015,3.264-0.193,3.354,1.976
		c0.09,2.157-1.591,2.184-3.141,2.186c-7.031,0.006-14.062,0.001-21.092,0.005c-1.573,0.001-3.217-0.059-3.121-2.202
		c0.097-2.168,1.877-1.957,3.357-1.968C170.401,131.092,173.841,131.11,177.282,131.11z"/>
	<path fill="#7F7F81" d="M177.342,101.114c-3.591-0.003-7.182,0.008-10.774-0.009c-1.222-0.006-2.468-0.022-2.532-1.755
		c-0.065-1.747,1.13-1.869,2.391-1.871c7.332-0.011,14.664-0.012,21.996-0.008c1.234,0.001,2.496,0.023,2.524,1.756
		c0.034,2.077-1.505,1.873-2.832,1.882C184.524,101.132,180.933,101.117,177.342,101.114z"/>
	<path fill="#7F7F81" d="M177.405,66.954c-3.443,0-6.886,0.039-10.328-0.021c-1.235-0.021-2.892,0.457-3.026-1.645
		c-0.133-2.093,1.407-1.939,2.748-1.942c7.185-0.015,14.37-0.013,21.555-0.001c1.194,0.002,2.508-0.112,2.587,1.665
		c0.093,2.091-1.413,1.931-2.759,1.938C184.591,66.965,180.998,66.953,177.405,66.954z"/>
	<path fill="#4B7E7F" d="M335.221,81.118c-0.334,2.604-1.776,4.253-4.309,4.277c-2.782,0.027-4.515-1.765-4.372-4.5
		c0.129-2.457,1.778-4.092,4.424-4.002C333.599,76.982,334.827,78.707,335.221,81.118z"/>
	<path fill="#4B7E7F" d="M323.541,81.08c-0.315,2.655-1.778,4.29-4.368,4.314c-2.619,0.025-4.316-1.657-4.307-4.233
		c0.008-2.538,1.601-4.239,4.275-4.262C321.835,76.877,323.115,78.612,323.541,81.08z"/>
	<path fill="#4B7E7F" d="M306.863,76.822c2.526,0.328,4.14,1.663,4.113,4.35c-0.027,2.703-1.72,4.181-4.274,4.185
		c-2.619,0.004-4.226-1.629-4.17-4.277C302.588,78.476,304.176,77.041,306.863,76.822z"/>
	<path fill="#4B7E7F" d="M295.058,76.786c2.756,0.44,4.324,1.805,4.227,4.495c-0.098,2.704-1.813,4.126-4.36,4.068
		c-2.616-0.059-4.115-1.686-4.015-4.373C291.01,78.28,292.701,77.068,295.058,76.786z"/>
	<path fill="#F4F4F5" d="M258.656,45.331c-0.017,1.806-0.034,3.612-0.052,5.418c-0.503,0-1.007,0.001-1.51,0.001
		c-0.018-1.807-0.035-3.613-0.053-5.42C257.579,45.331,258.118,45.331,258.656,45.331z"/>
	<path fill="#194C51" d="M95.231,157.887c-12.589,0-25.178,0.024-37.766-0.03c-1.577-0.007-3.895,0.883-3.784-2.236
		c0.095-2.671,2.065-2.079,3.595-2.08c25.477-0.023,50.954-0.025,76.432,0.004c1.642,0.002,3.896-0.717,3.761,2.317
		c-0.137,3.088-2.52,1.968-4.022,1.978C120.708,157.922,107.97,157.887,95.231,157.887z"/>
	<path fill="#194C51" d="M331.71,153.473c11.085,0,22.171-0.029,33.256,0.034c1.551,0.009,3.824-0.942,3.819,2.188
		c-0.005,3.143-2.296,2.159-3.831,2.162c-22.321,0.051-44.641,0.05-66.962,0.004c-1.566-0.003-3.864,0.92-3.856-2.178
		c0.008-3.085,2.295-2.17,3.868-2.178C309.239,153.446,320.474,153.473,331.71,153.473z"/>
	<g>
		
			<rect x="281.408" y="99.773" fill="none" stroke="#9FA0A8" stroke-width="0.5" stroke-miterlimit="10" width="65.518" height="11.874"/>
		<rect x="345.262" y="98.583" fill="#4B7E7F" width="19.027" height="14.179"/>
	</g>
	<path fill="#194C51" d="M229.95,48.552c0,1.823-0.683,3.301-1.525,3.301h-14.734c-0.842,0-1.525-1.478-1.525-3.301l0,0
		c0-1.823,0.683-3.301,1.525-3.301h14.734C229.267,45.251,229.95,46.729,229.95,48.552L229.95,48.552z"/>
	<path fill="#194C51" d="M256.133,59.001c0,1.823-0.683,3.301-1.525,3.301h-14.734c-0.842,0-1.525-1.478-1.525-3.301l0,0
		c0-1.823,0.683-3.301,1.525-3.301h14.734C255.451,55.701,256.133,57.178,256.133,59.001L256.133,59.001z"/>
	<path fill="#194C51" d="M281.045,69.384c0,1.823-0.683,3.301-1.525,3.301h-14.734c-0.842,0-1.525-1.478-1.525-3.301l0,0
		c0-1.823,0.683-3.301,1.525-3.301h14.734C280.362,66.084,281.045,67.561,281.045,69.384L281.045,69.384z"/>
	<path fill="#194C51" d="M256.644,48.552c0,1.823-0.961,3.301-2.147,3.301h-20.752c-1.186,0-2.147-1.478-2.147-3.301l0,0
		c0-1.823,0.961-3.301,2.147-3.301h20.752C255.682,45.251,256.644,46.729,256.644,48.552L256.644,48.552z"/>
	<path fill="#194C51" d="M283.338,48.552c0,1.823-0.961,3.301-2.147,3.301h-20.752c-1.186,0-2.147-1.478-2.147-3.301l0,0
		c0-1.823,0.961-3.301,2.147-3.301h20.752C282.376,45.251,283.338,46.729,283.338,48.552L283.338,48.552z"/>
</g>
<g>
	<path fill="#C52275" d="M337.214,178.59c0.551-1.069,1.41-1.68,2.625-1.755c3.439-0.248,6.886-0.071,10.328-0.101
		c2.318-0.019,4.635-0.09,6.949,0.131c0.24,2.04,0.139,4.088,0.056,6.132c-0.506,0.439-1.08,0.353-1.658,0.203
		c-5.029-1.305-10.148-2.228-15.185-3.495C339.266,179.434,338.122,179.333,337.214,178.59z"/>
	<path fill="#B32074" d="M357.177,194.094c0,1.365,0,2.727,0,4.092c-1.601,0.386-3.072-0.319-4.564-0.63
		c-4.609-0.968-9.162-2.213-13.771-3.199c-0.78-0.169-1.658-0.229-2.235-0.93c-0.049-1.2-0.038-2.4-0.007-3.6
		c0.42-0.578,0.949-0.315,1.451-0.184c4.227,1.118,8.521,1.946,12.774,2.959C352.94,193.104,355.081,193.509,357.177,194.094z"/>
	<path fill="#C22275" d="M336.768,189.718c0,1.264,0,2.531,0.004,3.795c0.6,0.889,0.338,1.886,0.371,2.85
		c0.015,0.694,0.03,1.391-0.004,2.085c0.022,0.608,0.022,1.215,0,1.819c0.038,0.968,0.022,1.935-0.004,2.903
		c0.007,0.551,0.022,1.103-0.458,1.504c-0.255-0.454-0.15-0.953-0.15-1.429c-0.004-7.249-0.004-14.499,0.007-21.748
		c0-1.016-0.045-2.055,0.683-2.907c2.862,0.645,5.746,1.196,8.573,1.958c3.342,0.896,6.807,1.226,10.092,2.355
		c0.398,0.135,0.863,0.071,1.294,0.098c0,0.975,0,1.946,0,2.922c-0.765,0.619-1.56,0.263-2.359,0.09
		c-5.213-1.129-10.366-2.52-15.602-3.537c-2.066-0.401-2.07-0.368-2.081,1.804c0.022,0.855,0.034,1.71,0.007,2.565
		C337.113,187.813,337.372,188.821,336.768,189.718z"/>
	<path fill="#B82174" d="M336.768,189.718c0-0.975,0-1.95,0-2.922c0.503-0.461,1.08-0.334,1.654-0.214
		c5.033,1.069,10.028,2.291,15.009,3.585c1.249,0.326,2.655,0.098,3.747,1.009c0,0.975,0,1.946,0,2.922
		c-3.754-0.071-7.283-1.309-10.887-2.134C343.114,191.233,339.858,190.805,336.768,189.718z"/>
	<path fill="#BE2275" d="M336.764,184.186c-0.004-0.049-0.011-0.098-0.015-0.146c-0.09-2.449-0.105-2.37,2.329-1.98
		c5.01,0.803,9.848,2.366,14.833,3.274c1.088,0.199,2.111,0.758,3.267,0.581c0,0.975,0,1.946,0,2.922
		c-0.585,0.461-1.219,0.218-1.815,0.079c-5.757-1.328-11.559-2.453-17.27-3.972C337.578,184.809,337.023,184.76,336.764,184.186z"/>
	<path fill="#AF1F74" d="M336.768,196.435c0-0.971,0-1.946,0-2.918c3.004,0.683,6.008,1.358,9.008,2.044
		c3.799,0.87,7.598,1.751,11.397,2.629c0,0.878,0,1.751,0,2.629c-0.915,0.308-1.815,0.116-2.712-0.083
		c-4.665-1.028-9.26-2.389-13.981-3.169C339.206,197.35,337.931,197.065,336.768,196.435z"/>
	<path fill="#831971" d="M359.503,221.851c-0.634,0.326-1.328,0.27-2.003,0.27c-7.054,0.011-14.109,0.011-21.163,0
		c-0.671,0-1.369,0.079-1.999-0.263c0.585-0.596,1.346-0.48,2.059-0.48c3.78,0,7.564-0.06,11.345,0.045c1.598,0.011,3.203,0,4.815,0
		c-4.8-0.956-9.541-2.171-14.311-3.263c-3.642-0.833-7.309-1.556-10.929-2.49c-0.679-0.176-1.343-0.18-1.999,0.083
		c-0.544-0.608-0.855-1.339-1.114-2.096c0.383-0.75,1.013-0.581,1.646-0.469c3.439,0.615,6.766,1.725,10.19,2.381
		c5.768,1.103,11.424,2.689,17.173,3.882c1.616,0.334,3.207,0.776,4.819,1.121C358.693,220.715,359.533,220.831,359.503,221.851z"/>
	<path fill="#A81E73" d="M336.772,203.148c0-0.971,0-1.946,0-2.918c0.383-0.341,0.814-0.244,1.245-0.135
		c5.854,1.451,11.772,2.625,17.604,4.182c0.649,0.173,1.575,0.195,1.294,1.328c-0.491,0.919-0.934,1.883-2.081,2.168
		c-2.997-1.305-6.229-1.729-9.372-2.468C342.551,204.618,339.626,204.025,336.772,203.148z"/>
	<path fill="#7C1770" d="M348.105,221.832c-4.59,0.011-9.177,0.019-13.768,0.03c-3.424-0.465-6.094-2.183-8.18-4.887
		c0.21-1.114,1.076-0.754,1.699-0.66c1.916,0.281,3.765,0.908,5.671,1.271c4.137,0.791,8.153,2.13,12.327,2.768
		C346.755,220.489,347.798,220.669,348.105,221.832z"/>
	<path fill="#BB2175" d="M336.764,184.186c4.65,1.028,9.207,2.464,13.925,3.21c2.183,0.345,4.324,0.953,6.484,1.444
		c0,0.78,0,1.556,0,2.336c-3.608-0.345-7.032-1.526-10.55-2.299c-3.282-0.72-6.507-1.714-9.86-2.081
		C336.764,185.926,336.764,185.056,336.764,184.186z"/>
	<path fill="#CB2577" d="M370.326,176.858c0.293,2.145,0.323,4.29-0.019,6.432c-2.066,0.315-4.144,0.064-6.218,0.135
		c-0.525,0.019-0.645-0.289-0.641-0.743c0.007-1.744,0.007-3.488,0-5.228c0-0.465,0.146-0.746,0.66-0.728
		C366.178,176.798,368.26,176.558,370.326,176.858z"/>
	<path fill="#AD1F74" d="M336.768,196.435c2.828,0.544,5.689,0.968,8.48,1.669c2.614,0.656,5.247,1.215,7.868,1.826
		c1.35,0.315,2.708,0.593,4.062,0.889c0,0.679,0,1.361,0,2.04c-0.833,0.608-1.714,0.21-2.528,0.022
		c-5.479-1.279-10.966-2.524-16.468-3.717c-0.529-0.113-1.043-0.251-1.414-0.683C336.768,197.796,336.768,197.113,336.768,196.435z"
		/>
	<path fill="#A41E73" d="M336.772,203.148c0.713-0.315,1.335-0.071,2.059,0.131c2.254,0.641,4.564,1.088,6.848,1.628
		c2.809,0.664,5.607,1.369,8.423,2.003c0.544,0.124,0.761,0.338,0.728,0.859c-1.624,0.686-3.312,0.289-4.977,0.304
		c-0.131-0.06-0.27-0.12-0.416-0.105c-4.017,0.473-7.786-0.788-11.611-1.65c-0.36-0.083-0.623-0.244-0.829-0.536
		c-0.334-0.304-0.338-0.701-0.319-1.106C336.708,204.168,336.738,203.658,336.772,203.148z"/>
	<path fill="#871971" d="M359.503,221.851c-0.473-0.941-1.463-0.9-2.265-1.088c-6.188-1.451-12.391-2.839-18.587-4.26
		c-4.403-1.009-8.802-2.033-13.201-3.064c-0.465-0.109-0.859-0.008-1.249,0.218c-0.195-0.458-0.443-0.9-0.364-1.425
		c0.053-0.056,0.105-0.116,0.154-0.173c0.66-0.353,1.32-0.116,1.965,0.03c1.916,0.428,3.814,0.956,5.749,1.298
		c0.443,0.079,0.81,0.285,1.14,0.57c1.193,1.125,2.727,1.256,4.234,1.373c1.238,0.098,2.487,0.064,3.728,0.086
		c3.282,0.623,6.496,1.556,9.762,2.239c3.278,0.686,6.496,1.62,9.792,2.231c0.679,0.128,1.448,0.323,1.796,1.091
		C361.412,221.686,360.463,221.78,359.503,221.851z"/>
	<path fill="#AA1E73" d="M336.768,198.479c3.687,0.686,7.317,1.631,10.981,2.408c3.139,0.664,6.222,1.628,9.428,1.969
		c0.071,0.93,0.248,1.871-0.266,2.745c-0.007-0.66-0.551-0.769-1.001-0.866c-4.099-0.889-8.15-1.999-12.267-2.835
		c-2.299-0.465-4.613-0.998-6.874-1.673C336.768,199.645,336.768,199.064,336.768,198.479z"/>
	<path fill="#BF2375" d="M323.537,210.765c-0.33-0.638-0.218-1.331-0.218-2.003c-0.008-10.25,0.019-20.499-0.022-30.749
		c-0.004-1.193,0.293-1.504,1.481-1.305c3.582,0.608,5.427,2.847,5.517,6.871c-1.609-0.63-3.353-0.773-4.973-1.369
		c-0.949-0.349-1.35,0.038-1.343,1.005c0.007,0.964,0.011,1.928,0.011,2.892c0.045,1.208,0.038,2.415,0.011,3.623
		c0.038,1.343,0.041,2.689,0,4.032c0.03,1.073,0.041,2.149-0.004,3.222c0.019,1.065,0.045,2.13,0,3.195
		c0.022,0.964,0.034,1.928-0.004,2.892c0.011,0.604,0.03,1.211,0,1.815c0.019,0.69,0.026,1.376,0.007,2.066
		c-0.019,0.866,0.041,1.736-0.019,2.603C323.972,210.011,323.942,210.457,323.537,210.765z"/>
	<path fill="#801870" d="M348.105,221.832c-1.695-1.478-3.912-1.2-5.884-1.736c-2.04-0.559-4.065-1.2-6.139-1.568
		c-2.997-0.529-5.914-1.388-8.903-1.928c-0.379-0.068-0.788-0.038-1.02,0.379c-0.394-0.33-0.709-0.713-0.844-1.223
		c0.015-0.533,0.03-0.945,0.825-0.716c1.241,0.356,2.531,0.518,3.792,0.844c3.683,0.945,7.426,1.65,11.142,2.468
		c1.646,0.364,3.285,0.773,4.928,1.159c2.535,0.596,5.07,1.185,7.602,1.785c0.18,0.041,0.379,0.109,0.371,0.54
		C352.024,221.832,350.063,221.832,348.105,221.832z"/>
	<path fill="#B92175" d="M323.604,185.922c-0.007-1.11,0.022-2.224-0.03-3.334c-0.045-0.979,0.45-1.234,1.253-0.968
		c1.511,0.503,3.015,1.005,4.617,1.088c0.596,0.03,0.484,0.671,0.859,0.874c0.075,0.529,0.21,1.054,0.21,1.583
		c0.015,8.127,0.015,16.254,0.015,24.377c-0.705-0.146-0.525-0.746-0.623-1.208c-0.034-0.668-0.03-1.335-0.015-2.006
		c-0.007-0.596-0.034-1.193-0.004-1.785c-0.03-0.96-0.038-1.92-0.008-2.88c-0.038-1.155-0.038-2.31-0.004-3.465
		c-0.034-1.069-0.038-2.134,0-3.203c-0.026-1.215-0.038-2.43,0.007-3.642c-0.09-1.103,0.375-2.336-0.244-3.282
		c-0.634-0.964-1.988-0.514-2.963-0.923C325.656,186.729,324.459,186.747,323.604,185.922z"/>
	<path fill="#8A1A71" d="M362.162,220.977c-3.758-1.376-7.733-1.879-11.577-2.918c-2.374-0.641-4.8-1.091-7.163-1.774
		c-0.87-0.251-2.018,0.218-2.61-0.87c1.751,0,3.503,0,5.258,0c3.593,0.791,7.148,1.748,10.749,2.501
		c1.856,0.39,3.653,1.001,5.521,1.35c0.518,0.098,1.024,0.33,1.309,0.844C363.294,220.647,362.777,220.898,362.162,220.977z"/>
	<path fill="#A41E73" d="M370.356,209.902c-0.015,0.184-0.03,0.368-0.045,0.548c-0.353,0.469,0.011,1.061-0.27,1.541
		c-0.075,0.93-0.349,1.785-0.904,2.546c-1.553-1.95-3.799-1.834-5.952-1.988c-0.323-0.022-0.66,0.214-0.975-0.049
		c0.533-1.02,0.938-2.081,1.121-3.222c0.176-0.236,0.071-0.626,0.409-0.776c0.461-0.203,0.956-0.233,1.403-0.056
		c1.571,0.619,3.289,0.6,4.875,1.148C370.165,209.658,370.274,209.763,370.356,209.902z"/>
	<path fill="#911B72" d="M366.512,218.052c-0.375,0.585-0.81,1.114-1.47,1.403c-4.088-1.016-8.21-1.886-12.294-2.922
		c-0.821-0.21-1.871-0.053-2.299-1.118c2.393-0.011,4.785-0.022,7.178-0.034c2.974-0.086,5.734,0.844,8.491,1.781
		C366.501,217.294,366.812,217.564,366.512,218.052z"/>
	<path fill="#BC2376" d="M366.805,197.042c-0.971-0.135-2.516,0.536-3.278-0.251c-0.75-0.776-0.21-2.31-0.225-3.507
		c-0.038-3.004-0.011-3.004,3.027-3.004c1.069,0,2.138,0.038,3.203-0.011c0.773-0.038,1.013,0.263,0.99,1.013
		c-0.041,1.553-0.06,3.105,0.007,4.654c0.041,0.923-0.311,1.193-1.178,1.125C368.582,196.993,367.802,197.042,366.805,197.042z"/>
	<path fill="#8D1A71" d="M350.449,215.415c1.71,0.788,3.574,1.013,5.382,1.444c2.715,0.653,5.449,1.223,8.168,1.86
		c0.416,0.098,0.829,0.3,1.043,0.735c-0.555,0.026-0.769,0.776-1.395,0.656c-4.485-1.298-9.057-2.243-13.599-3.312
		c-1.339-0.315-2.824-0.45-3.983-1.384C347.528,215.415,348.987,215.415,350.449,215.415z"/>
	<path fill="#921B72" d="M330.276,208.406c0.068,0.383-0.101,0.818,0.248,1.136c0.131,0.593,0.259,1.185,0.39,1.778
		c-2.494-0.334-4.947-0.848-7.306-1.748c-0.004-0.874-0.004-1.748-0.008-2.621C325.881,207.194,328.12,207.599,330.276,208.406z"/>
	<path fill="#AC2175" d="M363.598,208.698c-0.086,0.191-0.176,0.383-0.263,0.578c-0.015-1.5,0.007-3.004-0.056-4.504
		c-0.034-0.803,0.308-0.986,1.028-0.971c1.744,0.038,3.492,0.015,5.236,0.011c0.521,0,1.001,0.022,0.968,0.735
		c-0.083,1.785,0.191,3.578-0.15,5.356l-0.083-0.06c-0.559-0.728-0.326-1.586-0.375-2.393c-0.038-0.626-0.146-1.163-0.885-1.298
		c-1.29-0.236-2.532-0.664-3.814-0.938c-1.088-0.233-1.245,0.191-1.223,1.106C364.003,207.123,364.183,207.982,363.598,208.698z"/>
	<path fill="#971C72" d="M366.512,218.052c-0.034-0.319-0.188-0.488-0.521-0.593c-2.745-0.87-5.562-1.444-8.367-2.078
		c0.998-0.413,1.999-0.825,3-1.238c1.954,0.533,3.927,0.99,5.873,1.541c0.544,0.154,1.478,0.12,1.181,1.193
		C367.393,217.373,367.116,217.872,366.512,218.052z"/>
	<path fill="#9F1D73" d="M362.21,212.497c1.988-0.806,3.814,0.022,5.704,0.484c0.968,0.236,1.335,0.626,1.223,1.556
		c-0.041,0.401-0.232,0.716-0.529,0.983c-1.459-0.63-3.019-0.881-4.564-1.185c-0.893-0.176-1.8-0.341-2.269-1.279
		C361.922,212.865,362.064,212.681,362.21,212.497z"/>
	<path fill="#9A1C72" d="M361.775,213.053c1.594,1.028,3.465,1.088,5.236,1.448c0.735,0.15,1.279,0.338,1.598,1.016
		c-0.176,0.548-0.488,0.998-0.93,1.361c-0.12-0.788-0.833-0.709-1.335-0.848c-1.519-0.428-3.049-0.81-4.59-1.155
		c-0.495-0.113-0.941-0.195-1.133-0.731C361.007,213.78,361.393,213.416,361.775,213.053z"/>
	<path fill="#8D1B72" d="M323.608,209.572c2.509,0.274,4.965,0.773,7.306,1.748c0.206,0.386,0.413,0.773,0.623,1.155
		c-0.566,0.45-1.193,0.259-1.785,0.113c-1.44-0.356-2.925-0.484-4.35-0.9c-0.638-0.188-1.121-0.068-1.493,0.484l-0.067,0.056
		c-0.33-0.443-0.293-0.956-0.296-1.463C323.563,210.367,323.585,209.97,323.608,209.572z"/>
	<path fill="#A11F74" d="M336.993,205.781c2.588,0.42,5.1,1.099,7.598,1.92c1.091,0.36,2.389,0.079,3.593,0.128
		c0.559,0.022,1.166-0.199,1.665,0.24c-3.18,0.019-6.361,0.09-9.537,0.034C338.767,208.076,337.567,207.322,336.993,205.781z"/>
	<path fill="#891A71" d="M323.904,212.175c-0.139-1.013,0.21-1.234,1.226-0.986c2.115,0.514,4.268,0.87,6.402,1.29
		c0.439,0.491,0.874,0.986,1.313,1.478C329.811,213.626,326.95,212.456,323.904,212.175z"/>
	<path fill="#C92979" d="M370.326,176.858c-1.838,0.004-3.679,0.049-5.517-0.007c-0.964-0.03-1.279,0.319-1.234,1.26
		c0.064,1.305,0.079,2.618-0.004,3.919c-0.067,1.076,0.405,1.305,1.365,1.275c1.789-0.056,3.582-0.015,5.371-0.015
		c-2.141,0.48-4.309,0.105-6.466,0.199c-0.548,0.022-0.555-0.42-0.555-0.821c0-1.744,0.004-3.488,0-5.232
		c0-0.416,0.038-0.825,0.585-0.795C366.025,176.753,368.192,176.34,370.326,176.858z"/>
	<path fill="#CA2879" d="M357.117,176.865c-5.761-0.011-11.517-0.022-17.278-0.03c0.326-0.064,0.649-0.184,0.975-0.184
		c5.172-0.011,10.347-0.011,15.519-0.004C356.611,176.644,356.926,176.558,357.117,176.865z"/>
	<path fill="#A81F74" d="M370.041,211.991c0.034-0.525-0.229-1.099,0.27-1.541C370.352,210.986,370.356,211.515,370.041,211.991z"/>
	<path fill="#B01F74" d="M330.276,191.177c0,1.264,0,2.531,0,3.795c-0.311,0.281-0.69,0.398-1.08,0.304
		c-1.875-0.454-3.803-0.69-5.592-1.47c0-1.361,0-2.727,0-4.088c0.191-0.169,0.431-0.293,0.668-0.229
		C326.274,190.044,328.386,190.22,330.276,191.177z"/>
	<path fill="#B52074" d="M330.276,191.177c-1.778-0.079-3.435-0.713-5.145-1.106c-0.51-0.116-1.016-0.236-1.526-0.353
		c0-1.264,0-2.532,0-3.795c1.946,0.319,3.762,1.193,5.757,1.309c0.645,0.038,1.001,0.443,0.949,1.189
		C330.242,189.332,330.284,190.258,330.276,191.177z"/>
	<path fill="#AB1F74" d="M323.604,193.806c1.736-0.124,3.308,0.63,4.958,0.949c0.574,0.113,1.133,0.229,1.714,0.218
		c0,1.073,0,2.141,0,3.214c-0.15,0.124-0.308,0.281-0.495,0.285c-2.179,0.03-4.272-0.315-6.177-1.451
		C323.604,195.947,323.604,194.875,323.604,193.806z"/>
	<path fill="#A71E73" d="M323.604,197.02c2.235,0.323,4.354,1.309,6.672,1.166c0,1.166,0,2.336,0,3.503
		c-0.233,0.203-0.514,0.3-0.799,0.225c-1.969-0.514-4.088-0.518-5.873-1.684C323.604,199.161,323.604,198.089,323.604,197.02z"/>
	<path fill="#A41D73" d="M323.604,200.23c2.224,0.488,4.448,0.975,6.672,1.459c0,0.971,0,1.946,0,2.918
		c-1.478,0.326-2.813-0.431-4.227-0.611c-0.818-0.105-1.725-0.293-2.445-0.848C323.604,202.176,323.604,201.201,323.604,200.23z"/>
	<path fill="#991C72" d="M330.276,208.406c-2.284-0.21-4.538-0.559-6.676-1.451c0-0.683,0-1.369,0.004-2.051
		c0.619-0.54,1.309-0.221,1.943-0.094c1.635,0.326,3.357,0.42,4.733,1.549C330.276,207.041,330.276,207.723,330.276,208.406z"/>
	<path fill="#9F1D73" d="M330.276,206.358c-2.194-0.626-4.384-1.275-6.672-1.455c0-0.585,0-1.17,0-1.751
		c2.265,0.304,4.485,0.806,6.672,1.459C330.276,205.192,330.276,205.773,330.276,206.358z"/>
	<path fill="#A81F74" d="M363.598,208.698c0-0.536-0.004-1.069-0.004-1.605c0-2.779,0.007-2.802,2.749-2.096
		c1.076,0.278,2.108,0.728,3.233,0.78c0.698,0.03,0.735,0.484,0.731,1.005c-0.015,1.02-0.019,2.04-0.03,3.06
		c-1.643-0.195-3.3-0.311-4.849-0.956C364.821,208.631,364.209,208.736,363.598,208.698z"/>
	<path fill="#B82275" d="M366.816,196.723c-0.049,0-0.098,0-0.146,0c-3.315,0-3.555-0.296-3.087-3.608
		c0.075-0.54,0.251-0.784,0.818-0.735c1.883,0.169,3.627,0.93,5.479,1.279c0.923,0.176,0.308,1.53,0.401,2.344
		c0.083,0.698-0.48,0.72-0.99,0.716C368.466,196.72,367.641,196.723,366.816,196.723z"/>
</g>
</svg>
