<?xml version="1.0" encoding="utf-8"?>
<!-- Generator: Adobe Illustrator 17.0.0, SVG Export Plug-In . SVG Version: 6.00 Build 0)  -->
<!DOCTYPE svg PUBLIC "-//W3C//DTD SVG 1.1//EN" "http://www.w3.org/Graphics/SVG/1.1/DTD/svg11.dtd">
<svg version="1.1" id="Layer_1" xmlns="http://www.w3.org/2000/svg" xmlns:xlink="http://www.w3.org/1999/xlink" x="0px" y="0px"
	 width="418px" height="130.333px" viewBox="0 0 418 245.333" enable-background="new 0 0 418 245.333" xml:space="preserve">
<path fill="#FEFEFE" d="M209-0.269c68.302,0,136.604,0.025,204.906-0.07c3.423-0.006,4.098,0.493,4.094,3.015
	c-0.117,79.994-0.117,159.988,0,239.982c0.004,2.522-0.671,3.019-4.094,3.015c-136.604-0.083-273.208-0.083-409.812,0
	c-3.423,0.003-4.098-0.494-4.094-3.015C0.117,162.663,0.117,82.67,0,2.676c-0.004-2.522,0.671-3.021,4.094-3.015
	C72.396-0.245,140.698-0.269,209-0.269z"/>
<g>
	<path fill="#C52275" d="M343.449,179.6c0.551-1.069,1.41-1.68,2.625-1.755c3.439-0.248,6.886-0.071,10.328-0.101
		c2.318-0.019,4.635-0.09,6.949,0.131c0.24,2.04,0.139,4.088,0.056,6.132c-0.506,0.439-1.08,0.353-1.658,0.203
		c-5.029-1.305-10.148-2.228-15.185-3.495C345.501,180.444,344.357,180.343,343.449,179.6z"/>
	<path fill="#B32074" d="M363.412,195.104c0,1.365,0,2.727,0,4.092c-1.601,0.386-3.072-0.319-4.564-0.63
		c-4.609-0.968-9.162-2.213-13.771-3.199c-0.78-0.169-1.658-0.229-2.235-0.93c-0.049-1.2-0.038-2.4-0.007-3.6
		c0.42-0.578,0.949-0.315,1.451-0.184c4.227,1.118,8.521,1.946,12.774,2.959C359.175,194.114,361.316,194.519,363.412,195.104z"/>
	<path fill="#C22275" d="M343.003,190.728c0,1.264,0,2.531,0.004,3.795c0.6,0.889,0.338,1.886,0.371,2.85
		c0.015,0.694,0.03,1.391-0.004,2.085c0.022,0.608,0.022,1.215,0,1.819c0.038,0.968,0.022,1.935-0.004,2.903
		c0.007,0.551,0.022,1.103-0.458,1.504c-0.255-0.454-0.15-0.953-0.15-1.429c-0.004-7.249-0.004-14.499,0.007-21.748
		c0-1.016-0.045-2.055,0.683-2.907c2.862,0.645,5.746,1.196,8.573,1.958c3.342,0.896,6.807,1.226,10.092,2.355
		c0.398,0.135,0.863,0.071,1.294,0.098c0,0.975,0,1.946,0,2.922c-0.765,0.619-1.56,0.263-2.359,0.09
		c-5.213-1.129-10.366-2.52-15.602-3.537c-2.066-0.401-2.07-0.368-2.081,1.804c0.022,0.855,0.034,1.71,0.007,2.565
		C343.348,188.823,343.607,189.831,343.003,190.728z"/>
	<path fill="#B82174" d="M343.003,190.728c0-0.975,0-1.95,0-2.922c0.503-0.461,1.08-0.334,1.654-0.214
		c5.033,1.069,10.028,2.291,15.009,3.585c1.249,0.326,2.655,0.098,3.747,1.009c0,0.975,0,1.946,0,2.922
		c-3.754-0.071-7.283-1.309-10.887-2.134C349.349,192.243,346.093,191.815,343.003,190.728z"/>
	<path fill="#BE2275" d="M342.999,185.196c-0.004-0.049-0.011-0.098-0.015-0.146c-0.09-2.449-0.105-2.37,2.329-1.98
		c5.01,0.803,9.848,2.366,14.833,3.274c1.088,0.199,2.111,0.758,3.267,0.581c0,0.975,0,1.946,0,2.922
		c-0.585,0.461-1.219,0.218-1.815,0.079c-5.757-1.328-11.559-2.453-17.27-3.972C343.813,185.819,343.258,185.77,342.999,185.196z"/>
	<path fill="#AF1F74" d="M343.003,197.445c0-0.971,0-1.946,0-2.918c3.004,0.683,6.008,1.358,9.008,2.044
		c3.799,0.87,7.598,1.751,11.397,2.629c0,0.878,0,1.751,0,2.629c-0.915,0.308-1.815,0.116-2.712-0.083
		c-4.665-1.028-9.26-2.389-13.981-3.169C345.441,198.36,344.166,198.075,343.003,197.445z"/>
	<path fill="#831971" d="M365.738,222.861c-0.634,0.326-1.328,0.27-2.003,0.27c-7.054,0.011-14.109,0.011-21.163,0
		c-0.671,0-1.369,0.079-1.999-0.263c0.585-0.596,1.346-0.48,2.059-0.48c3.78,0,7.564-0.06,11.345,0.045c1.598,0.011,3.203,0,4.815,0
		c-4.8-0.956-9.541-2.171-14.311-3.263c-3.642-0.833-7.309-1.556-10.929-2.49c-0.679-0.176-1.343-0.18-1.999,0.083
		c-0.544-0.608-0.855-1.339-1.114-2.096c0.383-0.75,1.013-0.581,1.646-0.469c3.439,0.615,6.766,1.725,10.19,2.381
		c5.768,1.103,11.424,2.689,17.173,3.882c1.616,0.334,3.207,0.776,4.819,1.121C364.928,221.725,365.768,221.841,365.738,222.861z"/>
	<path fill="#A81E73" d="M343.007,204.158c0-0.971,0-1.946,0-2.918c0.383-0.341,0.814-0.244,1.245-0.135
		c5.854,1.451,11.772,2.625,17.604,4.182c0.649,0.173,1.575,0.195,1.294,1.328c-0.491,0.919-0.934,1.883-2.081,2.168
		c-2.997-1.305-6.229-1.729-9.372-2.468C348.786,205.628,345.861,205.035,343.007,204.158z"/>
	<path fill="#7C1770" d="M354.34,222.842c-4.59,0.011-9.177,0.019-13.768,0.03c-3.424-0.465-6.094-2.183-8.18-4.887
		c0.21-1.114,1.076-0.754,1.699-0.66c1.916,0.281,3.765,0.908,5.671,1.271c4.137,0.791,8.153,2.13,12.327,2.768
		C352.99,221.499,354.033,221.679,354.34,222.842z"/>
	<path fill="#BB2175" d="M342.999,185.196c4.65,1.028,9.207,2.464,13.925,3.21c2.183,0.345,4.324,0.953,6.484,1.444
		c0,0.78,0,1.556,0,2.336c-3.608-0.345-7.032-1.526-10.55-2.299c-3.282-0.72-6.507-1.714-9.86-2.081
		C342.999,186.936,342.999,186.066,342.999,185.196z"/>
	<path fill="#CB2577" d="M376.561,177.868c0.293,2.145,0.323,4.29-0.019,6.432c-2.066,0.315-4.144,0.064-6.218,0.135
		c-0.525,0.019-0.645-0.289-0.641-0.743c0.007-1.744,0.007-3.488,0-5.228c0-0.465,0.146-0.746,0.66-0.728
		C372.413,177.808,374.495,177.568,376.561,177.868z"/>
	<path fill="#AD1F74" d="M343.003,197.445c2.828,0.544,5.689,0.968,8.48,1.669c2.614,0.656,5.247,1.215,7.868,1.826
		c1.35,0.315,2.708,0.593,4.062,0.889c0,0.679,0,1.361,0,2.04c-0.833,0.608-1.714,0.21-2.528,0.022
		c-5.479-1.279-10.966-2.524-16.468-3.717c-0.529-0.113-1.043-0.251-1.414-0.683C343.003,198.806,343.003,198.123,343.003,197.445z"
		/>
	<path fill="#A41E73" d="M343.007,204.158c0.713-0.315,1.335-0.071,2.059,0.131c2.254,0.641,4.564,1.088,6.848,1.628
		c2.809,0.664,5.607,1.369,8.423,2.003c0.544,0.124,0.761,0.338,0.728,0.859c-1.624,0.686-3.312,0.289-4.977,0.304
		c-0.131-0.06-0.27-0.12-0.416-0.105c-4.017,0.473-7.786-0.788-11.611-1.65c-0.36-0.083-0.623-0.244-0.829-0.536
		c-0.334-0.304-0.338-0.701-0.319-1.106C342.943,205.178,342.973,204.668,343.007,204.158z"/>
	<path fill="#871971" d="M365.738,222.861c-0.473-0.941-1.463-0.9-2.265-1.088c-6.188-1.451-12.391-2.839-18.587-4.26
		c-4.403-1.009-8.802-2.033-13.201-3.064c-0.465-0.109-0.859-0.008-1.249,0.218c-0.195-0.458-0.443-0.9-0.364-1.425
		c0.053-0.056,0.105-0.116,0.154-0.173c0.66-0.353,1.32-0.116,1.965,0.03c1.916,0.428,3.814,0.956,5.749,1.298
		c0.443,0.079,0.81,0.285,1.14,0.57c1.193,1.125,2.727,1.256,4.234,1.373c1.238,0.098,2.487,0.064,3.728,0.086
		c3.282,0.623,6.496,1.556,9.762,2.239c3.278,0.686,6.496,1.62,9.792,2.231c0.679,0.128,1.448,0.323,1.796,1.091
		C367.647,222.696,366.698,222.79,365.738,222.861z"/>
	<path fill="#AA1E73" d="M343.003,199.489c3.687,0.686,7.317,1.631,10.981,2.408c3.139,0.664,6.222,1.628,9.428,1.969
		c0.071,0.93,0.248,1.871-0.266,2.745c-0.007-0.66-0.551-0.769-1.001-0.866c-4.099-0.889-8.15-1.999-12.267-2.835
		c-2.299-0.465-4.613-0.998-6.874-1.673C343.003,200.655,343.003,200.074,343.003,199.489z"/>
	<path fill="#BF2375" d="M329.772,211.775c-0.33-0.638-0.218-1.331-0.218-2.003c-0.008-10.25,0.019-20.499-0.022-30.749
		c-0.004-1.193,0.293-1.504,1.481-1.305c3.582,0.608,5.427,2.847,5.517,6.871c-1.609-0.63-3.353-0.773-4.973-1.369
		c-0.949-0.349-1.35,0.038-1.343,1.005c0.007,0.964,0.011,1.928,0.011,2.892c0.045,1.208,0.038,2.415,0.011,3.623
		c0.038,1.343,0.041,2.689,0,4.032c0.03,1.073,0.041,2.149-0.004,3.222c0.019,1.065,0.045,2.13,0,3.195
		c0.022,0.964,0.034,1.928-0.004,2.892c0.011,0.604,0.03,1.211,0,1.815c0.019,0.69,0.026,1.376,0.007,2.066
		c-0.019,0.866,0.041,1.736-0.019,2.603C330.207,211.021,330.177,211.467,329.772,211.775z"/>
	<path fill="#801870" d="M354.34,222.842c-1.695-1.478-3.912-1.2-5.884-1.736c-2.04-0.559-4.065-1.2-6.139-1.568
		c-2.997-0.529-5.914-1.388-8.903-1.928c-0.379-0.068-0.788-0.038-1.02,0.379c-0.394-0.33-0.709-0.713-0.844-1.223
		c0.015-0.533,0.03-0.945,0.825-0.716c1.241,0.356,2.531,0.518,3.792,0.844c3.683,0.945,7.426,1.65,11.142,2.468
		c1.646,0.364,3.285,0.773,4.928,1.159c2.535,0.596,5.07,1.185,7.602,1.785c0.18,0.041,0.379,0.109,0.371,0.54
		C358.259,222.842,356.298,222.842,354.34,222.842z"/>
	<path fill="#B92175" d="M329.839,186.932c-0.007-1.11,0.022-2.224-0.03-3.334c-0.045-0.979,0.45-1.234,1.253-0.968
		c1.511,0.503,3.015,1.005,4.617,1.088c0.596,0.03,0.484,0.671,0.859,0.874c0.075,0.529,0.21,1.054,0.21,1.583
		c0.015,8.127,0.015,16.254,0.015,24.377c-0.705-0.146-0.525-0.746-0.623-1.208c-0.034-0.668-0.03-1.335-0.015-2.006
		c-0.007-0.596-0.034-1.193-0.004-1.785c-0.03-0.96-0.038-1.92-0.008-2.88c-0.038-1.155-0.038-2.31-0.004-3.465
		c-0.034-1.069-0.038-2.134,0-3.203c-0.026-1.215-0.038-2.43,0.007-3.642c-0.09-1.103,0.375-2.336-0.244-3.282
		c-0.634-0.964-1.988-0.514-2.963-0.923C331.891,187.739,330.694,187.757,329.839,186.932z"/>
	<path fill="#8A1A71" d="M368.397,221.987c-3.758-1.376-7.733-1.879-11.577-2.918c-2.374-0.641-4.8-1.091-7.163-1.774
		c-0.87-0.251-2.018,0.218-2.61-0.87c1.751,0,3.503,0,5.258,0c3.593,0.791,7.148,1.748,10.749,2.501
		c1.856,0.39,3.653,1.001,5.521,1.35c0.518,0.098,1.024,0.33,1.309,0.844C369.529,221.657,369.012,221.908,368.397,221.987z"/>
	<path fill="#A41E73" d="M376.591,210.912c-0.015,0.184-0.03,0.368-0.045,0.548c-0.353,0.469,0.011,1.061-0.27,1.541
		c-0.075,0.93-0.349,1.785-0.904,2.546c-1.553-1.95-3.799-1.834-5.952-1.988c-0.323-0.022-0.66,0.214-0.975-0.049
		c0.533-1.02,0.938-2.081,1.121-3.222c0.176-0.236,0.071-0.626,0.409-0.776c0.461-0.203,0.956-0.233,1.403-0.056
		c1.571,0.619,3.289,0.6,4.875,1.148C376.4,210.668,376.509,210.773,376.591,210.912z"/>
	<path fill="#911B72" d="M372.747,219.062c-0.375,0.585-0.81,1.114-1.47,1.403c-4.088-1.016-8.21-1.886-12.294-2.922
		c-0.821-0.21-1.871-0.053-2.299-1.118c2.393-0.011,4.785-0.022,7.178-0.034c2.974-0.086,5.734,0.844,8.491,1.781
		C372.736,218.304,373.047,218.574,372.747,219.062z"/>
	<path fill="#BC2376" d="M373.04,198.052c-0.971-0.135-2.516,0.536-3.278-0.251c-0.75-0.776-0.21-2.31-0.225-3.507
		c-0.038-3.004-0.011-3.004,3.027-3.004c1.069,0,2.138,0.038,3.203-0.011c0.773-0.038,1.013,0.263,0.99,1.013
		c-0.041,1.553-0.06,3.105,0.007,4.654c0.041,0.923-0.311,1.193-1.178,1.125C374.817,198.003,374.037,198.052,373.04,198.052z"/>
	<path fill="#8D1A71" d="M356.684,216.425c1.71,0.788,3.574,1.013,5.382,1.444c2.715,0.653,5.449,1.223,8.168,1.86
		c0.416,0.098,0.829,0.3,1.043,0.735c-0.555,0.026-0.769,0.776-1.395,0.656c-4.485-1.298-9.057-2.243-13.599-3.312
		c-1.339-0.315-2.824-0.45-3.983-1.384C353.763,216.425,355.222,216.425,356.684,216.425z"/>
	<path fill="#921B72" d="M336.511,209.416c0.068,0.383-0.101,0.818,0.248,1.136c0.131,0.593,0.259,1.185,0.39,1.778
		c-2.494-0.334-4.947-0.848-7.306-1.748c-0.004-0.874-0.004-1.748-0.008-2.621C332.116,208.204,334.355,208.609,336.511,209.416z"/>
	<path fill="#AC2175" d="M369.833,209.708c-0.086,0.191-0.176,0.383-0.263,0.578c-0.015-1.5,0.007-3.004-0.056-4.504
		c-0.034-0.803,0.308-0.986,1.028-0.971c1.744,0.038,3.492,0.015,5.236,0.011c0.521,0,1.001,0.022,0.968,0.735
		c-0.083,1.785,0.191,3.578-0.15,5.356l-0.083-0.06c-0.559-0.728-0.326-1.586-0.375-2.393c-0.038-0.626-0.146-1.163-0.885-1.298
		c-1.29-0.236-2.532-0.664-3.814-0.938c-1.088-0.233-1.245,0.191-1.223,1.106C370.238,208.133,370.418,208.992,369.833,209.708z"/>
	<path fill="#971C72" d="M372.747,219.062c-0.034-0.319-0.188-0.488-0.521-0.593c-2.745-0.87-5.562-1.444-8.367-2.078
		c0.998-0.413,1.999-0.825,3-1.238c1.954,0.533,3.927,0.99,5.873,1.541c0.544,0.154,1.478,0.12,1.181,1.193
		C373.628,218.383,373.351,218.882,372.747,219.062z"/>
	<path fill="#9F1D73" d="M368.445,213.507c1.988-0.806,3.814,0.022,5.704,0.484c0.968,0.236,1.335,0.626,1.223,1.556
		c-0.041,0.401-0.232,0.716-0.529,0.983c-1.459-0.63-3.019-0.881-4.564-1.185c-0.893-0.176-1.8-0.341-2.269-1.279
		C368.157,213.875,368.299,213.691,368.445,213.507z"/>
	<path fill="#9A1C72" d="M368.01,214.063c1.594,1.028,3.465,1.088,5.236,1.448c0.735,0.15,1.279,0.338,1.598,1.016
		c-0.176,0.548-0.488,0.998-0.93,1.361c-0.12-0.788-0.833-0.709-1.335-0.848c-1.519-0.428-3.049-0.81-4.59-1.155
		c-0.495-0.113-0.941-0.195-1.133-0.731C367.242,214.79,367.628,214.426,368.01,214.063z"/>
	<path fill="#8D1B72" d="M329.843,210.582c2.509,0.274,4.965,0.773,7.306,1.748c0.206,0.386,0.413,0.773,0.623,1.155
		c-0.566,0.45-1.193,0.259-1.785,0.113c-1.44-0.356-2.925-0.484-4.35-0.9c-0.638-0.188-1.121-0.068-1.493,0.484l-0.067,0.056
		c-0.33-0.443-0.293-0.956-0.296-1.463C329.798,211.377,329.82,210.98,329.843,210.582z"/>
	<path fill="#A11F74" d="M343.228,206.791c2.588,0.42,5.1,1.099,7.598,1.92c1.091,0.36,2.389,0.079,3.593,0.128
		c0.559,0.022,1.166-0.199,1.665,0.24c-3.18,0.019-6.361,0.09-9.537,0.034C345.002,209.086,343.802,208.332,343.228,206.791z"/>
	<path fill="#891A71" d="M330.139,213.185c-0.139-1.013,0.21-1.234,1.226-0.986c2.115,0.514,4.268,0.87,6.402,1.29
		c0.439,0.491,0.874,0.986,1.313,1.478C336.046,214.636,333.185,213.466,330.139,213.185z"/>
	<path fill="#C92979" d="M376.561,177.868c-1.838,0.004-3.679,0.049-5.517-0.007c-0.964-0.03-1.279,0.319-1.234,1.26
		c0.064,1.305,0.079,2.618-0.004,3.919c-0.067,1.076,0.405,1.305,1.365,1.275c1.789-0.056,3.582-0.015,5.371-0.015
		c-2.141,0.48-4.309,0.105-6.466,0.199c-0.548,0.022-0.555-0.42-0.555-0.821c0-1.744,0.004-3.488,0-5.232
		c0-0.416,0.038-0.825,0.585-0.795C372.26,177.763,374.427,177.35,376.561,177.868z"/>
	<path fill="#CA2879" d="M363.352,177.875c-5.761-0.011-11.517-0.022-17.278-0.03c0.326-0.064,0.649-0.184,0.975-0.184
		c5.172-0.011,10.347-0.011,15.519-0.004C362.846,177.654,363.161,177.568,363.352,177.875z"/>
	<path fill="#A81F74" d="M376.276,213.001c0.034-0.525-0.229-1.099,0.27-1.541C376.587,211.996,376.591,212.525,376.276,213.001z"/>
	<path fill="#B01F74" d="M336.511,192.187c0,1.264,0,2.531,0,3.795c-0.311,0.281-0.69,0.398-1.08,0.304
		c-1.875-0.454-3.803-0.69-5.592-1.47c0-1.361,0-2.727,0-4.088c0.191-0.169,0.431-0.293,0.668-0.229
		C332.509,191.054,334.621,191.23,336.511,192.187z"/>
	<path fill="#B52074" d="M336.511,192.187c-1.778-0.079-3.435-0.713-5.145-1.106c-0.51-0.116-1.016-0.236-1.526-0.353
		c0-1.264,0-2.532,0-3.795c1.946,0.319,3.762,1.193,5.757,1.309c0.645,0.038,1.001,0.443,0.949,1.189
		C336.477,190.342,336.519,191.268,336.511,192.187z"/>
	<path fill="#AB1F74" d="M329.839,194.816c1.736-0.124,3.308,0.63,4.958,0.949c0.574,0.113,1.133,0.229,1.714,0.218
		c0,1.073,0,2.141,0,3.214c-0.15,0.124-0.308,0.281-0.495,0.285c-2.179,0.03-4.272-0.315-6.177-1.451
		C329.839,196.957,329.839,195.885,329.839,194.816z"/>
	<path fill="#A71E73" d="M329.839,198.03c2.235,0.323,4.354,1.309,6.672,1.166c0,1.166,0,2.336,0,3.503
		c-0.233,0.203-0.514,0.3-0.799,0.225c-1.969-0.514-4.088-0.518-5.873-1.684C329.839,200.171,329.839,199.099,329.839,198.03z"/>
	<path fill="#A41D73" d="M329.839,201.24c2.224,0.488,4.448,0.975,6.672,1.459c0,0.971,0,1.946,0,2.918
		c-1.478,0.326-2.813-0.431-4.227-0.611c-0.818-0.105-1.725-0.293-2.445-0.848C329.839,203.186,329.839,202.211,329.839,201.24z"/>
	<path fill="#991C72" d="M336.511,209.416c-2.284-0.21-4.538-0.559-6.676-1.451c0-0.683,0-1.369,0.004-2.051
		c0.619-0.54,1.309-0.221,1.943-0.094c1.635,0.326,3.357,0.42,4.733,1.549C336.511,208.051,336.511,208.733,336.511,209.416z"/>
	<path fill="#9F1D73" d="M336.511,207.368c-2.194-0.626-4.384-1.275-6.672-1.455c0-0.585,0-1.17,0-1.751
		c2.265,0.304,4.485,0.806,6.672,1.459C336.511,206.202,336.511,206.783,336.511,207.368z"/>
	<path fill="#A81F74" d="M369.833,209.708c0-0.536-0.004-1.069-0.004-1.605c0-2.779,0.007-2.802,2.749-2.096
		c1.076,0.278,2.108,0.728,3.233,0.78c0.698,0.03,0.735,0.484,0.731,1.005c-0.015,1.02-0.019,2.04-0.03,3.06
		c-1.643-0.195-3.3-0.311-4.849-0.956C371.056,209.641,370.444,209.746,369.833,209.708z"/>
	<path fill="#B82275" d="M373.051,197.733c-0.049,0-0.098,0-0.146,0c-3.315,0-3.555-0.296-3.087-3.608
		c0.075-0.54,0.251-0.784,0.818-0.735c1.883,0.169,3.627,0.93,5.479,1.279c0.923,0.176,0.308,1.53,0.401,2.344
		c0.083,0.698-0.48,0.72-0.99,0.716C374.701,197.73,373.876,197.733,373.051,197.733z"/>
</g>
<g>
	<path fill="#D8D9D9" d="M210.603,168.829c-53.904,0-107.809-0.048-161.713,0.091c-4.327,0.011-6.057-0.758-5.817-5.566
		c0.438-8.788,0.347-17.622,0.026-26.42c-0.149-4.087,1.235-4.928,5.076-4.922c70.628,0.11,141.256,0.081,211.884,0.081
		c37.629,0,75.257,0.066,112.885-0.092c4.173-0.018,5.748,0.862,5.572,5.339c-0.35,8.945-0.288,17.92-0.018,26.871
		c0.116,3.837-1.214,4.697-4.84,4.69C319.308,168.797,264.955,168.829,210.603,168.829z"/>
	<path fill="#7F7F81" d="M126.113,39.851c21.93,0,43.86,0,65.789,0.001c1.193,0,2.388-0.007,3.58,0.037
		c1.064,0.04,1.597,0.643,1.619,1.706c0.022,1.029-0.389,1.754-1.473,1.844c-1.038,0.086-2.085,0.074-3.128,0.074
		c-44.307,0.003-88.614,0.003-132.921,0.002c-0.895,0-1.79-0.014-2.685-0.021c-1.167-0.01-2.013-0.341-2.052-1.741
		c-0.038-1.361,0.66-1.87,1.903-1.88c1.044-0.008,2.088-0.022,3.133-0.022C81.955,39.85,104.034,39.851,126.113,39.851z"/>
	<path fill="#7F7F81" d="M126.113,48.762c21.928,0,43.855,0,65.783,0.001c1.193,0,2.387-0.003,3.579,0.036
		c1.067,0.035,1.6,0.624,1.624,1.694c0.023,1.037-0.379,1.742-1.483,1.809c-1.041,0.063-2.086,0.057-3.13,0.058
		c-44.303,0.002-88.605,0.002-132.908,0.001c-0.895,0-1.79-0.013-2.685-0.016c-1.155-0.004-2.022-0.28-2.056-1.709
		c-0.033-1.38,0.683-1.846,1.913-1.853c1.044-0.006,2.088-0.02,3.132-0.02C81.959,48.762,104.036,48.762,126.113,48.762z"/>
	<path fill="#7F7F81" d="M103.311,61.227c-14.04,0-28.08,0-42.121,0c-0.747,0-1.518,0.12-2.235-0.025
		c-1.511-0.305-4.122,1.091-4.031-1.939c0.079-2.624,2.448-1.606,3.85-1.63c6.271-0.11,12.546-0.048,18.819-0.048
		c22.554,0,45.108,0,67.662,0c0.896,0,1.837-0.175,2.679,0.038c1.595,0.403,4.523-1.396,4.439,1.914
		c-0.073,2.846-2.753,1.622-4.253,1.632C133.184,61.265,118.247,61.227,103.311,61.227z"/>
	<path fill="#194C51" d="M78.171,33.441c-6.853,0-13.709-0.126-20.556,0.061c-2.83,0.077-3.944-0.599-3.803-3.649
		c0.12-2.593,0.308-3.953,3.548-3.907c13.702,0.194,27.41,0.167,41.113,0.015c2.924-0.032,3.423,1.08,3.419,3.642
		c-0.005,2.669-0.382,4.047-3.614,3.919C91.585,33.254,84.874,33.441,78.171,33.441z"/>
	<path fill="#194C51" d="M234.477,33.441c-6.847,0-13.705-0.223-20.538,0.092c-3.554,0.164-3.229-1.728-3.399-4.083
		c-0.202-2.801,0.791-3.508,3.513-3.482c13.693,0.132,27.39,0.15,41.082-0.011c2.93-0.035,3.445,1.032,3.39,3.611
		c-0.054,2.544-0.159,4.104-3.511,3.962C248.18,33.237,241.324,33.441,234.477,33.441z"/>
	<path fill="#9F9F9F" d="M210.725,96.64c51.868,0,103.736,0,155.604,0c0,0.276,0,0.551,0.001,0.827c-51.847,0-103.693,0-155.54,0
		C210.769,97.191,210.747,96.916,210.725,96.64z"/>
	<path fill="#194C51" d="M168.015,104.111c-7.75,0-15.5,0.017-23.25-0.016c-1.383-0.006-3.171,0.505-3.257-1.881
		c-0.085-2.37,1.614-2.074,3.076-2.075c15.649-0.01,31.299-0.017,46.948,0.013c1.347,0.003,3.146-0.603,3.19,1.879
		c0.05,2.814-2.006,2.045-3.457,2.055C183.516,104.141,175.766,104.112,168.015,104.111z"/>
	<path fill="#194C51" d="M91.181,104.111c-7.746,0-15.492,0.022-23.238-0.019c-1.5-0.008-3.546,0.634-3.426-2.125
		c0.106-2.425,1.945-1.811,3.292-1.813c15.492-0.033,30.984-0.033,46.476-0.002c1.486,0.003,3.513-0.666,3.397,2.128
		c-0.104,2.486-1.938,1.798-3.263,1.807C106.673,104.137,98.927,104.111,91.181,104.111z"/>
	<path fill="#7F7F81" d="M93.22,81.969c-8.353,0-16.706,0.034-25.058-0.035c-1.297-0.011-3.325,0.782-3.449-1.606
		c-0.146-2.807,2.145-1.929,3.551-1.934c16.705-0.056,33.411-0.053,50.116-0.003c1.3,0.004,3.339-0.784,3.461,1.598
		c0.143,2.784-2.145,1.93-3.563,1.943C109.926,82.006,101.573,81.969,93.22,81.969z"/>
	<path fill="#7F7F81" d="M90.285,108.922c7.449,0,14.898-0.019,22.346,0.017c1.393,0.007,3.263-0.449,3.164,1.957
		c-0.086,2.082-1.768,1.648-3.006,1.65c-15.046,0.027-30.093,0.025-45.139,0.001c-1.258-0.002-2.922,0.354-2.951-1.717
		c-0.033-2.41,1.874-1.877,3.24-1.886C75.387,108.898,82.836,108.922,90.285,108.922z"/>
	<path fill="#7F7F81" d="M167.335,108.922c7.449,0,14.897-0.019,22.346,0.017c1.39,0.007,3.26-0.459,3.163,1.952
		c-0.084,2.09-1.765,1.651-3.002,1.654c-15.046,0.028-30.092,0.026-45.139,0.001c-1.259-0.002-2.93,0.346-2.958-1.715
		c-0.033-2.396,1.874-1.88,3.244-1.888C152.438,108.899,159.887,108.922,167.335,108.922z"/>
	<path fill="#7F7F81" d="M88.291,90.837c-6.713,0-13.426,0.036-20.137-0.031c-1.321-0.013-3.335,0.704-3.437-1.649
		c-0.121-2.792,2.181-1.909,3.586-1.916c13.425-0.064,26.85-0.056,40.275-0.009c1.312,0.005,3.37-0.682,3.26,1.781
		c-0.1,2.225-1.992,1.803-3.409,1.81C101.717,90.854,95.004,90.836,88.291,90.837z"/>
	<path fill="#194C51" d="M84.431,73.223c-5.664,0-11.328,0.023-16.992-0.018c-1.221-0.009-2.818,0.493-2.893-1.694
		c-0.083-2.426,1.62-2.024,3.051-2.025c11.179-0.012,22.357-0.017,33.536,0.008c1.247,0.003,2.807-0.424,2.911,1.72
		c0.121,2.508-1.701,1.981-3.069,1.992C95.461,73.25,89.946,73.224,84.431,73.223z"/>
	<path fill="#989898" d="M210.775,52.167c23.623,0,47.245,0,70.868,0c0.002,0.209,0.005,0.417,0.007,0.626
		c-23.623,0-47.245,0-70.868,0C210.78,52.584,210.777,52.376,210.775,52.167z"/>
	<path fill="#A0A0A0" d="M210.735,69.163c23.671,0,47.341,0,71.012,0c0,0.268-0.001,0.535-0.001,0.803c-23.671,0-47.341,0-71.012,0
		C210.734,69.699,210.735,69.431,210.735,69.163z"/>
	<path fill="#989898" d="M297.284,52.15c23.152,0,46.304,0,69.456,0c0.002,0.213,0.004,0.426,0.007,0.639
		c-23.152,0-46.304,0-69.456,0C297.288,52.575,297.286,52.362,297.284,52.15z"/>
	<path fill="#A0A0A0" d="M366.866,70.078c-23.21,0-46.419,0-69.629,0c-0.003-0.278-0.005-0.556-0.008-0.834
		c23.19,0,46.379,0,69.569,0C366.821,69.521,366.843,69.8,366.866,70.078z"/>
	<path fill="#4B7E7F" d="M138.947,101.84c-0.489,2.452-1.823,4.208-4.444,4.179c-2.571-0.028-4.256-1.607-4.285-4.215
		c-0.031-2.841,1.765-4.51,4.523-4.432C137.331,97.445,138.598,99.319,138.947,101.84z"/>
	<path fill="#4B7E7F" d="M58.034,106.108c-2.41-0.509-4.133-1.832-4.026-4.496c0.114-2.847,1.935-4.459,4.694-4.233
		c2.535,0.208,4.109,2.066,3.9,4.612C62.398,104.478,60.721,105.951,58.034,106.108z"/>
	<path fill="#4B7E7F" d="M58.36,75.401c-2.301-0.32-4.178-1.408-4.349-4.079c-0.168-2.61,1.259-4.321,3.851-4.575
		c2.88-0.281,4.62,1.462,4.755,4.157C62.744,73.435,61.061,74.961,58.36,75.401z"/>
	<path fill="#194C51" d="M325.014,146.429c-12.688,0-25.377,0.022-38.065-0.028c-1.571-0.006-3.836,0.875-3.727-2.254
		c0.096-2.743,2.075-2.033,3.546-2.035c25.377-0.032,50.753-0.032,76.13,0c1.612,0.002,3.861-0.764,3.728,2.299
		c-0.136,3.133-2.519,1.957-3.995,1.968C350.092,146.467,337.553,146.429,325.014,146.429z"/>
	<path fill="#194C51" d="M94.719,146.43c-12.228,0-24.457,0.063-36.684-0.074c-1.65-0.018-4.757,1.576-4.6-2.169
		c0.148-3.548,3.138-2.021,4.841-2.028c24.605-0.102,49.211-0.098,73.816-0.007c1.692,0.006,4.69-1.45,4.605,2.253
		c-0.076,3.355-2.833,1.945-4.4,1.96C119.772,146.481,107.246,146.429,94.719,146.43z"/>
	<path fill="#194C51" d="M212.455,159.071c-11.177,0-22.354,0.032-33.53-0.037c-1.523-0.009-3.892,0.98-3.783-2.158
		c0.103-2.981,2.363-2.133,3.947-2.136c22.204-0.044,44.409-0.041,66.613-0.007c1.603,0.002,3.807-0.789,3.732,2.288
		c-0.078,3.196-2.448,1.986-3.896,1.999C234.511,159.114,223.483,159.071,212.455,159.071z"/>
	
		<rect x="210.806" y="106.019" fill="none" stroke="#4B7E7F" stroke-width="2" stroke-miterlimit="10" width="155.525" height="14.652"/>
</g>
</svg>
