<?xml version="1.0" encoding="utf-8"?>
<!-- Generator: Adobe Illustrator 17.0.0, SVG Export Plug-In . SVG Version: 6.00 Build 0)  -->
<!DOCTYPE svg PUBLIC "-//W3C//DTD SVG 1.1//EN" "http://www.w3.org/Graphics/SVG/1.1/DTD/svg11.dtd">
<svg version="1.1" id="Layer_1" xmlns="http://www.w3.org/2000/svg" xmlns:xlink="http://www.w3.org/1999/xlink" x="0px" y="0px"
	 width="418px" height="130.333px" viewBox="0 0 418 245.333" enable-background="new 0 0 418 245.333" xml:space="preserve">
<rect y="0.002" fill="#FEFEFE" width="418" height="245.33"/>
<g>
	<g>
		<path fill="#C52275" d="M343.863,173.126c0.551-1.069,1.41-1.68,2.625-1.755c3.439-0.248,6.886-0.071,10.328-0.101
			c2.318-0.019,4.635-0.09,6.949,0.131c0.24,2.04,0.139,4.088,0.056,6.132c-0.506,0.439-1.08,0.353-1.658,0.203
			c-5.029-1.305-10.148-2.228-15.185-3.495C345.915,173.97,344.771,173.869,343.863,173.126z"/>
		<path fill="#B32074" d="M363.826,188.63c0,1.365,0,2.727,0,4.092c-1.601,0.386-3.072-0.319-4.564-0.63
			c-4.609-0.968-9.162-2.213-13.771-3.199c-0.78-0.169-1.658-0.229-2.235-0.93c-0.049-1.2-0.038-2.4-0.007-3.6
			c0.42-0.578,0.949-0.315,1.451-0.184c4.227,1.118,8.521,1.946,12.774,2.959C359.589,187.64,361.73,188.045,363.826,188.63z"/>
		<path fill="#C22275" d="M343.417,184.254c0,1.264,0,2.531,0.004,3.795c0.6,0.889,0.338,1.886,0.371,2.85
			c0.015,0.694,0.03,1.391-0.004,2.085c0.022,0.608,0.022,1.215,0,1.819c0.038,0.968,0.022,1.935-0.004,2.903
			c0.007,0.551,0.022,1.103-0.458,1.504c-0.255-0.454-0.15-0.953-0.15-1.429c-0.004-7.249-0.004-14.499,0.007-21.748
			c0-1.016-0.045-2.055,0.683-2.907c2.862,0.645,5.746,1.196,8.573,1.958c3.342,0.896,6.807,1.226,10.092,2.355
			c0.398,0.135,0.863,0.071,1.294,0.098c0,0.975,0,1.946,0,2.922c-0.765,0.619-1.56,0.263-2.359,0.09
			c-5.213-1.129-10.366-2.52-15.602-3.537c-2.066-0.401-2.07-0.368-2.081,1.804c0.022,0.855,0.034,1.71,0.007,2.565
			C343.762,182.349,344.021,183.357,343.417,184.254z"/>
		<path fill="#B82174" d="M343.417,184.254c0-0.975,0-1.95,0-2.922c0.503-0.461,1.08-0.334,1.654-0.214
			c5.033,1.069,10.028,2.291,15.009,3.585c1.249,0.326,2.655,0.098,3.747,1.009c0,0.975,0,1.946,0,2.922
			c-3.754-0.071-7.283-1.309-10.887-2.134C349.763,185.769,346.507,185.341,343.417,184.254z"/>
		<path fill="#BE2275" d="M343.413,178.722c-0.004-0.049-0.011-0.098-0.015-0.146c-0.09-2.449-0.105-2.37,2.329-1.98
			c5.01,0.803,9.848,2.366,14.833,3.274c1.088,0.199,2.111,0.758,3.267,0.581c0,0.975,0,1.946,0,2.922
			c-0.585,0.461-1.219,0.218-1.815,0.079c-5.757-1.328-11.559-2.453-17.27-3.972C344.227,179.345,343.672,179.296,343.413,178.722z"
			/>
		<path fill="#AF1F74" d="M343.417,190.971c0-0.971,0-1.946,0-2.918c3.004,0.683,6.008,1.358,9.008,2.044
			c3.799,0.87,7.598,1.751,11.397,2.629c0,0.878,0,1.751,0,2.629c-0.915,0.308-1.815,0.116-2.712-0.083
			c-4.665-1.028-9.26-2.389-13.981-3.169C345.855,191.886,344.58,191.601,343.417,190.971z"/>
		<path fill="#831971" d="M366.152,216.387c-0.634,0.326-1.328,0.27-2.003,0.27c-7.054,0.011-14.109,0.011-21.163,0
			c-0.671,0-1.369,0.079-1.999-0.263c0.585-0.596,1.346-0.48,2.059-0.48c3.78,0,7.564-0.06,11.345,0.045
			c1.598,0.011,3.203,0,4.815,0c-4.8-0.956-9.541-2.171-14.311-3.263c-3.642-0.833-7.309-1.556-10.929-2.49
			c-0.679-0.176-1.343-0.18-1.999,0.083c-0.544-0.608-0.855-1.339-1.114-2.096c0.383-0.75,1.013-0.581,1.646-0.469
			c3.439,0.615,6.766,1.725,10.19,2.381c5.768,1.103,11.424,2.689,17.173,3.882c1.616,0.334,3.207,0.776,4.819,1.121
			C365.342,215.251,366.182,215.367,366.152,216.387z"/>
		<path fill="#A81E73" d="M343.421,197.684c0-0.971,0-1.946,0-2.918c0.383-0.341,0.814-0.244,1.245-0.135
			c5.854,1.451,11.772,2.625,17.604,4.182c0.649,0.173,1.575,0.195,1.294,1.328c-0.491,0.919-0.934,1.883-2.081,2.168
			c-2.997-1.305-6.229-1.729-9.372-2.468C349.2,199.154,346.275,198.561,343.421,197.684z"/>
		<path fill="#7C1770" d="M354.754,216.368c-4.59,0.011-9.177,0.019-13.768,0.03c-3.424-0.465-6.094-2.183-8.18-4.887
			c0.21-1.114,1.076-0.754,1.699-0.66c1.916,0.281,3.765,0.908,5.671,1.271c4.137,0.791,8.153,2.13,12.327,2.768
			C353.404,215.025,354.447,215.205,354.754,216.368z"/>
		<path fill="#BB2175" d="M343.413,178.722c4.65,1.028,9.207,2.464,13.925,3.21c2.183,0.345,4.324,0.953,6.484,1.444
			c0,0.78,0,1.556,0,2.336c-3.608-0.345-7.032-1.526-10.55-2.299c-3.282-0.72-6.507-1.714-9.86-2.081
			C343.413,180.462,343.413,179.592,343.413,178.722z"/>
		<path fill="#CB2577" d="M376.975,171.394c0.293,2.145,0.323,4.29-0.019,6.432c-2.066,0.315-4.144,0.064-6.218,0.135
			c-0.525,0.019-0.645-0.289-0.641-0.743c0.007-1.744,0.007-3.488,0-5.228c0-0.465,0.146-0.746,0.66-0.728
			C372.827,171.334,374.909,171.094,376.975,171.394z"/>
		<path fill="#AD1F74" d="M343.417,190.971c2.828,0.544,5.689,0.968,8.48,1.669c2.614,0.656,5.247,1.215,7.868,1.826
			c1.35,0.315,2.708,0.593,4.062,0.889c0,0.679,0,1.361,0,2.04c-0.833,0.608-1.714,0.21-2.528,0.022
			c-5.479-1.279-10.966-2.524-16.468-3.717c-0.529-0.113-1.043-0.251-1.414-0.683C343.417,192.332,343.417,191.649,343.417,190.971z
			"/>
		<path fill="#A41E73" d="M343.421,197.684c0.713-0.315,1.335-0.071,2.059,0.131c2.254,0.641,4.564,1.088,6.848,1.628
			c2.809,0.664,5.607,1.369,8.423,2.003c0.544,0.124,0.761,0.338,0.728,0.859c-1.624,0.686-3.312,0.289-4.977,0.304
			c-0.131-0.06-0.27-0.12-0.416-0.105c-4.017,0.473-7.786-0.788-11.611-1.65c-0.36-0.083-0.623-0.244-0.829-0.536
			c-0.334-0.304-0.338-0.701-0.319-1.106C343.357,198.704,343.387,198.194,343.421,197.684z"/>
		<path fill="#871971" d="M366.152,216.387c-0.473-0.941-1.463-0.9-2.265-1.088c-6.188-1.451-12.391-2.839-18.587-4.26
			c-4.403-1.009-8.802-2.033-13.201-3.064c-0.465-0.109-0.859-0.008-1.249,0.218c-0.195-0.458-0.443-0.9-0.364-1.425
			c0.053-0.056,0.105-0.116,0.154-0.173c0.66-0.353,1.32-0.116,1.965,0.03c1.916,0.428,3.814,0.956,5.749,1.298
			c0.443,0.079,0.81,0.285,1.14,0.57c1.193,1.125,2.727,1.256,4.234,1.373c1.238,0.098,2.487,0.064,3.728,0.086
			c3.282,0.623,6.496,1.556,9.762,2.239c3.278,0.686,6.496,1.62,9.792,2.231c0.679,0.128,1.448,0.323,1.796,1.091
			C368.061,216.222,367.112,216.316,366.152,216.387z"/>
		<path fill="#AA1E73" d="M343.417,193.015c3.687,0.686,7.317,1.631,10.981,2.408c3.139,0.664,6.222,1.628,9.428,1.969
			c0.071,0.93,0.248,1.871-0.266,2.745c-0.007-0.66-0.551-0.769-1.001-0.866c-4.099-0.889-8.15-1.999-12.267-2.835
			c-2.299-0.465-4.613-0.998-6.874-1.673C343.417,194.181,343.417,193.6,343.417,193.015z"/>
		<path fill="#BF2375" d="M330.186,205.301c-0.33-0.638-0.218-1.331-0.218-2.003c-0.008-10.25,0.019-20.499-0.022-30.749
			c-0.004-1.193,0.293-1.504,1.481-1.305c3.582,0.608,5.427,2.847,5.517,6.871c-1.609-0.63-3.353-0.773-4.973-1.369
			c-0.949-0.349-1.35,0.038-1.343,1.005c0.007,0.964,0.011,1.928,0.011,2.892c0.045,1.208,0.038,2.415,0.011,3.623
			c0.038,1.343,0.041,2.689,0,4.032c0.03,1.073,0.041,2.149-0.004,3.222c0.019,1.065,0.045,2.13,0,3.195
			c0.022,0.964,0.034,1.928-0.004,2.892c0.011,0.604,0.03,1.211,0,1.815c0.019,0.69,0.026,1.376,0.007,2.066
			c-0.019,0.866,0.041,1.736-0.019,2.603C330.621,204.547,330.591,204.993,330.186,205.301z"/>
		<path fill="#801870" d="M354.754,216.368c-1.695-1.478-3.912-1.2-5.884-1.736c-2.04-0.559-4.065-1.2-6.139-1.568
			c-2.997-0.529-5.914-1.388-8.903-1.928c-0.379-0.068-0.788-0.038-1.02,0.379c-0.394-0.33-0.709-0.713-0.844-1.223
			c0.015-0.533,0.03-0.945,0.825-0.716c1.241,0.356,2.531,0.518,3.792,0.844c3.683,0.945,7.426,1.65,11.142,2.468
			c1.646,0.364,3.285,0.773,4.928,1.159c2.535,0.596,5.07,1.185,7.602,1.785c0.18,0.041,0.379,0.109,0.371,0.54
			C358.673,216.368,356.712,216.368,354.754,216.368z"/>
		<path fill="#B92175" d="M330.253,180.458c-0.007-1.11,0.022-2.224-0.03-3.334c-0.045-0.979,0.45-1.234,1.253-0.968
			c1.511,0.503,3.015,1.005,4.617,1.088c0.596,0.03,0.484,0.671,0.859,0.874c0.075,0.529,0.21,1.054,0.21,1.583
			c0.015,8.127,0.015,16.254,0.015,24.377c-0.705-0.146-0.525-0.746-0.623-1.208c-0.034-0.668-0.03-1.335-0.015-2.006
			c-0.007-0.596-0.034-1.193-0.004-1.785c-0.03-0.96-0.038-1.92-0.008-2.88c-0.038-1.155-0.038-2.31-0.004-3.465
			c-0.034-1.069-0.038-2.134,0-3.203c-0.026-1.215-0.038-2.43,0.007-3.642c-0.09-1.103,0.375-2.336-0.244-3.282
			c-0.634-0.964-1.988-0.514-2.963-0.923C332.305,181.265,331.108,181.283,330.253,180.458z"/>
		<path fill="#8A1A71" d="M368.811,215.513c-3.758-1.376-7.733-1.879-11.577-2.918c-2.374-0.641-4.8-1.091-7.163-1.774
			c-0.87-0.251-2.018,0.218-2.61-0.87c1.751,0,3.503,0,5.258,0c3.593,0.791,7.148,1.748,10.749,2.501
			c1.856,0.39,3.653,1.001,5.521,1.35c0.518,0.098,1.024,0.33,1.309,0.844C369.943,215.183,369.426,215.434,368.811,215.513z"/>
		<path fill="#A41E73" d="M377.005,204.438c-0.015,0.184-0.03,0.368-0.045,0.548c-0.353,0.469,0.011,1.061-0.27,1.541
			c-0.075,0.93-0.349,1.785-0.904,2.546c-1.553-1.95-3.799-1.834-5.952-1.988c-0.323-0.022-0.66,0.214-0.975-0.049
			c0.533-1.02,0.938-2.081,1.121-3.222c0.176-0.236,0.071-0.626,0.409-0.776c0.461-0.203,0.956-0.233,1.403-0.056
			c1.571,0.619,3.289,0.6,4.875,1.148C376.814,204.194,376.923,204.299,377.005,204.438z"/>
		<path fill="#911B72" d="M373.161,212.588c-0.375,0.585-0.81,1.114-1.47,1.403c-4.088-1.016-8.21-1.886-12.294-2.922
			c-0.821-0.21-1.871-0.053-2.299-1.118c2.393-0.011,4.785-0.022,7.178-0.034c2.974-0.086,5.734,0.844,8.491,1.781
			C373.15,211.83,373.461,212.1,373.161,212.588z"/>
		<path fill="#BC2376" d="M373.454,191.578c-0.971-0.135-2.516,0.536-3.278-0.251c-0.75-0.776-0.21-2.31-0.225-3.507
			c-0.038-3.004-0.011-3.004,3.027-3.004c1.069,0,2.138,0.038,3.203-0.011c0.773-0.038,1.013,0.263,0.99,1.013
			c-0.041,1.553-0.06,3.105,0.007,4.654c0.041,0.923-0.311,1.193-1.178,1.125C375.231,191.529,374.451,191.578,373.454,191.578z"/>
		<path fill="#8D1A71" d="M357.098,209.951c1.71,0.788,3.574,1.013,5.382,1.444c2.715,0.653,5.449,1.223,8.168,1.86
			c0.416,0.098,0.829,0.3,1.043,0.735c-0.555,0.026-0.769,0.776-1.395,0.656c-4.485-1.298-9.057-2.243-13.599-3.312
			c-1.339-0.315-2.824-0.45-3.983-1.384C354.177,209.951,355.636,209.951,357.098,209.951z"/>
		<path fill="#921B72" d="M336.925,202.942c0.068,0.383-0.101,0.818,0.248,1.136c0.131,0.593,0.259,1.185,0.39,1.778
			c-2.494-0.334-4.947-0.848-7.306-1.748c-0.004-0.874-0.004-1.748-0.008-2.621C332.53,201.73,334.769,202.135,336.925,202.942z"/>
		<path fill="#AC2175" d="M370.247,203.234c-0.086,0.191-0.176,0.383-0.263,0.578c-0.015-1.5,0.007-3.004-0.056-4.504
			c-0.034-0.803,0.308-0.986,1.028-0.971c1.744,0.038,3.492,0.015,5.236,0.011c0.521,0,1.001,0.022,0.968,0.735
			c-0.083,1.785,0.191,3.578-0.15,5.356l-0.083-0.06c-0.559-0.728-0.326-1.586-0.375-2.393c-0.038-0.626-0.146-1.163-0.885-1.298
			c-1.29-0.236-2.532-0.664-3.814-0.938c-1.088-0.233-1.245,0.191-1.223,1.106C370.652,201.659,370.832,202.518,370.247,203.234z"/>
		<path fill="#971C72" d="M373.161,212.588c-0.034-0.319-0.188-0.488-0.521-0.593c-2.745-0.87-5.562-1.444-8.367-2.078
			c0.998-0.413,1.999-0.825,3-1.238c1.954,0.533,3.927,0.99,5.873,1.541c0.544,0.154,1.478,0.12,1.181,1.193
			C374.042,211.909,373.765,212.408,373.161,212.588z"/>
		<path fill="#9F1D73" d="M368.859,207.033c1.988-0.806,3.814,0.022,5.704,0.484c0.968,0.236,1.335,0.626,1.223,1.556
			c-0.041,0.401-0.232,0.716-0.529,0.983c-1.459-0.63-3.019-0.881-4.564-1.185c-0.893-0.176-1.8-0.341-2.269-1.279
			C368.571,207.401,368.713,207.217,368.859,207.033z"/>
		<path fill="#9A1C72" d="M368.424,207.589c1.594,1.028,3.465,1.088,5.236,1.448c0.735,0.15,1.279,0.338,1.598,1.016
			c-0.176,0.548-0.488,0.998-0.93,1.361c-0.12-0.788-0.833-0.709-1.335-0.848c-1.519-0.428-3.049-0.81-4.59-1.155
			c-0.495-0.113-0.941-0.195-1.133-0.731C367.656,208.316,368.042,207.952,368.424,207.589z"/>
		<path fill="#8D1B72" d="M330.257,204.108c2.509,0.274,4.965,0.773,7.306,1.748c0.206,0.386,0.413,0.773,0.623,1.155
			c-0.566,0.45-1.193,0.259-1.785,0.113c-1.44-0.356-2.925-0.484-4.35-0.9c-0.638-0.188-1.121-0.068-1.493,0.484l-0.067,0.056
			c-0.33-0.443-0.293-0.956-0.296-1.463C330.212,204.903,330.234,204.506,330.257,204.108z"/>
		<path fill="#A11F74" d="M343.642,200.317c2.588,0.42,5.1,1.099,7.598,1.92c1.091,0.36,2.389,0.079,3.593,0.128
			c0.559,0.022,1.166-0.199,1.665,0.24c-3.18,0.019-6.361,0.09-9.537,0.034C345.416,202.612,344.216,201.858,343.642,200.317z"/>
		<path fill="#891A71" d="M330.553,206.711c-0.139-1.013,0.21-1.234,1.226-0.986c2.115,0.514,4.268,0.87,6.402,1.29
			c0.439,0.491,0.874,0.986,1.313,1.478C336.46,208.162,333.599,206.992,330.553,206.711z"/>
		<path fill="#C92979" d="M376.975,171.394c-1.838,0.004-3.679,0.049-5.517-0.007c-0.964-0.03-1.279,0.319-1.234,1.26
			c0.064,1.305,0.079,2.618-0.004,3.919c-0.067,1.076,0.405,1.305,1.365,1.275c1.789-0.056,3.582-0.015,5.371-0.015
			c-2.141,0.48-4.309,0.105-6.466,0.199c-0.548,0.022-0.555-0.42-0.555-0.821c0-1.744,0.004-3.488,0-5.232
			c0-0.416,0.038-0.825,0.585-0.795C372.674,171.289,374.841,170.876,376.975,171.394z"/>
		<path fill="#CA2879" d="M363.766,171.401c-5.761-0.011-11.517-0.022-17.278-0.03c0.326-0.064,0.649-0.184,0.975-0.184
			c5.172-0.011,10.347-0.011,15.519-0.004C363.26,171.18,363.575,171.094,363.766,171.401z"/>
		<path fill="#A81F74" d="M376.69,206.527c0.034-0.525-0.229-1.099,0.27-1.541C377.001,205.522,377.005,206.051,376.69,206.527z"/>
		<path fill="#B01F74" d="M336.925,185.713c0,1.264,0,2.531,0,3.795c-0.311,0.281-0.69,0.398-1.08,0.304
			c-1.875-0.454-3.803-0.69-5.592-1.47c0-1.361,0-2.727,0-4.088c0.191-0.169,0.431-0.293,0.668-0.229
			C332.923,184.58,335.035,184.756,336.925,185.713z"/>
		<path fill="#B52074" d="M336.925,185.713c-1.778-0.079-3.435-0.713-5.145-1.106c-0.51-0.116-1.016-0.236-1.526-0.353
			c0-1.264,0-2.532,0-3.795c1.946,0.319,3.762,1.193,5.757,1.309c0.645,0.038,1.001,0.443,0.949,1.189
			C336.891,183.868,336.933,184.794,336.925,185.713z"/>
		<path fill="#AB1F74" d="M330.253,188.342c1.736-0.124,3.308,0.63,4.958,0.949c0.574,0.113,1.133,0.229,1.714,0.218
			c0,1.073,0,2.141,0,3.214c-0.15,0.124-0.308,0.281-0.495,0.285c-2.179,0.03-4.272-0.315-6.177-1.451
			C330.253,190.483,330.253,189.411,330.253,188.342z"/>
		<path fill="#A71E73" d="M330.253,191.556c2.235,0.323,4.354,1.309,6.672,1.166c0,1.166,0,2.336,0,3.503
			c-0.233,0.203-0.514,0.3-0.799,0.225c-1.969-0.514-4.088-0.518-5.873-1.684C330.253,193.697,330.253,192.625,330.253,191.556z"/>
		<path fill="#A41D73" d="M330.253,194.766c2.224,0.488,4.448,0.975,6.672,1.459c0,0.971,0,1.946,0,2.918
			c-1.478,0.326-2.813-0.431-4.227-0.611c-0.818-0.105-1.725-0.293-2.445-0.848C330.253,196.712,330.253,195.737,330.253,194.766z"
			/>
		<path fill="#991C72" d="M336.925,202.942c-2.284-0.21-4.538-0.559-6.676-1.451c0-0.683,0-1.369,0.004-2.051
			c0.619-0.54,1.309-0.221,1.943-0.094c1.635,0.326,3.357,0.42,4.733,1.549C336.925,201.577,336.925,202.259,336.925,202.942z"/>
		<path fill="#9F1D73" d="M336.925,200.894c-2.194-0.626-4.384-1.275-6.672-1.455c0-0.585,0-1.17,0-1.751
			c2.265,0.304,4.485,0.806,6.672,1.459C336.925,199.728,336.925,200.309,336.925,200.894z"/>
		<path fill="#A81F74" d="M370.247,203.234c0-0.536-0.004-1.069-0.004-1.605c0-2.779,0.007-2.802,2.749-2.096
			c1.076,0.278,2.108,0.728,3.233,0.78c0.698,0.03,0.735,0.484,0.731,1.005c-0.015,1.02-0.019,2.04-0.03,3.06
			c-1.643-0.195-3.3-0.311-4.849-0.956C371.47,203.167,370.858,203.272,370.247,203.234z"/>
		<path fill="#B82275" d="M373.465,191.259c-0.049,0-0.098,0-0.146,0c-3.315,0-3.555-0.296-3.087-3.608
			c0.075-0.54,0.251-0.784,0.818-0.735c1.883,0.169,3.627,0.93,5.479,1.279c0.923,0.176,0.308,1.53,0.401,2.344
			c0.083,0.698-0.48,0.72-0.99,0.716C375.115,191.256,374.29,191.259,373.465,191.259z"/>
	</g>
	<g>
		<path fill="#D8D9D9" d="M213.462,163.678c-54.232,0-108.464-0.047-162.695,0.09c-4.266,0.011-5.851-0.946-5.535-5.199
			c0.383-5.155,0.335-10.37,0.01-15.532c-0.236-3.75,1.281-4.943,4.889-4.427c0.441,0.063,0.9,0.009,1.351,0.009
			c108.313,0,216.627,0,324.94,0c6.116,0,6.117,0.002,6.119,5.746c0.002,4.893-0.285,9.806,0.089,14.673
			c0.307,3.989-1.3,4.727-5.121,4.717c-46.72-0.118-93.441-0.077-140.161-0.077C229.386,163.678,221.424,163.678,213.462,163.678z"
			/>
		<path fill="#194C51" d="M249.547,33.592c10.367,0,20.736,0.112,31.1-0.069c3.057-0.053,3.769,0.917,3.71,3.667
			c-0.056,2.582-0.401,3.766-3.623,3.743c-21.184-0.151-42.37-0.161-63.553,0.006c-3.422,0.027-3.452-1.463-3.525-3.879
			c-0.076-2.503,0.48-3.578,3.44-3.533C227.91,33.692,238.73,33.592,249.547,33.592z"/>
		<path fill="#194C51" d="M169.584,40.854c-10.209,0-20.423-0.152-30.626,0.085c-3.41,0.079-3.448-1.44-3.505-3.861
			c-0.058-2.444,0.344-3.574,3.368-3.555c20.718,0.129,41.438,0.129,62.156,0.002c3.101-0.019,3.282,1.305,3.326,3.64
			c0.049,2.607-0.418,3.833-3.642,3.767C190.306,40.722,179.944,40.854,169.584,40.854z"/>
		<path fill="#194C51" d="M326.181,40.854c-10.066,0-20.134-0.125-30.195,0.073c-3.149,0.062-3.637-1.067-3.676-3.722
			c-0.04-2.776,0.728-3.693,3.742-3.676c20.431,0.117,40.863,0.132,61.294-0.013c3.187-0.023,3.596,1.134,3.638,3.742
			c0.044,2.738-0.633,3.722-3.707,3.666C346.916,40.738,336.547,40.854,326.181,40.854z"/>
		<path fill="#7F7F81" d="M90.836,72.809c-10.049,0-20.099,0.023-30.148-0.025c-1.489-0.007-3.607,0.662-3.689-1.889
			c-0.083-2.553,1.991-2.05,3.529-2.052c20.549-0.025,41.098-0.024,61.646-0.003c1.562,0.002,3.612-0.435,3.463,2.115
			c-0.149,2.543-2.281,1.817-3.753,1.824C111.535,72.835,101.186,72.809,90.836,72.809z"/>
		<path fill="#7F7F81" d="M91.423,55.723c-10.345,0-20.691,0.023-31.036-0.028c-1.319-0.007-3.29,0.661-3.323-1.7
			c-0.033-2.375,1.938-1.755,3.268-1.757c20.841-0.036,41.681-0.036,62.522-0.002c1.342,0.002,3.312-0.616,3.343,1.706
			c0.03,2.331-1.934,1.754-3.288,1.759C112.414,55.741,101.918,55.723,91.423,55.723z"/>
		<path fill="#7F7F81" d="M91.286,85.095c10.04,0,20.081-0.065,30.119,0.066c1.633,0.021,4.643-1.317,4.67,1.566
			c0.03,3.23-3.173,1.778-4.89,1.788c-19.629,0.11-39.26,0.111-58.889,0c-1.754-0.01-5.026,1.388-5.062-1.565
			c-0.043-3.537,3.495-1.713,5.284-1.753C72.102,84.981,81.695,85.095,91.286,85.095z"/>
		<path fill="#7F7F81" d="M169.79,55.723c-10.199,0-20.398,0.028-30.596-0.034c-1.305-0.008-3.341,0.766-3.504-1.519
			c-0.191-2.678,2.082-1.926,3.525-1.929c20.397-0.043,40.795-0.044,61.192,0.006c1.291,0.003,3.323-0.798,3.488,1.521
			c0.193,2.708-2.078,1.916-3.51,1.924C190.188,55.75,179.989,55.723,169.79,55.723z"/>
		<path fill="#7F7F81" d="M169.569,99.059c-10.039,0-20.079,0.033-30.118-0.038c-1.425-0.01-3.746,0.845-3.751-1.721
			c-0.005-2.587,2.329-1.712,3.745-1.716c20.228-0.055,40.457-0.055,60.685,0.001c1.41,0.004,3.741-0.885,3.742,1.716
			c0.001,2.593-2.325,1.708-3.737,1.718C189.948,99.093,179.758,99.059,169.569,99.059z"/>
		<path fill="#7F7F81" d="M169.727,88.464c-10.195,0-20.391,0.024-30.586-0.03c-1.323-0.007-3.351,0.7-3.451-1.585
			c-0.116-2.641,2.147-1.893,3.593-1.896c20.391-0.045,40.781-0.044,61.172-0.001c1.317,0.003,3.337-0.701,3.439,1.6
			c0.118,2.677-2.15,1.87-3.58,1.879C190.118,88.493,179.922,88.464,169.727,88.464z"/>
		<path fill="#7F7F81" d="M169.707,63.255c10.188,0,20.376-0.03,30.563,0.034c1.433,0.009,3.712-0.776,3.615,1.86
			c-0.083,2.265-2.111,1.601-3.441,1.603c-20.376,0.039-40.751,0.042-61.127-0.004c-1.439-0.003-3.783,0.769-3.613-1.848
			c0.161-2.485,2.458-1.594,3.889-1.605C149.631,63.22,159.669,63.255,169.707,63.255z"/>
		<path fill="#7F7F81" d="M169.711,110.1c-10.044,0-20.088,0.04-30.131-0.046c-1.395-0.012-3.706,0.994-3.873-1.563
			c-0.175-2.674,2.186-1.831,3.597-1.834c20.387-0.052,40.775-0.049,61.162-0.003c1.297,0.003,3.337-0.756,3.425,1.578
			c0.103,2.714-2.2,1.82-3.6,1.83C190.099,110.133,179.905,110.1,169.711,110.1z"/>
		<path fill="#7F7F81" d="M169.425,77.371c-10.062,0-20.125,0.028-30.187-0.032c-1.443-0.009-3.739,0.757-3.547-1.92
			c0.163-2.278,2.215-1.502,3.523-1.505c20.275-0.047,40.55-0.041,60.824-0.018c1.554,0.002,3.746-0.472,3.587,2.006
			c-0.144,2.25-2.262,1.423-3.564,1.432C189.85,77.401,179.637,77.371,169.425,77.371z"/>
		<path fill="#7F7F81" d="M89.037,64.269c-9.451,0-18.903,0.031-28.354-0.032c-1.439-0.01-3.72,0.779-3.594-1.875
			c0.108-2.289,2.161-1.552,3.47-1.556c19.203-0.046,38.406-0.047,57.609,0c1.302,0.003,3.43-0.749,3.41,1.578
			c-0.02,2.454-2.218,1.857-3.736,1.863C108.241,64.29,98.639,64.269,89.037,64.269z"/>
		<path fill="#7F7F81" d="M87.723,80.081c-9.006,0-18.013,0.033-27.018-0.034c-1.439-0.011-3.71,0.769-3.618-1.875
			c0.08-2.272,2.094-1.625,3.431-1.628c18.162-0.04,36.325-0.038,54.487-0.002c1.352,0.003,3.374-0.583,3.41,1.668
			c0.042,2.602-2.232,1.826-3.674,1.837C105.736,80.115,96.729,80.081,87.723,80.081z"/>
		<path fill="#7F7F81" d="M263.524,105.128c5.398,0,10.797-0.012,16.195,0.007c1.49,0.005,3.259-0.163,3.336,1.921
			c0.076,2.062-1.571,2.1-3.144,2.099c-11.097-0.004-22.194-0.003-33.291-0.002c-1.553,0-3.128,0.057-3.024-2.126
			c0.106-2.223,1.843-1.881,3.282-1.888C252.427,105.111,257.976,105.129,263.524,105.128z"/>
		<path fill="#7F7F81" d="M80.701,97.119c-6.735,0-13.471,0.036-20.206-0.031c-1.314-0.013-3.285,0.699-3.423-1.604
			c-0.142-2.371,1.831-1.829,3.185-1.833c13.77-0.036,27.54-0.03,41.31-0.007c1.263,0.002,2.939-0.375,3.003,1.62
			c0.075,2.333-1.837,1.827-3.214,1.835C94.471,97.142,87.586,97.119,80.701,97.119z"/>
		<path fill="#7F7F81" d="M263.048,82.463c-5.531-0.001-11.062,0.013-16.593-0.011c-1.304-0.006-2.864,0.242-2.791-1.801
			c0.071-2.016,1.659-1.683,2.925-1.686c11.211-0.024,22.423-0.018,33.634-0.01c1.348,0.001,2.861-0.136,2.809,1.827
			c-0.054,2.008-1.664,1.663-2.943,1.669C274.409,82.48,268.729,82.464,263.048,82.463z"/>
		<path fill="#7F7F81" d="M263.473,64.332c-5.557,0-11.114,0.023-16.671-0.016c-1.397-0.01-3.287,0.456-3.12-1.91
			c0.143-2.038,1.857-1.516,3.076-1.52c11.114-0.037,22.229-0.029,33.343-0.012c1.295,0.002,2.907-0.309,2.928,1.705
			c0.021,2.016-1.576,1.739-2.884,1.744C274.587,64.343,269.03,64.332,263.473,64.332z"/>
		<path fill="#7F7F81" d="M263.046,55.808c-5.55-0.002-11.1,0.006-16.65-0.008c-1.364-0.003-2.841,0.093-2.732-1.903
			c0.092-1.695,1.391-1.606,2.586-1.607c11.25-0.011,22.499-0.009,33.749-0.005c1.365,0,2.926-0.094,2.972,1.76
			c0.06,2.374-1.945,1.722-3.276,1.738C274.146,55.847,268.596,55.81,263.046,55.808z"/>
		<path fill="#7F7F81" d="M263.072,91.004c-5.544,0.001-11.089,0.007-16.633-0.004c-1.367-0.003-2.847,0.082-2.771-1.882
			c0.066-1.687,1.386-1.614,2.582-1.615c11.388-0.012,22.777-0.014,34.165-0.001c1.181,0.001,2.592-0.126,2.585,1.585
			c-0.007,1.823-1.426,1.916-2.846,1.916C274.46,91.004,268.766,91.003,263.072,91.004z"/>
		<path fill="#7F7F81" d="M263.057,113.704c5.393,0,10.787-0.032,16.179,0.021c1.531,0.015,3.724-0.537,3.726,1.886
			c0.001,2.258-2.101,1.588-3.431,1.594c-10.786,0.051-21.573,0.051-32.359-0.001c-1.331-0.006-3.373,0.66-3.461-1.591
			c-0.102-2.603,2.158-1.857,3.617-1.878C252.57,113.656,257.814,113.704,263.057,113.704z"/>
		<path fill="#7F7F81" d="M257.162,99.543c-3.597,0-7.195-0.001-10.792,0c-1.426,0-2.753-0.091-2.787-1.952
			c-0.034-1.826,1.187-2.054,2.673-2.052c7.344,0.011,14.689,0.011,22.033,0.006c1.333-0.001,2.385,0.262,2.381,1.852
			c-0.003,1.475-0.91,2.072-2.269,2.087c-3.746,0.041-7.493,0.014-11.24,0.014C257.162,99.514,257.162,99.529,257.162,99.543z"/>
		<path fill="#7F7F81" d="M257.444,69.371c3.45-0.001,6.9-0.019,10.349,0.008c1.327,0.011,2.864-0.172,2.816,1.827
			c-0.04,1.68-1.318,1.663-2.538,1.664c-7.349,0.007-14.699,0.001-22.048-0.001c-1.307,0-2.425-0.193-2.369-1.838
			c0.058-1.695,1.336-1.648,2.541-1.654C249.945,69.36,253.694,69.372,257.444,69.371z"/>
		<path fill="#7F7F81" d="M257.157,125.708c-3.751,0-7.502-0.01-11.254,0.005c-1.383,0.006-2.355-0.338-2.242-1.932
			c0.099-1.387,1.083-1.536,2.201-1.536c7.502-0.002,15.005,0.003,22.507-0.009c1.386-0.002,2.347,0.346,2.245,1.934
			c-0.09,1.407-1.1,1.532-2.204,1.534C264.659,125.714,260.908,125.709,257.157,125.708z"/>
		<path fill="#4B7E7F" d="M104.608,106.478c3.48,0.217,5.218,2.141,5.187,5.046c-0.032,2.941-1.895,4.861-5.171,4.81
			c-3.435-0.053-5.341-1.913-5.185-5.194C99.586,108.056,101.645,106.606,104.608,106.478z"/>
		<path fill="#4B7E7F" d="M124.762,111.591c-0.434,3.006-2.107,4.754-5.336,4.75c-3.296-0.004-5.152-1.958-5.151-4.853
			c0.001-3.124,1.986-5.121,5.486-4.95C122.98,106.696,124.507,108.615,124.762,111.591z"/>
		<path fill="#4B7E7F" d="M90.101,116.382c-3.015-0.244-5.004-1.913-4.976-4.914c0.029-3.202,2.076-5.057,5.52-4.927
			c3.268,0.123,5.026,2.158,4.92,5.073C95.457,114.541,93.519,116.3,90.101,116.382z"/>
		<path fill="#4B7E7F" d="M75.655,116.372c-3.529-0.004-5.503-1.724-5.676-4.652c-0.173-2.912,1.53-4.993,4.796-5.173
			c3.423-0.189,5.524,1.589,5.629,4.814C80.501,114.387,78.539,116.057,75.655,116.372z"/>
		<path fill="#4B7E7F" d="M66.205,111.229c-0.314,3.261-1.966,5.071-5.179,5.109c-3.488,0.041-5.347-1.946-5.231-5.142
			c0.109-2.992,2.038-4.758,5.286-4.674C64.329,106.606,65.842,108.511,66.205,111.229z"/>
		<path fill="#FEF3F7" d="M238.164,70.585c-1.156-0.684-2.078-1.581-2.709-2.741c0.369-0.361,0.739-0.723,1.108-1.084
			c1.16,0.667,2.072,1.559,2.692,2.716C238.892,69.845,238.528,70.215,238.164,70.585z"/>
		<path fill="#194C51" d="M97.168,152.643c-12.312,0-24.625,0.053-36.936-0.065c-1.602-0.015-4.492,1.336-4.548-1.756
			c-0.063-3.468,3.07-1.969,4.757-1.976c24.624-0.1,49.248-0.103,73.872,0.005c1.703,0.007,4.879-1.511,4.941,1.743
			c0.071,3.725-3.39,1.929-5.151,1.954C121.793,152.726,109.48,152.643,97.168,152.643z"/>
		<path fill="#194C51" d="M333.363,148.707c11.25,0,22.501-0.028,33.75,0.033c1.555,0.009,3.939-0.881,3.794,2.116
			c-0.13,2.676-2.307,1.757-3.698,1.76c-22.35,0.055-44.701,0.054-67.051,0.007c-1.567-0.003-3.987,0.864-3.841-2.104
			c0.128-2.607,2.308-1.771,3.745-1.779C311.163,148.679,322.263,148.707,333.363,148.707z"/>
		<path fill="#194C51" d="M117.914,37.293c-0.013,4.585-2.403,7.31-6.393,7.287c-3.937-0.023-6.393-2.875-6.354-7.377
			c0.039-4.53,2.521-7.346,6.436-7.305C115.557,29.938,117.927,32.713,117.914,37.293z"/>
		<path fill="#194C51" d="M76.903,37.275c0-4.689,2.269-7.382,6.228-7.386c3.971-0.005,6.307,2.702,6.319,7.328
			c0.013,4.652-2.287,7.359-6.255,7.364C79.181,44.588,76.903,41.94,76.903,37.275z"/>
		<path fill="#194C51" d="M98.394,44.565c-3.409,0.045-5.595-1.043-6.579-3.854c-1.079-3.075-1.083-6.144,1.074-8.815
			c1.875-2.321,4.387-2.208,6.93-1.733c0.446,0.082,0.91,0.345,1.265,0.648c0.901,0.762,2.326,1.637,1.529,2.929
			c-0.806,1.311-1.888,0.608-2.897-0.449c-1.52-1.591-3.426-1.37-4.729,0.245c-1.72,2.127-1.537,4.702-0.269,7.005
			c0.965,1.751,2.668,1.963,4.414,1.279c0.767-0.3,1.616-0.666,1.507-1.795c-0.104-1.129-0.992-0.844-1.628-0.862
			c-0.871-0.023-1.329-0.349-1.277-1.315c0.061-1.075,0.849-1.188,1.52-1.029c1.412,0.336,3.66-1.233,4.067,1.406
			c0.351,2.267,0.668,4.92-2.43,5.754C99.857,44.257,98.814,44.466,98.394,44.565z"/>
		<path fill="#194C51" d="M66.275,37.148c0-1.736-0.008-3.478,0.005-5.215c0.008-0.857-0.096-1.754,1.183-1.787
			c1.326-0.031,1.576,0.717,1.559,1.873c-0.03,2.358,0.117,4.73-0.039,7.078c-0.148,2.208,0.442,3.305,2.729,2.948
			c0.81-0.127,1.658-0.028,2.486-0.005c0.789,0.023,1.373,0.272,1.317,1.297c-0.047,0.811-0.529,1.034-1.161,1.043
			c-2.252,0.023-4.508-0.005-6.76,0.031c-1.156,0.018-1.343-0.676-1.329-1.668C66.296,40.875,66.275,39.011,66.275,37.148z"/>
		<path fill="#FEFEFE" d="M115.134,37.047c-0.044,2.666-0.602,5.042-3.573,5.023c-2.932-0.018-3.612-2.417-3.6-4.951
			c0.009-2.399,0.71-4.598,3.456-4.707C114.441,32.286,115.055,34.558,115.134,37.047z"/>
		<path fill="#FEFEFE" d="M86.843,37.179c-0.273,2.448-0.671,4.965-3.704,4.911c-3.001-0.054-3.516-2.489-3.499-5.002
			c0.013-2.394,0.598-4.606,3.413-4.697C86.129,32.291,86.557,34.726,86.843,37.179z"/>
		<g>
			<path fill="#4B7E7F" d="M239.422,70.499c-2.262-2.278-3.886-3.702-5.243-5.325c-2.04-2.442-3.857-3.923-6.415-0.448
				c-1.354,1.837-2.111-0.08-2.81-0.877c-3.928-4.483-3.908-4.498-7.611,0.167c-1.441,1.812-2.878,3.627-4.988,6.285
				c0-6.076,0.045-11.061-0.026-16.043c-0.022-1.692,0.819-2.046,2.358-2.037c7.45,0.04,14.9,0.009,22.347,0.028
				c0.964,0.003,2.336-0.281,2.356,1.173C239.467,58.84,239.422,64.261,239.422,70.499z"/>
			<path fill="#4B7E7F" d="M220.913,62.674c1.43,0.614,2.04,1.75,2.697,2.747c1.747,2.646,3.473,3.868,5.771,0.512
				c1.048-1.531,2.005-0.929,3.003,0.167c1.672,1.834,3.429,3.594,5.546,5.797c-8.246,0-15.931,0-24.21,0
				C216.262,68.635,218.593,65.647,220.913,62.674z"/>
			<path fill="#FEE5ED" d="M231.218,55.978c0.702,0.092,1.119,0.512,1.148,1.157c0.032,0.695-0.473,1.102-1.148,1.096
				c-0.661-0.007-1.192-0.392-1.16-1.093C230.09,56.488,230.535,56.09,231.218,55.978z"/>
		</g>
		<g>
			<path fill="#4B7E7F" d="M316.111,64.016c-1.553-1.564-2.668-2.541-3.599-3.656c-1.4-1.676-2.648-2.693-4.404-0.307
				c-0.929,1.261-1.449-0.055-1.929-0.602c-2.697-3.077-2.683-3.088-5.225,0.115c-0.989,1.244-1.976,2.49-3.425,4.315
				c0-4.171,0.031-7.593-0.018-11.014c-0.015-1.162,0.562-1.405,1.619-1.399c5.115,0.028,10.229,0.006,15.341,0.019
				c0.662,0.002,1.604-0.193,1.617,0.805C316.142,56.012,316.111,59.734,316.111,64.016z"/>
			<path fill="#4B7E7F" d="M303.404,58.644c0.982,0.421,1.4,1.201,1.851,1.886c1.199,1.816,2.385,2.655,3.962,0.352
				c0.719-1.051,1.376-0.638,2.062,0.115c1.148,1.259,2.354,2.467,3.807,3.98c-5.661,0-10.937,0-16.62,0
				C300.212,62.737,301.812,60.685,303.404,58.644z"/>
			<path fill="#FEE5ED" d="M310.479,54.048c0.482,0.064,0.768,0.352,0.788,0.795c0.022,0.477-0.325,0.756-0.788,0.752
				c-0.453-0.004-0.818-0.269-0.797-0.75C309.704,54.397,310.01,54.124,310.479,54.048z"/>
		</g>
		<g>
			<path fill="#4B7E7F" d="M338.078,64.016c-1.553-1.564-2.668-2.541-3.599-3.656c-1.4-1.676-2.648-2.693-4.404-0.307
				c-0.929,1.261-1.449-0.055-1.929-0.602c-2.697-3.077-2.683-3.088-5.225,0.115c-0.989,1.244-1.976,2.49-3.425,4.315
				c0-4.171,0.031-7.593-0.018-11.014c-0.015-1.162,0.562-1.405,1.619-1.399c5.115,0.028,10.229,0.006,15.341,0.019
				c0.662,0.002,1.604-0.193,1.617,0.805C338.108,56.012,338.078,59.734,338.078,64.016z"/>
			<path fill="#4B7E7F" d="M325.371,58.644c0.982,0.421,1.4,1.201,1.851,1.886c1.199,1.816,2.385,2.655,3.962,0.352
				c0.719-1.051,1.376-0.638,2.062,0.115c1.148,1.259,2.354,2.467,3.807,3.98c-5.661,0-10.937,0-16.62,0
				C322.179,62.737,323.778,60.685,325.371,58.644z"/>
			<path fill="#FEE5ED" d="M332.445,54.048c0.482,0.064,0.768,0.352,0.788,0.795c0.022,0.477-0.325,0.756-0.788,0.752
				c-0.453-0.004-0.818-0.269-0.797-0.75C331.671,54.397,331.977,54.124,332.445,54.048z"/>
		</g>
		<g>
			<path fill="#4B7E7F" d="M360.045,64.016c-1.553-1.564-2.668-2.541-3.599-3.656c-1.4-1.676-2.648-2.693-4.404-0.307
				c-0.929,1.261-1.449-0.055-1.929-0.602c-2.697-3.077-2.683-3.088-5.225,0.115c-0.989,1.244-1.976,2.49-3.425,4.315
				c0-4.171,0.031-7.593-0.018-11.014c-0.015-1.162,0.562-1.405,1.619-1.399c5.115,0.028,10.229,0.006,15.341,0.019
				c0.662,0.002,1.604-0.193,1.617,0.805C360.075,56.012,360.045,59.734,360.045,64.016z"/>
			<path fill="#4B7E7F" d="M347.338,58.644c0.982,0.421,1.4,1.201,1.851,1.886c1.199,1.816,2.385,2.655,3.962,0.352
				c0.719-1.051,1.376-0.638,2.062,0.115c1.148,1.259,2.354,2.467,3.807,3.98c-5.661,0-10.937,0-16.62,0
				C344.145,62.737,345.745,60.685,347.338,58.644z"/>
			<path fill="#FEE5ED" d="M354.412,54.048c0.482,0.064,0.768,0.352,0.788,0.795c0.022,0.477-0.325,0.756-0.788,0.752
				c-0.453-0.004-0.818-0.269-0.797-0.75C353.638,54.397,353.943,54.124,354.412,54.048z"/>
		</g>
		<g>
			<path fill="#4B7E7F" d="M316.072,86.343c-1.553-1.564-2.668-2.541-3.599-3.656c-1.4-1.676-2.648-2.693-4.404-0.307
				c-0.929,1.261-1.449-0.055-1.929-0.602c-2.697-3.077-2.683-3.088-5.225,0.115c-0.989,1.244-1.976,2.49-3.425,4.315
				c0-4.171,0.031-7.593-0.018-11.014c-0.015-1.162,0.562-1.405,1.619-1.399c5.115,0.028,10.229,0.006,15.341,0.019
				c0.662,0.002,1.604-0.193,1.617,0.805C316.102,78.339,316.072,82.061,316.072,86.343z"/>
			<path fill="#4B7E7F" d="M303.365,80.971c0.982,0.421,1.4,1.201,1.851,1.886c1.199,1.816,2.385,2.655,3.962,0.352
				c0.719-1.051,1.376-0.638,2.062,0.115c1.148,1.259,2.354,2.467,3.807,3.98c-5.661,0-10.937,0-16.62,0
				C300.173,85.064,301.772,83.012,303.365,80.971z"/>
			<path fill="#FEE5ED" d="M310.439,76.375c0.482,0.063,0.768,0.352,0.788,0.795c0.022,0.477-0.325,0.756-0.788,0.752
				c-0.453-0.004-0.818-0.269-0.797-0.75C309.665,76.724,309.97,76.451,310.439,76.375z"/>
		</g>
		<g>
			<path fill="#4B7E7F" d="M338.038,86.343c-1.553-1.564-2.668-2.541-3.599-3.656c-1.4-1.676-2.648-2.693-4.404-0.307
				c-0.929,1.261-1.449-0.055-1.929-0.602c-2.697-3.077-2.683-3.088-5.225,0.115c-0.989,1.244-1.976,2.49-3.425,4.315
				c0-4.171,0.031-7.593-0.018-11.014c-0.015-1.162,0.562-1.405,1.619-1.399c5.115,0.028,10.229,0.006,15.341,0.019
				c0.662,0.002,1.604-0.193,1.617,0.805C338.069,78.339,338.038,82.061,338.038,86.343z"/>
			<path fill="#4B7E7F" d="M325.331,80.971c0.982,0.421,1.4,1.201,1.851,1.886c1.199,1.816,2.385,2.655,3.962,0.352
				c0.719-1.051,1.376-0.638,2.062,0.115c1.148,1.259,2.354,2.467,3.807,3.98c-5.661,0-10.937,0-16.62,0
				C322.139,85.064,323.739,83.012,325.331,80.971z"/>
			<path fill="#FEE5ED" d="M332.406,76.375c0.482,0.063,0.768,0.352,0.788,0.795c0.022,0.477-0.325,0.756-0.788,0.752
				c-0.453-0.004-0.818-0.269-0.797-0.75C331.632,76.724,331.937,76.451,332.406,76.375z"/>
		</g>
		<g>
			<path fill="#4B7E7F" d="M360.005,86.343c-1.553-1.564-2.668-2.541-3.599-3.656c-1.4-1.676-2.648-2.693-4.404-0.307
				c-0.929,1.261-1.449-0.055-1.929-0.602c-2.697-3.077-2.683-3.088-5.225,0.115c-0.989,1.244-1.976,2.49-3.425,4.315
				c0-4.171,0.031-7.593-0.018-11.014c-0.015-1.162,0.562-1.405,1.619-1.399c5.115,0.028,10.229,0.006,15.341,0.019
				c0.662,0.002,1.604-0.193,1.617,0.805C360.036,78.339,360.005,82.061,360.005,86.343z"/>
			<path fill="#4B7E7F" d="M347.298,80.971c0.982,0.421,1.4,1.201,1.851,1.886c1.199,1.816,2.385,2.655,3.962,0.352
				c0.719-1.051,1.376-0.638,2.062,0.115c1.148,1.259,2.354,2.467,3.807,3.98c-5.661,0-10.937,0-16.62,0
				C344.106,85.064,345.706,83.012,347.298,80.971z"/>
			<path fill="#FEE5ED" d="M354.373,76.375c0.482,0.063,0.768,0.352,0.788,0.795c0.022,0.477-0.325,0.756-0.788,0.752
				c-0.453-0.004-0.818-0.269-0.797-0.75C353.598,76.724,353.904,76.451,354.373,76.375z"/>
		</g>
		<g>
			<path fill="#4B7E7F" d="M316.111,109.328c-1.553-1.564-2.668-2.541-3.599-3.656c-1.4-1.676-2.648-2.693-4.404-0.307
				c-0.929,1.261-1.449-0.055-1.929-0.602c-2.697-3.077-2.683-3.088-5.225,0.115c-0.989,1.244-1.976,2.49-3.425,4.315
				c0-4.171,0.031-7.593-0.018-11.014c-0.015-1.162,0.562-1.405,1.619-1.399c5.115,0.028,10.229,0.006,15.341,0.019
				c0.662,0.002,1.604-0.193,1.617,0.805C316.142,101.324,316.111,105.045,316.111,109.328z"/>
			<path fill="#4B7E7F" d="M303.404,103.956c0.982,0.421,1.4,1.201,1.851,1.886c1.199,1.816,2.385,2.655,3.962,0.352
				c0.719-1.051,1.376-0.638,2.062,0.115c1.148,1.259,2.354,2.467,3.807,3.98c-5.661,0-10.937,0-16.62,0
				C300.212,108.048,301.812,105.997,303.404,103.956z"/>
			<path fill="#FEE5ED" d="M310.479,99.359c0.482,0.063,0.768,0.352,0.788,0.795c0.022,0.477-0.325,0.756-0.788,0.752
				c-0.453-0.004-0.818-0.269-0.797-0.75C309.704,99.709,310.01,99.436,310.479,99.359z"/>
		</g>
		<g>
			<path fill="#4B7E7F" d="M338.078,109.328c-1.553-1.564-2.668-2.541-3.599-3.656c-1.4-1.676-2.648-2.693-4.404-0.307
				c-0.929,1.261-1.449-0.055-1.929-0.602c-2.697-3.077-2.683-3.088-5.225,0.115c-0.989,1.244-1.976,2.49-3.425,4.315
				c0-4.171,0.031-7.593-0.018-11.014c-0.015-1.162,0.562-1.405,1.619-1.399c5.115,0.028,10.229,0.006,15.341,0.019
				c0.662,0.002,1.604-0.193,1.617,0.805C338.108,101.324,338.078,105.045,338.078,109.328z"/>
			<path fill="#4B7E7F" d="M325.371,103.956c0.982,0.421,1.4,1.201,1.851,1.886c1.199,1.816,2.385,2.655,3.962,0.352
				c0.719-1.051,1.376-0.638,2.062,0.115c1.148,1.259,2.354,2.467,3.807,3.98c-5.661,0-10.937,0-16.62,0
				C322.179,108.048,323.778,105.997,325.371,103.956z"/>
			<path fill="#FEE5ED" d="M332.445,99.359c0.482,0.063,0.768,0.352,0.788,0.795c0.022,0.477-0.325,0.756-0.788,0.752
				c-0.453-0.004-0.818-0.269-0.797-0.75C331.671,99.709,331.977,99.436,332.445,99.359z"/>
		</g>
		<g>
			<path fill="#4B7E7F" d="M360.045,109.328c-1.553-1.564-2.668-2.541-3.599-3.656c-1.4-1.676-2.648-2.693-4.404-0.307
				c-0.929,1.261-1.449-0.055-1.929-0.602c-2.697-3.077-2.683-3.088-5.225,0.115c-0.989,1.244-1.976,2.49-3.425,4.315
				c0-4.171,0.031-7.593-0.018-11.014c-0.015-1.162,0.562-1.405,1.619-1.399c5.115,0.028,10.229,0.006,15.341,0.019
				c0.662,0.002,1.604-0.193,1.617,0.805C360.075,101.324,360.045,105.045,360.045,109.328z"/>
			<path fill="#4B7E7F" d="M347.338,103.956c0.982,0.421,1.4,1.201,1.851,1.886c1.199,1.816,2.385,2.655,3.962,0.352
				c0.719-1.051,1.376-0.638,2.062,0.115c1.148,1.259,2.354,2.467,3.807,3.98c-5.661,0-10.937,0-16.62,0
				C344.145,108.048,345.745,105.997,347.338,103.956z"/>
			<path fill="#FEE5ED" d="M354.412,99.359c0.482,0.063,0.768,0.352,0.788,0.795c0.022,0.477-0.325,0.756-0.788,0.752
				c-0.453-0.004-0.818-0.269-0.797-0.75C353.638,99.709,353.943,99.436,354.412,99.359z"/>
		</g>
		<g>
			<path fill="#4B7E7F" d="M239.422,96.502c-2.262-2.278-3.886-3.702-5.243-5.325c-2.04-2.442-3.857-3.923-6.415-0.448
				c-1.354,1.837-2.111-0.08-2.81-0.877c-3.928-4.483-3.908-4.498-7.611,0.167c-1.441,1.812-2.878,3.627-4.988,6.285
				c0-6.076,0.045-11.061-0.026-16.043c-0.022-1.692,0.819-2.046,2.358-2.037c7.45,0.04,14.9,0.009,22.347,0.028
				c0.964,0.003,2.336-0.281,2.356,1.173C239.467,84.843,239.422,90.264,239.422,96.502z"/>
			<path fill="#4B7E7F" d="M220.913,88.677c1.43,0.614,2.04,1.75,2.697,2.747c1.747,2.646,3.473,3.868,5.771,0.512
				c1.048-1.531,2.005-0.929,3.003,0.167c1.672,1.834,3.429,3.594,5.546,5.797c-8.246,0-15.931,0-24.21,0
				C216.262,94.638,218.593,91.65,220.913,88.677z"/>
			<path fill="#FEE5ED" d="M231.218,81.981c0.702,0.092,1.119,0.512,1.148,1.157c0.032,0.695-0.473,1.102-1.148,1.096
				c-0.661-0.007-1.192-0.392-1.16-1.093C230.09,82.49,230.535,82.093,231.218,81.981z"/>
		</g>
		<g>
			<path fill="#4B7E7F" d="M239.422,123.458c-2.262-2.278-3.886-3.702-5.243-5.325c-2.04-2.442-3.857-3.923-6.415-0.448
				c-1.354,1.837-2.111-0.08-2.81-0.877c-3.928-4.483-3.908-4.498-7.611,0.167c-1.441,1.812-2.878,3.627-4.988,6.285
				c0-6.076,0.045-11.061-0.026-16.043c-0.022-1.692,0.819-2.046,2.358-2.037c7.45,0.04,14.9,0.009,22.347,0.028
				c0.964,0.003,2.336-0.281,2.356,1.173C239.467,111.799,239.422,117.22,239.422,123.458z"/>
			<path fill="#4B7E7F" d="M220.913,115.633c1.43,0.614,2.04,1.75,2.697,2.747c1.747,2.646,3.473,3.868,5.771,0.512
				c1.048-1.531,2.005-0.929,3.003,0.167c1.672,1.834,3.429,3.594,5.546,5.797c-8.246,0-15.931,0-24.21,0
				C216.262,121.594,218.593,118.606,220.913,115.633z"/>
			<path fill="#FEE5ED" d="M231.218,108.937c0.702,0.093,1.119,0.512,1.148,1.157c0.032,0.695-0.473,1.102-1.148,1.096
				c-0.661-0.007-1.192-0.392-1.16-1.093C230.09,109.446,230.535,109.049,231.218,108.937z"/>
		</g>
	</g>
</g>
<rect x="43.703" y="245.332" fill="#FEFEFE" width="337.93" height="15.416"/>
</svg>
