<?xml version="1.0" encoding="utf-8"?>
<!-- Generator: Adobe Illustrator 17.0.0, SVG Export Plug-In . SVG Version: 6.00 Build 0)  -->
<!DOCTYPE svg PUBLIC "-//W3C//DTD SVG 1.1//EN" "http://www.w3.org/Graphics/SVG/1.1/DTD/svg11.dtd">
<svg version="1.1" id="Layer_1" xmlns="http://www.w3.org/2000/svg" xmlns:xlink="http://www.w3.org/1999/xlink" x="0px" y="0px"
	 width="418px" height="130.33px" viewBox="-158.84 -82.585 418 245.33" enable-background="new -158.84 -82.585 418 245.33"
	 xml:space="preserve">
<rect x="-158.84" y="-81.252" fill="#FEFEFE" width="418" height="242.665"/>
<g>
	<path fill="#D8D9D9" d="M49.607,86.759c-53.889,0-107.781,0.011-161.67-0.011c-7.823-0.004-6.768,0.905-6.836-7.05
		c-0.045-5.105,0.139-10.214-0.064-15.308c-0.116-3.003,1.002-4.133,3.9-3.784c0.886,0.105,1.798,0.015,2.699,0.015
		c107.931,0,215.859-0.004,323.791,0.011c7.481,0,6.558-0.83,6.614,6.832c0.038,5.255-0.116,10.51,0.056,15.758
		c0.094,2.808-0.976,3.84-3.671,3.551c-1.04-0.109-2.098-0.019-3.149-0.019C157.384,86.759,103.495,86.759,49.607,86.759z"/>
	<path fill="#194C51" d="M7.017-50.174c-10.657,0-21.314-0.094-31.971,0.064c-2.767,0.041-3.66-0.702-3.555-3.506
		c0.098-2.59,0.251-4.02,3.577-3.994c21.164,0.165,42.327,0.143,63.491,0.015c2.988-0.019,3.75,0.863,3.776,3.78
		c0.03,2.999-0.897,3.757-3.803,3.709C28.03-50.275,17.523-50.174,7.017-50.174z"/>
	<path fill="#194C51" d="M84.588-50.174c-10.653,0-21.306-0.128-31.952,0.079c-3.048,0.06-3.427-1.156-3.318-3.667
		c0.098-2.233-0.139-3.874,3.164-3.848c21.453,0.158,42.905,0.165,64.358-0.004c3.446-0.026,2.872,1.836,3.044,3.919
		c0.218,2.601-0.375,3.652-3.345,3.596C105.894-50.298,95.241-50.174,84.588-50.174z"/>
	<path fill="#194C51" d="M161.934-50.174c-10.195,0-20.398-0.116-30.589,0.075c-2.894,0.053-3.495-0.893-3.438-3.562
		c0.056-2.613,0.263-3.971,3.544-3.945c20.544,0.161,41.089,0.18,61.629-0.011c3.517-0.034,3.228,1.667,3.401,4.058
		c0.203,2.845-0.77,3.498-3.506,3.457C182.632-50.271,172.283-50.174,161.934-50.174z"/>
	<path fill="#4B7E7F" d="M-0.818,46.455c-2.402-2.568-4.028-4.129-5.447-5.86c-2.02-2.466-3.788-4.234-6.475-0.563
		c-1.629,2.226-2.432-0.188-3.239-1.145c-3.765-4.486-3.735-4.505-7.23,0.109c-1.513,1.993-3.048,3.971-5.45,7.091
		c0-6.648,0.015-11.941-0.008-17.23c-0.008-1.963,1.31-2.083,2.733-2.083c7.492-0.008,14.985,0.026,22.477-0.03
		c1.869-0.015,2.695,0.597,2.665,2.583C-0.878,34.665-0.818,40.006-0.818,46.455z"/>
	<path fill="#4B7E7F" d="M75.721,45.385c-1.299-1.426-2.59-2.86-3.893-4.283c-2.083-2.275-3.833-5.323-7.095-0.935
		c-1.554,2.091-2.444-0.604-3.209-1.509c-3.585-4.242-3.529-4.279-6.933,0.176c-1.528,2.001-3.086,3.979-5.548,7.147
		c0-6.704-0.038-12.091,0.023-17.481c0.019-1.659,1.359-1.73,2.605-1.73c7.489-0.004,14.981,0.026,22.47-0.023
		c1.858-0.011,2.718,0.623,2.688,2.598c-0.079,5.195-0.026,10.39-0.026,15.586C76.446,45.081,76.085,45.231,75.721,45.385z"/>
	<path fill="#4B7E7F" d="M-1.895-22.238c-1.119-1.355-2.166-2.778-3.363-4.058c-4.294-4.587-4.313-4.568-8.776-0.739
		c-0.334-0.293-0.717-0.544-0.998-0.886c-4.756-5.788-4.752-5.792-9.152,0.064c-1.224,1.633-2.459,3.255-4.489,5.938
		c0-6.486,0.064-11.655-0.03-16.824c-0.038-2.068,0.938-2.504,2.74-2.489c7.504,0.053,15.011,0.098,22.515-0.023
		c2.35-0.038,2.695,1.025,2.661,2.988c-0.09,5.098-0.03,10.199-0.03,15.3C-1.178-22.723-1.535-22.479-1.895-22.238z"/>
	<path fill="#4B7E7F" d="M75.68-22.37c-1.021-1.242-1.982-2.541-3.071-3.724c-4.407-4.79-4.418-4.779-9.062-0.965
		c-5.661-6.505-5.657-6.505-11.134,0.638c-0.8,1.044-1.637,2.065-3.352,4.223c0-6.674-0.041-12.083,0.023-17.489
		c0.023-1.794,1.528-1.513,2.676-1.517c7.477-0.019,14.951,0.034,22.429-0.038c1.892-0.019,2.68,0.578,2.646,2.553
		c-0.09,5.225-0.03,10.45-0.03,15.676C76.431-22.794,76.055-22.584,75.68-22.37z"/>
	<path fill="#4B7E7F" d="M-1.786,11.744c-1.242-1.43-2.455-2.887-3.731-4.283c-3.998-4.373-4.009-4.366-8.416-0.432
		c-6.044-6.303-6.036-6.303-11.565,0.938c-0.717,0.938-1.505,1.824-3.123,3.773c0-6.52-0.045-11.899,0.026-17.282
		c0.023-1.761,1.513-1.55,2.669-1.554c7.485-0.019,14.97,0.06,22.451-0.053c2.297-0.034,2.721,0.998,2.688,2.977
		c-0.09,5.083-0.03,10.169-0.03,15.255C-1.14,11.309-1.463,11.527-1.786,11.744z"/>
	<path fill="#4B7E7F" d="M49.017,10.847c0-5.405,0.011-10.574-0.008-15.739c-0.004-1.456,0.589-2.215,2.121-2.211
		c7.797,0.019,15.589,0.049,23.386-0.019c2.218-0.019,2.312,1.288,2.301,2.917c-0.03,5.086-0.011,10.173-0.011,15.788
		c-3.003-1.719-4.568-4.276-6.565-6.321c-1.517-1.554-2.887-2.294-4.336-0.191c-1.911,2.774-3.029,1.453-4.497-0.492
		c-3.303-4.373-3.378-4.313-6.67-0.004c-1.456,1.903-2.909,3.81-4.396,5.694C50.196,10.461,49.847,10.498,49.017,10.847z"/>
	<path fill="#7F7F81" d="M-72.499-40.328c10.338,0,20.676-0.023,31.01,0.026c1.34,0.008,3.303-0.661,3.39,1.738
		c0.09,2.455-1.877,1.873-3.236,1.873c-20.822,0.03-41.648,0.034-62.47-0.008c-1.306-0.004-3.337,0.736-3.36-1.712
		c-0.026-2.793,2.252-1.866,3.652-1.877C-93.175-40.361-82.837-40.328-72.499-40.328z"/>
	<path fill="#7F7F81" d="M-72.341-31.409c10.203,0,20.405-0.03,30.608,0.038c1.314,0.008,3.423-0.807,3.581,1.494
		c0.173,2.556-2.012,2.117-3.577,2.117c-20.706,0.023-41.411,0.026-62.117-0.011c-1.348-0.004-3.322,0.616-3.322-1.813
		c0-2.436,1.986-1.791,3.322-1.794C-93.347-31.431-82.844-31.409-72.341-31.409z"/>
	<path fill="#7F7F81" d="M-84.215-18.856c-6.445,0-12.89,0.038-19.336-0.026c-1.49-0.015-3.604,0.679-3.694-1.967
		c-0.09-2.661,1.978-2.14,3.517-2.143c13.337-0.03,26.678-0.038,40.015,0.008c1.655,0.004,4.073-0.653,3.99,2.185
		c-0.071,2.459-2.279,1.911-3.814,1.922C-70.427-18.826-77.323-18.856-84.215-18.856z"/>
	<path fill="#7F7F81" d="M152.283,10.918c-6.757,0-13.51,0.008-20.266-0.008c-1.468-0.004-3.164,0.285-3.183-2.053
		c-0.019-2.324,1.648-2.098,3.138-2.098c13.66-0.008,27.32-0.019,40.98,0.011c1.592,0.004,3.645-0.304,3.487,2.267
		c-0.135,2.215-2.016,1.858-3.442,1.866C166.093,10.941,159.186,10.918,152.283,10.918z"/>
	<path fill="#7F7F81" d="M-68.903,32.724c-8.243,0-16.49,0.045-24.733-0.041c-1.396-0.015-3.705,0.942-3.641-1.873
		c0.056-2.429,2.106-1.663,3.405-1.667c16.941-0.049,33.878-0.045,50.818-0.011c1.355,0.004,3.337-0.582,3.213,1.888
		c-0.12,2.421-2.113,1.663-3.427,1.674C-51.816,32.754-60.359,32.724-68.903,32.724z"/>
	<path fill="#7F7F81" d="M-68.426,3.952c-8.393,0-16.787,0.045-25.176-0.041c-1.4-0.015-3.701,0.927-3.671-1.858
		c0.03-2.406,2.065-1.708,3.386-1.712c16.937-0.045,33.87-0.041,50.807-0.008c1.359,0.004,3.333-0.571,3.239,1.877
		c-0.094,2.406-2.08,1.7-3.408,1.712C-51.643,3.982-60.033,3.952-68.426,3.952z"/>
	<path fill="#7F7F81" d="M99.118,26.56c5.394,0,10.788-0.011,16.182,0.008c1.49,0.004,3.251-0.176,3.333,2.001
		c0.083,2.162-1.573,2.2-3.134,2.2c-11.089,0-22.177,0-33.266,0c-1.554,0-3.123,0.049-3.026-2.226
		c0.101-2.327,1.839-1.959,3.273-1.967C88.03,26.542,93.574,26.56,99.118,26.56z"/>
	<path fill="#7F7F81" d="M98.657,1.354c5.39,0,10.777-0.03,16.167,0.019c1.547,0.015,3.679-0.518,3.795,1.952
		c0.116,2.5-1.959,2.181-3.562,2.185C104.28,5.532,93.499,5.536,82.722,5.506c-1.55-0.004-3.604,0.48-3.491-2.173
		c0.113-2.643,2.222-1.929,3.709-1.948C88.176,1.309,93.417,1.354,98.657,1.354z"/>
	<path fill="#7F7F81" d="M21.168,5.521c-5.537,0-11.074,0.008-16.61-0.004c-1.505-0.004-3.255,0.139-3.3-2.027
		C1.213,1.331,2.914,1.358,4.453,1.358c11.074-0.004,22.147,0,33.217,0c1.562,0,3.112-0.004,3.003,2.252
		c-0.098,1.986-1.535,1.899-2.898,1.903C32.242,5.524,26.705,5.521,21.168,5.521z"/>
	<path fill="#7F7F81" d="M20.793,30.765c-5.379,0-10.762,0-16.141,0c-1.562,0-3.116-0.011-3.022-2.248
		c0.083-1.941,1.483-1.952,2.868-1.952c11.059-0.004,22.121-0.004,33.179-0.004c1.565,0,3.112,0.004,2.995,2.252
		c-0.12,2.316-1.866,1.933-3.292,1.941C31.851,30.787,26.322,30.768,20.793,30.765z"/>
	<path fill="#7F7F81" d="M-73.858,9.214c6.896,0,13.795-0.034,20.691,0.03c1.314,0.011,3.386-0.702,3.251,1.802
		c-0.12,2.256-2.027,1.791-3.438,1.794c-13.495,0.026-26.989,0.034-40.484-0.015c-1.318-0.004-3.352,0.724-3.435-1.663
		c-0.098-2.804,2.215-1.884,3.622-1.907C-87.056,9.162-80.457,9.214-73.858,9.214z"/>
	<path fill="#194C51" d="M-77.814,23.918c-5.544,0-11.089,0.034-16.633-0.026c-1.186-0.011-2.853,0.634-2.999-1.592
		c-0.158-2.384,1.46-2.132,2.965-2.132c11.239,0.004,22.474-0.004,33.712,0.008c1.46,0,3.161-0.349,3.022,2.083
		c-0.128,2.215-1.791,1.622-2.988,1.637C-66.429,23.948-72.124,23.918-77.814,23.918z"/>
	<path fill="#7F7F81" d="M98.773-37.561c-5.526,0-11.051,0.023-16.577-0.015c-1.25-0.008-2.86,0.39-2.917-1.738
		c-0.056-2.113,1.486-1.884,2.793-1.888c11.201-0.019,22.402-0.019,33.604,0c1.291,0.004,2.879-0.304,2.939,1.764
		c0.06,2.083-1.486,1.869-2.812,1.873C110.124-37.554,104.449-37.561,98.773-37.561z"/>
	<path fill="#194C51" d="M-77.916-4.78c-5.394,0-10.788,0.045-16.179-0.034c-1.299-0.019-3.221,0.773-3.345-1.719
		c-0.12-2.402,1.607-2.053,3.063-2.057c11.235-0.008,22.474-0.011,33.709,0.008c1.276,0.004,2.827-0.364,2.92,1.761
		c0.113,2.481-1.693,2.016-3.089,2.027C-66.531-4.757-72.221-4.783-77.916-4.78z"/>
	<path fill="#7F7F81" d="M99.31-32.306c5.39,0,10.781-0.03,16.171,0.023c1.227,0.011,3.014-0.511,3.086,1.573
		c0.075,2.23-1.708,2.061-3.206,2.065c-11.081,0.008-22.162,0.011-33.239-0.008c-1.321-0.004-2.89,0.203-2.83-1.888
		c0.06-2.091,1.685-1.738,2.954-1.745C87.929-32.325,93.619-32.302,99.31-32.306z"/>
	<path fill="#7F7F81" d="M98.946,39.184c-5.541,0-11.081,0.023-16.618-0.019c-1.25-0.011-2.943,0.42-3.029-1.659
		c-0.098-2.402,1.779-1.967,3.183-1.971c10.931-0.03,21.858-0.023,32.789-0.008c1.464,0.004,3.333-0.252,3.277,1.978
		c-0.064,2.395-2.117,1.629-3.435,1.648C109.727,39.229,104.336,39.184,98.946,39.184z"/>
	<path fill="#7F7F81" d="M98.66-7.1c5.544,0,11.089-0.038,16.633,0.026c1.344,0.015,3.375-0.608,3.251,1.843
		c-0.113,2.233-2.004,1.817-3.427,1.821c-10.788,0.026-21.58,0.038-32.369-0.015c-1.329-0.008-3.345,0.687-3.431-1.685
		c-0.101-2.77,2.173-1.926,3.607-1.948C88.173-7.156,93.417-7.1,98.66-7.1z"/>
	<path fill="#7F7F81" d="M20.736-37.565c-5.379,0-10.758,0.023-16.134-0.015c-1.265-0.008-2.879,0.342-2.902-1.776
		c-0.023-2.098,1.558-1.843,2.849-1.847c11.055-0.023,22.11-0.023,33.168,0c1.276,0.004,2.857-0.312,2.887,1.794
		c0.03,2.136-1.558,1.821-2.838,1.828C32.092-37.546,26.416-37.565,20.736-37.565z"/>
	<path fill="#7F7F81" d="M21.194-28.646c-5.398,0-10.796,0.03-16.194-0.023c-1.385-0.015-3.307,0.495-3.273-1.899
		c0.026-2.065,1.719-1.719,2.988-1.723c10.946-0.03,21.892-0.03,32.838,0c1.25,0.004,2.95-0.417,3.033,1.663
		c0.098,2.406-1.794,1.952-3.198,1.963C31.99-28.62,26.592-28.646,21.194-28.646z"/>
	<path fill="#7F7F81" d="M21.506,35.521c5.398,0,10.796-0.019,16.194,0.011c1.303,0.008,2.905-0.255,2.898,1.832
		s-1.622,1.802-2.909,1.806c-11.096,0.023-22.188,0.019-33.284,0c-1.171-0.004-2.568,0.154-2.688-1.592
		C1.577,35.596,3,35.524,4.419,35.521C10.113,35.517,15.812,35.521,21.506,35.521z"/>
	<path fill="#7F7F81" d="M20.883-3.402c-5.402,0-10.807,0.019-16.209-0.015C3.383-3.425,1.769-3.128,1.716-5.196
		C1.66-7.272,3.248-7.085,4.565-7.085C15.673-7.103,26.776-7.1,37.884-7.092c1.378,0,2.875-0.049,2.718,2.012
		c-0.161,2.065-1.794,1.652-3.056,1.663C31.986-3.38,26.435-3.402,20.883-3.402z"/>
	<path fill="#4B7E7F" d="M75.248,47.863c-8.746,0-16.434,0-24.876,0c2.725-3.619,5.09-6.76,7.601-10.098
		c1.029,1.212,1.952,2.02,2.526,3.026c1.802,3.157,3.686,4.05,6.092,0.589c0.927-1.333,1.806-1.077,2.797,0.079
		C71.1,43.452,72.929,45.344,75.248,47.863z"/>
	<path fill="#4B7E7F" d="M-2.537,47.84c-8.423,0-16.145,0-24.193,0c1.37-3.416,3.983-5.886,6.04-8.701
		c1.524-2.087,2.248-0.053,2.898,0.852c2.005,2.8,3.81,5.893,7.031,1.126c0.619-0.92,1.456-0.766,2.215,0.086
		C-6.711,43.291-4.823,45.329-2.537,47.84z"/>
	<path fill="#4B7E7F" d="M58.139,3.67c1.265,1.648,2.256,2.767,3.052,4.009c1.419,2.218,2.834,2.984,4.636,0.398
		c1.355-1.944,2.65-1.933,4.152-0.008c1.37,1.753,3.007,3.3,4.989,5.443c-8.247,0-15.976,0-23.956,0
		C52.748,9.991,55.489,7.135,58.139,3.67z"/>
	<path fill="#4B7E7F" d="M-2.398,13.745c-8.637,0-16.336,0-24.835,0c2.74-3.637,5.105-6.779,7.624-10.128
		c1.152,1.483,2.057,2.492,2.789,3.611c1.547,2.354,3.086,3.742,5.255,0.589c1.104-1.603,2.264-1.584,3.574-0.038
		C-6.448,9.612-4.725,11.286-2.398,13.745z"/>
	<path fill="#4B7E7F" d="M-27.03-20.504c1.212-1.674,2.102-3.007,3.097-4.253c1.389-1.742,2.62-4.418,4.362-4.831
		c1.61-0.383,2.586,2.763,3.919,4.283c0.976,1.115,1.956,1.674,2.853,0.267c2.804-4.396,4.666-1.445,6.663,0.736
		c0.995,1.089,1.978,2.181,3.438,3.795C-11.009-20.504-18.719-20.504-27.03-20.504z"/>
	<path fill="#4B7E7F" d="M50.59-20.534c2.579-3.427,4.88-6.486,7.188-9.55c1.689,0.683,2.271,2.14,3.067,3.296
		c1.625,2.365,3.131,3.667,5.259,0.537c1.096-1.61,2.218-1.622,3.529-0.064c1.528,1.817,3.247,3.476,5.432,5.781
		C66.66-20.534,58.95-20.534,50.59-20.534z"/>
	<path fill="#7F7F81" d="M15.151-23.913c3.442,0,6.884-0.008,10.323,0.004c1.547,0.004,3.198,0.023,3.153,2.185
		c-0.038,1.866-1.52,1.974-2.913,1.974c-7.181,0.015-14.366,0.011-21.547,0.004c-1.411,0-2.868-0.109-2.92-1.967
		c-0.056-2.151,1.558-2.207,3.127-2.207C7.966-23.913,11.559-23.913,15.151-23.913z"/>
	<path fill="#7F7F81" d="M14.896,44.428c3.742-0.004,7.485-0.008,11.231,0c1.239,0,2.462,0.015,2.485,1.772
		c0.019,1.738-1.152,1.843-2.421,1.843c-7.339,0-14.673,0.004-22.012-0.008c-1.22-0.004-2.459-0.004-2.485-1.772
		c-0.03-1.772,1.179-1.824,2.425-1.828C7.707,44.421,11.3,44.428,14.896,44.428z"/>
	<path fill="#7F7F81" d="M15.455,10.269c3.442-0.004,6.884-0.019,10.323,0.004c1.329,0.008,2.868-0.191,2.83,1.884
		c-0.03,1.73-1.299,1.749-2.534,1.749c-7.331,0.004-14.662,0.004-21.993-0.008c-1.261-0.004-2.459-0.135-2.391-1.877
		c0.068-1.73,1.321-1.742,2.541-1.749C7.974,10.262,11.712,10.269,15.455,10.269z"/>
	<path fill="#4B7E7F" d="M-103.719-2.554c-2.519-0.488-4.294-1.727-4.328-4.407c-0.034-2.65,1.547-4.294,4.125-4.392
		c2.853-0.109,4.553,1.689,4.531,4.459C-99.41-4.284-101.275-2.989-103.719-2.554z"/>
	<path fill="#4B7E7F" d="M-103.715,26.114c-2.365-0.353-4.219-1.498-4.328-4.189c-0.105-2.609,1.299-4.343,3.953-4.52
		c2.883-0.188,4.632,1.532,4.7,4.276C-99.323,24.233-101.028,25.735-103.715,26.114z"/>
	<path fill="#FEFEFE" d="M153.154-8.74c0.236-0.601,0.477-1.205,0.713-1.806c0.349-0.308,0.702-0.616,1.051-0.927
		c0.86-0.236,1.261,0,0.965,0.946c-0.514,0.627-1.025,1.258-1.535,1.884C153.946-8.672,153.548-8.706,153.154-8.74z"/>
	<path fill="#194C51" d="M-66.85,75.096c-12.733,0-25.469,0.026-38.202-0.041c-1.393-0.007-3.574,0.957-3.634-1.892
		c-0.064-2.947,2.102-2.357,3.791-2.361c25.469-0.019,50.935-0.023,76.404,0.004c1.52,0,3.502-0.586,3.619,2.065
		c0.139,3.172-2.248,2.177-3.776,2.185C-41.384,75.123-54.117,75.096-66.85,75.096z"/>
	<path fill="#194C51" d="M169.201,75.108c-11.257,0-22.515,0.03-33.772-0.034c-1.415-0.008-3.555,0.893-3.596-1.956
		c-0.045-2.95,2.083-2.38,3.784-2.38c22.365-0.019,44.733-0.023,67.098,0.008c1.629,0.004,3.848-0.755,3.761,2.316
		c-0.09,3.206-2.489,1.982-3.949,1.993C191.416,75.153,180.308,75.108,169.201,75.108z"/>
	<path fill="#FED1DF" d="M-9.571,30.832c1.074,0.173,1.667,0.604,1.4,1.453c-0.139,0.435-0.747,1.032-1.122,1.021
		c-0.717-0.026-1.4-0.567-1.194-1.415C-10.378,31.444-9.823,31.106-9.571,30.832z"/>
	<path fill="#FED8E4" d="M69.483,31.943c-0.026,0.608-0.154,1.197-0.841,1.34c-0.938,0.195-1.43-0.458-1.411-1.205
		c0.011-0.394,0.642-0.972,1.1-1.104C68.92,30.806,69.415,31.23,69.483,31.943z"/>
	<path fill="#FED1DF" d="M-8.182-36.581c0.184,1.258-0.323,1.727-1.13,1.738c-0.556,0.008-1.141-0.274-1.212-0.98
		c-0.086-0.886,0.514-1.385,1.235-1.43C-8.873-37.28-8.419-36.735-8.182-36.581z"/>
	<path fill="#FED8E4" d="M69.494-35.962c-0.075,0.766-0.556,1.22-1.152,1.062c-0.458-0.12-1.092-0.698-1.115-1.1
		c-0.041-0.758,0.458-1.4,1.396-1.231C69.332-37.103,69.43-36.495,69.494-35.962z"/>
	<g>
		<path fill="#4B7E7F" d="M150.47-26.882c-0.815-0.995-1.584-2.031-2.451-2.973c-3.517-3.825-3.529-3.814-7.233-0.77
			c-4.52-5.195-4.516-5.191-8.889,0.511c-0.638,0.833-1.306,1.648-2.676,3.375c0-5.327-0.034-9.647,0.019-13.964
			c0.019-1.43,1.22-1.209,2.136-1.209c5.968-0.015,11.937,0.026,17.905-0.03c1.513-0.015,2.14,0.462,2.113,2.038
			c-0.071,4.17-0.023,8.345-0.023,12.515C151.067-27.22,150.77-27.051,150.47-26.882z"/>
		<path fill="#4B7E7F" d="M130.436-25.414c2.061-2.736,3.896-5.176,5.739-7.628c1.348,0.544,1.813,1.708,2.451,2.631
			c1.299,1.888,2.5,2.928,4.2,0.428c0.875-1.288,1.772-1.295,2.815-0.049c1.22,1.453,2.59,2.774,4.336,4.617
			C143.266-25.414,137.114-25.414,130.436-25.414z"/>
		<path fill="#FED8E4" d="M145.53-37.734c-0.06,0.612-0.443,0.972-0.92,0.848c-0.364-0.098-0.871-0.556-0.89-0.878
			c-0.034-0.604,0.364-1.115,1.115-0.983C145.402-38.646,145.477-38.158,145.53-37.734z"/>
	</g>
	<g>
		<path fill="#4B7E7F" d="M175.522-26.882c-0.815-0.995-1.584-2.031-2.451-2.973c-3.517-3.825-3.529-3.814-7.233-0.77
			c-4.52-5.195-4.516-5.191-8.889,0.511c-0.638,0.833-1.306,1.648-2.676,3.375c0-5.327-0.034-9.647,0.019-13.964
			c0.019-1.43,1.22-1.209,2.136-1.209c5.968-0.015,11.937,0.026,17.905-0.03c1.513-0.015,2.14,0.462,2.113,2.038
			c-0.071,4.17-0.023,8.345-0.023,12.515C176.123-27.22,175.823-27.051,175.522-26.882z"/>
		<path fill="#4B7E7F" d="M155.492-25.414c2.061-2.736,3.896-5.176,5.739-7.628c1.348,0.544,1.813,1.708,2.451,2.631
			c1.299,1.888,2.5,2.928,4.2,0.428c0.875-1.288,1.772-1.295,2.815-0.049c1.22,1.453,2.59,2.774,4.336,4.617
			C168.323-25.414,162.166-25.414,155.492-25.414z"/>
		<path fill="#FED8E4" d="M170.586-37.734c-0.06,0.612-0.443,0.972-0.92,0.848c-0.364-0.098-0.871-0.556-0.89-0.878
			c-0.034-0.604,0.364-1.115,1.115-0.983C170.458-38.646,170.533-38.158,170.586-37.734z"/>
	</g>
	<g>
		<path fill="#4B7E7F" d="M200.274-26.882c-0.815-0.995-1.584-2.031-2.451-2.973c-3.517-3.825-3.529-3.814-7.233-0.77
			c-4.52-5.195-4.516-5.191-8.889,0.511c-0.638,0.833-1.306,1.648-2.676,3.375c0-5.327-0.034-9.647,0.019-13.964
			c0.019-1.43,1.22-1.209,2.136-1.209c5.968-0.015,11.937,0.026,17.905-0.03c1.513-0.015,2.14,0.462,2.113,2.038
			c-0.071,4.17-0.023,8.345-0.023,12.515C200.875-27.22,200.575-27.051,200.274-26.882z"/>
		<path fill="#4B7E7F" d="M180.241-25.414c2.061-2.736,3.896-5.176,5.739-7.628c1.348,0.544,1.813,1.708,2.451,2.631
			c1.299,1.888,2.5,2.928,4.2,0.428c0.875-1.288,1.772-1.295,2.815-0.049c1.22,1.453,2.59,2.774,4.336,4.617
			C193.075-25.414,186.919-25.414,180.241-25.414z"/>
		<path fill="#FED8E4" d="M195.338-37.734c-0.06,0.612-0.443,0.972-0.92,0.848c-0.364-0.098-0.871-0.556-0.89-0.878
			c-0.034-0.604,0.364-1.115,1.115-0.983C195.207-38.646,195.286-38.158,195.338-37.734z"/>
	</g>
	<g>
		<path fill="#4B7E7F" d="M200.274-7.407c-0.815-0.995-1.584-2.031-2.451-2.973c-3.517-3.825-3.529-3.814-7.233-0.77
			c-4.52-5.195-4.516-5.191-8.889,0.511c-0.638,0.833-1.306,1.648-2.676,3.375c0-5.327-0.034-9.647,0.019-13.964
			c0.019-1.43,1.22-1.209,2.136-1.209c5.968-0.015,11.937,0.026,17.905-0.03c1.513-0.015,2.14,0.462,2.113,2.038
			c-0.071,4.17-0.023,8.345-0.023,12.515C200.875-7.749,200.575-7.58,200.274-7.407z"/>
		<path fill="#4B7E7F" d="M180.241-5.943c2.061-2.736,3.896-5.176,5.739-7.628c1.348,0.544,1.813,1.708,2.451,2.631
			c1.299,1.888,2.5,2.928,4.2,0.428c0.875-1.288,1.772-1.295,2.815-0.049c1.22,1.453,2.59,2.774,4.336,4.617
			C193.075-5.943,186.919-5.943,180.241-5.943z"/>
		<path fill="#FED8E4" d="M195.338-18.263c-0.06,0.612-0.443,0.972-0.92,0.848c-0.364-0.098-0.871-0.556-0.89-0.878
			c-0.034-0.604,0.364-1.115,1.115-0.983C195.207-19.175,195.286-18.687,195.338-18.263z"/>
	</g>
	<g>
		<path fill="#4B7E7F" d="M175.432-7.407c-0.815-0.995-1.584-2.031-2.451-2.973c-3.517-3.825-3.529-3.814-7.233-0.77
			c-4.52-5.195-4.516-5.191-8.889,0.511c-0.638,0.833-1.306,1.648-2.676,3.375c0-5.327-0.034-9.647,0.019-13.964
			c0.019-1.43,1.22-1.209,2.136-1.209c5.968-0.015,11.937,0.026,17.905-0.03c1.513-0.015,2.14,0.462,2.113,2.038
			c-0.071,4.17-0.023,8.345-0.023,12.515C176.033-7.749,175.732-7.58,175.432-7.407z"/>
		<path fill="#4B7E7F" d="M155.398-5.943c2.061-2.736,3.896-5.176,5.739-7.628c1.348,0.544,1.813,1.708,2.451,2.631
			c1.299,1.888,2.5,2.928,4.2,0.428c0.875-1.288,1.772-1.295,2.815-0.049c1.22,1.453,2.59,2.774,4.336,4.617
			C168.229-5.943,162.076-5.943,155.398-5.943z"/>
		<path fill="#FED8E4" d="M170.492-18.263c-0.06,0.612-0.443,0.972-0.92,0.848c-0.364-0.098-0.871-0.556-0.89-0.878
			c-0.034-0.604,0.364-1.115,1.115-0.983C170.365-19.175,170.443-18.687,170.492-18.263z"/>
	</g>
	<g>
		<path fill="#4B7E7F" d="M150.849-7.471c-0.811-0.991-1.577-2.02-2.44-2.962c-3.502-3.81-3.513-3.799-7.203-0.766
			c-4.501-5.173-4.497-5.173-8.851,0.507c-0.638,0.83-1.299,1.64-2.665,3.36c0-5.308-0.034-9.606,0.019-13.908
			c0.019-1.426,1.216-1.201,2.128-1.205c5.946-0.015,11.888,0.026,17.834-0.03c1.505-0.015,2.128,0.458,2.102,2.031
			c-0.071,4.152-0.023,8.311-0.023,12.462C151.446-7.809,151.149-7.64,150.849-7.471z"/>
		<path fill="#4B7E7F" d="M130.901-6.011c2.053-2.725,3.881-5.158,5.717-7.594c1.34,0.541,1.806,1.7,2.44,2.62
			c1.295,1.881,2.489,2.917,4.182,0.428c0.871-1.28,1.764-1.291,2.804-0.049c1.212,1.445,2.583,2.763,4.317,4.595
			C143.679-6.011,137.549-6.011,130.901-6.011z"/>
		<path fill="#FED8E4" d="M145.931-18.278c-0.06,0.608-0.439,0.968-0.916,0.845c-0.364-0.098-0.867-0.556-0.886-0.875
			c-0.034-0.604,0.364-1.111,1.107-0.98C145.804-19.187,145.883-18.702,145.931-18.278z"/>
	</g>
	<path fill="#FEDDE7" d="M-9.62-0.718c-0.248-0.323-0.867-0.77-0.86-1.205c0.011-0.766,0.541-1.393,1.483-1.205
		c0.698,0.139,0.923,0.702,0.867,1.336C-8.19-1.09-8.685-0.804-9.62-0.718z"/>
	<path fill="#FEDFE8" d="M68.109-3.244c1.224,0.206,1.381,0.803,1.37,1.385c-0.015,0.638-0.428,1.182-1.1,1.107
		c-0.8-0.09-1.348-0.623-1.1-1.517C67.441-2.865,67.842-3.316,68.109-3.244z"/>
	<path fill="#194C51" d="M-61.099-62.426c-0.011,3.795-2.083,6.051-5.541,6.032c-3.412-0.019-5.541-2.38-5.507-6.107
		c0.034-3.75,2.185-6.081,5.578-6.047C-63.141-68.515-61.088-66.217-61.099-62.426z"/>
	<path fill="#194C51" d="M-96.643-62.441c0-3.881,1.967-6.111,5.398-6.115c3.442-0.004,5.465,2.237,5.477,6.066
		c0.011,3.851-1.982,6.092-5.42,6.096C-94.669-56.386-96.643-58.578-96.643-62.441z"/>
	<path fill="#194C51" d="M-78.017-56.405c-2.954,0.038-4.85-0.863-5.702-3.191c-0.935-2.545-0.938-5.086,0.931-7.297
		c1.625-1.922,3.803-1.828,6.006-1.434c0.387,0.068,0.788,0.285,1.096,0.537c0.781,0.631,2.016,1.355,1.325,2.425
		c-0.698,1.085-1.637,0.503-2.511-0.372c-1.318-1.318-2.969-1.134-4.099,0.203c-1.49,1.761-1.333,3.893-0.233,5.8
		c0.837,1.449,2.312,1.625,3.825,1.059c0.664-0.248,1.4-0.552,1.306-1.486c-0.09-0.935-0.86-0.698-1.411-0.713
		c-0.755-0.019-1.152-0.289-1.107-1.089c0.053-0.89,0.736-0.983,1.318-0.852c1.224,0.278,3.172-1.021,3.525,1.164
		c0.304,1.877,0.578,4.073-2.106,4.764C-76.748-56.66-77.653-56.488-78.017-56.405z"/>
	<path fill="#194C51" d="M-105.855-62.546c0-1.438-0.008-2.879,0.004-4.317c0.008-0.709-0.083-1.453,1.025-1.479
		c1.149-0.026,1.366,0.593,1.351,1.55c-0.026,1.952,0.101,3.915-0.034,5.86c-0.128,1.828,0.383,2.736,2.365,2.44
		c0.702-0.105,1.438-0.023,2.155-0.004c0.683,0.019,1.19,0.225,1.141,1.074c-0.041,0.672-0.458,0.856-1.006,0.863
		c-1.952,0.019-3.908-0.004-5.86,0.026c-1.002,0.015-1.164-0.559-1.152-1.381C-105.836-59.461-105.855-61.003-105.855-62.546z"/>
	<path fill="#FEFEFE" d="M-63.509-62.629c-0.038,2.207-0.522,4.174-3.097,4.159c-2.541-0.015-3.131-2.001-3.119-4.099
		c0.008-1.986,0.616-3.806,2.995-3.896C-64.109-66.57-63.576-64.69-63.509-62.629z"/>
	<path fill="#FEFEFE" d="M-88.028-62.52c-0.236,2.027-0.582,4.11-3.209,4.065c-2.601-0.045-3.048-2.061-3.033-4.14
		c0.011-1.982,0.518-3.814,2.958-3.889C-88.648-66.566-88.276-64.551-88.028-62.52z"/>
	<g>
		
			<rect x="130.436" y="21.32" fill="none" stroke="#9FA0A8" stroke-width="0.5" stroke-miterlimit="10" width="53.528" height="11.002"/>
		<rect x="182.609" y="20.213" fill="#4B7E7F" width="15.548" height="13.138"/>
	</g>
	<g>
		<path fill="#C52275" d="M180.661,108.366c0.552-1.07,1.411-1.682,2.628-1.757c3.442-0.248,6.892-0.071,10.338-0.101
			c2.32-0.019,4.64-0.09,6.956,0.131c0.24,2.042,0.139,4.092,0.056,6.137c-0.507,0.439-1.081,0.353-1.659,0.203
			c-5.034-1.306-10.158-2.23-15.199-3.498C182.714,109.21,181.57,109.109,180.661,108.366z"/>
		<path fill="#B32074" d="M200.642,123.884c0,1.366,0,2.729,0,4.095c-1.603,0.387-3.074-0.319-4.568-0.631
			c-4.613-0.968-9.17-2.215-13.784-3.202c-0.781-0.169-1.659-0.229-2.237-0.931c-0.049-1.201-0.038-2.402-0.007-3.604
			c0.42-0.578,0.95-0.315,1.453-0.184c4.23,1.119,8.529,1.948,12.785,2.962C196.401,122.893,198.544,123.298,200.642,123.884z"/>
		<path fill="#C22275" d="M180.214,119.503c0,1.265,0,2.534,0.004,3.799c0.601,0.89,0.338,1.888,0.372,2.853
			c0.015,0.694,0.03,1.393-0.004,2.087c0.023,0.608,0.023,1.216,0,1.821c0.038,0.968,0.023,1.937-0.004,2.905
			c0.008,0.552,0.023,1.104-0.458,1.505c-0.255-0.454-0.15-0.953-0.15-1.43c-0.004-7.256-0.004-14.512,0.008-21.768
			c0-1.017-0.045-2.057,0.683-2.909c2.864,0.646,5.751,1.197,8.581,1.959c3.345,0.897,6.813,1.227,10.101,2.357
			c0.398,0.135,0.863,0.071,1.295,0.098c0,0.976,0,1.948,0,2.924c-0.766,0.619-1.562,0.263-2.361,0.09
			c-5.218-1.13-10.375-2.523-15.616-3.54c-2.068-0.402-2.072-0.368-2.083,1.806c0.023,0.856,0.034,1.712,0.007,2.568
			C180.56,117.596,180.819,118.606,180.214,119.503z"/>
		<path fill="#B82174" d="M180.214,119.503c0-0.976,0-1.952,0-2.924c0.503-0.462,1.081-0.334,1.655-0.214
			c5.038,1.07,10.038,2.294,15.022,3.589c1.25,0.327,2.658,0.098,3.75,1.01c0,0.976,0,1.948,0,2.924
			c-3.757-0.071-7.29-1.31-10.897-2.136C186.566,121.02,183.307,120.592,180.214,119.503z"/>
		<path fill="#BE2275" d="M180.211,113.966c-0.004-0.049-0.011-0.098-0.015-0.146c-0.09-2.451-0.105-2.372,2.331-1.982
			c5.015,0.803,9.857,2.369,14.846,3.277c1.089,0.199,2.113,0.758,3.27,0.582c0,0.976,0,1.948,0,2.924
			c-0.586,0.462-1.22,0.218-1.817,0.079c-5.762-1.329-11.569-2.455-17.286-3.975C181.025,114.589,180.47,114.541,180.211,113.966z"
			/>
		<path fill="#AF1F74" d="M180.214,126.226c0-0.972,0-1.948,0-2.92c3.007,0.683,6.014,1.359,9.017,2.046
			c3.803,0.871,7.605,1.753,11.408,2.631c0,0.878,0,1.753,0,2.631c-0.916,0.308-1.817,0.116-2.714-0.083
			c-4.67-1.029-9.268-2.391-13.994-3.172C182.654,127.142,181.378,126.857,180.214,126.226z"/>
		<path fill="#831971" d="M202.97,151.665c-0.634,0.327-1.329,0.27-2.004,0.27c-7.061,0.011-14.122,0.011-21.182,0
			c-0.672,0-1.37,0.079-2.001-0.263c0.586-0.597,1.348-0.48,2.061-0.48c3.784,0,7.571-0.06,11.355,0.045c1.599,0.011,3.206,0,4.82,0
			c-4.805-0.957-9.55-2.173-14.324-3.266c-3.645-0.833-7.316-1.558-10.938-2.492c-0.679-0.176-1.344-0.18-2.001,0.083
			c-0.544-0.608-0.856-1.34-1.115-2.098c0.383-0.751,1.014-0.582,1.648-0.469c3.442,0.616,6.772,1.727,10.199,2.384
			c5.773,1.104,11.434,2.691,17.188,3.885c1.618,0.334,3.209,0.777,4.824,1.122C202.159,150.528,203,150.644,202.97,151.665z"/>
		<path fill="#A81E73" d="M180.218,132.945c0-0.972,0-1.948,0-2.92c0.383-0.342,0.815-0.244,1.246-0.135
			c5.86,1.453,11.783,2.628,17.62,4.185c0.649,0.173,1.577,0.195,1.295,1.329c-0.492,0.92-0.935,1.884-2.083,2.17
			c-2.999-1.306-6.235-1.73-9.381-2.47C186.003,134.417,183.075,133.824,180.218,132.945z"/>
		<path fill="#7C1770" d="M191.562,151.646c-4.595,0.011-9.185,0.019-13.78,0.03c-3.427-0.465-6.1-2.185-8.187-4.891
			c0.21-1.115,1.077-0.754,1.7-0.661c1.918,0.282,3.769,0.908,5.676,1.273c4.14,0.792,8.161,2.132,12.339,2.77
			C190.211,150.303,191.254,150.483,191.562,151.646z"/>
		<path fill="#BB2175" d="M180.211,113.966c4.655,1.029,9.215,2.466,13.938,3.213c2.185,0.345,4.328,0.953,6.49,1.445
			c0,0.781,0,1.558,0,2.339c-3.611-0.345-7.038-1.528-10.559-2.301c-3.285-0.721-6.513-1.715-9.869-2.083
			C180.211,115.708,180.211,114.837,180.211,113.966z"/>
		<path fill="#CB2577" d="M213.803,106.632c0.293,2.147,0.323,4.294-0.019,6.438c-2.068,0.315-4.148,0.064-6.224,0.135
			c-0.526,0.019-0.646-0.289-0.642-0.743c0.007-1.745,0.007-3.491,0-5.233c0-0.465,0.146-0.747,0.661-0.728
			C209.651,106.571,211.735,106.331,213.803,106.632z"/>
		<path fill="#AD1F74" d="M180.214,126.226c2.83,0.544,5.694,0.968,8.487,1.67c2.616,0.657,5.252,1.216,7.875,1.828
			c1.351,0.315,2.71,0.593,4.065,0.89c0,0.679,0,1.363,0,2.042c-0.833,0.608-1.715,0.21-2.53,0.023
			c-5.484-1.28-10.976-2.526-16.483-3.72c-0.529-0.113-1.044-0.251-1.415-0.683C180.214,127.589,180.214,126.906,180.214,126.226z"
			/>
		<path fill="#A41E73" d="M180.218,132.945c0.713-0.315,1.336-0.071,2.061,0.131c2.256,0.642,4.568,1.089,6.854,1.629
			c2.812,0.664,5.612,1.37,8.431,2.005c0.544,0.124,0.762,0.338,0.728,0.86c-1.625,0.687-3.315,0.289-4.981,0.304
			c-0.131-0.06-0.27-0.12-0.417-0.105c-4.02,0.473-7.793-0.788-11.622-1.652c-0.36-0.083-0.623-0.244-0.83-0.537
			c-0.334-0.304-0.338-0.702-0.319-1.107C180.154,133.966,180.184,133.456,180.218,132.945z"/>
		<path fill="#871971" d="M202.97,151.665c-0.473-0.942-1.464-0.901-2.267-1.089c-6.194-1.453-12.402-2.842-18.604-4.264
			c-4.407-1.01-8.81-2.035-13.213-3.067c-0.465-0.109-0.86-0.008-1.25,0.218c-0.195-0.458-0.443-0.901-0.364-1.426
			c0.053-0.056,0.105-0.116,0.154-0.173c0.661-0.353,1.321-0.116,1.967,0.03c1.918,0.428,3.818,0.957,5.754,1.299
			c0.443,0.079,0.811,0.285,1.141,0.571c1.194,1.126,2.729,1.258,4.238,1.374c1.239,0.098,2.489,0.064,3.731,0.086
			c3.285,0.623,6.502,1.558,9.771,2.241c3.281,0.687,6.501,1.622,9.801,2.233c0.679,0.128,1.449,0.323,1.798,1.092
			C204.88,151.5,203.931,151.594,202.97,151.665z"/>
		<path fill="#AA1E73" d="M180.214,128.272c3.69,0.687,7.324,1.633,10.991,2.41c3.142,0.664,6.227,1.629,9.437,1.971
			c0.071,0.931,0.248,1.873-0.267,2.748c-0.008-0.661-0.552-0.77-1.002-0.867c-4.103-0.89-8.157-2.001-12.279-2.838
			c-2.301-0.465-4.617-0.999-6.881-1.674C180.214,129.439,180.214,128.857,180.214,128.272z"/>
		<path fill="#BF2375" d="M166.971,140.569c-0.33-0.638-0.218-1.333-0.218-2.004c-0.008-10.259,0.019-20.518-0.023-30.777
			c-0.004-1.194,0.293-1.505,1.483-1.306c3.585,0.608,5.432,2.849,5.522,6.877c-1.61-0.631-3.356-0.773-4.977-1.37
			c-0.95-0.349-1.351,0.038-1.344,1.006c0.008,0.965,0.011,1.929,0.011,2.894c0.045,1.209,0.038,2.417,0.011,3.626
			c0.038,1.344,0.041,2.691,0,4.035c0.03,1.074,0.041,2.151-0.004,3.224c0.019,1.066,0.045,2.132,0,3.198
			c0.023,0.965,0.034,1.929-0.004,2.894c0.011,0.604,0.03,1.212,0,1.817c0.019,0.691,0.026,1.378,0.008,2.068
			c-0.019,0.867,0.041,1.738-0.019,2.605C167.407,139.815,167.377,140.261,166.971,140.569z"/>
		<path fill="#801870" d="M191.562,151.646c-1.697-1.479-3.915-1.201-5.89-1.738c-2.042-0.559-4.069-1.201-6.145-1.569
			c-2.999-0.529-5.92-1.389-8.911-1.929c-0.379-0.068-0.788-0.038-1.021,0.379c-0.394-0.33-0.709-0.713-0.845-1.224
			c0.015-0.533,0.03-0.946,0.826-0.717c1.242,0.357,2.534,0.518,3.795,0.845c3.686,0.946,7.432,1.652,11.152,2.47
			c1.648,0.364,3.288,0.773,4.932,1.16c2.538,0.597,5.075,1.186,7.609,1.787c0.18,0.041,0.379,0.109,0.372,0.541
			C195.485,151.646,193.521,151.646,191.562,151.646z"/>
		<path fill="#B92175" d="M167.039,115.704c-0.007-1.111,0.023-2.226-0.03-3.337c-0.045-0.98,0.45-1.235,1.254-0.968
			c1.513,0.503,3.018,1.006,4.621,1.089c0.597,0.03,0.484,0.672,0.86,0.875c0.075,0.529,0.21,1.055,0.21,1.584
			c0.015,8.134,0.015,16.269,0.015,24.399c-0.706-0.146-0.526-0.747-0.623-1.209c-0.034-0.668-0.03-1.336-0.015-2.008
			c-0.007-0.597-0.034-1.194-0.004-1.787c-0.03-0.961-0.038-1.922-0.008-2.883c-0.038-1.156-0.038-2.312-0.004-3.468
			c-0.034-1.07-0.038-2.136,0-3.206c-0.026-1.216-0.038-2.432,0.008-3.645c-0.09-1.104,0.375-2.339-0.244-3.285
			c-0.634-0.965-1.989-0.514-2.965-0.923C169.092,116.511,167.895,116.53,167.039,115.704z"/>
		<path fill="#8A1A71" d="M205.631,150.791c-3.761-1.378-7.74-1.881-11.588-2.92c-2.376-0.642-4.805-1.092-7.17-1.776
			c-0.871-0.252-2.02,0.218-2.613-0.871c1.753,0,3.506,0,5.263,0c3.596,0.792,7.155,1.749,10.758,2.504
			c1.858,0.39,3.656,1.002,5.526,1.351c0.518,0.098,1.025,0.33,1.31,0.845C206.765,150.46,206.247,150.712,205.631,150.791z"/>
		<path fill="#A41E73" d="M213.833,139.706c-0.015,0.184-0.03,0.368-0.045,0.548c-0.353,0.469,0.011,1.062-0.27,1.543
			c-0.075,0.931-0.349,1.787-0.905,2.549c-1.554-1.952-3.803-1.836-5.957-1.989c-0.323-0.023-0.661,0.214-0.976-0.049
			c0.533-1.021,0.938-2.083,1.122-3.224c0.176-0.236,0.071-0.627,0.409-0.777c0.462-0.203,0.957-0.233,1.404-0.056
			c1.573,0.619,3.292,0.601,4.88,1.149C213.642,139.462,213.75,139.567,213.833,139.706z"/>
		<path fill="#911B72" d="M209.985,147.863c-0.375,0.586-0.811,1.115-1.471,1.404c-4.092-1.017-8.217-1.888-12.305-2.924
			c-0.822-0.21-1.873-0.053-2.301-1.119c2.395-0.011,4.79-0.023,7.185-0.034c2.977-0.086,5.739,0.845,8.498,1.783
			C209.974,147.104,210.286,147.375,209.985,147.863z"/>
		<path fill="#BC2376" d="M210.278,126.834c-0.972-0.135-2.519,0.537-3.281-0.252c-0.751-0.777-0.21-2.312-0.225-3.51
			c-0.038-3.007-0.011-3.007,3.029-3.007c1.07,0,2.14,0.038,3.206-0.011c0.773-0.038,1.014,0.263,0.991,1.014
			c-0.041,1.554-0.06,3.108,0.008,4.658c0.041,0.923-0.312,1.194-1.179,1.126C212.057,126.785,211.277,126.834,210.278,126.834z"/>
		<path fill="#8D1A71" d="M193.908,145.224c1.712,0.788,3.577,1.013,5.387,1.445c2.718,0.653,5.454,1.224,8.176,1.862
			c0.417,0.098,0.83,0.3,1.044,0.736c-0.556,0.026-0.77,0.777-1.396,0.657c-4.489-1.299-9.065-2.245-13.611-3.315
			c-1.34-0.315-2.827-0.45-3.986-1.385C190.984,145.224,192.444,145.224,193.908,145.224z"/>
		<path fill="#921B72" d="M173.717,138.208c0.068,0.383-0.101,0.818,0.248,1.137c0.131,0.593,0.259,1.186,0.39,1.779
			c-2.496-0.334-4.951-0.848-7.312-1.749c-0.004-0.875-0.004-1.749-0.008-2.624C169.317,136.996,171.558,137.401,173.717,138.208z"
			/>
		<path fill="#AC2175" d="M207.069,138.501c-0.086,0.191-0.176,0.383-0.263,0.578c-0.015-1.501,0.008-3.007-0.056-4.508
			c-0.034-0.803,0.308-0.987,1.029-0.972c1.745,0.038,3.495,0.015,5.24,0.011c0.522,0,1.002,0.023,0.968,0.736
			c-0.083,1.787,0.191,3.581-0.15,5.36l-0.083-0.06c-0.559-0.728-0.327-1.588-0.375-2.395c-0.038-0.627-0.146-1.164-0.886-1.299
			c-1.291-0.237-2.534-0.664-3.818-0.938c-1.089-0.233-1.246,0.191-1.224,1.107C207.474,136.924,207.654,137.784,207.069,138.501z"
			/>
		<path fill="#971C72" d="M209.985,147.863c-0.034-0.319-0.188-0.488-0.522-0.593c-2.748-0.871-5.567-1.445-8.375-2.08
			c0.998-0.413,2.001-0.826,3.003-1.239c1.956,0.533,3.93,0.991,5.878,1.543c0.544,0.154,1.479,0.12,1.182,1.194
			C210.868,147.183,210.59,147.683,209.985,147.863z"/>
		<path fill="#9F1D73" d="M205.68,142.303c1.989-0.807,3.818,0.023,5.709,0.484c0.968,0.236,1.336,0.627,1.224,1.558
			c-0.041,0.402-0.233,0.717-0.529,0.983c-1.46-0.631-3.022-0.882-4.568-1.186c-0.893-0.176-1.802-0.342-2.271-1.28
			C205.391,142.671,205.533,142.487,205.68,142.303z"/>
		<path fill="#9A1C72" d="M205.244,142.859c1.595,1.029,3.468,1.089,5.24,1.449c0.736,0.15,1.28,0.338,1.599,1.017
			c-0.176,0.548-0.488,0.998-0.931,1.363c-0.12-0.788-0.833-0.709-1.336-0.848c-1.52-0.428-3.052-0.811-4.595-1.156
			c-0.495-0.113-0.942-0.195-1.134-0.732C204.475,143.587,204.862,143.223,205.244,142.859z"/>
		<path fill="#8D1B72" d="M167.043,139.375c2.511,0.274,4.97,0.773,7.312,1.749c0.206,0.387,0.413,0.773,0.623,1.156
			c-0.567,0.45-1.194,0.259-1.787,0.113c-1.441-0.357-2.928-0.484-4.354-0.901c-0.638-0.188-1.122-0.068-1.494,0.484l-0.068,0.056
			c-0.33-0.443-0.293-0.957-0.297-1.464C166.997,140.171,167.02,139.773,167.043,139.375z"/>
		<path fill="#A11F74" d="M180.44,135.58c2.59,0.42,5.105,1.1,7.605,1.922c1.092,0.36,2.391,0.079,3.596,0.128
			c0.559,0.023,1.167-0.199,1.667,0.24c-3.183,0.019-6.366,0.09-9.546,0.034C182.215,137.878,181.014,137.123,180.44,135.58z"/>
		<path fill="#891A71" d="M167.339,141.981c-0.139-1.013,0.21-1.235,1.227-0.987c2.117,0.514,4.272,0.871,6.408,1.291
			c0.439,0.492,0.875,0.987,1.314,1.479C173.251,143.433,170.387,142.262,167.339,141.981z"/>
		<path fill="#C92979" d="M213.803,106.632c-1.839,0.004-3.682,0.049-5.522-0.007c-0.965-0.03-1.28,0.319-1.235,1.261
			c0.064,1.306,0.079,2.62-0.004,3.923c-0.068,1.077,0.405,1.306,1.366,1.276c1.791-0.056,3.585-0.015,5.375-0.015
			c-2.143,0.48-4.313,0.105-6.471,0.199c-0.548,0.023-0.556-0.42-0.556-0.822c0-1.745,0.004-3.491,0-5.236
			c0-0.417,0.038-0.826,0.586-0.796C209.497,106.526,211.667,106.113,213.803,106.632z"/>
		<path fill="#CA2879" d="M200.582,106.639c-5.766-0.011-11.528-0.023-17.294-0.03c0.327-0.064,0.649-0.184,0.976-0.184
			c5.176-0.011,10.357-0.011,15.533-0.004C200.076,106.418,200.391,106.331,200.582,106.639z"/>
		<path fill="#A81F74" d="M213.518,141.797c0.034-0.526-0.229-1.1,0.27-1.543C213.829,140.791,213.833,141.32,213.518,141.797z"/>
		<path fill="#B01F74" d="M173.717,120.963c0,1.265,0,2.534,0,3.799c-0.312,0.282-0.691,0.398-1.081,0.304
			c-1.877-0.454-3.806-0.691-5.597-1.471c0-1.363,0-2.729,0-4.092c0.191-0.169,0.432-0.293,0.668-0.229
			C169.711,119.83,171.825,120.006,173.717,120.963z"/>
		<path fill="#B52074" d="M173.717,120.963c-1.779-0.079-3.438-0.713-5.15-1.107c-0.511-0.116-1.017-0.236-1.528-0.353
			c0-1.265,0-2.534,0-3.799c1.948,0.319,3.765,1.194,5.762,1.31c0.646,0.038,1.002,0.443,0.95,1.19
			C173.683,119.116,173.724,120.044,173.717,120.963z"/>
		<path fill="#AB1F74" d="M167.039,123.595c1.738-0.124,3.311,0.631,4.962,0.95c0.574,0.113,1.134,0.229,1.715,0.218
			c0,1.074,0,2.143,0,3.217c-0.15,0.124-0.308,0.282-0.496,0.285c-2.181,0.03-4.276-0.315-6.182-1.453
			C167.039,125.738,167.039,124.665,167.039,123.595z"/>
		<path fill="#A71E73" d="M167.039,126.812c2.237,0.323,4.358,1.31,6.678,1.167c0,1.167,0,2.339,0,3.506
			c-0.233,0.203-0.514,0.3-0.8,0.225c-1.971-0.514-4.092-0.518-5.878-1.685C167.039,128.955,167.039,127.881,167.039,126.812z"/>
		<path fill="#A41D73" d="M167.039,130.025c2.226,0.488,4.452,0.976,6.678,1.46c0,0.972,0,1.948,0,2.92
			c-1.479,0.327-2.815-0.432-4.23-0.612c-0.818-0.105-1.727-0.293-2.447-0.848C167.039,131.973,167.039,130.997,167.039,130.025z"/>
		<path fill="#991C72" d="M173.717,138.208c-2.286-0.21-4.542-0.559-6.682-1.453c0-0.683,0-1.37,0.004-2.053
			c0.619-0.541,1.31-0.221,1.944-0.094c1.637,0.327,3.36,0.42,4.737,1.55C173.717,136.842,173.717,137.525,173.717,138.208z"/>
		<path fill="#9F1D73" d="M173.717,136.158c-2.196-0.627-4.388-1.276-6.678-1.456c0-0.586,0-1.171,0-1.753
			c2.267,0.304,4.489,0.807,6.678,1.46C173.717,134.991,173.717,135.573,173.717,136.158z"/>
		<path fill="#A81F74" d="M207.069,138.501c0-0.537-0.004-1.07-0.004-1.607c0-2.782,0.008-2.804,2.752-2.098
			c1.077,0.278,2.11,0.728,3.236,0.781c0.698,0.03,0.736,0.484,0.732,1.006c-0.015,1.021-0.019,2.042-0.03,3.063
			c-1.644-0.195-3.303-0.312-4.854-0.957C208.292,138.433,207.681,138.538,207.069,138.501z"/>
		<path fill="#B82275" d="M210.289,126.515c-0.049,0-0.098,0-0.146,0c-3.318,0-3.559-0.297-3.089-3.611
			c0.075-0.541,0.251-0.785,0.818-0.736c1.884,0.169,3.63,0.931,5.484,1.28c0.923,0.176,0.308,1.532,0.402,2.346
			c0.083,0.698-0.48,0.721-0.991,0.717C211.941,126.511,211.115,126.515,210.289,126.515z"/>
	</g>
</g>
</svg>
