<?xml version="1.0" encoding="utf-8"?>
<!-- Generator: Adobe Illustrator 17.0.0, SVG Export Plug-In . SVG Version: 6.00 Build 0)  -->
<!DOCTYPE svg PUBLIC "-//W3C//DTD SVG 1.1//EN" "http://www.w3.org/Graphics/SVG/1.1/DTD/svg11.dtd">
<svg version="1.1" id="Layer_1" xmlns="http://www.w3.org/2000/svg" xmlns:xlink="http://www.w3.org/1999/xlink" x="0px" y="0px"
	 width="418px" height="130.333px" viewBox="0 0 418 245.333" enable-background="new 0 0 418 245.333" xml:space="preserve">
<rect y="0.002" fill="#FFFFFF" width="418" height="245.33"/>
<g>
	<g>
		<path fill="#C52275" d="M346.068,179.051c0.551-1.069,1.41-1.68,2.625-1.755c3.439-0.248,6.886-0.071,10.328-0.101
			c2.318-0.019,4.635-0.09,6.949,0.131c0.24,2.04,0.139,4.088,0.056,6.132c-0.506,0.439-1.08,0.353-1.658,0.203
			c-5.029-1.305-10.148-2.228-15.185-3.495C348.12,179.895,346.976,179.794,346.068,179.051z"/>
		<path fill="#B32074" d="M366.031,194.555c0,1.365,0,2.727,0,4.092c-1.601,0.386-3.072-0.319-4.564-0.63
			c-4.609-0.968-9.162-2.213-13.771-3.199c-0.78-0.169-1.658-0.229-2.235-0.93c-0.049-1.2-0.038-2.4-0.007-3.6
			c0.42-0.578,0.949-0.315,1.451-0.184c4.227,1.118,8.521,1.946,12.774,2.959C361.794,193.565,363.935,193.97,366.031,194.555z"/>
		<path fill="#C22275" d="M345.622,190.179c0,1.264,0,2.531,0.004,3.795c0.6,0.889,0.338,1.886,0.371,2.85
			c0.015,0.694,0.03,1.391-0.004,2.085c0.022,0.608,0.022,1.215,0,1.819c0.038,0.968,0.022,1.935-0.004,2.903
			c0.007,0.551,0.022,1.103-0.458,1.504c-0.255-0.454-0.15-0.953-0.15-1.429c-0.004-7.249-0.004-14.499,0.007-21.748
			c0-1.016-0.045-2.055,0.683-2.907c2.862,0.645,5.746,1.196,8.573,1.958c3.342,0.896,6.807,1.226,10.092,2.355
			c0.398,0.135,0.863,0.071,1.294,0.098c0,0.975,0,1.946,0,2.922c-0.765,0.619-1.56,0.263-2.359,0.09
			c-5.213-1.129-10.366-2.52-15.602-3.537c-2.066-0.401-2.07-0.368-2.081,1.804c0.022,0.855,0.034,1.71,0.007,2.565
			C345.967,188.274,346.226,189.282,345.622,190.179z"/>
		<path fill="#B82174" d="M345.622,190.179c0-0.975,0-1.95,0-2.922c0.503-0.461,1.08-0.334,1.654-0.214
			c5.033,1.069,10.028,2.291,15.009,3.585c1.249,0.326,2.655,0.098,3.747,1.009c0,0.975,0,1.946,0,2.922
			c-3.754-0.071-7.283-1.309-10.887-2.134C351.968,191.694,348.712,191.266,345.622,190.179z"/>
		<path fill="#BE2275" d="M345.618,184.647c-0.004-0.049-0.011-0.098-0.015-0.146c-0.09-2.449-0.105-2.37,2.329-1.98
			c5.01,0.803,9.848,2.366,14.833,3.274c1.088,0.199,2.111,0.758,3.267,0.581c0,0.975,0,1.946,0,2.922
			c-0.585,0.461-1.219,0.218-1.815,0.079c-5.757-1.328-11.559-2.453-17.27-3.972C346.432,185.27,345.877,185.221,345.618,184.647z"
			/>
		<path fill="#AF1F74" d="M345.622,196.896c0-0.971,0-1.946,0-2.918c3.004,0.683,6.008,1.358,9.008,2.044
			c3.799,0.87,7.598,1.751,11.397,2.629c0,0.878,0,1.751,0,2.629c-0.915,0.308-1.815,0.116-2.712-0.083
			c-4.665-1.028-9.26-2.389-13.981-3.169C348.06,197.811,346.785,197.526,345.622,196.896z"/>
		<path fill="#831971" d="M368.357,222.312c-0.634,0.326-1.328,0.27-2.003,0.27c-7.054,0.011-14.109,0.011-21.163,0
			c-0.671,0-1.369,0.079-1.999-0.263c0.585-0.596,1.346-0.48,2.059-0.48c3.78,0,7.564-0.06,11.345,0.045
			c1.598,0.011,3.203,0,4.815,0c-4.8-0.956-9.541-2.171-14.311-3.263c-3.642-0.833-7.309-1.556-10.929-2.49
			c-0.679-0.176-1.343-0.18-1.999,0.083c-0.544-0.608-0.855-1.339-1.114-2.096c0.383-0.75,1.013-0.581,1.646-0.469
			c3.439,0.615,6.766,1.725,10.19,2.381c5.768,1.103,11.424,2.689,17.173,3.882c1.616,0.334,3.207,0.776,4.819,1.121
			C367.547,221.176,368.387,221.292,368.357,222.312z"/>
		<path fill="#A81E73" d="M345.626,203.609c0-0.971,0-1.946,0-2.918c0.383-0.341,0.814-0.244,1.245-0.135
			c5.854,1.451,11.772,2.625,17.604,4.182c0.649,0.173,1.575,0.195,1.294,1.328c-0.491,0.919-0.934,1.883-2.081,2.168
			c-2.997-1.305-6.229-1.729-9.372-2.468C351.405,205.079,348.48,204.486,345.626,203.609z"/>
		<path fill="#7C1770" d="M356.959,222.293c-4.59,0.011-9.177,0.019-13.768,0.03c-3.424-0.465-6.094-2.183-8.18-4.887
			c0.21-1.114,1.076-0.754,1.699-0.66c1.916,0.281,3.765,0.908,5.671,1.271c4.137,0.791,8.153,2.13,12.327,2.768
			C355.609,220.95,356.652,221.13,356.959,222.293z"/>
		<path fill="#BB2175" d="M345.618,184.647c4.65,1.028,9.207,2.464,13.925,3.21c2.183,0.345,4.324,0.953,6.484,1.444
			c0,0.78,0,1.556,0,2.336c-3.608-0.345-7.032-1.526-10.55-2.299c-3.282-0.72-6.507-1.714-9.86-2.081
			C345.618,186.387,345.618,185.517,345.618,184.647z"/>
		<path fill="#CB2577" d="M379.18,177.319c0.293,2.145,0.323,4.29-0.019,6.432c-2.066,0.315-4.144,0.064-6.218,0.135
			c-0.525,0.019-0.645-0.289-0.641-0.743c0.007-1.744,0.007-3.488,0-5.228c0-0.465,0.146-0.746,0.66-0.728
			C375.032,177.259,377.114,177.019,379.18,177.319z"/>
		<path fill="#AD1F74" d="M345.622,196.896c2.828,0.544,5.689,0.968,8.48,1.669c2.614,0.656,5.247,1.215,7.868,1.826
			c1.35,0.315,2.708,0.593,4.062,0.889c0,0.679,0,1.361,0,2.04c-0.833,0.608-1.714,0.21-2.528,0.022
			c-5.479-1.279-10.966-2.524-16.468-3.717c-0.529-0.113-1.043-0.251-1.414-0.683C345.622,198.257,345.622,197.574,345.622,196.896z
			"/>
		<path fill="#A41E73" d="M345.626,203.609c0.713-0.315,1.335-0.071,2.059,0.131c2.254,0.641,4.564,1.088,6.848,1.628
			c2.809,0.664,5.607,1.369,8.423,2.003c0.544,0.124,0.761,0.338,0.728,0.859c-1.624,0.686-3.312,0.289-4.977,0.304
			c-0.131-0.06-0.27-0.12-0.416-0.105c-4.017,0.473-7.786-0.788-11.611-1.65c-0.36-0.083-0.623-0.244-0.829-0.536
			c-0.334-0.304-0.338-0.701-0.319-1.106C345.562,204.629,345.592,204.119,345.626,203.609z"/>
		<path fill="#871971" d="M368.357,222.312c-0.473-0.941-1.463-0.9-2.265-1.088c-6.188-1.451-12.391-2.839-18.587-4.26
			c-4.403-1.009-8.802-2.033-13.201-3.064c-0.465-0.109-0.859-0.008-1.249,0.218c-0.195-0.458-0.443-0.9-0.364-1.425
			c0.053-0.056,0.105-0.116,0.154-0.173c0.66-0.353,1.32-0.116,1.965,0.03c1.916,0.428,3.814,0.956,5.749,1.298
			c0.443,0.079,0.81,0.285,1.14,0.57c1.193,1.125,2.727,1.256,4.234,1.373c1.238,0.098,2.487,0.064,3.728,0.086
			c3.282,0.623,6.496,1.556,9.762,2.239c3.278,0.686,6.496,1.62,9.792,2.231c0.679,0.128,1.448,0.323,1.796,1.091
			C370.266,222.147,369.317,222.241,368.357,222.312z"/>
		<path fill="#AA1E73" d="M345.622,198.94c3.687,0.686,7.317,1.631,10.981,2.408c3.139,0.664,6.222,1.628,9.428,1.969
			c0.071,0.93,0.248,1.871-0.266,2.745c-0.007-0.66-0.551-0.769-1.001-0.866c-4.099-0.889-8.15-1.999-12.267-2.835
			c-2.299-0.465-4.613-0.998-6.874-1.673C345.622,200.106,345.622,199.525,345.622,198.94z"/>
		<path fill="#BF2375" d="M332.391,211.226c-0.33-0.638-0.218-1.331-0.218-2.003c-0.008-10.25,0.019-20.499-0.022-30.749
			c-0.004-1.193,0.293-1.504,1.481-1.305c3.582,0.608,5.427,2.847,5.517,6.871c-1.609-0.63-3.353-0.773-4.973-1.369
			c-0.949-0.349-1.35,0.038-1.343,1.005c0.007,0.964,0.011,1.928,0.011,2.892c0.045,1.208,0.038,2.415,0.011,3.623
			c0.038,1.343,0.041,2.689,0,4.032c0.03,1.073,0.041,2.149-0.004,3.222c0.019,1.065,0.045,2.13,0,3.195
			c0.022,0.964,0.034,1.928-0.004,2.892c0.011,0.604,0.03,1.211,0,1.815c0.019,0.69,0.026,1.376,0.007,2.066
			c-0.019,0.866,0.041,1.736-0.019,2.603C332.826,210.472,332.796,210.918,332.391,211.226z"/>
		<path fill="#801870" d="M356.959,222.293c-1.695-1.478-3.912-1.2-5.884-1.736c-2.04-0.559-4.065-1.2-6.139-1.568
			c-2.997-0.529-5.914-1.388-8.903-1.928c-0.379-0.068-0.788-0.038-1.02,0.379c-0.394-0.33-0.709-0.713-0.844-1.223
			c0.015-0.533,0.03-0.945,0.825-0.716c1.241,0.356,2.531,0.518,3.792,0.844c3.683,0.945,7.426,1.65,11.142,2.468
			c1.646,0.364,3.285,0.773,4.928,1.159c2.535,0.596,5.07,1.185,7.602,1.785c0.18,0.041,0.379,0.109,0.371,0.54
			C360.878,222.293,358.917,222.293,356.959,222.293z"/>
		<path fill="#B92175" d="M332.458,186.383c-0.007-1.11,0.022-2.224-0.03-3.334c-0.045-0.979,0.45-1.234,1.253-0.968
			c1.511,0.503,3.015,1.005,4.617,1.088c0.596,0.03,0.484,0.671,0.859,0.874c0.075,0.529,0.21,1.054,0.21,1.583
			c0.015,8.127,0.015,16.254,0.015,24.377c-0.705-0.146-0.525-0.746-0.623-1.208c-0.034-0.668-0.03-1.335-0.015-2.006
			c-0.007-0.596-0.034-1.193-0.004-1.785c-0.03-0.96-0.038-1.92-0.008-2.88c-0.038-1.155-0.038-2.31-0.004-3.465
			c-0.034-1.069-0.038-2.134,0-3.203c-0.026-1.215-0.038-2.43,0.007-3.642c-0.09-1.103,0.375-2.336-0.244-3.282
			c-0.634-0.964-1.988-0.514-2.963-0.923C334.51,187.19,333.313,187.208,332.458,186.383z"/>
		<path fill="#8A1A71" d="M371.016,221.438c-3.758-1.376-7.733-1.879-11.577-2.918c-2.374-0.641-4.8-1.091-7.163-1.774
			c-0.87-0.251-2.018,0.218-2.61-0.87c1.751,0,3.503,0,5.258,0c3.593,0.791,7.148,1.748,10.749,2.501
			c1.856,0.39,3.653,1.001,5.521,1.35c0.518,0.098,1.024,0.33,1.309,0.844C372.148,221.108,371.631,221.359,371.016,221.438z"/>
		<path fill="#A41E73" d="M379.21,210.363c-0.015,0.184-0.03,0.368-0.045,0.548c-0.353,0.469,0.011,1.061-0.27,1.541
			c-0.075,0.93-0.349,1.785-0.904,2.546c-1.553-1.95-3.799-1.834-5.952-1.988c-0.323-0.022-0.66,0.214-0.975-0.049
			c0.533-1.02,0.938-2.081,1.121-3.222c0.176-0.236,0.071-0.626,0.409-0.776c0.461-0.203,0.956-0.233,1.403-0.056
			c1.571,0.619,3.289,0.6,4.875,1.148C379.019,210.119,379.128,210.224,379.21,210.363z"/>
		<path fill="#911B72" d="M375.366,218.513c-0.375,0.585-0.81,1.114-1.47,1.403c-4.088-1.016-8.21-1.886-12.294-2.922
			c-0.821-0.21-1.871-0.053-2.299-1.118c2.393-0.011,4.785-0.022,7.178-0.034c2.974-0.086,5.734,0.844,8.491,1.781
			C375.355,217.755,375.666,218.025,375.366,218.513z"/>
		<path fill="#BC2376" d="M375.659,197.503c-0.971-0.135-2.516,0.536-3.278-0.251c-0.75-0.776-0.21-2.31-0.225-3.507
			c-0.038-3.004-0.011-3.004,3.027-3.004c1.069,0,2.138,0.038,3.203-0.011c0.773-0.038,1.013,0.263,0.99,1.013
			c-0.041,1.553-0.06,3.105,0.007,4.654c0.041,0.923-0.311,1.193-1.178,1.125C377.436,197.454,376.656,197.503,375.659,197.503z"/>
		<path fill="#8D1A71" d="M359.303,215.876c1.71,0.788,3.574,1.013,5.382,1.444c2.715,0.653,5.449,1.223,8.168,1.86
			c0.416,0.098,0.829,0.3,1.043,0.735c-0.555,0.026-0.769,0.776-1.395,0.656c-4.485-1.298-9.057-2.243-13.599-3.312
			c-1.339-0.315-2.824-0.45-3.983-1.384C356.382,215.876,357.841,215.876,359.303,215.876z"/>
		<path fill="#921B72" d="M339.13,208.867c0.068,0.383-0.101,0.818,0.248,1.136c0.131,0.593,0.259,1.185,0.39,1.778
			c-2.494-0.334-4.947-0.848-7.306-1.748c-0.004-0.874-0.004-1.748-0.008-2.621C334.735,207.655,336.974,208.06,339.13,208.867z"/>
		<path fill="#AC2175" d="M372.452,209.159c-0.086,0.191-0.176,0.383-0.263,0.578c-0.015-1.5,0.007-3.004-0.056-4.504
			c-0.034-0.803,0.308-0.986,1.028-0.971c1.744,0.038,3.492,0.015,5.236,0.011c0.521,0,1.001,0.022,0.968,0.735
			c-0.083,1.785,0.191,3.578-0.15,5.356l-0.083-0.06c-0.559-0.728-0.326-1.586-0.375-2.393c-0.038-0.626-0.146-1.163-0.885-1.298
			c-1.29-0.236-2.532-0.664-3.814-0.938c-1.088-0.233-1.245,0.191-1.223,1.106C372.857,207.584,373.037,208.443,372.452,209.159z"/>
		<path fill="#971C72" d="M375.366,218.513c-0.034-0.319-0.188-0.488-0.521-0.593c-2.745-0.87-5.562-1.444-8.367-2.078
			c0.998-0.413,1.999-0.825,3-1.238c1.954,0.533,3.927,0.99,5.873,1.541c0.544,0.154,1.478,0.12,1.181,1.193
			C376.247,217.834,375.97,218.333,375.366,218.513z"/>
		<path fill="#9F1D73" d="M371.064,212.958c1.988-0.806,3.814,0.022,5.704,0.484c0.968,0.236,1.335,0.626,1.223,1.556
			c-0.041,0.401-0.232,0.716-0.529,0.983c-1.459-0.63-3.019-0.881-4.564-1.185c-0.893-0.176-1.8-0.341-2.269-1.279
			C370.776,213.326,370.918,213.142,371.064,212.958z"/>
		<path fill="#9A1C72" d="M370.629,213.514c1.594,1.028,3.465,1.088,5.236,1.448c0.735,0.15,1.279,0.338,1.598,1.016
			c-0.176,0.548-0.488,0.998-0.93,1.361c-0.12-0.788-0.833-0.709-1.335-0.848c-1.519-0.428-3.049-0.81-4.59-1.155
			c-0.495-0.113-0.941-0.195-1.133-0.731C369.861,214.241,370.247,213.877,370.629,213.514z"/>
		<path fill="#8D1B72" d="M332.462,210.033c2.509,0.274,4.965,0.773,7.306,1.748c0.206,0.386,0.413,0.773,0.623,1.155
			c-0.566,0.45-1.193,0.259-1.785,0.113c-1.44-0.356-2.925-0.484-4.35-0.9c-0.638-0.188-1.121-0.068-1.493,0.484l-0.067,0.056
			c-0.33-0.443-0.293-0.956-0.296-1.463C332.417,210.828,332.439,210.431,332.462,210.033z"/>
		<path fill="#A11F74" d="M345.847,206.242c2.588,0.42,5.1,1.099,7.598,1.92c1.091,0.36,2.389,0.079,3.593,0.128
			c0.559,0.022,1.166-0.199,1.665,0.24c-3.18,0.019-6.361,0.09-9.537,0.034C347.621,208.537,346.421,207.783,345.847,206.242z"/>
		<path fill="#891A71" d="M332.758,212.636c-0.139-1.013,0.21-1.234,1.226-0.986c2.115,0.514,4.268,0.87,6.402,1.29
			c0.439,0.491,0.874,0.986,1.313,1.478C338.665,214.087,335.804,212.917,332.758,212.636z"/>
		<path fill="#C92979" d="M379.18,177.319c-1.838,0.004-3.679,0.049-5.517-0.007c-0.964-0.03-1.279,0.319-1.234,1.26
			c0.064,1.305,0.079,2.618-0.004,3.919c-0.067,1.076,0.405,1.305,1.365,1.275c1.789-0.056,3.582-0.015,5.371-0.015
			c-2.141,0.48-4.309,0.105-6.466,0.199c-0.548,0.022-0.555-0.42-0.555-0.821c0-1.744,0.004-3.488,0-5.232
			c0-0.416,0.038-0.825,0.585-0.795C374.879,177.214,377.046,176.801,379.18,177.319z"/>
		<path fill="#CA2879" d="M365.971,177.326c-5.761-0.011-11.517-0.022-17.278-0.03c0.326-0.064,0.649-0.184,0.975-0.184
			c5.172-0.011,10.347-0.011,15.519-0.004C365.465,177.105,365.78,177.019,365.971,177.326z"/>
		<path fill="#A81F74" d="M378.895,212.452c0.034-0.525-0.229-1.099,0.27-1.541C379.206,211.447,379.21,211.976,378.895,212.452z"/>
		<path fill="#B01F74" d="M339.13,191.638c0,1.264,0,2.531,0,3.795c-0.311,0.281-0.69,0.398-1.08,0.304
			c-1.875-0.454-3.803-0.69-5.592-1.47c0-1.361,0-2.727,0-4.088c0.191-0.169,0.431-0.293,0.668-0.229
			C335.128,190.505,337.24,190.681,339.13,191.638z"/>
		<path fill="#B52074" d="M339.13,191.638c-1.778-0.079-3.435-0.713-5.145-1.106c-0.51-0.116-1.016-0.236-1.526-0.353
			c0-1.264,0-2.532,0-3.795c1.946,0.319,3.762,1.193,5.757,1.309c0.645,0.038,1.001,0.443,0.949,1.189
			C339.096,189.793,339.138,190.719,339.13,191.638z"/>
		<path fill="#AB1F74" d="M332.458,194.267c1.736-0.124,3.308,0.63,4.958,0.949c0.574,0.113,1.133,0.229,1.714,0.218
			c0,1.073,0,2.141,0,3.214c-0.15,0.124-0.308,0.281-0.495,0.285c-2.179,0.03-4.272-0.315-6.177-1.451
			C332.458,196.408,332.458,195.336,332.458,194.267z"/>
		<path fill="#A71E73" d="M332.458,197.481c2.235,0.323,4.354,1.309,6.672,1.166c0,1.166,0,2.336,0,3.503
			c-0.233,0.203-0.514,0.3-0.799,0.225c-1.969-0.514-4.088-0.518-5.873-1.684C332.458,199.622,332.458,198.55,332.458,197.481z"/>
		<path fill="#A41D73" d="M332.458,200.691c2.224,0.488,4.448,0.975,6.672,1.459c0,0.971,0,1.946,0,2.918
			c-1.478,0.326-2.813-0.431-4.227-0.611c-0.818-0.105-1.725-0.293-2.445-0.848C332.458,202.637,332.458,201.662,332.458,200.691z"
			/>
		<path fill="#991C72" d="M339.13,208.867c-2.284-0.21-4.538-0.559-6.676-1.451c0-0.683,0-1.369,0.004-2.051
			c0.619-0.54,1.309-0.221,1.943-0.094c1.635,0.326,3.357,0.42,4.733,1.549C339.13,207.502,339.13,208.184,339.13,208.867z"/>
		<path fill="#9F1D73" d="M339.13,206.819c-2.194-0.626-4.384-1.275-6.672-1.455c0-0.585,0-1.17,0-1.751
			c2.265,0.304,4.485,0.806,6.672,1.459C339.13,205.653,339.13,206.234,339.13,206.819z"/>
		<path fill="#A81F74" d="M372.452,209.159c0-0.536-0.004-1.069-0.004-1.605c0-2.779,0.007-2.802,2.749-2.096
			c1.076,0.278,2.108,0.728,3.233,0.78c0.698,0.03,0.735,0.484,0.731,1.005c-0.015,1.02-0.019,2.04-0.03,3.06
			c-1.643-0.195-3.3-0.311-4.849-0.956C373.675,209.092,373.063,209.197,372.452,209.159z"/>
		<path fill="#B82275" d="M375.67,197.184c-0.049,0-0.098,0-0.146,0c-3.315,0-3.555-0.296-3.087-3.608
			c0.075-0.54,0.251-0.784,0.818-0.735c1.883,0.169,3.627,0.93,5.479,1.279c0.923,0.176,0.308,1.53,0.401,2.344
			c0.083,0.698-0.48,0.72-0.99,0.716C377.32,197.181,376.495,197.184,375.67,197.184z"/>
	</g>
	<g>
		<path fill="#4B7E7F" d="M162.67,112.366c-0.049-8.142,5.992-14.291,14.046-14.297c8.075-0.007,14.123,6.113,14.089,14.255
			c-0.032,7.788-6.067,14.013-13.808,14.242C169.226,126.797,162.718,120.347,162.67,112.366z"/>
		<path fill="#4B7E7F" d="M278.009,126.157c-7.878-0.099-13.774-6.159-13.706-14.087c0.066-7.759,6.278-13.956,13.983-13.952
			c7.79,0.004,14.31,6.699,14.077,14.453C292.132,120.273,285.812,126.255,278.009,126.157z"/>
		<path fill="#4B7E7F" d="M142.91,126.168c-7.89,0.007-13.913-5.969-13.955-13.849c-0.042-7.795,6.019-14.065,13.728-14.202
			c7.79-0.138,14.388,6.405,14.316,14.198C156.928,120.015,150.678,126.16,142.91,126.168z"/>
		<path fill="#4B7E7F" d="M224.524,112.136c0.035,7.904-5.907,13.956-13.774,14.028c-7.968,0.073-14.376-6.275-14.276-14.143
			c0.096-7.616,6.523-13.939,14.136-13.907C218.319,98.147,224.49,104.366,224.524,112.136z"/>
		<path fill="#4B7E7F" d="M244.497,126.164c-7.802,0.034-14.122-6.077-14.228-13.759c-0.107-7.738,6.53-14.37,14.301-14.289
			c7.566,0.079,13.97,6.544,13.991,14.125C258.582,119.887,252.277,126.129,244.497,126.164z"/>
		<path fill="#7F7F81" d="M210.928,163.465c-18.563,0-37.126,0-55.689,0c-0.96,0-1.921,0.011-2.88-0.008
			c-1.454-0.029-3.035,0.116-2.895-2.122c0.12-1.908,1.535-1.736,2.793-1.742c4.641-0.022,9.281-0.012,13.922-0.013
			c33.606,0,67.211,0,100.817,0.001c1.28,0,2.56,0.012,3.84,0.017c1.26,0.005,2.177,0.374,2.205,1.871
			c0.027,1.471-0.811,1.951-2.103,1.969c-1.12,0.016-2.24,0.026-3.36,0.026C248.694,163.465,229.811,163.465,210.928,163.465z"/>
		<path fill="#7F7F81" d="M211.311,150.023c10.861,0,21.723-0.042,32.584,0.044c1.641,0.013,4.297-1.065,4.225,2.189
			c-0.059,2.656-2.291,2.21-3.954,2.212c-22.042,0.03-44.084,0.029-66.126,0.004c-1.647-0.002-3.799,0.536-3.698-2.331
			c0.103-2.9,2.348-2.079,3.908-2.087C189.269,149.996,200.29,150.024,211.311,150.023z"/>
		<path fill="#7F7F81" d="M344.297,53.897c10.401,0,20.802-0.037,31.202,0.041c1.513,0.011,3.961-0.973,3.948,1.961
			c-0.012,2.824-2.376,2.053-3.957,2.056c-21.122,0.043-42.244,0.043-63.365,0c-1.582-0.003-3.945,0.761-3.947-2.065
			c-0.002-2.931,2.445-1.941,3.956-1.952C322.854,53.86,333.576,53.897,344.297,53.897z"/>
		<path fill="#7F7F81" d="M78.323,57.983c-10.547,0-21.094,0.031-31.64-0.034c-1.552-0.01-3.925,0.799-3.853-2.11
			c0.073-2.952,2.505-1.89,3.981-1.894c20.934-0.069,41.867-0.071,62.801,0.003c1.473,0.005,3.95-1.113,4.077,1.778
			c0.142,3.264-2.566,2.196-4.204,2.211C99.097,58.028,88.71,57.983,78.323,57.983z"/>
		<path fill="#7F7F81" d="M167.096,53.897c10.696,0,21.393-0.03,32.088,0.036c1.395,0.009,3.531-0.829,3.708,1.722
			c0.197,2.853-2.063,2.306-3.701,2.309c-21.073,0.029-42.146,0.035-63.219-0.015c-1.551-0.004-3.92,0.801-3.933-2.047
			c-0.014-2.96,2.437-1.947,3.927-1.959C146.342,53.857,156.719,53.897,167.096,53.897z"/>
		<path fill="#7F7F81" d="M255.932,57.983c-10.372,0-20.744,0.033-31.116-0.035c-1.557-0.01-3.916,0.85-4.047-1.945
			c-0.139-2.958,2.303-2.067,3.827-2.071c21.063-0.053,42.126-0.053,63.189,0.001c1.523,0.004,3.973-0.868,3.807,2.09
			c-0.156,2.766-2.516,1.912-4.065,1.922C276.995,58.017,266.463,57.983,255.932,57.983z"/>
		<path fill="#7F7F81" d="M77.807,69.197c-7.657-0.001-15.313,0.008-22.97-0.008c-1.559-0.003-3.314,0.321-3.372-2.185
			c-0.055-2.407,1.502-2.404,3.184-2.403c15.632,0.007,31.265,0.004,46.897,0.005c1.66,0,3.345,0.024,3.427,2.304
			c0.104,2.885-2.095,2.26-3.719,2.269C93.44,69.222,85.624,69.198,77.807,69.197z"/>
		<path fill="#7F7F81" d="M166.629,69.197c-7.342,0-14.685,0.041-22.027-0.032c-1.556-0.015-3.759,0.818-3.9-2.093
			c-0.137-2.818,1.858-2.461,3.581-2.462c15.323-0.011,30.647-0.012,45.97,0.003c1.559,0.002,3.365-0.296,3.468,2.142
			c0.118,2.807-1.917,2.427-3.627,2.432C182.272,69.208,174.451,69.196,166.629,69.197z"/>
		<path fill="#7F7F81" d="M256.449,69.196c-7.66,0-15.321,0.007-22.981-0.005c-1.74-0.003-3.715,0.315-3.558-2.489
			c0.139-2.482,1.975-2.083,3.501-2.086c15.321-0.021,30.641-0.015,45.962-0.01c1.76,0.001,3.684-0.265,3.546,2.518
			c-0.126,2.543-1.995,2.047-3.489,2.055C271.77,69.216,264.109,69.196,256.449,69.196z"/>
		<path fill="#7F7F81" d="M343.311,69.196c-7.501,0-15.001,0.02-22.502-0.017c-1.496-0.008-3.371,0.484-3.501-2.049
			c-0.142-2.772,1.782-2.523,3.547-2.524c15.32-0.005,30.641-0.011,45.961,0.011c1.519,0.002,3.356-0.415,3.499,2.079
			c0.161,2.807-1.802,2.493-3.545,2.495C358.951,69.202,351.131,69.196,343.311,69.196z"/>
		<path fill="#4B7E7F" d="M256.435,30.137c3.889,0.028,7.251,3.511,7.176,7.434c-0.076,3.996-3.405,7.078-7.498,6.943
			c-3.921-0.129-6.871-3.137-6.896-7.029C249.192,33.492,252.514,30.109,256.435,30.137z"/>
		<path fill="#4B7E7F" d="M351.009,37.478c-0.022,4.011-3.301,7.134-7.391,7.04c-3.883-0.089-6.933-3.117-7-6.949
			c-0.069-3.969,3.231-7.399,7.148-7.429C347.677,30.11,351.031,33.507,351.009,37.478z"/>
		<path fill="#4B7E7F" d="M85.287,37.281c0.063,4.208-2.903,7.233-7.099,7.239c-4.04,0.005-7.326-3.255-7.274-7.214
			c0.048-3.594,3.382-6.998,7.021-7.169C81.797,29.957,85.228,33.29,85.287,37.281z"/>
		<path fill="#4B7E7F" d="M167.173,44.528c-3.992-0.05-7.308-3.462-7.142-7.347c0.155-3.64,3.538-6.977,7.139-7.044
			c3.937-0.073,7.24,3.24,7.253,7.279C174.438,41.554,171.353,44.58,167.173,44.528z"/>
	</g>
</g>
<rect x="42.172" y="245.333" fill="#FEFEFE" width="337.93" height="15.416"/>
</svg>
