<?xml version="1.0" encoding="utf-8"?>
<!-- Generator: Adobe Illustrator 17.0.0, SVG Export Plug-In . SVG Version: 6.00 Build 0)  -->
<!DOCTYPE svg PUBLIC "-//W3C//DTD SVG 1.1//EN" "http://www.w3.org/Graphics/SVG/1.1/DTD/svg11.dtd">
<svg version="1.1" id="Layer_1" xmlns="http://www.w3.org/2000/svg" xmlns:xlink="http://www.w3.org/1999/xlink" x="0px" y="0px"
	 width="418px" height="130.33px" viewBox="-158.838 -82.583 418 245.33" enable-background="new -158.838 -82.583 418 245.33"
	 xml:space="preserve">
<path fill="#FEFEFE" d="M49.663,162.676c-68.153,0-136.307-0.024-204.46,0.07c-3.424,0.006-4.099-0.492-4.095-3.007
	c0.117-79.772,0.117-159.544,0-239.316c-0.004-2.514,0.671-3.01,4.095-3.007c136.64,0.083,273.28,0.083,409.92,0
	c3.424-0.003,4.099,0.492,4.095,3.007c-0.117,79.772-0.117,159.544,0,239.316c0.004,2.514-0.671,3.013-4.095,3.007
	C186.636,162.652,118.149,162.676,49.663,162.676z"/>
<g>
	<path fill="#FFFFFF" d="M54.186,132.609c-52.017,0-104.034-0.065-156.051,0.129c-3.966,0.014-4.922-1.405-4.911-6.78
		c0.147-58.398,0.144-116.796,0-175.193c-0.014-5.034,0.981-6.029,4.491-6.025c104.609,0.14,209.217,0.14,313.826,0
		c3.525-0.004,4.491,1.031,4.477,6.04c-0.144,58.595-0.137,117.191-0.011,175.786c0.011,4.89-0.869,6.172-4.477,6.162
		C159.082,132.555,106.634,132.609,54.186,132.609z"/>
	<path fill="#194C51" d="M54.222,13.837c-32.767,0-65.533,0.018-98.296-0.061c-1.459-0.004-4.028,1.39-4.056-2.026
		c-0.014-1.685,0.259-2.835,2.303-2.619c0.711,0.075,1.437,0.007,2.156,0.007c65.533,0,131.063,0,196.596,0
		c0.719,0,1.444,0.068,2.156-0.007c2.008-0.212,2.339,0.869,2.36,2.59c0.022,1.775-0.762,2.156-2.328,2.134
		c-4.599-0.065-9.198-0.022-13.796-0.022C112.282,13.837,83.252,13.837,54.222,13.837z"/>
	<path fill="#194C51" d="M54.682,25.022c-32.752,0-65.501,0-98.253,0c-1.006,0-2.012-0.032-3.014-0.007
		c-1.451,0.036-1.584-0.905-1.513-1.99c0.068-1.063-0.384-2.454,1.426-2.533c0.859-0.036,1.725-0.032,2.583-0.032
		c65.788,0,131.576,0,197.365,0c0.431,0,0.866,0.036,1.293-0.004c1.832-0.176,2.928,0.18,2.889,2.483
		c-0.04,2.249-1.319,2.095-2.799,2.091c-5.601-0.018-11.202-0.007-16.807-0.007C110.13,25.022,82.408,25.022,54.682,25.022z"/>
	<path fill="#194C51" d="M54.445,36.206c-22.114,0-44.228,0.029-66.342-0.057c-1.584-0.007-4.283,1.434-4.218-2.31
		c0.057-3.356,2.432-2.195,3.966-2.195c44.515-0.054,89.03-0.057,133.545,0.022c1.344,0.004,3.571-1.322,3.974,1.699
		c0.445,3.37-1.757,2.846-3.722,2.846C99.247,36.206,76.846,36.206,54.445,36.206z"/>
	<path fill="#194C51" d="M-56.175,56.154c11.925,0,23.849-0.029,35.77,0.04c1.466,0.007,3.69-0.988,3.823,1.962
		c0.137,3.022-2.091,2.141-3.593,2.141c-24.42,0.04-48.844,0.04-73.265,0c-1.376-0.004-3.366,0.805-3.413-1.908
		c-0.05-2.903,2.037-2.213,3.618-2.217C-80.883,56.139-68.527,56.154-56.175,56.154z"/>
	<path fill="#194C51" d="M169.031,56.111c10.764,0,21.532-0.018,32.296,0.022c1.545,0.007,3.604-0.765,3.514,2.231
		c-0.079,2.731-1.972,1.94-3.341,1.944c-21.532,0.036-43.06,0.036-64.592,0.004c-1.541-0.004-3.679,0.765-3.55-2.21
		c0.129-3.011,2.368-1.933,3.808-1.944C147.786,56.071,158.407,56.111,169.031,56.111z"/>
	<path fill="#194C51" d="M86.521-16.774c-0.018,5.26-2.892,8.389-7.685,8.364c-4.732-0.025-7.685-3.302-7.638-8.472
		c0.047-5.199,3.029-8.432,7.735-8.386C83.687-25.217,86.536-22.03,86.521-16.774z"/>
	<path fill="#194C51" d="M37.228-16.792c0-5.382,2.731-8.475,7.484-8.479c4.775-0.004,7.581,3.101,7.595,8.414
		c0.018,5.343-2.745,8.45-7.52,8.454C39.966-8.399,37.228-11.435,37.228-16.792z"/>
	<path fill="#194C51" d="M63.057-8.42c-4.099,0.05-6.726-1.2-7.908-4.426c-1.297-3.532-1.301-7.056,1.293-10.121
		c2.256-2.666,5.274-2.537,8.328-1.99c0.539,0.097,1.092,0.395,1.523,0.744c1.085,0.873,2.795,1.879,1.836,3.363
		c-0.97,1.502-2.271,0.697-3.481-0.514c-1.829-1.829-4.121-1.574-5.687,0.28c-2.066,2.44-1.847,5.396-0.323,8.041
		c1.16,2.012,3.208,2.253,5.303,1.466c0.923-0.345,1.94-0.765,1.814-2.062s-1.189-0.97-1.954-0.988
		c-1.046-0.025-1.602-0.402-1.534-1.509c0.072-1.236,1.02-1.362,1.825-1.182c1.696,0.384,4.398-1.416,4.89,1.617
		c0.424,2.601,0.801,5.648-2.921,6.604C64.817-8.78,63.563-8.535,63.057-8.42z"/>
	<path fill="#194C51" d="M24.452-16.935c0-1.998-0.014-3.992,0.004-5.989c0.007-0.984-0.115-2.016,1.423-2.048
		c1.592-0.036,1.893,0.823,1.875,2.149c-0.036,2.709,0.14,5.429-0.05,8.123c-0.176,2.537,0.532,3.798,3.284,3.384
		c0.974-0.147,1.994-0.032,2.989-0.004c0.949,0.025,1.653,0.313,1.581,1.487c-0.054,0.931-0.636,1.189-1.394,1.196
		c-2.709,0.025-5.418-0.007-8.127,0.036c-1.39,0.022-1.617-0.772-1.595-1.915C24.477-12.66,24.452-14.797,24.452-16.935z"/>
	<path fill="#FFFFFF" d="M83.177-17.054c-0.05,3.065-0.726,5.788-4.293,5.766c-3.521-0.022-4.34-2.774-4.329-5.684
		c0.011-2.756,0.851-5.278,4.153-5.407C82.343-22.518,83.083-19.91,83.177-17.054z"/>
	<path fill="#FFFFFF" d="M49.174-16.903c-0.327,2.813-0.808,5.698-4.448,5.637c-3.607-0.061-4.225-2.856-4.207-5.741
		c0.018-2.745,0.719-5.289,4.103-5.396C48.315-22.515,48.829-19.716,49.174-16.903z"/>
	<g>
		<path fill="#C52275" d="M168.456,81.878c0.528-1.024,1.351-1.61,2.515-1.681c3.295-0.237,6.596-0.068,9.895-0.097
			c2.22-0.018,4.441-0.086,6.658,0.126c0.23,1.954,0.133,3.916,0.054,5.874c-0.485,0.42-1.035,0.338-1.588,0.194
			c-4.818-1.25-9.722-2.134-14.547-3.349C170.418,82.69,169.322,82.59,168.456,81.878z"/>
		<path fill="#B32074" d="M187.577,96.735c0,1.308,0,2.612,0,3.92c-1.534,0.37-2.943-0.305-4.372-0.604
			c-4.416-0.927-8.777-2.12-13.193-3.065c-0.747-0.162-1.588-0.219-2.141-0.891c-0.047-1.15-0.036-2.299-0.007-3.449
			c0.402-0.553,0.909-0.302,1.39-0.176c4.049,1.071,8.163,1.865,12.237,2.835C183.521,95.786,185.568,96.174,187.577,96.735z"/>
		<path fill="#C22275" d="M168.025,92.542c0,1.211,0,2.425,0.004,3.636c0.575,0.851,0.323,1.807,0.356,2.731
			c0.014,0.665,0.029,1.333-0.004,1.998c0.022,0.582,0.022,1.164,0,1.743c0.036,0.927,0.022,1.854-0.004,2.781
			c0.007,0.528,0.022,1.056-0.438,1.441c-0.244-0.435-0.144-0.913-0.144-1.369c-0.004-6.945-0.004-13.89,0.007-20.835
			c0-0.974-0.043-1.969,0.654-2.784c2.741,0.618,5.504,1.146,8.213,1.875c3.201,0.859,6.521,1.175,9.668,2.256
			c0.381,0.129,0.826,0.068,1.24,0.093c0,0.934,0,1.865,0,2.799c-0.733,0.593-1.495,0.251-2.26,0.086
			c-4.994-1.081-9.931-2.414-14.946-3.388c-1.98-0.384-1.983-0.352-1.994,1.728c0.022,0.819,0.032,1.638,0.007,2.457
			C168.359,90.713,168.607,91.683,168.025,92.542z"/>
		<path fill="#B82174" d="M168.025,92.542c0-0.934,0-1.868,0-2.799c0.481-0.442,1.035-0.32,1.584-0.205
			c4.822,1.024,9.607,2.195,14.378,3.435c1.196,0.313,2.544,0.093,3.589,0.966c0,0.934,0,1.865,0,2.799
			c-3.596-0.068-6.977-1.254-10.43-2.044C174.104,93.993,170.989,93.584,168.025,92.542z"/>
		<path fill="#BE2275" d="M168.021,87.239c-0.004-0.047-0.011-0.093-0.014-0.14c-0.086-2.346-0.101-2.271,2.231-1.897
			c4.8,0.769,9.435,2.267,14.21,3.137c1.042,0.19,2.023,0.726,3.129,0.557c0,0.934,0,1.865,0,2.799
			c-0.561,0.442-1.168,0.208-1.739,0.075c-5.515-1.272-11.073-2.35-16.545-3.805C168.804,87.839,168.269,87.792,168.021,87.239z"/>
		<path fill="#AF1F74" d="M168.028,98.973c0-0.931,0-1.865,0-2.795c2.878,0.654,5.756,1.301,8.63,1.958
			c3.64,0.834,7.279,1.678,10.919,2.519c0,0.841,0,1.678,0,2.519c-0.877,0.295-1.739,0.111-2.598-0.079
			c-4.469-0.984-8.871-2.289-13.394-3.036C170.364,99.853,169.138,99.58,168.028,98.973z"/>
		<path fill="#831971" d="M189.808,123.322c-0.607,0.313-1.272,0.259-1.919,0.259c-6.758,0.011-13.516,0.011-20.274,0
			c-0.643,0-1.311,0.075-1.915-0.251c0.561-0.571,1.29-0.46,1.972-0.46c3.622,0,7.247-0.057,10.868,0.043
			c1.531,0.011,3.068,0,4.613,0c-4.599-0.916-9.14-2.08-13.71-3.126c-3.489-0.798-7.002-1.491-10.47-2.386
			c-0.65-0.169-1.286-0.172-1.915,0.079c-0.521-0.582-0.819-1.283-1.067-2.008c0.367-0.719,0.97-0.557,1.577-0.449
			c3.295,0.589,6.481,1.653,9.762,2.281c5.526,1.056,10.944,2.576,16.452,3.719c1.549,0.32,3.072,0.744,4.617,1.074
			C189.028,122.237,189.833,122.344,189.808,123.322z"/>
		<path fill="#A81E73" d="M168.028,105.408c0-0.931,0-1.865,0-2.795c0.366-0.327,0.78-0.234,1.193-0.129
			c5.608,1.39,11.278,2.515,16.861,4.006c0.622,0.165,1.509,0.187,1.24,1.272c-0.471,0.88-0.895,1.804-1.994,2.077
			c-2.871-1.25-5.968-1.656-8.978-2.364C173.565,106.813,170.766,106.245,168.028,105.408z"/>
		<path fill="#7C1770" d="M178.889,123.304c-4.398,0.011-8.792,0.018-13.189,0.029c-3.28-0.446-5.838-2.091-7.836-4.681
			c0.201-1.067,1.031-0.722,1.628-0.632c1.836,0.269,3.607,0.869,5.432,1.218c3.963,0.758,7.811,2.041,11.81,2.652
			C177.596,122.021,178.595,122.193,178.889,123.304z"/>
		<path fill="#BB2175" d="M168.021,87.239c4.455,0.984,8.82,2.36,13.34,3.075c2.091,0.331,4.143,0.913,6.216,1.383
			c0,0.747,0,1.491,0,2.238c-3.456-0.331-6.74-1.462-10.107-2.202c-3.144-0.69-6.234-1.642-9.446-1.994
			C168.025,88.906,168.025,88.072,168.021,87.239z"/>
		<path fill="#CB2577" d="M200.177,80.218c0.28,2.055,0.309,4.11-0.018,6.162c-1.98,0.302-3.97,0.061-5.957,0.129
			c-0.503,0.018-0.618-0.277-0.614-0.711c0.007-1.671,0.007-3.341,0-5.008c0-0.446,0.14-0.715,0.632-0.697
			C196.203,80.165,198.194,79.931,200.177,80.218z"/>
		<path fill="#AD1F74" d="M168.028,98.973c2.709,0.521,5.45,0.927,8.123,1.599c2.504,0.629,5.026,1.164,7.538,1.75
			c1.293,0.302,2.594,0.568,3.891,0.851c0,0.65,0,1.304,0,1.954c-0.798,0.582-1.642,0.201-2.418,0.022
			c-5.249-1.225-10.505-2.418-15.776-3.56c-0.507-0.108-0.999-0.241-1.354-0.654C168.028,100.281,168.028,99.627,168.028,98.973z"/>
		<path fill="#A41E73" d="M168.028,105.408c0.683-0.302,1.279-0.068,1.972,0.126c2.159,0.614,4.372,1.042,6.561,1.559
			c2.691,0.636,5.371,1.311,8.069,1.919c0.521,0.119,0.729,0.323,0.697,0.823c-1.556,0.657-3.172,0.277-4.768,0.291
			c-0.126-0.057-0.259-0.115-0.399-0.101c-3.848,0.453-7.459-0.754-11.123-1.581c-0.345-0.079-0.596-0.234-0.794-0.514
			c-0.32-0.291-0.323-0.672-0.305-1.06C167.967,106.381,168,105.896,168.028,105.408z"/>
		<path fill="#871971" d="M189.808,123.322c-0.453-0.902-1.401-0.862-2.17-1.042c-5.928-1.39-11.871-2.72-17.806-4.081
			c-4.218-0.966-8.432-1.947-12.647-2.935c-0.445-0.104-0.823-0.007-1.196,0.208c-0.187-0.438-0.424-0.862-0.349-1.365
			c0.05-0.054,0.101-0.111,0.147-0.165c0.632-0.338,1.265-0.111,1.883,0.029c1.836,0.41,3.654,0.916,5.508,1.243
			c0.424,0.075,0.776,0.273,1.092,0.546c1.143,1.078,2.612,1.204,4.056,1.315c1.186,0.093,2.382,0.061,3.571,0.083
			c3.144,0.596,6.223,1.491,9.352,2.145c3.14,0.657,6.223,1.552,9.381,2.138c0.65,0.122,1.387,0.309,1.721,1.046
			C191.637,123.167,190.724,123.257,189.808,123.322z"/>
		<path fill="#AA1E73" d="M168.028,100.935c3.532,0.657,7.01,1.563,10.52,2.307c3.007,0.636,5.96,1.559,9.032,1.886
			c0.068,0.891,0.237,1.793-0.255,2.63c-0.007-0.632-0.528-0.737-0.959-0.83c-3.927-0.852-7.807-1.915-11.752-2.716
			c-2.202-0.446-4.419-0.956-6.586-1.602C168.028,102.052,168.028,101.492,168.028,100.935z"/>
		<path fill="#BF2375" d="M155.353,112.705c-0.316-0.611-0.208-1.275-0.208-1.919c-0.007-9.819,0.018-19.638-0.022-29.458
			c-0.004-1.143,0.28-1.441,1.419-1.25c3.431,0.582,5.199,2.727,5.285,6.582c-1.541-0.604-3.212-0.74-4.764-1.311
			c-0.909-0.334-1.293,0.036-1.286,0.963c0.007,0.923,0.011,1.847,0.011,2.77c0.043,1.157,0.036,2.314,0.011,3.471
			c0.036,1.286,0.04,2.576,0,3.862c0.029,1.028,0.04,2.059-0.004,3.086c0.018,1.02,0.043,2.041,0,3.061
			c0.022,0.923,0.032,1.847-0.004,2.77c0.011,0.578,0.029,1.16,0,1.739c0.018,0.661,0.025,1.319,0.007,1.98
			c-0.018,0.83,0.04,1.663-0.018,2.493C155.77,111.983,155.737,112.41,155.353,112.705z"/>
		<path fill="#801870" d="M178.889,123.304c-1.624-1.416-3.747-1.146-5.637-1.663c-1.955-0.535-3.895-1.15-5.881-1.502
			c-2.871-0.507-5.666-1.329-8.529-1.847c-0.363-0.065-0.755-0.036-0.977,0.363c-0.377-0.316-0.679-0.683-0.808-1.171
			c0.014-0.51,0.029-0.905,0.79-0.686c1.189,0.341,2.425,0.496,3.632,0.808c3.528,0.905,7.114,1.581,10.674,2.364
			c1.577,0.349,3.147,0.74,4.721,1.11c2.429,0.571,4.858,1.135,7.283,1.71c0.172,0.04,0.363,0.104,0.356,0.517
			C182.64,123.304,180.765,123.304,178.889,123.304z"/>
		<path fill="#B92175" d="M155.414,88.902c-0.007-1.063,0.022-2.131-0.029-3.194c-0.043-0.938,0.431-1.182,1.2-0.927
			c1.448,0.481,2.889,0.963,4.423,1.042c0.571,0.029,0.463,0.643,0.823,0.837c0.072,0.507,0.201,1.01,0.201,1.516
			c0.014,7.786,0.014,15.571,0.014,23.353c-0.675-0.14-0.503-0.715-0.596-1.157c-0.032-0.64-0.029-1.279-0.014-1.922
			c-0.007-0.571-0.032-1.143-0.004-1.71c-0.029-0.92-0.036-1.84-0.007-2.759c-0.036-1.107-0.036-2.213-0.004-3.32
			c-0.032-1.024-0.036-2.044,0-3.068c-0.025-1.164-0.036-2.328,0.007-3.489c-0.086-1.056,0.359-2.238-0.234-3.144
			c-0.607-0.923-1.904-0.492-2.838-0.884C157.379,89.675,156.237,89.693,155.414,88.902z"/>
		<path fill="#8A1A71" d="M192.355,122.488c-3.6-1.319-7.408-1.8-11.091-2.795c-2.274-0.614-4.599-1.046-6.862-1.699
			c-0.834-0.241-1.933,0.208-2.501-0.834c1.678,0,3.356,0,5.037,0c3.442,0.758,6.848,1.674,10.297,2.396
			c1.778,0.374,3.499,0.959,5.289,1.293c0.496,0.093,0.981,0.316,1.254,0.808C193.44,122.172,192.945,122.409,192.355,122.488z"/>
		<path fill="#A41E73" d="M200.206,111.875c-0.014,0.176-0.029,0.352-0.043,0.525c-0.338,0.449,0.011,1.017-0.259,1.477
			c-0.072,0.891-0.334,1.71-0.866,2.44c-1.487-1.868-3.64-1.757-5.702-1.904c-0.309-0.022-0.632,0.205-0.934-0.047
			c0.51-0.977,0.898-1.994,1.074-3.086c0.169-0.226,0.068-0.6,0.392-0.744c0.442-0.194,0.916-0.223,1.344-0.054
			c1.505,0.593,3.151,0.575,4.671,1.099C200.019,111.641,200.127,111.742,200.206,111.875z"/>
		<path fill="#911B72" d="M196.519,119.682c-0.359,0.56-0.776,1.067-1.408,1.344c-3.916-0.974-7.865-1.807-11.777-2.799
			c-0.787-0.201-1.793-0.05-2.202-1.071c2.292-0.011,4.584-0.022,6.877-0.032c2.849-0.083,5.493,0.808,8.134,1.707
			C196.512,118.956,196.807,119.219,196.519,119.682z"/>
		<path fill="#BC2376" d="M196.8,99.555c-0.931-0.129-2.411,0.514-3.14-0.241c-0.719-0.744-0.201-2.213-0.216-3.359
			c-0.036-2.878-0.011-2.878,2.899-2.878c1.024,0,2.048,0.036,3.068-0.011c0.74-0.036,0.97,0.251,0.949,0.97
			c-0.04,1.487-0.058,2.975,0.007,4.459c0.04,0.884-0.298,1.143-1.128,1.078C198.503,99.508,197.755,99.555,196.8,99.555z"/>
		<path fill="#8D1A71" d="M181.131,117.16c1.638,0.754,3.424,0.97,5.156,1.383c2.601,0.625,5.22,1.171,7.825,1.782
			c0.399,0.093,0.794,0.287,0.999,0.704c-0.532,0.025-0.737,0.744-1.337,0.629c-4.297-1.243-8.677-2.149-13.028-3.172
			c-1.283-0.302-2.705-0.431-3.816-1.326C178.333,117.16,179.734,117.16,181.131,117.16z"/>
		<path fill="#921B72" d="M161.806,110.445c0.065,0.366-0.097,0.783,0.237,1.089c0.126,0.568,0.248,1.135,0.374,1.703
			c-2.389-0.32-4.739-0.812-6.999-1.674c-0.004-0.837-0.004-1.674-0.007-2.511C157.595,109.281,159.743,109.672,161.806,110.445z"/>
		<path fill="#AC2175" d="M193.728,110.725c-0.083,0.183-0.169,0.366-0.252,0.553c-0.014-1.437,0.007-2.878-0.054-4.315
			c-0.032-0.769,0.295-0.945,0.984-0.931c1.671,0.036,3.345,0.014,5.016,0.011c0.499,0,0.959,0.022,0.927,0.704
			c-0.079,1.71,0.183,3.428-0.144,5.131l-0.079-0.057c-0.535-0.697-0.313-1.52-0.359-2.292c-0.036-0.6-0.14-1.114-0.848-1.243
			c-1.236-0.226-2.425-0.636-3.654-0.898c-1.042-0.223-1.193,0.183-1.171,1.06C194.116,109.213,194.288,110.035,193.728,110.725z"/>
		<path fill="#971C72" d="M196.519,119.682c-0.032-0.305-0.18-0.467-0.499-0.568c-2.63-0.834-5.328-1.383-8.016-1.99
			c0.956-0.395,1.915-0.79,2.874-1.186c1.872,0.51,3.762,0.949,5.626,1.477c0.521,0.147,1.416,0.115,1.132,1.143
			C197.367,119.035,197.098,119.513,196.519,119.682z"/>
		<path fill="#9F1D73" d="M192.398,114.361c1.904-0.772,3.654,0.022,5.465,0.463c0.927,0.226,1.279,0.6,1.171,1.491
			c-0.04,0.384-0.223,0.686-0.507,0.941c-1.398-0.604-2.892-0.844-4.372-1.135c-0.855-0.169-1.725-0.327-2.174-1.225
			C192.122,114.717,192.262,114.541,192.398,114.361z"/>
		<path fill="#9A1C72" d="M191.985,114.893c1.527,0.984,3.32,1.042,5.016,1.387c0.704,0.144,1.225,0.323,1.531,0.974
			c-0.169,0.525-0.467,0.956-0.891,1.304c-0.115-0.754-0.798-0.679-1.279-0.812c-1.455-0.41-2.921-0.776-4.398-1.107
			c-0.474-0.108-0.902-0.187-1.085-0.701C191.249,115.593,191.615,115.241,191.985,114.893z"/>
		<path fill="#8D1B72" d="M155.417,111.562c2.404,0.262,4.757,0.74,6.999,1.674c0.198,0.37,0.395,0.74,0.596,1.107
			c-0.543,0.431-1.143,0.248-1.71,0.108c-1.38-0.341-2.802-0.463-4.168-0.862c-0.611-0.18-1.074-0.065-1.43,0.463l-0.068,0.054
			c-0.316-0.424-0.28-0.916-0.284-1.401C155.374,112.324,155.396,111.943,155.417,111.562z"/>
		<path fill="#A11F74" d="M168.244,107.93c2.479,0.402,4.886,1.053,7.279,1.84c1.046,0.345,2.289,0.075,3.442,0.122
			c0.535,0.022,1.117-0.19,1.595,0.23c-3.047,0.018-6.093,0.086-9.137,0.032C169.943,110.129,168.79,109.407,168.244,107.93z"/>
		<path fill="#891A71" d="M155.705,114.052c-0.133-0.97,0.201-1.182,1.175-0.945c2.026,0.492,4.089,0.834,6.133,1.236
			c0.42,0.471,0.837,0.945,1.258,1.416C161.364,115.446,158.619,114.322,155.705,114.052z"/>
		<path fill="#C92979" d="M200.177,80.218c-1.761,0.004-3.525,0.047-5.285-0.007c-0.923-0.029-1.225,0.305-1.182,1.207
			c0.061,1.25,0.075,2.508-0.004,3.754c-0.065,1.031,0.388,1.25,1.308,1.222c1.714-0.054,3.431-0.014,5.145-0.014
			c-2.051,0.46-4.128,0.101-6.194,0.19c-0.525,0.022-0.532-0.402-0.532-0.787c0-1.671,0.004-3.341,0-5.012
			c0-0.399,0.036-0.79,0.561-0.762C196.052,80.118,198.129,79.723,200.177,80.218z"/>
		<path fill="#CA2879" d="M187.523,80.229c-5.519-0.011-11.034-0.022-16.552-0.029c0.313-0.061,0.622-0.176,0.934-0.176
			c4.954-0.011,9.913-0.007,14.867-0.004C187.034,80.017,187.336,79.931,187.523,80.229z"/>
		<path fill="#A81F74" d="M199.904,113.876c0.032-0.503-0.219-1.053,0.259-1.477C200.199,112.913,200.202,113.423,199.904,113.876z"
			/>
		<path fill="#B01F74" d="M161.806,93.939c0,1.211,0,2.425,0,3.636c-0.298,0.269-0.661,0.381-1.035,0.291
			c-1.796-0.435-3.643-0.661-5.357-1.408c0-1.304,0-2.612,0-3.916c0.183-0.162,0.413-0.28,0.639-0.219
			C157.972,92.854,159.995,93.023,161.806,93.939z"/>
		<path fill="#B52074" d="M161.806,93.939c-1.703-0.075-3.291-0.683-4.929-1.06c-0.489-0.111-0.974-0.226-1.462-0.338
			c0-1.211,0-2.425,0-3.636c1.865,0.305,3.604,1.143,5.515,1.254c0.618,0.036,0.959,0.424,0.909,1.139
			C161.777,92.172,161.813,93.056,161.806,93.939z"/>
		<path fill="#AB1F74" d="M155.414,96.454c1.663-0.119,3.169,0.604,4.75,0.909c0.55,0.108,1.085,0.219,1.642,0.208
			c0,1.028,0,2.051,0,3.079c-0.144,0.119-0.295,0.269-0.474,0.273c-2.087,0.029-4.092-0.302-5.917-1.39
			C155.414,98.509,155.414,97.482,155.414,96.454z"/>
		<path fill="#A71E73" d="M155.414,99.533c2.141,0.309,4.171,1.254,6.392,1.117c0,1.117,0,2.238,0,3.356
			c-0.223,0.194-0.492,0.287-0.765,0.216c-1.886-0.492-3.916-0.496-5.626-1.613C155.414,101.585,155.414,100.561,155.414,99.533z"/>
		<path fill="#A41D73" d="M155.414,102.612c2.131,0.467,4.261,0.934,6.392,1.398c0,0.931,0,1.865,0,2.795
			c-1.416,0.313-2.695-0.413-4.049-0.586c-0.783-0.101-1.653-0.28-2.342-0.812C155.414,104.477,155.414,103.543,155.414,102.612z"/>
		<path fill="#991C72" d="M161.806,110.445c-2.188-0.201-4.347-0.535-6.395-1.39c0-0.654,0-1.311,0.004-1.965
			c0.593-0.517,1.254-0.212,1.861-0.09c1.566,0.313,3.216,0.402,4.534,1.484C161.806,109.133,161.806,109.791,161.806,110.445z"/>
		<path fill="#9F1D73" d="M161.806,108.48c-2.102-0.6-4.2-1.222-6.392-1.394c0-0.56,0-1.121,0-1.678
			c2.17,0.291,4.297,0.772,6.392,1.398C161.806,107.366,161.806,107.923,161.806,108.48z"/>
		<path fill="#A81F74" d="M193.728,110.725c0-0.514-0.004-1.024-0.004-1.538c0-2.662,0.007-2.684,2.634-2.008
			c1.031,0.266,2.019,0.697,3.097,0.747c0.668,0.029,0.704,0.463,0.701,0.963c-0.014,0.977-0.018,1.954-0.029,2.932
			c-1.574-0.187-3.162-0.298-4.646-0.916C194.903,110.66,194.313,110.757,193.728,110.725z"/>
		<path fill="#B82275" d="M196.81,99.25c-0.047,0-0.093,0-0.14,0c-3.176,0-3.406-0.284-2.957-3.456
			c0.072-0.517,0.241-0.751,0.783-0.704c1.804,0.162,3.474,0.891,5.249,1.225c0.884,0.169,0.295,1.466,0.384,2.246
			c0.079,0.668-0.46,0.69-0.949,0.686C198.391,99.25,197.601,99.25,196.81,99.25z"/>
	</g>
</g>
</svg>
