<?xml version="1.0" encoding="utf-8"?>
<!-- Generator: Adobe Illustrator 17.0.0, SVG Export Plug-In . SVG Version: 6.00 Build 0)  -->
<!DOCTYPE svg PUBLIC "-//W3C//DTD SVG 1.1//EN" "http://www.w3.org/Graphics/SVG/1.1/DTD/svg11.dtd">
<svg version="1.1" id="Layer_1" xmlns="http://www.w3.org/2000/svg" xmlns:xlink="http://www.w3.org/1999/xlink" x="0px" y="0px"
	 width="418px" height="130.33px" viewBox="-158.84 -82.585 418 245.33" enable-background="new -158.84 -82.585 418 245.33"
	 xml:space="preserve">
<rect x="-158.84" y="-81.252" fill="#FFFFFF" width="418" height="242.665"/>
<g>
	<rect x="-119.727" y="-64.915" fill="#FFFFFF" width="340.887" height="214.048"/>
	<g>
		<path fill="#C52275" d="M179.189,102.294c0.529-1.025,1.353-1.612,2.518-1.684c3.299-0.237,6.605-0.068,9.908-0.097
			c2.223-0.018,4.447-0.086,6.667,0.126c0.23,1.957,0.133,3.922,0.054,5.882c-0.486,0.421-1.036,0.338-1.59,0.194
			c-4.825-1.252-9.736-2.137-14.567-3.353C181.153,103.104,180.056,103.007,179.189,102.294z"/>
		<path fill="#B32074" d="M198.336,117.167c0,1.31,0,2.616,0,3.925c-1.536,0.371-2.947-0.306-4.378-0.604
			c-4.422-0.928-8.789-2.123-13.211-3.069c-0.748-0.162-1.59-0.219-2.144-0.892c-0.047-1.151-0.036-2.303-0.007-3.454
			c0.403-0.554,0.91-0.302,1.392-0.176c4.055,1.072,8.174,1.867,12.254,2.839C194.274,116.218,196.325,116.606,198.336,117.167z"/>
		<path fill="#C22275" d="M178.757,112.969c0,1.212,0,2.428,0.004,3.641c0.576,0.853,0.324,1.81,0.356,2.734
			c0.014,0.666,0.029,1.335-0.004,2c0.022,0.583,0.022,1.166,0,1.745c0.036,0.928,0.022,1.856-0.004,2.785
			c0.007,0.529,0.022,1.058-0.439,1.443c-0.245-0.435-0.144-0.914-0.144-1.371c-0.004-6.954-0.004-13.909,0.007-20.863
			c0-0.975-0.043-1.972,0.655-2.788c2.745,0.619,5.512,1.148,8.224,1.878c3.206,0.86,6.53,1.176,9.682,2.259
			c0.381,0.13,0.827,0.068,1.241,0.094c0,0.935,0,1.867,0,2.803c-0.734,0.594-1.497,0.252-2.263,0.086
			c-5.001-1.083-9.944-2.418-14.967-3.393c-1.982-0.385-1.986-0.353-1.997,1.731c0.022,0.82,0.032,1.641,0.007,2.461
			C179.091,111.141,179.34,112.109,178.757,112.969z"/>
		<path fill="#B82174" d="M178.757,112.969c0-0.935,0-1.871,0-2.803c0.482-0.443,1.036-0.32,1.587-0.205
			c4.828,1.025,9.62,2.198,14.398,3.439c1.198,0.313,2.547,0.094,3.594,0.968c0,0.935,0,1.867,0,2.803
			c-3.601-0.068-6.987-1.256-10.444-2.047C184.844,114.422,181.725,114.012,178.757,112.969z"/>
		<path fill="#BE2275" d="M178.753,107.662c-0.004-0.047-0.011-0.094-0.014-0.14c-0.086-2.349-0.101-2.274,2.234-1.9
			c4.807,0.77,9.448,2.27,14.229,3.141c1.043,0.191,2.026,0.727,3.134,0.558c0,0.935,0,1.867,0,2.803
			c-0.561,0.443-1.169,0.209-1.741,0.076c-5.523-1.274-11.088-2.353-16.568-3.81C179.538,108.259,179.002,108.213,178.753,107.662z"
			/>
		<path fill="#AF1F74" d="M178.76,119.409c0-0.932,0-1.867,0-2.799c2.882,0.655,5.764,1.302,8.642,1.961
			c3.645,0.835,7.289,1.68,10.934,2.522c0,0.842,0,1.68,0,2.522c-0.878,0.295-1.741,0.112-2.601-0.079
			c-4.476-0.986-8.883-2.292-13.412-3.04C181.099,120.29,179.872,120.017,178.76,119.409z"/>
		<path fill="#831971" d="M200.57,143.794c-0.608,0.313-1.274,0.259-1.921,0.259c-6.767,0.011-13.535,0.011-20.302,0
			c-0.644,0-1.313,0.076-1.918-0.252c0.561-0.572,1.292-0.461,1.975-0.461c3.627,0,7.257-0.058,10.883,0.043
			c1.533,0.011,3.072,0,4.62,0c-4.605-0.917-9.153-2.083-13.729-3.13c-3.493-0.799-7.012-1.493-10.484-2.389
			c-0.651-0.169-1.288-0.173-1.918,0.079c-0.522-0.583-0.82-1.284-1.069-2.011c0.367-0.72,0.971-0.558,1.579-0.45
			c3.299,0.59,6.49,1.655,9.775,2.285c5.533,1.058,10.959,2.58,16.474,3.724c1.551,0.32,3.076,0.745,4.623,1.076
			C199.789,142.704,200.595,142.816,200.57,143.794z"/>
		<path fill="#A81E73" d="M178.76,125.852c0-0.932,0-1.867,0-2.799c0.367-0.327,0.781-0.234,1.194-0.13
			c5.616,1.392,11.293,2.518,16.888,4.012c0.622,0.165,1.511,0.187,1.241,1.274c-0.471,0.881-0.896,1.806-1.997,2.08
			c-2.875-1.252-5.976-1.659-8.991-2.367C184.305,127.263,181.498,126.694,178.76,125.852z"/>
		<path fill="#7C1770" d="M189.637,143.776c-4.404,0.011-8.804,0.018-13.207,0.029c-3.285-0.446-5.846-2.094-7.847-4.688
			c0.201-1.069,1.033-0.723,1.63-0.633c1.838,0.27,3.612,0.871,5.44,1.22c3.968,0.759,7.822,2.044,11.826,2.655
			C188.341,142.488,189.341,142.661,189.637,143.776z"/>
		<path fill="#BB2175" d="M178.753,107.662c4.461,0.986,8.832,2.364,13.358,3.08c2.094,0.331,4.148,0.914,6.221,1.385
			c0,0.748,0,1.493,0,2.241c-3.461-0.331-6.746-1.464-10.12-2.205c-3.148-0.691-6.242-1.644-9.458-1.997
			C178.757,109.328,178.757,108.497,178.753,107.662z"/>
		<path fill="#CB2577" d="M210.953,100.628c0.281,2.058,0.309,4.116-0.018,6.17c-1.982,0.302-3.976,0.061-5.965,0.13
			c-0.504,0.018-0.619-0.277-0.615-0.712c0.007-1.673,0.007-3.346,0-5.015c0-0.446,0.14-0.716,0.633-0.698
			C206.974,100.575,208.967,100.344,210.953,100.628z"/>
		<path fill="#AD1F74" d="M178.76,119.409c2.713,0.522,5.458,0.928,8.135,1.601c2.508,0.63,5.033,1.166,7.548,1.752
			c1.295,0.302,2.598,0.568,3.896,0.853c0,0.651,0,1.306,0,1.957c-0.799,0.583-1.644,0.201-2.425,0.022
			c-5.256-1.227-10.52-2.421-15.798-3.565c-0.507-0.108-1-0.241-1.356-0.655C178.76,120.718,178.76,120.064,178.76,119.409z"/>
		<path fill="#A41E73" d="M178.76,125.852c0.684-0.302,1.281-0.068,1.975,0.126c2.162,0.615,4.378,1.043,6.569,1.561
			c2.695,0.637,5.379,1.313,8.081,1.921c0.522,0.119,0.73,0.324,0.698,0.824c-1.558,0.658-3.177,0.277-4.774,0.291
			c-0.126-0.058-0.259-0.115-0.399-0.101c-3.853,0.453-7.469-0.756-11.139-1.583c-0.345-0.079-0.597-0.234-0.795-0.514
			c-0.32-0.291-0.324-0.673-0.306-1.061C178.699,126.831,178.732,126.342,178.76,125.852z"/>
		<path fill="#871971" d="M200.57,143.794c-0.453-0.903-1.403-0.863-2.173-1.043c-5.936-1.392-11.887-2.724-17.83-4.087
			c-4.224-0.968-8.444-1.95-12.664-2.939c-0.446-0.104-0.824-0.007-1.198,0.209c-0.187-0.439-0.425-0.863-0.349-1.367
			c0.05-0.054,0.101-0.112,0.148-0.165c0.633-0.338,1.266-0.112,1.885,0.029c1.838,0.41,3.659,0.917,5.515,1.245
			c0.425,0.076,0.777,0.273,1.094,0.547c1.144,1.079,2.616,1.205,4.062,1.317c1.187,0.094,2.385,0.061,3.576,0.083
			c3.148,0.597,6.231,1.493,9.365,2.148c3.144,0.658,6.231,1.554,9.394,2.141c0.651,0.122,1.389,0.309,1.723,1.047
			C202.401,143.636,201.488,143.726,200.57,143.794z"/>
		<path fill="#AA1E73" d="M178.76,121.373c3.537,0.658,7.019,1.565,10.534,2.31c3.011,0.637,5.969,1.561,9.045,1.889
			c0.068,0.892,0.237,1.795-0.255,2.634c-0.007-0.633-0.529-0.738-0.961-0.831c-3.932-0.853-7.818-1.918-11.768-2.72
			c-2.205-0.446-4.425-0.957-6.595-1.605C178.76,122.492,178.76,121.931,178.76,121.373z"/>
		<path fill="#BF2375" d="M166.068,133.159c-0.317-0.612-0.209-1.277-0.209-1.921c-0.007-9.833,0.018-19.665-0.022-29.498
			c-0.004-1.144,0.281-1.443,1.421-1.252c3.436,0.583,5.206,2.731,5.292,6.591c-1.543-0.604-3.216-0.741-4.771-1.313
			c-0.91-0.335-1.295,0.036-1.288,0.964c0.007,0.925,0.011,1.849,0.011,2.774c0.043,1.158,0.036,2.317,0.011,3.475
			c0.036,1.288,0.04,2.58,0,3.868c0.029,1.029,0.04,2.062-0.004,3.09c0.018,1.022,0.043,2.044,0,3.065
			c0.022,0.925,0.032,1.849-0.004,2.774c0.011,0.579,0.029,1.162,0,1.741c0.018,0.662,0.025,1.32,0.007,1.982
			c-0.018,0.831,0.04,1.666-0.018,2.497C166.485,132.436,166.453,132.864,166.068,133.159z"/>
		<path fill="#801870" d="M189.637,143.776c-1.626-1.418-3.752-1.151-5.645-1.666c-1.957-0.536-3.9-1.151-5.89-1.504
			c-2.875-0.507-5.674-1.331-8.541-1.849c-0.363-0.065-0.756-0.036-0.979,0.363c-0.378-0.317-0.68-0.684-0.809-1.173
			c0.014-0.511,0.029-0.907,0.792-0.687c1.191,0.342,2.428,0.496,3.637,0.809c3.533,0.907,7.124,1.583,10.689,2.367
			c1.579,0.349,3.152,0.741,4.727,1.112c2.432,0.572,4.864,1.137,7.293,1.713c0.173,0.04,0.363,0.104,0.356,0.518
			C193.393,143.776,191.515,143.776,189.637,143.776z"/>
		<path fill="#B92175" d="M166.129,109.324c-0.007-1.065,0.022-2.133-0.029-3.198c-0.043-0.939,0.432-1.184,1.202-0.928
			c1.45,0.482,2.893,0.964,4.429,1.043c0.572,0.029,0.464,0.644,0.824,0.838c0.072,0.507,0.201,1.011,0.201,1.518
			c0.014,7.796,0.014,15.593,0.014,23.385c-0.676-0.14-0.504-0.716-0.597-1.158c-0.032-0.64-0.029-1.281-0.014-1.925
			c-0.007-0.572-0.032-1.144-0.004-1.713c-0.029-0.921-0.036-1.842-0.007-2.763c-0.036-1.108-0.036-2.216-0.004-3.324
			c-0.032-1.025-0.036-2.047,0-3.072c-0.025-1.166-0.036-2.331,0.007-3.493c-0.086-1.058,0.36-2.241-0.234-3.148
			c-0.608-0.925-1.907-0.493-2.842-0.885C168.097,110.101,166.953,110.119,166.129,109.324z"/>
		<path fill="#8A1A71" d="M203.117,142.956c-3.605-1.32-7.419-1.802-11.106-2.799c-2.277-0.615-4.605-1.047-6.872-1.702
			c-0.835-0.241-1.936,0.209-2.504-0.835c1.68,0,3.36,0,5.044,0c3.447,0.759,6.857,1.677,10.311,2.4
			c1.781,0.374,3.504,0.961,5.296,1.295c0.497,0.094,0.982,0.317,1.256,0.809C204.207,142.639,203.711,142.877,203.117,142.956z"/>
		<path fill="#A41E73" d="M210.982,132.328c-0.014,0.176-0.029,0.353-0.043,0.525c-0.338,0.45,0.011,1.018-0.259,1.479
			c-0.072,0.892-0.335,1.713-0.867,2.443c-1.489-1.871-3.645-1.759-5.71-1.907c-0.309-0.022-0.633,0.205-0.935-0.047
			c0.511-0.979,0.899-1.997,1.076-3.09c0.169-0.227,0.068-0.601,0.392-0.745c0.443-0.194,0.917-0.223,1.346-0.054
			c1.507,0.594,3.155,0.576,4.677,1.101C210.795,132.098,210.903,132.199,210.982,132.328z"/>
		<path fill="#911B72" d="M207.291,140.15c-0.36,0.561-0.777,1.069-1.41,1.346c-3.922-0.975-7.876-1.81-11.793-2.803
			c-0.788-0.201-1.795-0.05-2.205-1.072c2.295-0.011,4.591-0.022,6.886-0.032c2.853-0.083,5.501,0.809,8.145,1.709
			C207.28,139.419,207.579,139.682,207.291,140.15z"/>
		<path fill="#BC2376" d="M207.571,119.992c-0.932-0.13-2.414,0.514-3.144-0.241c-0.72-0.745-0.201-2.216-0.216-3.364
			c-0.036-2.882-0.011-2.882,2.903-2.882c1.025,0,2.051,0.036,3.072-0.011c0.741-0.036,0.971,0.252,0.95,0.971
			c-0.04,1.489-0.058,2.979,0.007,4.465c0.04,0.885-0.299,1.144-1.13,1.079C209.277,119.945,208.528,119.992,207.571,119.992z"/>
		<path fill="#8D1A71" d="M191.882,137.621c1.641,0.756,3.429,0.971,5.163,1.385c2.605,0.626,5.228,1.173,7.836,1.784
			c0.399,0.094,0.795,0.288,1,0.705c-0.532,0.025-0.738,0.745-1.338,0.63c-4.303-1.245-8.689-2.151-13.045-3.177
			c-1.284-0.302-2.709-0.432-3.821-1.328C189.079,137.621,190.482,137.621,191.882,137.621z"/>
		<path fill="#921B72" d="M172.529,130.896c0.065,0.367-0.097,0.784,0.237,1.09c0.126,0.568,0.248,1.137,0.374,1.705
			c-2.393-0.32-4.745-0.813-7.008-1.677c-0.004-0.838-0.004-1.677-0.007-2.515C168.313,129.734,170.464,130.123,172.529,130.896z"/>
		<path fill="#AC2175" d="M204.495,131.177c-0.083,0.184-0.169,0.367-0.252,0.554c-0.014-1.439,0.007-2.882-0.054-4.321
			c-0.032-0.77,0.295-0.946,0.986-0.932c1.673,0.036,3.35,0.014,5.022,0.011c0.5,0,0.961,0.022,0.928,0.705
			c-0.079,1.713,0.184,3.432-0.144,5.138l-0.079-0.058c-0.536-0.698-0.313-1.522-0.36-2.295c-0.036-0.601-0.14-1.115-0.849-1.245
			c-1.238-0.227-2.428-0.637-3.659-0.899c-1.043-0.223-1.194,0.183-1.173,1.061C204.884,129.662,205.056,130.49,204.495,131.177z"/>
		<path fill="#971C72" d="M207.291,140.15c-0.032-0.306-0.18-0.468-0.5-0.568c-2.634-0.835-5.335-1.385-8.027-1.993
			c0.957-0.396,1.918-0.792,2.878-1.187c1.874,0.511,3.767,0.95,5.634,1.479c0.522,0.148,1.418,0.115,1.133,1.144
			C208.14,139.499,207.87,139.977,207.291,140.15z"/>
		<path fill="#9F1D73" d="M203.164,134.818c1.907-0.773,3.659,0.022,5.472,0.464c0.928,0.227,1.281,0.601,1.173,1.493
			c-0.04,0.385-0.223,0.687-0.507,0.943c-1.4-0.604-2.896-0.845-4.378-1.137c-0.856-0.169-1.727-0.327-2.177-1.227
			C202.887,135.174,203.027,134.998,203.164,134.818z"/>
		<path fill="#9A1C72" d="M202.75,135.354c1.529,0.986,3.324,1.043,5.022,1.389c0.705,0.144,1.227,0.324,1.533,0.975
			c-0.169,0.525-0.468,0.957-0.892,1.306c-0.115-0.756-0.799-0.68-1.281-0.813c-1.457-0.41-2.925-0.777-4.404-1.108
			c-0.475-0.108-0.903-0.187-1.087-0.702C202.013,136.052,202.38,135.703,202.75,135.354z"/>
		<path fill="#8D1B72" d="M166.132,132.015c2.407,0.263,4.763,0.741,7.008,1.677c0.198,0.371,0.396,0.741,0.597,1.108
			c-0.543,0.432-1.144,0.248-1.713,0.108c-1.382-0.342-2.806-0.464-4.173-0.863c-0.612-0.18-1.076-0.065-1.432,0.464l-0.065,0.054
			c-0.317-0.425-0.281-0.917-0.284-1.403C166.089,132.778,166.111,132.397,166.132,132.015z"/>
		<path fill="#A11F74" d="M178.976,128.378c2.482,0.403,4.893,1.054,7.289,1.842c1.047,0.345,2.292,0.076,3.447,0.122
			c0.536,0.022,1.119-0.191,1.597,0.23c-3.051,0.018-6.102,0.086-9.149,0.032C180.678,130.58,179.523,129.857,178.976,128.378z"/>
		<path fill="#891A71" d="M166.42,134.512c-0.133-0.971,0.201-1.184,1.176-0.946c2.029,0.493,4.094,0.835,6.141,1.238
			c0.421,0.471,0.838,0.946,1.259,1.417C172.087,135.904,169.338,134.778,166.42,134.512z"/>
		<path fill="#C92979" d="M210.953,100.628c-1.763,0.004-3.529,0.047-5.292-0.007c-0.925-0.029-1.227,0.306-1.184,1.209
			c0.061,1.252,0.076,2.511-0.004,3.76c-0.065,1.033,0.389,1.252,1.31,1.223c1.716-0.054,3.436-0.014,5.152-0.014
			c-2.054,0.461-4.134,0.101-6.203,0.191c-0.525,0.022-0.532-0.403-0.532-0.788c0-1.673,0.004-3.346,0-5.019
			c0-0.399,0.036-0.792,0.561-0.763C206.823,100.528,208.902,100.132,210.953,100.628z"/>
		<path fill="#CA2879" d="M198.282,100.639c-5.526-0.011-11.049-0.022-16.575-0.029c0.313-0.061,0.622-0.176,0.935-0.176
			c4.961-0.011,9.926-0.011,14.888-0.004C197.793,100.427,198.095,100.344,198.282,100.639z"/>
		<path fill="#A81F74" d="M210.68,134.336c0.032-0.504-0.219-1.054,0.259-1.479C210.975,133.372,210.978,133.879,210.68,134.336z"/>
		<path fill="#B01F74" d="M172.529,114.368c0,1.212,0,2.428,0,3.641c-0.299,0.27-0.662,0.381-1.036,0.291
			c-1.799-0.435-3.648-0.662-5.364-1.41c0-1.306,0-2.616,0-3.922c0.184-0.162,0.414-0.281,0.64-0.219
			C168.69,113.282,170.716,113.451,172.529,114.368z"/>
		<path fill="#B52074" d="M172.529,114.368c-1.705-0.076-3.296-0.684-4.936-1.061c-0.489-0.112-0.975-0.227-1.464-0.338
			c0-1.212,0-2.428,0-3.641c1.867,0.306,3.609,1.144,5.523,1.256c0.619,0.036,0.961,0.425,0.91,1.14
			C172.5,112.598,172.536,113.483,172.529,114.368z"/>
		<path fill="#AB1F74" d="M166.129,116.887c1.666-0.119,3.173,0.604,4.756,0.91c0.55,0.108,1.087,0.219,1.644,0.209
			c0,1.029,0,2.054,0,3.083c-0.144,0.119-0.295,0.27-0.475,0.273c-2.09,0.029-4.098-0.302-5.926-1.392
			C166.129,118.945,166.129,117.916,166.129,116.887z"/>
		<path fill="#A71E73" d="M166.129,119.974c2.144,0.309,4.177,1.256,6.4,1.119c0,1.119,0,2.241,0,3.36
			c-0.223,0.194-0.493,0.288-0.766,0.216c-1.889-0.493-3.922-0.496-5.634-1.615C166.129,122.024,166.129,120.999,166.129,119.974z"
			/>
		<path fill="#A41D73" d="M166.129,123.053c2.133,0.468,4.267,0.935,6.4,1.4c0,0.932,0,1.867,0,2.799
			c-1.417,0.313-2.698-0.414-4.055-0.586c-0.784-0.101-1.655-0.281-2.346-0.813C166.129,124.921,166.129,123.985,166.129,123.053z"
			/>
		<path fill="#991C72" d="M172.529,130.896c-2.191-0.201-4.353-0.536-6.404-1.392c0-0.655,0-1.313,0.004-1.968
			c0.594-0.518,1.256-0.212,1.864-0.09c1.569,0.313,3.22,0.403,4.54,1.486C172.529,129.587,172.529,130.242,172.529,130.896z"/>
		<path fill="#9F1D73" d="M172.529,128.928c-2.105-0.601-4.206-1.223-6.4-1.396c0-0.561,0-1.122,0-1.68
			c2.173,0.291,4.303,0.774,6.4,1.4C172.529,127.813,172.529,128.371,172.529,128.928z"/>
		<path fill="#A81F74" d="M204.495,131.177c0-0.514-0.004-1.025-0.004-1.54c0-2.666,0.007-2.688,2.637-2.011
			c1.033,0.266,2.022,0.698,3.101,0.748c0.669,0.029,0.705,0.464,0.702,0.964c-0.014,0.979-0.018,1.957-0.029,2.936
			c-1.576-0.187-3.166-0.299-4.652-0.917C205.672,131.112,205.082,131.213,204.495,131.177z"/>
		<path fill="#B82275" d="M207.582,119.689c-0.047,0-0.094,0-0.14,0c-3.18,0-3.411-0.284-2.961-3.461
			c0.072-0.518,0.241-0.752,0.784-0.705c1.806,0.162,3.479,0.892,5.256,1.227c0.885,0.169,0.295,1.468,0.385,2.249
			c0.079,0.669-0.46,0.691-0.95,0.687C209.165,119.686,208.374,119.686,207.582,119.689z"/>
	</g>
	<path fill="#194C51" d="M-54.701-50.233c-0.011,3.637-1.997,5.8-5.31,5.782c-3.27-0.018-5.31-2.281-5.278-5.854
		c0.032-3.594,2.094-5.828,5.346-5.796C-56.659-56.072-54.687-53.866-54.701-50.233z"/>
	<path fill="#194C51" d="M-88.765-50.247c0-3.72,1.885-5.857,5.174-5.861c3.299-0.004,5.238,2.144,5.249,5.814
		c0.011,3.691-1.9,5.839-5.195,5.843C-86.873-44.447-88.765-46.545-88.765-50.247z"/>
	<path fill="#194C51" d="M-70.916-44.462c-2.831,0.036-4.648-0.827-5.465-3.058c-0.896-2.439-0.899-4.875,0.892-6.994
		c1.558-1.842,3.645-1.752,5.756-1.374c0.371,0.065,0.756,0.273,1.051,0.514c0.748,0.604,1.932,1.299,1.27,2.324
		c-0.669,1.04-1.569,0.482-2.407-0.356c-1.263-1.263-2.846-1.087-3.929,0.194c-1.428,1.687-1.277,3.731-0.223,5.559
		c0.802,1.389,2.216,1.558,3.666,1.015c0.637-0.237,1.342-0.529,1.252-1.425c-0.086-0.896-0.824-0.669-1.353-0.684
		c-0.723-0.018-1.105-0.277-1.061-1.043c0.05-0.853,0.705-0.943,1.263-0.817c1.173,0.266,3.04-0.979,3.378,1.115
		c0.291,1.799,0.554,3.904-2.018,4.566C-69.697-44.71-70.564-44.541-70.916-44.462z"/>
	<path fill="#194C51" d="M-97.594-50.348c0-1.378-0.007-2.759,0.004-4.137c0.007-0.68-0.079-1.392,0.982-1.418
		c1.101-0.025,1.31,0.568,1.295,1.486c-0.025,1.871,0.097,3.752-0.032,5.616c-0.122,1.752,0.367,2.623,2.267,2.339
		c0.673-0.101,1.378-0.022,2.065-0.004c0.655,0.018,1.14,0.216,1.094,1.029c-0.04,0.644-0.439,0.82-0.964,0.827
		c-1.871,0.018-3.745-0.004-5.616,0.025c-0.961,0.014-1.115-0.536-1.105-1.324C-97.576-47.39-97.594-48.869-97.594-50.348z"/>
	<path fill="#FFFFFF" d="M-57.011-50.43c-0.036,2.115-0.5,4.001-2.968,3.986c-2.436-0.014-3.001-1.918-2.99-3.929
		c0.007-1.903,0.59-3.648,2.871-3.734C-57.587-54.204-57.076-52.406-57.011-50.43z"/>
	<path fill="#FFFFFF" d="M-80.508-50.323c-0.227,1.943-0.558,3.94-3.076,3.896c-2.493-0.043-2.921-1.975-2.907-3.968
		c0.011-1.9,0.496-3.655,2.835-3.727C-81.102-54.204-80.749-52.269-80.508-50.323z"/>
	<path fill="#DDDDDD" d="M53.156,84.478c-52.081,0-104.166-0.058-156.247,0.104c-4.368,0.014-5.803-1.047-5.476-5.476
		c0.407-5.436,0.176-10.93,0.061-16.395c-0.05-2.353,0.669-3.555,3.177-3.299c0.853,0.086,1.723,0.011,2.587,0.011
		c103.878,0,207.752,0,311.63,0c5.591,0,5.591,0.004,5.594,5.584c0.004,4.749-0.27,9.516,0.083,14.236
		c0.302,4.094-0.921,5.361-5.166,5.332c-27.767-0.191-55.535-0.097-83.302-0.097C101.787,84.478,77.469,84.478,53.156,84.478z"/>
	<path fill="#7F7F81" d="M161.534,21.262c-9.617,0-19.234-0.097-28.847,0.061c-2.9,0.047-3.994-0.651-3.965-3.778
		c0.072-8.127-0.083-8.127,8.113-8.127c17.654,0,35.308,0.086,52.963-0.076c3.382-0.029,4.814,0.543,4.673,4.364
		c-0.284,7.544-0.05,7.555-7.527,7.555C178.469,21.262,170.004,21.262,161.534,21.262z"/>
	<path fill="none" stroke="#4B7E7F" stroke-width="0.5" stroke-miterlimit="10" d="M161.534,5.871
		c-9.617,0-19.234-0.097-28.847,0.061c-2.9,0.047-3.994-0.651-3.965-3.778c0.072-8.127-0.083-8.127,8.113-8.127
		c17.654,0,35.308,0.086,52.963-0.076c3.382-0.029,4.814,0.543,4.673,4.364c-0.284,7.544-0.05,7.555-7.527,7.555
		C178.469,5.871,170.004,5.871,161.534,5.871z"/>
	<path fill="#194C51" d="M10.119-46.764c-9.761,0-19.521-0.079-29.279,0.05c-2.619,0.036-3.878-0.378-3.745-3.439
		c0.115-2.605,0.486-3.752,3.508-3.731c19.662,0.14,39.327,0.169,58.985-0.022c3.465-0.032,3.008,1.727,3.209,3.94
		c0.255,2.803-0.863,3.299-3.403,3.26C29.641-46.847,19.88-46.764,10.119-46.764z"/>
	<path fill="#194C51" d="M85.499-46.764c-9.635,0-19.273-0.115-28.908,0.068c-2.939,0.058-3.914-0.608-3.896-3.724
		c0.018-3.019,1.137-3.457,3.756-3.447c19.417,0.09,38.834,0.101,58.248-0.007c2.734-0.014,3.781,0.586,3.727,3.537
		c-0.05,2.727-0.648,3.702-3.587,3.645C105.064-46.887,95.278-46.764,85.499-46.764z"/>
	<path fill="#194C51" d="M160.955-46.764c-9.772,0-19.547-0.112-29.318,0.068c-2.867,0.054-3.565-0.82-3.569-3.594
		c-0.004-2.803,0.759-3.609,3.598-3.591c19.547,0.122,39.093,0.13,58.636-0.007c2.914-0.022,3.511,0.907,3.54,3.623
		c0.029,2.799-0.73,3.616-3.573,3.565C180.502-46.876,170.727-46.764,160.955-46.764z"/>
	<path fill="#4B7E7F" d="M11.598,16.096c-9.912,0-19.82,0.022-29.732-0.022c-1.597-0.007-3.878,0.568-3.828-2.126
		c0.05-2.867,2.479-1.82,3.936-1.824c19.532-0.068,39.068-0.061,58.6-0.011c1.5,0.004,3.839-0.874,3.778,2.026
		c-0.061,2.878-2.4,1.91-3.886,1.921C30.842,16.135,21.218,16.096,11.598,16.096z"/>
	<path fill="#4B7E7F" d="M86.262,22.183c-9.617,0-19.234,0.025-28.847-0.025c-1.561-0.007-3.839,0.676-3.655-2.187
		c0.158-2.493,2.238-1.774,3.648-1.774c19.518-0.043,39.039-0.04,58.557-0.007c1.569,0.004,3.839-0.655,3.659,2.198
		c-0.158,2.5-2.241,1.759-3.648,1.767C106.068,22.212,96.167,22.183,86.262,22.183z"/>
	<path fill="#4B7E7F" d="M162.2-33.816c-9.919,0-19.838,0.029-29.757-0.032c-1.371-0.007-3.547,0.795-3.357-1.921
		c0.162-2.321,2.105-1.518,3.342-1.522c19.838-0.05,39.676-0.047,59.518-0.007c1.389,0.004,3.558-0.73,3.371,1.946
		c-0.162,2.313-2.123,1.489-3.357,1.497C182.038-33.787,172.119-33.816,162.2-33.816z"/>
	<path fill="#4B7E7F" d="M11.584-32.884c-10.059,0-20.122,0.025-30.182-0.032c-1.259-0.007-3.202,0.73-3.332-1.561
		c-0.155-2.698,2.044-1.885,3.407-1.889c19.834-0.047,39.669-0.047,59.503,0.004c1.234,0.004,3.18-0.802,3.314,1.536
		c0.151,2.702-2.018,1.9-3.389,1.91C31.13-32.855,21.355-32.884,11.584-32.884z"/>
	<path fill="#4B7E7F" d="M11.102-20.055c9.912,0,19.824-0.032,29.732,0.04c1.335,0.011,3.547-0.896,3.454,1.82
		c-0.079,2.331-2.029,1.583-3.278,1.587c-19.82,0.043-39.644,0.047-59.464-0.004c-1.353-0.004-3.619,0.842-3.457-1.828
		c0.155-2.551,2.371-1.558,3.709-1.572C-8.434-20.094,1.334-20.055,11.102-20.055z"/>
	<path fill="#4B7E7F" d="M10.889-0.245c-9.196,0-18.399,0.112-27.591-0.101c-1.734-0.04-5.12,1.727-5.091-1.759
		c0.025-2.921,3.17-1.579,4.871-1.59C1.906-3.8,20.729-3.804,39.556-3.688c1.641,0.011,4.803-1.436,4.673,1.777
		c-0.122,2.968-3.184,1.565-4.889,1.594C29.864-0.17,20.377-0.245,10.889-0.245z"/>
	<path fill="#4B7E7F" d="M11.53,48.231c-10.067,0-20.133,0.025-30.2-0.032c-1.256-0.007-3.166,0.723-3.274-1.612
		c-0.108-2.382,1.799-1.799,3.087-1.799c19.989-0.032,39.978-0.036,59.964,0.007c1.248,0.004,3.213-0.73,3.256,1.608
		c0.05,2.702-2.166,1.777-3.501,1.788C31.087,48.267,21.308,48.231,11.53,48.231z"/>
	<path fill="#4B7E7F" d="M162.243-28.779c9.912,0,19.82-0.025,29.732,0.032c1.27,0.007,3.224-0.694,3.335,1.569
		c0.126,2.644-2.058,1.878-3.439,1.882c-19.82,0.043-39.64,0.043-59.46,0c-1.263-0.004-3.202,0.712-3.317-1.569
		c-0.137-2.691,2.065-1.867,3.425-1.874C142.423-28.812,152.335-28.779,162.243-28.779z"/>
	<path fill="#4B7E7F" d="M11.584,31.929c-10.052,0-20.108,0.025-30.16-0.032c-1.266-0.007-3.22,0.712-3.35-1.547
		c-0.151-2.652,2.04-1.892,3.421-1.896c19.82-0.043,39.64-0.043,59.46,0c1.256,0.004,3.198-0.738,3.332,1.547
		c0.158,2.695-2.04,1.882-3.403,1.889C31.116,31.958,21.348,31.929,11.584,31.929z"/>
	<path fill="#4B7E7F" d="M-64.056-37.327c9.764,0,19.529-0.036,29.289,0.043c1.356,0.011,3.551-0.943,3.72,1.587
		c0.18,2.666-2.072,1.846-3.436,1.849c-19.813,0.05-39.629,0.047-59.442,0c-1.245-0.004-3.191,0.748-3.285-1.572
		c-0.112-2.688,2.072-1.86,3.432-1.867C-83.868-37.356-73.96-37.327-64.056-37.327z"/>
	<path fill="#194C51" d="M-60.264,70.245c9.764,0,19.529-0.036,29.289,0.043c1.356,0.011,3.551-0.943,3.72,1.587
		c0.18,2.666-2.072,1.846-3.436,1.849c-19.813,0.05-39.629,0.047-59.442,0c-1.245-0.004-3.191,0.748-3.285-1.572
		c-0.112-2.688,2.072-1.86,3.432-1.867C-80.076,70.217-70.168,70.245-60.264,70.245z"/>
	<path fill="#194C51" d="M151.885,70.245c9.764,0,19.529-0.036,29.289,0.043c1.356,0.011,3.551-0.943,3.72,1.587
		c0.18,2.666-2.072,1.846-3.436,1.849c-19.813,0.05-39.629,0.047-59.442,0c-1.245-0.004-3.191,0.748-3.285-1.572
		c-0.112-2.688,2.072-1.86,3.432-1.867C132.069,70.217,141.977,70.245,151.885,70.245z"/>
	<path fill="#4B7E7F" d="M-64.102-25.271c-9.923,0-19.845,0.025-29.768-0.029c-1.274-0.007-3.213,0.684-3.332-1.572
		c-0.14-2.688,2.076-1.867,3.436-1.871c19.845-0.05,39.69-0.047,59.536-0.007c1.266,0.004,3.249-0.655,3.17,1.702
		c-0.072,2.137-1.903,1.763-3.274,1.766C-44.257-25.261-54.18-25.271-64.102-25.271z"/>
	<path fill="#4B7E7F" d="M86.96,3.521c-9.901,0-19.802,0.025-29.703-0.032c-1.392-0.007-3.591,0.702-3.418-1.914
		c0.144-2.173,2.083-1.551,3.375-1.554c19.802-0.036,39.604-0.032,59.403-0.007c1.486,0.004,3.583-0.432,3.447,2.011
		c-0.126,2.213-2.141,1.453-3.403,1.464C106.762,3.55,96.861,3.521,86.96,3.521z"/>
	<path fill="#4B7E7F" d="M87.118-18.195c9.494,0,18.985-0.047,28.48,0.05c1.453,0.014,3.972-1.061,3.922,1.81
		c-0.043,2.5-2.342,1.59-3.698,1.594c-19.417,0.061-38.834,0.061-58.251,0c-1.356-0.004-3.652,0.917-3.702-1.587
		c-0.061-2.878,2.461-1.802,3.911-1.817C67.554-18.238,77.336-18.195,87.118-18.195z"/>
	<path fill="#4B7E7F" d="M86.676,36.833c9.635,0,19.273-0.047,28.908,0.05c1.443,0.014,3.968-1.083,3.932,1.788
		c-0.029,2.482-2.313,1.63-3.688,1.633c-19.417,0.054-38.831,0.054-58.248,0c-1.374-0.004-3.648,0.863-3.713-1.605
		c-0.076-2.896,2.461-1.802,3.9-1.817C67.403,36.783,77.038,36.833,86.676,36.833z"/>
	<path fill="#4B7E7F" d="M86.723-32.884c-9.761,0-19.521,0.036-29.282-0.04c-1.349-0.011-3.562,0.892-3.609-1.691
		c-0.047-2.652,2.205-1.734,3.54-1.738c19.521-0.058,39.043-0.061,58.564,0c1.335,0.004,3.565-0.928,3.609,1.673
		c0.043,2.623-2.191,1.749-3.54,1.759C106.244-32.848,96.483-32.884,86.723-32.884z"/>
	<path fill="#4B7E7F" d="M151.443-20.731c6.598,0,13.193-0.032,19.791,0.025c1.425,0.011,3.479-0.644,3.418,1.954
		c-0.05,2.094-1.72,1.986-3.141,1.986c-13.193,0.018-26.39,0.014-39.583,0.011c-1.446,0-3.001,0.151-2.939-2.069
		c0.065-2.263,1.727-1.889,3.098-1.896C138.534-20.742,144.988-20.727,151.443-20.731z"/>
	<path fill="#4B7E7F" d="M-74.352-20.731c6.177,0,12.355-0.047,18.528,0.032c1.554,0.022,3.925-0.795,4.069,1.835
		c0.148,2.72-2.238,2.083-3.814,2.09c-12.783,0.047-25.569,0.04-38.352,0.007c-1.475-0.004-3.461,0.493-3.368-2.065
		c0.09-2.558,2.126-1.856,3.544-1.871C-87.279-20.763-80.814-20.731-74.352-20.731z"/>
	<path fill="#4B7E7F" d="M-60.544,29.22c7.901,0,15.805-0.072,23.706,0.065c1.421,0.025,3.965-1.252,4.091,1.565
		c0.133,2.921-2.461,1.777-3.878,1.784c-15.661,0.086-31.322,0.09-46.983-0.007c-1.418-0.007-4.022,1.212-4.065-1.572
		c-0.047-3.195,2.785-1.731,4.285-1.763C-75.777,29.134-68.157,29.22-60.544,29.22z"/>
	<path fill="#4B7E7F" d="M-60.559,1.625c8.045,0,16.089-0.047,24.13,0.043c1.349,0.014,3.565-0.964,3.709,1.579
		c0.151,2.644-2.101,1.828-3.465,1.831c-16.089,0.054-32.175,0.05-48.264,0.004c-1.256-0.004-3.216,0.709-3.288-1.59
		c-0.083-2.666,2.112-1.82,3.475-1.831C-76.356,1.586-68.459,1.625-60.559,1.625z"/>
	<path fill="#4B7E7F" d="M72.566-24.437c-5.325,0-10.649-0.004-15.97,0c-1.515,0-2.99-0.022-2.875-2.18
		c0.097-1.892,1.471-1.842,2.788-1.842c10.793-0.004,21.583-0.004,32.376,0.004c1.533,0,2.957,0.194,2.896,2.263
		c-0.058,1.993-1.558,1.738-2.81,1.745C83.503-24.422,78.034-24.437,72.566-24.437z"/>
	<path fill="#4B7E7F" d="M-65.034,13.646c-6.325,0-12.646,0.058-18.971-0.043c-1.349-0.022-3.555,0.957-3.716-1.576
		c-0.169-2.677,2.101-1.824,3.454-1.831c12.934-0.061,25.868-0.054,38.802-0.011c1.256,0.004,3.245-0.676,3.123,1.723
		c-0.112,2.162-1.936,1.716-3.292,1.723C-52.1,13.664-58.565,13.642-65.034,13.646z"/>
	<path fill="#4B7E7F" d="M72.519,48.281c-5.296,0-10.595,0.022-15.891-0.018c-1.202-0.007-2.759,0.363-2.842-1.644
		c-0.083-2.018,1.421-1.81,2.684-1.81c10.88-0.014,21.759-0.014,32.642-0.004c1.292,0,2.745-0.13,2.619,1.867
		c-0.126,2.015-1.702,1.579-2.889,1.59C83.398,48.303,77.959,48.281,72.519,48.281z"/>
	<path fill="#4B7E7F" d="M72.569-6.282c-5.321,0-10.642,0.018-15.963-0.014c-1.245-0.007-2.792,0.252-2.81-1.734
		c-0.014-1.993,1.536-1.749,2.777-1.752C67.36-9.805,78.146-9.805,88.932-9.787c1.241,0.004,2.777-0.263,2.795,1.731
		c0.022,2.011-1.515,1.752-2.763,1.756C83.499-6.268,78.034-6.282,72.569-6.282z"/>
	<path fill="#4B7E7F" d="M72.814,26.601c5.299,0,10.603-0.025,15.902,0.018c1.328,0.011,3.126-0.464,3.004,1.892
		c-0.104,2.033-1.709,1.572-2.889,1.576c-10.746,0.032-21.489,0.029-32.236,0.004c-1.205-0.004-2.752,0.345-2.81-1.677
		c-0.058-2.029,1.446-1.792,2.695-1.799C61.923,26.587,67.367,26.601,72.814,26.601z"/>
	<path fill="#194C51" d="M-68.301,20.654c5.17,0,10.34-0.014,15.51,0.011c1.364,0.007,3.044-0.421,2.943,1.943
		c-0.086,2.115-1.651,1.615-2.817,1.619c-10.772,0.032-21.54,0.029-32.311,0.007c-1.335-0.004-3.051,0.496-2.925-1.925
		c0.108-2.079,1.601-1.637,2.799-1.644C-79.504,20.636-73.903,20.654-68.301,20.654z"/>
	<path fill="#194C51" d="M-68.758-6.916c5.17,0,10.34-0.043,15.51,0.029c1.392,0.018,3.468-0.763,3.382,1.932
		c-0.076,2.382-1.957,1.659-3.206,1.666c-10.484,0.054-20.968,0.058-31.452-0.004c-1.353-0.007-3.515,0.856-3.353-1.907
		c0.158-2.655,2.277-1.644,3.605-1.673C-79.098-6.98-73.928-6.916-68.758-6.916z"/>
	<path fill="#4B7E7F" d="M72.76,11.908c-5.307,0-10.61,0.025-15.916-0.014c-1.342-0.011-3.152,0.432-3.037-1.885
		c0.097-1.99,1.727-1.565,2.914-1.569c10.754-0.032,21.511-0.029,32.265-0.004c1.198,0.004,2.752-0.381,2.81,1.662
		c0.058,2.033-1.432,1.795-2.688,1.802C83.657,11.919,78.21,11.908,72.76,11.908z"/>
	<path fill="#7F7F81" d="M-93.413,41.237c3.094,0.486,4.983,2.112,4.846,5.386c-0.13,3.098-2.155,4.763-5.004,4.706
		c-3.13-0.065-5.03-2.126-4.893-5.307C-98.335,43.043-96.378,41.517-93.413,41.237z"/>
	<path fill="#7F7F81" d="M-74.759,46.284c-0.374,3.245-2.195,5.152-5.328,5.033c-2.921-0.112-4.846-2.112-4.789-5.037
		c0.061-3.116,2.022-5.055,5.264-4.929C-76.587,41.463-75.104,43.421-74.759,46.284z"/>
	<path fill="#7F7F81" d="M-65.405,41.258c3.18,0.302,5.134,2.058,5.073,5.21c-0.054,2.95-2.069,4.846-4.972,4.85
		c-3.112,0-5.156-1.925-5.055-5.152C-70.265,43.223-68.412,41.553-65.405,41.258z"/>
	<path fill="#7F7F81" d="M-56.731,46.248c0.223-2.821,1.738-4.731,4.735-4.897c3.256-0.176,5.199,1.777,5.271,4.886
		c0.072,3.17-2.022,5.148-5.127,5.098C-54.719,51.289-56.5,49.447-56.731,46.248z"/>
	<path fill="#7F7F81" d="M-94.1-9.682c2.713,0.356,4.35,1.766,4.339,4.209c-0.011,2.662-1.766,4.382-4.436,4.213
		c-2.378-0.151-3.968-1.759-3.868-4.328C-97.964-8.157-96.248-9.294-94.1-9.682z"/>
	<path fill="#7F7F81" d="M-93.985,26.356c-2.317-0.425-4.065-1.569-4.073-4.166c-0.007-2.5,1.389-4.116,3.94-4.191
		c2.759-0.079,4.386,1.605,4.353,4.245C-89.79,24.701-91.474,26.072-93.985,26.356z"/>
</g>
</svg>
