<?xml version="1.0" encoding="utf-8"?>
<!-- Generator: Adobe Illustrator 17.0.0, SVG Export Plug-In . SVG Version: 6.00 Build 0)  -->
<!DOCTYPE svg PUBLIC "-//W3C//DTD SVG 1.1//EN" "http://www.w3.org/Graphics/SVG/1.1/DTD/svg11.dtd">
<svg version="1.1" id="Layer_1" xmlns="http://www.w3.org/2000/svg" xmlns:xlink="http://www.w3.org/1999/xlink" x="0px" y="0px"
	 width="418px" height="130.33px" viewBox="-158.822 -82.585 418 245.33" enable-background="new -158.822 -82.585 418 245.33"
	 xml:space="preserve">
<rect x="-158.822" y="-81.252" fill="#FFFFFF" width="418" height="242.665"/>
<g>
	<g>
		<path fill="#FEFEFE" d="M49.937,144.61c-55.448,0-110.895-0.022-166.339,0.057c-2.779,0.007-3.328-0.402-3.324-2.466
			c0.093-65.414,0.093-130.831,0-196.244c-0.004-2.061,0.546-2.466,3.324-2.466c110.895,0.068,221.787,0.068,332.682,0
			c2.779-0.004,3.328,0.402,3.324,2.466c-0.093,65.414-0.093,130.831,0,196.244c0.004,2.061-0.546,2.47-3.324,2.466
			C160.832,144.588,105.384,144.61,49.937,144.61z"/>
		<path fill="#D8D9D9" d="M50.816,76.052c-51.965,0-103.931-0.047-155.892,0.09c-4.035,0.011-5.5-0.876-5.335-5.152
			c0.334-8.602,0.28-17.228,0.014-25.834c-0.115-3.719,1.213-4.505,4.674-4.488c26.699,0.129,53.401,0.072,80.1,0.072
			c77.372,0,154.744,0.032,232.115-0.09c4.2-0.007,5.791,0.793,5.568,5.374c-0.413,8.451-0.334,16.941-0.022,25.399
			c0.147,3.96-1.242,4.717-4.9,4.71C155.034,76.016,102.925,76.052,50.816,76.052z"/>
		<path fill="#194C51" d="M50.64,2.701c-32.874,0-65.747,0.011-98.625-0.036c-1.587-0.004-4.006,1.052-3.902-2.272
			c0.054-1.687,0.298-2.836,2.341-2.621c0.711,0.075,1.436,0.007,2.15,0.007c65.46,0,130.924-0.007,196.384,0.039
			c1.443,0,3.26-0.847,4.322,0.836c1.332,2.107-0.19,4.032-3.195,4.035c-14.5,0.018-29,0.007-43.497,0.007
			C87.966,2.701,69.305,2.701,50.64,2.701z"/>
		<path fill="#194C51" d="M50.881,13.883c-32.859,0-65.715,0.014-98.574-0.043c-1.673-0.004-4.355,1.21-4.186-2.412
			c0.072-1.522,0.373-2.513,2.15-2.38c0.714,0.054,1.432,0.004,2.15,0.004c65.571,0,131.143,0,196.714,0
			c0.718,0,1.44,0.057,2.15-0.004c2.104-0.19,2.222,1.109,2.262,2.714c0.043,1.777-0.819,2.168-2.377,2.14
			c-3.586-0.065-7.173-0.018-10.759-0.018C110.572,13.883,80.725,13.883,50.881,13.883z"/>
		<path fill="#194C51" d="M51.254,20.191c22.233,0,44.466,0.022,66.699-0.032c2.269-0.004,4.017,0.039,3.568,3.102
			c-0.18,1.235-0.564,1.827-1.827,1.777c-0.858-0.036-1.72,0-2.581,0c-44.179,0-88.357,0.011-132.536-0.043
			c-1.418,0-3.26,0.898-4.261-0.887c-1.249-2.233,0.205-3.91,3.378-3.91C6.214,20.184,28.734,20.191,51.254,20.191z"/>
		<path fill="#194C51" d="M82.685-28.199c-0.054,4.933-2.883,7.902-7.553,7.927c-4.839,0.025-7.851-3.17-7.744-8.214
			c0.101-4.868,3.069-8.013,7.593-8.049C79.662-36.567,82.742-33.239,82.685-28.199z"/>
		<path fill="#194C51" d="M61.626-29.028c1.21,0.398,3.288-0.836,3.489,1.335c0.179,1.982,1.052,4.304-1.138,5.952
			c-2.725,2.05-8.372,1.928-10.892-0.291c-2.628-2.316-3.353-7.435-1.519-10.713c1.791-3.202,5.425-4.552,9.287-3.346
			c0.923,0.287,1.827,0.808,2.574,1.422c0.761,0.628,1.68,1.723,1.012,2.556c-0.693,0.862-2.1,0.966-3.041-0.057
			c-1.763-1.921-3.852-2.046-5.762-0.643c-2.269,1.666-2.125,4.204-1.472,6.667c0.668,2.509,2.456,3.367,4.9,3.08
			c1.156-0.136,2.474-0.413,2.771-1.633c0.456-1.87-1.145-1.511-2.204-1.619c-0.88-0.09-1.3-0.625-1.149-1.425
			C58.851-29.757,60.524-28.669,61.626-29.028z"/>
		<path fill="#194C51" d="M48.501-28.353c0.014,5.037-2.664,7.999-7.32,8.085c-4.958,0.093-7.751-2.818-7.747-8.063
			c0.007-4.99,2.746-8.074,7.291-8.2C45.446-36.66,48.486-33.462,48.501-28.353z"/>
		<path fill="#194C51" d="M20.667-28.594c0.004-1.863,0.018-3.726-0.004-5.59c-0.014-1.124,0.172-1.924,1.612-1.878
			c1.35,0.043,1.694,0.74,1.684,1.91c-0.018,2.581,0.165,5.173-0.047,7.736c-0.219,2.621,0.61,3.759,3.317,3.324
			c0.836-0.133,1.716-0.025,2.578-0.014c1.034,0.014,2.1,0.004,1.935,1.533c-0.136,1.246-1.124,1.02-1.928,1.099
			c-0.144,0.014-0.287-0.004-0.431,0.007C20.664-19.816,20.664-19.816,20.667-28.594z"/>
		<path fill="#194C51" d="M-60.804,55.201c-12.041,0-24.082,0.011-36.123-0.011c-1.623-0.004-3.673,0.556-3.615-2.265
			c0.057-2.71,2.107-1.845,3.457-1.845c24.369-0.047,48.738-0.047,73.107-0.004c1.49,0.004,3.759-0.88,3.59,2.132
			c-0.162,2.872-2.373,1.949-3.863,1.957C-36.435,55.226-48.62,55.201-60.804,55.201z"/>
		<path fill="#194C51" d="M52.812,63.153c10.612,0,21.221-0.018,31.833,0.022c1.418,0.004,3.256-0.657,3.328,2.007
			c0.072,2.606-1.626,2.186-3.148,2.186c-21.651,0.007-43.303,0.014-64.954-0.014c-1.422-0.004-3.321,0.671-3.36-1.992
			c-0.043-2.951,2.075-2.176,3.612-2.183C31.017,63.135,41.913,63.153,52.812,63.153z"/>
		<path fill="#4B7E7F" d="M171.537,52.936c-0.201,2.929-1.641,4.843-4.703,5.04c-3.353,0.219-5.198-1.723-5.223-4.875
			c-0.022-2.926,1.673-4.821,4.829-4.868C169.556,48.19,171.132,49.895,171.537,52.936z"/>
		<path fill="#4B7E7F" d="M180.785,58.048c-3.098-0.273-4.843-2.15-4.771-5.04c0.072-2.883,1.863-4.75,4.997-4.778
			c2.919-0.025,5.342,2.42,5.001,5.213C185.646,56.425,183.815,57.965,180.785,58.048z"/>
		<path fill="#4B7E7F" d="M194.294,58.033c-2.474-0.068-4.304-1.612-4.674-4.592c-0.345-2.789,2.093-5.238,5.004-5.213
			c3.138,0.029,4.739,1.888,5.048,4.782C199.945,55.596,197.551,57.911,194.294,58.033z"/>
		<path fill="#4B7E7F" d="M153.167,58.048c-3.026-0.14-4.915-1.558-5.098-4.649c-0.18-3.048,1.321-4.947,4.434-5.134
			c3.231-0.194,5.223,1.346,5.285,4.714C157.842,56.041,156.143,57.682,153.167,58.048z"/>
		<path fill="#FEFEFE" d="M79.342-28.367c-0.05,2.685-0.689,5.198-4.05,5.31c-3.558,0.118-4.559-2.416-4.556-5.392
			c0-2.811,0.969-5.155,4.322-5.166C78.431-33.627,79.296-31.34,79.342-28.367z"/>
		<path fill="#FEFEFE" d="M45.37-28.461c-0.373,2.908-0.998,5.471-4.401,5.414c-3.644-0.061-4.276-2.739-4.233-5.633
			c0.043-2.868,1.127-5.055,4.477-4.936C44.681-33.49,45.026-30.848,45.37-28.461z"/>
		<g>
			<path fill="#C52275" d="M171.735,97.66c0.528-1.023,1.35-1.608,2.513-1.68c3.292-0.237,6.591-0.068,9.887-0.097
				c2.219-0.018,4.437-0.086,6.652,0.126c0.23,1.953,0.133,3.913,0.054,5.87c-0.485,0.42-1.034,0.337-1.587,0.194
				c-4.814-1.249-9.715-2.132-14.536-3.346C173.695,98.471,172.6,98.371,171.735,97.66z"/>
			<path fill="#B32074" d="M190.841,112.505c0,1.307,0,2.61,0,3.917c-1.533,0.37-2.94-0.305-4.369-0.603
				c-4.412-0.926-8.77-2.118-13.182-3.062c-0.747-0.162-1.587-0.219-2.14-0.89c-0.047-1.149-0.036-2.298-0.007-3.446
				c0.402-0.553,0.908-0.302,1.389-0.176c4.046,1.07,8.157,1.863,12.228,2.833C186.788,111.557,188.834,111.944,190.841,112.505z"/>
			<path fill="#C22275" d="M171.304,108.315c0,1.21,0,2.423,0.004,3.633c0.574,0.851,0.323,1.806,0.355,2.728
				c0.014,0.664,0.029,1.332-0.004,1.996c0.022,0.582,0.022,1.163,0,1.741c0.036,0.926,0.022,1.852-0.004,2.779
				c0.007,0.528,0.022,1.055-0.438,1.44c-0.244-0.434-0.144-0.912-0.144-1.368c-0.004-6.939-0.004-13.879,0.007-20.818
				c0-0.973-0.043-1.967,0.653-2.782c2.739,0.617,5.5,1.145,8.207,1.874c3.199,0.858,6.516,1.174,9.661,2.255
				c0.381,0.129,0.826,0.068,1.239,0.093c0,0.933,0,1.863,0,2.797c-0.732,0.592-1.493,0.251-2.258,0.086
				c-4.99-1.081-9.923-2.412-14.934-3.385c-1.978-0.384-1.982-0.352-1.992,1.727c0.022,0.819,0.032,1.637,0.007,2.456
				C171.638,106.488,171.886,107.457,171.304,108.315z"/>
			<path fill="#B82174" d="M171.304,108.315c0-0.933,0-1.867,0-2.797c0.481-0.442,1.034-0.32,1.583-0.205
				c4.818,1.023,9.6,2.193,14.367,3.432c1.195,0.312,2.542,0.093,3.586,0.966c0,0.933,0,1.863,0,2.797
				c-3.594-0.068-6.972-1.253-10.422-2.043C177.378,109.765,174.266,109.356,171.304,108.315z"/>
			<path fill="#BE2275" d="M171.3,103.016c-0.004-0.047-0.011-0.093-0.014-0.14c-0.086-2.344-0.101-2.269,2.229-1.896
				c4.796,0.768,9.427,2.265,14.198,3.134c1.041,0.19,2.021,0.725,3.127,0.556c0,0.933,0,1.863,0,2.797
				c-0.56,0.442-1.167,0.208-1.738,0.075c-5.511-1.271-11.064-2.348-16.532-3.802C172.083,103.616,171.548,103.569,171.3,103.016z"
				/>
			<path fill="#AF1F74" d="M171.308,114.741c0-0.93,0-1.863,0-2.793c2.876,0.653,5.751,1.3,8.623,1.957
				c3.637,0.833,7.273,1.677,10.91,2.517c0,0.84,0,1.677,0,2.517c-0.876,0.294-1.738,0.111-2.596-0.079
				c-4.466-0.984-8.864-2.287-13.384-3.034C173.641,115.621,172.417,115.348,171.308,114.741z"/>
			<path fill="#831971" d="M193.07,139.071c-0.607,0.312-1.271,0.258-1.917,0.258c-6.753,0.011-13.506,0.011-20.258,0
				c-0.643,0-1.31,0.075-1.913-0.251c0.56-0.571,1.289-0.46,1.971-0.46c3.619,0,7.241-0.057,10.86,0.043c1.529,0.011,3.066,0,4.61,0
				c-4.595-0.915-9.133-2.079-13.699-3.123c-3.486-0.797-6.997-1.49-10.461-2.384c-0.65-0.169-1.285-0.172-1.913,0.079
				c-0.521-0.582-0.819-1.282-1.066-2.007c0.366-0.718,0.969-0.556,1.576-0.449c3.292,0.589,6.476,1.651,9.754,2.28
				c5.521,1.055,10.935,2.574,16.439,3.716c1.547,0.32,3.069,0.743,4.613,1.073C192.291,137.986,193.095,138.094,193.07,139.071z"/>
			<path fill="#A81E73" d="M171.308,121.171c0-0.93,0-1.863,0-2.793c0.366-0.327,0.779-0.233,1.192-0.129
				c5.604,1.389,11.269,2.513,16.848,4.003c0.621,0.165,1.508,0.187,1.239,1.271c-0.47,0.88-0.894,1.802-1.992,2.075
				c-2.868-1.249-5.963-1.655-8.971-2.362C176.84,122.574,174.043,122.007,171.308,121.171z"/>
			<path fill="#7C1770" d="M182.16,139.053c-4.394,0.011-8.785,0.018-13.179,0.029c-3.278-0.445-5.834-2.089-7.83-4.678
				c0.201-1.066,1.03-0.722,1.626-0.632c1.835,0.269,3.604,0.869,5.428,1.217c3.96,0.757,7.805,2.039,11.8,2.649
				C180.868,137.771,181.866,137.943,182.16,139.053z"/>
			<path fill="#BB2175" d="M171.3,103.016c4.452,0.984,8.813,2.359,13.33,3.073c2.089,0.33,4.139,0.912,6.211,1.382
				c0,0.747,0,1.49,0,2.237c-3.454-0.33-6.735-1.461-10.099-2.201c-3.141-0.689-6.229-1.641-9.438-1.992
				C171.304,104.682,171.304,103.849,171.3,103.016z"/>
			<path fill="#CB2577" d="M203.431,96.001c0.28,2.053,0.309,4.107-0.018,6.157c-1.978,0.302-3.967,0.061-5.952,0.129
				c-0.503,0.018-0.617-0.276-0.614-0.711c0.007-1.669,0.007-3.339,0-5.004c0-0.445,0.14-0.714,0.632-0.696
				C199.46,95.947,201.449,95.714,203.431,96.001z"/>
			<path fill="#AD1F74" d="M171.308,114.741c2.707,0.521,5.446,0.926,8.117,1.598c2.502,0.628,5.022,1.163,7.532,1.748
				c1.292,0.302,2.592,0.567,3.888,0.851c0,0.65,0,1.303,0,1.953c-0.797,0.582-1.641,0.201-2.416,0.022
				c-5.245-1.224-10.497-2.416-15.764-3.558c-0.506-0.108-0.998-0.241-1.353-0.653C171.308,116.048,171.308,115.394,171.308,114.741
				z"/>
			<path fill="#A41E73" d="M171.308,121.171c0.682-0.302,1.278-0.068,1.971,0.126c2.158,0.614,4.369,1.041,6.555,1.558
				c2.689,0.635,5.367,1.31,8.063,1.917c0.521,0.118,0.729,0.323,0.696,0.822c-1.554,0.657-3.17,0.276-4.764,0.291
				c-0.126-0.057-0.258-0.115-0.398-0.101c-3.845,0.452-7.453-0.754-11.115-1.58c-0.345-0.079-0.596-0.233-0.793-0.513
				c-0.32-0.291-0.323-0.671-0.305-1.059C171.247,122.144,171.279,121.659,171.308,121.171z"/>
			<path fill="#871971" d="M193.07,139.071c-0.452-0.901-1.4-0.862-2.168-1.041c-5.924-1.389-11.861-2.718-17.792-4.078
				c-4.215-0.966-8.426-1.946-12.637-2.933c-0.445-0.104-0.822-0.007-1.195,0.208c-0.187-0.438-0.424-0.862-0.348-1.364
				c0.05-0.054,0.101-0.111,0.147-0.165c0.632-0.337,1.264-0.111,1.881,0.029c1.835,0.409,3.651,0.915,5.503,1.242
				c0.424,0.075,0.775,0.273,1.091,0.546c1.142,1.077,2.61,1.203,4.053,1.314c1.185,0.093,2.38,0.061,3.568,0.083
				c3.141,0.596,6.218,1.49,9.345,2.143c3.138,0.657,6.218,1.551,9.374,2.136c0.65,0.122,1.386,0.309,1.72,1.045
				C194.898,138.916,193.986,139.006,193.07,139.071z"/>
			<path fill="#AA1E73" d="M171.308,116.701c3.529,0.657,7.004,1.562,10.512,2.305c3.005,0.635,5.956,1.558,9.025,1.885
				c0.068,0.89,0.237,1.791-0.255,2.628c-0.007-0.632-0.528-0.736-0.959-0.829c-3.924-0.851-7.801-1.913-11.743-2.714
				c-2.201-0.445-4.416-0.955-6.58-1.601C171.308,117.818,171.308,117.258,171.308,116.701z"/>
			<path fill="#BF2375" d="M158.642,128.462c-0.316-0.61-0.208-1.274-0.208-1.917c-0.007-9.811,0.018-19.623-0.022-29.434
				c-0.004-1.142,0.28-1.44,1.418-1.249c3.428,0.582,5.195,2.725,5.281,6.577c-1.54-0.603-3.209-0.74-4.76-1.31
				c-0.908-0.334-1.292,0.036-1.285,0.962c0.007,0.923,0.011,1.845,0.011,2.768c0.043,1.156,0.036,2.312,0.011,3.468
				c0.036,1.285,0.039,2.574,0,3.859c0.029,1.027,0.039,2.057-0.004,3.084c0.018,1.02,0.043,2.039,0,3.059
				c0.022,0.923,0.032,1.845-0.004,2.768c0.011,0.578,0.029,1.16,0,1.738c0.018,0.661,0.025,1.318,0.007,1.978
				c-0.018,0.829,0.039,1.662-0.018,2.491C159.059,127.74,159.026,128.168,158.642,128.462z"/>
			<path fill="#801870" d="M182.16,139.053c-1.623-1.414-3.744-1.145-5.633-1.662c-1.953-0.535-3.892-1.149-5.877-1.501
				c-2.868-0.506-5.661-1.328-8.523-1.845c-0.363-0.065-0.754-0.036-0.977,0.363c-0.377-0.316-0.679-0.682-0.808-1.17
				c0.014-0.51,0.029-0.905,0.79-0.686c1.188,0.341,2.423,0.495,3.63,0.808c3.525,0.905,7.108,1.58,10.666,2.362
				c1.576,0.348,3.145,0.74,4.717,1.109c2.427,0.571,4.854,1.134,7.277,1.709c0.172,0.039,0.363,0.104,0.355,0.517
				C185.908,139.053,184.034,139.053,182.16,139.053z"/>
			<path fill="#B92175" d="M158.703,104.678c-0.007-1.063,0.022-2.129-0.029-3.192c-0.043-0.937,0.431-1.181,1.199-0.926
				c1.447,0.481,2.886,0.962,4.419,1.041c0.571,0.029,0.463,0.643,0.822,0.836c0.072,0.506,0.201,1.009,0.201,1.515
				c0.014,7.78,0.014,15.559,0.014,23.335c-0.675-0.14-0.503-0.714-0.596-1.156c-0.032-0.639-0.029-1.278-0.014-1.921
				c-0.007-0.571-0.032-1.142-0.004-1.709c-0.029-0.919-0.036-1.838-0.007-2.757c-0.036-1.106-0.036-2.211-0.004-3.317
				c-0.032-1.023-0.036-2.043,0-3.066c-0.025-1.163-0.036-2.326,0.007-3.486c-0.086-1.055,0.359-2.237-0.233-3.141
				c-0.607-0.923-1.903-0.492-2.836-0.883C160.667,105.45,159.525,105.468,158.703,104.678z"/>
			<path fill="#8A1A71" d="M195.616,138.238c-3.597-1.318-7.403-1.799-11.082-2.793c-2.272-0.614-4.595-1.045-6.857-1.698
				c-0.833-0.241-1.931,0.208-2.499-0.833c1.677,0,3.353,0,5.033,0c3.439,0.757,6.843,1.673,10.289,2.395
				c1.777,0.373,3.497,0.959,5.285,1.292c0.495,0.093,0.98,0.316,1.253,0.808C196.7,137.922,196.204,138.159,195.616,138.238z"/>
			<path fill="#A41E73" d="M203.46,127.633c-0.014,0.176-0.029,0.352-0.043,0.524c-0.337,0.449,0.011,1.016-0.258,1.476
				c-0.072,0.89-0.334,1.709-0.865,2.438c-1.486-1.867-3.637-1.756-5.697-1.903c-0.309-0.022-0.632,0.205-0.933-0.047
				c0.51-0.977,0.898-1.992,1.073-3.084c0.169-0.226,0.068-0.6,0.391-0.743c0.442-0.194,0.915-0.223,1.343-0.054
				c1.504,0.592,3.148,0.574,4.667,1.099C203.273,127.399,203.381,127.5,203.46,127.633z"/>
			<path fill="#911B72" d="M199.776,135.434c-0.359,0.56-0.775,1.066-1.407,1.343c-3.913-0.973-7.859-1.806-11.768-2.797
				c-0.786-0.201-1.791-0.05-2.201-1.07c2.29-0.011,4.581-0.022,6.871-0.032c2.847-0.083,5.489,0.808,8.128,1.705
				C199.769,134.709,200.064,134.971,199.776,135.434z"/>
			<path fill="#BC2376" d="M200.056,115.323c-0.93-0.129-2.409,0.513-3.138-0.241c-0.718-0.743-0.201-2.211-0.215-3.357
				c-0.036-2.876-0.011-2.876,2.897-2.876c1.023,0,2.046,0.036,3.066-0.011c0.74-0.036,0.969,0.251,0.948,0.969
				c-0.04,1.486-0.057,2.973,0.007,4.455c0.039,0.883-0.298,1.142-1.127,1.077C201.758,115.276,201.011,115.323,200.056,115.323z"/>
			<path fill="#8D1A71" d="M184.4,132.914c1.637,0.754,3.421,0.969,5.152,1.382c2.599,0.625,5.216,1.17,7.819,1.781
				c0.398,0.093,0.793,0.287,0.998,0.704c-0.531,0.025-0.736,0.743-1.335,0.628c-4.294-1.242-8.67-2.147-13.017-3.17
				c-1.282-0.302-2.703-0.431-3.813-1.325C181.604,132.914,183.004,132.914,184.4,132.914z"/>
			<path fill="#921B72" d="M165.09,126.204c0.065,0.366-0.097,0.783,0.237,1.088c0.126,0.567,0.248,1.134,0.373,1.702
				c-2.387-0.32-4.735-0.811-6.993-1.673c-0.004-0.836-0.004-1.673-0.007-2.509C160.882,125.041,163.029,125.432,165.09,126.204z"/>
			<path fill="#AC2175" d="M196.987,126.484c-0.083,0.183-0.169,0.366-0.251,0.553c-0.014-1.436,0.007-2.876-0.054-4.312
				c-0.032-0.768,0.294-0.944,0.984-0.93c1.669,0.036,3.342,0.014,5.012,0.011c0.499,0,0.959,0.022,0.926,0.704
				c-0.079,1.709,0.183,3.425-0.144,5.127l-0.079-0.057c-0.535-0.696-0.312-1.519-0.359-2.29c-0.036-0.6-0.14-1.113-0.847-1.242
				c-1.235-0.226-2.423-0.635-3.651-0.897c-1.041-0.223-1.192,0.183-1.17,1.059C197.375,124.973,197.547,125.795,196.987,126.484z"
				/>
			<path fill="#971C72" d="M199.776,135.434c-0.032-0.305-0.18-0.467-0.499-0.567c-2.628-0.833-5.324-1.382-8.009-1.989
				c0.955-0.395,1.913-0.79,2.872-1.185c1.87,0.51,3.759,0.948,5.622,1.476c0.521,0.147,1.414,0.115,1.131,1.142
				C200.624,134.788,200.354,135.265,199.776,135.434z"/>
			<path fill="#9F1D73" d="M195.659,130.117c1.903-0.772,3.651,0.022,5.46,0.463c0.926,0.226,1.278,0.6,1.17,1.49
				c-0.039,0.384-0.223,0.686-0.506,0.941c-1.397-0.603-2.89-0.844-4.369-1.134c-0.854-0.169-1.723-0.327-2.172-1.224
				C195.382,130.472,195.522,130.297,195.659,130.117z"/>
			<path fill="#9A1C72" d="M195.246,130.648c1.526,0.984,3.317,1.041,5.012,1.386c0.704,0.144,1.224,0.323,1.529,0.973
				c-0.169,0.524-0.467,0.955-0.89,1.303c-0.115-0.754-0.797-0.679-1.278-0.811c-1.454-0.409-2.919-0.775-4.394-1.106
				c-0.474-0.108-0.901-0.187-1.084-0.7C194.51,131.348,194.876,130.997,195.246,130.648z"/>
			<path fill="#8D1B72" d="M158.707,127.32c2.402,0.262,4.753,0.74,6.993,1.673c0.197,0.37,0.395,0.74,0.596,1.106
				c-0.542,0.431-1.142,0.248-1.709,0.108c-1.379-0.341-2.8-0.463-4.164-0.862c-0.61-0.18-1.073-0.065-1.429,0.463l-0.068,0.054
				c-0.316-0.424-0.28-0.915-0.284-1.4C158.664,128.082,158.685,127.701,158.707,127.32z"/>
			<path fill="#A11F74" d="M171.523,123.691c2.477,0.402,4.882,1.052,7.273,1.838c1.045,0.345,2.287,0.075,3.439,0.122
				c0.535,0.022,1.116-0.19,1.594,0.23c-3.044,0.018-6.089,0.086-9.129,0.032C173.221,125.888,172.069,125.166,171.523,123.691z"/>
			<path fill="#891A71" d="M158.994,129.808c-0.133-0.969,0.201-1.181,1.174-0.944c2.025,0.492,4.085,0.833,6.128,1.235
				c0.42,0.47,0.836,0.944,1.257,1.414C164.648,131.201,161.905,130.078,158.994,129.808z"/>
			<path fill="#C92979" d="M203.431,96.001c-1.759,0.004-3.522,0.047-5.281-0.007c-0.923-0.029-1.224,0.305-1.181,1.206
				c0.061,1.249,0.075,2.506-0.004,3.752c-0.065,1.03,0.388,1.249,1.307,1.221c1.712-0.054,3.428-0.014,5.141-0.014
				c-2.05,0.46-4.125,0.101-6.189,0.19c-0.524,0.022-0.531-0.402-0.531-0.786c0-1.669,0.004-3.339,0-5.008
				c0-0.398,0.036-0.79,0.56-0.761C199.31,95.901,201.385,95.506,203.431,96.001z"/>
			<path fill="#CA2879" d="M190.787,96.012c-5.514-0.011-11.025-0.022-16.539-0.029c0.312-0.061,0.621-0.176,0.933-0.176
				c4.951-0.011,9.905-0.007,14.855-0.004C190.299,95.8,190.6,95.714,190.787,96.012z"/>
			<path fill="#A81F74" d="M203.158,129.632c0.032-0.503-0.219-1.052,0.258-1.476C203.453,128.67,203.456,129.18,203.158,129.632z"
				/>
			<path fill="#B01F74" d="M165.09,109.711c0,1.21,0,2.423,0,3.633c-0.298,0.269-0.661,0.381-1.034,0.291
				c-1.795-0.434-3.64-0.661-5.353-1.407c0-1.303,0-2.61,0-3.913c0.183-0.162,0.413-0.28,0.639-0.219
				C161.259,108.627,163.28,108.796,165.09,109.711z"/>
			<path fill="#B52074" d="M165.09,109.711c-1.702-0.075-3.288-0.682-4.925-1.059c-0.488-0.111-0.973-0.226-1.461-0.337
				c0-1.21,0-2.423,0-3.633c1.863,0.305,3.601,1.142,5.511,1.253c0.617,0.036,0.959,0.424,0.908,1.138
				C165.061,107.945,165.097,108.828,165.09,109.711z"/>
			<path fill="#AB1F74" d="M158.703,112.224c1.662-0.118,3.166,0.603,4.746,0.908c0.549,0.108,1.084,0.219,1.641,0.208
				c0,1.027,0,2.05,0,3.077c-0.144,0.118-0.294,0.269-0.474,0.273c-2.086,0.029-4.089-0.302-5.913-1.389
				C158.703,114.278,158.703,113.251,158.703,112.224z"/>
			<path fill="#A71E73" d="M158.703,115.301c2.14,0.309,4.168,1.253,6.387,1.116c0,1.116,0,2.237,0,3.353
				c-0.223,0.194-0.492,0.287-0.765,0.215c-1.885-0.492-3.913-0.495-5.622-1.612C158.703,117.351,158.703,116.328,158.703,115.301z"
				/>
			<path fill="#A41D73" d="M158.703,118.378c2.129,0.467,4.258,0.933,6.387,1.397c0,0.93,0,1.863,0,2.793
				c-1.414,0.312-2.693-0.413-4.046-0.585c-0.783-0.101-1.651-0.28-2.341-0.811C158.703,120.241,158.703,119.308,158.703,118.378z"
				/>
			<path fill="#991C72" d="M165.09,126.204c-2.186-0.201-4.344-0.535-6.39-1.389c0-0.653,0-1.31,0.004-1.964
				c0.592-0.517,1.253-0.212,1.86-0.09c1.565,0.312,3.213,0.402,4.531,1.483C165.09,124.894,165.09,125.551,165.09,126.204z"/>
			<path fill="#9F1D73" d="M165.09,124.24c-2.1-0.6-4.197-1.221-6.387-1.393c0-0.56,0-1.12,0-1.677
				c2.168,0.291,4.294,0.772,6.387,1.397C165.09,123.127,165.09,123.684,165.09,124.24z"/>
			<path fill="#A81F74" d="M196.987,126.484c0-0.513-0.004-1.023-0.004-1.537c0-2.66,0.007-2.682,2.631-2.007
				c1.03,0.266,2.018,0.696,3.095,0.747c0.668,0.029,0.704,0.463,0.7,0.962c-0.014,0.976-0.018,1.953-0.029,2.929
				c-1.572-0.187-3.159-0.298-4.642-0.915C198.161,126.419,197.572,126.516,196.987,126.484z"/>
			<path fill="#B82275" d="M200.067,115.017c-0.047,0-0.093,0-0.14,0c-3.174,0-3.403-0.284-2.955-3.454
				c0.072-0.517,0.241-0.75,0.783-0.704c1.802,0.162,3.472,0.89,5.245,1.224c0.883,0.169,0.294,1.465,0.384,2.244
				c0.079,0.668-0.46,0.689-0.948,0.686C201.647,115.017,200.857,115.017,200.067,115.017z"/>
		</g>
	</g>
</g>
</svg>
