<?xml version="1.0" encoding="utf-8"?>
<!-- Generator: Adobe Illustrator 17.0.0, SVG Export Plug-In . SVG Version: 6.00 Build 0)  -->
<!DOCTYPE svg PUBLIC "-//W3C//DTD SVG 1.1//EN" "http://www.w3.org/Graphics/SVG/1.1/DTD/svg11.dtd">
<svg version="1.1" id="Layer_1" xmlns="http://www.w3.org/2000/svg" xmlns:xlink="http://www.w3.org/1999/xlink" x="0px" y="0px"
	 width="418px" height="130.333px" viewBox="0 0 418 245.333" enable-background="new 0 0 418 245.333" xml:space="preserve">
<rect y="0.002" fill="#FFFFFF" width="418" height="245.33"/>
<g>
	<g>
		<path fill="#C52275" d="M344.586,148.6c0.551-1.069,1.41-1.68,2.625-1.755c3.439-0.248,6.886-0.071,10.328-0.101
			c2.318-0.019,4.635-0.09,6.949,0.131c0.24,2.04,0.139,4.088,0.056,6.132c-0.506,0.439-1.08,0.353-1.658,0.203
			c-5.029-1.305-10.148-2.228-15.185-3.495C346.638,149.444,345.494,149.343,344.586,148.6z"/>
		<path fill="#B32074" d="M364.549,164.104c0,1.365,0,2.727,0,4.092c-1.601,0.386-3.072-0.319-4.564-0.63
			c-4.609-0.968-9.162-2.213-13.771-3.199c-0.78-0.169-1.658-0.229-2.235-0.93c-0.049-1.2-0.038-2.4-0.007-3.6
			c0.42-0.578,0.949-0.315,1.451-0.184c4.227,1.118,8.521,1.946,12.774,2.959C360.312,163.114,362.453,163.519,364.549,164.104z"/>
		<path fill="#C22275" d="M344.14,159.728c0,1.264,0,2.531,0.004,3.795c0.6,0.889,0.338,1.886,0.371,2.85
			c0.015,0.694,0.03,1.391-0.004,2.085c0.022,0.608,0.022,1.215,0,1.819c0.038,0.968,0.022,1.935-0.004,2.903
			c0.007,0.551,0.022,1.103-0.458,1.504c-0.255-0.454-0.15-0.953-0.15-1.429c-0.004-7.249-0.004-14.499,0.007-21.748
			c0-1.016-0.045-2.055,0.683-2.907c2.862,0.645,5.746,1.196,8.573,1.958c3.342,0.896,6.807,1.226,10.092,2.355
			c0.398,0.135,0.863,0.071,1.294,0.098c0,0.975,0,1.946,0,2.922c-0.765,0.619-1.56,0.263-2.359,0.09
			c-5.213-1.129-10.366-2.52-15.602-3.537c-2.066-0.401-2.07-0.368-2.081,1.804c0.022,0.855,0.034,1.71,0.007,2.565
			C344.485,157.823,344.744,158.831,344.14,159.728z"/>
		<path fill="#B82174" d="M344.14,159.728c0-0.975,0-1.95,0-2.922c0.503-0.461,1.08-0.334,1.654-0.214
			c5.033,1.069,10.028,2.291,15.009,3.585c1.249,0.326,2.655,0.098,3.747,1.009c0,0.975,0,1.946,0,2.922
			c-3.754-0.071-7.283-1.309-10.887-2.134C350.486,161.243,347.23,160.815,344.14,159.728z"/>
		<path fill="#BE2275" d="M344.136,154.196c-0.004-0.049-0.011-0.098-0.015-0.146c-0.09-2.449-0.105-2.37,2.329-1.98
			c5.01,0.803,9.848,2.366,14.833,3.274c1.088,0.199,2.111,0.758,3.267,0.581c0,0.975,0,1.946,0,2.922
			c-0.585,0.461-1.219,0.218-1.815,0.079c-5.757-1.328-11.559-2.453-17.27-3.972C344.95,154.819,344.395,154.77,344.136,154.196z"/>
		<path fill="#AF1F74" d="M344.14,166.445c0-0.971,0-1.946,0-2.918c3.004,0.683,6.008,1.358,9.008,2.044
			c3.799,0.87,7.598,1.751,11.397,2.629c0,0.878,0,1.751,0,2.629c-0.915,0.308-1.815,0.116-2.712-0.083
			c-4.665-1.028-9.26-2.389-13.981-3.169C346.578,167.36,345.303,167.075,344.14,166.445z"/>
		<path fill="#831971" d="M366.875,191.861c-0.634,0.326-1.328,0.27-2.003,0.27c-7.054,0.011-14.109,0.011-21.163,0
			c-0.671,0-1.369,0.079-1.999-0.263c0.585-0.596,1.346-0.48,2.059-0.48c3.78,0,7.564-0.06,11.345,0.045
			c1.598,0.011,3.203,0,4.815,0c-4.8-0.956-9.541-2.171-14.311-3.263c-3.642-0.833-7.309-1.556-10.929-2.49
			c-0.679-0.176-1.343-0.18-1.999,0.083c-0.544-0.608-0.855-1.339-1.114-2.096c0.383-0.75,1.013-0.581,1.646-0.469
			c3.439,0.615,6.766,1.725,10.19,2.381c5.768,1.103,11.424,2.689,17.173,3.882c1.616,0.334,3.207,0.776,4.819,1.121
			C366.065,190.725,366.905,190.841,366.875,191.861z"/>
		<path fill="#A81E73" d="M344.144,173.158c0-0.971,0-1.946,0-2.918c0.383-0.341,0.814-0.244,1.245-0.135
			c5.854,1.451,11.772,2.625,17.604,4.182c0.649,0.173,1.575,0.195,1.294,1.328c-0.491,0.919-0.934,1.883-2.081,2.168
			c-2.997-1.305-6.229-1.729-9.372-2.468C349.923,174.628,346.998,174.035,344.144,173.158z"/>
		<path fill="#7C1770" d="M355.477,191.842c-4.59,0.011-9.177,0.019-13.768,0.03c-3.424-0.465-6.094-2.183-8.18-4.887
			c0.21-1.114,1.076-0.754,1.699-0.66c1.916,0.281,3.765,0.908,5.671,1.271c4.137,0.791,8.153,2.13,12.327,2.768
			C354.127,190.499,355.17,190.679,355.477,191.842z"/>
		<path fill="#BB2175" d="M344.136,154.196c4.65,1.028,9.207,2.464,13.925,3.21c2.183,0.345,4.324,0.953,6.484,1.444
			c0,0.78,0,1.556,0,2.336c-3.608-0.345-7.032-1.526-10.55-2.299c-3.282-0.72-6.507-1.714-9.86-2.081
			C344.136,155.936,344.136,155.066,344.136,154.196z"/>
		<path fill="#CB2577" d="M377.698,146.868c0.293,2.145,0.323,4.29-0.019,6.432c-2.066,0.315-4.144,0.064-6.218,0.135
			c-0.525,0.019-0.645-0.289-0.641-0.743c0.007-1.744,0.007-3.488,0-5.228c0-0.465,0.146-0.746,0.66-0.728
			C373.55,146.808,375.632,146.568,377.698,146.868z"/>
		<path fill="#AD1F74" d="M344.14,166.445c2.828,0.544,5.689,0.968,8.48,1.669c2.614,0.656,5.247,1.215,7.868,1.826
			c1.35,0.315,2.708,0.593,4.062,0.889c0,0.679,0,1.361,0,2.04c-0.833,0.608-1.714,0.21-2.528,0.022
			c-5.479-1.279-10.966-2.524-16.468-3.717c-0.529-0.113-1.043-0.251-1.414-0.683C344.14,167.806,344.14,167.123,344.14,166.445z"/>
		<path fill="#A41E73" d="M344.144,173.158c0.713-0.315,1.335-0.071,2.059,0.131c2.254,0.641,4.564,1.088,6.848,1.628
			c2.809,0.664,5.607,1.369,8.423,2.003c0.544,0.124,0.761,0.338,0.728,0.859c-1.624,0.686-3.312,0.289-4.977,0.304
			c-0.131-0.06-0.27-0.12-0.416-0.105c-4.017,0.473-7.786-0.788-11.611-1.65c-0.36-0.083-0.623-0.244-0.829-0.536
			c-0.334-0.304-0.338-0.701-0.319-1.106C344.08,174.178,344.11,173.668,344.144,173.158z"/>
		<path fill="#871971" d="M366.875,191.861c-0.473-0.941-1.463-0.9-2.265-1.088c-6.188-1.451-12.391-2.839-18.587-4.26
			c-4.403-1.009-8.802-2.033-13.201-3.064c-0.465-0.109-0.859-0.008-1.249,0.218c-0.195-0.458-0.443-0.9-0.364-1.425
			c0.053-0.056,0.105-0.116,0.154-0.173c0.66-0.353,1.32-0.116,1.965,0.03c1.916,0.428,3.814,0.956,5.749,1.298
			c0.443,0.079,0.81,0.285,1.14,0.57c1.193,1.125,2.727,1.256,4.234,1.373c1.238,0.098,2.487,0.064,3.728,0.086
			c3.282,0.623,6.496,1.556,9.762,2.239c3.278,0.686,6.496,1.62,9.792,2.231c0.679,0.128,1.448,0.323,1.796,1.091
			C368.784,191.696,367.835,191.79,366.875,191.861z"/>
		<path fill="#AA1E73" d="M344.14,168.489c3.687,0.686,7.317,1.631,10.981,2.408c3.139,0.664,6.222,1.628,9.428,1.969
			c0.071,0.93,0.248,1.871-0.266,2.745c-0.007-0.66-0.551-0.769-1.001-0.866c-4.099-0.889-8.15-1.999-12.267-2.835
			c-2.299-0.465-4.613-0.998-6.874-1.673C344.14,169.655,344.14,169.074,344.14,168.489z"/>
		<path fill="#BF2375" d="M330.909,180.775c-0.33-0.638-0.218-1.331-0.218-2.003c-0.008-10.25,0.019-20.499-0.022-30.749
			c-0.004-1.193,0.293-1.504,1.481-1.305c3.582,0.608,5.427,2.847,5.517,6.871c-1.609-0.63-3.353-0.773-4.973-1.369
			c-0.949-0.349-1.35,0.038-1.343,1.005c0.007,0.964,0.011,1.928,0.011,2.892c0.045,1.208,0.038,2.415,0.011,3.623
			c0.038,1.343,0.041,2.689,0,4.032c0.03,1.073,0.041,2.149-0.004,3.222c0.019,1.065,0.045,2.13,0,3.195
			c0.022,0.964,0.034,1.928-0.004,2.892c0.011,0.604,0.03,1.211,0,1.815c0.019,0.69,0.026,1.376,0.007,2.066
			c-0.019,0.866,0.041,1.736-0.019,2.603C331.344,180.021,331.314,180.467,330.909,180.775z"/>
		<path fill="#801870" d="M355.477,191.842c-1.695-1.478-3.912-1.2-5.884-1.736c-2.04-0.559-4.065-1.2-6.139-1.568
			c-2.997-0.529-5.914-1.388-8.903-1.928c-0.379-0.068-0.788-0.038-1.02,0.379c-0.394-0.33-0.709-0.713-0.844-1.223
			c0.015-0.533,0.03-0.945,0.825-0.716c1.241,0.356,2.531,0.518,3.792,0.844c3.683,0.945,7.426,1.65,11.142,2.468
			c1.646,0.364,3.285,0.773,4.928,1.159c2.535,0.596,5.07,1.185,7.602,1.785c0.18,0.041,0.379,0.109,0.371,0.54
			C359.396,191.842,357.435,191.842,355.477,191.842z"/>
		<path fill="#B92175" d="M330.976,155.932c-0.007-1.11,0.022-2.224-0.03-3.334c-0.045-0.979,0.45-1.234,1.253-0.968
			c1.511,0.503,3.015,1.005,4.617,1.088c0.596,0.03,0.484,0.671,0.859,0.874c0.075,0.529,0.21,1.054,0.21,1.583
			c0.015,8.127,0.015,16.254,0.015,24.377c-0.705-0.146-0.525-0.746-0.623-1.208c-0.034-0.668-0.03-1.335-0.015-2.006
			c-0.007-0.596-0.034-1.193-0.004-1.785c-0.03-0.96-0.038-1.92-0.008-2.88c-0.038-1.155-0.038-2.31-0.004-3.465
			c-0.034-1.069-0.038-2.134,0-3.203c-0.026-1.215-0.038-2.43,0.007-3.642c-0.09-1.103,0.375-2.336-0.244-3.282
			c-0.634-0.964-1.988-0.514-2.963-0.923C333.028,156.739,331.831,156.757,330.976,155.932z"/>
		<path fill="#8A1A71" d="M369.534,190.987c-3.758-1.376-7.733-1.879-11.577-2.918c-2.374-0.641-4.8-1.091-7.163-1.774
			c-0.87-0.251-2.018,0.218-2.61-0.87c1.751,0,3.503,0,5.258,0c3.593,0.791,7.148,1.748,10.749,2.501
			c1.856,0.39,3.653,1.001,5.521,1.35c0.518,0.098,1.024,0.33,1.309,0.844C370.666,190.657,370.149,190.908,369.534,190.987z"/>
		<path fill="#A41E73" d="M377.728,179.912c-0.015,0.184-0.03,0.368-0.045,0.548c-0.353,0.469,0.011,1.061-0.27,1.541
			c-0.075,0.93-0.349,1.785-0.904,2.546c-1.553-1.95-3.799-1.834-5.952-1.988c-0.323-0.022-0.66,0.214-0.975-0.049
			c0.533-1.02,0.938-2.081,1.121-3.222c0.176-0.236,0.071-0.626,0.409-0.776c0.461-0.203,0.956-0.233,1.403-0.056
			c1.571,0.619,3.289,0.6,4.875,1.148C377.537,179.668,377.646,179.773,377.728,179.912z"/>
		<path fill="#911B72" d="M373.884,188.062c-0.375,0.585-0.81,1.114-1.47,1.403c-4.088-1.016-8.21-1.886-12.294-2.922
			c-0.821-0.21-1.871-0.053-2.299-1.118c2.393-0.011,4.785-0.022,7.178-0.034c2.974-0.086,5.734,0.844,8.491,1.781
			C373.873,187.304,374.184,187.574,373.884,188.062z"/>
		<path fill="#BC2376" d="M374.177,167.052c-0.971-0.135-2.516,0.536-3.278-0.251c-0.75-0.776-0.21-2.31-0.225-3.507
			c-0.038-3.004-0.011-3.004,3.027-3.004c1.069,0,2.138,0.038,3.203-0.011c0.773-0.038,1.013,0.263,0.99,1.013
			c-0.041,1.553-0.06,3.105,0.007,4.654c0.041,0.923-0.311,1.193-1.178,1.125C375.954,167.003,375.174,167.052,374.177,167.052z"/>
		<path fill="#8D1A71" d="M357.821,185.425c1.71,0.788,3.574,1.013,5.382,1.444c2.715,0.653,5.449,1.223,8.168,1.86
			c0.416,0.098,0.829,0.3,1.043,0.735c-0.555,0.026-0.769,0.776-1.395,0.656c-4.485-1.298-9.057-2.243-13.599-3.312
			c-1.339-0.315-2.824-0.45-3.983-1.384C354.9,185.425,356.359,185.425,357.821,185.425z"/>
		<path fill="#921B72" d="M337.648,178.416c0.068,0.383-0.101,0.818,0.248,1.136c0.131,0.593,0.259,1.185,0.39,1.778
			c-2.494-0.334-4.947-0.848-7.306-1.748c-0.004-0.874-0.004-1.748-0.008-2.621C333.253,177.204,335.492,177.609,337.648,178.416z"
			/>
		<path fill="#AC2175" d="M370.97,178.708c-0.086,0.191-0.176,0.383-0.263,0.578c-0.015-1.5,0.007-3.004-0.056-4.504
			c-0.034-0.803,0.308-0.986,1.028-0.971c1.744,0.038,3.492,0.015,5.236,0.011c0.521,0,1.001,0.022,0.968,0.735
			c-0.083,1.785,0.191,3.578-0.15,5.356l-0.083-0.06c-0.559-0.728-0.326-1.586-0.375-2.393c-0.038-0.626-0.146-1.163-0.885-1.298
			c-1.29-0.236-2.532-0.664-3.814-0.938c-1.088-0.233-1.245,0.191-1.223,1.106C371.375,177.133,371.555,177.992,370.97,178.708z"/>
		<path fill="#971C72" d="M373.884,188.062c-0.034-0.319-0.188-0.488-0.521-0.593c-2.745-0.87-5.562-1.444-8.367-2.078
			c0.998-0.413,1.999-0.825,3-1.238c1.954,0.533,3.927,0.99,5.873,1.541c0.544,0.154,1.478,0.12,1.181,1.193
			C374.765,187.383,374.488,187.882,373.884,188.062z"/>
		<path fill="#9F1D73" d="M369.582,182.507c1.988-0.806,3.814,0.022,5.704,0.484c0.968,0.236,1.335,0.626,1.223,1.556
			c-0.041,0.401-0.232,0.716-0.529,0.983c-1.459-0.63-3.019-0.881-4.564-1.185c-0.893-0.176-1.8-0.341-2.269-1.279
			C369.294,182.875,369.436,182.691,369.582,182.507z"/>
		<path fill="#9A1C72" d="M369.147,183.063c1.594,1.028,3.465,1.088,5.236,1.448c0.735,0.15,1.279,0.338,1.598,1.016
			c-0.176,0.548-0.488,0.998-0.93,1.361c-0.12-0.788-0.833-0.709-1.335-0.848c-1.519-0.428-3.049-0.81-4.59-1.155
			c-0.495-0.113-0.941-0.195-1.133-0.731C368.379,183.79,368.765,183.426,369.147,183.063z"/>
		<path fill="#8D1B72" d="M330.98,179.582c2.509,0.274,4.965,0.773,7.306,1.748c0.206,0.386,0.413,0.773,0.623,1.155
			c-0.566,0.45-1.193,0.259-1.785,0.113c-1.44-0.356-2.925-0.484-4.35-0.9c-0.638-0.188-1.121-0.068-1.493,0.484l-0.067,0.056
			c-0.33-0.443-0.293-0.956-0.296-1.463C330.935,180.377,330.957,179.98,330.98,179.582z"/>
		<path fill="#A11F74" d="M344.365,175.791c2.588,0.42,5.1,1.099,7.598,1.92c1.091,0.36,2.389,0.079,3.593,0.128
			c0.559,0.022,1.166-0.199,1.665,0.24c-3.18,0.019-6.361,0.09-9.537,0.034C346.139,178.086,344.939,177.332,344.365,175.791z"/>
		<path fill="#891A71" d="M331.276,182.185c-0.139-1.013,0.21-1.234,1.226-0.986c2.115,0.514,4.268,0.87,6.402,1.29
			c0.439,0.491,0.874,0.986,1.313,1.478C337.183,183.636,334.322,182.466,331.276,182.185z"/>
		<path fill="#C92979" d="M377.698,146.868c-1.838,0.004-3.679,0.049-5.517-0.007c-0.964-0.03-1.279,0.319-1.234,1.26
			c0.064,1.305,0.079,2.618-0.004,3.919c-0.067,1.076,0.405,1.305,1.365,1.275c1.789-0.056,3.582-0.015,5.371-0.015
			c-2.141,0.48-4.309,0.105-6.466,0.199c-0.548,0.022-0.555-0.42-0.555-0.821c0-1.744,0.004-3.488,0-5.232
			c0-0.416,0.038-0.825,0.585-0.795C373.397,146.763,375.564,146.35,377.698,146.868z"/>
		<path fill="#CA2879" d="M364.489,146.875c-5.761-0.011-11.517-0.022-17.278-0.03c0.326-0.064,0.649-0.184,0.975-0.184
			c5.172-0.011,10.347-0.011,15.519-0.004C363.983,146.654,364.298,146.568,364.489,146.875z"/>
		<path fill="#A81F74" d="M377.413,182.001c0.034-0.525-0.229-1.099,0.27-1.541C377.724,180.996,377.728,181.525,377.413,182.001z"
			/>
		<path fill="#B01F74" d="M337.648,161.187c0,1.264,0,2.531,0,3.795c-0.311,0.281-0.69,0.398-1.08,0.304
			c-1.875-0.454-3.803-0.69-5.592-1.47c0-1.361,0-2.727,0-4.088c0.191-0.169,0.431-0.293,0.668-0.229
			C333.646,160.054,335.758,160.23,337.648,161.187z"/>
		<path fill="#B52074" d="M337.648,161.187c-1.778-0.079-3.435-0.713-5.145-1.106c-0.51-0.116-1.016-0.236-1.526-0.353
			c0-1.264,0-2.532,0-3.795c1.946,0.319,3.762,1.193,5.757,1.309c0.645,0.038,1.001,0.443,0.949,1.189
			C337.614,159.342,337.656,160.268,337.648,161.187z"/>
		<path fill="#AB1F74" d="M330.976,163.816c1.736-0.124,3.308,0.63,4.958,0.949c0.574,0.113,1.133,0.229,1.714,0.218
			c0,1.073,0,2.141,0,3.214c-0.15,0.124-0.308,0.281-0.495,0.285c-2.179,0.03-4.272-0.315-6.177-1.451
			C330.976,165.957,330.976,164.885,330.976,163.816z"/>
		<path fill="#A71E73" d="M330.976,167.03c2.235,0.323,4.354,1.309,6.672,1.166c0,1.166,0,2.336,0,3.503
			c-0.233,0.203-0.514,0.3-0.799,0.225c-1.969-0.514-4.088-0.518-5.873-1.684C330.976,169.171,330.976,168.099,330.976,167.03z"/>
		<path fill="#A41D73" d="M330.976,170.24c2.224,0.488,4.448,0.975,6.672,1.459c0,0.971,0,1.946,0,2.918
			c-1.478,0.326-2.813-0.431-4.227-0.611c-0.818-0.105-1.725-0.293-2.445-0.848C330.976,172.186,330.976,171.211,330.976,170.24z"/>
		<path fill="#991C72" d="M337.648,178.416c-2.284-0.21-4.538-0.559-6.676-1.451c0-0.683,0-1.369,0.004-2.051
			c0.619-0.54,1.309-0.221,1.943-0.094c1.635,0.326,3.357,0.42,4.733,1.549C337.648,177.051,337.648,177.733,337.648,178.416z"/>
		<path fill="#9F1D73" d="M337.648,176.368c-2.194-0.626-4.384-1.275-6.672-1.455c0-0.585,0-1.17,0-1.751
			c2.265,0.304,4.485,0.806,6.672,1.459C337.648,175.202,337.648,175.783,337.648,176.368z"/>
		<path fill="#A81F74" d="M370.97,178.708c0-0.536-0.004-1.069-0.004-1.605c0-2.779,0.007-2.802,2.749-2.096
			c1.076,0.278,2.108,0.728,3.233,0.78c0.698,0.03,0.735,0.484,0.731,1.005c-0.015,1.02-0.019,2.04-0.03,3.06
			c-1.643-0.195-3.3-0.311-4.849-0.956C372.193,178.641,371.581,178.746,370.97,178.708z"/>
		<path fill="#B82275" d="M374.188,166.733c-0.049,0-0.098,0-0.146,0c-3.315,0-3.555-0.296-3.087-3.608
			c0.075-0.54,0.251-0.784,0.818-0.735c1.883,0.169,3.627,0.93,5.479,1.279c0.923,0.176,0.308,1.53,0.401,2.344
			c0.083,0.698-0.48,0.72-0.99,0.716C375.838,166.73,375.013,166.733,374.188,166.733z"/>
	</g>
	<g>
		<path fill="#7F7F81" d="M210.348,99.45c19.309,0,38.618-0.024,57.927,0.048c1.503,0.006,3.994-1.069,4.109,1.813
			c0.119,2.977-2.414,1.991-3.921,1.993c-38.779,0.053-77.558,0.055-116.337-0.008c-1.481-0.002-4.046,1.112-4.072-1.803
			c-0.031-3.31,2.796-1.973,4.367-1.981C171.73,99.417,191.039,99.45,210.348,99.45z"/>
		<path fill="#7F7F81" d="M209.76,93.794c-10.946,0-21.893,0.032-32.838-0.036c-1.539-0.009-3.97,0.871-3.794-2.147
			c0.151-2.6,2.327-1.726,3.718-1.729c22.214-0.053,44.429-0.053,66.643-0.003c1.541,0.004,3.988-0.871,3.814,2.13
			c-0.148,2.548-2.322,1.742-3.738,1.75C232.296,93.822,221.028,93.794,209.76,93.794z"/>
		<path fill="#7F7F81" d="M180.755,65.465c-5.946,0.002-11.891,0.006-17.837-0.001c-1.616-0.002-3.325,0.195-3.365-2.268
			c-0.039-2.448,1.604-2.349,3.262-2.348c12.213,0.005,24.425,0.011,36.638-0.005c1.764-0.002,3.325,0.209,3.217,2.493
			c-0.095,2.004-1.59,2.128-3.115,2.128C193.289,65.463,187.022,65.463,180.755,65.465z"/>
		<path fill="#7F7F81" d="M239.943,65.461c-5.946,0.002-11.891,0.003-17.837,0.002c-1.683,0-3.334-0.075-3.425-2.361
			c-0.101-2.509,1.728-2.248,3.324-2.25c12.213-0.008,24.426-0.013,36.639,0.008c1.387,0.002,3.065-0.322,3.177,1.899
			c0.111,2.202-1.233,2.706-3.075,2.703C252.477,65.452,246.21,65.459,239.943,65.461z"/>
		<path fill="#7F7F81" d="M356.307,60.849c6.106,0.001,12.212-0.005,18.318,0.005c1.603,0.003,3.412-0.237,3.297,2.271
			c-0.106,2.305-1.78,2.335-3.444,2.336c-12.051,0.006-24.103,0-36.154,0.01c-1.905,0.001-3.7-0.153-3.52-2.731
			c0.178-2.547,2.217-1.848,3.667-1.864C344.416,60.81,350.362,60.848,356.307,60.849z"/>
		<path fill="#7F7F81" d="M297.343,60.851c6.095,0.002,12.189,0.003,18.283,0.001c1.507,0,3.011,0.054,3.139,2.071
			c0.146,2.295-1.421,2.542-3.169,2.541c-12.189-0.004-24.378-0.002-36.567-0.004c-1.694,0-3.303-0.134-3.345-2.424
			c-0.047-2.539,1.822-2.172,3.375-2.178C285.154,60.835,291.249,60.849,297.343,60.851z"/>
		<path fill="#7F7F81" d="M62.859,65.464c-6.096-0.001-12.192-0.012-18.288,0.006c-1.74,0.005-3.223-0.114-3.141-2.495
			c0.073-2.152,1.486-2.123,2.985-2.123c12.192,0.001,24.384,0.006,36.576-0.006c1.72-0.002,3.258,0.05,3.141,2.456
			c-0.121,2.487-1.909,2.147-3.466,2.153C74.73,65.479,68.795,65.465,62.859,65.464z"/>
		<path fill="#7F7F81" d="M122.018,60.851c5.936,0,11.873-0.008,17.809,0.005c1.592,0.003,3.345-0.241,3.377,2.231
			c0.031,2.413-1.615,2.375-3.278,2.376c-12.033,0.001-24.066,0.003-36.099-0.002c-1.61-0.001-3.304,0.201-3.342-2.269
			c-0.038-2.456,1.59-2.345,3.243-2.343C109.825,60.855,115.921,60.851,122.018,60.851z"/>
	</g>
</g>
<rect x="41.427" y="245.333" fill="#FEFEFE" width="337.93" height="15.416"/>
</svg>
