<?xml version="1.0" encoding="utf-8"?>
<!-- Generator: Adobe Illustrator 17.0.0, SVG Export Plug-In . SVG Version: 6.00 Build 0)  -->
<!DOCTYPE svg PUBLIC "-//W3C//DTD SVG 1.1//EN" "http://www.w3.org/Graphics/SVG/1.1/DTD/svg11.dtd">
<svg version="1.1" id="Layer_1" xmlns="http://www.w3.org/2000/svg" xmlns:xlink="http://www.w3.org/1999/xlink" x="0px" y="0px"
	 width="418px" height="130.333px" viewBox="-158.84 -54.087 418 245.333" enable-background="new -158.84 -54.087 418 245.333"
	 xml:space="preserve">
<path fill="#FEFEFE" d="M50.16-56.419c68.302,0,136.604,0.025,204.906-0.071c3.423-0.006,4.098,0.498,4.094,3.039
	c-0.117,80.627-0.117,161.253,0,241.88c0.004,2.541-0.671,3.042-4.094,3.039c-136.604-0.083-273.208-0.083-409.812,0
	c-3.423,0.003-4.098-0.498-4.094-3.039c0.117-80.627,0.117-161.253,0-241.88c-0.004-2.541,0.671-3.045,4.094-3.039
	C-86.444-56.395-18.142-56.419,50.16-56.419z"/>
<g>
	<path fill="#D8D9D9" d="M47.965,110.644c-54.29,0-108.584-0.037-162.874,0.079c-3.979,0.007-5.629-0.818-5.329-5.149
		c0.39-5.671,0.263-11.397,0.03-17.087c-0.131-3.252,1.114-4.365,4.163-3.968c0.589,0.075,1.2,0.011,1.796,0.011
		c108.28,0,216.565,0,324.845,0c5.903,0,5.907,0.004,5.907,5.742c0.004,5.401-0.199,10.809,0.071,16.194
		c0.176,3.477-1.125,4.268-4.392,4.245c-20.844-0.131-41.693-0.068-62.541-0.068C115.753,110.644,81.857,110.644,47.965,110.644z"/>
	<path fill="#194C51" d="M46.799,1.828c-51.14,0-102.28-0.041-153.42,0.086c-3.638,0.008-4.827-0.709-4.718-4.579
		c0.304-10.49,0.248-20.995,0.023-31.488c-0.075-3.492,0.821-4.512,4.422-4.493c29.242,0.154,58.487,0.086,87.732,0.086
		c73.185,0,146.369,0.041,219.554-0.105c4.313-0.008,5.558,0.96,5.404,5.359c-0.36,10.336-0.27,20.694-0.026,31.038
		c0.079,3.405-0.866,4.182-4.208,4.174C149.975,1.794,98.385,1.828,46.799,1.828z"/>
	<path fill="#194C51" d="M169.192,19.627c10.186,0,20.372,0.128,30.554-0.079c3.109-0.064,3.593,1.061,3.675,3.833
		c0.09,3.083-1.035,3.653-3.837,3.638c-20.218-0.109-40.44-0.098-60.662-0.007c-2.685,0.011-3.93-0.375-3.93-3.559
		c0-3.248,1.046-3.949,4.095-3.893C149.12,19.743,159.16,19.627,169.192,19.627z"/>
	<path fill="#194C51" d="M-6.52,19.627c7.024,0,14.06,0.188,21.073-0.079c3.522-0.131,2.824,1.976,2.974,4.002
		c0.169,2.276-0.173,3.503-3.015,3.473c-14.049-0.143-28.105-0.161-42.154,0.011c-3.12,0.037-3.252-1.35-3.27-3.75
		c-0.019-2.468,0.248-3.833,3.315-3.732C-20.576,19.784-13.544,19.627-6.52,19.627z"/>
	<path fill="#194C51" d="M49.068,19.627c6.897,0,13.798,0.169,20.687-0.075c3.12-0.109,3.308,1.331,3.319,3.762
		c0.011,2.456-0.236,3.765-3.327,3.724c-13.94-0.18-27.884-0.191-41.824,0.007c-3.203,0.045-3.199-1.414-3.203-3.75
		c-0.004-2.348,0.015-3.874,3.214-3.754C34.967,19.811,42.021,19.627,49.068,19.627z"/>
	<path fill="#194C51" d="M103.114,26.963c-7.028,0-14.06-0.176-21.077,0.079c-3.233,0.116-3.12-1.511-3.195-3.807
		c-0.086-2.535,0.341-3.717,3.345-3.679c13.903,0.165,27.809,0.191,41.708-0.011c3.432-0.049,3.278,1.616,3.443,4.062
		c0.195,2.933-0.971,3.473-3.593,3.413C116.871,26.854,109.989,26.963,103.114,26.963z"/>
	<path fill="#7F7F81" d="M-73.771,40.456c-10.328,0-20.657,0.037-30.982-0.045c-1.388-0.011-3.735,0.953-3.638-1.853
		c0.094-2.712,2.396-1.714,3.784-1.718c20.503-0.064,41.01-0.06,61.517-0.007c1.421,0.004,3.747-0.87,3.66,1.868
		c-0.086,2.693-2.4,1.695-3.803,1.706C-53.414,40.494-63.593,40.456-73.771,40.456z"/>
	<path fill="#7F7F81" d="M170.647,40.456c-10.471,0-20.946,0.023-31.417-0.03c-1.328-0.007-3.304,0.709-3.405-1.703
		c-0.101-2.419,1.838-1.905,3.218-1.909c20.796-0.026,41.592-0.03,62.387,0.011c1.313,0.004,3.33-0.709,3.375,1.71
		c0.053,2.809-2.243,1.864-3.638,1.875C190.993,40.494,180.818,40.456,170.647,40.456z"/>
	<path fill="#7F7F81" d="M-73.535,45.718c10.193,0,20.383-0.03,30.577,0.037c1.298,0.007,3.42-0.814,3.495,1.556
		c0.083,2.576-2.123,2.025-3.653,2.029c-20.683,0.03-41.366,0.03-62.053-0.004c-1.358-0.004-3.338,0.566-3.244-1.883
		c0.09-2.411,2.081-1.699,3.402-1.706C-94.518,45.696-84.025,45.718-73.535,45.718z"/>
	<path fill="#7F7F81" d="M-85.041,54.104c6.739,0,13.479-0.03,20.218,0.023c1.538,0.011,3.679-0.551,3.825,1.916
		c0.15,2.52-1.943,2.205-3.537,2.209c-13.629,0.023-27.258,0.015-40.886,0.007c-1.515,0-3.154,0.135-3.09-2.156
		c0.068-2.321,1.808-1.98,3.252-1.988C-98.52,54.093-91.781,54.104-85.041,54.104z"/>
	<path fill="#7F7F81" d="M102.571,67.298c-6.893,0-13.783,0.004-20.676-0.004c-1.5,0-3.128,0.191-3.113-2.119
		c0.015-2.321,1.673-2.078,3.154-2.078c13.633-0.007,27.269-0.015,40.901,0.007c1.448,0.004,3.285-0.296,3.42,1.89
		c0.158,2.535-1.841,2.288-3.462,2.291C116.053,67.313,109.31,67.298,102.571,67.298z"/>
	<path fill="#7F7F81" d="M-6.362,67.298c-6.889,0-13.775,0.004-20.664-0.004c-1.493-0.004-3.135,0.206-3.132-2.1
		c0.004-2.31,1.65-2.093,3.139-2.093c13.625-0.007,27.254-0.011,40.879,0.007c1.451,0.004,3.285-0.3,3.432,1.875
		c0.173,2.52-1.804,2.306-3.439,2.31C7.113,67.309,0.377,67.298-6.362,67.298z"/>
	<path fill="#7F7F81" d="M-6.704,58.263c-6.732,0-13.468,0.015-20.199-0.011c-1.429-0.007-3.169,0.379-3.252-1.969
		c-0.079-2.299,1.53-2.171,3.053-2.175c13.614-0.004,27.231-0.004,40.845,0c1.534,0,3.154-0.075,3.049,2.198
		c-0.109,2.306-1.871,1.935-3.3,1.943C6.76,58.278,0.028,58.263-6.704,58.263z"/>
	<path fill="#7F7F81" d="M48.633,63.09c6.451,0,12.901-0.037,19.352,0.026c1.496,0.015,3.653-0.683,3.747,1.931
		c0.105,2.982-2.284,2.213-3.9,2.22c-13.201,0.053-26.403,0.041-39.604,0.011c-1.549-0.004-3.589,0.499-3.51-2.164
		c0.079-2.663,2.168-1.988,3.668-2.003C35.132,63.06,41.882,63.09,48.633,63.09z"/>
	<path fill="#7F7F81" d="M102.578,54.108c6.586,0,13.168-0.015,19.753,0.011c1.601,0.007,3.574-0.338,3.398,2.284
		c-0.154,2.303-1.991,1.841-3.39,1.845c-13.468,0.03-26.935,0.023-40.403,0.011c-1.474,0-3.15,0.251-3.154-2.07
		c-0.004-2.318,1.665-2.074,3.147-2.074C88.81,54.1,95.692,54.108,102.578,54.108z"/>
	<path fill="#7F7F81" d="M48.633,54.108c6.582,0,13.164-0.015,19.749,0.011c1.429,0.007,3.177-0.375,3.263,1.961
		c0.086,2.291-1.534,2.179-3.057,2.179c-13.614,0.004-27.228,0.004-40.841,0c-1.53,0-3.143,0.086-3.045-2.198
		c0.101-2.329,1.86-1.939,3.285-1.943C34.869,54.089,41.751,54.108,48.633,54.108z"/>
	<path fill="#7F7F81" d="M161.755,49.363c-7.501,0-15.001,0.015-22.498-0.011c-1.436-0.004-3.338,0.375-3.387-1.864
		c-0.053-2.456,2.021-1.733,3.334-1.736c14.998-0.049,29.999-0.045,44.997-0.004c1.335,0.004,3.319-0.653,3.349,1.77
		c0.034,2.449-1.954,1.811-3.297,1.819C176.756,49.393,169.256,49.363,161.755,49.363z"/>
	<path fill="#7F7F81" d="M102.691,72.038c6.751,0,13.501-0.03,20.248,0.023c1.354,0.011,3.338-0.6,3.308,1.823
		c-0.03,2.393-2.003,1.785-3.357,1.789c-13.651,0.037-27.299,0.034-40.95,0c-1.226-0.004-2.937,0.503-3.072-1.609
		c-0.154-2.43,1.706-2.006,3.124-2.014C88.893,72.019,95.79,72.038,102.691,72.038z"/>
	<path fill="#7F7F81" d="M102.158,40.456c-6.724,0-13.449,0.023-20.173-0.019c-1.376-0.007-3.248,0.51-3.12-1.969
		c0.113-2.134,1.774-1.643,3-1.646c13.749-0.03,27.494-0.03,41.243-0.004c1.395,0.004,3.27-0.454,3.147,1.98
		c-0.105,2.1-1.789,1.631-3.027,1.639C116.203,40.475,109.179,40.456,102.158,40.456z"/>
	<path fill="#7F7F81" d="M102.814,45.718c6.747,0,13.498-0.023,20.244,0.019c1.395,0.007,3.304-0.454,3.192,1.965
		c-0.098,2.078-1.796,1.643-3.053,1.646c-13.798,0.026-27.591,0.026-41.389,0c-1.264-0.004-2.922,0.383-2.944-1.736
		c-0.026-2.468,1.909-1.853,3.255-1.864C89.02,45.688,95.917,45.718,102.814,45.718z"/>
	<path fill="#7F7F81" d="M-6.452,40.456c-6.871,0-13.741,0.023-20.612-0.023c-1.211-0.007-2.888,0.533-3.019-1.609
		c-0.15-2.456,1.691-2.006,3.09-2.01c13.741-0.023,27.483-0.026,41.224,0.004c1.245,0.004,2.922-0.443,3.053,1.628
		c0.15,2.426-1.718,1.988-3.124,1.995C7.289,40.475,0.418,40.456-6.452,40.456z"/>
	<path fill="#7F7F81" d="M-6.737,49.36c-6.736,0-13.468,0.019-20.203-0.011c-1.41-0.007-3.27,0.424-3.128-1.999
		c0.124-2.115,1.83-1.605,3.057-1.605c13.768-0.034,27.535-0.034,41.303-0.004c1.238,0.004,2.97-0.45,2.963,1.684
		c-0.007,1.92-1.5,1.931-2.888,1.935C7.33,49.36,0.294,49.36-6.737,49.36z"/>
	<path fill="#7F7F81" d="M-6.741,72.034c6.886,0,13.768-0.015,20.653,0.011c1.448,0.004,3.334-0.304,3.319,1.931
		c-0.015,2.419-2.078,1.68-3.387,1.684c-13.471,0.053-26.939,0.053-40.41-0.004c-1.305-0.004-3.345,0.78-3.48-1.605
		c-0.158-2.764,2.104-1.973,3.552-1.991C-19.909,71.997-13.323,72.034-6.741,72.034z"/>
	<path fill="#7F7F81" d="M48.314,75.695c-6.739,0-13.479,0.034-20.214-0.026c-1.339-0.011-3.319,0.611-3.3-1.811
		c0.019-2.415,1.991-1.789,3.334-1.793c13.475-0.041,26.954-0.034,40.429-0.007c1.26,0.004,2.952-0.398,3.102,1.613
		c0.18,2.408-1.725,1.999-3.132,2.006C61.793,75.714,55.053,75.695,48.314,75.695z"/>
	<path fill="#7F7F81" d="M47.958,49.36c-6.739,0-13.479,0.019-20.218-0.015c-1.268-0.007-2.884,0.356-2.97-1.733
		c-0.086-2.119,1.496-1.879,2.805-1.883c13.779-0.015,27.558-0.015,41.336,0c1.331,0,2.918-0.154,2.764,1.939
		c-0.146,2.036-1.781,1.665-3.049,1.673C61.737,49.378,54.847,49.36,47.958,49.36z"/>
	<path fill="#7F7F81" d="M48.097,40.453c-6.747,0-13.498,0.026-20.244-0.023c-1.219-0.007-2.922,0.536-3.068-1.59
		c-0.169-2.445,1.68-2.025,3.098-2.025c13.498-0.023,26.995-0.03,40.489,0.015c1.335,0.004,3.319-0.626,3.3,1.819
		c-0.015,2.449-2.006,1.766-3.33,1.778C61.59,40.49,54.843,40.456,48.097,40.453z"/>
	<path fill="#4B7E7F" d="M-85.004,70.722c-0.33,3.413-2.198,5.423-5.468,5.356c-3.057-0.06-5.078-2.119-5.074-5.168
		c0.004-3.255,2.014-5.296,5.397-5.228C-86.984,65.745-85.428,67.77-85.004,70.722z"/>
	<path fill="#4B7E7F" d="M-75.129,65.591c3.282,0.383,5.292,2.25,5.16,5.536c-0.124,3.064-2.25,5.018-5.284,4.95
		c-3.24-0.071-5.337-2.108-5.16-5.476C-80.252,67.541-78.294,65.831-75.129,65.591z"/>
	<path fill="#4B7E7F" d="M-60.499,65.614c3.128,0.585,4.924,2.501,4.71,5.547c-0.229,3.27-2.441,5.239-5.708,4.898
		c-3.229-0.338-5.059-2.561-4.602-5.922C-65.671,67.02-63.537,65.633-60.499,65.614z"/>
	<path fill="#4B7E7F" d="M-104.296,65.591c3.064,0.476,5.033,2.168,4.898,5.581c-0.128,3.229-2.239,4.969-5.209,4.917
		c-3.259-0.06-5.254-2.209-5.108-5.524C-109.576,67.481-107.588,65.82-104.296,65.591z"/>
	<path fill="#194C51" d="M-68.138,98.992c-12.721,0-25.446,0.026-38.167-0.037c-1.395-0.007-3.57,0.949-3.627-1.894
		c-0.056-2.944,2.111-2.348,3.795-2.351c25.446-0.023,50.889-0.023,76.335,0.004c1.523,0,3.499-0.578,3.612,2.07
		c0.131,3.169-2.254,2.168-3.78,2.175C-42.692,99.018-55.417,98.992-68.138,98.992z"/>
	<path fill="#194C51" d="M167.711,99.003c-11.247,0-22.495,0.03-33.742-0.037c-1.414-0.007-3.552,0.896-3.597-1.95
		c-0.049-2.948,2.074-2.381,3.777-2.381c22.345-0.019,44.693-0.022,67.038,0.011c1.628,0.004,3.844-0.761,3.762,2.31
		c-0.086,3.203-2.483,1.984-3.942,1.995C189.905,99.048,178.808,99.003,167.711,99.003z"/>
	<path fill="#FEFEFE" d="M46.814-0.051c-50.544,0-101.087-0.045-151.635,0.094c-3.762,0.011-4.744-0.904-4.628-4.647
		c0.293-9.44,0.233-18.898,0.019-28.341c-0.071-3.068,0.934-3.788,3.799-3.709c6.743,0.184,13.498,0.06,20.244,0.06
		c94.64,0,189.281,0.034,283.917-0.105c4.388-0.008,5.547,1.103,5.367,5.431c-0.364,8.682-0.413,17.409,0.015,26.088
		c0.225,4.568-1.335,5.243-5.472,5.232C147.905-0.104,97.358-0.051,46.814-0.051z"/>
	<path fill="#7F7F81" d="M-8.519-21.631c-30.592,0-61.187,0-91.779,0c-1.05,0-2.1-0.008-3.15-0.011
		c-1.298-0.004-2.411-0.173-2.34-1.916c0.071-1.789,1.343-1.676,2.539-1.714c0.75-0.023,1.5-0.008,2.25-0.008
		c61.637,0,123.271,0,184.908,0c0.9,0,1.8,0.011,2.7,0.015c1.144,0.004,2.051,0.233,2.115,1.676c0.079,1.721-0.986,1.954-2.31,1.946
		c-1.05-0.008-2.1,0.008-3.15,0.008C52.668-21.631,22.077-21.631-8.519-21.631z"/>
	<path fill="#7F7F81" d="M-49.964-12.72c-16.794,0-33.592,0-50.386,0c-0.9,0-1.8,0.004-2.7-0.004
		c-1.384-0.011-2.839,0.06-2.73-1.995c0.094-1.785,1.451-1.62,2.622-1.628c4.5-0.026,8.997-0.015,13.498-0.015
		c30.292,0,60.583,0,90.875,0c1.2,0,2.4-0.008,3.597,0.034c1.031,0.038,1.691,0.518,1.654,1.65
		c-0.034,1.016-0.506,1.759-1.553,1.856c-1.189,0.113-2.396,0.094-3.593,0.094C-15.772-12.716-32.87-12.72-49.964-12.72z"/>
	<path fill="#194C51" d="M-62.64,22.511c-0.011,3.792-2.081,6.046-5.536,6.027c-3.409-0.019-5.536-2.378-5.502-6.102
		c0.034-3.747,2.183-6.076,5.573-6.042C-64.681,16.428-62.629,18.723-62.64,22.511z"/>
	<path fill="#194C51" d="M-98.153,22.496c0-3.878,1.965-6.106,5.393-6.109c3.439-0.004,5.461,2.235,5.472,6.061
		c0.011,3.848-1.98,6.087-5.416,6.091C-96.18,28.545-98.153,26.355-98.153,22.496z"/>
	<path fill="#194C51" d="M-79.543,28.526c-2.952,0.037-4.845-0.863-5.697-3.188c-0.934-2.543-0.938-5.082,0.93-7.291
		c1.624-1.92,3.799-1.826,6.001-1.433c0.386,0.068,0.788,0.285,1.095,0.536c0.78,0.63,2.014,1.354,1.324,2.423
		c-0.698,1.084-1.635,0.503-2.509-0.371c-1.316-1.316-2.967-1.133-4.095,0.203c-1.489,1.759-1.331,3.889-0.233,5.794
		c0.836,1.448,2.31,1.624,3.822,1.058c0.664-0.248,1.399-0.551,1.305-1.485c-0.09-0.934-0.859-0.698-1.41-0.713
		c-0.754-0.019-1.151-0.289-1.106-1.088c0.053-0.889,0.735-0.983,1.316-0.851c1.223,0.278,3.169-1.02,3.522,1.163
		c0.304,1.875,0.578,4.069-2.104,4.759C-78.276,28.271-79.179,28.444-79.543,28.526z"/>
	<path fill="#194C51" d="M-107.356,22.391c0-1.436-0.007-2.877,0.004-4.313c0.007-0.709-0.083-1.451,1.024-1.478
		c1.148-0.026,1.365,0.593,1.35,1.549c-0.026,1.95,0.101,3.912-0.034,5.854c-0.128,1.826,0.383,2.734,2.363,2.438
		c0.701-0.105,1.436-0.023,2.153-0.004c0.683,0.019,1.189,0.225,1.14,1.073c-0.041,0.671-0.458,0.855-1.005,0.863
		c-1.95,0.019-3.904-0.004-5.854,0.026c-1.001,0.015-1.163-0.559-1.151-1.38C-107.337,25.474-107.356,23.932-107.356,22.391z"/>
	<path fill="#FEFEFE" d="M-65.048,22.308c-0.038,2.205-0.521,4.17-3.094,4.155c-2.539-0.015-3.128-1.999-3.117-4.095
		c0.008-1.984,0.615-3.803,2.993-3.893C-65.648,18.37-65.116,20.249-65.048,22.308z"/>
	<path fill="#FEFEFE" d="M-89.545,22.417c-0.236,2.025-0.581,4.107-3.207,4.062c-2.599-0.045-3.045-2.059-3.03-4.137
		c0.011-1.98,0.518-3.81,2.955-3.885C-90.164,18.374-89.793,20.388-89.545,22.417z"/>
	<g>
		
			<rect x="135.465" y="57.629" fill="none" stroke="#9FA0A8" stroke-width="0.5" stroke-miterlimit="10" width="55.093" height="10.992"/>
		<rect x="189.159" y="56.527" fill="#4B7E7F" width="15.999" height="13.126"/>
	</g>
	
		<rect x="130.068" y="-24.841" fill="none" stroke="#4B7E7F" stroke-width="0.5" stroke-miterlimit="10" width="29.302" height="10.55"/>
	
		<rect x="164.054" y="-24.841" fill="none" stroke="#4B7E7F" stroke-width="0.5" stroke-miterlimit="10" width="29.302" height="10.55"/>
	<g>
		<path fill="#C52275" d="M177.84,132.291c0.551-1.069,1.41-1.68,2.625-1.755c3.439-0.248,6.886-0.071,10.328-0.101
			c2.318-0.019,4.635-0.09,6.949,0.131c0.24,2.04,0.139,4.088,0.056,6.132c-0.506,0.439-1.08,0.353-1.658,0.203
			c-5.029-1.305-10.148-2.228-15.185-3.495C179.892,133.135,178.748,133.034,177.84,132.291z"/>
		<path fill="#B32074" d="M197.803,147.795c0,1.365,0,2.727,0,4.092c-1.601,0.386-3.072-0.319-4.564-0.63
			c-4.609-0.968-9.162-2.213-13.771-3.199c-0.78-0.169-1.658-0.229-2.235-0.93c-0.049-1.2-0.038-2.4-0.007-3.6
			c0.42-0.578,0.949-0.315,1.451-0.184c4.227,1.118,8.521,1.946,12.774,2.959C193.566,146.805,195.707,147.21,197.803,147.795z"/>
		<path fill="#C22275" d="M177.394,143.419c0,1.264,0,2.531,0.004,3.795c0.6,0.889,0.338,1.886,0.371,2.85
			c0.015,0.694,0.03,1.391-0.004,2.085c0.022,0.608,0.022,1.215,0,1.819c0.038,0.968,0.022,1.935-0.004,2.903
			c0.007,0.551,0.022,1.103-0.458,1.504c-0.255-0.454-0.15-0.953-0.15-1.429c-0.004-7.249-0.004-14.499,0.007-21.748
			c0-1.016-0.045-2.055,0.683-2.907c2.862,0.645,5.746,1.196,8.573,1.958c3.342,0.896,6.807,1.226,10.092,2.355
			c0.398,0.135,0.863,0.071,1.294,0.098c0,0.975,0,1.946,0,2.922c-0.765,0.619-1.56,0.263-2.359,0.09
			c-5.213-1.129-10.366-2.52-15.602-3.537c-2.066-0.401-2.07-0.368-2.081,1.804c0.022,0.855,0.034,1.71,0.007,2.565
			C177.739,141.514,177.998,142.522,177.394,143.419z"/>
		<path fill="#B82174" d="M177.394,143.419c0-0.975,0-1.95,0-2.922c0.503-0.461,1.08-0.334,1.654-0.214
			c5.033,1.069,10.028,2.291,15.009,3.585c1.249,0.326,2.655,0.098,3.747,1.009c0,0.975,0,1.946,0,2.922
			c-3.754-0.071-7.283-1.309-10.887-2.134C183.74,144.934,180.484,144.506,177.394,143.419z"/>
		<path fill="#BE2275" d="M177.39,137.887c-0.004-0.049-0.011-0.098-0.015-0.146c-0.09-2.449-0.105-2.37,2.329-1.98
			c5.01,0.803,9.848,2.366,14.833,3.274c1.088,0.199,2.111,0.758,3.267,0.581c0,0.975,0,1.946,0,2.922
			c-0.585,0.461-1.219,0.218-1.815,0.079c-5.757-1.328-11.559-2.453-17.27-3.972C178.204,138.51,177.649,138.461,177.39,137.887z"/>
		<path fill="#AF1F74" d="M177.394,150.136c0-0.971,0-1.946,0-2.918c3.004,0.683,6.008,1.358,9.008,2.044
			c3.799,0.87,7.598,1.751,11.397,2.629c0,0.878,0,1.751,0,2.629c-0.915,0.308-1.815,0.116-2.712-0.083
			c-4.665-1.028-9.26-2.389-13.981-3.169C179.832,151.051,178.557,150.766,177.394,150.136z"/>
		<path fill="#831971" d="M200.129,175.552c-0.634,0.326-1.328,0.27-2.003,0.27c-7.054,0.011-14.109,0.011-21.163,0
			c-0.671,0-1.369,0.079-1.999-0.263c0.585-0.596,1.346-0.48,2.059-0.48c3.78,0,7.564-0.06,11.345,0.045
			c1.598,0.011,3.203,0,4.815,0c-4.8-0.956-9.541-2.171-14.311-3.263c-3.642-0.833-7.309-1.556-10.929-2.49
			c-0.679-0.176-1.343-0.18-1.999,0.083c-0.544-0.608-0.855-1.339-1.114-2.096c0.383-0.75,1.013-0.581,1.646-0.469
			c3.439,0.615,6.766,1.725,10.19,2.381c5.768,1.103,11.424,2.689,17.173,3.882c1.616,0.334,3.207,0.776,4.819,1.121
			C199.319,174.416,200.159,174.532,200.129,175.552z"/>
		<path fill="#A81E73" d="M177.398,156.849c0-0.971,0-1.946,0-2.918c0.383-0.341,0.814-0.244,1.245-0.135
			c5.854,1.451,11.772,2.625,17.604,4.182c0.649,0.173,1.575,0.195,1.294,1.328c-0.491,0.919-0.934,1.883-2.081,2.168
			c-2.997-1.305-6.229-1.729-9.372-2.468C183.177,158.319,180.252,157.726,177.398,156.849z"/>
		<path fill="#7C1770" d="M188.731,175.533c-4.59,0.011-9.177,0.019-13.768,0.03c-3.424-0.465-6.094-2.183-8.18-4.887
			c0.21-1.114,1.076-0.754,1.699-0.66c1.916,0.281,3.765,0.908,5.671,1.271c4.137,0.791,8.153,2.13,12.327,2.768
			C187.381,174.19,188.424,174.37,188.731,175.533z"/>
		<path fill="#BB2175" d="M177.39,137.887c4.65,1.028,9.207,2.464,13.925,3.21c2.183,0.345,4.324,0.953,6.484,1.444
			c0,0.78,0,1.556,0,2.336c-3.608-0.345-7.032-1.526-10.55-2.299c-3.282-0.72-6.507-1.714-9.86-2.081
			C177.39,139.627,177.39,138.757,177.39,137.887z"/>
		<path fill="#CB2577" d="M210.952,130.559c0.293,2.145,0.323,4.29-0.019,6.432c-2.066,0.315-4.144,0.064-6.218,0.135
			c-0.525,0.019-0.645-0.289-0.641-0.743c0.007-1.744,0.007-3.488,0-5.228c0-0.465,0.146-0.746,0.66-0.728
			C206.804,130.499,208.886,130.259,210.952,130.559z"/>
		<path fill="#AD1F74" d="M177.394,150.136c2.828,0.544,5.689,0.968,8.48,1.669c2.614,0.656,5.247,1.215,7.868,1.826
			c1.35,0.315,2.708,0.593,4.062,0.889c0,0.679,0,1.361,0,2.04c-0.833,0.608-1.714,0.21-2.528,0.022
			c-5.479-1.279-10.966-2.524-16.468-3.717c-0.529-0.113-1.043-0.251-1.414-0.683C177.394,151.497,177.394,150.814,177.394,150.136z
			"/>
		<path fill="#A41E73" d="M177.398,156.849c0.713-0.315,1.335-0.071,2.059,0.131c2.254,0.641,4.564,1.088,6.848,1.628
			c2.809,0.664,5.607,1.369,8.423,2.003c0.544,0.124,0.761,0.338,0.728,0.859c-1.624,0.686-3.312,0.289-4.977,0.304
			c-0.131-0.06-0.27-0.12-0.416-0.105c-4.017,0.473-7.786-0.788-11.611-1.65c-0.36-0.083-0.623-0.244-0.829-0.536
			c-0.334-0.304-0.338-0.701-0.319-1.106C177.334,157.869,177.364,157.359,177.398,156.849z"/>
		<path fill="#871971" d="M200.129,175.552c-0.473-0.941-1.463-0.9-2.265-1.088c-6.188-1.451-12.391-2.839-18.587-4.26
			c-4.403-1.009-8.802-2.033-13.201-3.064c-0.465-0.109-0.859-0.008-1.249,0.218c-0.195-0.458-0.443-0.9-0.364-1.425
			c0.053-0.056,0.105-0.116,0.154-0.173c0.66-0.353,1.32-0.116,1.965,0.03c1.916,0.428,3.814,0.956,5.749,1.298
			c0.443,0.079,0.81,0.285,1.14,0.57c1.193,1.125,2.727,1.256,4.234,1.373c1.238,0.098,2.487,0.064,3.728,0.086
			c3.282,0.623,6.496,1.556,9.762,2.239c3.278,0.686,6.496,1.62,9.792,2.231c0.679,0.128,1.448,0.323,1.796,1.091
			C202.038,175.387,201.089,175.481,200.129,175.552z"/>
		<path fill="#AA1E73" d="M177.394,152.18c3.687,0.686,7.317,1.631,10.981,2.408c3.139,0.664,6.222,1.628,9.428,1.969
			c0.071,0.93,0.248,1.871-0.266,2.745c-0.007-0.66-0.551-0.769-1.001-0.866c-4.099-0.889-8.15-1.999-12.267-2.835
			c-2.299-0.465-4.613-0.998-6.874-1.673C177.394,153.346,177.394,152.765,177.394,152.18z"/>
		<path fill="#BF2375" d="M164.163,164.466c-0.33-0.638-0.218-1.331-0.218-2.003c-0.008-10.25,0.019-20.499-0.022-30.749
			c-0.004-1.193,0.293-1.504,1.481-1.305c3.582,0.608,5.427,2.847,5.517,6.871c-1.609-0.63-3.353-0.773-4.973-1.369
			c-0.949-0.349-1.35,0.038-1.343,1.005c0.007,0.964,0.011,1.928,0.011,2.892c0.045,1.208,0.038,2.415,0.011,3.623
			c0.038,1.343,0.041,2.689,0,4.032c0.03,1.073,0.041,2.149-0.004,3.222c0.019,1.065,0.045,2.13,0,3.195
			c0.022,0.964,0.034,1.928-0.004,2.892c0.011,0.604,0.03,1.211,0,1.815c0.019,0.69,0.026,1.376,0.007,2.066
			c-0.019,0.866,0.041,1.736-0.019,2.603C164.598,163.712,164.568,164.158,164.163,164.466z"/>
		<path fill="#801870" d="M188.731,175.533c-1.695-1.478-3.912-1.2-5.884-1.736c-2.04-0.559-4.065-1.2-6.139-1.568
			c-2.997-0.529-5.914-1.388-8.903-1.928c-0.379-0.068-0.788-0.038-1.02,0.379c-0.394-0.33-0.709-0.713-0.844-1.223
			c0.015-0.533,0.03-0.945,0.825-0.716c1.241,0.356,2.531,0.518,3.792,0.844c3.683,0.945,7.426,1.65,11.142,2.468
			c1.646,0.364,3.285,0.773,4.928,1.159c2.535,0.596,5.07,1.185,7.602,1.785c0.18,0.041,0.379,0.109,0.371,0.54
			C192.65,175.533,190.689,175.533,188.731,175.533z"/>
		<path fill="#B92175" d="M164.23,139.623c-0.007-1.11,0.022-2.224-0.03-3.334c-0.045-0.979,0.45-1.234,1.253-0.968
			c1.511,0.503,3.015,1.005,4.617,1.088c0.596,0.03,0.484,0.671,0.859,0.874c0.075,0.529,0.21,1.054,0.21,1.583
			c0.015,8.127,0.015,16.254,0.015,24.377c-0.705-0.146-0.525-0.746-0.623-1.208c-0.034-0.668-0.03-1.335-0.015-2.006
			c-0.007-0.596-0.034-1.193-0.004-1.785c-0.03-0.96-0.038-1.92-0.008-2.88c-0.038-1.155-0.038-2.31-0.004-3.465
			c-0.034-1.069-0.038-2.134,0-3.203c-0.026-1.215-0.038-2.43,0.007-3.642c-0.09-1.103,0.375-2.336-0.244-3.282
			c-0.634-0.964-1.988-0.514-2.963-0.923C166.282,140.43,165.085,140.448,164.23,139.623z"/>
		<path fill="#8A1A71" d="M202.788,174.678c-3.758-1.376-7.733-1.879-11.577-2.918c-2.374-0.641-4.8-1.091-7.163-1.774
			c-0.87-0.251-2.018,0.218-2.61-0.87c1.751,0,3.503,0,5.258,0c3.593,0.791,7.148,1.748,10.749,2.501
			c1.856,0.39,3.653,1.001,5.521,1.35c0.518,0.098,1.024,0.33,1.309,0.844C203.92,174.348,203.403,174.599,202.788,174.678z"/>
		<path fill="#A41E73" d="M210.982,163.603c-0.015,0.184-0.03,0.368-0.045,0.548c-0.353,0.469,0.011,1.061-0.27,1.541
			c-0.075,0.93-0.349,1.785-0.904,2.546c-1.553-1.95-3.799-1.834-5.952-1.988c-0.323-0.022-0.66,0.214-0.975-0.049
			c0.533-1.02,0.938-2.081,1.121-3.222c0.176-0.236,0.071-0.626,0.409-0.776c0.461-0.203,0.956-0.233,1.403-0.056
			c1.571,0.619,3.289,0.6,4.875,1.148C210.791,163.359,210.9,163.464,210.982,163.603z"/>
		<path fill="#911B72" d="M207.138,171.753c-0.375,0.585-0.81,1.114-1.47,1.403c-4.088-1.016-8.21-1.886-12.294-2.922
			c-0.821-0.21-1.871-0.053-2.299-1.118c2.393-0.011,4.785-0.022,7.178-0.034c2.974-0.086,5.734,0.844,8.491,1.781
			C207.127,170.995,207.438,171.265,207.138,171.753z"/>
		<path fill="#BC2376" d="M207.431,150.743c-0.971-0.135-2.516,0.536-3.278-0.251c-0.75-0.776-0.21-2.31-0.225-3.507
			c-0.038-3.004-0.011-3.004,3.027-3.004c1.069,0,2.138,0.038,3.203-0.011c0.773-0.038,1.013,0.263,0.99,1.013
			c-0.041,1.553-0.06,3.105,0.007,4.654c0.041,0.923-0.311,1.193-1.178,1.125C209.208,150.694,208.428,150.743,207.431,150.743z"/>
		<path fill="#8D1A71" d="M191.075,169.116c1.71,0.788,3.574,1.013,5.382,1.444c2.715,0.653,5.449,1.223,8.168,1.86
			c0.416,0.098,0.829,0.3,1.043,0.735c-0.555,0.026-0.769,0.776-1.395,0.656c-4.485-1.298-9.057-2.243-13.599-3.312
			c-1.339-0.315-2.824-0.45-3.983-1.384C188.154,169.116,189.613,169.116,191.075,169.116z"/>
		<path fill="#921B72" d="M170.902,162.107c0.068,0.383-0.101,0.818,0.248,1.136c0.131,0.593,0.259,1.185,0.39,1.778
			c-2.494-0.334-4.947-0.848-7.306-1.748c-0.004-0.874-0.004-1.748-0.008-2.621C166.507,160.895,168.746,161.3,170.902,162.107z"/>
		<path fill="#AC2175" d="M204.224,162.399c-0.086,0.191-0.176,0.383-0.263,0.578c-0.015-1.5,0.007-3.004-0.056-4.504
			c-0.034-0.803,0.308-0.986,1.028-0.971c1.744,0.038,3.492,0.015,5.236,0.011c0.521,0,1.001,0.022,0.968,0.735
			c-0.083,1.785,0.191,3.578-0.15,5.356l-0.083-0.06c-0.559-0.728-0.326-1.586-0.375-2.393c-0.038-0.626-0.146-1.163-0.885-1.298
			c-1.29-0.236-2.532-0.664-3.814-0.938c-1.088-0.233-1.245,0.191-1.223,1.106C204.629,160.824,204.809,161.683,204.224,162.399z"/>
		<path fill="#971C72" d="M207.138,171.753c-0.034-0.319-0.188-0.488-0.521-0.593c-2.745-0.87-5.562-1.444-8.367-2.078
			c0.998-0.413,1.999-0.825,3-1.238c1.954,0.533,3.927,0.99,5.873,1.541c0.544,0.154,1.478,0.12,1.181,1.193
			C208.019,171.074,207.742,171.573,207.138,171.753z"/>
		<path fill="#9F1D73" d="M202.836,166.198c1.988-0.806,3.814,0.022,5.704,0.484c0.968,0.236,1.335,0.626,1.223,1.556
			c-0.041,0.401-0.232,0.716-0.529,0.983c-1.459-0.63-3.019-0.881-4.564-1.185c-0.893-0.176-1.8-0.341-2.269-1.279
			C202.548,166.566,202.69,166.382,202.836,166.198z"/>
		<path fill="#9A1C72" d="M202.401,166.754c1.594,1.028,3.465,1.088,5.236,1.448c0.735,0.15,1.279,0.338,1.598,1.016
			c-0.176,0.548-0.488,0.998-0.93,1.361c-0.12-0.788-0.833-0.709-1.335-0.848c-1.519-0.428-3.049-0.81-4.59-1.155
			c-0.495-0.113-0.941-0.195-1.133-0.731C201.633,167.481,202.019,167.117,202.401,166.754z"/>
		<path fill="#8D1B72" d="M164.234,163.273c2.509,0.274,4.965,0.773,7.306,1.748c0.206,0.386,0.413,0.773,0.623,1.155
			c-0.566,0.45-1.193,0.259-1.785,0.113c-1.44-0.356-2.925-0.484-4.35-0.9c-0.638-0.188-1.121-0.068-1.493,0.484l-0.067,0.056
			c-0.33-0.443-0.293-0.956-0.296-1.463C164.189,164.068,164.211,163.671,164.234,163.273z"/>
		<path fill="#A11F74" d="M177.619,159.482c2.588,0.42,5.1,1.099,7.598,1.92c1.091,0.36,2.389,0.079,3.593,0.128
			c0.559,0.022,1.166-0.199,1.665,0.24c-3.18,0.019-6.361,0.09-9.537,0.034C179.393,161.777,178.193,161.023,177.619,159.482z"/>
		<path fill="#891A71" d="M164.53,165.876c-0.139-1.013,0.21-1.234,1.226-0.986c2.115,0.514,4.268,0.87,6.402,1.29
			c0.439,0.491,0.874,0.986,1.313,1.478C170.437,167.327,167.576,166.157,164.53,165.876z"/>
		<path fill="#C92979" d="M210.952,130.559c-1.838,0.004-3.679,0.049-5.517-0.007c-0.964-0.03-1.279,0.319-1.234,1.26
			c0.064,1.305,0.079,2.618-0.004,3.919c-0.067,1.076,0.405,1.305,1.365,1.275c1.789-0.056,3.582-0.015,5.371-0.015
			c-2.141,0.48-4.309,0.105-6.466,0.199c-0.548,0.022-0.555-0.42-0.555-0.821c0-1.744,0.004-3.488,0-5.232
			c0-0.416,0.038-0.825,0.585-0.795C206.651,130.454,208.818,130.041,210.952,130.559z"/>
		<path fill="#CA2879" d="M197.743,130.566c-5.761-0.011-11.517-0.022-17.278-0.03c0.326-0.064,0.649-0.184,0.975-0.184
			c5.172-0.011,10.347-0.011,15.519-0.004C197.237,130.345,197.552,130.259,197.743,130.566z"/>
		<path fill="#A81F74" d="M210.667,165.692c0.034-0.525-0.229-1.099,0.27-1.541C210.978,164.687,210.982,165.216,210.667,165.692z"
			/>
		<path fill="#B01F74" d="M170.902,144.878c0,1.264,0,2.531,0,3.795c-0.311,0.281-0.69,0.398-1.08,0.304
			c-1.875-0.454-3.803-0.69-5.592-1.47c0-1.361,0-2.727,0-4.088c0.191-0.169,0.431-0.293,0.668-0.229
			C166.9,143.745,169.012,143.921,170.902,144.878z"/>
		<path fill="#B52074" d="M170.902,144.878c-1.778-0.079-3.435-0.713-5.145-1.106c-0.51-0.116-1.016-0.236-1.526-0.353
			c0-1.264,0-2.532,0-3.795c1.946,0.319,3.762,1.193,5.757,1.309c0.645,0.038,1.001,0.443,0.949,1.189
			C170.868,143.033,170.91,143.959,170.902,144.878z"/>
		<path fill="#AB1F74" d="M164.23,147.507c1.736-0.124,3.308,0.63,4.958,0.949c0.574,0.113,1.133,0.229,1.714,0.218
			c0,1.073,0,2.141,0,3.214c-0.15,0.124-0.308,0.281-0.495,0.285c-2.179,0.03-4.272-0.315-6.177-1.451
			C164.23,149.648,164.23,148.576,164.23,147.507z"/>
		<path fill="#A71E73" d="M164.23,150.721c2.235,0.323,4.354,1.309,6.672,1.166c0,1.166,0,2.336,0,3.503
			c-0.233,0.203-0.514,0.3-0.799,0.225c-1.969-0.514-4.088-0.518-5.873-1.684C164.23,152.862,164.23,151.79,164.23,150.721z"/>
		<path fill="#A41D73" d="M164.23,153.931c2.224,0.488,4.448,0.975,6.672,1.459c0,0.971,0,1.946,0,2.918
			c-1.478,0.326-2.813-0.431-4.227-0.611c-0.818-0.105-1.725-0.293-2.445-0.848C164.23,155.877,164.23,154.902,164.23,153.931z"/>
		<path fill="#991C72" d="M170.902,162.107c-2.284-0.21-4.538-0.559-6.676-1.451c0-0.683,0-1.369,0.004-2.051
			c0.619-0.54,1.309-0.221,1.943-0.094c1.635,0.326,3.357,0.42,4.733,1.549C170.902,160.742,170.902,161.424,170.902,162.107z"/>
		<path fill="#9F1D73" d="M170.902,160.059c-2.194-0.626-4.384-1.275-6.672-1.455c0-0.585,0-1.17,0-1.751
			c2.265,0.304,4.485,0.806,6.672,1.459C170.902,158.893,170.902,159.474,170.902,160.059z"/>
		<path fill="#A81F74" d="M204.224,162.399c0-0.536-0.004-1.069-0.004-1.605c0-2.779,0.007-2.802,2.749-2.096
			c1.076,0.278,2.108,0.728,3.233,0.78c0.698,0.03,0.735,0.484,0.731,1.005c-0.015,1.02-0.019,2.04-0.03,3.06
			c-1.643-0.195-3.3-0.311-4.849-0.956C205.447,162.332,204.835,162.437,204.224,162.399z"/>
		<path fill="#B82275" d="M207.442,150.424c-0.049,0-0.098,0-0.146,0c-3.315,0-3.555-0.296-3.087-3.608
			c0.075-0.54,0.251-0.784,0.818-0.735c1.883,0.169,3.627,0.93,5.479,1.279c0.923,0.176,0.308,1.53,0.401,2.344
			c0.083,0.698-0.48,0.72-0.99,0.716C209.092,150.421,208.267,150.424,207.442,150.424z"/>
	</g>
</g>
<rect x="-119.84" y="175.83" fill="#FEFEFE" width="337.93" height="15.416"/>
</svg>
