<?xml version="1.0" encoding="utf-8"?>
<!-- Generator: Adobe Illustrator 17.0.0, SVG Export Plug-In . SVG Version: 6.00 Build 0)  -->
<!DOCTYPE svg PUBLIC "-//W3C//DTD SVG 1.1//EN" "http://www.w3.org/Graphics/SVG/1.1/DTD/svg11.dtd">
<svg version="1.1" id="Layer_1" xmlns="http://www.w3.org/2000/svg" xmlns:xlink="http://www.w3.org/1999/xlink" x="0px" y="0px"
	 width="418px" height="130.33px" viewBox="0 -57.665 418 245.33" enable-background="new 0 -57.665 418 245.33"
	 xml:space="preserve">
<path fill="#FEFEFE" d="M208.999-57.657c68.224,0,136.447,0.025,204.671-0.07c3.42-0.006,4.093,0.492,4.089,3.008
	c-0.116,79.813-0.116,159.625,0,239.438c0.004,2.516-0.67,3.012-4.089,3.008c-136.447-0.083-272.894-0.083-409.341,0
	c-3.419,0.004-4.093-0.492-4.089-3.008c0.116-79.813,0.116-159.625,0-239.438c-0.004-2.516,0.67-3.014,4.089-3.008
	C72.552-57.633,140.775-57.657,208.999-57.657z"/>
<rect x="42.215" y="172.249" fill="#FEFEFE" width="337.93" height="15.416"/>
<g>
	<g>
		<path fill="#194C51" d="M86.873,56.756c-13.715,0-27.433,0.017-41.144-0.021c-1.794-0.004-4.174,0.788-4.096-2.523
			c0.069-3.063,2.315-2.173,3.891-2.177c27.76-0.04,55.513-0.04,83.273-0.004c1.735,0.004,4.226-0.926,4.067,2.474
			c-0.159,3.369-2.703,2.19-4.354,2.198C114.631,56.79,100.752,56.756,86.873,56.756z"/>
		<path fill="#194C51" d="M344.603,51.966c12.071,0,24.141-0.021,36.208,0.025c1.592,0.004,3.688-0.8,3.717,2.286
			c0.025,2.965-1.867,2.479-3.606,2.479c-24.627,0.008-49.259,0.008-73.887-0.008c-1.695,0-3.709,0.572-3.774-2.368
			c-0.065-3.005,1.984-2.397,3.662-2.401C319.487,51.954,332.046,51.966,344.603,51.966z"/>
		<path fill="#194C51" d="M231.332-1.154c-0.036-5.645,4.228-9.9,9.883-9.871c5.603,0.029,9.919,4.419,9.816,9.988
			c-0.094,5.232-4.48,9.649-9.695,9.76C235.897,8.842,231.365,4.371,231.332-1.154z"/>
		<path fill="#194C51" d="M176.369-1.339c0.048-5.647,4.373-9.808,10.061-9.686c5.37,0.115,9.609,4.36,9.674,9.686
			c0.065,5.378-4.553,10.057-9.927,10.066C180.694,8.731,176.317,4.247,176.369-1.339z"/>
		<path fill="#194C51" d="M204.684-1.381c0.073-5.628,4.438-9.789,10.118-9.64c5.345,0.134,9.617,4.438,9.653,9.726
			c0.04,5.358-4.635,10.04-9.996,10.022C208.984,8.706,204.611,4.186,204.684-1.381z"/>
		<path fill="#194C51" d="M259.676-0.991c-0.107-5.676,4.071-9.996,9.711-10.036c5.603-0.04,10.036,4.312,10.022,9.833
			c-0.017,5.194-4.369,9.699-9.579,9.915C264.384,8.947,259.779,4.545,259.676-0.991z"/>
		<path fill="#194C51" d="M159.712-11.025c5.521,0.09,9.971,4.7,9.768,10.118c-0.197,5.202-4.704,9.592-9.894,9.636
			c-5.448,0.044-9.936-4.48-9.915-9.996C149.693-6.843,154.091-11.115,159.712-11.025z"/>
		<g>
			<path fill="#C52275" d="M348.229,93.773c0.599-1.163,1.536-1.829,2.858-1.911c3.744-0.27,7.497-0.078,11.245-0.111
				c2.523-0.021,5.047-0.098,7.566,0.142c0.262,2.221,0.151,4.45,0.061,6.675c-0.551,0.478-1.175,0.383-1.804,0.22
				c-5.477-1.421-11.05-2.426-16.534-3.805C350.463,94.695,349.218,94.581,348.229,93.773z"/>
			<path fill="#B32074" d="M369.966,110.658c0,1.486,0,2.969,0,4.454c-1.743,0.421-3.344-0.348-4.97-0.685
				c-5.018-1.054-9.975-2.41-14.994-3.482c-0.849-0.184-1.804-0.249-2.435-1.012c-0.052-1.307-0.04-2.613-0.008-3.92
				c0.457-0.629,1.033-0.344,1.58-0.199c4.601,1.217,9.278,2.118,13.908,3.222C365.352,109.579,367.684,110.021,369.966,110.658z"/>
			<path fill="#C22275" d="M347.743,105.892c0,1.377,0,2.757,0.004,4.132c0.654,0.968,0.367,2.053,0.404,3.103
				c0.017,0.756,0.034,1.515-0.004,2.271c0.025,0.662,0.025,1.322,0,1.98c0.04,1.054,0.025,2.108-0.004,3.16
				c0.008,0.599,0.025,1.201-0.499,1.638c-0.279-0.494-0.163-1.037-0.163-1.557c-0.004-7.893-0.004-15.786,0.008-23.68
				c0-1.106-0.048-2.238,0.744-3.164c3.116,0.702,6.256,1.303,9.334,2.131c3.637,0.976,7.411,1.335,10.99,2.565
				c0.434,0.147,0.939,0.078,1.408,0.107c0,1.062,0,2.118,0,3.181c-0.834,0.675-1.699,0.285-2.569,0.098
				c-5.676-1.23-11.287-2.745-16.986-3.851c-2.25-0.438-2.254-0.4-2.267,1.963c0.025,0.93,0.038,1.863,0.008,2.793
				C348.118,103.813,348.401,104.917,347.743,105.892z"/>
			<path fill="#B82174" d="M347.743,105.892c0-1.062,0-2.122,0-3.181c0.547-0.503,1.175-0.362,1.8-0.233
				c5.479,1.163,10.918,2.495,16.343,3.903c1.36,0.356,2.891,0.107,4.079,1.098c0,1.062,0,2.118,0,3.181
				c-4.088-0.078-7.931-1.425-11.855-2.324C354.654,107.543,351.108,107.077,347.743,105.892z"/>
			<path fill="#BE2275" d="M347.739,99.866c-0.004-0.052-0.013-0.107-0.017-0.159c-0.098-2.667-0.115-2.581,2.535-2.156
				c5.456,0.874,10.723,2.577,16.15,3.564c1.184,0.216,2.298,0.826,3.558,0.633c0,1.062,0,2.118,0,3.181
				c-0.637,0.503-1.326,0.237-1.976,0.086c-6.269-1.446-12.586-2.671-18.805-4.325C348.625,100.547,348.022,100.494,347.739,99.866z
				"/>
			<path fill="#AF1F74" d="M347.743,113.202c0-1.058,0-2.118,0-3.176c3.271,0.744,6.541,1.479,9.808,2.225
				c4.136,0.947,8.272,1.907,12.41,2.862c0,0.955,0,1.907,0,2.862c-0.997,0.335-1.976,0.126-2.952-0.09
				c-5.079-1.119-10.082-2.6-15.224-3.451C350.398,114.201,349.009,113.891,347.743,113.202z"/>
			<path fill="#831971" d="M372.497,140.876c-0.689,0.356-1.446,0.293-2.181,0.293c-7.681,0.013-15.362,0.013-23.043,0
				c-0.731,0-1.49,0.086-2.177-0.285c0.637-0.65,1.467-0.522,2.242-0.522c4.117,0,8.236-0.065,12.351,0.048
				c1.739,0.013,3.486,0,5.242,0c-5.228-1.041-10.388-2.363-15.582-3.554c-3.964-0.907-7.958-1.695-11.899-2.711
				c-0.74-0.193-1.462-0.197-2.177,0.09c-0.593-0.662-0.93-1.458-1.213-2.282c0.417-0.817,1.102-0.633,1.794-0.511
				c3.744,0.67,7.367,1.877,11.094,2.594c6.279,1.201,12.437,2.927,18.698,4.226c1.76,0.362,3.491,0.844,5.246,1.222
				C371.614,139.642,372.53,139.765,372.497,140.876z"/>
			<path fill="#A81E73" d="M347.743,120.514c0-1.058,0-2.118,0-3.176c0.417-0.371,0.886-0.266,1.356-0.147
				c6.374,1.58,12.819,2.858,19.167,4.553c0.706,0.189,1.716,0.212,1.408,1.446c-0.534,0.999-1.016,2.049-2.267,2.359
				c-3.262-1.421-6.782-1.882-10.204-2.686C354.04,122.111,350.855,121.468,347.743,120.514z"/>
			<path fill="#7C1770" d="M360.089,140.855c-4.997,0.013-9.992,0.021-14.989,0.034c-3.727-0.507-6.636-2.376-8.907-5.32
				c0.228-1.213,1.171-0.821,1.85-0.719c2.087,0.306,4.1,0.989,6.175,1.385c4.505,0.861,8.878,2.319,13.422,3.013
				C358.618,139.397,359.753,139.594,360.089,140.855z"/>
			<path fill="#BB2175" d="M347.739,99.866c5.064,1.119,10.026,2.682,15.161,3.495c2.376,0.375,4.708,1.037,7.061,1.571
				c0,0.849,0,1.695,0,2.544c-3.929-0.375-7.656-1.662-11.486-2.504c-3.572-0.784-7.084-1.867-10.736-2.267
				C347.739,101.76,347.739,100.813,347.739,99.866z"/>
			<path fill="#CB2577" d="M384.282,91.887c0.318,2.336,0.352,4.672-0.021,7.002c-2.25,0.344-4.513,0.069-6.77,0.147
				c-0.572,0.021-0.702-0.314-0.698-0.809c0.008-1.898,0.008-3.797,0-5.693c0-0.507,0.159-0.813,0.719-0.792
				C379.765,91.824,382.032,91.56,384.282,91.887z"/>
			<path fill="#AD1F74" d="M347.743,113.202c3.078,0.593,6.194,1.054,9.232,1.817c2.845,0.714,5.714,1.322,8.567,1.988
				c1.471,0.344,2.948,0.645,4.423,0.968c0,0.74,0,1.481,0,2.221c-0.907,0.662-1.867,0.228-2.753,0.025
				c-5.965-1.393-11.941-2.749-17.931-4.046c-0.576-0.122-1.136-0.274-1.54-0.744C347.743,114.687,347.743,113.946,347.743,113.202z
				"/>
			<path fill="#A41E73" d="M347.743,120.514c0.775-0.344,1.454-0.078,2.242,0.142c2.454,0.698,4.97,1.184,7.457,1.773
				c3.059,0.723,6.106,1.49,9.171,2.181c0.593,0.134,0.83,0.367,0.792,0.934c-1.768,0.748-3.606,0.314-5.418,0.331
				c-0.142-0.065-0.293-0.13-0.453-0.115c-4.373,0.515-8.477-0.857-12.643-1.798c-0.392-0.09-0.679-0.266-0.903-0.585
				c-0.362-0.331-0.367-0.763-0.348-1.205C347.678,121.623,347.71,121.07,347.743,120.514z"/>
			<path fill="#871971" d="M372.497,140.876c-0.515-1.025-1.592-0.981-2.466-1.184c-6.738-1.58-13.491-3.09-20.238-4.639
				c-4.794-1.098-9.584-2.213-14.373-3.336c-0.507-0.119-0.934-0.008-1.36,0.237c-0.212-0.499-0.482-0.981-0.396-1.553
				c0.057-0.061,0.115-0.126,0.168-0.189c0.719-0.383,1.437-0.126,2.139,0.034c2.087,0.465,4.153,1.041,6.261,1.412
				c0.482,0.086,0.882,0.31,1.24,0.62c1.299,1.226,2.969,1.368,4.61,1.494c1.347,0.107,2.707,0.069,4.058,0.094
				c3.572,0.679,7.074,1.695,10.629,2.437c3.568,0.748,7.074,1.764,10.663,2.43c0.74,0.138,1.576,0.352,1.957,1.188
				C374.575,140.7,373.542,140.803,372.497,140.876z"/>
			<path fill="#AA1E73" d="M347.743,115.431c4.014,0.748,7.966,1.777,11.955,2.621c3.417,0.723,6.774,1.773,10.267,2.143
				c0.078,1.012,0.27,2.039-0.289,2.99c-0.008-0.719-0.599-0.838-1.09-0.943c-4.463-0.968-8.873-2.177-13.357-3.086
				c-2.504-0.507-5.022-1.085-7.484-1.821C347.743,116.701,347.743,116.064,347.743,115.431z"/>
			<path fill="#BF2375" d="M333.337,128.809c-0.36-0.694-0.237-1.45-0.237-2.181c-0.008-11.159,0.021-22.321-0.025-33.48
				c-0.004-1.299,0.318-1.638,1.613-1.421c3.899,0.662,5.909,3.099,6.007,7.48c-1.752-0.685-3.65-0.84-5.414-1.49
				c-1.033-0.379-1.471,0.04-1.462,1.094c0.008,1.05,0.013,2.099,0.013,3.149c0.048,1.316,0.04,2.63,0.013,3.945
				c0.04,1.462,0.044,2.927,0,4.39c0.034,1.167,0.044,2.34-0.004,3.507c0.021,1.159,0.048,2.319,0,3.478
				c0.025,1.05,0.038,2.099-0.004,3.149c0.013,0.658,0.034,1.32,0,1.976c0.021,0.752,0.029,1.498,0.008,2.25
				c-0.021,0.943,0.044,1.89-0.021,2.835C333.81,127.988,333.774,128.474,333.337,128.809z"/>
			<path fill="#801870" d="M360.089,140.855c-1.846-1.609-4.26-1.303-6.407-1.89c-2.221-0.608-4.427-1.307-6.684-1.708
				c-3.262-0.576-6.439-1.511-9.695-2.099c-0.413-0.073-0.857-0.04-1.11,0.413c-0.43-0.36-0.771-0.775-0.92-1.33
				c0.017-0.58,0.034-1.029,0.899-0.779c1.351,0.388,2.757,0.564,4.128,0.918c4.01,1.029,8.086,1.798,12.131,2.686
				c1.794,0.396,3.577,0.84,5.366,1.261c2.759,0.65,5.521,1.291,8.276,1.944c0.197,0.044,0.413,0.119,0.404,0.589
				C364.354,140.855,362.219,140.855,360.089,140.855z"/>
			<path fill="#B92175" d="M333.41,101.756c-0.008-1.209,0.025-2.422-0.034-3.631c-0.048-1.066,0.49-1.343,1.364-1.054
				c1.645,0.547,3.283,1.094,5.026,1.184c0.65,0.034,0.526,0.731,0.934,0.951c0.082,0.576,0.228,1.148,0.228,1.722
				c0.017,8.848,0.017,17.699,0.017,26.543c-0.767-0.159-0.572-0.813-0.679-1.316c-0.038-0.727-0.034-1.454-0.017-2.185
				c-0.008-0.65-0.038-1.299-0.004-1.944c-0.034-1.046-0.04-2.091-0.008-3.137c-0.04-1.257-0.04-2.516-0.004-3.774
				c-0.038-1.163-0.04-2.324,0-3.486c-0.029-1.322-0.04-2.646,0.008-3.964c-0.098-1.201,0.409-2.544-0.266-3.572
				c-0.689-1.05-2.164-0.559-3.227-1.004C335.643,102.633,334.342,102.654,333.41,101.756z"/>
			<path fill="#8A1A71" d="M375.392,139.929c-4.092-1.498-8.421-2.045-12.605-3.176c-2.586-0.698-5.228-1.188-7.798-1.932
				c-0.947-0.274-2.198,0.237-2.841-0.947c1.907,0,3.818,0,5.724,0c3.912,0.861,7.784,1.902,11.704,2.724
				c2.022,0.425,3.977,1.09,6.011,1.471c0.564,0.107,1.115,0.36,1.425,0.92C376.626,139.568,376.063,139.839,375.392,139.929z"/>
			<path fill="#A41E73" d="M384.314,127.864c-0.017,0.199-0.034,0.4-0.048,0.597c-0.383,0.511,0.013,1.157-0.293,1.678
				c-0.082,1.012-0.379,1.944-0.985,2.772c-1.691-2.122-4.136-1.997-6.481-2.164c-0.352-0.025-0.719,0.233-1.062-0.052
				c0.58-1.11,1.02-2.267,1.221-3.507c0.193-0.258,0.078-0.681,0.444-0.844c0.503-0.22,1.041-0.254,1.527-0.061
				c1.712,0.675,3.581,0.654,5.309,1.249C384.102,127.6,384.226,127.714,384.314,127.864z"/>
			<path fill="#911B72" d="M380.13,136.738c-0.409,0.637-0.882,1.213-1.601,1.527c-4.45-1.106-8.938-2.053-13.387-3.181
				c-0.895-0.228-2.037-0.057-2.504-1.217c2.604-0.013,5.211-0.025,7.815-0.038c3.237-0.094,6.244,0.92,9.244,1.94
				C380.117,135.914,380.456,136.212,380.13,136.738z"/>
			<path fill="#BC2376" d="M380.448,113.864c-1.058-0.147-2.741,0.585-3.568-0.274c-0.817-0.844-0.228-2.516-0.245-3.818
				c-0.04-3.271-0.013-3.271,3.296-3.271c1.163,0,2.328,0.04,3.486-0.013c0.84-0.04,1.102,0.285,1.079,1.102
				c-0.044,1.691-0.065,3.382,0.008,5.068c0.044,1.004-0.339,1.299-1.282,1.226C382.384,113.81,381.533,113.864,380.448,113.864z"/>
			<path fill="#8D1A71" d="M362.641,133.871c1.863,0.857,3.891,1.102,5.86,1.571c2.956,0.71,5.934,1.33,8.894,2.026
				c0.453,0.107,0.903,0.327,1.136,0.8c-0.603,0.029-0.838,0.844-1.519,0.714c-4.884-1.412-9.862-2.441-14.807-3.606
				c-1.458-0.344-3.076-0.49-4.337-1.506C359.458,133.871,361.048,133.871,362.641,133.871z"/>
			<path fill="#921B72" d="M340.674,126.241c0.073,0.417-0.111,0.89,0.27,1.238c0.142,0.645,0.281,1.291,0.425,1.936
				c-2.715-0.362-5.387-0.922-7.954-1.902c-0.004-0.951-0.004-1.902-0.008-2.854C335.888,124.916,338.327,125.363,340.674,126.241z"
				/>
			<path fill="#AC2175" d="M376.957,126.559c-0.094,0.207-0.193,0.417-0.285,0.629c-0.017-1.634,0.008-3.271-0.061-4.905
				c-0.038-0.874,0.335-1.075,1.119-1.058c1.898,0.04,3.801,0.017,5.701,0.013c0.568,0,1.09,0.025,1.054,0.8
				c-0.09,1.944,0.207,3.895-0.163,5.831l-0.09-0.065c-0.608-0.792-0.356-1.726-0.409-2.604c-0.04-0.681-0.159-1.266-0.964-1.412
				c-1.404-0.258-2.757-0.723-4.153-1.02c-1.184-0.254-1.356,0.207-1.33,1.205C377.393,124.839,377.594,125.775,376.957,126.559z"/>
			<path fill="#971C72" d="M380.13,136.738c-0.038-0.348-0.203-0.53-0.568-0.645c-2.99-0.947-6.055-1.571-9.11-2.263
				c1.085-0.448,2.177-0.899,3.266-1.347c2.127,0.58,4.276,1.079,6.395,1.678c0.593,0.168,1.609,0.13,1.286,1.299
				C381.089,136.004,380.787,136.547,380.13,136.738z"/>
			<path fill="#9F1D73" d="M375.445,130.691c2.164-0.878,4.153,0.025,6.21,0.526c1.054,0.258,1.454,0.681,1.33,1.695
				c-0.044,0.438-0.254,0.779-0.576,1.071c-1.588-0.685-3.287-0.96-4.97-1.291c-0.972-0.193-1.959-0.371-2.47-1.393
				C375.13,131.095,375.285,130.896,375.445,130.691z"/>
			<path fill="#9A1C72" d="M374.971,131.296c1.735,1.119,3.774,1.184,5.701,1.576c0.8,0.163,1.393,0.367,1.739,1.106
				c-0.193,0.597-0.53,1.085-1.012,1.481c-0.13-0.857-0.907-0.771-1.454-0.922c-1.653-0.465-3.319-0.882-4.997-1.257
				c-0.538-0.122-1.025-0.212-1.234-0.796C374.135,132.093,374.556,131.692,374.971,131.296z"/>
			<path fill="#8D1B72" d="M333.414,127.51c2.732,0.298,5.406,0.84,7.954,1.902c0.224,0.421,0.448,0.84,0.679,1.257
				c-0.616,0.49-1.299,0.281-1.944,0.122c-1.567-0.388-3.185-0.526-4.737-0.981c-0.694-0.203-1.222-0.073-1.626,0.526l-0.073,0.061
				c-0.358-0.482-0.318-1.041-0.323-1.592C333.362,128.376,333.391,127.942,333.414,127.51z"/>
			<path fill="#A11F74" d="M347.989,123.383c2.818,0.457,5.555,1.196,8.272,2.091c1.188,0.392,2.6,0.086,3.912,0.138
				c0.608,0.025,1.27-0.216,1.812,0.262c-3.463,0.021-6.925,0.098-10.384,0.038C349.92,125.88,348.613,125.061,347.989,123.383z"/>
			<path fill="#891A71" d="M333.737,130.341c-0.151-1.102,0.228-1.343,1.335-1.075c2.303,0.559,4.647,0.947,6.971,1.404
				c0.478,0.534,0.951,1.075,1.429,1.609C340.169,131.925,337.049,130.647,333.737,130.341z"/>
			<path fill="#C92979" d="M384.282,91.887c-2.001,0.004-4.006,0.052-6.007-0.008c-1.05-0.034-1.393,0.348-1.343,1.372
				c0.069,1.421,0.086,2.85-0.004,4.268c-0.073,1.171,0.44,1.421,1.486,1.389c1.949-0.061,3.899-0.017,5.848-0.017
				c-2.332,0.522-4.691,0.115-7.04,0.216c-0.597,0.025-0.603-0.457-0.603-0.895c0-1.898,0.004-3.797,0-5.697
				c0-0.453,0.04-0.899,0.637-0.865C379.597,91.772,381.959,91.323,384.282,91.887z"/>
			<path fill="#CA2879" d="M369.901,91.897c-6.273-0.013-12.54-0.025-18.813-0.034c0.356-0.069,0.706-0.199,1.062-0.199
				c5.632-0.013,11.266-0.008,16.898-0.004C369.35,91.657,369.691,91.56,369.901,91.897z"/>
			<path fill="#A81F74" d="M383.972,130.14c0.038-0.572-0.249-1.196,0.293-1.678C384.312,129.046,384.314,129.624,383.972,130.14z"
				/>
			<path fill="#B01F74" d="M340.674,107.48c0,1.377,0,2.757,0,4.132c-0.339,0.306-0.752,0.434-1.175,0.331
				c-2.041-0.494-4.14-0.752-6.089-1.601c0-1.481,0-2.969,0-4.45c0.207-0.184,0.469-0.318,0.727-0.249
				C336.318,106.248,338.617,106.441,340.674,107.48z"/>
			<path fill="#B52074" d="M340.674,107.48c-1.936-0.086-3.74-0.775-5.603-1.205c-0.555-0.126-1.106-0.258-1.662-0.383
				c0-1.377,0-2.757,0-4.132c2.118,0.348,4.096,1.299,6.269,1.425c0.702,0.04,1.09,0.482,1.033,1.295
				C340.638,105.473,340.682,106.476,340.674,107.48z"/>
			<path fill="#AB1F74" d="M333.41,110.34c1.89-0.134,3.602,0.685,5.397,1.033c0.624,0.122,1.234,0.249,1.867,0.237
				c0,1.167,0,2.332,0,3.499c-0.163,0.134-0.335,0.306-0.538,0.31c-2.372,0.034-4.651-0.344-6.726-1.58
				C333.41,112.676,333.41,111.507,333.41,110.34z"/>
			<path fill="#A71E73" d="M333.41,113.839c2.435,0.352,4.742,1.425,7.264,1.27c0,1.27,0,2.544,0,3.813
				c-0.254,0.22-0.559,0.327-0.87,0.245c-2.143-0.559-4.45-0.564-6.395-1.833C333.41,116.171,333.41,115.006,333.41,113.839z"/>
			<path fill="#A41D73" d="M333.41,117.338c2.422,0.53,4.842,1.062,7.264,1.588c0,1.058,0,2.118,0,3.176
				c-1.609,0.356-3.063-0.469-4.601-0.666c-0.891-0.115-1.879-0.318-2.663-0.922C333.41,119.458,333.41,118.396,333.41,117.338z"/>
			<path fill="#991C72" d="M340.674,126.241c-2.487-0.228-4.941-0.608-7.268-1.58c0-0.744,0-1.49,0.004-2.234
				c0.675-0.589,1.425-0.241,2.116-0.103c1.781,0.356,3.654,0.457,5.154,1.687C340.674,124.749,340.674,125.497,340.674,126.241z"/>
			<path fill="#9F1D73" d="M340.674,124.007c-2.389-0.681-4.773-1.389-7.264-1.584c0-0.637,0-1.274,0-1.907
				c2.466,0.331,4.884,0.878,7.264,1.588C340.674,122.742,340.674,123.374,340.674,124.007z"/>
			<path fill="#A81F74" d="M376.957,126.559c0-0.585-0.004-1.163-0.004-1.747c0-3.026,0.008-3.051,2.994-2.282
				c1.171,0.302,2.294,0.792,3.52,0.849c0.761,0.034,0.8,0.526,0.796,1.094c-0.017,1.11-0.021,2.221-0.034,3.331
				c-1.789-0.212-3.593-0.339-5.28-1.041C378.288,126.486,377.622,126.595,376.957,126.559z"/>
			<path fill="#B82275" d="M380.461,113.516c-0.052,0-0.107,0-0.159,0c-3.61,0-3.872-0.323-3.361-3.929
				c0.082-0.589,0.274-0.853,0.89-0.8c2.049,0.184,3.95,1.012,5.965,1.393c1.004,0.193,0.335,1.666,0.438,2.552
				c0.09,0.758-0.522,0.784-1.079,0.779C382.256,113.516,381.357,113.516,380.461,113.516z"/>
		</g>
	</g>
</g>
</svg>
