<?xml version="1.0" encoding="utf-8"?>
<!-- Generator: Adobe Illustrator 17.0.0, SVG Export Plug-In . SVG Version: 6.00 Build 0)  -->
<!DOCTYPE svg PUBLIC "-//W3C//DTD SVG 1.1//EN" "http://www.w3.org/Graphics/SVG/1.1/DTD/svg11.dtd">
<svg version="1.1" id="Layer_1" xmlns="http://www.w3.org/2000/svg" xmlns:xlink="http://www.w3.org/1999/xlink" x="0px" y="0px"
	 width="418px" height="130.333px" viewBox="0 0 418 245.333" enable-background="new 0 0 418 245.333" xml:space="preserve">
<rect fill="#FFFFFF" width="418" height="245.333"/>
<g>
	<path fill="#C52275" d="M345.85,174.54c0.551-1.069,1.41-1.68,2.625-1.755c3.439-0.248,6.886-0.071,10.328-0.101
		c2.318-0.019,4.635-0.09,6.949,0.131c0.24,2.04,0.139,4.088,0.056,6.132c-0.506,0.439-1.08,0.353-1.658,0.203
		c-5.029-1.305-10.148-2.228-15.185-3.495C347.902,175.384,346.758,175.283,345.85,174.54z"/>
	<path fill="#B32074" d="M365.813,190.044c0,1.365,0,2.727,0,4.092c-1.601,0.386-3.072-0.319-4.564-0.63
		c-4.609-0.968-9.162-2.213-13.771-3.199c-0.78-0.169-1.658-0.229-2.235-0.93c-0.049-1.2-0.038-2.4-0.007-3.6
		c0.42-0.578,0.949-0.315,1.451-0.184c4.227,1.118,8.521,1.946,12.774,2.959C361.576,189.054,363.717,189.459,365.813,190.044z"/>
	<path fill="#C22275" d="M345.404,185.668c0,1.264,0,2.531,0.004,3.795c0.6,0.889,0.338,1.886,0.371,2.85
		c0.015,0.694,0.03,1.391-0.004,2.085c0.022,0.608,0.022,1.215,0,1.819c0.038,0.968,0.022,1.935-0.004,2.903
		c0.007,0.551,0.022,1.103-0.458,1.504c-0.255-0.454-0.15-0.953-0.15-1.429c-0.004-7.249-0.004-14.499,0.007-21.748
		c0-1.016-0.045-2.055,0.683-2.907c2.862,0.645,5.746,1.196,8.573,1.958c3.342,0.896,6.807,1.226,10.092,2.355
		c0.398,0.135,0.863,0.071,1.294,0.098c0,0.975,0,1.946,0,2.922c-0.765,0.619-1.56,0.263-2.359,0.09
		c-5.213-1.129-10.366-2.52-15.602-3.537c-2.066-0.401-2.07-0.368-2.081,1.804c0.022,0.855,0.034,1.71,0.007,2.565
		C345.749,183.763,346.008,184.771,345.404,185.668z"/>
	<path fill="#B82174" d="M345.404,185.668c0-0.975,0-1.95,0-2.922c0.503-0.461,1.08-0.334,1.654-0.214
		c5.033,1.069,10.028,2.291,15.009,3.585c1.249,0.326,2.655,0.098,3.747,1.009c0,0.975,0,1.946,0,2.922
		c-3.754-0.071-7.283-1.309-10.887-2.134C351.75,187.183,348.494,186.755,345.404,185.668z"/>
	<path fill="#BE2275" d="M345.4,180.136c-0.004-0.049-0.011-0.098-0.015-0.146c-0.09-2.449-0.105-2.37,2.329-1.98
		c5.01,0.803,9.848,2.366,14.833,3.274c1.088,0.199,2.111,0.758,3.267,0.581c0,0.975,0,1.946,0,2.922
		c-0.585,0.461-1.219,0.218-1.815,0.079c-5.757-1.328-11.559-2.453-17.27-3.972C346.214,180.759,345.659,180.71,345.4,180.136z"/>
	<path fill="#AF1F74" d="M345.404,192.385c0-0.971,0-1.946,0-2.918c3.004,0.683,6.008,1.358,9.008,2.044
		c3.799,0.87,7.598,1.751,11.397,2.629c0,0.878,0,1.751,0,2.629c-0.915,0.308-1.815,0.116-2.712-0.083
		c-4.665-1.028-9.26-2.389-13.981-3.169C347.842,193.3,346.567,193.015,345.404,192.385z"/>
	<path fill="#831971" d="M368.139,217.801c-0.634,0.326-1.328,0.27-2.003,0.27c-7.054,0.011-14.109,0.011-21.163,0
		c-0.671,0-1.369,0.079-1.999-0.263c0.585-0.596,1.346-0.48,2.059-0.48c3.78,0,7.564-0.06,11.345,0.045c1.598,0.011,3.203,0,4.815,0
		c-4.8-0.956-9.541-2.171-14.311-3.263c-3.642-0.833-7.309-1.556-10.929-2.49c-0.679-0.176-1.343-0.18-1.999,0.083
		c-0.544-0.608-0.855-1.339-1.114-2.096c0.383-0.75,1.013-0.581,1.646-0.469c3.439,0.615,6.766,1.725,10.19,2.381
		c5.768,1.103,11.424,2.689,17.173,3.882c1.616,0.334,3.207,0.776,4.819,1.121C367.329,216.665,368.169,216.781,368.139,217.801z"/>
	<path fill="#A81E73" d="M345.408,199.098c0-0.971,0-1.946,0-2.918c0.383-0.341,0.814-0.244,1.245-0.135
		c5.854,1.451,11.772,2.625,17.604,4.182c0.649,0.173,1.575,0.195,1.294,1.328c-0.491,0.919-0.934,1.883-2.081,2.168
		c-2.997-1.305-6.229-1.729-9.372-2.468C351.187,200.568,348.262,199.975,345.408,199.098z"/>
	<path fill="#7C1770" d="M356.741,217.782c-4.59,0.011-9.177,0.019-13.768,0.03c-3.424-0.465-6.094-2.183-8.18-4.887
		c0.21-1.114,1.076-0.754,1.699-0.66c1.916,0.281,3.765,0.908,5.671,1.271c4.137,0.791,8.153,2.13,12.327,2.768
		C355.391,216.439,356.434,216.619,356.741,217.782z"/>
	<path fill="#BB2175" d="M345.4,180.136c4.65,1.028,9.207,2.464,13.925,3.21c2.183,0.345,4.324,0.953,6.484,1.444
		c0,0.78,0,1.556,0,2.336c-3.608-0.345-7.032-1.526-10.55-2.299c-3.282-0.72-6.507-1.714-9.86-2.081
		C345.4,181.876,345.4,181.006,345.4,180.136z"/>
	<path fill="#CB2577" d="M378.962,172.808c0.293,2.145,0.323,4.29-0.019,6.432c-2.066,0.315-4.144,0.064-6.218,0.135
		c-0.525,0.019-0.645-0.289-0.641-0.743c0.007-1.744,0.007-3.488,0-5.228c0-0.465,0.146-0.746,0.66-0.728
		C374.814,172.748,376.896,172.508,378.962,172.808z"/>
	<path fill="#AD1F74" d="M345.404,192.385c2.828,0.544,5.689,0.968,8.48,1.669c2.614,0.656,5.247,1.215,7.868,1.826
		c1.35,0.315,2.708,0.593,4.062,0.889c0,0.679,0,1.361,0,2.04c-0.833,0.608-1.714,0.21-2.528,0.022
		c-5.479-1.279-10.966-2.524-16.468-3.717c-0.529-0.113-1.043-0.251-1.414-0.683C345.404,193.746,345.404,193.063,345.404,192.385z"
		/>
	<path fill="#A41E73" d="M345.408,199.098c0.713-0.315,1.335-0.071,2.059,0.131c2.254,0.641,4.564,1.088,6.848,1.628
		c2.809,0.664,5.607,1.369,8.423,2.003c0.544,0.124,0.761,0.338,0.728,0.859c-1.624,0.686-3.312,0.289-4.977,0.304
		c-0.131-0.06-0.27-0.12-0.416-0.105c-4.017,0.473-7.786-0.788-11.611-1.65c-0.36-0.083-0.623-0.244-0.829-0.536
		c-0.334-0.304-0.338-0.701-0.319-1.106C345.344,200.118,345.374,199.608,345.408,199.098z"/>
	<path fill="#871971" d="M368.139,217.801c-0.473-0.941-1.463-0.9-2.265-1.088c-6.188-1.451-12.391-2.839-18.587-4.26
		c-4.403-1.009-8.802-2.033-13.201-3.064c-0.465-0.109-0.859-0.008-1.249,0.218c-0.195-0.458-0.443-0.9-0.364-1.425
		c0.053-0.056,0.105-0.116,0.154-0.173c0.66-0.353,1.32-0.116,1.965,0.03c1.916,0.428,3.814,0.956,5.749,1.298
		c0.443,0.079,0.81,0.285,1.14,0.57c1.193,1.125,2.727,1.256,4.234,1.373c1.238,0.098,2.487,0.064,3.728,0.086
		c3.282,0.623,6.496,1.556,9.762,2.239c3.278,0.686,6.496,1.62,9.792,2.231c0.679,0.128,1.448,0.323,1.796,1.091
		C370.048,217.636,369.099,217.73,368.139,217.801z"/>
	<path fill="#AA1E73" d="M345.404,194.429c3.687,0.686,7.317,1.631,10.981,2.408c3.139,0.664,6.222,1.628,9.428,1.969
		c0.071,0.93,0.248,1.871-0.266,2.745c-0.007-0.66-0.551-0.769-1.001-0.866c-4.099-0.889-8.15-1.999-12.267-2.835
		c-2.299-0.465-4.613-0.998-6.874-1.673C345.404,195.595,345.404,195.014,345.404,194.429z"/>
	<path fill="#BF2375" d="M332.173,206.715c-0.33-0.638-0.218-1.331-0.218-2.003c-0.008-10.25,0.019-20.499-0.022-30.749
		c-0.004-1.193,0.293-1.504,1.481-1.305c3.582,0.608,5.427,2.847,5.517,6.871c-1.609-0.63-3.353-0.773-4.973-1.369
		c-0.949-0.349-1.35,0.038-1.343,1.005c0.007,0.964,0.011,1.928,0.011,2.892c0.045,1.208,0.038,2.415,0.011,3.623
		c0.038,1.343,0.041,2.689,0,4.032c0.03,1.073,0.041,2.149-0.004,3.222c0.019,1.065,0.045,2.13,0,3.195
		c0.022,0.964,0.034,1.928-0.004,2.892c0.011,0.604,0.03,1.211,0,1.815c0.019,0.69,0.026,1.376,0.007,2.066
		c-0.019,0.866,0.041,1.736-0.019,2.603C332.608,205.961,332.578,206.407,332.173,206.715z"/>
	<path fill="#801870" d="M356.741,217.782c-1.695-1.478-3.912-1.2-5.884-1.736c-2.04-0.559-4.065-1.2-6.139-1.568
		c-2.997-0.529-5.914-1.388-8.903-1.928c-0.379-0.068-0.788-0.038-1.02,0.379c-0.394-0.33-0.709-0.713-0.844-1.223
		c0.015-0.533,0.03-0.945,0.825-0.716c1.241,0.356,2.531,0.518,3.792,0.844c3.683,0.945,7.426,1.65,11.142,2.468
		c1.646,0.364,3.285,0.773,4.928,1.159c2.535,0.596,5.07,1.185,7.602,1.785c0.18,0.041,0.379,0.109,0.371,0.54
		C360.66,217.782,358.699,217.782,356.741,217.782z"/>
	<path fill="#B92175" d="M332.24,181.872c-0.007-1.11,0.022-2.224-0.03-3.334c-0.045-0.979,0.45-1.234,1.253-0.968
		c1.511,0.503,3.015,1.005,4.617,1.088c0.596,0.03,0.484,0.671,0.859,0.874c0.075,0.529,0.21,1.054,0.21,1.583
		c0.015,8.127,0.015,16.254,0.015,24.377c-0.705-0.146-0.525-0.746-0.623-1.208c-0.034-0.668-0.03-1.335-0.015-2.006
		c-0.007-0.596-0.034-1.193-0.004-1.785c-0.03-0.96-0.038-1.92-0.008-2.88c-0.038-1.155-0.038-2.31-0.004-3.465
		c-0.034-1.069-0.038-2.134,0-3.203c-0.026-1.215-0.038-2.43,0.007-3.642c-0.09-1.103,0.375-2.336-0.244-3.282
		c-0.634-0.964-1.988-0.514-2.963-0.923C334.292,182.679,333.095,182.697,332.24,181.872z"/>
	<path fill="#8A1A71" d="M370.798,216.927c-3.758-1.376-7.733-1.879-11.577-2.918c-2.374-0.641-4.8-1.091-7.163-1.774
		c-0.87-0.251-2.018,0.218-2.61-0.87c1.751,0,3.503,0,5.258,0c3.593,0.791,7.148,1.748,10.749,2.501
		c1.856,0.39,3.653,1.001,5.521,1.35c0.518,0.098,1.024,0.33,1.309,0.844C371.93,216.597,371.413,216.848,370.798,216.927z"/>
	<path fill="#A41E73" d="M378.992,205.852c-0.015,0.184-0.03,0.368-0.045,0.548c-0.353,0.469,0.011,1.061-0.27,1.541
		c-0.075,0.93-0.349,1.785-0.904,2.546c-1.553-1.95-3.799-1.834-5.952-1.988c-0.323-0.022-0.66,0.214-0.975-0.049
		c0.533-1.02,0.938-2.081,1.121-3.222c0.176-0.236,0.071-0.626,0.409-0.776c0.461-0.203,0.956-0.233,1.403-0.056
		c1.571,0.619,3.289,0.6,4.875,1.148C378.801,205.608,378.91,205.713,378.992,205.852z"/>
	<path fill="#911B72" d="M375.148,214.002c-0.375,0.585-0.81,1.114-1.47,1.403c-4.088-1.016-8.21-1.886-12.294-2.922
		c-0.821-0.21-1.871-0.053-2.299-1.118c2.393-0.011,4.785-0.022,7.178-0.034c2.974-0.086,5.734,0.844,8.491,1.781
		C375.137,213.244,375.448,213.514,375.148,214.002z"/>
	<path fill="#BC2376" d="M375.441,192.992c-0.971-0.135-2.516,0.536-3.278-0.251c-0.75-0.776-0.21-2.31-0.225-3.507
		c-0.038-3.004-0.011-3.004,3.027-3.004c1.069,0,2.138,0.038,3.203-0.011c0.773-0.038,1.013,0.263,0.99,1.013
		c-0.041,1.553-0.06,3.105,0.007,4.654c0.041,0.923-0.311,1.193-1.178,1.125C377.218,192.943,376.438,192.992,375.441,192.992z"/>
	<path fill="#8D1A71" d="M359.085,211.365c1.71,0.788,3.574,1.013,5.382,1.444c2.715,0.653,5.449,1.223,8.168,1.86
		c0.416,0.098,0.829,0.3,1.043,0.735c-0.555,0.026-0.769,0.776-1.395,0.656c-4.485-1.298-9.057-2.243-13.599-3.312
		c-1.339-0.315-2.824-0.45-3.983-1.384C356.164,211.365,357.623,211.365,359.085,211.365z"/>
	<path fill="#921B72" d="M338.912,204.356c0.068,0.383-0.101,0.818,0.248,1.136c0.131,0.593,0.259,1.185,0.39,1.778
		c-2.494-0.334-4.947-0.848-7.306-1.748c-0.004-0.874-0.004-1.748-0.008-2.621C334.517,203.144,336.756,203.549,338.912,204.356z"/>
	<path fill="#AC2175" d="M372.234,204.648c-0.086,0.191-0.176,0.383-0.263,0.578c-0.015-1.5,0.007-3.004-0.056-4.504
		c-0.034-0.803,0.308-0.986,1.028-0.971c1.744,0.038,3.492,0.015,5.236,0.011c0.521,0,1.001,0.022,0.968,0.735
		c-0.083,1.785,0.191,3.578-0.15,5.356l-0.083-0.06c-0.559-0.728-0.326-1.586-0.375-2.393c-0.038-0.626-0.146-1.163-0.885-1.298
		c-1.29-0.236-2.532-0.664-3.814-0.938c-1.088-0.233-1.245,0.191-1.223,1.106C372.639,203.073,372.819,203.932,372.234,204.648z"/>
	<path fill="#971C72" d="M375.148,214.002c-0.034-0.319-0.188-0.488-0.521-0.593c-2.745-0.87-5.562-1.444-8.367-2.078
		c0.998-0.413,1.999-0.825,3-1.238c1.954,0.533,3.927,0.99,5.873,1.541c0.544,0.154,1.478,0.12,1.181,1.193
		C376.029,213.323,375.752,213.822,375.148,214.002z"/>
	<path fill="#9F1D73" d="M370.846,208.447c1.988-0.806,3.814,0.022,5.704,0.484c0.968,0.236,1.335,0.626,1.223,1.556
		c-0.041,0.401-0.232,0.716-0.529,0.983c-1.459-0.63-3.019-0.881-4.564-1.185c-0.893-0.176-1.8-0.341-2.269-1.279
		C370.558,208.815,370.7,208.631,370.846,208.447z"/>
	<path fill="#9A1C72" d="M370.411,209.003c1.594,1.028,3.465,1.088,5.236,1.448c0.735,0.15,1.279,0.338,1.598,1.016
		c-0.176,0.548-0.488,0.998-0.93,1.361c-0.12-0.788-0.833-0.709-1.335-0.848c-1.519-0.428-3.049-0.81-4.59-1.155
		c-0.495-0.113-0.941-0.195-1.133-0.731C369.643,209.73,370.029,209.366,370.411,209.003z"/>
	<path fill="#8D1B72" d="M332.244,205.522c2.509,0.274,4.965,0.773,7.306,1.748c0.206,0.386,0.413,0.773,0.623,1.155
		c-0.566,0.45-1.193,0.259-1.785,0.113c-1.44-0.356-2.925-0.484-4.35-0.9c-0.638-0.188-1.121-0.068-1.493,0.484l-0.067,0.056
		c-0.33-0.443-0.293-0.956-0.296-1.463C332.199,206.317,332.221,205.92,332.244,205.522z"/>
	<path fill="#A11F74" d="M345.629,201.731c2.588,0.42,5.1,1.099,7.598,1.92c1.091,0.36,2.389,0.079,3.593,0.128
		c0.559,0.022,1.166-0.199,1.665,0.24c-3.18,0.019-6.361,0.09-9.537,0.034C347.403,204.026,346.203,203.272,345.629,201.731z"/>
	<path fill="#891A71" d="M332.54,208.125c-0.139-1.013,0.21-1.234,1.226-0.986c2.115,0.514,4.268,0.87,6.402,1.29
		c0.439,0.491,0.874,0.986,1.313,1.478C338.447,209.576,335.586,208.406,332.54,208.125z"/>
	<path fill="#C92979" d="M378.962,172.808c-1.838,0.004-3.679,0.049-5.517-0.007c-0.964-0.03-1.279,0.319-1.234,1.26
		c0.064,1.305,0.079,2.618-0.004,3.919c-0.067,1.076,0.405,1.305,1.365,1.275c1.789-0.056,3.582-0.015,5.371-0.015
		c-2.141,0.48-4.309,0.105-6.466,0.199c-0.548,0.022-0.555-0.42-0.555-0.821c0-1.744,0.004-3.488,0-5.232
		c0-0.416,0.038-0.825,0.585-0.795C374.661,172.703,376.828,172.29,378.962,172.808z"/>
	<path fill="#CA2879" d="M365.753,172.815c-5.761-0.011-11.517-0.022-17.278-0.03c0.326-0.064,0.649-0.184,0.975-0.184
		c5.172-0.011,10.347-0.011,15.519-0.004C365.247,172.594,365.562,172.508,365.753,172.815z"/>
	<path fill="#A81F74" d="M378.677,207.941c0.034-0.525-0.229-1.099,0.27-1.541C378.988,206.936,378.992,207.465,378.677,207.941z"/>
	<path fill="#B01F74" d="M338.912,187.127c0,1.264,0,2.531,0,3.795c-0.311,0.281-0.69,0.398-1.08,0.304
		c-1.875-0.454-3.803-0.69-5.592-1.47c0-1.361,0-2.727,0-4.088c0.191-0.169,0.431-0.293,0.668-0.229
		C334.91,185.994,337.022,186.17,338.912,187.127z"/>
	<path fill="#B52074" d="M338.912,187.127c-1.778-0.079-3.435-0.713-5.145-1.106c-0.51-0.116-1.016-0.236-1.526-0.353
		c0-1.264,0-2.532,0-3.795c1.946,0.319,3.762,1.193,5.757,1.309c0.645,0.038,1.001,0.443,0.949,1.189
		C338.878,185.282,338.92,186.208,338.912,187.127z"/>
	<path fill="#AB1F74" d="M332.24,189.756c1.736-0.124,3.308,0.63,4.958,0.949c0.574,0.113,1.133,0.229,1.714,0.218
		c0,1.073,0,2.141,0,3.214c-0.15,0.124-0.308,0.281-0.495,0.285c-2.179,0.03-4.272-0.315-6.177-1.451
		C332.24,191.897,332.24,190.825,332.24,189.756z"/>
	<path fill="#A71E73" d="M332.24,192.97c2.235,0.323,4.354,1.309,6.672,1.166c0,1.166,0,2.336,0,3.503
		c-0.233,0.203-0.514,0.3-0.799,0.225c-1.969-0.514-4.088-0.518-5.873-1.684C332.24,195.111,332.24,194.039,332.24,192.97z"/>
	<path fill="#A41D73" d="M332.24,196.18c2.224,0.488,4.448,0.975,6.672,1.459c0,0.971,0,1.946,0,2.918
		c-1.478,0.326-2.813-0.431-4.227-0.611c-0.818-0.105-1.725-0.293-2.445-0.848C332.24,198.126,332.24,197.151,332.24,196.18z"/>
	<path fill="#991C72" d="M338.912,204.356c-2.284-0.21-4.538-0.559-6.676-1.451c0-0.683,0-1.369,0.004-2.051
		c0.619-0.54,1.309-0.221,1.943-0.094c1.635,0.326,3.357,0.42,4.733,1.549C338.912,202.991,338.912,203.673,338.912,204.356z"/>
	<path fill="#9F1D73" d="M338.912,202.308c-2.194-0.626-4.384-1.275-6.672-1.455c0-0.585,0-1.17,0-1.751
		c2.265,0.304,4.485,0.806,6.672,1.459C338.912,201.142,338.912,201.723,338.912,202.308z"/>
	<path fill="#A81F74" d="M372.234,204.648c0-0.536-0.004-1.069-0.004-1.605c0-2.779,0.007-2.802,2.749-2.096
		c1.076,0.278,2.108,0.728,3.233,0.78c0.698,0.03,0.735,0.484,0.731,1.005c-0.015,1.02-0.019,2.04-0.03,3.06
		c-1.643-0.195-3.3-0.311-4.849-0.956C373.457,204.581,372.845,204.686,372.234,204.648z"/>
	<path fill="#B82275" d="M375.452,192.673c-0.049,0-0.098,0-0.146,0c-3.315,0-3.555-0.296-3.087-3.608
		c0.075-0.54,0.251-0.784,0.818-0.735c1.883,0.169,3.627,0.93,5.479,1.279c0.923,0.176,0.308,1.53,0.401,2.344
		c0.083,0.698-0.48,0.72-0.99,0.716C377.102,192.67,376.277,192.673,375.452,192.673z"/>
</g>
<g>
	<g>
		
			<rect x="105.066" y="95.693" fill="none" stroke="#9FA0A8" stroke-width="0.5" stroke-miterlimit="10" width="92.31" height="16.263"/>
		<rect x="195.032" y="94.063" fill="#4B7E7F" width="26.807" height="19.42"/>
	</g>
	<path fill="#D8D9D9" d="M209.176,160.17c-54.038,0-108.077-0.039-162.115,0.08c-3.956,0.009-5.507-0.808-5.327-5.122
		c0.355-8.494,0.359-17.024,0.001-25.518c-0.189-4.478,1.395-5.334,5.566-5.329c87.775,0.119,175.55,0.09,263.325,0.09
		c20.6,0,41.201,0.065,61.8-0.064c3.37-0.021,4.754,0.69,4.639,4.423c-0.276,8.948-0.28,17.916,0,26.864
		c0.122,3.895-1.311,4.652-4.88,4.646C317.85,160.139,263.513,160.17,209.176,160.17z"/>
	<path fill="#7F7F81" d="M104.994,69.54c15.52,0,31.039-0.002,46.559,0.004c1.192,0,2.387,0.013,3.576,0.089
		c1.09,0.07,1.512,0.768,1.494,1.807c-0.018,1.067-0.555,1.653-1.61,1.715c-0.893,0.052-1.789,0.062-2.683,0.062
		c-31.487,0.003-62.974,0.003-94.46-0.002c-1.042,0-2.089-0.019-3.126-0.115c-0.888-0.082-1.207-0.741-1.248-1.553
		c-0.049-0.989,0.214-1.813,1.364-1.899c1.188-0.088,2.383-0.103,3.575-0.103C73.955,69.538,89.474,69.54,104.994,69.54z"/>
	<path fill="#7F7F81" d="M105.471,52.726c15.369,0,30.737,0,46.106,0.001c1.044,0,2.089,0.01,3.133,0.025
		c1.229,0.018,1.963,0.513,1.921,1.877c-0.044,1.418-0.957,1.679-2.096,1.697c-0.746,0.011-1.492,0.021-2.238,0.021
		c-31.483,0.001-62.966,0.001-94.449-0.001c-0.895,0-1.791-0.005-2.685-0.037c-1.038-0.037-1.629-0.529-1.678-1.633
		c-0.059-1.323,0.577-1.918,1.853-1.926c1.343-0.009,2.686-0.023,4.028-0.023C74.734,52.726,90.102,52.726,105.471,52.726z"/>
	<path fill="#7F7F81" d="M102.33,61.587c15.223,0,30.446-0.028,45.669,0.048c1.389,0.007,3.758-1.029,3.855,1.614
		c0.112,3.081-2.53,1.897-4,1.9c-30.148,0.071-60.295,0.068-90.443,0.007c-1.387-0.003-3.751,1.024-3.85-1.614
		c-0.116-3.087,2.529-1.89,3.995-1.899C72.481,61.551,87.406,61.586,102.33,61.587z"/>
	<path fill="#7F7F81" d="M101.435,43.836c14.306,0,28.612-0.004,42.919,0.008c1.186,0.001,2.393,0.003,3.553,0.212
		c1.04,0.187,1.319,1.101,1.232,2.065c-0.079,0.874-0.696,1.286-1.498,1.344c-1.038,0.074-2.084,0.069-3.126,0.069
		c-28.761,0.003-57.523,0.002-86.284,0.002c-0.596,0-1.194,0.027-1.788-0.01c-1.277-0.081-2.868,0.294-2.946-1.761
		c-0.077-2.06,1.448-1.905,2.784-1.917c2.831-0.024,5.663-0.011,8.494-0.011C76.996,43.836,89.215,43.836,101.435,43.836z"/>
	<path fill="#194C51" d="M73.624,34.232c-6.265,0-12.538-0.182-18.793,0.074c-3.261,0.134-3.085-1.606-3.152-3.847
		c-0.073-2.432,0.169-3.774,3.266-3.729c12.528,0.185,25.062,0.201,37.59-0.006c3.322-0.055,3.055,1.647,3.121,3.856
		c0.072,2.393-0.102,3.862-3.239,3.73C86.163,34.048,79.89,34.233,73.624,34.232z"/>
	<path fill="#194C51" d="M243.817,34.233c-6.255,0-12.519-0.184-18.763,0.077c-3.166,0.133-3.243-1.414-3.211-3.757
		c0.031-2.256-0.119-3.88,3.151-3.827c12.508,0.202,25.022,0.184,37.531,0.009c3.076-0.043,3.317,1.305,3.287,3.741
		c-0.028,2.351-0.095,3.935-3.231,3.823C256.334,34.076,250.073,34.233,243.817,34.233z"/>
	<path fill="#194C51" d="M292.998,34.233c-6.109,0-12.226-0.191-18.323,0.078c-3.197,0.141-3.603-1.21-3.564-3.878
		c0.036-2.433,0.218-3.749,3.296-3.703c12.513,0.186,25.032,0.191,37.544,0c3.272-0.05,3.066,1.62,3.158,3.864
		c0.104,2.528-0.34,3.812-3.341,3.706C305.519,34.078,299.256,34.233,292.998,34.233z"/>
	<path fill="#194C51" d="M343.208,34.232c-6.266-0.001-12.536-0.139-18.796,0.062c-2.808,0.09-3.229-1.181-3.018-3.453
		c0.178-1.922-0.766-4.152,2.825-4.102c12.678,0.176,25.363,0.191,38.04-0.014c3.391-0.055,2.935,1.786,3.077,3.915
		c0.169,2.548-0.335,3.778-3.334,3.664C355.746,34.067,349.474,34.233,343.208,34.232z"/>
	<path fill="#194C51" d="M193.304,34.232c-6.257-0.001-12.52-0.172-18.767,0.07c-3.213,0.125-3.138-1.57-3.211-3.852
		c-0.08-2.509,0.345-3.754,3.36-3.713c12.362,0.17,24.729,0.163,37.092,0.003c2.914-0.038,3.45,1.044,3.445,3.636
		c-0.005,2.669-0.392,4.065-3.598,3.931C205.527,34.052,199.412,34.233,193.304,34.232z"/>
	<path fill="#7F7F81" d="M82.617,82.084c-8.508,0-17.016,0.027-25.524-0.025c-1.49-0.009-3.593,0.662-3.653-1.983
		c-0.06-2.649,2.014-2.102,3.537-2.105c17.464-0.029,34.927-0.035,52.391,0.008c1.634,0.004,4.06-0.655,3.939,2.201
		c-0.104,2.461-2.307,1.87-3.824,1.879C100.529,82.109,91.573,82.084,82.617,82.084z"/>
	<path fill="#194C51" d="M333.285,110.13c-1.929,0.001-3.894-0.236-5.78,0.051c-3.758,0.572-4.193-1.221-4.325-4.464
		c-0.157-3.85,1.165-4.816,4.772-4.553c4.281,0.312,8.603,0.151,12.904,0.053c3.998-0.091,2.507,2.868,2.608,4.731
		c0.099,1.817,1.035,4.454-2.614,4.214C338.339,109.996,335.807,110.129,333.285,110.13z"/>
	<path fill="#194C51" d="M311.093,110.128c-1.484,0.003-2.968,0.003-4.452,0.002c-6.078-0.001-6.015,0.003-5.589-6.214
		c0.121-1.763,0.465-2.747,2.51-2.709c5.192,0.096,10.388-0.033,15.58,0.059c3.742,0.066,1.957,3.029,2.06,4.695
		c0.094,1.529,1.363,4.199-2.096,4.169C316.435,110.107,313.764,110.126,311.093,110.128z"/>
	<path fill="#194C51" d="M289.208,101.244c1.342-0.004,2.683-0.004,4.025-0.004c5.83,0.001,7.006,1.581,5.831,7.339
		c-0.301,1.476-1.041,1.547-2.139,1.546c-5.217-0.007-10.436-0.095-15.65,0.032c-3.14,0.076-2.457-2.206-2.176-3.669
		c0.346-1.802-1.875-4.93,2.063-5.205C283.832,101.097,286.525,101.248,289.208,101.244z"/>
	<path fill="#194C51" d="M355.228,110.127c-1.64,0-3.316-0.222-4.912,0.044c-4.003,0.668-4.978-0.921-4.857-4.806
		c0.103-3.277,0.772-4.472,4.212-4.201c4.148,0.326,8.365,0.356,12.508-0.003c3.971-0.343,3.502,2.074,3.443,4.481
		c-0.055,2.235,0.865,5.031-3.246,4.536C360.025,109.895,357.613,110.127,355.228,110.127z"/>
	<path fill="#7F7F81" d="M193.488,83.046c-6.116,0-12.232,0.03-18.348-0.024c-1.354-0.012-3.317,0.563-3.232-1.87
		c0.083-2.39,2.05-1.722,3.377-1.727c12.083-0.048,24.166-0.045,36.248-0.003c1.348,0.005,3.318-0.557,3.234,1.865
		c-0.082,2.377-2.045,1.716-3.378,1.73C205.422,83.082,199.454,83.046,193.488,83.046z"/>
	<path fill="#7F7F81" d="M193.723,43.835c5.971,0,11.941-0.019,17.912,0.014c1.418,0.008,3.261-0.389,3.145,1.997
		c-0.1,2.059-1.768,1.669-3.024,1.672c-12.24,0.028-24.48,0.029-36.719,0.002c-1.408-0.003-3.262,0.389-3.14-2.008
		c0.105-2.068,1.765-1.653,3.019-1.66C181.184,43.816,187.454,43.835,193.723,43.835z"/>
	<path fill="#7F7F81" d="M243.463,43.834c5.968-0.001,11.936-0.038,17.902,0.028c1.33,0.015,3.29-0.681,3.423,1.683
		c0.134,2.373-1.769,1.972-3.171,1.975c-12.233,0.028-24.467,0.025-36.7-0.001c-1.269-0.003-2.922,0.333-2.992-1.71
		c-0.081-2.385,1.786-1.949,3.187-1.958C231.229,43.813,237.346,43.835,243.463,43.834z"/>
	<path fill="#7F7F81" d="M292.723,47.535c-6.118,0-12.236,0.024-18.353-0.018c-1.4-0.009-3.276,0.41-3.149-1.994
		c0.108-2.039,1.76-1.67,3.022-1.673c12.236-0.026,24.471-0.027,36.707-0.002c1.404,0.003,3.267-0.423,3.147,1.982
		c-0.102,2.045-1.756,1.68-3.021,1.688C304.959,47.555,298.841,47.535,292.723,47.535z"/>
	<path fill="#7F7F81" d="M342.912,43.835c6.121,0,12.243-0.022,18.364,0.018c1.246,0.008,2.911-0.437,3.044,1.632
		c0.155,2.405-1.69,2.033-3.107,2.036c-12.242,0.025-24.485,0.026-36.727-0.004c-1.247-0.003-2.924,0.419-3.049-1.643
		c-0.144-2.382,1.681-2.021,3.112-2.027C330.669,43.82,336.791,43.835,342.912,43.835z"/>
	<path fill="#7F7F81" d="M193.279,52.726c6.119,0,12.237-0.023,18.356,0.017c1.389,0.009,3.268-0.47,3.145,1.962
		c-0.107,2.101-1.801,1.618-3.028,1.622c-12.237,0.033-24.475,0.035-36.712,0.001c-1.371-0.004-3.275,0.504-3.142-1.958
		c0.114-2.103,1.794-1.616,3.026-1.625C181.042,52.703,187.161,52.726,193.279,52.726z"/>
	<path fill="#7F7F81" d="M243.401,52.727c6.116,0,12.233-0.024,18.349,0.02c1.232,0.009,2.922-0.483,3.046,1.609
		c0.145,2.443-1.751,1.97-3.134,1.974c-12.232,0.031-24.465,0.031-36.697-0.003c-1.223-0.003-2.924,0.49-3.043-1.603
		c-0.138-2.419,1.731-1.973,3.131-1.982C231.169,52.706,237.285,52.727,243.401,52.727z"/>
	<path fill="#7F7F81" d="M292.731,79.399c6.114,0,12.227-0.022,18.34,0.019c1.248,0.008,2.93-0.41,3.023,1.657
		c0.109,2.413-1.776,1.951-3.166,1.954c-12.227,0.029-24.454,0.026-36.681,0c-1.257-0.003-2.921,0.38-3.024-1.662
		c-0.123-2.433,1.794-1.936,3.167-1.947C280.504,79.371,286.617,79.399,292.731,79.399z"/>
	<path fill="#7F7F81" d="M292.746,56.348c-6.116-0.001-12.233,0.029-18.348-0.024c-1.356-0.012-3.283,0.547-3.179-1.917
		c0.088-2.083,1.756-1.659,3-1.662c12.232-0.029,24.464-0.033,36.697,0.002c1.365,0.004,3.321-0.526,3.168,1.922
		c-0.15,2.393-2.128,1.63-3.437,1.646C304.68,56.392,298.712,56.349,292.746,56.348z"/>
	<path fill="#7F7F81" d="M74.128,107.409c-5.95,0-11.9,0.056-17.848-0.041c-1.392-0.023-3.647,0.912-3.592-1.888
		c0.048-2.447,2.055-1.678,3.343-1.684c12.048-0.056,24.096-0.056,36.144,0.001c1.287,0.006,3.296-0.773,3.373,1.657
		c0.088,2.801-2.17,1.894-3.571,1.916C86.028,107.463,80.078,107.409,74.128,107.409z"/>
	<path fill="#7F7F81" d="M342.518,56.349c-5.971-0.001-11.942,0.03-17.912-0.024c-1.355-0.012-3.278,0.554-3.17-1.922
		c0.091-2.098,1.759-1.655,2.998-1.658c12.24-0.03,24.48-0.033,36.72,0.002c1.363,0.004,3.313-0.536,3.156,1.926
		c-0.154,2.409-2.131,1.626-3.433,1.642C354.758,56.393,348.638,56.349,342.518,56.349z"/>
	<path fill="#7F7F81" d="M193.288,65.202c-6.11,0-12.22,0.027-18.329-0.023c-1.215-0.01-2.911,0.529-3.061-1.574
		c-0.173-2.437,1.691-2,3.087-2.003c12.219-0.026,24.439-0.03,36.658,0.009c1.206,0.004,2.908-0.546,3.054,1.574
		c0.168,2.435-1.677,1.996-3.081,2.003C205.508,65.22,199.398,65.202,193.288,65.202z"/>
	<path fill="#7F7F81" d="M243.349,61.587c6.095,0,12.19-0.021,18.284,0.016c1.248,0.008,2.921-0.419,3.017,1.642
		c0.113,2.411-1.771,1.939-3.156,1.942c-12.189,0.028-24.379,0.027-36.569-0.004c-1.232-0.003-2.901,0.443-3.003-1.637
		c-0.12-2.443,1.776-1.928,3.142-1.939C231.159,61.561,237.254,61.587,243.349,61.587z"/>
	<path fill="#7F7F81" d="M292.82,61.588c6.098,0,12.195-0.011,18.293,0.009c1.305,0.004,2.872-0.236,2.849,1.827
		c-0.023,2.074-1.616,1.766-2.901,1.767c-12.344,0.017-24.688,0.018-37.032-0.003c-1.281-0.002-2.858,0.29-2.832-1.822
		c0.026-2.112,1.626-1.756,2.884-1.762C280.327,61.57,286.574,61.588,292.82,61.588z"/>
	<path fill="#7F7F81" d="M342.903,61.586c5.952-0.001,11.905-0.041,17.856,0.031c1.315,0.016,3.285-0.72,3.423,1.658
		c0.141,2.432-1.81,1.903-3.173,1.907c-12.202,0.034-24.404,0.031-36.605,0.001c-1.233-0.003-2.891,0.441-2.97-1.665
		c-0.093-2.474,1.82-1.896,3.167-1.908C330.701,61.557,336.802,61.587,342.903,61.586z"/>
	<path fill="#7F7F81" d="M192.956,74.177c-6.093,0-12.187,0.013-18.28-0.012c-1.289-0.005-2.845,0.27-2.793-1.848
		c0.052-2.098,1.627-1.762,2.891-1.764c12.335-0.023,24.671-0.026,37.006,0.005c1.228,0.003,2.887-0.457,3.005,1.634
		c0.138,2.44-1.719,1.961-3.102,1.97C205.44,74.199,199.198,74.177,192.956,74.177z"/>
	<path fill="#7F7F81" d="M243.015,74.179c-5.822,0-11.644,0.056-17.464-0.041c-1.402-0.023-3.689,0.905-3.606-1.892
		c0.07-2.392,2.088-1.672,3.399-1.678c11.942-0.053,23.884-0.059,35.825,0.005c1.414,0.008,3.743-0.852,3.591,1.912
		c-0.147,2.678-2.444,1.618-3.833,1.645C254.958,74.245,248.986,74.179,243.015,74.179z"/>
	<path fill="#7F7F81" d="M292.742,70.537c5.972-0.001,11.944-0.043,17.915,0.032c1.311,0.017,3.275-0.741,3.429,1.661
		c0.158,2.471-1.795,1.923-3.155,1.927c-12.242,0.036-24.484,0.032-36.726,0.001c-1.232-0.003-2.904,0.456-2.99-1.657
		c-0.1-2.457,1.795-1.932,3.165-1.943C280.499,70.511,286.62,70.538,292.742,70.537z"/>
	<path fill="#7F7F81" d="M342.463,74.178c-5.946,0-11.892,0.033-17.837-0.026c-1.332-0.013-3.284,0.609-3.186-1.867
		c0.096-2.414,2.04-1.714,3.346-1.719c12.04-0.051,24.081-0.052,36.121,0.003c1.297,0.006,3.3-0.75,3.394,1.654
		c0.11,2.803-2.156,1.896-3.554,1.917C354.653,74.231,348.557,74.179,342.463,74.178z"/>
	<path fill="#7F7F81" d="M258.764,107.396c-3.425,0-6.849-0.01-10.274,0.005c-1.412,0.006-2.285-0.466-2.179-2.068
		c0.098-1.47,1.128-1.556,2.211-1.557c6.849-0.007,13.699-0.003,20.548-0.001c1.109,0,2.079,0.138,2.164,1.594
		c0.095,1.621-0.792,2.043-2.197,2.034C265.613,107.381,262.189,107.396,258.764,107.396z"/>
	<path fill="#194C51" d="M93.82,152.458c-12.537,0-25.074,0.038-37.61-0.049c-1.513-0.011-3.974,1.114-4.131-1.869
		c-0.164-3.129,2.37-2.066,3.873-2.07c25.223-0.06,50.445-0.058,75.668-0.001c1.382,0.003,3.603-0.961,3.679,1.819
		c0.084,3.077-2.332,2.123-3.87,2.131C118.894,152.488,106.357,152.458,93.82,152.458z"/>
	<path fill="#194C51" d="M328.131,148.368c11.182,0,22.364-0.029,33.546,0.033c1.546,0.009,3.917-0.91,3.738,2.208
		c-0.158,2.747-2.305,1.823-3.699,1.826c-22.215,0.056-44.43,0.052-66.644,0.013c-1.6-0.003-3.954,0.778-3.786-2.253
		c0.151-2.728,2.343-1.778,3.747-1.787C306.065,148.335,317.099,148.368,328.131,148.368z"/>
	<path fill="#4B7E7F" d="M231.008,130.802c3.183,0.542,5.303,2.299,5.108,5.63c-0.178,3.027-2.142,4.981-5.283,4.888
		c-3.341-0.099-5.262-2.206-5.122-5.487C225.842,132.75,227.966,131.17,231.008,130.802z"/>
	<path fill="#4B7E7F" d="M217.382,141.435c-3.549-0.184-5.643-1.832-5.84-4.848c-0.213-3.251,1.839-5.475,5.04-5.625
		c3.253-0.152,5.268,1.897,5.33,5.238C221.972,139.417,219.844,140.848,217.382,141.435z"/>
	<path fill="#4B7E7F" d="M182.392,136.156c0.201-3.41,2.179-5.227,5.162-5.202c2.98,0.025,5.055,1.839,5.026,5.125
		c-0.03,3.416-1.919,5.376-5.308,5.233C184.128,141.179,182.547,139.14,182.392,136.156z"/>
	<path fill="#4B7E7F" d="M196.606,136.421c0.164-3.637,2.13-5.476,5.117-5.468c2.964,0.008,5.087,1.787,5.068,5.081
		c-0.019,3.411-1.937,5.359-5.294,5.278C198.324,141.235,196.789,139.161,196.606,136.421z"/>
</g>
</svg>
