<?xml version="1.0" encoding="utf-8"?>
<!-- Generator: Adobe Illustrator 17.0.0, SVG Export Plug-In . SVG Version: 6.00 Build 0)  -->
<!DOCTYPE svg PUBLIC "-//W3C//DTD SVG 1.1//EN" "http://www.w3.org/Graphics/SVG/1.1/DTD/svg11.dtd">
<svg version="1.1" id="Layer_1" xmlns="http://www.w3.org/2000/svg" xmlns:xlink="http://www.w3.org/1999/xlink" x="0px" y="0px"
	 width="418px" height="130.333px" viewBox="0 0 418 245.333" enable-background="new 0 0 418 245.333" xml:space="preserve">
<rect y="0.002" fill="#FEFEFE" width="418" height="245.33"/>
<path fill="#194C51" d="M42.897,51.836c-0.043-11.624-0.032-23.248-0.176-34.871c-0.027-2.224,0.754-2.953,2.822-2.671
	c0.439,0.06,0.893,0.008,1.34,0.008c109.558,0,219.116,0,328.675,0.005c0.892,0,1.785,0.068,2.677,0.104
	c0.838,1.221,0.458,2.606,0.462,3.914c0.034,9.835-0.163,19.674,0.109,29.502c0.106,3.832-1.176,5.124-4.782,4.525
	c-0.435-0.072-0.892-0.01-1.339-0.01c-108.182,0-216.364,0.003-324.546-0.027C46.395,52.314,44.564,52.832,42.897,51.836z"/>
<path fill="#D8D9D9" d="M211.408,178.938c-53.806,0-107.613-0.047-161.419,0.092c-4.183,0.011-5.966-0.883-5.518-5.342
	c0.371-3.689,0.227-7.453,0.028-11.169c-0.16-2.989,0.679-4.585,3.947-4.125c0.731,0.103,1.488,0.014,2.234,0.014
	c107.464,0,214.928,0,322.392,0c6.109,0,6.255,0.007,6.067,5.916c-0.15,4.707,2.097,10.742-0.977,13.752
	c-2.847,2.789-8.804,0.822-13.383,0.827C313.656,178.958,262.532,178.938,211.408,178.938z"/>
<path fill="#797B85" d="M42.897,51.836c21.322,0.024,42.643,0.066,63.965,0.068c88.569,0.008,177.138,0.004,265.707,0.003
	c5.796,0,5.814-0.004,5.797-5.743c-0.031-10.584-0.086-21.169-0.131-31.753c1.911,0.895,0.946,2.609,0.958,3.905
	c0.089,9.983-0.136,19.973,0.142,29.949c0.108,3.868-1.221,4.62-4.808,4.613c-57.52-0.106-115.04-0.075-172.56-0.075
	c-51.41,0-102.821,0.011-154.231-0.051C46.139,52.749,44.198,53.719,42.897,51.836z"/>
<path fill="#194C51" d="M76.759,74.214c-6.094,0-12.192-0.133-18.28,0.06c-2.759,0.087-3.24-1.106-3.083-3.437
	c0.138-2.05-0.48-4.092,2.95-4.049c12.632,0.16,25.269,0.187,37.899-0.018c3.415-0.055,2.861,1.847,3.022,3.917
	c0.2,2.564-0.385,3.712-3.338,3.602C89.547,74.049,83.15,74.214,76.759,74.214z"/>
<path fill="#194C51" d="M168.15,74.214c-6.241,0-12.487-0.145-18.721,0.065c-2.845,0.096-3.165-1.223-2.999-3.465
	c0.146-1.973-0.642-4.086,2.877-4.035c12.628,0.183,25.262,0.169,37.891,0.005c3.271-0.042,3.058,1.729,3.08,3.929
	c0.021,2.144-0.011,3.66-2.961,3.564C180.935,74.069,174.54,74.214,168.15,74.214z"/>
<path fill="#194C51" d="M273.531,66.851c6.104,0,12.215,0.182,18.308-0.077c3.035-0.129,3.45,1.147,3.289,3.645
	c-0.136,2.105,0.353,3.941-3.052,3.882c-12.502-0.218-25.011-0.187-37.514-0.012c-2.972,0.042-3.354-1.097-3.364-3.629
	c-0.01-2.679,0.393-4.017,3.577-3.885C261.018,67.034,267.278,66.851,273.531,66.851z"/>
<path fill="#EEEEEE" d="M55.309,131.521c-0.661-0.641-0.826-1.399,0.219-1.593c1.299-0.241,2.662-0.175,3.998-0.175
	c100.98-0.006,201.959-0.009,302.939,0.026c1.701,0.001,3.606-0.69,5.077,0.865c-1.702,0.842-3.52,0.41-5.276,0.41
	c-100.562,0.025-201.123,0.019-301.685,0.044C58.826,131.098,57.005,130.654,55.309,131.521z"/>
<path fill="#E7E8E8" d="M55.309,131.521c1.483-1.531,3.385-0.848,5.09-0.848c102.381-0.034,204.762-0.03,307.143-0.029
	c-1.317,1.478-3.072,0.866-4.633,0.867C260.376,131.534,157.842,131.526,55.309,131.521z"/>
<path fill="#7F7F81" d="M95.149,92.844c11.458,0,22.915-0.028,34.372,0.036c1.424,0.008,3.707-0.801,3.604,1.919
	c-0.087,2.299-2.102,1.662-3.439,1.665c-23.361,0.036-46.723,0.036-70.084,0c-1.334-0.002-3.352,0.625-3.375-1.72
	c-0.026-2.705,2.242-1.853,3.656-1.861C71.638,92.815,83.394,92.844,95.149,92.844z"/>
<path fill="#7F7F81" d="M92.901,104.86c-11.007,0-22.014,0.032-33.02-0.04c-1.404-0.009-3.733,0.871-3.641-1.846
	c0.09-2.636,2.382-1.71,3.788-1.714c21.865-0.058,43.73-0.058,65.595,0.002c1.404,0.004,3.748-0.955,3.843,1.636
	c0.112,3.045-2.513,1.894-3.99,1.908C114.617,104.907,103.759,104.861,92.901,104.86z"/>
<path fill="#7F7F81" d="M91.527,87.652c-10.578,0-21.157,0.03-31.735-0.035c-1.418-0.009-3.68,0.841-3.575-1.931
	c0.091-2.379,2.103-1.658,3.413-1.661c21.454-0.043,42.909-0.046,64.364,0.003c1.427,0.003,3.743-0.795,3.565,1.945
	c-0.171,2.64-2.457,1.623-3.851,1.634C112.982,87.69,102.254,87.653,91.527,87.652z"/>
<path fill="#7F7F81" d="M81.68,112.839c-7.282,0-14.564,0.046-21.844-0.04c-1.398-0.017-3.652,0.891-3.622-1.87
	c0.026-2.414,2.033-1.704,3.337-1.708c15.009-0.047,30.018-0.042,45.027-0.01c1.357,0.003,3.299-0.545,3.208,1.872
	c-0.089,2.367-2.032,1.722-3.369,1.731C96.838,112.867,89.259,112.839,81.68,112.839z"/>
<path fill="#7F7F81" d="M168.925,83.994c5.943-0.001,11.887-0.037,17.829,0.026c1.322,0.014,3.301-0.648,3.243,1.803
	c-0.045,1.916-1.583,1.826-2.939,1.826c-12.48,0.003-24.961,0.007-37.441-0.004c-1.322-0.001-2.863,0.187-2.792-1.878
	c0.07-2.042,1.645-1.757,2.934-1.761C156.148,83.982,162.536,83.995,168.925,83.994z"/>
<path fill="#7F7F81" d="M168.229,122.647c-6.088,0-12.177,0.021-18.265-0.016c-1.395-0.009-3.265,0.43-3.124-1.973
	c0.121-2.062,1.805-1.601,3.04-1.604c12.325-0.029,24.65-0.02,36.975-0.014c1.49,0.001,3.241-0.171,3.148,2.059
	c-0.088,2.1-1.866,1.513-3.064,1.523C180.702,122.676,174.465,122.647,168.229,122.647z"/>
<path fill="#7F7F81" d="M168.025,113.841c-5.963,0-11.927,0.034-17.889-0.026c-1.339-0.013-3.318,0.6-3.253-1.83
	c0.051-1.909,1.619-1.823,2.971-1.824c12.373-0.008,24.747-0.008,37.12-0.001c1.339,0.001,2.924-0.148,3.025,1.764
	c0.13,2.434-1.833,1.884-3.191,1.895C180.548,113.869,174.286,113.841,168.025,113.841z"/>
<path fill="#7F7F81" d="M168.925,92.841c5.957,0,11.915-0.03,17.872,0.023c1.355,0.012,3.335-0.546,3.204,1.876
	c-0.103,1.889-1.716,1.743-3.048,1.744c-12.362,0.01-24.723,0.009-37.085-0.001c-1.346-0.001-2.943,0.075-2.985-1.815
	c-0.053-2.412,1.941-1.787,3.277-1.8C156.414,92.808,162.67,92.841,168.925,92.841z"/>
<path fill="#7F7F81" d="M211.928,136.07c6.11,0,12.221-0.016,18.331,0.012c1.426,0.006,3.253-0.362,3.097,2.023
	c-0.135,2.066-1.821,1.611-3.057,1.614c-12.221,0.032-24.442,0.03-36.662,0.007c-1.417-0.003-3.256,0.368-3.094-2.033
	c0.14-2.082,1.822-1.593,3.054-1.602C199.707,136.046,205.817,136.07,211.928,136.07z"/>
<path fill="#7F7F81" d="M218.603,110.155c5.937,0,11.874-0.022,17.811,0.017c1.388,0.009,3.234-0.45,3.146,1.954
	c-0.076,2.068-1.71,1.694-2.962,1.697c-12.319,0.025-24.639,0.024-36.959,0.001c-1.261-0.002-2.873,0.339-2.918-1.737
	c-0.053-2.43,1.817-1.901,3.18-1.911C206.135,110.129,212.369,110.155,218.603,110.155z"/>
<path fill="#7F7F81" d="M218.105,83.994c6.089,0,12.178-0.03,18.266,0.024c1.344,0.012,3.268-0.562,3.187,1.881
	c-0.081,2.424-2.024,1.719-3.33,1.724c-12.029,0.05-24.058,0.052-36.087-0.003c-1.295-0.006-3.29,0.756-3.395-1.643
	c-0.121-2.788,2.129-1.926,3.538-1.947C206.223,83.943,212.164,83.994,218.105,83.994z"/>
<path fill="#7F7F81" d="M212.19,148.556c-6.258,0-12.517,0.017-18.775-0.014c-1.265-0.006-2.865,0.348-2.882-1.771
	c-0.017-2.129,1.582-1.792,2.851-1.794c12.368-0.022,24.736-0.023,37.104,0.002c1.257,0.003,2.868-0.363,2.883,1.764
	c0.016,2.127-1.584,1.791-2.852,1.798C224.409,148.573,218.3,148.556,212.19,148.556z"/>
<path fill="#7F7F81" d="M218.111,104.86c-6.096,0-12.193,0.023-18.289-0.017c-1.389-0.009-3.259,0.438-3.093-1.994
	c0.141-2.066,1.805-1.608,3.039-1.611c12.192-0.03,24.385-0.028,36.578-0.006c1.412,0.003,3.261-0.388,3.109,1.999
	c-0.131,2.054-1.821,1.599-3.055,1.608C230.304,104.885,224.207,104.86,218.111,104.86z"/>
<path fill="#7F7F81" d="M76.748,136.07c5.938,0,11.877-0.054,17.813,0.04c1.401,0.022,3.651-0.891,3.612,1.876
	c-0.034,2.392-2.021,1.72-3.335,1.725c-12.024,0.049-24.048,0.05-36.072-0.003c-1.303-0.006-3.297,0.722-3.383-1.67
	c-0.1-2.77,2.138-1.912,3.553-1.933C64.872,136.021,70.81,136.07,76.748,136.07z"/>
<path fill="#7F7F81" d="M77.229,144.963c5.937,0,11.874-0.031,17.811,0.024c1.337,0.012,3.243-0.592,3.156,1.892
	c-0.074,2.122-1.729,1.656-2.951,1.659c-12.319,0.031-24.639,0.03-36.958,0.001c-1.224-0.003-2.871,0.454-2.929-1.677
	c-0.068-2.494,1.843-1.861,3.17-1.873C64.761,144.931,70.995,144.963,77.229,144.963z"/>
<path fill="#7F7F81" d="M217.695,96.491c-5.96,0-11.919,0.015-17.879-0.011c-1.433-0.006-3.255,0.34-3.087-2.035
	c0.147-2.073,1.857-1.576,3.079-1.579c12.217-0.036,24.434-0.036,36.651,0c1.224,0.004,2.939-0.488,3.092,1.571
	c0.176,2.361-1.645,2.039-3.084,2.044C230.211,96.505,223.953,96.491,217.695,96.491z"/>
<path fill="#7F7F81" d="M168.021,104.86c-5.956,0.002-11.913,0.039-17.868-0.026c-1.323-0.015-3.325,0.648-3.267-1.791
	c0.045-1.901,1.626-1.815,2.974-1.816c12.359-0.008,24.718-0.008,37.078,0.003c1.193,0.001,2.49-0.057,2.583,1.671
	c0.112,2.074-1.4,1.945-2.737,1.949C180.529,104.867,174.275,104.857,168.021,104.86z"/>
<path fill="#7F7F81" d="M268.641,92.842c4.614-0.001,9.228-0.039,13.841,0.022c1.351,0.018,3.327-0.568,3.235,1.844
	c-0.072,1.89-1.67,1.777-3.012,1.778c-9.823,0.009-19.646,0.011-29.469-0.002c-1.338-0.002-2.874,0.131-2.769-1.923
	c0.105-2.053,1.728-1.693,2.992-1.703C258.52,92.821,263.581,92.843,268.641,92.842z"/>
<path fill="#7F7F81" d="M267.901,87.653c-4.752,0.001-9.504,0.034-14.256-0.021c-1.36-0.016-3.245,0.53-3.173-1.912
	c0.061-2.077,1.688-1.709,2.943-1.712c9.652-0.027,19.305-0.027,28.957,0.003c1.255,0.004,2.908-0.34,2.97,1.7
	c0.074,2.394-1.809,1.908-3.186,1.922C277.405,87.683,272.653,87.653,267.901,87.653z"/>
<path fill="#7F7F81" d="M308.943,92.849c4.894-0.003,9.789-0.011,14.683,0.001c1.371,0.003,2.814-0.02,2.672,2.008
	c-0.121,1.726-1.431,1.623-2.609,1.624c-9.937,0.01-19.874,0.008-29.811-0.005c-1.227-0.002-2.454-0.084-2.478-1.791
	c-0.025-1.706,1.176-1.826,2.416-1.83C298.858,92.845,303.9,92.853,308.943,92.849z"/>
<path fill="#7F7F81" d="M308.585,104.859c-4.761,0-9.522,0.021-14.283-0.014c-1.281-0.009-2.887,0.263-2.884-1.799
	c0.003-2.055,1.599-1.81,2.891-1.813c9.671-0.023,19.342-0.022,29.013-0.003c1.292,0.003,2.884-0.265,2.876,1.805
	c-0.008,2.047-1.582,1.807-2.882,1.814C318.405,104.875,313.495,104.86,308.585,104.859z"/>
<path fill="#7F7F81" d="M350.098,104.857c-4.919,0-9.838,0.016-14.757-0.012c-1.15-0.007-2.522,0.203-2.644-1.582
	c-0.136-2.001,1.232-2.045,2.652-2.044c9.838,0.004,19.676,0.004,29.515,0c1.426-0.001,2.788,0.062,2.647,2.054
	c-0.127,1.782-1.507,1.565-2.655,1.572C359.936,104.874,355.017,104.857,350.098,104.857z"/>
<path fill="#7F7F81" d="M267.784,104.861c-4.765,0-9.53,0.027-14.295-0.019c-1.247-0.012-2.923,0.408-3.011-1.661
	c-0.103-2.414,1.782-1.94,3.166-1.945c9.53-0.033,19.06-0.029,28.59-0.001c1.258,0.004,2.917-0.37,3.014,1.667
	c0.116,2.428-1.8,1.921-3.17,1.937C277.314,104.895,272.549,104.861,267.784,104.861z"/>
<path fill="#7F7F81" d="M308.486,87.651c-4.753,0-9.507,0.017-14.26-0.011c-1.301-0.008-2.866,0.223-2.816-1.859
	c0.05-2.06,1.636-1.767,2.907-1.77c9.804-0.025,19.608-0.019,29.411-0.005c1.176,0.002,2.474-0.12,2.575,1.649
	c0.116,2.04-1.284,1.996-2.667,1.996C318.586,87.652,313.536,87.651,308.486,87.651z"/>
<path fill="#7F7F81" d="M308.93,110.156c4.9,0,9.8,0,14.699,0c1.391,0,2.785-0.012,2.674,2.005c-0.096,1.746-1.39,1.664-2.575,1.666
	c-9.8,0.013-19.599,0.019-29.399-0.004c-1.28-0.003-2.864,0.256-2.916-1.777c-0.052-2.049,1.499-1.873,2.816-1.88
	C299.13,110.142,304.03,110.157,308.93,110.156z"/>
<path fill="#7F7F81" d="M350.144,110.157c4.901,0,9.802-0.005,14.703,0.004c1.365,0.002,2.812-0.061,2.735,1.962
	c-0.066,1.723-1.344,1.703-2.544,1.705c-9.951,0.011-19.901,0.01-29.852,0.002c-1.213-0.001-2.446-0.004-2.496-1.74
	c-0.059-2.065,1.411-1.923,2.75-1.927C340.342,110.148,345.243,110.156,350.144,110.157z"/>
<path fill="#7F7F81" d="M268.248,113.832c-5.046,0.004-10.093,0.008-15.139,0.002c-1.401-0.002-2.786-0.052-2.646-2.052
	c0.121-1.744,1.434-1.617,2.609-1.618c9.944-0.01,19.888-0.006,29.833,0.005c1.237,0.001,2.447,0.102,2.458,1.81
	c0.01,1.694-1.174,1.84-2.421,1.843C278.043,113.835,273.145,113.827,268.248,113.832z"/>
<path fill="#7F7F81" d="M267.789,119.039c4.897,0,9.795-0.021,14.692,0.014c1.272,0.009,2.872-0.293,2.873,1.79
	c0.001,2.086-1.605,1.783-2.871,1.786c-9.795,0.026-19.589,0.015-29.384,0.014c-1.393,0-2.787,0.003-2.634-2.024
	c0.135-1.777,1.483-1.564,2.632-1.57C257.995,119.025,262.892,119.039,267.789,119.039z"/>
<path fill="#7F7F81" d="M349.754,96.492c-4.746-0.001-9.492,0.015-14.237-0.011c-1.302-0.007-2.858,0.216-2.817-1.856
	c0.041-2.065,1.625-1.763,2.896-1.767c9.64-0.024,19.28-0.028,28.92,0.005c1.24,0.004,2.931-0.413,3.045,1.617
	c0.131,2.339-1.702,1.991-3.124,2C359.543,96.512,354.648,96.492,349.754,96.492z"/>
<path fill="#7F7F81" d="M349.95,87.652c-4.754-0.001-9.509,0.026-14.263-0.019c-1.233-0.012-2.876,0.447-2.98-1.652
	c-0.12-2.445,1.742-1.963,3.117-1.968c9.509-0.035,19.018-0.039,28.526,0.005c1.348,0.006,3.288-0.544,3.209,1.877
	c-0.078,2.393-2.027,1.708-3.346,1.729C359.459,87.698,354.704,87.653,349.95,87.652z"/>
<path fill="#4B7E7F" d="M159.985,141.915c-0.442,2.853-1.943,4.431-4.516,4.369c-2.613-0.063-4.235-1.825-4.126-4.36
	c0.107-2.481,1.714-4.167,4.399-4.091C158.44,137.91,159.562,139.738,159.985,141.915z"/>
<path fill="#4B7E7F" d="M167.117,146.361c-2.65-0.38-4.256-1.893-4.179-4.391c0.076-2.447,1.627-4.161,4.245-4.128
	c2.814,0.035,4.395,1.787,4.263,4.518C171.321,144.925,169.494,146.138,167.117,146.361z"/>
<path fill="#4B7E7F" d="M148.307,142.032c-0.339,2.633-1.8,4.249-4.376,4.253c-2.611,0.004-4.27-1.703-4.236-4.25
	c0.033-2.506,1.611-4.206,4.284-4.196C146.656,137.849,147.913,139.572,148.307,142.032z"/>
<path fill="#4B7E7F" d="M136.694,142.232c-0.455,2.605-1.98,4.162-4.552,4.052c-2.611-0.111-4.202-1.91-4.046-4.438
	c0.152-2.473,1.788-4.161,4.475-4.007C135.213,137.991,136.459,139.714,136.694,142.232z"/>
<path fill="#4B7E7F" d="M108.693,137.766c2.498,0.412,4.024,1.789,3.908,4.459c-0.117,2.685-1.814,4.097-4.35,4.012
	c-2.592-0.087-4.079-1.712-3.948-4.383C104.433,139.198,106.049,137.927,108.693,137.766z"/>
<path fill="#4B7E7F" d="M124.292,141.555c-0.173,3.129-1.713,4.672-4.231,4.698c-2.535,0.027-4.191-1.462-4.155-4.186
	c0.034-2.638,1.494-4.193,4.127-4.229C122.708,137.8,123.943,139.507,124.292,141.555z"/>
<path fill="#FDFDFD" d="M207.45,38.533c-5.938,0-11.877,0.013-17.815-0.01c-1.273-0.005-2.75,0.333-2.723-1.85
	c0.028-2.206,1.557-1.769,2.789-1.771c11.728-0.025,23.456-0.032,35.184,0.011c1.165,0.004,2.809-0.631,2.939,1.598
	c0.145,2.496-1.619,2.002-3.005,2.009C219.029,38.552,213.239,38.533,207.45,38.533z"/>
<path fill="#FDFDFD" d="M89.754,34.888c5.797,0,11.594-0.019,17.39,0.015c1.22,0.007,2.734-0.492,2.779,1.749
	c0.044,2.203-1.375,1.874-2.67,1.875c-11.742,0.009-23.485,0.015-35.227-0.01c-1.232-0.003-2.77,0.455-2.812-1.756
	c-0.041-2.171,1.405-1.864,2.703-1.867C77.863,34.881,83.809,34.888,89.754,34.888z"/>
<path fill="#FDFDFD" d="M324.96,38.532c-5.793,0-11.586,0.015-17.378-0.011c-1.244-0.006-2.724,0.433-2.745-1.79
	c-0.021-2.218,1.43-1.833,2.699-1.834c11.734-0.013,23.468-0.016,35.202,0.005c1.242,0.002,2.758-0.436,2.775,1.783
	c0.017,2.198-1.454,1.835-2.73,1.839C336.843,38.543,330.901,38.532,324.96,38.532z"/>
<path fill="#FDFDFD" d="M320.605,32.23c-4.309,0-8.618,0.032-12.926-0.021c-1.188-0.014-2.755,0.573-2.837-1.681
	c-0.077-2.124,1.228-1.96,2.599-1.959c8.766,0.007,17.532,0.005,26.297,0.002c1.354-0.001,2.691-0.204,2.618,1.939
	c-0.076,2.242-1.626,1.687-2.826,1.7C329.222,32.259,324.913,32.23,320.605,32.23z"/>
<path fill="#FDFDFD" d="M85.358,28.575c4.315-0.002,8.629,0.015,12.944-0.011c1.456-0.009,2.647,0.051,2.531,2.075
	c-0.11,1.906-1.424,1.576-2.538,1.578c-8.927,0.021-17.854,0.005-26.781,0.016c-1.278,0.001-2.321-0.027-2.312-1.827
	c0.009-1.782,1.038-1.839,2.319-1.835C76.133,28.585,80.745,28.577,85.358,28.575z"/>
<path fill="#FDFDFD" d="M202.502,32.231c-4.165,0-8.331,0.041-12.495-0.024c-1.318-0.021-3.172,0.665-3.086-1.909
	c0.074-2.209,1.656-1.701,2.865-1.706c8.628-0.036,17.256-0.035,25.883-0.002c1.217,0.005,2.796-0.49,2.859,1.709
	c0.072,2.532-1.751,1.893-3.084,1.91C211.13,32.266,206.816,32.231,202.502,32.231z"/>
<path fill="#F9F9F9" d="M301.389,32.946c-0.346,3.237-2.181,5.117-5.192,5.138c-3.28,0.024-5.39-2.094-5.268-5.344
	c0.12-3.188,2.154-5.218,5.568-4.984C299.644,27.973,301.13,30.001,301.389,32.946z"/>
<path fill="#F9F9F9" d="M60.699,27.637c3.338,0.564,5.141,2.472,4.963,5.492c-0.192,3.243-2.334,5.222-5.641,4.929
	c-3.005-0.267-4.892-2.223-4.709-5.395C55.507,29.272,57.708,27.823,60.699,27.637z"/>
<path fill="#FBFBFB" d="M178.521,27.661c3.182,0.486,5.044,2.242,4.872,5.619c-0.164,3.221-2.288,4.905-5.238,4.798
	c-3.207-0.117-5.167-2.133-4.946-5.539C173.414,29.381,175.395,27.9,178.521,27.661z"/>
<path fill="#FDFDFD" d="M159.742,20.014c0,9.144,0,18.288,0,27.432c-0.169,0.001-0.337,0.002-0.506,0.002c0-9.144,0-18.288,0-27.432
	C159.405,20.015,159.574,20.015,159.742,20.014z"/>
<path fill="#F1F1F2" d="M275.992,19.983c0,9.176,0,18.352,0,27.527c-0.181,0.001-0.363,0.002-0.544,0.003c0-9.176,0-18.352,0-27.528
	C275.629,19.985,275.81,19.984,275.992,19.983z"/>
<path fill="#194C51" d="M330.388,171.078c-11.02,0-22.041,0.026-33.061-0.029c-1.574-0.008-3.898,0.849-3.764-2.226
	c0.114-2.624,2.115-2.036,3.629-2.038c22.338-0.028,44.677-0.028,67.015,0c1.503,0.002,3.435-0.598,3.501,2.112
	c0.067,2.746-1.854,2.162-3.366,2.166C353.025,171.091,341.706,171.078,330.388,171.078z"/>
<path fill="#194C51" d="M96.451,167.027c12.516,0,25.033-0.03,37.549,0.04c1.53,0.009,3.953-0.959,3.866,2.118
	c-0.078,2.773-2.3,1.806-3.678,1.809c-25.182,0.057-50.364,0.059-75.546-0.002c-1.499-0.004-4.035,1.062-3.87-2.062
	c0.158-2.98,2.623-1.843,4.129-1.853C71.418,166.988,83.935,167.027,96.451,167.027z"/>
<g>
	
		<rect x="250.084" y="136.8" fill="none" stroke="#9FA0A8" stroke-width="0.5" stroke-miterlimit="10" width="90.595" height="16.419"/>
	<rect x="338.378" y="135.154" fill="#4B7E7F" width="26.309" height="19.606"/>
</g>
<g>
	<path fill="#C52275" d="M344.551,187.575c0.551-1.069,1.41-1.68,2.625-1.755c3.439-0.248,6.886-0.071,10.328-0.101
		c2.318-0.019,4.635-0.09,6.949,0.131c0.24,2.04,0.139,4.088,0.056,6.132c-0.506,0.439-1.08,0.353-1.658,0.203
		c-5.029-1.305-10.148-2.228-15.185-3.495C346.603,188.419,345.459,188.318,344.551,187.575z"/>
	<path fill="#B32074" d="M364.514,203.079c0,1.365,0,2.727,0,4.092c-1.601,0.386-3.072-0.319-4.564-0.63
		c-4.609-0.968-9.162-2.213-13.771-3.199c-0.78-0.169-1.658-0.229-2.235-0.93c-0.049-1.2-0.038-2.4-0.007-3.6
		c0.42-0.578,0.949-0.315,1.451-0.184c4.227,1.118,8.521,1.946,12.774,2.959C360.277,202.089,362.418,202.494,364.514,203.079z"/>
	<path fill="#C22275" d="M344.105,198.703c0,1.264,0,2.531,0.004,3.795c0.6,0.889,0.338,1.886,0.371,2.85
		c0.015,0.694,0.03,1.391-0.004,2.085c0.022,0.608,0.022,1.215,0,1.819c0.038,0.968,0.022,1.935-0.004,2.903
		c0.007,0.551,0.022,1.103-0.458,1.504c-0.255-0.454-0.15-0.953-0.15-1.429c-0.004-7.249-0.004-14.499,0.007-21.748
		c0-1.016-0.045-2.055,0.683-2.907c2.862,0.645,5.746,1.196,8.573,1.958c3.342,0.896,6.807,1.226,10.092,2.355
		c0.398,0.135,0.863,0.071,1.294,0.098c0,0.975,0,1.946,0,2.922c-0.765,0.619-1.56,0.263-2.359,0.09
		c-5.213-1.129-10.366-2.52-15.602-3.537c-2.066-0.401-2.07-0.368-2.081,1.804c0.022,0.855,0.034,1.71,0.007,2.565
		C344.45,196.798,344.709,197.806,344.105,198.703z"/>
	<path fill="#B82174" d="M344.105,198.703c0-0.975,0-1.95,0-2.922c0.503-0.461,1.08-0.334,1.654-0.214
		c5.033,1.069,10.028,2.291,15.009,3.585c1.249,0.326,2.655,0.098,3.747,1.009c0,0.975,0,1.946,0,2.922
		c-3.754-0.071-7.283-1.309-10.887-2.134C350.451,200.218,347.195,199.79,344.105,198.703z"/>
	<path fill="#BE2275" d="M344.101,193.171c-0.004-0.049-0.011-0.098-0.015-0.146c-0.09-2.449-0.105-2.37,2.329-1.98
		c5.01,0.803,9.848,2.366,14.833,3.274c1.088,0.199,2.111,0.758,3.267,0.581c0,0.975,0,1.946,0,2.922
		c-0.585,0.461-1.219,0.218-1.815,0.079c-5.757-1.328-11.559-2.453-17.27-3.972C344.915,193.794,344.36,193.745,344.101,193.171z"/>
	<path fill="#AF1F74" d="M344.105,205.42c0-0.971,0-1.946,0-2.918c3.004,0.683,6.008,1.358,9.008,2.044
		c3.799,0.87,7.598,1.751,11.397,2.629c0,0.878,0,1.751,0,2.629c-0.915,0.308-1.815,0.116-2.712-0.083
		c-4.665-1.028-9.26-2.389-13.981-3.169C346.543,206.335,345.268,206.05,344.105,205.42z"/>
	<path fill="#831971" d="M366.84,230.836c-0.634,0.326-1.328,0.27-2.003,0.27c-7.054,0.011-14.109,0.011-21.163,0
		c-0.671,0-1.369,0.079-1.999-0.263c0.585-0.596,1.346-0.48,2.059-0.48c3.78,0,7.564-0.06,11.345,0.045c1.598,0.011,3.203,0,4.815,0
		c-4.8-0.956-9.541-2.171-14.311-3.263c-3.642-0.833-7.309-1.556-10.929-2.49c-0.679-0.176-1.343-0.18-1.999,0.083
		c-0.544-0.608-0.855-1.339-1.114-2.096c0.383-0.75,1.013-0.581,1.646-0.469c3.439,0.615,6.766,1.725,10.19,2.381
		c5.768,1.103,11.424,2.689,17.173,3.882c1.616,0.334,3.207,0.776,4.819,1.121C366.03,229.7,366.87,229.816,366.84,230.836z"/>
	<path fill="#A81E73" d="M344.109,212.133c0-0.971,0-1.946,0-2.918c0.383-0.341,0.814-0.244,1.245-0.135
		c5.854,1.451,11.772,2.625,17.604,4.182c0.649,0.173,1.575,0.195,1.294,1.328c-0.491,0.919-0.934,1.883-2.081,2.168
		c-2.997-1.305-6.229-1.729-9.372-2.468C349.888,213.603,346.963,213.01,344.109,212.133z"/>
	<path fill="#7C1770" d="M355.442,230.817c-4.59,0.011-9.177,0.019-13.768,0.03c-3.424-0.465-6.094-2.183-8.18-4.887
		c0.21-1.114,1.076-0.754,1.699-0.66c1.916,0.281,3.765,0.908,5.671,1.271c4.137,0.791,8.153,2.13,12.327,2.768
		C354.092,229.474,355.135,229.654,355.442,230.817z"/>
	<path fill="#BB2175" d="M344.101,193.171c4.65,1.028,9.207,2.464,13.925,3.21c2.183,0.345,4.324,0.953,6.484,1.444
		c0,0.78,0,1.556,0,2.336c-3.608-0.345-7.032-1.526-10.55-2.299c-3.282-0.72-6.507-1.714-9.86-2.081
		C344.101,194.911,344.101,194.041,344.101,193.171z"/>
	<path fill="#CB2577" d="M377.663,185.843c0.293,2.145,0.323,4.29-0.019,6.432c-2.066,0.315-4.144,0.064-6.218,0.135
		c-0.525,0.019-0.645-0.289-0.641-0.743c0.007-1.744,0.007-3.488,0-5.228c0-0.465,0.146-0.746,0.66-0.728
		C373.515,185.783,375.597,185.543,377.663,185.843z"/>
	<path fill="#AD1F74" d="M344.105,205.42c2.828,0.544,5.689,0.968,8.48,1.669c2.614,0.656,5.247,1.215,7.868,1.826
		c1.35,0.315,2.708,0.593,4.062,0.889c0,0.679,0,1.361,0,2.04c-0.833,0.608-1.714,0.21-2.528,0.022
		c-5.479-1.279-10.966-2.524-16.468-3.717c-0.529-0.113-1.043-0.251-1.414-0.683C344.105,206.781,344.105,206.098,344.105,205.42z"
		/>
	<path fill="#A41E73" d="M344.109,212.133c0.713-0.315,1.335-0.071,2.059,0.131c2.254,0.641,4.564,1.088,6.848,1.628
		c2.809,0.664,5.607,1.369,8.423,2.003c0.544,0.124,0.761,0.338,0.728,0.859c-1.624,0.686-3.312,0.289-4.977,0.304
		c-0.131-0.06-0.27-0.12-0.416-0.105c-4.017,0.473-7.786-0.788-11.611-1.65c-0.36-0.083-0.623-0.244-0.829-0.536
		c-0.334-0.304-0.338-0.701-0.319-1.106C344.045,213.153,344.075,212.643,344.109,212.133z"/>
	<path fill="#871971" d="M366.84,230.836c-0.473-0.941-1.463-0.9-2.265-1.088c-6.188-1.451-12.391-2.839-18.587-4.26
		c-4.403-1.009-8.802-2.033-13.201-3.064c-0.465-0.109-0.859-0.008-1.249,0.218c-0.195-0.458-0.443-0.9-0.364-1.425
		c0.053-0.056,0.105-0.116,0.154-0.173c0.66-0.353,1.32-0.116,1.965,0.03c1.916,0.428,3.814,0.956,5.749,1.298
		c0.443,0.079,0.81,0.285,1.14,0.57c1.193,1.125,2.727,1.256,4.234,1.373c1.238,0.098,2.487,0.064,3.728,0.086
		c3.282,0.623,6.496,1.556,9.762,2.239c3.278,0.686,6.496,1.62,9.792,2.231c0.679,0.128,1.448,0.323,1.796,1.091
		C368.749,230.671,367.8,230.765,366.84,230.836z"/>
	<path fill="#AA1E73" d="M344.105,207.464c3.687,0.686,7.317,1.631,10.981,2.408c3.139,0.664,6.222,1.628,9.428,1.969
		c0.071,0.93,0.248,1.871-0.266,2.745c-0.007-0.66-0.551-0.769-1.001-0.866c-4.099-0.889-8.15-1.999-12.267-2.835
		c-2.299-0.465-4.613-0.998-6.874-1.673C344.105,208.63,344.105,208.049,344.105,207.464z"/>
	<path fill="#BF2375" d="M330.874,219.75c-0.33-0.638-0.218-1.331-0.218-2.003c-0.008-10.25,0.019-20.499-0.022-30.749
		c-0.004-1.193,0.293-1.504,1.481-1.305c3.582,0.608,5.427,2.847,5.517,6.871c-1.609-0.63-3.353-0.773-4.973-1.369
		c-0.949-0.349-1.35,0.038-1.343,1.005c0.007,0.964,0.011,1.928,0.011,2.892c0.045,1.208,0.038,2.415,0.011,3.623
		c0.038,1.343,0.041,2.689,0,4.032c0.03,1.073,0.041,2.149-0.004,3.222c0.019,1.065,0.045,2.13,0,3.195
		c0.022,0.964,0.034,1.928-0.004,2.892c0.011,0.604,0.03,1.211,0,1.815c0.019,0.69,0.026,1.376,0.007,2.066
		c-0.019,0.866,0.041,1.736-0.019,2.603C331.309,218.996,331.279,219.442,330.874,219.75z"/>
	<path fill="#801870" d="M355.442,230.817c-1.695-1.478-3.912-1.2-5.884-1.736c-2.04-0.559-4.065-1.2-6.139-1.568
		c-2.997-0.529-5.914-1.388-8.903-1.928c-0.379-0.068-0.788-0.038-1.02,0.379c-0.394-0.33-0.709-0.713-0.844-1.223
		c0.015-0.533,0.03-0.945,0.825-0.716c1.241,0.356,2.531,0.518,3.792,0.844c3.683,0.945,7.426,1.65,11.142,2.468
		c1.646,0.364,3.285,0.773,4.928,1.159c2.535,0.596,5.07,1.185,7.602,1.785c0.18,0.041,0.379,0.109,0.371,0.54
		C359.361,230.817,357.4,230.817,355.442,230.817z"/>
	<path fill="#B92175" d="M330.941,194.907c-0.007-1.11,0.022-2.224-0.03-3.334c-0.045-0.979,0.45-1.234,1.253-0.968
		c1.511,0.503,3.015,1.005,4.617,1.088c0.596,0.03,0.484,0.671,0.859,0.874c0.075,0.529,0.21,1.054,0.21,1.583
		c0.015,8.127,0.015,16.254,0.015,24.377c-0.705-0.146-0.525-0.746-0.623-1.208c-0.034-0.668-0.03-1.335-0.015-2.006
		c-0.007-0.596-0.034-1.193-0.004-1.785c-0.03-0.96-0.038-1.92-0.008-2.88c-0.038-1.155-0.038-2.31-0.004-3.465
		c-0.034-1.069-0.038-2.134,0-3.203c-0.026-1.215-0.038-2.43,0.007-3.642c-0.09-1.103,0.375-2.336-0.244-3.282
		c-0.634-0.964-1.988-0.514-2.963-0.923C332.993,195.714,331.796,195.732,330.941,194.907z"/>
	<path fill="#8A1A71" d="M369.499,229.962c-3.758-1.376-7.733-1.879-11.577-2.918c-2.374-0.641-4.8-1.091-7.163-1.774
		c-0.87-0.251-2.018,0.218-2.61-0.87c1.751,0,3.503,0,5.258,0c3.593,0.791,7.148,1.748,10.749,2.501
		c1.856,0.39,3.653,1.001,5.521,1.35c0.518,0.098,1.024,0.33,1.309,0.844C370.631,229.632,370.114,229.883,369.499,229.962z"/>
	<path fill="#A41E73" d="M377.693,218.887c-0.015,0.184-0.03,0.368-0.045,0.548c-0.353,0.469,0.011,1.061-0.27,1.541
		c-0.075,0.93-0.349,1.785-0.904,2.546c-1.553-1.95-3.799-1.834-5.952-1.988c-0.323-0.022-0.66,0.214-0.975-0.049
		c0.533-1.02,0.938-2.081,1.121-3.222c0.176-0.236,0.071-0.626,0.409-0.776c0.461-0.203,0.956-0.233,1.403-0.056
		c1.571,0.619,3.289,0.6,4.875,1.148C377.502,218.643,377.611,218.748,377.693,218.887z"/>
	<path fill="#911B72" d="M373.849,227.037c-0.375,0.585-0.81,1.114-1.47,1.403c-4.088-1.016-8.21-1.886-12.294-2.922
		c-0.821-0.21-1.871-0.053-2.299-1.118c2.393-0.011,4.785-0.022,7.178-0.034c2.974-0.086,5.734,0.844,8.491,1.781
		C373.838,226.279,374.149,226.549,373.849,227.037z"/>
	<path fill="#BC2376" d="M374.142,206.027c-0.971-0.135-2.516,0.536-3.278-0.251c-0.75-0.776-0.21-2.31-0.225-3.507
		c-0.038-3.004-0.011-3.004,3.027-3.004c1.069,0,2.138,0.038,3.203-0.011c0.773-0.038,1.013,0.263,0.99,1.013
		c-0.041,1.553-0.06,3.105,0.007,4.654c0.041,0.923-0.311,1.193-1.178,1.125C375.919,205.978,375.139,206.027,374.142,206.027z"/>
	<path fill="#8D1A71" d="M357.786,224.4c1.71,0.788,3.574,1.013,5.382,1.444c2.715,0.653,5.449,1.223,8.168,1.86
		c0.416,0.098,0.829,0.3,1.043,0.735c-0.555,0.026-0.769,0.776-1.395,0.656c-4.485-1.298-9.057-2.243-13.599-3.312
		c-1.339-0.315-2.824-0.45-3.983-1.384C354.865,224.4,356.324,224.4,357.786,224.4z"/>
	<path fill="#921B72" d="M337.613,217.391c0.068,0.383-0.101,0.818,0.248,1.136c0.131,0.593,0.259,1.185,0.39,1.778
		c-2.494-0.334-4.947-0.848-7.306-1.748c-0.004-0.874-0.004-1.748-0.008-2.621C333.218,216.179,335.457,216.584,337.613,217.391z"/>
	<path fill="#AC2175" d="M370.935,217.683c-0.086,0.191-0.176,0.383-0.263,0.578c-0.015-1.5,0.007-3.004-0.056-4.504
		c-0.034-0.803,0.308-0.986,1.028-0.971c1.744,0.038,3.492,0.015,5.236,0.011c0.521,0,1.001,0.022,0.968,0.735
		c-0.083,1.785,0.191,3.578-0.15,5.356l-0.083-0.06c-0.559-0.728-0.326-1.586-0.375-2.393c-0.038-0.626-0.146-1.163-0.885-1.298
		c-1.29-0.236-2.532-0.664-3.814-0.938c-1.088-0.233-1.245,0.191-1.223,1.106C371.34,216.108,371.52,216.967,370.935,217.683z"/>
	<path fill="#971C72" d="M373.849,227.037c-0.034-0.319-0.188-0.488-0.521-0.593c-2.745-0.87-5.562-1.444-8.367-2.078
		c0.998-0.413,1.999-0.825,3-1.238c1.954,0.533,3.927,0.99,5.873,1.541c0.544,0.154,1.478,0.12,1.181,1.193
		C374.73,226.358,374.453,226.857,373.849,227.037z"/>
	<path fill="#9F1D73" d="M369.547,221.482c1.988-0.806,3.814,0.022,5.704,0.484c0.968,0.236,1.335,0.626,1.223,1.556
		c-0.041,0.401-0.232,0.716-0.529,0.983c-1.459-0.63-3.019-0.881-4.564-1.185c-0.893-0.176-1.8-0.341-2.269-1.279
		C369.259,221.85,369.401,221.666,369.547,221.482z"/>
	<path fill="#9A1C72" d="M369.112,222.038c1.594,1.028,3.465,1.088,5.236,1.448c0.735,0.15,1.279,0.338,1.598,1.016
		c-0.176,0.548-0.488,0.998-0.93,1.361c-0.12-0.788-0.833-0.709-1.335-0.848c-1.519-0.428-3.049-0.81-4.59-1.155
		c-0.495-0.113-0.941-0.195-1.133-0.731C368.344,222.765,368.73,222.401,369.112,222.038z"/>
	<path fill="#8D1B72" d="M330.945,218.557c2.509,0.274,4.965,0.773,7.306,1.748c0.206,0.386,0.413,0.773,0.623,1.155
		c-0.566,0.45-1.193,0.259-1.785,0.113c-1.44-0.356-2.925-0.484-4.35-0.9c-0.638-0.188-1.121-0.068-1.493,0.484l-0.067,0.056
		c-0.33-0.443-0.293-0.956-0.296-1.463C330.9,219.352,330.922,218.955,330.945,218.557z"/>
	<path fill="#A11F74" d="M344.33,214.766c2.588,0.42,5.1,1.099,7.598,1.92c1.091,0.36,2.389,0.079,3.593,0.128
		c0.559,0.022,1.166-0.199,1.665,0.24c-3.18,0.019-6.361,0.09-9.537,0.034C346.104,217.061,344.904,216.307,344.33,214.766z"/>
	<path fill="#891A71" d="M331.241,221.16c-0.139-1.013,0.21-1.234,1.226-0.986c2.115,0.514,4.268,0.87,6.402,1.29
		c0.439,0.491,0.874,0.986,1.313,1.478C337.148,222.611,334.287,221.441,331.241,221.16z"/>
	<path fill="#C92979" d="M377.663,185.843c-1.838,0.004-3.679,0.049-5.517-0.007c-0.964-0.03-1.279,0.319-1.234,1.26
		c0.064,1.305,0.079,2.618-0.004,3.919c-0.067,1.076,0.405,1.305,1.365,1.275c1.789-0.056,3.582-0.015,5.371-0.015
		c-2.141,0.48-4.309,0.105-6.466,0.199c-0.548,0.022-0.555-0.42-0.555-0.821c0-1.744,0.004-3.488,0-5.232
		c0-0.416,0.038-0.825,0.585-0.795C373.362,185.738,375.529,185.325,377.663,185.843z"/>
	<path fill="#CA2879" d="M364.454,185.85c-5.761-0.011-11.517-0.022-17.278-0.03c0.326-0.064,0.649-0.184,0.975-0.184
		c5.172-0.011,10.347-0.011,15.519-0.004C363.948,185.629,364.263,185.543,364.454,185.85z"/>
	<path fill="#A81F74" d="M377.378,220.976c0.034-0.525-0.229-1.099,0.27-1.541C377.689,219.971,377.693,220.5,377.378,220.976z"/>
	<path fill="#B01F74" d="M337.613,200.162c0,1.264,0,2.531,0,3.795c-0.311,0.281-0.69,0.398-1.08,0.304
		c-1.875-0.454-3.803-0.69-5.592-1.47c0-1.361,0-2.727,0-4.088c0.191-0.169,0.431-0.293,0.668-0.229
		C333.611,199.029,335.723,199.205,337.613,200.162z"/>
	<path fill="#B52074" d="M337.613,200.162c-1.778-0.079-3.435-0.713-5.145-1.106c-0.51-0.116-1.016-0.236-1.526-0.353
		c0-1.264,0-2.532,0-3.795c1.946,0.319,3.762,1.193,5.757,1.309c0.645,0.038,1.001,0.443,0.949,1.189
		C337.579,198.317,337.621,199.243,337.613,200.162z"/>
	<path fill="#AB1F74" d="M330.941,202.791c1.736-0.124,3.308,0.63,4.958,0.949c0.574,0.113,1.133,0.229,1.714,0.218
		c0,1.073,0,2.141,0,3.214c-0.15,0.124-0.308,0.281-0.495,0.285c-2.179,0.03-4.272-0.315-6.177-1.451
		C330.941,204.932,330.941,203.86,330.941,202.791z"/>
	<path fill="#A71E73" d="M330.941,206.005c2.235,0.323,4.354,1.309,6.672,1.166c0,1.166,0,2.336,0,3.503
		c-0.233,0.203-0.514,0.3-0.799,0.225c-1.969-0.514-4.088-0.518-5.873-1.684C330.941,208.146,330.941,207.074,330.941,206.005z"/>
	<path fill="#A41D73" d="M330.941,209.215c2.224,0.488,4.448,0.975,6.672,1.459c0,0.971,0,1.946,0,2.918
		c-1.478,0.326-2.813-0.431-4.227-0.611c-0.818-0.105-1.725-0.293-2.445-0.848C330.941,211.161,330.941,210.186,330.941,209.215z"/>
	<path fill="#991C72" d="M337.613,217.391c-2.284-0.21-4.538-0.559-6.676-1.451c0-0.683,0-1.369,0.004-2.051
		c0.619-0.54,1.309-0.221,1.943-0.094c1.635,0.326,3.357,0.42,4.733,1.549C337.613,216.026,337.613,216.708,337.613,217.391z"/>
	<path fill="#9F1D73" d="M337.613,215.343c-2.194-0.626-4.384-1.275-6.672-1.455c0-0.585,0-1.17,0-1.751
		c2.265,0.304,4.485,0.806,6.672,1.459C337.613,214.177,337.613,214.758,337.613,215.343z"/>
	<path fill="#A81F74" d="M370.935,217.683c0-0.536-0.004-1.069-0.004-1.605c0-2.779,0.007-2.802,2.749-2.096
		c1.076,0.278,2.108,0.728,3.233,0.78c0.698,0.03,0.735,0.484,0.731,1.005c-0.015,1.02-0.019,2.04-0.03,3.06
		c-1.643-0.195-3.3-0.311-4.849-0.956C372.158,217.616,371.546,217.721,370.935,217.683z"/>
	<path fill="#B82275" d="M374.153,205.708c-0.049,0-0.098,0-0.146,0c-3.315,0-3.555-0.296-3.087-3.608
		c0.075-0.54,0.251-0.784,0.818-0.735c1.883,0.169,3.627,0.93,5.479,1.279c0.923,0.176,0.308,1.53,0.401,2.344
		c0.083,0.698-0.48,0.72-0.99,0.716C375.803,205.705,374.978,205.708,374.153,205.708z"/>
</g>
</svg>
