<?xml version="1.0" encoding="utf-8"?>
<!-- Generator: Adobe Illustrator 17.0.0, SVG Export Plug-In . SVG Version: 6.00 Build 0)  -->
<!DOCTYPE svg PUBLIC "-//W3C//DTD SVG 1.1//EN" "http://www.w3.org/Graphics/SVG/1.1/DTD/svg11.dtd">
<svg version="1.1" id="Layer_1" xmlns="http://www.w3.org/2000/svg" xmlns:xlink="http://www.w3.org/1999/xlink" x="0px" y="0px"
	 width="418px" height="130.333px" viewBox="0 0 418 245.333" enable-background="new 0 0 418 245.333" xml:space="preserve">
<rect y="0.002" fill="#FFFFFF" width="418" height="245.33"/>
<g>
	<g>
		<path fill="#194C51" d="M99.38,69.906c-0.01,3.3-1.811,5.262-4.818,5.245c-2.967-0.017-4.818-2.069-4.788-5.31
			c0.03-3.261,1.9-5.288,4.85-5.258C97.603,64.613,99.389,66.61,99.38,69.906z"/>
		<path fill="#194C51" d="M68.474,69.893c0-3.375,1.71-5.314,4.693-5.316c2.993-0.003,4.753,1.945,4.762,5.275
			c0.01,3.349-1.723,5.297-4.713,5.301C70.191,75.158,68.474,73.252,68.474,69.893z"/>
		<path fill="#194C51" d="M84.67,75.141c-2.569,0.032-4.216-0.751-4.958-2.774c-0.813-2.213-0.816-4.423,0.809-6.345
			c1.413-1.671,3.306-1.589,5.222-1.247c0.336,0.059,0.686,0.248,0.953,0.466c0.679,0.548,1.753,1.178,1.152,2.109
			c-0.607,0.943-1.423,0.438-2.183-0.323c-1.145-1.145-2.582-0.986-3.564,0.177c-1.296,1.531-1.158,3.384-0.203,5.042
			c0.728,1.26,2.01,1.413,3.326,0.921c0.578-0.216,1.217-0.48,1.136-1.292c-0.078-0.813-0.748-0.607-1.227-0.62
			c-0.656-0.017-1.002-0.252-0.963-0.947c0.046-0.774,0.64-0.855,1.145-0.741c1.064,0.242,2.758-0.888,3.065,1.012
			c0.265,1.632,0.503,3.541-1.831,4.142C85.772,74.919,84.986,75.07,84.67,75.141z"/>
		<path fill="#194C51" d="M60.465,69.802c0-1.25-0.006-2.504,0.003-3.753c0.006-0.617-0.072-1.263,0.891-1.286
			c0.999-0.023,1.188,0.516,1.175,1.348c-0.023,1.697,0.088,3.404-0.03,5.095c-0.111,1.589,0.333,2.379,2.056,2.122
			c0.61-0.091,1.25-0.02,1.874-0.003c0.594,0.017,1.035,0.196,0.992,0.934c-0.036,0.584-0.399,0.744-0.875,0.751
			c-1.697,0.017-3.398-0.003-5.095,0.023c-0.871,0.013-1.012-0.486-1.002-1.201C60.481,72.485,60.465,71.143,60.465,69.802z"/>
		<path fill="#FEFEFE" d="M97.284,69.73c-0.033,1.919-0.453,3.629-2.693,3.616c-2.21-0.013-2.722-1.74-2.713-3.564
			c0.007-1.727,0.535-3.31,2.605-3.388C96.762,66.303,97.225,67.938,97.284,69.73z"/>
		<path fill="#FEFEFE" d="M75.965,69.825c-0.205,1.762-0.506,3.574-2.791,3.535c-2.262-0.039-2.65-1.792-2.637-3.6
			c0.01-1.723,0.451-3.316,2.572-3.381C75.427,66.306,75.749,68.059,75.965,69.825z"/>
	</g>
	<path fill="#D8D9D9" d="M210.843,179.62c-54.055,0-108.111,0-162.166,0c-6.186,0-6.188-0.002-6.188-6.385
		c-0.001-11.262,0.194-22.528-0.102-33.782c-0.108-4.119,1.26-4.94,5.109-4.934c77.78,0.108,155.559,0.081,233.339,0.081
		c31.082,0,62.165,0.118,93.245-0.124c4.767-0.037,5.727,1.425,5.614,5.825c-0.297,11.554-0.257,23.124-0.013,34.681
		c0.082,3.859-1.228,4.719-4.87,4.712C320.155,179.588,265.499,179.62,210.843,179.62z"/>
	<path fill="#7F7F81" d="M106.051,114.612c-15.917,0-31.834,0.027-47.751-0.042c-1.551-0.007-4.006,1.012-4.117-1.961
		c-0.113-3.016,2.336-2.16,3.923-2.162c31.984-0.043,63.968-0.042,95.952-0.002c1.605,0.002,4.059-0.794,3.909,2.195
		c-0.147,2.921-2.602,1.925-4.165,1.932C137.884,114.638,121.967,114.612,106.051,114.612z"/>
	<path fill="#7F7F81" d="M106.513,94.005c15.312,0,30.623,0,45.935,0.001c1.051,0,2.102,0.007,3.152,0.012
		c1.294,0.006,2.434,0.159,2.353,1.909c-0.083,1.786-1.374,1.651-2.566,1.696c-0.6,0.023-1.201,0.009-1.801,0.009
		c-31.674,0-63.348,0-95.022,0c-0.751,0-1.501-0.012-2.252-0.015c-1.145-0.004-2.051-0.232-2.117-1.677
		c-0.08-1.746,1.02-1.927,2.33-1.924c1.051,0.002,2.102-0.009,3.152-0.009C75.289,94.005,90.901,94.005,106.513,94.005z"/>
	<path fill="#7F7F81" d="M103.305,106.54c-14.406,0-28.813,0-43.219,0c-0.9,0-1.803,0.034-2.701-0.01
		c-1.425-0.07-3.292,0.39-3.156-2.012c0.118-2.087,1.836-1.612,3.075-1.618c8.554-0.04,17.107-0.023,25.661-0.023
		c22.06,0,44.119-0.022,66.179,0.049c1.505,0.005,4.155-1.09,4,1.968c-0.131,2.592-2.502,1.595-3.92,1.602
		C133.918,106.567,118.612,106.54,103.305,106.54z"/>
	<path fill="#7F7F81" d="M102.439,88.731c-14.253,0-28.507,0.001-42.76,0c-1.05,0-2.1-0.01-3.151-0.011
		c-1.313-0.002-2.401-0.215-2.331-1.939c0.073-1.78,1.333-1.717,2.538-1.72c6.001-0.014,12.003-0.01,18.004-0.011
		c23.256-0.001,46.511,0,69.767,0c0.9,0,1.805-0.057,2.7,0.014c1.374,0.108,3.333-0.533,3.214,1.919
		c-0.116,2.393-2.084,1.717-3.421,1.721C132.147,88.746,117.293,88.73,102.439,88.731z"/>
	<path fill="#194C51" d="M245.762,75.257c-6.293,0-12.594-0.176-18.877,0.077c-3.014,0.122-3.515-1.09-3.331-3.641
		c0.152-2.097-0.388-3.951,3.056-3.89c12.732,0.226,25.473,0.184,38.207,0.022c3.014-0.038,2.951,1.473,2.929,3.594
		c-0.023,2.204,0.233,4.051-3.108,3.913C258.356,75.072,252.055,75.257,245.762,75.257z"/>
	<path fill="#194C51" d="M295.775,67.893c5.995,0,11.999,0.186,17.983-0.076c3.144-0.138,3.664,1.086,3.63,3.849
		c-0.032,2.557-0.413,3.704-3.397,3.664c-12.588-0.171-25.182-0.202-37.769,0.013c-3.391,0.058-2.954-1.747-3.088-3.888
		c-0.158-2.524,0.268-3.764,3.308-3.641C282.878,68.074,289.33,67.893,295.775,67.893z"/>
	<path fill="#194C51" d="M345.815,75.256c-6.452,0-12.91-0.16-19.354,0.068c-3.196,0.113-2.817-1.753-2.756-3.704
		c0.057-1.822-0.699-3.837,2.639-3.794c12.902,0.167,25.81,0.166,38.712-0.002c3.158-0.041,2.847,1.696,2.783,3.678
		c-0.06,1.854,0.623,3.918-2.668,3.814C358.724,75.112,352.267,75.256,345.815,75.256z"/>
	<path fill="#194C51" d="M194.712,75.255c-6.303,0-12.613-0.182-18.906,0.073c-3.418,0.138-2.952-1.87-3.042-3.977
		c-0.095-2.204,0.08-3.562,2.998-3.526c12.754,0.158,25.513,0.181,38.266-0.009c3.267-0.049,2.777,1.796,2.779,3.718
		c0.002,1.915,0.494,3.886-2.737,3.783C207.623,75.11,201.165,75.255,194.712,75.255z"/>
	<path fill="#7F7F81" d="M83.946,123.033c-8.843-0.001-17.686,0.02-26.529-0.022c-1.372-0.007-3.3,0.513-3.19-1.943
		c0.093-2.068,1.76-1.679,3.022-1.681c17.986-0.023,35.971-0.026,53.957,0.001c1.389,0.002,3.344-0.483,3.185,1.948
		c-0.155,2.369-2.137,1.658-3.467,1.667C101.932,123.062,92.939,123.034,83.946,123.033z"/>
	<path fill="#7F7F81" d="M294.96,120.328c6.147-0.001,12.294-0.018,18.441,0.013c1.283,0.007,2.883-0.326,2.995,1.743
		c0.117,2.153-1.364,2.396-2.973,2.398c-12.444,0.011-24.887,0.007-37.331,0.013c-1.593,0.001-3.099-0.05-2.961-2.3
		c0.123-2.014,1.602-1.856,2.939-1.859C282.367,120.319,288.664,120.328,294.96,120.328z"/>
	<path fill="#7F7F81" d="M194.788,124.496c-5.999-0.001-11.997,0.022-17.996-0.016c-1.606-0.01-3.567,0.25-3.527-2.278
		c0.038-2.391,1.944-1.852,3.32-1.856c12.147-0.036,24.295-0.033,36.442-0.005c1.555,0.004,3.607-0.477,3.482,2.187
		c-0.125,2.652-2.241,1.923-3.725,1.94C206.786,124.537,200.787,124.497,194.788,124.496z"/>
	<path fill="#7F7F81" d="M345.647,111.87c6.008,0,12.016-0.026,18.024,0.02c1.391,0.011,3.278-0.468,3.192,1.971
		c-0.073,2.101-1.731,1.704-2.994,1.707c-12.316,0.026-24.633,0.028-36.949-0.001c-1.396-0.003-3.324,0.471-3.185-1.961
		c0.137-2.39,2.104-1.69,3.438-1.705C333.33,111.831,339.488,111.869,345.647,111.87z"/>
	<path fill="#7F7F81" d="M194.345,88.729c-5.979,0.001-11.959,0.021-17.938-0.014c-1.414-0.008-3.253,0.398-3.1-2.028
		c0.133-2.111,1.813-1.614,3.041-1.617c12.407-0.032,24.815-0.028,37.222-0.005c1.275,0.002,2.864-0.326,2.89,1.79
		c0.025,2.1-1.528,1.857-2.831,1.862C207.201,88.741,200.773,88.728,194.345,88.729z"/>
	<path fill="#7F7F81" d="M244.871,88.731c-5.856,0-11.712,0.056-17.566-0.04c-1.42-0.023-3.703,0.879-3.655-1.902
		c0.041-2.417,2.074-1.704,3.394-1.71c12.161-0.052,24.323-0.047,36.485-0.008c1.36,0.004,3.329-0.57,3.217,1.901
		c-0.108,2.41-2.073,1.714-3.408,1.728C257.183,88.768,251.027,88.731,244.871,88.731z"/>
	<path fill="#7F7F81" d="M295.193,85.05c6.007,0,12.013-0.021,18.02,0.015c1.409,0.008,3.282-0.442,3.128,2.007
		c-0.132,2.099-1.821,1.634-3.063,1.637c-12.313,0.032-24.627,0.03-36.94,0.005c-1.415-0.003-3.28,0.414-3.126-2.022
		c0.133-2.102,1.823-1.612,3.061-1.621C282.579,85.027,288.886,85.051,295.193,85.05z"/>
	<path fill="#7F7F81" d="M345.328,85.05c6.13,0,12.261-0.025,18.391,0.019c1.379,0.01,3.258-0.506,3.147,1.959
		c-0.095,2.107-1.745,1.681-2.992,1.684c-12.41,0.028-24.82,0.026-37.23,0.002c-1.266-0.002-2.889,0.35-2.926-1.753
		c-0.043-2.481,1.872-1.874,3.219-1.886C333.067,85.018,339.198,85.05,345.328,85.05z"/>
	<path fill="#7F7F81" d="M194.819,97.631c-6.156,0-12.313,0.026-18.468-0.022c-1.227-0.009-2.928,0.516-3.041-1.623
		c-0.132-2.49,1.785-1.956,3.158-1.959c12.312-0.034,24.625-0.033,36.937,0.001c1.228,0.003,2.929-0.503,3.041,1.626
		c0.13,2.48-1.779,1.947-3.158,1.957C207.131,97.656,200.975,97.631,194.819,97.631z"/>
	<path fill="#7F7F81" d="M245.238,97.631c-6.153,0-12.306,0.024-18.459-0.018c-1.388-0.01-3.291,0.496-3.15-1.969
		c0.12-2.113,1.825-1.612,3.055-1.616c12.306-0.035,24.612-0.035,36.918-0.003c1.385,0.004,3.292-0.497,3.152,1.974
		c-0.121,2.129-1.829,1.601-3.056,1.61C257.544,97.657,251.391,97.631,245.238,97.631z"/>
	<path fill="#7F7F81" d="M294.6,97.63c-6.154,0-12.308,0.02-18.461-0.017c-1.257-0.008-2.887,0.394-2.94-1.742
		c-0.053-2.142,1.546-1.848,2.838-1.85c12.458-0.021,24.916-0.023,37.373,0.002c1.263,0.003,2.89-0.384,2.941,1.746
		c0.051,2.135-1.542,1.844-2.839,1.849C307.208,97.644,300.904,97.63,294.6,97.63z"/>
	<path fill="#7F7F81" d="M345.785,94.007c6.007,0,12.015-0.028,18.022,0.023c1.22,0.01,2.929-0.538,3.054,1.607
		c0.145,2.483-1.754,1.972-3.138,1.976c-12.315,0.031-24.63,0.031-36.945-0.004c-1.222-0.004-2.927,0.529-3.054-1.606
		c-0.147-2.479,1.752-1.968,3.139-1.978C333.17,93.983,339.478,94.007,345.785,94.007z"/>
	<path fill="#7F7F81" d="M195.261,102.877c5.993,0,11.987-0.023,17.979,0.017c1.403,0.009,3.288-0.43,3.118,2.014
		c-0.145,2.078-1.828,1.613-3.071,1.616c-12.286,0.031-24.572,0.028-36.858,0.007c-1.425-0.002-3.28,0.396-3.124-2.018
		c0.135-2.084,1.84-1.606,3.078-1.615C182.675,102.852,188.968,102.877,195.261,102.877z"/>
	<path fill="#7F7F81" d="M194.744,115.583c-6.158,0-12.317,0.018-18.475-0.015c-1.271-0.007-2.886,0.369-2.976-1.734
		c-0.089-2.078,1.427-1.952,2.777-1.954c12.467-0.012,24.934-0.017,37.4,0.007c1.276,0.002,2.926-0.34,2.976,1.743
		c0.059,2.439-1.842,1.923-3.227,1.933C207.061,115.61,200.902,115.583,194.744,115.583z"/>
	<path fill="#7F7F81" d="M244.927,115.585c-6.004,0-12.009,0.031-18.012-0.024c-1.367-0.013-3.331,0.555-3.276-1.875
		c0.054-2.387,2.013-1.787,3.363-1.792c12.158-0.044,24.317-0.041,36.475-0.005c1.381,0.004,3.314-0.5,3.271,1.896
		c-0.043,2.418-2.015,1.76-3.358,1.774C257.236,115.62,251.081,115.585,244.927,115.585z"/>
	<path fill="#7F7F81" d="M294.864,111.869c6.005-0.001,12.01-0.039,18.014,0.029c1.342,0.015,3.304-0.668,3.455,1.702
		c0.155,2.432-1.778,1.964-3.175,1.967c-12.31,0.029-24.62,0.026-36.93,0c-1.269-0.003-2.927,0.369-3.016-1.7
		c-0.105-2.432,1.792-1.969,3.187-1.979C282.554,111.844,288.709,111.87,294.864,111.869z"/>
	<path fill="#7F7F81" d="M245.409,102.877c5.998-0.002,11.996-0.03,17.994,0.021c1.233,0.01,3.025-0.524,3.166,1.5
		c0.154,2.202-1.608,2.141-3.141,2.142c-12.296,0.004-24.591,0.01-36.887-0.011c-1.296-0.002-2.906,0.265-2.918-1.814
		c-0.011-2.085,1.599-1.816,2.893-1.822C232.814,102.863,239.111,102.879,245.409,102.877z"/>
	<path fill="#7F7F81" d="M294.409,102.877c6.149-0.003,12.299-0.039,18.448,0.026c1.333,0.014,3.351-0.65,3.294,1.803
		c-0.044,1.912-1.638,1.828-2.997,1.829c-12.449,0.008-24.897,0.008-37.346-0.003c-1.202-0.001-2.512,0.053-2.607-1.682
		c-0.114-2.087,1.415-1.958,2.76-1.962C282.111,102.869,288.26,102.88,294.409,102.877z"/>
	<path fill="#7F7F81" d="M344.883,106.54c-6.004,0.002-12.008,0.02-18.012-0.011c-1.429-0.007-3.288,0.383-3.142-2.019
		c0.126-2.089,1.844-1.609,3.081-1.612c12.308-0.034,24.616-0.034,36.924-0.003c1.245,0.003,2.975-0.427,2.968,1.702
		c-0.006,1.937-1.531,1.931-2.907,1.935C357.491,106.545,351.187,106.537,344.883,106.54z"/>
	<path fill="#7F7F81" d="M210.555,143.581c-30.778,0-61.556,0-92.334-0.002c-1.201,0-2.404,0.012-3.602-0.052
		c-1.048-0.057-1.62-0.656-1.626-1.733c-0.006-1.066,0.531-1.699,1.586-1.775c1.046-0.075,2.1-0.063,3.15-0.063
		c62.006-0.002,124.013-0.003,186.019,0.002c1.049,0,2.102,0.012,3.146,0.103c1.141,0.1,1.445,0.913,1.382,1.911
		c-0.053,0.83-0.449,1.446-1.341,1.496c-1.347,0.077-2.697,0.107-4.047,0.108C272.111,143.582,241.333,143.581,210.555,143.581z"/>
	<path fill="#7F7F81" d="M211.215,173.336c-17.411,0-34.822,0-52.233,0c-1.051,0-2.101-0.003-3.152-0.011
		c-1.299-0.011-2.444-0.205-2.362-1.927c0.068-1.424,1.031-1.652,2.169-1.662c0.9-0.008,1.801-0.019,2.701-0.019
		c35.422-0.001,70.844-0.001,106.267-0.001c0.75,0,1.501-0.009,2.251,0.009c1.215,0.029,2.514-0.031,2.592,1.708
		c0.078,1.724-1.12,1.876-2.4,1.892c-1.051,0.013-2.101,0.01-3.152,0.01C246.337,173.336,228.776,173.336,211.215,173.336z"/>
	<path fill="#7F7F81" d="M211.201,164.381c-10.211,0-20.422,0.032-30.632-0.036c-1.436-0.01-3.739,0.822-3.633-1.935
		c0.091-2.368,2.149-1.638,3.474-1.641c20.722-0.044,41.443-0.043,62.165-0.003c1.339,0.003,3.4-0.666,3.417,1.708
		c0.019,2.71-2.271,1.862-3.709,1.871C231.923,164.413,221.562,164.381,211.201,164.381z"/>
	<path fill="#194C51" d="M155.731,152.664c-5.695,0-11.39,0.004-17.085-0.004c-1.347-0.002-2.766,0.195-2.72-1.94
		c0.046-2.092,1.463-1.914,2.799-1.915c11.39-0.011,22.78-0.018,34.17,0.008c1.258,0.003,2.801-0.392,2.923,1.757
		c0.14,2.46-1.554,2.084-3.003,2.088C167.121,152.675,161.426,152.665,155.731,152.664z"/>
	<path fill="#194C51" d="M210.711,152.664c-5.544,0-11.089,0.012-16.633-0.009c-1.433-0.005-3.143,0.4-3.024-2.061
		c0.103-2.134,1.62-1.781,2.891-1.783c11.388-0.022,22.777-0.018,34.165-0.006c1.311,0.001,2.735-0.259,2.781,1.879
		c0.055,2.557-1.739,1.951-3.098,1.962C222.1,152.69,216.405,152.665,210.711,152.664z"/>
	<path fill="#194C51" d="M265.669,152.664c-5.543,0-11.085,0.025-16.627-0.019c-1.217-0.01-2.8,0.52-2.914-1.692
		c-0.124-2.397,1.467-2.154,2.966-2.154c11.385-0.002,22.769-0.001,34.154,0.002c1.372,0,2.71-0.116,2.707,1.979
		c-0.003,2.173-1.453,1.874-2.759,1.878C277.353,152.673,271.511,152.664,265.669,152.664z"/>
	<path fill="none" stroke="#4B7E7F" stroke-miterlimit="10" d="M209.646,48.165c-50.603,0-101.207-0.047-151.809,0.095
		c-3.819,0.011-4.722-1.006-4.607-4.701c0.284-9.151,0.292-18.323-0.003-27.473c-0.119-3.699,1.144-4.344,4.516-4.339
		c66.52,0.093,133.04,0.069,199.56,0.069c34.987,0,69.974,0.061,104.96-0.088c3.764-0.016,4.785,0.982,4.666,4.719
		c-0.286,9-0.369,18.028,0.028,27.02c0.188,4.257-1.343,4.784-5.05,4.776C311.153,48.128,260.4,48.165,209.646,48.165z"/>
	<path fill="#4B7E7F" d="M56.633,40.125c0-8.195,0.052-15.802-0.033-23.408c-0.024-2.144,0.752-2.863,2.882-2.849
		c11.382,0.073,22.766,0.054,34.148,0.014c1.77-0.006,2.805,0.379,2.789,2.454C96.355,24.517,96.393,32.7,96.393,42.1
		c-3.889-4.11-7.142-7.305-10.098-10.755c-2.037-2.377-3.7-2.786-5.604-0.06c-2.136,3.059-3.746,3.719-6.311-0.068
		c-4.693-6.929-4.953-6.747-9.981-0.15c-2.086,2.737-4.188,5.463-6.301,8.18C57.94,39.451,57.631,39.537,56.633,40.125z"/>
	<path fill="#4B7E7F" d="M58.344,44.008c3.465-4.603,6.604-8.74,9.703-12.907c0.99-1.331,1.811-1.293,2.755,0.038
		c1.126,1.588,2.485,3.03,3.471,4.696c1.986,3.356,3.953,3.19,6.003,0.182c2.066-3.032,3.886-3.367,6.277-0.145
		c2.038,2.747,4.612,5.096,7.426,8.136C81.989,44.008,70.609,44.008,58.344,44.008z"/>
	<path fill="#7F7F81" d="M122.261,23.825c4.343,0,8.686-0.01,13.029,0.006c1.491,0.005,3.236-0.192,3.333,1.99
		c0.097,2.181-1.569,2.208-3.119,2.209c-8.536,0.007-17.073,0.014-25.609-0.008c-1.495-0.004-3.205,0.093-3.284-2.084
		c-0.098-2.716,2.014-2.067,3.519-2.092C114.173,23.781,118.218,23.825,122.261,23.825z"/>
	<path fill="#7F7F81" d="M125.017,36.439c-5.24-0.001-10.481,0.013-15.721-0.012c-1.163-0.006-2.532,0.18-2.65-1.602
		c-0.134-2.037,1.292-2.021,2.692-2.021c10.631-0.002,21.261-0.009,31.892,0.008c1.304,0.002,2.899-0.263,2.876,1.826
		c-0.022,2.079-1.623,1.785-2.918,1.791C135.797,36.456,130.407,36.44,125.017,36.439z"/>
	<path fill="#7F7F81" d="M323.243,30.944c-4.332,0-8.663,0-12.995-0.001c-1.248,0-2.455-0.039-2.477-1.777
		c-0.022-1.699,1.105-1.877,2.397-1.877c8.962,0.001,17.924-0.003,26.886,0.001c1.389,0.001,2.808-0.026,2.688,2.019
		c-0.105,1.789-1.435,1.621-2.607,1.626C332.504,30.957,327.874,30.945,323.243,30.944z"/>
	<path fill="#7F7F81" d="M257.544,30.946c-4.333-0.001-8.666,0.007-12.999-0.005c-1.361-0.004-2.823,0.11-2.708-1.976
		c0.098-1.774,1.392-1.668,2.581-1.669c8.965-0.012,17.93-0.007,26.895-0.007c1.251,0,2.467,0.049,2.494,1.775
		c0.033,2.084-1.487,1.872-2.816,1.877C266.509,30.957,262.026,30.947,257.544,30.946z"/>
	<path fill="#7F7F81" d="M193.466,30.947c-4.184,0-8.367,0.027-12.55-0.016c-1.255-0.013-2.885,0.414-2.985-1.691
		c-0.098-2.063,1.405-1.945,2.757-1.947c8.815-0.011,17.631-0.011,26.446,0c1.351,0.002,2.856-0.119,2.761,1.943
		c-0.097,2.104-1.726,1.683-2.982,1.694C202.431,30.972,197.948,30.947,193.466,30.947z"/>
	<path fill="#4B7E7F" d="M298.895,34.715c-3.65-0.269-5.467-2.229-5.43-5.263s1.883-5.103,5.16-5.063
		c3.419,0.042,5.358,1.969,5.223,5.397C303.721,33.019,301.559,34.428,298.895,34.715z"/>
	<path fill="#4B7E7F" d="M239.17,29.31c-0.231,3.25-1.782,5.24-5.013,5.309c-3.43,0.074-5.339-1.83-5.294-5.268
		c0.043-3.243,1.964-4.98,5.147-4.975C237.227,24.38,238.885,26.252,239.17,29.31z"/>
	<path fill="#4B7E7F" d="M174.426,29.54c-0.32,3.261-1.991,5.119-5.215,5.088c-3.196-0.031-5.069-1.858-5.097-5.041
		c-0.03-3.432,1.947-5.281,5.372-5.191C172.76,24.482,174.227,26.517,174.426,29.54z"/>
	<path fill="#FEDDE7" d="M85.88,21.536c-0.077,1.045-0.694,1.721-1.677,1.76c-1.209,0.049-2.032-0.682-1.974-1.927
		c0.058-1.237,0.963-1.929,2.134-1.768C85.285,19.729,85.918,20.461,85.88,21.536z"/>
</g>
<rect x="42.077" y="245.333" fill="#FEFEFE" width="337.93" height="15.416"/>
<g>
	<path fill="#C52275" d="M346.466,188.915c0.551-1.069,1.41-1.68,2.625-1.755c3.439-0.248,6.886-0.071,10.328-0.101
		c2.318-0.019,4.635-0.09,6.949,0.131c0.24,2.04,0.139,4.088,0.056,6.132c-0.506,0.439-1.08,0.353-1.658,0.203
		c-5.029-1.305-10.148-2.228-15.185-3.495C348.518,189.759,347.374,189.658,346.466,188.915z"/>
	<path fill="#B32074" d="M366.429,204.419c0,1.365,0,2.727,0,4.092c-1.601,0.386-3.072-0.319-4.564-0.63
		c-4.609-0.968-9.162-2.213-13.771-3.199c-0.78-0.169-1.658-0.229-2.235-0.93c-0.049-1.2-0.038-2.4-0.007-3.6
		c0.42-0.578,0.949-0.315,1.451-0.184c4.227,1.118,8.521,1.946,12.774,2.959C362.192,203.429,364.333,203.834,366.429,204.419z"/>
	<path fill="#C22275" d="M346.02,200.043c0,1.264,0,2.531,0.004,3.795c0.6,0.889,0.338,1.886,0.371,2.85
		c0.015,0.694,0.03,1.391-0.004,2.085c0.022,0.608,0.022,1.215,0,1.819c0.038,0.968,0.022,1.935-0.004,2.903
		c0.007,0.551,0.022,1.103-0.458,1.504c-0.255-0.454-0.15-0.953-0.15-1.429c-0.004-7.249-0.004-14.499,0.007-21.748
		c0-1.016-0.045-2.055,0.683-2.907c2.862,0.645,5.746,1.196,8.573,1.958c3.342,0.896,6.807,1.226,10.092,2.355
		c0.398,0.135,0.863,0.071,1.294,0.098c0,0.975,0,1.946,0,2.922c-0.765,0.619-1.56,0.263-2.359,0.09
		c-5.213-1.129-10.366-2.52-15.602-3.537c-2.066-0.401-2.07-0.368-2.081,1.804c0.022,0.855,0.034,1.71,0.007,2.565
		C346.365,198.138,346.624,199.146,346.02,200.043z"/>
	<path fill="#B82174" d="M346.02,200.043c0-0.975,0-1.95,0-2.922c0.503-0.461,1.08-0.334,1.654-0.214
		c5.033,1.069,10.028,2.291,15.009,3.585c1.249,0.326,2.655,0.098,3.747,1.009c0,0.975,0,1.946,0,2.922
		c-3.754-0.071-7.283-1.309-10.887-2.134C352.366,201.558,349.11,201.13,346.02,200.043z"/>
	<path fill="#BE2275" d="M346.016,194.511c-0.004-0.049-0.011-0.098-0.015-0.146c-0.09-2.449-0.105-2.37,2.329-1.98
		c5.01,0.803,9.848,2.366,14.833,3.274c1.088,0.199,2.111,0.758,3.267,0.581c0,0.975,0,1.946,0,2.922
		c-0.585,0.461-1.219,0.218-1.815,0.079c-5.757-1.328-11.559-2.453-17.27-3.972C346.83,195.134,346.275,195.085,346.016,194.511z"/>
	<path fill="#AF1F74" d="M346.02,206.76c0-0.971,0-1.946,0-2.918c3.004,0.683,6.008,1.358,9.008,2.044
		c3.799,0.87,7.598,1.751,11.397,2.629c0,0.878,0,1.751,0,2.629c-0.915,0.308-1.815,0.116-2.712-0.083
		c-4.665-1.028-9.26-2.389-13.981-3.169C348.458,207.675,347.183,207.39,346.02,206.76z"/>
	<path fill="#831971" d="M368.755,232.176c-0.634,0.326-1.328,0.27-2.003,0.27c-7.054,0.011-14.109,0.011-21.163,0
		c-0.671,0-1.369,0.079-1.999-0.263c0.585-0.596,1.346-0.48,2.059-0.48c3.78,0,7.564-0.06,11.345,0.045c1.598,0.011,3.203,0,4.815,0
		c-4.8-0.956-9.541-2.171-14.311-3.263c-3.642-0.833-7.309-1.556-10.929-2.49c-0.679-0.176-1.343-0.18-1.999,0.083
		c-0.544-0.608-0.855-1.339-1.114-2.096c0.383-0.75,1.013-0.581,1.646-0.469c3.439,0.615,6.766,1.725,10.19,2.381
		c5.768,1.103,11.424,2.689,17.173,3.882c1.616,0.334,3.207,0.776,4.819,1.121C367.945,231.04,368.785,231.156,368.755,232.176z"/>
	<path fill="#A81E73" d="M346.024,213.473c0-0.971,0-1.946,0-2.918c0.383-0.341,0.814-0.244,1.245-0.135
		c5.854,1.451,11.772,2.625,17.604,4.182c0.649,0.173,1.575,0.195,1.294,1.328c-0.491,0.919-0.934,1.883-2.081,2.168
		c-2.997-1.305-6.229-1.729-9.372-2.468C351.803,214.943,348.878,214.35,346.024,213.473z"/>
	<path fill="#7C1770" d="M357.357,232.157c-4.59,0.011-9.177,0.019-13.768,0.03c-3.424-0.465-6.094-2.183-8.18-4.887
		c0.21-1.114,1.076-0.754,1.699-0.66c1.916,0.281,3.765,0.908,5.671,1.271c4.137,0.791,8.153,2.13,12.327,2.768
		C356.007,230.814,357.05,230.994,357.357,232.157z"/>
	<path fill="#BB2175" d="M346.016,194.511c4.65,1.028,9.207,2.464,13.925,3.21c2.183,0.345,4.324,0.953,6.484,1.444
		c0,0.78,0,1.556,0,2.336c-3.608-0.345-7.032-1.526-10.55-2.299c-3.282-0.72-6.507-1.714-9.86-2.081
		C346.016,196.251,346.016,195.381,346.016,194.511z"/>
	<path fill="#CB2577" d="M379.578,187.183c0.293,2.145,0.323,4.29-0.019,6.432c-2.066,0.315-4.144,0.064-6.218,0.135
		c-0.525,0.019-0.645-0.289-0.641-0.743c0.007-1.744,0.007-3.488,0-5.228c0-0.465,0.146-0.746,0.66-0.728
		C375.43,187.123,377.512,186.883,379.578,187.183z"/>
	<path fill="#AD1F74" d="M346.02,206.76c2.828,0.544,5.689,0.968,8.48,1.669c2.614,0.656,5.247,1.215,7.868,1.826
		c1.35,0.315,2.708,0.593,4.062,0.889c0,0.679,0,1.361,0,2.04c-0.833,0.608-1.714,0.21-2.528,0.022
		c-5.479-1.279-10.966-2.524-16.468-3.717c-0.529-0.113-1.043-0.251-1.414-0.683C346.02,208.121,346.02,207.438,346.02,206.76z"/>
	<path fill="#A41E73" d="M346.024,213.473c0.713-0.315,1.335-0.071,2.059,0.131c2.254,0.641,4.564,1.088,6.848,1.628
		c2.809,0.664,5.607,1.369,8.423,2.003c0.544,0.124,0.761,0.338,0.728,0.859c-1.624,0.686-3.312,0.289-4.977,0.304
		c-0.131-0.06-0.27-0.12-0.416-0.105c-4.017,0.473-7.786-0.788-11.611-1.65c-0.36-0.083-0.623-0.244-0.829-0.536
		c-0.334-0.304-0.338-0.701-0.319-1.106C345.96,214.493,345.99,213.983,346.024,213.473z"/>
	<path fill="#871971" d="M368.755,232.176c-0.473-0.941-1.463-0.9-2.265-1.088c-6.188-1.451-12.391-2.839-18.587-4.26
		c-4.403-1.009-8.802-2.033-13.201-3.064c-0.465-0.109-0.859-0.008-1.249,0.218c-0.195-0.458-0.443-0.9-0.364-1.425
		c0.053-0.056,0.105-0.116,0.154-0.173c0.66-0.353,1.32-0.116,1.965,0.03c1.916,0.428,3.814,0.956,5.749,1.298
		c0.443,0.079,0.81,0.285,1.14,0.57c1.193,1.125,2.727,1.256,4.234,1.373c1.238,0.098,2.487,0.064,3.728,0.086
		c3.282,0.623,6.496,1.556,9.762,2.239c3.278,0.686,6.496,1.62,9.792,2.231c0.679,0.128,1.448,0.323,1.796,1.091
		C370.664,232.011,369.715,232.105,368.755,232.176z"/>
	<path fill="#AA1E73" d="M346.02,208.804c3.687,0.686,7.317,1.631,10.981,2.408c3.139,0.664,6.222,1.628,9.428,1.969
		c0.071,0.93,0.248,1.871-0.266,2.745c-0.007-0.66-0.551-0.769-1.001-0.866c-4.099-0.889-8.15-1.999-12.267-2.835
		c-2.299-0.465-4.613-0.998-6.874-1.673C346.02,209.97,346.02,209.389,346.02,208.804z"/>
	<path fill="#BF2375" d="M332.789,221.09c-0.33-0.638-0.218-1.331-0.218-2.003c-0.008-10.25,0.019-20.499-0.022-30.749
		c-0.004-1.193,0.293-1.504,1.481-1.305c3.582,0.608,5.427,2.847,5.517,6.871c-1.609-0.63-3.353-0.773-4.973-1.369
		c-0.949-0.349-1.35,0.038-1.343,1.005c0.007,0.964,0.011,1.928,0.011,2.892c0.045,1.208,0.038,2.415,0.011,3.623
		c0.038,1.343,0.041,2.689,0,4.032c0.03,1.073,0.041,2.149-0.004,3.222c0.019,1.065,0.045,2.13,0,3.195
		c0.022,0.964,0.034,1.928-0.004,2.892c0.011,0.604,0.03,1.211,0,1.815c0.019,0.69,0.026,1.376,0.007,2.066
		c-0.019,0.866,0.041,1.736-0.019,2.603C333.224,220.336,333.194,220.782,332.789,221.09z"/>
	<path fill="#801870" d="M357.357,232.157c-1.695-1.478-3.912-1.2-5.884-1.736c-2.04-0.559-4.065-1.2-6.139-1.568
		c-2.997-0.529-5.914-1.388-8.903-1.928c-0.379-0.068-0.788-0.038-1.02,0.379c-0.394-0.33-0.709-0.713-0.844-1.223
		c0.015-0.533,0.03-0.945,0.825-0.716c1.241,0.356,2.531,0.518,3.792,0.844c3.683,0.945,7.426,1.65,11.142,2.468
		c1.646,0.364,3.285,0.773,4.928,1.159c2.535,0.596,5.07,1.185,7.602,1.785c0.18,0.041,0.379,0.109,0.371,0.54
		C361.276,232.157,359.315,232.157,357.357,232.157z"/>
	<path fill="#B92175" d="M332.856,196.247c-0.007-1.11,0.022-2.224-0.03-3.334c-0.045-0.979,0.45-1.234,1.253-0.968
		c1.511,0.503,3.015,1.005,4.617,1.088c0.596,0.03,0.484,0.671,0.859,0.874c0.075,0.529,0.21,1.054,0.21,1.583
		c0.015,8.127,0.015,16.254,0.015,24.377c-0.705-0.146-0.525-0.746-0.623-1.208c-0.034-0.668-0.03-1.335-0.015-2.006
		c-0.007-0.596-0.034-1.193-0.004-1.785c-0.03-0.96-0.038-1.92-0.008-2.88c-0.038-1.155-0.038-2.31-0.004-3.465
		c-0.034-1.069-0.038-2.134,0-3.203c-0.026-1.215-0.038-2.43,0.007-3.642c-0.09-1.103,0.375-2.336-0.244-3.282
		c-0.634-0.964-1.988-0.514-2.963-0.923C334.908,197.054,333.711,197.072,332.856,196.247z"/>
	<path fill="#8A1A71" d="M371.414,231.302c-3.758-1.376-7.733-1.879-11.577-2.918c-2.374-0.641-4.8-1.091-7.163-1.774
		c-0.87-0.251-2.018,0.218-2.61-0.87c1.751,0,3.503,0,5.258,0c3.593,0.791,7.148,1.748,10.749,2.501
		c1.856,0.39,3.653,1.001,5.521,1.35c0.518,0.098,1.024,0.33,1.309,0.844C372.546,230.972,372.029,231.223,371.414,231.302z"/>
	<path fill="#A41E73" d="M379.608,220.227c-0.015,0.184-0.03,0.368-0.045,0.548c-0.353,0.469,0.011,1.061-0.27,1.541
		c-0.075,0.93-0.349,1.785-0.904,2.546c-1.553-1.95-3.799-1.834-5.952-1.988c-0.323-0.022-0.66,0.214-0.975-0.049
		c0.533-1.02,0.938-2.081,1.121-3.222c0.176-0.236,0.071-0.626,0.409-0.776c0.461-0.203,0.956-0.233,1.403-0.056
		c1.571,0.619,3.289,0.6,4.875,1.148C379.417,219.983,379.526,220.088,379.608,220.227z"/>
	<path fill="#911B72" d="M375.764,228.377c-0.375,0.585-0.81,1.114-1.47,1.403c-4.088-1.016-8.21-1.886-12.294-2.922
		c-0.821-0.21-1.871-0.053-2.299-1.118c2.393-0.011,4.785-0.022,7.178-0.034c2.974-0.086,5.734,0.844,8.491,1.781
		C375.753,227.619,376.064,227.889,375.764,228.377z"/>
	<path fill="#BC2376" d="M376.057,207.367c-0.971-0.135-2.516,0.536-3.278-0.251c-0.75-0.776-0.21-2.31-0.225-3.507
		c-0.038-3.004-0.011-3.004,3.027-3.004c1.069,0,2.138,0.038,3.203-0.011c0.773-0.038,1.013,0.263,0.99,1.013
		c-0.041,1.553-0.06,3.105,0.007,4.654c0.041,0.923-0.311,1.193-1.178,1.125C377.834,207.318,377.054,207.367,376.057,207.367z"/>
	<path fill="#8D1A71" d="M359.701,225.74c1.71,0.788,3.574,1.013,5.382,1.444c2.715,0.653,5.449,1.223,8.168,1.86
		c0.416,0.098,0.829,0.3,1.043,0.735c-0.555,0.026-0.769,0.776-1.395,0.656c-4.485-1.298-9.057-2.243-13.599-3.312
		c-1.339-0.315-2.824-0.45-3.983-1.384C356.78,225.74,358.239,225.74,359.701,225.74z"/>
	<path fill="#921B72" d="M339.528,218.731c0.068,0.383-0.101,0.818,0.248,1.136c0.131,0.593,0.259,1.185,0.39,1.778
		c-2.494-0.334-4.947-0.848-7.306-1.748c-0.004-0.874-0.004-1.748-0.008-2.621C335.133,217.519,337.372,217.924,339.528,218.731z"/>
	<path fill="#AC2175" d="M372.85,219.023c-0.086,0.191-0.176,0.383-0.263,0.578c-0.015-1.5,0.007-3.004-0.056-4.504
		c-0.034-0.803,0.308-0.986,1.028-0.971c1.744,0.038,3.492,0.015,5.236,0.011c0.521,0,1.001,0.022,0.968,0.735
		c-0.083,1.785,0.191,3.578-0.15,5.356l-0.083-0.06c-0.559-0.728-0.326-1.586-0.375-2.393c-0.038-0.626-0.146-1.163-0.885-1.298
		c-1.29-0.236-2.532-0.664-3.814-0.938c-1.088-0.233-1.245,0.191-1.223,1.106C373.255,217.448,373.435,218.307,372.85,219.023z"/>
	<path fill="#971C72" d="M375.764,228.377c-0.034-0.319-0.188-0.488-0.521-0.593c-2.745-0.87-5.562-1.444-8.367-2.078
		c0.998-0.413,1.999-0.825,3-1.238c1.954,0.533,3.927,0.99,5.873,1.541c0.544,0.154,1.478,0.12,1.181,1.193
		C376.645,227.698,376.368,228.197,375.764,228.377z"/>
	<path fill="#9F1D73" d="M371.462,222.822c1.988-0.806,3.814,0.022,5.704,0.484c0.968,0.236,1.335,0.626,1.223,1.556
		c-0.041,0.401-0.232,0.716-0.529,0.983c-1.459-0.63-3.019-0.881-4.564-1.185c-0.893-0.176-1.8-0.341-2.269-1.279
		C371.174,223.19,371.316,223.006,371.462,222.822z"/>
	<path fill="#9A1C72" d="M371.027,223.378c1.594,1.028,3.465,1.088,5.236,1.448c0.735,0.15,1.279,0.338,1.598,1.016
		c-0.176,0.548-0.488,0.998-0.93,1.361c-0.12-0.788-0.833-0.709-1.335-0.848c-1.519-0.428-3.049-0.81-4.59-1.155
		c-0.495-0.113-0.941-0.195-1.133-0.731C370.259,224.105,370.645,223.741,371.027,223.378z"/>
	<path fill="#8D1B72" d="M332.86,219.897c2.509,0.274,4.965,0.773,7.306,1.748c0.206,0.386,0.413,0.773,0.623,1.155
		c-0.566,0.45-1.193,0.259-1.785,0.113c-1.44-0.356-2.925-0.484-4.35-0.9c-0.638-0.188-1.121-0.068-1.493,0.484l-0.067,0.056
		c-0.33-0.443-0.293-0.956-0.296-1.463C332.815,220.692,332.837,220.295,332.86,219.897z"/>
	<path fill="#A11F74" d="M346.245,216.106c2.588,0.42,5.1,1.099,7.598,1.92c1.091,0.36,2.389,0.079,3.593,0.128
		c0.559,0.022,1.166-0.199,1.665,0.24c-3.18,0.019-6.361,0.09-9.537,0.034C348.019,218.401,346.819,217.647,346.245,216.106z"/>
	<path fill="#891A71" d="M333.156,222.5c-0.139-1.013,0.21-1.234,1.226-0.986c2.115,0.514,4.268,0.87,6.402,1.29
		c0.439,0.491,0.874,0.986,1.313,1.478C339.063,223.951,336.202,222.781,333.156,222.5z"/>
	<path fill="#C92979" d="M379.578,187.183c-1.838,0.004-3.679,0.049-5.517-0.007c-0.964-0.03-1.279,0.319-1.234,1.26
		c0.064,1.305,0.079,2.618-0.004,3.919c-0.067,1.076,0.405,1.305,1.365,1.275c1.789-0.056,3.582-0.015,5.371-0.015
		c-2.141,0.48-4.309,0.105-6.466,0.199c-0.548,0.022-0.555-0.42-0.555-0.821c0-1.744,0.004-3.488,0-5.232
		c0-0.416,0.038-0.825,0.585-0.795C375.277,187.078,377.444,186.665,379.578,187.183z"/>
	<path fill="#CA2879" d="M366.369,187.19c-5.761-0.011-11.517-0.022-17.278-0.03c0.326-0.064,0.649-0.184,0.975-0.184
		c5.172-0.011,10.347-0.011,15.519-0.004C365.863,186.969,366.178,186.883,366.369,187.19z"/>
	<path fill="#A81F74" d="M379.293,222.316c0.034-0.525-0.229-1.099,0.27-1.541C379.604,221.311,379.608,221.84,379.293,222.316z"/>
	<path fill="#B01F74" d="M339.528,201.502c0,1.264,0,2.531,0,3.795c-0.311,0.281-0.69,0.398-1.08,0.304
		c-1.875-0.454-3.803-0.69-5.592-1.47c0-1.361,0-2.727,0-4.088c0.191-0.169,0.431-0.293,0.668-0.229
		C335.526,200.369,337.638,200.545,339.528,201.502z"/>
	<path fill="#B52074" d="M339.528,201.502c-1.778-0.079-3.435-0.713-5.145-1.106c-0.51-0.116-1.016-0.236-1.526-0.353
		c0-1.264,0-2.532,0-3.795c1.946,0.319,3.762,1.193,5.757,1.309c0.645,0.038,1.001,0.443,0.949,1.189
		C339.494,199.657,339.536,200.583,339.528,201.502z"/>
	<path fill="#AB1F74" d="M332.856,204.131c1.736-0.124,3.308,0.63,4.958,0.949c0.574,0.113,1.133,0.229,1.714,0.218
		c0,1.073,0,2.141,0,3.214c-0.15,0.124-0.308,0.281-0.495,0.285c-2.179,0.03-4.272-0.315-6.177-1.451
		C332.856,206.272,332.856,205.2,332.856,204.131z"/>
	<path fill="#A71E73" d="M332.856,207.345c2.235,0.323,4.354,1.309,6.672,1.166c0,1.166,0,2.336,0,3.503
		c-0.233,0.203-0.514,0.3-0.799,0.225c-1.969-0.514-4.088-0.518-5.873-1.684C332.856,209.486,332.856,208.414,332.856,207.345z"/>
	<path fill="#A41D73" d="M332.856,210.555c2.224,0.488,4.448,0.975,6.672,1.459c0,0.971,0,1.946,0,2.918
		c-1.478,0.326-2.813-0.431-4.227-0.611c-0.818-0.105-1.725-0.293-2.445-0.848C332.856,212.501,332.856,211.526,332.856,210.555z"/>
	<path fill="#991C72" d="M339.528,218.731c-2.284-0.21-4.538-0.559-6.676-1.451c0-0.683,0-1.369,0.004-2.051
		c0.619-0.54,1.309-0.221,1.943-0.094c1.635,0.326,3.357,0.42,4.733,1.549C339.528,217.366,339.528,218.048,339.528,218.731z"/>
	<path fill="#9F1D73" d="M339.528,216.683c-2.194-0.626-4.384-1.275-6.672-1.455c0-0.585,0-1.17,0-1.751
		c2.265,0.304,4.485,0.806,6.672,1.459C339.528,215.517,339.528,216.098,339.528,216.683z"/>
	<path fill="#A81F74" d="M372.85,219.023c0-0.536-0.004-1.069-0.004-1.605c0-2.779,0.007-2.802,2.749-2.096
		c1.076,0.278,2.108,0.728,3.233,0.78c0.698,0.03,0.735,0.484,0.731,1.005c-0.015,1.02-0.019,2.04-0.03,3.06
		c-1.643-0.195-3.3-0.311-4.849-0.956C374.073,218.956,373.461,219.061,372.85,219.023z"/>
	<path fill="#B82275" d="M376.068,207.048c-0.049,0-0.098,0-0.146,0c-3.315,0-3.555-0.296-3.087-3.608
		c0.075-0.54,0.251-0.784,0.818-0.735c1.883,0.169,3.627,0.93,5.479,1.279c0.923,0.176,0.308,1.53,0.401,2.344
		c0.083,0.698-0.48,0.72-0.99,0.716C377.718,207.045,376.893,207.048,376.068,207.048z"/>
</g>
</svg>
