<?xml version="1.0" encoding="utf-8"?>
<!-- Generator: Adobe Illustrator 17.0.0, SVG Export Plug-In . SVG Version: 6.00 Build 0)  -->
<!DOCTYPE svg PUBLIC "-//W3C//DTD SVG 1.1//EN" "http://www.w3.org/Graphics/SVG/1.1/DTD/svg11.dtd">
<svg version="1.1" id="Layer_1" xmlns="http://www.w3.org/2000/svg" xmlns:xlink="http://www.w3.org/1999/xlink" x="0px" y="0px"
	 width="418px" height="130.333px" viewBox="0 0 418 245.333" enable-background="new 0 0 418 245.333" xml:space="preserve">
<rect fill="#FEFEFE" width="418" height="245.333"/>
<g>
	<path fill="#C52275" d="M342.351,185.794c0.551-1.069,1.41-1.68,2.625-1.755c3.439-0.248,6.886-0.071,10.328-0.101
		c2.318-0.019,4.635-0.09,6.949,0.131c0.24,2.04,0.139,4.088,0.056,6.132c-0.506,0.439-1.08,0.353-1.658,0.203
		c-5.029-1.305-10.148-2.228-15.185-3.495C344.403,186.638,343.259,186.537,342.351,185.794z"/>
	<path fill="#B32074" d="M362.314,201.298c0,1.365,0,2.727,0,4.092c-1.601,0.386-3.072-0.319-4.564-0.63
		c-4.609-0.968-9.162-2.213-13.771-3.199c-0.78-0.169-1.658-0.229-2.235-0.93c-0.049-1.2-0.038-2.4-0.007-3.6
		c0.42-0.578,0.949-0.315,1.451-0.184c4.227,1.118,8.521,1.946,12.774,2.959C358.077,200.308,360.218,200.713,362.314,201.298z"/>
	<path fill="#C22275" d="M341.905,196.922c0,1.264,0,2.531,0.004,3.795c0.6,0.889,0.338,1.886,0.371,2.85
		c0.015,0.694,0.03,1.391-0.004,2.085c0.022,0.608,0.022,1.215,0,1.819c0.038,0.968,0.022,1.935-0.004,2.903
		c0.007,0.551,0.022,1.103-0.458,1.504c-0.255-0.454-0.15-0.953-0.15-1.429c-0.004-7.249-0.004-14.499,0.007-21.748
		c0-1.016-0.045-2.055,0.683-2.907c2.862,0.645,5.746,1.196,8.573,1.958c3.342,0.896,6.807,1.226,10.092,2.355
		c0.398,0.135,0.863,0.071,1.294,0.098c0,0.975,0,1.946,0,2.922c-0.765,0.619-1.56,0.263-2.359,0.09
		c-5.213-1.129-10.366-2.52-15.602-3.537c-2.066-0.401-2.07-0.368-2.081,1.804c0.022,0.855,0.034,1.71,0.007,2.565
		C342.25,195.017,342.509,196.025,341.905,196.922z"/>
	<path fill="#B82174" d="M341.905,196.922c0-0.975,0-1.95,0-2.922c0.503-0.461,1.08-0.334,1.654-0.214
		c5.033,1.069,10.028,2.291,15.009,3.585c1.249,0.326,2.655,0.098,3.747,1.009c0,0.975,0,1.946,0,2.922
		c-3.754-0.071-7.283-1.309-10.887-2.134C348.251,198.437,344.995,198.009,341.905,196.922z"/>
	<path fill="#BE2275" d="M341.901,191.39c-0.004-0.049-0.011-0.098-0.015-0.146c-0.09-2.449-0.105-2.37,2.329-1.98
		c5.01,0.803,9.848,2.366,14.833,3.274c1.088,0.199,2.111,0.758,3.267,0.581c0,0.975,0,1.946,0,2.922
		c-0.585,0.461-1.219,0.218-1.815,0.079c-5.757-1.328-11.559-2.453-17.27-3.972C342.715,192.013,342.16,191.964,341.901,191.39z"/>
	<path fill="#AF1F74" d="M341.905,203.639c0-0.971,0-1.946,0-2.918c3.004,0.683,6.008,1.358,9.008,2.044
		c3.799,0.87,7.598,1.751,11.397,2.629c0,0.878,0,1.751,0,2.629c-0.915,0.308-1.815,0.116-2.712-0.083
		c-4.665-1.028-9.26-2.389-13.981-3.169C344.343,204.554,343.068,204.269,341.905,203.639z"/>
	<path fill="#831971" d="M364.64,229.055c-0.634,0.326-1.328,0.27-2.003,0.27c-7.054,0.011-14.109,0.011-21.163,0
		c-0.671,0-1.369,0.079-1.999-0.263c0.585-0.596,1.346-0.48,2.059-0.48c3.78,0,7.564-0.06,11.345,0.045c1.598,0.011,3.203,0,4.815,0
		c-4.8-0.956-9.541-2.171-14.311-3.263c-3.642-0.833-7.309-1.556-10.929-2.49c-0.679-0.176-1.343-0.18-1.999,0.083
		c-0.544-0.608-0.855-1.339-1.114-2.096c0.383-0.75,1.013-0.581,1.646-0.469c3.439,0.615,6.766,1.725,10.19,2.381
		c5.768,1.103,11.424,2.689,17.173,3.882c1.616,0.334,3.207,0.776,4.819,1.121C363.83,227.919,364.67,228.035,364.64,229.055z"/>
	<path fill="#A81E73" d="M341.909,210.352c0-0.971,0-1.946,0-2.918c0.383-0.341,0.814-0.244,1.245-0.135
		c5.854,1.451,11.772,2.625,17.604,4.182c0.649,0.173,1.575,0.195,1.294,1.328c-0.491,0.919-0.934,1.883-2.081,2.168
		c-2.997-1.305-6.229-1.729-9.372-2.468C347.688,211.822,344.763,211.229,341.909,210.352z"/>
	<path fill="#7C1770" d="M353.242,229.036c-4.59,0.011-9.177,0.019-13.768,0.03c-3.424-0.465-6.094-2.183-8.18-4.887
		c0.21-1.114,1.076-0.754,1.699-0.66c1.916,0.281,3.765,0.908,5.671,1.271c4.137,0.791,8.153,2.13,12.327,2.768
		C351.892,227.693,352.935,227.873,353.242,229.036z"/>
	<path fill="#BB2175" d="M341.901,191.39c4.65,1.028,9.207,2.464,13.925,3.21c2.183,0.345,4.324,0.953,6.484,1.444
		c0,0.78,0,1.556,0,2.336c-3.608-0.345-7.032-1.526-10.55-2.299c-3.282-0.72-6.507-1.714-9.86-2.081
		C341.901,193.13,341.901,192.26,341.901,191.39z"/>
	<path fill="#CB2577" d="M375.463,184.062c0.293,2.145,0.323,4.29-0.019,6.432c-2.066,0.315-4.144,0.064-6.218,0.135
		c-0.525,0.019-0.645-0.289-0.641-0.743c0.007-1.744,0.007-3.488,0-5.228c0-0.465,0.146-0.746,0.66-0.728
		C371.315,184.002,373.397,183.762,375.463,184.062z"/>
	<path fill="#AD1F74" d="M341.905,203.639c2.828,0.544,5.689,0.968,8.48,1.669c2.614,0.656,5.247,1.215,7.868,1.826
		c1.35,0.315,2.708,0.593,4.062,0.889c0,0.679,0,1.361,0,2.04c-0.833,0.608-1.714,0.21-2.528,0.022
		c-5.479-1.279-10.966-2.524-16.468-3.717c-0.529-0.113-1.043-0.251-1.414-0.683C341.905,205,341.905,204.317,341.905,203.639z"/>
	<path fill="#A41E73" d="M341.909,210.352c0.713-0.315,1.335-0.071,2.059,0.131c2.254,0.641,4.564,1.088,6.848,1.628
		c2.809,0.664,5.607,1.369,8.423,2.003c0.544,0.124,0.761,0.338,0.728,0.859c-1.624,0.686-3.312,0.289-4.977,0.304
		c-0.131-0.06-0.27-0.12-0.416-0.105c-4.017,0.473-7.786-0.788-11.611-1.65c-0.36-0.083-0.623-0.244-0.829-0.536
		c-0.334-0.304-0.338-0.701-0.319-1.106C341.845,211.372,341.875,210.862,341.909,210.352z"/>
	<path fill="#871971" d="M364.64,229.055c-0.473-0.941-1.463-0.9-2.265-1.088c-6.188-1.451-12.391-2.839-18.587-4.26
		c-4.403-1.009-8.802-2.033-13.201-3.064c-0.465-0.109-0.859-0.008-1.249,0.218c-0.195-0.458-0.443-0.9-0.364-1.425
		c0.053-0.056,0.105-0.116,0.154-0.173c0.66-0.353,1.32-0.116,1.965,0.03c1.916,0.428,3.814,0.956,5.749,1.298
		c0.443,0.079,0.81,0.285,1.14,0.57c1.193,1.125,2.727,1.256,4.234,1.373c1.238,0.098,2.487,0.064,3.728,0.086
		c3.282,0.623,6.496,1.556,9.762,2.239c3.278,0.686,6.496,1.62,9.792,2.231c0.679,0.128,1.448,0.323,1.796,1.091
		C366.549,228.89,365.6,228.984,364.64,229.055z"/>
	<path fill="#AA1E73" d="M341.905,205.683c3.687,0.686,7.317,1.631,10.981,2.408c3.139,0.664,6.222,1.628,9.428,1.969
		c0.071,0.93,0.248,1.871-0.266,2.745c-0.007-0.66-0.551-0.769-1.001-0.866c-4.099-0.889-8.15-1.999-12.267-2.835
		c-2.299-0.465-4.613-0.998-6.874-1.673C341.905,206.849,341.905,206.268,341.905,205.683z"/>
	<path fill="#BF2375" d="M328.674,217.969c-0.33-0.638-0.218-1.331-0.218-2.003c-0.008-10.25,0.019-20.499-0.022-30.749
		c-0.004-1.193,0.293-1.504,1.481-1.305c3.582,0.608,5.427,2.847,5.517,6.871c-1.609-0.63-3.353-0.773-4.973-1.369
		c-0.949-0.349-1.35,0.038-1.343,1.005c0.007,0.964,0.011,1.928,0.011,2.892c0.045,1.208,0.038,2.415,0.011,3.623
		c0.038,1.343,0.041,2.689,0,4.032c0.03,1.073,0.041,2.149-0.004,3.222c0.019,1.065,0.045,2.13,0,3.195
		c0.022,0.964,0.034,1.928-0.004,2.892c0.011,0.604,0.03,1.211,0,1.815c0.019,0.69,0.026,1.376,0.007,2.066
		c-0.019,0.866,0.041,1.736-0.019,2.603C329.109,217.215,329.079,217.661,328.674,217.969z"/>
	<path fill="#801870" d="M353.242,229.036c-1.695-1.478-3.912-1.2-5.884-1.736c-2.04-0.559-4.065-1.2-6.139-1.568
		c-2.997-0.529-5.914-1.388-8.903-1.928c-0.379-0.068-0.788-0.038-1.02,0.379c-0.394-0.33-0.709-0.713-0.844-1.223
		c0.015-0.533,0.03-0.945,0.825-0.716c1.241,0.356,2.531,0.518,3.792,0.844c3.683,0.945,7.426,1.65,11.142,2.468
		c1.646,0.364,3.285,0.773,4.928,1.159c2.535,0.596,5.07,1.185,7.602,1.785c0.18,0.041,0.379,0.109,0.371,0.54
		C357.161,229.036,355.2,229.036,353.242,229.036z"/>
	<path fill="#B92175" d="M328.741,193.126c-0.007-1.11,0.022-2.224-0.03-3.334c-0.045-0.979,0.45-1.234,1.253-0.968
		c1.511,0.503,3.015,1.005,4.617,1.088c0.596,0.03,0.484,0.671,0.859,0.874c0.075,0.529,0.21,1.054,0.21,1.583
		c0.015,8.127,0.015,16.254,0.015,24.377c-0.705-0.146-0.525-0.746-0.623-1.208c-0.034-0.668-0.03-1.335-0.015-2.006
		c-0.007-0.596-0.034-1.193-0.004-1.785c-0.03-0.96-0.038-1.92-0.008-2.88c-0.038-1.155-0.038-2.31-0.004-3.465
		c-0.034-1.069-0.038-2.134,0-3.203c-0.026-1.215-0.038-2.43,0.007-3.642c-0.09-1.103,0.375-2.336-0.244-3.282
		c-0.634-0.964-1.988-0.514-2.963-0.923C330.793,193.933,329.596,193.951,328.741,193.126z"/>
	<path fill="#8A1A71" d="M367.299,228.181c-3.758-1.376-7.733-1.879-11.577-2.918c-2.374-0.641-4.8-1.091-7.163-1.774
		c-0.87-0.251-2.018,0.218-2.61-0.87c1.751,0,3.503,0,5.258,0c3.593,0.791,7.148,1.748,10.749,2.501
		c1.856,0.39,3.653,1.001,5.521,1.35c0.518,0.098,1.024,0.33,1.309,0.844C368.431,227.851,367.914,228.102,367.299,228.181z"/>
	<path fill="#A41E73" d="M375.493,217.106c-0.015,0.184-0.03,0.368-0.045,0.548c-0.353,0.469,0.011,1.061-0.27,1.541
		c-0.075,0.93-0.349,1.785-0.904,2.546c-1.553-1.95-3.799-1.834-5.952-1.988c-0.323-0.022-0.66,0.214-0.975-0.049
		c0.533-1.02,0.938-2.081,1.121-3.222c0.176-0.236,0.071-0.626,0.409-0.776c0.461-0.203,0.956-0.233,1.403-0.056
		c1.571,0.619,3.289,0.6,4.875,1.148C375.302,216.862,375.411,216.967,375.493,217.106z"/>
	<path fill="#911B72" d="M371.649,225.256c-0.375,0.585-0.81,1.114-1.47,1.403c-4.088-1.016-8.21-1.886-12.294-2.922
		c-0.821-0.21-1.871-0.053-2.299-1.118c2.393-0.011,4.785-0.022,7.178-0.034c2.974-0.086,5.734,0.844,8.491,1.781
		C371.638,224.498,371.949,224.768,371.649,225.256z"/>
	<path fill="#BC2376" d="M371.942,204.246c-0.971-0.135-2.516,0.536-3.278-0.251c-0.75-0.776-0.21-2.31-0.225-3.507
		c-0.038-3.004-0.011-3.004,3.027-3.004c1.069,0,2.138,0.038,3.203-0.011c0.773-0.038,1.013,0.263,0.99,1.013
		c-0.041,1.553-0.06,3.105,0.007,4.654c0.041,0.923-0.311,1.193-1.178,1.125C373.719,204.197,372.939,204.246,371.942,204.246z"/>
	<path fill="#8D1A71" d="M355.586,222.619c1.71,0.788,3.574,1.013,5.382,1.444c2.715,0.653,5.449,1.223,8.168,1.86
		c0.416,0.098,0.829,0.3,1.043,0.735c-0.555,0.026-0.769,0.776-1.395,0.656c-4.485-1.298-9.057-2.243-13.599-3.312
		c-1.339-0.315-2.824-0.45-3.983-1.384C352.665,222.619,354.124,222.619,355.586,222.619z"/>
	<path fill="#921B72" d="M335.413,215.61c0.068,0.383-0.101,0.818,0.248,1.136c0.131,0.593,0.259,1.185,0.39,1.778
		c-2.494-0.334-4.947-0.848-7.306-1.748c-0.004-0.874-0.004-1.748-0.008-2.621C331.018,214.398,333.257,214.803,335.413,215.61z"/>
	<path fill="#AC2175" d="M368.735,215.902c-0.086,0.191-0.176,0.383-0.263,0.578c-0.015-1.5,0.007-3.004-0.056-4.504
		c-0.034-0.803,0.308-0.986,1.028-0.971c1.744,0.038,3.492,0.015,5.236,0.011c0.521,0,1.001,0.022,0.968,0.735
		c-0.083,1.785,0.191,3.578-0.15,5.356l-0.083-0.06c-0.559-0.728-0.326-1.586-0.375-2.393c-0.038-0.626-0.146-1.163-0.885-1.298
		c-1.29-0.236-2.532-0.664-3.814-0.938c-1.088-0.233-1.245,0.191-1.223,1.106C369.14,214.327,369.32,215.186,368.735,215.902z"/>
	<path fill="#971C72" d="M371.649,225.256c-0.034-0.319-0.188-0.488-0.521-0.593c-2.745-0.87-5.562-1.444-8.367-2.078
		c0.998-0.413,1.999-0.825,3-1.238c1.954,0.533,3.927,0.99,5.873,1.541c0.544,0.154,1.478,0.12,1.181,1.193
		C372.53,224.577,372.253,225.076,371.649,225.256z"/>
	<path fill="#9F1D73" d="M367.347,219.701c1.988-0.806,3.814,0.022,5.704,0.484c0.968,0.236,1.335,0.626,1.223,1.556
		c-0.041,0.401-0.232,0.716-0.529,0.983c-1.459-0.63-3.019-0.881-4.564-1.185c-0.893-0.176-1.8-0.341-2.269-1.279
		C367.059,220.069,367.201,219.885,367.347,219.701z"/>
	<path fill="#9A1C72" d="M366.912,220.257c1.594,1.028,3.465,1.088,5.236,1.448c0.735,0.15,1.279,0.338,1.598,1.016
		c-0.176,0.548-0.488,0.998-0.93,1.361c-0.12-0.788-0.833-0.709-1.335-0.848c-1.519-0.428-3.049-0.81-4.59-1.155
		c-0.495-0.113-0.941-0.195-1.133-0.731C366.144,220.984,366.53,220.62,366.912,220.257z"/>
	<path fill="#8D1B72" d="M328.745,216.776c2.509,0.274,4.965,0.773,7.306,1.748c0.206,0.386,0.413,0.773,0.623,1.155
		c-0.566,0.45-1.193,0.259-1.785,0.113c-1.44-0.356-2.925-0.484-4.35-0.9c-0.638-0.188-1.121-0.068-1.493,0.484l-0.067,0.056
		c-0.33-0.443-0.293-0.956-0.296-1.463C328.7,217.571,328.722,217.174,328.745,216.776z"/>
	<path fill="#A11F74" d="M342.13,212.985c2.588,0.42,5.1,1.099,7.598,1.92c1.091,0.36,2.389,0.079,3.593,0.128
		c0.559,0.022,1.166-0.199,1.665,0.24c-3.18,0.019-6.361,0.09-9.537,0.034C343.904,215.28,342.704,214.526,342.13,212.985z"/>
	<path fill="#891A71" d="M329.041,219.379c-0.139-1.013,0.21-1.234,1.226-0.986c2.115,0.514,4.268,0.87,6.402,1.29
		c0.439,0.491,0.874,0.986,1.313,1.478C334.948,220.83,332.087,219.66,329.041,219.379z"/>
	<path fill="#C92979" d="M375.463,184.062c-1.838,0.004-3.679,0.049-5.517-0.007c-0.964-0.03-1.279,0.319-1.234,1.26
		c0.064,1.305,0.079,2.618-0.004,3.919c-0.067,1.076,0.405,1.305,1.365,1.275c1.789-0.056,3.582-0.015,5.371-0.015
		c-2.141,0.48-4.309,0.105-6.466,0.199c-0.548,0.022-0.555-0.42-0.555-0.821c0-1.744,0.004-3.488,0-5.232
		c0-0.416,0.038-0.825,0.585-0.795C371.162,183.957,373.329,183.544,375.463,184.062z"/>
	<path fill="#CA2879" d="M362.254,184.069c-5.761-0.011-11.517-0.022-17.278-0.03c0.326-0.064,0.649-0.184,0.975-0.184
		c5.172-0.011,10.347-0.011,15.519-0.004C361.748,183.848,362.063,183.762,362.254,184.069z"/>
	<path fill="#A81F74" d="M375.178,219.195c0.034-0.525-0.229-1.099,0.27-1.541C375.489,218.19,375.493,218.719,375.178,219.195z"/>
	<path fill="#B01F74" d="M335.413,198.381c0,1.264,0,2.531,0,3.795c-0.311,0.281-0.69,0.398-1.08,0.304
		c-1.875-0.454-3.803-0.69-5.592-1.47c0-1.361,0-2.727,0-4.088c0.191-0.169,0.431-0.293,0.668-0.229
		C331.411,197.248,333.523,197.424,335.413,198.381z"/>
	<path fill="#B52074" d="M335.413,198.381c-1.778-0.079-3.435-0.713-5.145-1.106c-0.51-0.116-1.016-0.236-1.526-0.353
		c0-1.264,0-2.532,0-3.795c1.946,0.319,3.762,1.193,5.757,1.309c0.645,0.038,1.001,0.443,0.949,1.189
		C335.379,196.536,335.421,197.462,335.413,198.381z"/>
	<path fill="#AB1F74" d="M328.741,201.01c1.736-0.124,3.308,0.63,4.958,0.949c0.574,0.113,1.133,0.229,1.714,0.218
		c0,1.073,0,2.141,0,3.214c-0.15,0.124-0.308,0.281-0.495,0.285c-2.179,0.03-4.272-0.315-6.177-1.451
		C328.741,203.151,328.741,202.079,328.741,201.01z"/>
	<path fill="#A71E73" d="M328.741,204.224c2.235,0.323,4.354,1.309,6.672,1.166c0,1.166,0,2.336,0,3.503
		c-0.233,0.203-0.514,0.3-0.799,0.225c-1.969-0.514-4.088-0.518-5.873-1.684C328.741,206.365,328.741,205.293,328.741,204.224z"/>
	<path fill="#A41D73" d="M328.741,207.434c2.224,0.488,4.448,0.975,6.672,1.459c0,0.971,0,1.946,0,2.918
		c-1.478,0.326-2.813-0.431-4.227-0.611c-0.818-0.105-1.725-0.293-2.445-0.848C328.741,209.38,328.741,208.405,328.741,207.434z"/>
	<path fill="#991C72" d="M335.413,215.61c-2.284-0.21-4.538-0.559-6.676-1.451c0-0.683,0-1.369,0.004-2.051
		c0.619-0.54,1.309-0.221,1.943-0.094c1.635,0.326,3.357,0.42,4.733,1.549C335.413,214.245,335.413,214.927,335.413,215.61z"/>
	<path fill="#9F1D73" d="M335.413,213.562c-2.194-0.626-4.384-1.275-6.672-1.455c0-0.585,0-1.17,0-1.751
		c2.265,0.304,4.485,0.806,6.672,1.459C335.413,212.396,335.413,212.977,335.413,213.562z"/>
	<path fill="#A81F74" d="M368.735,215.902c0-0.536-0.004-1.069-0.004-1.605c0-2.779,0.007-2.802,2.749-2.096
		c1.076,0.278,2.108,0.728,3.233,0.78c0.698,0.03,0.735,0.484,0.731,1.005c-0.015,1.02-0.019,2.04-0.03,3.06
		c-1.643-0.195-3.3-0.311-4.849-0.956C369.958,215.835,369.346,215.94,368.735,215.902z"/>
	<path fill="#B82275" d="M371.953,203.927c-0.049,0-0.098,0-0.146,0c-3.315,0-3.555-0.296-3.087-3.608
		c0.075-0.54,0.251-0.784,0.818-0.735c1.883,0.169,3.627,0.93,5.479,1.279c0.923,0.176,0.308,1.53,0.401,2.344
		c0.083,0.698-0.48,0.72-0.99,0.716C373.603,203.924,372.778,203.927,371.953,203.927z"/>
</g>
<g>
	<g>
		
			<rect x="204.04" y="139.23" fill="none" stroke="#9FA0A8" stroke-width="0.5" stroke-miterlimit="10" width="59.88" height="11.947"/>
		<rect x="262.399" y="138.032" fill="#4B7E7F" width="17.389" height="14.266"/>
	</g>
	<path fill="#D8D9D9" d="M209.611,175.506c-53.329,0-106.659-0.039-159.988,0.081c-3.939,0.009-5.631-0.859-5.207-5.084
		c0.366-3.646,0.218-7.366,0.031-11.039c-0.142-2.785,1.009-3.75,3.621-3.458c0.727,0.081,1.472,0.011,2.208,0.011
		c106.364,0,212.728,0,319.092,0c5.789,0,5.79,0.004,5.794,5.644c0.002,3.536-0.111,7.076,0.035,10.605
		c0.106,2.549-0.963,3.477-3.39,3.253c-1.022-0.094-2.061-0.014-3.092-0.014C315.68,175.506,262.645,175.506,209.611,175.506z"/>
	<path fill="#194C51" d="M208.957,76.273c-54.197,0-108.394-0.038-162.591,0.085c-3.609,0.008-4.695-0.803-4.653-4.535
		c0.202-17.818,0.158-35.64,0.023-53.459c-0.022-2.95,0.527-3.98,3.771-3.977c108.836,0.092,217.672,0.095,326.508-0.008
		c3.472-0.003,4.052,1.091,4.026,4.236c-0.147,17.819-0.192,35.641,0.027,53.459c0.046,3.722-1.25,4.268-4.52,4.262
		C317.351,76.247,263.154,76.273,208.957,76.273z"/>
	<path fill="#194C51" d="M309.705,92.342c-6.335,0-12.675-0.147-19.003,0.063c-3.056,0.101-2.843-1.63-2.813-3.628
		c0.029-1.931-0.36-3.76,2.747-3.728c12.669,0.134,25.34,0.132,38.009,0.005c3.342-0.033,2.342,2.155,2.506,3.868
		c0.204,2.122,0.032,3.592-2.886,3.488C322.086,92.189,315.893,92.342,309.705,92.342z"/>
	<path fill="#194C51" d="M153.815,92.343c-5.891,0-11.786-0.122-17.671,0.056c-2.587,0.078-3.782-0.448-3.537-3.339
		c0.194-2.294-0.212-4.119,3.319-4.05c12.219,0.242,24.447,0.18,36.669,0.029c2.864-0.035,3.375,1.038,3.397,3.596
		c0.024,2.742-0.539,3.912-3.623,3.784C166.193,92.163,160,92.343,153.815,92.343z"/>
	<path fill="#194C51" d="M76.844,92.342c-6.169,0-12.347-0.181-18.505,0.075c-3.167,0.132-3.083-1.477-3.152-3.745
		c-0.077-2.488,0.34-3.677,3.293-3.638c12.337,0.164,24.679,0.19,37.015-0.012c3.251-0.053,2.988,1.611,3.075,3.779
		c0.097,2.413-0.182,3.747-3.22,3.619C89.191,92.16,83.014,92.343,76.844,92.342z"/>
	<path fill="#9B9B9B" d="M90.035,108.172c9.87,0,19.739-0.034,29.608,0.039c1.39,0.01,3.666-0.857,3.566,1.877
		c-0.085,2.314-2.085,1.633-3.391,1.635c-20.181,0.041-40.362,0.04-60.543,0.002c-1.316-0.003-3.322,0.631-3.354-1.684
		c-0.037-2.699,2.233-1.819,3.622-1.829C69.706,108.138,79.871,108.172,90.035,108.172z"/>
	<path fill="#9C9C9C" d="M166.055,102.284c-9.712,0-19.425,0.036-29.137-0.041c-1.404-0.011-3.647,0.899-3.795-1.674
		c-0.155-2.706,2.139-1.891,3.545-1.894c19.866-0.049,39.732-0.05,59.598,0.001c1.405,0.004,3.698-0.825,3.579,1.864
		c-0.114,2.578-2.361,1.695-3.772,1.706C186.068,102.318,176.061,102.284,166.055,102.284z"/>
	<path fill="#989898" d="M89.577,99.414c9.994,0,19.989-0.037,29.982,0.043c1.368,0.011,3.659-0.939,3.647,1.758
		c-0.011,2.682-2.295,1.743-3.664,1.747c-19.988,0.061-39.977,0.061-59.965,0.001c-1.375-0.004-3.666,0.912-3.655-1.765
		c0.011-2.671,2.299-1.73,3.672-1.741C69.588,99.377,79.583,99.414,89.577,99.414z"/>
	<path fill="#9A9A9A" d="M165.835,130.511c-9.566,0-19.133,0.049-28.699-0.051c-1.478-0.016-4.035,1.101-3.995-1.866
		c0.036-2.62,2.369-1.655,3.749-1.659c19.574-0.062,39.148-0.06,58.723-0.005c1.384,0.004,3.682-0.881,3.554,1.866
		c-0.124,2.639-2.376,1.66-3.75,1.671C185.557,130.55,175.696,130.511,165.835,130.511z"/>
	<path fill="#194C51" d="M224.854,92.343c-4.115,0-8.24-0.181-12.341,0.062c-2.868,0.17-3.062-1.276-2.941-3.444
		c0.112-2.008-0.495-4.025,2.924-3.932c8.37,0.229,16.753,0.187,25.126,0.016c3.078-0.063,2.786,1.727,2.768,3.684
		c-0.018,1.92,0.366,3.839-2.755,3.671C233.387,92.172,229.116,92.343,224.854,92.343z"/>
	<path fill="#A3A3A3" d="M78.965,116.416c6.614,0.001,13.229-0.019,19.843,0.016c1.39,0.007,3.172-0.403,3.282,1.861
		c0.126,2.588-1.832,2.195-3.383,2.198c-13.229,0.022-26.457,0.02-39.686,0.002c-1.565-0.002-3.616,0.361-3.565-2.082
		c0.051-2.428,2.129-1.973,3.666-1.981C65.736,116.395,72.351,116.416,78.965,116.416z"/>
	<path fill="#194C51" d="M83.404,138.074c-5.439,0.001-10.878-0.011-16.317,0.01c-1.412,0.005-2.703-0.012-2.715-1.951
		c-0.012-1.91,1.211-2.007,2.663-2.004c11.319,0.022,22.639,0.02,33.958,0.004c1.513-0.002,2.616,0.308,2.516,2.169
		c-0.089,1.669-1.218,1.771-2.465,1.771C95.164,138.072,89.284,138.073,83.404,138.074z"/>
	<path fill="#989898" d="M311.046,140.104c6.763,0,13.526-0.024,20.288,0.022c1.198,0.008,2.873-0.518,2.995,1.573
		c0.141,2.424-1.722,1.934-3.08,1.937c-13.526,0.029-27.051,0.03-40.577-0.005c-1.189-0.003-2.854,0.537-2.978-1.576
		c-0.143-2.446,1.712-1.924,3.062-1.932C297.521,140.083,304.284,140.104,311.046,140.104z"/>
	<path fill="#9D9D9D" d="M154.353,148.824c-5.882,0-11.766,0.051-17.647-0.037c-1.405-0.021-3.648,0.835-3.595-1.86
		c0.046-2.315,2.038-1.681,3.357-1.686c11.912-0.045,23.824-0.042,35.736-0.004c1.345,0.004,3.286-0.495,3.167,1.876
		c-0.116,2.3-2.048,1.669-3.371,1.683C166.118,148.859,160.235,148.823,154.353,148.824z"/>
	<path fill="#9A9A9A" d="M154.234,119.727c-6.023,0-12.046,0.021-18.069-0.015c-1.38-0.008-3.224,0.426-3.074-1.958
		c0.129-2.048,1.801-1.577,3.013-1.58c12.046-0.033,24.093-0.032,36.139-0.003c1.366,0.003,3.213-0.458,3.056,1.957
		c-0.134,2.068-1.788,1.57-2.995,1.579C166.281,119.751,160.258,119.727,154.234,119.727z"/>
	<path fill="#194C51" d="M83.409,129.549c-4.998,0-9.999,0.105-14.991-0.068c-1.388-0.048-3.947,1.332-3.878-1.848
		c0.061-2.814,2.36-1.62,3.653-1.632c10.582-0.101,21.166-0.091,31.749-0.014c1.339,0.01,3.617-0.998,3.476,1.861
		c-0.137,2.771-2.37,1.615-3.695,1.647C94.288,129.625,88.848,129.549,83.409,129.549z"/>
	<path fill="#194C51" d="M83.388,147.281c-5.437-0.001-10.874-0.003-16.311,0.001c-1.356,0.001-2.68,0.12-2.596-1.946
		c0.073-1.795,1.24-1.674,2.422-1.674c11.315-0.003,22.63-0.002,33.945-0.003c1.35,0,2.721-0.14,2.616,1.941
		c-0.108,2.159-1.68,1.654-2.883,1.663C94.85,147.305,89.119,147.281,83.388,147.281z"/>
	<path fill="#9A9A9A" d="M224.814,107.43c4.101-0.004,8.202-0.006,12.303-0.002c1.363,0.001,2.756-0.037,2.63,1.973
		c-0.11,1.758-1.431,1.58-2.571,1.582c-8.348,0.016-16.696,0.011-25.045-0.003c-1.194-0.002-2.414-0.019-2.438-1.737
		c-0.024-1.709,1.15-1.802,2.379-1.805C216.319,107.428,220.567,107.434,224.814,107.43z"/>
	<path fill="#9A9A9A" d="M265.521,110.985c-4.248,0.001-8.496,0.009-12.744-0.003c-1.217-0.003-2.4-0.072-2.383-1.788
		c0.017-1.714,1.213-1.756,2.422-1.757c8.496-0.007,16.991-0.002,25.487,0c1.093,0,2.05,0.148,2.144,1.57
		c0.107,1.622-0.833,1.984-2.183,1.981C274.017,110.977,269.769,110.984,265.521,110.985z"/>
	<path fill="#9B9B9B" d="M224.856,116.16c4.114-0.003,8.228-0.007,12.342-0.001c1.22,0.002,2.421,0.041,2.455,1.745
		c0.034,1.699-1.122,1.82-2.371,1.82c-8.375,0.001-16.75,0.004-25.125-0.008c-1.202-0.002-2.425-0.026-2.463-1.738
		c-0.038-1.718,1.153-1.806,2.378-1.81C216.334,116.155,220.595,116.163,224.856,116.16z"/>
	<path fill="#9B9B9B" d="M265.492,119.728c-3.968,0-7.937,0.038-11.905-0.021c-1.349-0.02-3.232,0.512-3.168-1.877
		c0.055-2.047,1.711-1.653,2.939-1.658c8.083-0.034,16.167-0.025,24.251-0.01c1.313,0.002,2.832-0.152,2.733,1.888
		c-0.1,2.052-1.705,1.65-2.946,1.663C273.429,119.754,269.46,119.728,265.492,119.728z"/>
	<path fill="#9A9A9A" d="M224.937,124.986c3.957-0.001,7.915-0.028,11.872,0.015c1.236,0.013,2.813-0.377,2.932,1.672
		c0.119,2.057-1.367,1.906-2.685,1.908c-8.208,0.012-16.416,0.013-24.623-0.003c-1.307-0.002-2.823,0.156-2.727-1.883
		c0.095-2.026,1.68-1.679,2.92-1.692C216.729,124.96,220.833,124.987,224.937,124.986z"/>
	<path fill="#9A9A9A" d="M265.513,128.586c-4.105,0-8.21,0.021-12.315-0.013c-1.269-0.01-2.826,0.26-2.794-1.809
		c0.032-2.044,1.591-1.76,2.848-1.764c8.21-0.026,16.42-0.02,24.629-0.004c1.152,0.002,2.448-0.139,2.561,1.607
		c0.131,2.01-1.244,1.983-2.615,1.983C273.723,128.586,269.618,128.586,265.513,128.586z"/>
	<path fill="#9D9D9D" d="M224.428,98.645c4.248-0.004,8.496-0.013,12.744,0.003c1.165,0.004,2.456-0.107,2.574,1.605
		c0.136,1.972-1.236,2.025-2.618,2.026c-8.35,0.003-16.699,0.002-25.049-0.011c-1.234-0.002-2.396-0.158-2.383-1.827
		c0.013-1.683,1.205-1.783,2.427-1.787C216.225,98.639,220.327,98.648,224.428,98.645z"/>
	<path fill="#9D9D9D" d="M265.52,98.647c4.102-0.004,8.204-0.001,12.307-0.005c1.392-0.001,2.743,0.038,2.616,2.007
		c-0.111,1.715-1.407,1.62-2.569,1.622c-8.351,0.014-16.702,0.01-25.053-0.002c-1.218-0.002-2.401-0.107-2.424-1.783
		c-0.023-1.683,1.132-1.829,2.376-1.831C257.023,98.645,261.272,98.651,265.52,98.647z"/>
	<path fill="#9B9B9B" d="M146.624,110.993c-3.659,0-7.318,0.016-10.978-0.01c-1.146-0.008-2.462,0.153-2.575-1.586
		c-0.13-2.003,1.266-1.971,2.63-1.972c7.318-0.002,14.637-0.009,21.955,0.008c1.143,0.003,2.448-0.172,2.564,1.581
		c0.133,2.015-1.26,1.974-2.619,1.976C153.942,110.997,150.283,110.993,146.624,110.993z"/>
	<path fill="#999999" d="M145.753,139.22c-3.509,0-7.019,0.005-10.528-0.003c-1.073-0.003-2.062-0.115-2.158-1.548
		c-0.108-1.611,0.812-1.983,2.171-1.981c7.311,0.012,14.622,0.004,21.933,0.009c1.073,0.001,2.057,0.103,2.15,1.545
		c0.103,1.607-0.796,1.992-2.163,1.985C153.357,139.207,149.555,139.22,145.753,139.22z"/>
	<path fill="#4B7E7F" d="M56.654,133.276c1.635,0.282,2.807,1.022,2.873,2.743c0.067,1.733-1.039,2.757-2.618,2.829
		c-1.604,0.072-2.705-0.892-2.782-2.635C54.049,134.44,55.193,133.697,56.654,133.276z"/>
	<path fill="#4B7E7F" d="M59.579,127.647c-0.283,1.975-1.277,2.897-3.006,2.762c-1.789-0.139-2.565-1.321-2.392-3.017
		c0.155-1.521,1.142-2.348,2.677-2.314C58.642,125.118,59.381,126.252,59.579,127.647z"/>
	<path fill="#4B7E7F" d="M59.546,145.351c-0.079,1.737-0.924,2.755-2.696,2.79c-1.532,0.031-2.53-0.757-2.672-2.303
		c-0.157-1.706,0.66-2.881,2.409-3.026C58.313,142.669,59.281,143.66,59.546,145.351z"/>
	<path fill="#194C51" d="M95.296,168.35c-12.356,0-24.713,0.022-37.069-0.028c-1.557-0.006-3.822,0.844-3.705-2.21
		c0.1-2.629,2.043-2.027,3.537-2.029c25.007-0.024,50.014-0.025,75.021,0.002c1.612,0.002,3.825-0.701,3.683,2.278
		c-0.144,3.022-2.478,1.931-3.956,1.94C120.304,168.384,107.8,168.35,95.296,168.35z"/>
	<path fill="#194C51" d="M327.429,164.024c10.879,0,21.759-0.029,32.638,0.033c1.522,0.009,3.759-0.925,3.746,2.147
		c-0.013,3.079-2.265,2.112-3.771,2.115c-21.906,0.05-43.811,0.048-65.717,0.005c-1.544-0.003-3.795,0.886-3.782-2.146
		c0.013-3.032,2.27-2.114,3.808-2.123C305.376,163.996,316.402,164.024,327.429,164.024z"/>
	<path fill="#FEFEFE" d="M208.938,16.336c53.485,0,106.97,0.05,160.454-0.102c3.964-0.011,4.84,1.011,4.784,4.852
		c-0.233,16.057-0.218,32.12-0.012,48.178c0.05,3.884-0.752,5.226-4.986,5.191c-26.225-0.216-52.452-0.108-78.679-0.108
		c-80.595,0-161.191-0.025-241.786,0.077c-3.816,0.005-5.248-0.65-5.17-4.923c0.292-16.055,0.239-32.12,0.028-48.177
		c-0.05-3.851,0.721-5.109,4.913-5.096C101.968,16.392,155.453,16.336,208.938,16.336z"/>
	<path fill="#194C51" d="M154.937,21.934c6.166,0,12.337,0.153,18.496-0.059c3.515-0.121,2.655,2.148,2.791,4.069
		c0.151,2.135-0.024,3.544-2.907,3.51c-12.477-0.146-24.959-0.176-37.435,0.013c-3.306,0.05-2.945-1.748-3.013-3.86
		c-0.074-2.289-0.039-3.879,3.132-3.75C142.304,22.114,148.624,21.933,154.937,21.934z"/>
	<path fill="#194C51" d="M308.927,29.392c-6.179,0-12.365-0.164-18.535,0.065c-3.435,0.128-2.814-1.99-2.892-3.998
		c-0.081-2.074-0.096-3.622,2.868-3.587c12.504,0.146,25.011,0.15,37.515,0.004c3.338-0.039,2.883,1.934,2.949,4.009
		c0.067,2.125-0.024,3.651-2.927,3.565C321.584,29.263,315.254,29.392,308.927,29.392z"/>
	<path fill="#194C51" d="M75.871,21.933c6.313,0,12.631,0.154,18.936-0.063c3.283-0.113,3.021,1.787,3.011,3.926
		c-0.009,1.997,0.198,3.688-2.825,3.654c-12.477-0.139-24.958-0.154-37.435,0.007c-3.249,0.042-2.971-1.76-3.076-3.913
		c-0.122-2.495,0.413-3.77,3.333-3.672C63.828,22.073,69.852,21.932,75.871,21.933z"/>
	<path fill="#194C51" d="M231.869,29.393c-6.167,0-12.34-0.147-18.5,0.064c-2.967,0.102-3.39-1.242-3.305-3.69
		c0.076-2.198-0.099-3.937,3.106-3.897c12.333,0.156,24.67,0.158,37.002-0.005c3.014-0.04,3.265,1.294,3.275,3.705
		c0.011,2.582-0.275,4.054-3.521,3.903C243.919,29.193,237.889,29.393,231.869,29.393z"/>
	<path fill="#A1A1A1" d="M321.401,39.189c-10.014,0-20.029,0.03-30.043-0.033c-1.422-0.009-3.552,0.806-3.667-1.852
		c-0.13-2.987,2.195-2.2,3.77-2.203c20.176-0.042,40.352-0.043,60.529,0.003c1.428,0.003,3.549-0.782,3.666,1.864
		c0.133,2.995-2.2,2.184-3.769,2.193C341.725,39.217,331.563,39.189,321.401,39.189z"/>
	<path fill="#999999" d="M321.676,52.588c10.003,0,20.006-0.035,30.009,0.04c1.386,0.01,3.683-0.921,3.663,1.754
		c-0.02,2.654-2.31,1.725-3.697,1.729c-20.153,0.057-40.306,0.054-60.459,0.002c-1.263-0.003-3.273,0.832-3.428-1.54
		c-0.181-2.769,2.062-1.942,3.462-1.951C301.376,52.559,311.526,52.588,321.676,52.588z"/>
	<path fill="#A3A3A3" d="M311.487,60.711c6.62,0,13.241-0.009,19.861,0.007c1.443,0.004,3.107-0.266,3.121,2.016
		c0.013,2.274-1.626,2.05-3.086,2.051c-13.535,0.008-27.07,0.01-40.605-0.002c-1.443-0.001-3.11,0.267-3.123-2.015
		c-0.013-2.271,1.628-2.05,3.089-2.052C297.658,60.705,304.573,60.711,311.487,60.711z"/>
	<path fill="#9A9A9A" d="M249.2,34.939c8.38,0,16.76-0.034,25.139,0.033c1.405,0.011,3.625-0.809,3.484,1.941
		c-0.121,2.364-2.106,1.605-3.387,1.608c-17.2,0.049-34.401,0.046-51.601,0.006c-1.308-0.003-3.234,0.629-3.293-1.736
		c-0.061-2.41,1.872-1.82,3.196-1.827C231.559,34.917,240.379,34.94,249.2,34.939z"/>
	<path fill="#9C9C9C" d="M249.206,43.53c8.377-0.001,16.753-0.034,25.129,0.032c1.414,0.011,3.637-0.765,3.484,1.964
		c-0.13,2.323-2.1,1.611-3.397,1.615c-17.194,0.044-34.388,0.042-51.582,0.004c-1.322-0.003-3.248,0.595-3.294-1.752
		c-0.046-2.355,1.867-1.834,3.207-1.841C231.571,43.51,240.389,43.531,249.206,43.53z"/>
	<path fill="#9B9B9B" d="M248.25,56.28c-8.378,0-16.757,0.037-25.134-0.036c-1.402-0.012-3.634,0.81-3.557-1.897
		c0.066-2.329,2.044-1.667,3.351-1.67c17.197-0.041,34.395-0.042,51.592,0.001c1.296,0.003,3.27-0.688,3.321,1.681
		c0.059,2.728-2.164,1.871-3.556,1.883C265.595,56.317,256.922,56.28,248.25,56.28z"/>
	<path fill="#9D9D9D" d="M316.311,47.444c-8.398,0-16.797,0.028-25.194-0.03c-1.305-0.009-3.254,0.68-3.362-1.676
		c-0.11-2.406,1.829-1.866,3.172-1.868c16.944-0.032,33.887-0.035,50.831,0.004c1.321,0.003,3.316-0.623,3.356,1.689
		c0.046,2.703-2.216,1.828-3.608,1.841C333.108,47.484,324.71,47.444,316.311,47.444z"/>
	<path fill="#9C9C9C" d="M171.535,47.171c-8.385,0-16.77,0.012-25.156-0.013c-1.407-0.004-3.262,0.371-3.34-1.816
		c-0.085-2.376,1.9-1.787,3.226-1.789c16.77-0.035,33.541-0.041,50.311,0.009c1.418,0.004,3.654-0.755,3.518,1.95
		c-0.115,2.291-2.091,1.622-3.405,1.63C188.306,47.198,179.92,47.171,171.535,47.171z"/>
	<path fill="#9B9B9B" d="M172.267,52.651c8.24,0,16.479-0.017,24.718,0.017c1.37,0.006,3.221-0.457,3.137,1.921
		c-0.072,2.037-1.707,1.671-2.947,1.673c-17.067,0.024-34.135,0.025-51.203,0.001c-1.226-0.002-2.941,0.426-2.95-1.636
		c-0.009-2.206,1.75-1.967,3.201-1.969C154.905,52.644,163.586,52.65,172.267,52.651z"/>
	<path fill="#9A9A9A" d="M171.656,38.554c-8.221,0-16.443,0.038-24.663-0.037c-1.402-0.013-3.643,0.805-3.567-1.888
		c0.065-2.307,2.049-1.659,3.357-1.663c16.736-0.041,33.472-0.037,50.208-0.008c1.353,0.002,3.254-0.492,3.123,1.899
		c-0.128,2.339-2.054,1.657-3.354,1.666C188.392,38.582,180.024,38.554,171.656,38.554z"/>
	<path fill="#9A9A9A" d="M91.991,38.554c-7.952,0-15.904,0.027-23.855-0.027c-1.308-0.009-3.228,0.639-3.251-1.769
		c-0.024-2.435,1.908-1.791,3.216-1.794c16.051-0.04,32.101-0.04,48.152,0.001c1.307,0.003,3.245-0.649,3.263,1.757
		c0.017,2.391-1.902,1.8-3.227,1.808C108.189,38.579,100.09,38.554,91.991,38.554z"/>
	<path fill="#9C9C9C" d="M92.171,47.172c-7.948,0-15.896,0.031-23.843-0.031c-1.3-0.01-3.275,0.719-3.419-1.598
		c-0.169-2.727,2.055-1.977,3.477-1.982c15.895-0.049,31.791-0.047,47.686-0.001c1.305,0.004,3.291-0.691,3.428,1.611
		c0.161,2.708-2.054,1.96-3.486,1.971C108.067,47.204,100.119,47.172,92.171,47.172z"/>
	<path fill="#9B9B9B" d="M91.79,56.279c-7.949,0-15.898,0.016-23.847-0.015c-1.387-0.005-3.212,0.403-3.057-1.991
		c0.133-2.056,1.774-1.602,2.995-1.604c16.193-0.027,32.385-0.025,48.578-0.006c1.395,0.002,3.214-0.395,3.066,1.983
		c-0.127,2.045-1.78,1.608-3.004,1.614C108.277,56.296,100.033,56.279,91.79,56.279z"/>
	<path fill="#194C51" d="M249.14,61.685c2.673,0.457,4.298,1.734,4.204,4.426c-0.092,2.642-1.652,4.149-4.229,4.078
		c-2.567-0.072-4.041-1.634-4.024-4.292C245.108,63.139,246.945,62.131,249.14,61.685z"/>
	<path fill="#194C51" d="M97.783,66.228c-0.172,2.372-1.54,3.965-4.082,3.96c-2.74-0.005-4.3-1.628-4.188-4.438
		c0.106-2.634,1.833-4.016,4.266-3.943C96.237,61.881,97.738,63.408,97.783,66.228z"/>
	<path fill="#194C51" d="M136.845,61.701c2.399,0.389,4.135,1.521,4.143,4.243c0.007,2.66-1.5,4.206-4.065,4.247
		c-2.572,0.041-4.118-1.477-4.185-4.125C132.668,63.358,134.334,62.131,136.845,61.701z"/>
	<path fill="#194C51" d="M148.456,70.285c-2.554-0.267-4.18-1.505-4.259-4.17c-0.08-2.682,1.507-4.257,4.014-4.308
		c2.476-0.051,4.18,1.384,4.242,4.087C152.516,68.577,150.935,69.863,148.456,70.285z"/>
	<path fill="#194C51" d="M214.187,70.284c-2.498-0.245-4.168-1.583-4.264-4.097c-0.106-2.782,1.661-4.412,4.349-4.387
		c2.514,0.024,4.116,1.728,4.081,4.229C218.319,68.499,216.741,69.969,214.187,70.284z"/>
	<path fill="#194C51" d="M241.914,66.226c-0.2,2.428-1.606,4.016-4.199,3.968c-2.554-0.047-4.095-1.575-4.087-4.234
		c0.008-2.704,1.722-4.165,4.184-4.157C240.311,61.81,241.855,63.365,241.914,66.226z"/>
	<path fill="#194C51" d="M58.493,61.714c2.555,0.286,4.26,1.669,4.264,4.171c0.004,2.669-1.637,4.435-4.428,4.309
		c-2.521-0.113-4.043-1.767-4-4.296C54.372,63.327,56.088,62.064,58.493,61.714z"/>
	<path fill="#194C51" d="M225.46,61.71c2.538,0.239,4.237,1.564,4.333,4.082c0.095,2.471-1.341,4.246-3.895,4.394
		c-2.755,0.161-4.444-1.447-4.509-4.195C221.329,63.391,223.079,62.145,225.46,61.71z"/>
	<path fill="#194C51" d="M69.984,61.714c2.624,0.333,4.28,1.765,4.226,4.265c-0.058,2.666-1.723,4.408-4.52,4.208
		c-2.507-0.18-3.999-1.841-3.893-4.386C65.904,63.222,67.652,62.023,69.984,61.714z"/>
	<path fill="#194C51" d="M164.758,66.049c-0.291,2.436-1.606,4.086-4.139,4.136c-2.788,0.055-4.357-1.712-4.295-4.392
		c0.058-2.52,1.777-4.07,4.269-3.987C163.041,61.887,164.523,63.435,164.758,66.049z"/>
	<path fill="#194C51" d="M176.24,66.259c-0.446,2.361-1.767,4.018-4.345,3.939c-2.795-0.085-4.32-1.915-4.129-4.588
		c0.178-2.486,1.954-4.015,4.467-3.812C174.685,61.994,176.107,63.606,176.24,66.259z"/>
	<path fill="#194C51" d="M82.356,70.329c-2.75-0.448-4.354-1.716-4.321-4.394c0.034-2.707,1.757-4.14,4.216-4.125
		c2.511,0.015,4.093,1.586,4.053,4.263C86.263,68.762,84.532,69.89,82.356,70.329z"/>
	<path fill="#4B7E7F" d="M138.218,36.739c-0.129,1.762-1.044,2.721-2.794,2.717c-1.541-0.004-2.498-0.85-2.596-2.389
		c-0.11-1.714,0.767-2.87,2.503-2.957C137.042,34.023,137.989,35.066,138.218,36.739z"/>
	<path fill="#4B7E7F" d="M211.448,34.023c1.935,0.249,2.926,1.149,2.884,2.906c-0.037,1.548-0.92,2.459-2.46,2.526
		c-1.718,0.075-2.823-0.781-2.894-2.554C208.907,35.108,210.115,34.378,211.448,34.023z"/>
	<path fill="#4B7E7F" d="M57.296,42.478c1.751,0.25,2.612,1.262,2.458,3.018c-0.134,1.533-1.067,2.494-2.579,2.458
		c-1.69-0.041-2.802-1.15-2.792-2.813C54.393,43.423,55.598,42.574,57.296,42.478z"/>
	<path fill="#4B7E7F" d="M214.353,54.779c-0.2,1.741-1.277,2.537-2.976,2.396c-1.509-0.125-2.415-1.061-2.39-2.594
		c0.029-1.743,1.138-2.738,2.782-2.722C213.477,51.877,214.344,53.007,214.353,54.779z"/>
	<path fill="#4B7E7F" d="M57.269,57.231c-1.704-0.056-2.879-0.865-2.866-2.61c0.013-1.671,1.107-2.737,2.785-2.773
		c1.511-0.032,2.429,0.934,2.553,2.448C59.884,56.036,59.052,57.058,57.269,57.231z"/>
	<path fill="#4B7E7F" d="M138.228,54.318c-0.186,2.034-1.183,2.918-2.891,2.866c-1.514-0.046-2.45-0.903-2.509-2.453
		c-0.065-1.724,0.854-2.837,2.561-2.871C137.083,51.826,137.924,52.997,138.228,54.318z"/>
	<path fill="#4B7E7F" d="M57.041,34.024c1.961,0.298,2.823,1.359,2.711,3.043c-0.1,1.504-1.024,2.403-2.584,2.396
		c-1.731-0.008-2.821-0.945-2.763-2.672C54.461,35.11,55.663,34.297,57.041,34.024z"/>
	<path fill="#4B7E7F" d="M214.351,45.438c-0.222,1.713-1.305,2.681-2.946,2.47c-1.581-0.203-2.621-1.327-2.404-3.074
		c0.19-1.528,1.26-2.284,2.742-2.238C213.48,42.65,214.364,43.65,214.351,45.438z"/>
	<path fill="#4B7E7F" d="M135.497,48c-1.639-0.288-2.716-1.087-2.678-2.867c0.033-1.562,0.954-2.457,2.442-2.53
		c1.66-0.082,2.858,0.721,2.908,2.509C138.218,46.855,137.07,47.668,135.497,48z"/>
	<g>
		<path fill="#4B7E7F" d="M307.922,110.566c-1.688-1.7-2.9-2.762-3.912-3.973c-1.522-1.822-2.878-2.927-4.787-0.334
			c-1.01,1.371-1.575-0.06-2.096-0.654c-2.931-3.345-2.916-3.356-5.679,0.125c-1.075,1.352-2.147,2.706-3.722,4.69
			c0-4.533,0.034-8.253-0.019-11.971c-0.017-1.262,0.611-1.527,1.76-1.52c5.559,0.03,11.118,0.007,16.674,0.021
			c0.719,0.002,1.743-0.209,1.758,0.875C307.956,101.867,307.922,105.911,307.922,110.566z"/>
		<path fill="#4B7E7F" d="M294.111,104.727c1.067,0.458,1.522,1.306,2.012,2.05c1.303,1.974,2.592,2.886,4.306,0.382
			c0.782-1.142,1.496-0.693,2.241,0.125c1.248,1.368,2.559,2.681,4.138,4.326c-6.153,0-11.887,0-18.064,0
			C290.642,109.175,292.38,106.945,294.111,104.727z"/>
		<path fill="#FEE5ED" d="M301.8,99.731c0.524,0.069,0.835,0.382,0.856,0.864c0.024,0.519-0.353,0.822-0.856,0.818
			c-0.493-0.005-0.889-0.293-0.866-0.815C300.959,100.111,301.291,99.814,301.8,99.731z"/>
	</g>
	<g>
		<path fill="#4B7E7F" d="M331.798,110.566c-1.688-1.7-2.9-2.762-3.912-3.973c-1.522-1.822-2.878-2.927-4.787-0.334
			c-1.01,1.371-1.575-0.06-2.096-0.654c-2.931-3.345-2.916-3.356-5.679,0.125c-1.075,1.352-2.147,2.706-3.722,4.69
			c0-4.533,0.034-8.253-0.019-11.971c-0.017-1.262,0.611-1.527,1.76-1.52c5.559,0.03,11.118,0.007,16.674,0.021
			c0.719,0.002,1.743-0.209,1.758,0.875C331.831,101.867,331.798,105.911,331.798,110.566z"/>
		<path fill="#4B7E7F" d="M317.987,104.727c1.067,0.458,1.522,1.306,2.012,2.05c1.303,1.974,2.592,2.886,4.306,0.382
			c0.782-1.142,1.496-0.693,2.241,0.125c1.248,1.368,2.559,2.681,4.138,4.326c-6.153,0-11.887,0-18.064,0
			C314.517,109.175,316.256,106.945,317.987,104.727z"/>
		<path fill="#FEE5ED" d="M325.676,99.731c0.524,0.069,0.835,0.382,0.856,0.864c0.024,0.519-0.353,0.822-0.856,0.818
			c-0.493-0.005-0.889-0.293-0.866-0.815C324.834,100.111,325.166,99.814,325.676,99.731z"/>
	</g>
	<g>
		<path fill="#4B7E7F" d="M355.673,110.566c-1.688-1.7-2.9-2.762-3.912-3.973c-1.522-1.822-2.878-2.927-4.787-0.334
			c-1.01,1.371-1.575-0.06-2.096-0.654c-2.931-3.345-2.916-3.356-5.679,0.125c-1.075,1.352-2.147,2.706-3.722,4.69
			c0-4.533,0.034-8.253-0.019-11.971c-0.017-1.262,0.611-1.527,1.76-1.52c5.559,0.03,11.118,0.007,16.674,0.021
			c0.719,0.002,1.743-0.209,1.758,0.875C355.706,101.867,355.673,105.911,355.673,110.566z"/>
		<path fill="#4B7E7F" d="M341.862,104.727c1.067,0.458,1.522,1.306,2.012,2.05c1.303,1.974,2.592,2.886,4.306,0.382
			c0.782-1.142,1.496-0.693,2.241,0.125c1.248,1.368,2.559,2.681,4.138,4.326c-6.153,0-11.887,0-18.064,0
			C338.392,109.175,340.131,106.945,341.862,104.727z"/>
		<path fill="#FEE5ED" d="M349.551,99.731c0.524,0.069,0.835,0.382,0.856,0.864c0.024,0.519-0.353,0.822-0.856,0.818
			c-0.493-0.005-0.889-0.293-0.866-0.815C348.71,100.111,349.042,99.814,349.551,99.731z"/>
	</g>
	<g>
		<path fill="#4B7E7F" d="M307.879,134.833c-1.688-1.7-2.9-2.762-3.912-3.973c-1.522-1.822-2.878-2.927-4.787-0.334
			c-1.01,1.371-1.575-0.06-2.096-0.654c-2.931-3.345-2.916-3.356-5.679,0.125c-1.075,1.352-2.147,2.706-3.722,4.69
			c0-4.533,0.034-8.253-0.019-11.971c-0.017-1.262,0.611-1.527,1.76-1.52c5.559,0.03,11.118,0.007,16.674,0.021
			c0.719,0.002,1.743-0.21,1.758,0.875C307.913,126.134,307.879,130.178,307.879,134.833z"/>
		<path fill="#4B7E7F" d="M294.068,128.994c1.067,0.458,1.522,1.306,2.012,2.05c1.303,1.974,2.592,2.886,4.306,0.382
			c0.782-1.142,1.496-0.693,2.241,0.125c1.248,1.368,2.559,2.681,4.138,4.326c-6.153,0-11.887,0-18.064,0
			C290.599,133.442,292.337,131.212,294.068,128.994z"/>
		<path fill="#FEE5ED" d="M301.758,123.998c0.524,0.069,0.835,0.382,0.856,0.864c0.024,0.519-0.353,0.822-0.856,0.818
			c-0.493-0.005-0.889-0.293-0.866-0.815C300.916,124.378,301.248,124.082,301.758,123.998z"/>
	</g>
	<g>
		<path fill="#4B7E7F" d="M331.755,134.833c-1.688-1.7-2.9-2.762-3.912-3.973c-1.522-1.822-2.878-2.927-4.787-0.334
			c-1.01,1.371-1.575-0.06-2.096-0.654c-2.931-3.345-2.916-3.356-5.679,0.125c-1.075,1.352-2.147,2.706-3.722,4.69
			c0-4.533,0.034-8.253-0.019-11.971c-0.017-1.262,0.611-1.527,1.76-1.52c5.559,0.03,11.118,0.007,16.674,0.021
			c0.719,0.002,1.743-0.21,1.758,0.875C331.788,126.134,331.755,130.178,331.755,134.833z"/>
		<path fill="#4B7E7F" d="M317.944,128.994c1.067,0.458,1.522,1.306,2.012,2.05c1.303,1.974,2.592,2.886,4.306,0.382
			c0.782-1.142,1.496-0.693,2.241,0.125c1.248,1.368,2.559,2.681,4.138,4.326c-6.153,0-11.887,0-18.064,0
			C314.474,133.442,316.213,131.212,317.944,128.994z"/>
		<path fill="#FEE5ED" d="M325.633,123.998c0.524,0.069,0.835,0.382,0.856,0.864c0.024,0.519-0.353,0.822-0.856,0.818
			c-0.493-0.005-0.889-0.293-0.866-0.815C324.791,124.378,325.123,124.082,325.633,123.998z"/>
	</g>
	<g>
		<path fill="#4B7E7F" d="M355.63,134.833c-1.688-1.7-2.9-2.762-3.912-3.973c-1.522-1.822-2.878-2.927-4.787-0.334
			c-1.01,1.371-1.575-0.06-2.096-0.654c-2.931-3.345-2.916-3.356-5.679,0.125c-1.075,1.352-2.147,2.706-3.722,4.69
			c0-4.533,0.034-8.253-0.019-11.971c-0.017-1.262,0.611-1.527,1.76-1.52c5.559,0.03,11.118,0.007,16.674,0.021
			c0.719,0.002,1.743-0.21,1.758,0.875C355.663,126.134,355.63,130.178,355.63,134.833z"/>
		<path fill="#4B7E7F" d="M341.819,128.994c1.067,0.458,1.522,1.306,2.012,2.05c1.303,1.974,2.592,2.886,4.306,0.382
			c0.782-1.142,1.496-0.693,2.241,0.125c1.248,1.368,2.559,2.681,4.138,4.326c-6.153,0-11.887,0-18.064,0
			C338.35,133.442,340.088,131.212,341.819,128.994z"/>
		<path fill="#FEE5ED" d="M349.508,123.998c0.524,0.069,0.835,0.382,0.856,0.864c0.024,0.519-0.353,0.822-0.856,0.818
			c-0.493-0.005-0.889-0.293-0.866-0.815C348.667,124.378,348.999,124.082,349.508,123.998z"/>
	</g>
</g>
<rect x="40.035" y="245.333" fill="#FEFEFE" width="337.93" height="15.416"/>
</svg>
