<?xml version="1.0" encoding="utf-8"?>
<!-- Generator: Adobe Illustrator 17.0.0, SVG Export Plug-In . SVG Version: 6.00 Build 0)  -->
<!DOCTYPE svg PUBLIC "-//W3C//DTD SVG 1.1//EN" "http://www.w3.org/Graphics/SVG/1.1/DTD/svg11.dtd">
<svg version="1.1" id="Layer_1" xmlns="http://www.w3.org/2000/svg" xmlns:xlink="http://www.w3.org/1999/xlink" x="0px" y="0px"
	 width="418px" height="130.33px" viewBox="-158.84 -82.585 418 245.33" enable-background="new -158.84 -82.585 418 245.33"
	 xml:space="preserve">
<path fill="#FEFEFE" d="M50.154,162.684c-68.325,0-136.65-0.024-204.975,0.07c-3.42,0.006-4.099-0.489-4.095-3.007
	c0.117-79.772,0.117-159.544,0-239.316c-0.004-2.511,0.667-3.01,4.095-3.007c136.65,0.083,273.3,0.083,409.949,0
	c3.42-0.003,4.099,0.489,4.095,3.004c-0.117,79.772-0.117,159.544,0,239.316c0.004,2.511-0.667,3.013-4.095,3.01
	C186.804,162.659,118.479,162.684,50.154,162.684z"/>
<path fill="#D8D9D9" d="M51.91,87.917c-53.643,0-107.285-0.048-160.928,0.093c-4.225,0.011-5.66-0.992-5.481-5.37
	c0.346-8.454,0.1-16.934,0.1-25.407c0-5.868,0.004-5.872,5.675-5.872c36.704,0,73.405,0,110.109,0
	c70.729,0,141.463,0.041,212.192-0.1c4.422-0.007,5.953,0.94,5.719,5.604c-0.412,8.302-0.115,16.637-0.115,24.958
	c0,6.087-0.004,6.091-5.898,6.091C159.492,87.917,105.701,87.917,51.91,87.917z"/>
<path fill="#194C51" d="M88.347-61.041c10.394,0,20.788,0.093,31.178-0.063c2.694-0.041,3.709,0.58,3.489,3.411
	c-0.178,2.337,0.171,4.077-3.352,4.047c-21.082-0.186-42.167-0.193-63.249,0.004c-3.679,0.033-3.01-1.925-3.255-4.129
	c-0.331-2.988,1.026-3.348,3.56-3.319C67.261-60.967,77.804-61.041,88.347-61.041z"/>
<path fill="#194C51" d="M7.81-53.739c-10.082,0-20.168-0.134-30.242,0.078c-3.196,0.067-3.519-1.271-3.567-3.913
	c-0.048-2.672,0.621-3.549,3.445-3.53c20.312,0.123,40.621,0.119,60.934,0.004c2.709-0.015,3.679,0.621,3.475,3.423
	c-0.171,2.345,0.164,4.129-3.352,4.039C28.275-53.91,18.041-53.739,7.81-53.739z"/>
<path fill="#194C51" d="M163.424-53.739c-9.948,0-19.896-0.123-29.841,0.074c-3.044,0.059-3.605-1-3.657-3.779
	c-0.056-2.958,0.858-3.675,3.735-3.657c20.19,0.123,40.383,0.134,60.573-0.011c3.04-0.022,3.597,0.97,3.631,3.75
	c0.033,2.902-0.78,3.746-3.709,3.694C183.915-53.846,173.666-53.739,163.424-53.739z"/>
<path fill="#4B7E7F" d="M53.073-27.176c0-5.258,0.093-10.008-0.041-14.746c-0.067-2.352,0.806-3.066,3.099-3.029
	c7.124,0.115,14.248,0.048,21.372,0.037c1.535-0.004,3.077-0.089,3.077,2.126c-0.007,5.414-0.004,10.829-0.004,16.611
	c-2.568-1.241-3.686-3.051-5.087-4.519c-2.114-2.219-3.753-5.381-6.998-0.959c-1.613,2.2-2.382-0.502-3.114-1.408
	c-3.556-4.415-2.954-5.232-6.919-0.037C56.949-31.122,55.849-28.651,53.073-27.176z"/>
<path fill="#4B7E7F" d="M79.669,36.976c-1.49-1.602-3.055-3.136-4.448-4.816c-2.066-2.494-3.928-4.549-6.704-0.628
	c-1.408,1.984-2.129-0.097-2.869-0.985c-3.913-4.701-3.898-4.705-7.663,0.256c-1.316,1.732-2.657,3.445-4.887,6.329
	c0-6.548,0.007-11.758-0.004-16.968c-0.004-1.687,1.096-1.813,2.378-1.813c7.547,0.011,15.099,0.048,22.646-0.03
	c1.999-0.022,2.531,0.847,2.508,2.664c-0.063,5.151-0.022,10.301-0.022,15.452C80.294,36.619,79.982,36.798,79.669,36.976z"/>
<path fill="#4B7E7F" d="M80.606,6.273c-2.936-3.092-5.084-5.277-7.142-7.547c-1.211-1.334-2.363-1.825-3.556-0.115
	c-2.237,3.211-3.79,1.576-5.106-0.747c-2.051-3.62-3.813-3.289-5.898,0.037c-1.457,2.326-3.319,4.396-5.812,7.637
	c0-6.332,0.037-11.427-0.019-16.518c-0.022-1.88,1.033-2.17,2.557-2.167c7.414,0.026,14.824,0.063,22.237-0.026
	c2.207-0.026,2.798,0.933,2.769,2.943C80.55-5.202,80.606-0.174,80.606,6.273z"/>
<path fill="#7F7F81" d="M9.1,24.49c-10.086,0-20.175,0.037-30.261-0.045c-1.397-0.011-3.679,0.97-3.835-1.639
	c-0.16-2.716,2.163-1.903,3.579-1.906c20.472-0.052,40.941-0.048,61.413-0.004c1.293,0.004,3.315-0.743,3.389,1.646
	c0.085,2.754-2.167,1.899-3.579,1.906C29.572,24.523,19.338,24.49,9.1,24.49z"/>
<path fill="#7F7F81" d="M9.122,40.499c-10.1,0-20.197,0.037-30.298-0.041c-1.416-0.011-3.69,0.922-3.835-1.669
	c-0.152-2.668,2.141-1.94,3.586-1.944c20.495-0.045,40.993-0.041,61.487-0.004c1.33,0.004,3.341-0.635,3.408,1.683
	c0.078,2.683-2.159,1.929-3.605,1.936C29.62,40.525,19.371,40.499,9.122,40.499z"/>
<path fill="#7F7F81" d="M9.133,8.511c-10.245,0-20.491,0.026-30.733-0.033c-1.29-0.007-3.304,0.788-3.419-1.613
	c-0.134-2.776,2.122-1.951,3.538-1.955c20.491-0.048,40.978-0.048,61.469,0c1.286,0.004,3.289-0.777,3.404,1.628
	c0.134,2.809-2.126,1.925-3.523,1.936C29.624,8.54,19.379,8.511,9.133,8.511z"/>
<path fill="#7F7F81" d="M164.862,36.125c-10.108,0-20.216,0.033-30.32-0.037c-1.397-0.011-3.668,0.896-3.567-1.903
	c0.085-2.419,2.111-1.624,3.397-1.628c20.513-0.048,41.023-0.052,61.536,0.004c1.386,0.004,3.735-0.899,3.556,1.895
	c-0.171,2.653-2.449,1.613-3.831,1.624C185.372,36.166,175.115,36.125,164.862,36.125z"/>
<path fill="#7F7F81" d="M165.092,21.001c-10.242,0-20.483,0.03-30.725-0.037c-1.275-0.007-3.293,0.821-3.397-1.609
	c-0.119-2.817,2.159-1.906,3.545-1.91c20.483-0.056,40.967-0.052,61.454-0.004c1.29,0.004,3.311-0.769,3.411,1.624
	c0.115,2.798-2.17,1.888-3.56,1.899C185.576,21.034,175.334,21.001,165.092,21.001z"/>
<path fill="#7F7F81" d="M164.873-24.34c-10.089,0-20.179,0.033-30.268-0.041c-1.386-0.011-3.712,0.907-3.616-1.839
	c0.093-2.668,2.382-1.695,3.764-1.698c20.327-0.063,40.655-0.059,60.982-0.007c1.405,0.004,3.724-0.87,3.627,1.851
	c-0.093,2.646-2.386,1.683-3.779,1.695C185.349-24.303,175.111-24.34,164.873-24.34z"/>
<path fill="#7F7F81" d="M9.196-23.482c-10.238,0-20.472,0.026-30.71-0.033c-1.431-0.007-3.694,0.758-3.493-1.996
	c0.171-2.334,2.193-1.546,3.489-1.55c20.472-0.048,40.948-0.048,61.42-0.004c1.438,0.004,3.675-0.754,3.482,1.999
	c-0.167,2.363-2.193,1.538-3.478,1.546C29.669-23.452,19.431-23.482,9.196-23.482z"/>
<path fill="#7F7F81" d="M165.237,5.898c-10.245,0-20.491,0.033-30.733-0.037c-1.397-0.011-3.657,0.873-3.534-1.932
	c0.104-2.43,2.118-1.613,3.393-1.617c20.491-0.048,40.978-0.052,61.469,0c1.394,0.004,3.672-0.881,3.549,1.918
	c-0.104,2.389-2.111,1.628-3.411,1.635C185.725,5.924,175.479,5.898,165.237,5.898z"/>
<path fill="#7F7F81" d="M9.564-7.502c-9.952,0-19.904,0.071-29.852-0.071c-1.605-0.022-4.493,1.416-4.634-1.62
	c-0.152-3.27,2.861-1.817,4.411-1.825c19.755-0.108,39.506-0.108,59.261,0c1.594,0.007,4.582-1.416,4.608,1.613
	c0.026,3.382-3.14,1.802-4.831,1.828C28.873-7.421,19.219-7.502,9.564-7.502z"/>
<path fill="#7F7F81" d="M9.605-43.096c10.093,0,20.182-0.026,30.275,0.03c1.446,0.007,3.66-0.743,3.508,1.999
	c-0.13,2.367-2.133,1.624-3.434,1.624c-20.48,0.045-40.959,0.045-61.439,0.004c-1.457-0.004-3.679,0.687-3.527-2.014
	c0.134-2.33,2.137-1.605,3.452-1.613C-11.172-43.122-0.781-43.096,9.605-43.096z"/>
<path fill="#7F7F81" d="M164.78-39.413c-10.093,0-20.186,0.03-30.275-0.033c-1.427-0.007-3.664,0.773-3.53-1.977
	c0.115-2.356,2.107-1.643,3.415-1.643c20.483-0.041,40.963-0.045,61.447,0c1.434,0.004,3.675-0.766,3.545,1.962
	c-0.111,2.319-2.103,1.657-3.434,1.661C185.557-39.391,175.171-39.413,164.78-39.413z"/>
<path fill="#7F7F81" d="M165.512-12.835c10.108,0,20.212-0.037,30.32,0.041c1.386,0.011,3.724-0.933,3.627,1.832
	c-0.093,2.69-2.397,1.672-3.772,1.68c-20.361,0.067-40.725,0.063-61.086,0.004c-1.375-0.004-3.712,0.955-3.62-1.825
	c0.093-2.702,2.389-1.672,3.764-1.683C145.003-12.876,155.26-12.835,165.512-12.835z"/>
<path fill="#7F7F81" d="M-69.794-43.096c9.956,0,19.915-0.045,29.87,0.048c1.512,0.015,4.095-1.059,4.051,1.892
	c-0.037,2.56-2.382,1.702-3.805,1.706c-20.063,0.056-40.123,0.056-60.187,0c-1.42-0.004-3.764,0.881-3.824-1.683
	c-0.071-2.969,2.516-1.899,4.025-1.914C-89.709-43.14-79.753-43.096-69.794-43.096z"/>
<path fill="#7F7F81" d="M-69.824-30.643c-9.956,0-19.915,0.052-29.87-0.056c-1.475-0.015-4.106,1.145-3.991-1.895
	c0.1-2.579,2.453-1.609,3.854-1.613c20.063-0.063,40.127-0.063,60.19-0.004c1.401,0.004,3.705-0.933,3.79,1.698
	c0.089,2.72-2.256,1.813-3.653,1.825C-49.612-30.606-59.72-30.643-69.824-30.643z"/>
<path fill="#7F7F81" d="M101.892-0.613C96.548-0.609,91.208-0.598,85.864-0.62c-1.446-0.007-3.136,0.294-3.174-2.01
	c-0.037-2.289,1.591-2.1,3.081-2.1c10.981-0.004,21.966-0.004,32.947,0.004c1.542,0,3.162,0.052,3.051,2.222
	c-0.097,1.884-1.613,1.873-2.958,1.877C113.17-0.601,107.529-0.616,101.892-0.613z"/>
<path fill="#7F7F81" d="M-80.53-21.832c-6.659,0-13.322,0.03-19.982-0.026c-1.327-0.011-3.293,0.606-3.229-1.821
	c0.059-2.389,2.022-1.713,3.33-1.721c13.319-0.048,26.641-0.045,39.96-0.004c1.323,0.004,3.289-0.606,3.229,1.821
	c-0.059,2.386-2.018,1.709-3.33,1.721C-67.208-21.795-73.871-21.828-80.53-21.832z"/>
<path fill="#4B7E7F" d="M54.232,39.12c2.69-3.564,4.991-6.611,7.28-9.64c1.594,0.39,2.081,1.728,2.795,2.757
	c1.706,2.471,3.356,4.407,5.808,0.736c1.044-1.565,2.022-1.178,3.11,0.074c1.635,1.877,3.397,3.642,5.682,6.072
	C70.409,39.12,62.735,39.12,54.232,39.12z"/>
<path fill="#7F7F81" d="M102.29,18.332c5.481,0,10.963-0.026,16.444,0.022c1.215,0.011,2.895-0.505,3.01,1.598
	c0.134,2.412-1.709,1.981-3.099,1.984c-10.963,0.026-21.925,0.03-32.888-0.007c-1.215-0.004-2.865,0.491-2.988-1.62
	c-0.141-2.453,1.709-1.951,3.081-1.962C91.327,18.306,96.808,18.332,102.29,18.332z"/>
<path fill="#7F7F81" d="M102.029,30.781c-5.478,0-10.951,0.019-16.429-0.015c-1.263-0.007-2.835,0.323-2.839-1.784
	s1.568-1.787,2.832-1.791c11.1-0.022,22.2-0.022,33.3-0.004c1.278,0.004,2.854-0.279,2.861,1.787
	c0.007,2.077-1.572,1.784-2.85,1.791C113.278,30.796,107.652,30.781,102.029,30.781z"/>
<path fill="#194C51" d="M-74.439-7.588c-5.481,0-10.963,0.041-16.444-0.033c-1.286-0.019-3.177,0.769-3.322-1.691
	c-0.145-2.486,1.698-1.944,3.055-1.947c11.111-0.03,22.223-0.03,33.338,0c1.219,0.004,2.832-0.476,2.906,1.687
	c0.085,2.456-1.698,1.958-3.084,1.966C-63.477-7.566-68.958-7.588-74.439-7.588z"/>
<path fill="#7F7F81" d="M101.821-41.304c-5.333,0-10.662,0.022-15.994-0.015c-1.401-0.011-3.218,0.401-3.058-2.01
	c0.137-2.092,1.795-1.598,3.01-1.602c10.959-0.033,21.918-0.03,32.877-0.007c1.405,0.004,3.244-0.394,3.084,1.996
	c-0.134,2.036-1.795,1.609-3.036,1.62C113.078-41.278,107.451-41.304,101.821-41.304z"/>
<path fill="#999999" d="M102.059-32.508c-5.478,0-10.955,0.022-16.433-0.015c-1.234-0.007-2.828,0.409-2.873-1.724
	c-0.045-2.133,1.512-1.821,2.783-1.821c11.104-0.019,22.208-0.022,33.312,0.004c1.256,0.004,2.858-0.36,2.902,1.732
	c0.045,2.092-1.527,1.813-2.809,1.821C113.312-32.493,107.685-32.508,102.059-32.508z"/>
<path fill="#194C51" d="M-74.536,29.161c-5.634,0-11.267,0.019-16.901-0.015c-1.249-0.007-2.769,0.401-2.795-1.776
	c-0.026-2.129,1.394-1.877,2.713-1.877c11.267-0.004,22.535-0.011,33.802,0.007c1.26,0.004,2.78-0.379,2.813,1.776
	c0.033,2.122-1.427,1.873-2.731,1.877C-63.268,29.169-68.902,29.161-74.536,29.161z"/>
<path fill="#7F7F81" d="M102.2-9.42c-5.478,0-10.959,0.022-16.437-0.019c-1.241-0.007-2.869,0.409-2.995-1.646
	c-0.149-2.412,1.687-1.999,3.081-2.003c10.959-0.026,21.918-0.026,32.877,0c1.26,0.004,2.902-0.342,3.021,1.665
	c0.141,2.371-1.702,1.977-3.107,1.988C113.159-9.401,107.678-9.42,102.2-9.42z"/>
<path fill="#194C51" d="M-74.699,6.63c5.485,0,10.97-0.048,16.455,0.037c1.267,0.019,3.192-0.821,3.322,1.676
	c0.13,2.512-1.735,1.921-3.081,1.925c-11.119,0.033-22.237,0.03-33.352,0c-1.215-0.004-2.791,0.498-2.865-1.691
	c-0.082-2.512,1.724-1.918,3.066-1.929C-85.669,6.604-80.184,6.63-74.699,6.63z"/>
<path fill="#4B7E7F" d="M61.821-34.214c1.39,1.791,2.378,2.891,3.166,4.121c1.472,2.297,2.98,2.735,4.667,0.286
	c1.442-2.096,2.638-1.542,4.028,0.123c1.498,1.795,3.192,3.423,5.288,5.641c-8.384,0-16.083,0-24.3,0
	C56.436-27.752,59.405-30.531,61.821-34.214z"/>
<path fill="#4B7E7F" d="M78.815,7.537c-8.577,0-16.18,0-24.56,0c2.672-3.545,5.006-6.641,7.499-9.948
	c0.933,1.074,1.695,1.78,2.252,2.624c1.776,2.694,3.489,5.169,6.284,0.922c0.929-1.412,1.858-0.936,2.795,0.134
	C74.738,3.148,76.462,4.969,78.815,7.537z"/>
<path fill="#7F7F81" d="M95.69,39.581c-3.564-0.004-7.128-0.015-10.691,0c-1.364,0.004-2.334-0.368-2.252-1.996
	c0.071-1.431,1.037-1.62,2.155-1.62c7.425-0.004,14.85-0.004,22.275-0.004c1.334,0,2.371,0.308,2.248,1.977
	c-0.126,1.732-1.416,1.635-2.598,1.643C103.115,39.596,99.402,39.585,95.69,39.581z"/>
<path fill="#7F7F81" d="M95.656-23.69c-3.564,0-7.131-0.015-10.695,0.007c-1.401,0.007-2.3-0.42-2.207-2.025
	c0.082-1.453,1.096-1.576,2.189-1.579c7.429-0.007,14.853-0.007,22.282,0c1.081,0,2.114,0.093,2.207,1.557
	c0.097,1.591-0.773,2.055-2.185,2.048C103.382-23.705,99.517-23.69,95.656-23.69z"/>
<path fill="#7F7F81" d="M96.035,4.107c3.686,0.004,7.377,0.004,11.063,0.004c1.267,0,2.375,0.134,2.334,1.854
	c-0.041,1.75-1.249,1.732-2.449,1.732c-7.228,0.011-14.46,0.015-21.687,0c-1.156-0.004-2.456,0.156-2.546-1.62
	c-0.104-2.036,1.297-1.966,2.661-1.97C88.952,4.103,92.494,4.107,96.035,4.107z"/>
<path fill="#4B7E7F" d="M-100.515,31.261c-2.337-0.297-4.047-1.46-4.121-4.14c-0.071-2.62,1.312-4.222,3.928-4.359
	c2.861-0.152,4.471,1.498,4.5,4.259C-96.179,29.607-97.799,31.004-100.515,31.261z"/>
<path fill="#4B7E7F" d="M-100.478-5.626c-2.631-0.282-4.151-1.624-4.166-4.266c-0.011-2.668,1.605-4.184,4.099-4.248
	c2.776-0.071,4.463,1.639,4.34,4.441C-96.32-7.164-97.936-5.767-100.478-5.626z"/>
<path fill="#4B7E7F" d="M-100.612,3.795c2.847,0.089,4.366,1.553,4.404,4.103c0.033,2.508-1.356,4.203-4.017,4.277
	c-2.832,0.082-4.433-1.438-4.404-4.285C-104.603,5.237-102.968,3.988-100.612,3.795z"/>
<path fill="#194C51" d="M-62.689,62.001c12.605,0,25.21-0.026,37.816,0.037c1.375,0.007,3.508-0.936,3.567,1.88
	c0.059,2.951-2.103,2.315-3.753,2.315c-25.21,0.026-50.421,0.022-75.631,0.004c-1.524,0-3.486,0.554-3.582-2.059
	c-0.119-3.125,2.252-2.133,3.772-2.141C-87.899,61.971-75.294,62.001-62.689,62.001z"/>
<path fill="#194C51" d="M54.203,78.891c-11.134,0-22.267,0.033-33.397-0.037c-1.524-0.011-3.813,0.996-3.917-2.07
	c-0.104-3.092,2.163-2.226,3.724-2.226c22.119-0.041,44.233-0.048,66.352,0.019c1.449,0.004,3.813-1.171,3.865,2.007
	c0.056,3.463-2.516,2.248-4.118,2.263C75.872,78.932,65.035,78.891,54.203,78.891z"/>
<path fill="#4B7E7F" d="M201.366,69.273c-3.296-0.312-5.31-2.007-5.277-5.333c0.033-3.136,2.14-4.976,5.08-5.028
	c3.252-0.052,5.314,2.122,5.27,5.314C206.397,67.189,204.461,69.002,201.366,69.273z"/>
<path fill="#4B7E7F" d="M187.048,69.255c-3.266-0.305-5.102-2.211-5.061-5.169c0.045-3.188,2.152-5.322,5.403-5.169
	c2.928,0.137,5.002,2.022,4.939,5.169C192.261,67.404,190.21,69.054,187.048,69.255z"/>
<path fill="#4B7E7F" d="M177.341,64.323c-0.308,2.813-1.877,4.768-5.05,4.846c-3.185,0.078-4.98-1.791-5.258-4.876
	c-0.264-2.902,2.434-5.697,5.258-5.429C175.319,59.15,177.155,60.86,177.341,64.323z"/>
<path fill="#4B7E7F" d="M163.164,64.461c-0.268,2.828-1.899,4.746-5.076,4.705c-3.397-0.045-5.143-2.062-5.032-5.437
	c0.108-3.285,2.23-4.864,5.247-4.757C161.369,59.08,163.149,60.934,163.164,64.461z"/>
<path fill="#FEDAE5" d="M73.136,23.895c-0.275,0.587-0.743,0.866-1.364,0.687c-0.922-0.264-0.94-0.992-0.621-1.68
	c0.26-0.557,0.847-0.784,1.423-0.435C73.073,22.773,73.397,23.249,73.136,23.895z"/>
<path fill="#FEEAF0" d="M73.196-7.904c-0.16,0.602-0.524,1.093-1.156,1.037c-0.877-0.078-1.148-0.728-0.977-1.527
	c0.141-0.654,0.595-0.933,1.26-0.777C72.992-9.015,73.14-8.487,73.196-7.904z"/>
<g>
	<path fill="#C52275" d="M177.534,105.041c0.546-1.059,1.397-1.665,2.601-1.739c3.408-0.245,6.823-0.071,10.234-0.1
		c2.297-0.019,4.593-0.089,6.886,0.13c0.238,2.022,0.137,4.051,0.056,6.076c-0.502,0.435-1.07,0.349-1.643,0.201
		c-4.983-1.293-10.056-2.207-15.047-3.463C179.567,105.877,178.433,105.777,177.534,105.041z"/>
	<path fill="#B32074" d="M197.315,120.404c0,1.353,0,2.702,0,4.054c-1.587,0.383-3.044-0.316-4.523-0.624
		c-4.567-0.959-9.079-2.193-13.646-3.17c-0.773-0.167-1.643-0.227-2.215-0.922c-0.048-1.189-0.037-2.378-0.007-3.568
		c0.416-0.572,0.94-0.312,1.438-0.182c4.188,1.107,8.443,1.929,12.657,2.932C193.116,119.423,195.238,119.824,197.315,120.404z"/>
	<path fill="#C22275" d="M177.092,116.067c0,1.252,0,2.508,0.004,3.761c0.595,0.881,0.334,1.869,0.368,2.824
		c0.015,0.687,0.03,1.379-0.004,2.066c0.022,0.602,0.022,1.204,0,1.802c0.037,0.959,0.022,1.918-0.004,2.876
		c0.007,0.546,0.022,1.093-0.453,1.49c-0.253-0.45-0.149-0.944-0.149-1.416c-0.004-7.183-0.004-14.367,0.007-21.55
		c0-1.007-0.045-2.036,0.676-2.88c2.835,0.639,5.693,1.185,8.495,1.94c3.311,0.888,6.745,1.215,10,2.334
		c0.394,0.134,0.855,0.071,1.282,0.097c0,0.966,0,1.929,0,2.895c-0.758,0.613-1.546,0.26-2.337,0.089
		c-5.165-1.119-10.271-2.497-15.459-3.504c-2.048-0.398-2.051-0.364-2.062,1.787c0.022,0.847,0.033,1.695,0.007,2.542
		C177.434,114.179,177.69,115.179,177.092,116.067z"/>
	<path fill="#B82174" d="M177.092,116.067c0-0.966,0-1.932,0-2.895c0.498-0.457,1.07-0.331,1.639-0.212
		c4.987,1.059,9.937,2.271,14.872,3.553c1.237,0.323,2.631,0.097,3.712,1c0,0.966,0,1.929,0,2.895
		c-3.72-0.071-7.217-1.297-10.788-2.114C183.38,117.568,180.154,117.145,177.092,116.067z"/>
	<path fill="#BE2275" d="M177.088,110.586c-0.004-0.048-0.011-0.097-0.015-0.145c-0.089-2.427-0.104-2.349,2.308-1.962
		c4.965,0.795,9.759,2.345,14.697,3.244c1.078,0.197,2.092,0.751,3.237,0.576c0,0.966,0,1.929,0,2.895
		c-0.58,0.457-1.208,0.216-1.799,0.078c-5.704-1.315-11.453-2.43-17.113-3.935C177.895,111.203,177.345,111.154,177.088,110.586z"/>
	<path fill="#AF1F74" d="M177.092,122.723c0-0.962,0-1.929,0-2.891c2.977,0.676,5.953,1.345,8.926,2.025
		c3.764,0.862,7.529,1.735,11.293,2.605c0,0.87,0,1.735,0,2.605c-0.907,0.305-1.799,0.115-2.687-0.082
		c-4.623-1.018-9.175-2.367-13.854-3.14C179.507,123.629,178.244,123.347,177.092,122.723z"/>
	<path fill="#831971" d="M199.619,147.907c-0.628,0.323-1.315,0.268-1.984,0.268c-6.99,0.011-13.98,0.011-20.97,0
		c-0.665,0-1.356,0.078-1.981-0.26c0.58-0.591,1.334-0.476,2.04-0.476c3.746,0,7.495-0.059,11.241,0.045
		c1.583,0.011,3.174,0,4.772,0c-4.757-0.948-9.454-2.152-14.181-3.233c-3.608-0.825-7.243-1.542-10.829-2.468
		c-0.673-0.175-1.33-0.178-1.981,0.082c-0.539-0.602-0.847-1.327-1.104-2.077c0.379-0.743,1.003-0.576,1.631-0.465
		c3.408,0.609,6.704,1.709,10.097,2.36c5.715,1.093,11.319,2.664,17.016,3.846c1.602,0.331,3.177,0.769,4.775,1.111
		C198.817,146.781,199.649,146.896,199.619,147.907z"/>
	<path fill="#A81E73" d="M177.096,129.375c0-0.962,0-1.929,0-2.891c0.379-0.338,0.806-0.242,1.234-0.134
		c5.801,1.438,11.665,2.601,17.444,4.144c0.643,0.171,1.561,0.193,1.282,1.316c-0.487,0.91-0.925,1.865-2.062,2.148
		c-2.969-1.293-6.173-1.713-9.287-2.445C182.822,130.831,179.924,130.244,177.096,129.375z"/>
	<path fill="#7C1770" d="M188.326,147.888c-4.549,0.011-9.093,0.019-13.642,0.03c-3.393-0.461-6.039-2.163-8.105-4.842
		c0.208-1.104,1.067-0.747,1.683-0.654c1.899,0.279,3.731,0.899,5.619,1.26c4.099,0.784,8.079,2.111,12.215,2.743
		C186.988,146.558,188.021,146.736,188.326,147.888z"/>
	<path fill="#BB2175" d="M177.088,110.586c4.608,1.018,9.123,2.441,13.798,3.181c2.163,0.342,4.285,0.944,6.425,1.431
		c0,0.773,0,1.542,0,2.315c-3.575-0.342-6.968-1.512-10.454-2.278c-3.252-0.714-6.448-1.698-9.77-2.062
		C177.088,112.31,177.088,111.448,177.088,110.586z"/>
	<path fill="#CB2577" d="M210.344,103.324c0.29,2.126,0.32,4.251-0.019,6.373c-2.048,0.312-4.106,0.063-6.161,0.134
		c-0.52,0.019-0.639-0.286-0.635-0.736c0.007-1.728,0.007-3.456,0-5.18c0-0.461,0.145-0.74,0.654-0.721
		C206.234,103.265,208.296,103.027,210.344,103.324z"/>
	<path fill="#AD1F74" d="M177.092,122.723c2.802,0.539,5.637,0.959,8.402,1.654c2.59,0.65,5.199,1.204,7.796,1.81
		c1.338,0.312,2.683,0.587,4.025,0.881c0,0.673,0,1.349,0,2.022c-0.825,0.602-1.698,0.208-2.505,0.022
		c-5.429-1.267-10.866-2.501-16.318-3.683c-0.524-0.111-1.033-0.249-1.401-0.676C177.092,124.072,177.092,123.395,177.092,122.723z"
		/>
	<path fill="#A41E73" d="M177.096,129.375c0.706-0.312,1.323-0.071,2.04,0.13c2.233,0.635,4.523,1.078,6.786,1.613
		c2.783,0.658,5.556,1.356,8.346,1.984c0.539,0.123,0.754,0.334,0.721,0.851c-1.609,0.68-3.281,0.286-4.931,0.301
		c-0.13-0.059-0.268-0.119-0.412-0.104c-3.98,0.468-7.715-0.78-11.505-1.635c-0.357-0.082-0.617-0.242-0.821-0.531
		c-0.331-0.301-0.334-0.695-0.316-1.096C177.033,130.385,177.062,129.88,177.096,129.375z"/>
	<path fill="#871971" d="M199.619,147.907c-0.468-0.933-1.449-0.892-2.245-1.078c-6.132-1.438-12.278-2.813-18.417-4.222
		c-4.363-1-8.722-2.014-13.081-3.036c-0.461-0.108-0.851-0.007-1.237,0.216c-0.193-0.453-0.438-0.892-0.36-1.412
		c0.052-0.056,0.104-0.115,0.152-0.171c0.654-0.349,1.308-0.115,1.947,0.03c1.899,0.424,3.779,0.948,5.697,1.286
		c0.438,0.078,0.803,0.282,1.13,0.565c1.182,1.115,2.702,1.245,4.196,1.36c1.226,0.097,2.464,0.063,3.694,0.085
		c3.252,0.617,6.436,1.542,9.673,2.219c3.248,0.68,6.436,1.605,9.703,2.211c0.673,0.126,1.434,0.32,1.78,1.081
		C201.511,147.743,200.571,147.836,199.619,147.907z"/>
	<path fill="#AA1E73" d="M177.092,124.748c3.653,0.68,7.25,1.617,10.881,2.386c3.11,0.658,6.165,1.613,9.342,1.951
		c0.071,0.922,0.245,1.854-0.264,2.72c-0.007-0.654-0.546-0.762-0.992-0.858c-4.062-0.881-8.075-1.981-12.156-2.809
		c-2.278-0.461-4.571-0.988-6.812-1.657C177.092,125.904,177.092,125.328,177.092,124.748z"/>
	<path fill="#BF2375" d="M163.981,136.922c-0.327-0.632-0.216-1.319-0.216-1.984c-0.007-10.156,0.019-20.312-0.022-30.469
		c-0.004-1.182,0.29-1.49,1.468-1.293c3.549,0.602,5.377,2.821,5.466,6.808c-1.594-0.624-3.322-0.766-4.928-1.356
		c-0.94-0.346-1.338,0.037-1.33,0.996c0.007,0.955,0.011,1.91,0.011,2.865c0.045,1.197,0.037,2.393,0.011,3.59
		c0.037,1.33,0.041,2.664,0,3.995c0.03,1.063,0.041,2.129-0.004,3.192c0.019,1.055,0.045,2.111,0,3.166
		c0.022,0.955,0.033,1.91-0.004,2.865c0.011,0.598,0.03,1.2,0,1.799c0.019,0.684,0.026,1.364,0.007,2.048
		c-0.019,0.858,0.041,1.721-0.019,2.579C164.412,136.175,164.383,136.617,163.981,136.922z"/>
	<path fill="#801870" d="M188.326,147.888c-1.68-1.464-3.876-1.189-5.831-1.721c-2.022-0.554-4.028-1.189-6.083-1.553
		c-2.969-0.524-5.86-1.375-8.822-1.91c-0.375-0.067-0.78-0.037-1.011,0.375c-0.39-0.327-0.702-0.706-0.836-1.211
		c0.015-0.528,0.03-0.936,0.818-0.71c1.23,0.353,2.508,0.513,3.757,0.836c3.649,0.936,7.358,1.635,11.041,2.445
		c1.631,0.36,3.255,0.766,4.883,1.148c2.512,0.591,5.024,1.174,7.533,1.769c0.178,0.041,0.375,0.108,0.368,0.535
		C192.209,147.888,190.266,147.888,188.326,147.888z"/>
	<path fill="#B92175" d="M164.048,112.306c-0.007-1.1,0.022-2.204-0.03-3.304c-0.045-0.97,0.446-1.223,1.241-0.959
		c1.498,0.498,2.988,0.996,4.575,1.078c0.591,0.03,0.479,0.665,0.851,0.866c0.074,0.524,0.208,1.044,0.208,1.568
		c0.015,8.053,0.015,16.106,0.015,24.155c-0.699-0.145-0.52-0.74-0.617-1.197c-0.033-0.661-0.03-1.323-0.015-1.988
		c-0.007-0.591-0.033-1.182-0.004-1.769c-0.03-0.951-0.037-1.903-0.007-2.854c-0.037-1.145-0.037-2.289-0.004-3.434
		c-0.033-1.059-0.037-2.114,0-3.174c-0.026-1.204-0.037-2.408,0.007-3.608c-0.089-1.093,0.372-2.315-0.242-3.252
		c-0.628-0.955-1.97-0.509-2.936-0.914C166.081,113.105,164.896,113.124,164.048,112.306z"/>
	<path fill="#8A1A71" d="M202.254,147.041c-3.724-1.364-7.663-1.862-11.472-2.891c-2.352-0.635-4.757-1.081-7.098-1.758
		c-0.862-0.249-1.999,0.216-2.586-0.862c1.735,0,3.471,0,5.21,0c3.56,0.784,7.083,1.732,10.65,2.479
		c1.84,0.386,3.62,0.992,5.47,1.338c0.513,0.097,1.015,0.327,1.297,0.836C203.376,146.714,202.863,146.963,202.254,147.041z"/>
	<path fill="#A41E73" d="M210.374,136.067c-0.015,0.182-0.03,0.364-0.045,0.543c-0.349,0.465,0.011,1.052-0.268,1.527
		c-0.074,0.922-0.346,1.769-0.896,2.523c-1.538-1.932-3.764-1.817-5.898-1.97c-0.32-0.022-0.654,0.212-0.966-0.048
		c0.528-1.011,0.929-2.062,1.111-3.192c0.175-0.234,0.071-0.621,0.405-0.769c0.457-0.201,0.948-0.23,1.39-0.056
		c1.557,0.613,3.259,0.595,4.831,1.137C210.184,135.826,210.292,135.93,210.374,136.067z"/>
	<path fill="#911B72" d="M206.565,144.143c-0.372,0.58-0.803,1.104-1.457,1.39c-4.051-1.007-8.135-1.869-12.182-2.895
		c-0.814-0.208-1.854-0.052-2.278-1.107c2.371-0.011,4.742-0.022,7.113-0.033c2.947-0.085,5.682,0.836,8.413,1.765
		C206.554,143.392,206.862,143.659,206.565,144.143z"/>
	<path fill="#BC2376" d="M206.855,123.325c-0.962-0.134-2.494,0.531-3.248-0.249c-0.743-0.769-0.208-2.289-0.223-3.475
		c-0.037-2.977-0.011-2.977,2.999-2.977c1.059,0,2.118,0.037,3.174-0.011c0.766-0.037,1.003,0.26,0.981,1.003
		c-0.041,1.538-0.059,3.077,0.007,4.612c0.041,0.914-0.308,1.182-1.167,1.115C208.616,123.276,207.843,123.325,206.855,123.325z"/>
	<path fill="#8D1A71" d="M190.648,141.53c1.695,0.78,3.542,1.003,5.333,1.431c2.69,0.647,5.4,1.211,8.094,1.843
		c0.412,0.097,0.821,0.297,1.033,0.728c-0.55,0.026-0.762,0.769-1.382,0.65c-4.445-1.286-8.975-2.222-13.475-3.281
		c-1.327-0.312-2.798-0.446-3.947-1.371C187.754,141.53,189.199,141.53,190.648,141.53z"/>
	<path fill="#921B72" d="M170.659,134.585c0.067,0.379-0.1,0.81,0.245,1.126c0.13,0.587,0.256,1.174,0.386,1.761
		c-2.471-0.331-4.902-0.84-7.239-1.732c-0.004-0.866-0.004-1.732-0.007-2.598C166.304,133.384,168.523,133.786,170.659,134.585z"/>
	<path fill="#AC2175" d="M203.677,134.874c-0.085,0.19-0.175,0.379-0.26,0.572c-0.015-1.486,0.007-2.977-0.056-4.463
		c-0.033-0.795,0.305-0.977,1.018-0.962c1.728,0.037,3.46,0.015,5.188,0.011c0.517,0,0.992,0.022,0.959,0.728
		c-0.082,1.769,0.19,3.545-0.149,5.307l-0.082-0.059c-0.554-0.721-0.323-1.572-0.372-2.371c-0.037-0.621-0.145-1.152-0.877-1.286
		c-1.278-0.234-2.508-0.658-3.779-0.929c-1.078-0.23-1.234,0.19-1.211,1.096C204.079,133.314,204.257,134.165,203.677,134.874z"/>
	<path fill="#971C72" d="M206.565,144.143c-0.033-0.316-0.186-0.483-0.517-0.587c-2.72-0.862-5.511-1.431-8.291-2.059
		c0.988-0.409,1.981-0.818,2.973-1.226c1.936,0.528,3.891,0.981,5.82,1.527c0.539,0.152,1.464,0.119,1.171,1.182
		C207.438,143.47,207.163,143.964,206.565,144.143z"/>
	<path fill="#9F1D73" d="M202.302,138.639c1.97-0.799,3.779,0.022,5.652,0.479c0.959,0.234,1.323,0.621,1.211,1.542
		c-0.041,0.398-0.23,0.71-0.524,0.974c-1.446-0.624-2.992-0.873-4.523-1.174c-0.884-0.175-1.784-0.338-2.248-1.267
		C202.016,139.003,202.157,138.821,202.302,138.639z"/>
	<path fill="#9A1C72" d="M201.871,139.189c1.579,1.018,3.434,1.078,5.188,1.434c0.728,0.149,1.267,0.334,1.583,1.007
		c-0.175,0.543-0.483,0.988-0.922,1.349c-0.119-0.78-0.825-0.702-1.323-0.84c-1.505-0.424-3.021-0.803-4.549-1.145
		c-0.491-0.111-0.933-0.193-1.122-0.725C201.109,139.91,201.492,139.549,201.871,139.189z"/>
	<path fill="#8D1B72" d="M164.052,135.74c2.486,0.271,4.92,0.766,7.239,1.732c0.204,0.383,0.409,0.766,0.617,1.145
		c-0.561,0.446-1.182,0.256-1.769,0.111c-1.427-0.353-2.899-0.479-4.311-0.892c-0.632-0.186-1.111-0.067-1.479,0.479l-0.067,0.056
		c-0.327-0.438-0.29-0.948-0.294-1.449C164.007,136.528,164.03,136.134,164.052,135.74z"/>
	<path fill="#A11F74" d="M177.315,131.983c2.564,0.416,5.054,1.089,7.529,1.903c1.081,0.357,2.367,0.078,3.56,0.126
		c0.554,0.022,1.156-0.197,1.65,0.238c-3.151,0.019-6.303,0.089-9.45,0.033C179.073,134.258,177.883,133.511,177.315,131.983z"/>
	<path fill="#891A71" d="M164.346,138.319c-0.138-1.003,0.208-1.223,1.215-0.977c2.096,0.509,4.229,0.862,6.343,1.278
		c0.435,0.487,0.866,0.977,1.301,1.464C170.198,139.757,167.363,138.598,164.346,138.319z"/>
	<path fill="#C92979" d="M210.344,103.324c-1.821,0.004-3.646,0.048-5.466-0.007c-0.955-0.03-1.267,0.316-1.223,1.249
		c0.063,1.293,0.078,2.594-0.004,3.883c-0.067,1.067,0.401,1.293,1.353,1.263c1.773-0.056,3.549-0.015,5.322-0.015
		c-2.122,0.476-4.27,0.104-6.407,0.197c-0.543,0.022-0.55-0.416-0.55-0.814c0-1.728,0.004-3.456,0-5.184
		c0-0.412,0.037-0.818,0.58-0.788C206.082,103.22,208.23,102.812,210.344,103.324z"/>
	<path fill="#CA2879" d="M197.256,103.332c-5.708-0.011-11.412-0.022-17.12-0.03c0.323-0.063,0.643-0.182,0.966-0.182
		c5.125-0.011,10.253-0.011,15.377-0.004C196.754,103.113,197.066,103.027,197.256,103.332z"/>
	<path fill="#A81F74" d="M210.062,138.137c0.033-0.52-0.227-1.089,0.268-1.527C210.37,137.141,210.374,137.665,210.062,138.137z"/>
	<path fill="#B01F74" d="M170.659,117.513c0,1.252,0,2.508,0,3.761c-0.308,0.279-0.684,0.394-1.07,0.301
		c-1.858-0.45-3.768-0.684-5.541-1.457c0-1.349,0-2.702,0-4.051c0.19-0.167,0.427-0.29,0.661-0.227
		C166.694,116.39,168.786,116.565,170.659,117.513z"/>
	<path fill="#B52074" d="M170.659,117.513c-1.761-0.078-3.404-0.706-5.099-1.096c-0.505-0.115-1.007-0.234-1.512-0.349
		c0-1.252,0-2.508,0-3.761c1.929,0.316,3.727,1.182,5.704,1.297c0.639,0.037,0.992,0.438,0.94,1.178
		C170.626,115.684,170.667,116.602,170.659,117.513z"/>
	<path fill="#AB1F74" d="M164.048,120.118c1.721-0.123,3.278,0.624,4.913,0.94c0.569,0.111,1.122,0.227,1.698,0.216
		c0,1.063,0,2.122,0,3.185c-0.149,0.123-0.305,0.279-0.491,0.282c-2.159,0.03-4.233-0.312-6.121-1.438
		C164.048,122.24,164.048,121.177,164.048,120.118z"/>
	<path fill="#A71E73" d="M164.048,123.302c2.215,0.32,4.314,1.297,6.611,1.156c0,1.156,0,2.315,0,3.471
		c-0.23,0.201-0.509,0.297-0.792,0.223c-1.951-0.509-4.051-0.513-5.819-1.669C164.048,125.424,164.048,124.361,164.048,123.302z"/>
	<path fill="#A41D73" d="M164.048,126.483c2.204,0.483,4.407,0.966,6.611,1.446c0,0.962,0,1.929,0,2.891
		c-1.464,0.323-2.787-0.427-4.188-0.606c-0.81-0.104-1.709-0.29-2.423-0.84C164.048,128.412,164.048,127.446,164.048,126.483z"/>
	<path fill="#991C72" d="M170.659,134.585c-2.263-0.208-4.497-0.554-6.615-1.438c0-0.676,0-1.356,0.004-2.033
		c0.613-0.535,1.297-0.219,1.925-0.093c1.62,0.323,3.326,0.416,4.69,1.535C170.659,133.232,170.659,133.908,170.659,134.585z"/>
	<path fill="#9F1D73" d="M170.659,132.556c-2.174-0.621-4.344-1.263-6.611-1.442c0-0.58,0-1.159,0-1.735
		c2.245,0.301,4.445,0.799,6.611,1.446C170.659,131.4,170.659,131.976,170.659,132.556z"/>
	<path fill="#A81F74" d="M203.677,134.874c0-0.531-0.004-1.059-0.004-1.591c0-2.754,0.007-2.776,2.724-2.077
		c1.067,0.275,2.088,0.721,3.203,0.773c0.691,0.03,0.728,0.479,0.725,0.996c-0.015,1.011-0.019,2.022-0.03,3.032
		c-1.628-0.193-3.27-0.308-4.805-0.948C204.889,134.808,204.283,134.912,203.677,134.874z"/>
	<path fill="#B82275" d="M206.866,123.009c-0.048,0-0.097,0-0.145,0c-3.285,0-3.523-0.294-3.058-3.575
		c0.074-0.535,0.249-0.777,0.81-0.728c1.866,0.167,3.594,0.922,5.429,1.267c0.914,0.175,0.305,1.516,0.398,2.323
		c0.082,0.691-0.476,0.714-0.981,0.71C208.501,123.005,207.683,123.009,206.866,123.009z"/>
</g>
<rect x="-115.759" y="158.037" fill="#FEFEFE" width="337.93" height="15.416"/>
<g>
	<path fill="#194C51" d="M-54.602-60.253c-0.011,3.757-2.062,5.99-5.485,5.972c-3.378-0.019-5.485-2.356-5.452-6.046
		c0.033-3.712,2.163-6.02,5.522-5.987C-56.624-66.281-54.591-64.006-54.602-60.253z"/>
	<path fill="#194C51" d="M-89.791-60.268c0-3.842,1.947-6.05,5.344-6.054c3.408-0.004,5.411,2.215,5.422,6.005
		c0.011,3.813-1.962,6.031-5.366,6.035C-87.836-54.274-89.791-56.444-89.791-60.268z"/>
	<path fill="#194C51" d="M-71.351-54.292c-2.925,0.037-4.801-0.855-5.645-3.159c-0.925-2.52-0.929-5.035,0.922-7.224
		c1.609-1.903,3.764-1.81,5.946-1.42c0.383,0.067,0.78,0.282,1.085,0.531c0.773,0.624,1.996,1.342,1.312,2.401
		c-0.691,1.074-1.62,0.498-2.486-0.368c-1.304-1.304-2.939-1.122-4.058,0.201c-1.475,1.743-1.319,3.854-0.23,5.741
		c0.829,1.434,2.289,1.609,3.787,1.048c0.658-0.245,1.386-0.546,1.293-1.472c-0.089-0.925-0.851-0.691-1.397-0.706
		c-0.747-0.019-1.141-0.286-1.096-1.078c0.052-0.881,0.728-0.974,1.304-0.844c1.211,0.275,3.14-1.011,3.489,1.152
		c0.301,1.858,0.572,4.032-2.085,4.716C-70.095-54.545-70.991-54.374-71.351-54.292z"/>
	<path fill="#194C51" d="M-98.91-60.372c0-1.423-0.007-2.85,0.004-4.274c0.007-0.702-0.082-1.438,1.015-1.464
		c1.137-0.026,1.353,0.587,1.338,1.535c-0.026,1.932,0.1,3.876-0.033,5.801c-0.126,1.81,0.379,2.709,2.341,2.415
		c0.695-0.104,1.423-0.022,2.133-0.004c0.676,0.019,1.178,0.223,1.13,1.063c-0.041,0.665-0.453,0.847-0.996,0.855
		c-1.932,0.019-3.869-0.004-5.801,0.026c-0.992,0.015-1.152-0.554-1.141-1.368C-98.891-57.317-98.91-58.845-98.91-60.372z"/>
	<path fill="#FEFEFE" d="M-56.988-60.454c-0.037,2.185-0.517,4.132-3.066,4.117c-2.516-0.015-3.099-1.981-3.088-4.058
		c0.007-1.966,0.609-3.768,2.965-3.857C-57.583-64.356-57.055-62.494-56.988-60.454z"/>
	<path fill="#FEFEFE" d="M-81.262-60.346c-0.234,2.007-0.576,4.069-3.177,4.025c-2.575-0.045-3.018-2.04-3.003-4.099
		c0.011-1.962,0.513-3.776,2.928-3.85C-81.875-64.352-81.507-62.356-81.262-60.346z"/>
</g>
</svg>
