<?xml version="1.0" encoding="utf-8"?>
<!-- Generator: Adobe Illustrator 17.0.0, SVG Export Plug-In . SVG Version: 6.00 Build 0)  -->
<!DOCTYPE svg PUBLIC "-//W3C//DTD SVG 1.1//EN" "http://www.w3.org/Graphics/SVG/1.1/DTD/svg11.dtd">
<svg version="1.1" id="Layer_1" xmlns="http://www.w3.org/2000/svg" xmlns:xlink="http://www.w3.org/1999/xlink" x="0px" y="0px"
	 width="418px" height="130.333px" viewBox="0 0 418 245.333" enable-background="new 0 0 418 245.333" xml:space="preserve">
<rect y="0.002" fill="#FFFFFF" width="418" height="245.33"/>
<g>
	<path fill="none" stroke="#4B7E7F" stroke-miterlimit="10" d="M210.608,57.869c-54.296,0-108.592-0.054-162.887,0.109
		c-4.098,0.013-5.067-1.158-4.943-5.413c0.305-10.536,0.313-21.096-0.003-31.631c-0.128-4.259,1.227-5.002,4.846-4.996
		c71.374,0.107,142.748,0.079,214.123,0.079c37.54,0,75.08,0.07,112.619-0.101c4.039-0.018,5.134,1.131,5.006,5.433
		c-0.307,10.362-0.396,20.757,0.03,31.11c0.202,4.901-1.441,5.508-5.419,5.499C319.522,57.826,265.066,57.869,210.608,57.869z"/>
	<path fill="#D8D9D9" d="M213.678,173.31c-53.316,0-106.632-0.039-159.948,0.08c-3.93,0.009-5.523-0.837-5.227-5.071
		c0.379-5.423,0.321-10.905,0.012-16.337c-0.208-3.666,1.218-4.797,4.564-4.33c0.433,0.061,0.883,0.008,1.324,0.008
		c106.337,0,212.675,0,319.012,0.001c5.792,0,5.794,0.004,5.797,5.653c0.003,5.302-0.198,10.614,0.071,15.903
		c0.175,3.436-1.147,4.175-4.333,4.157c-21.061-0.123-42.122-0.063-63.183-0.063C279.071,173.31,246.375,173.31,213.678,173.31z"/>
	<path fill="#7F7F81" d="M111.305,121.077c-15.756,0-31.513,0.025-47.269-0.039c-1.527-0.006-3.944,0.957-3.972-1.981
		c-0.028-2.934,2.38-2.047,3.924-2.049c31.366-0.046,62.731-0.043,94.097-0.009c1.596,0.002,3.934-0.711,3.772,2.23
		c-0.143,2.597-2.291,1.81-3.724,1.815C142.524,121.096,126.914,121.077,111.305,121.077z"/>
	<path fill="#7F7F81" d="M110.877,100.854c15.756,0,31.511-0.024,47.267,0.044c1.364,0.006,3.686-0.954,3.634,1.768
		c-0.05,2.664-2.343,1.699-3.711,1.702c-31.364,0.056-62.728,0.057-94.092-0.005c-1.359-0.003-3.685,1.054-3.821-1.551
		c-0.161-3.074,2.455-1.896,3.898-1.904C79.66,100.822,95.269,100.854,110.877,100.854z"/>
	<path fill="#9B9B9B" d="M108.259,109.574c15.015,0,30.03-0.027,45.044,0.045c1.383,0.007,3.715-0.979,3.822,1.59
		c0.125,3.01-2.472,1.897-3.939,1.9c-29.735,0.065-59.47,0.062-89.205,0.006c-1.385-0.003-3.707,0.966-3.818-1.596
		c-0.131-3.029,2.479-1.884,3.935-1.893C78.818,109.54,93.539,109.574,108.259,109.574z"/>
	<path fill="#7F7F81" d="M107.41,92.075c14.418,0,28.837-0.026,43.255,0.041c1.387,0.006,3.655-0.942,3.758,1.674
		c0.105,2.661-2.169,1.873-3.584,1.876c-28.984,0.043-57.968,0.046-86.952-0.009c-1.381-0.003-3.705,0.93-3.732-1.686
		c-0.031-2.995,2.538-1.833,3.999-1.842C78.573,92.04,92.992,92.075,107.41,92.075z"/>
	<path fill="#194C51" d="M81.242,75.256c6.168,0,12.344,0.187,18.5-0.074c3.436-0.146,2.785,1.932,2.896,3.918
		c0.12,2.141-0.008,3.51-2.907,3.473c-12.48-0.161-24.965-0.168-37.445-0.002c-3.323,0.044-2.883-1.843-2.975-3.934
		c-0.098-2.226,0.182-3.531,2.989-3.444C68.609,75.391,74.928,75.256,81.242,75.256z"/>
	<path fill="#194C51" d="M247.475,82.505c-6.17,0-12.346-0.155-18.509,0.065c-3.074,0.11-2.848-1.642-2.744-3.603
		c0.093-1.754-0.746-3.813,2.557-3.773c12.633,0.153,25.269,0.149,37.902-0.003c2.999-0.036,2.811,1.555,2.84,3.579
		c0.032,2.234,0.101,3.927-3.097,3.805C260.116,82.335,253.792,82.505,247.475,82.505z"/>
	<path fill="#194C51" d="M296.11,82.505c-6.172,0-12.35-0.156-18.515,0.065c-3.078,0.11-2.846-1.643-2.743-3.603
		c0.092-1.755-0.746-3.813,2.558-3.773c12.637,0.153,25.278,0.15,37.914-0.003c3.008-0.037,2.803,1.566,2.831,3.582
		c0.031,2.227,0.118,3.928-3.091,3.804C308.755,82.332,302.429,82.505,296.11,82.505z"/>
	<path fill="#194C51" d="M345.611,82.505c-6.033,0-12.074-0.191-18.094,0.078c-3.128,0.14-3.195-1.365-3.168-3.685
		c0.026-2.246-0.082-3.781,3.118-3.727c12.356,0.206,24.719,0.196,37.075,0.004c3.085-0.048,3.229,1.31,3.196,3.671
		c-0.032,2.275,0.014,3.864-3.15,3.735C358.271,82.324,351.937,82.505,345.611,82.505z"/>
	<path fill="#194C51" d="M198.09,82.504c-6.177,0-12.361-0.173-18.528,0.073c-3.082,0.123-3.224-1.347-3.228-3.703
		c-0.004-2.364,0.137-3.743,3.225-3.696c12.351,0.188,24.707,0.163,37.059,0.013c2.838-0.034,3.055,1.282,2.973,3.463
		c-0.078,2.079,0.371,4.046-2.974,3.917C210.45,82.334,204.267,82.504,198.09,82.504z"/>
	<path fill="#7F7F81" d="M89.224,129.34c-8.514,0-17.029,0.036-25.543-0.036c-1.401-0.012-3.644,0.806-3.548-1.894
		c0.082-2.297,2.062-1.647,3.373-1.65c17.322-0.04,34.645-0.039,51.967-0.005c1.496,0.003,3.657-0.521,3.587,1.993
		c-0.064,2.312-2.13,1.549-3.413,1.558C106.841,129.372,98.032,129.34,89.224,129.34z"/>
	<path fill="#7F7F81" d="M198.441,126.687c5.736,0,11.472-0.038,17.208,0.026c1.466,0.016,3.534-0.659,3.621,1.939
		c0.087,2.608-1.938,2.103-3.452,2.107c-11.766,0.03-23.532,0.042-35.298-0.017c-1.416-0.007-3.632,0.812-3.642-1.837
		c-0.011-2.788,2.291-2.17,3.915-2.189C186.675,126.646,192.558,126.688,198.441,126.687z"/>
	<path fill="#7F7F81" d="M247.05,95.7c-5.888-0.001-11.777,0.027-17.665-0.021c-1.357-0.011-3.231,0.477-3.134-1.922
		c0.082-2.037,1.711-1.663,2.952-1.666c12.071-0.026,24.143-0.03,36.214,0.002c1.358,0.004,3.269-0.489,3.122,1.912
		c-0.143,2.338-2.071,1.652-3.382,1.666C259.122,95.738,253.086,95.7,247.05,95.7z"/>
	<path fill="#7F7F81" d="M345.173,92.075c6.187,0,12.375-0.022,18.562,0.019c1.219,0.008,2.867-0.464,2.993,1.604
		c0.146,2.4-1.688,1.98-3.071,1.983c-12.08,0.027-24.16,0.028-36.241-0.004c-1.22-0.003-2.877,0.448-2.997-1.613
		c-0.138-2.383,1.681-1.969,3.074-1.976C333.387,92.057,339.28,92.075,345.173,92.075z"/>
	<path fill="#7F7F81" d="M296.113,135.328c5.889-0.001,11.778-0.045,17.665,0.035c1.277,0.017,3.236-0.784,3.388,1.603
		c0.156,2.441-1.785,1.882-3.118,1.886c-12.071,0.037-24.143,0.034-36.214,0.001c-1.209-0.003-2.87,0.469-2.957-1.619
		c-0.101-2.448,1.797-1.871,3.129-1.883C284.041,135.299,290.077,135.329,296.113,135.328z"/>
	<path fill="#7F7F81" d="M296.09,104.41c-6.037,0-12.074,0.026-18.11-0.02c-1.352-0.01-3.225,0.511-3.103-1.919
		c0.105-2.089,1.774-1.592,2.977-1.595c12.073-0.034,24.147-0.036,36.22-0.001c1.343,0.004,3.228-0.533,3.105,1.912
		c-0.106,2.093-1.771,1.593-2.979,1.602C308.164,104.435,302.127,104.41,296.09,104.41z"/>
	<path fill="#7F7F81" d="M197.813,113.157c-6.026,0-12.053,0.016-18.079-0.013c-1.261-0.006-2.833,0.305-2.844-1.764
		c-0.012-2.063,1.548-1.791,2.817-1.793c12.2-0.02,24.4-0.021,36.6,0.001c1.252,0.002,2.82-0.321,2.834,1.762
		c0.014,2.083-1.538,1.79-2.806,1.795C210.159,113.172,203.986,113.157,197.813,113.157z"/>
	<path fill="#7F7F81" d="M247.05,104.411c-5.888-0.001-11.777,0.03-17.665-0.023c-1.334-0.012-3.228,0.557-3.138-1.883
		c0.077-2.089,1.736-1.626,2.947-1.629c12.071-0.032,24.142-0.036,36.213,0.002c1.33,0.004,3.273-0.564,3.128,1.876
		c-0.142,2.381-2.094,1.608-3.378,1.625C259.122,104.453,253.086,104.411,247.05,104.411z"/>
	<path fill="#7F7F81" d="M198.212,118.401c6.039,0.001,12.078-0.016,18.116,0.016c1.252,0.007,2.827-0.327,2.889,1.734
		c0.062,2.075-1.475,1.853-2.769,1.854c-12.225,0.016-24.45,0.019-36.675-0.003c-1.25-0.002-2.866,0.348-2.877-1.727
		c-0.012-2.398,1.863-1.84,3.199-1.852C186.134,118.37,192.173,118.4,198.212,118.401z"/>
	<path fill="#7F7F81" d="M247.772,118.402c5.89-0.001,11.779-0.025,17.669,0.017c1.375,0.01,3.222-0.433,3.107,1.954
		c-0.099,2.062-1.75,1.622-2.977,1.625c-12.074,0.028-24.147,0.028-36.221,0.002c-1.378-0.003-3.221,0.448-3.106-1.943
		c0.099-2.048,1.745-1.63,2.975-1.637C235.403,118.382,241.587,118.403,247.772,118.402z"/>
	<path fill="#7F7F81" d="M296.336,118.399c5.744,0,11.488-0.052,17.23,0.037c1.404,0.022,3.629-0.832,3.591,1.87
		c-0.034,2.368-2.027,1.677-3.33,1.682c-11.929,0.048-23.858,0.043-35.787,0.007c-1.342-0.004-3.266,0.54-3.159-1.876
		c0.105-2.363,2.037-1.675,3.34-1.69C284.259,118.362,290.298,118.4,296.336,118.399z"/>
	<path fill="#7F7F81" d="M198.429,104.41c-6.186,0-12.372,0.024-18.558-0.021c-1.205-0.009-2.868,0.497-2.973-1.604
		c-0.122-2.453,1.763-1.905,3.103-1.909c12.078-0.035,24.155-0.033,36.233,0.001c1.201,0.003,2.869-0.501,2.973,1.597
		c0.12,2.438-1.755,1.905-3.103,1.916C210.213,104.437,204.321,104.41,198.429,104.41z"/>
	<path fill="#7F7F81" d="M345.354,104.409c-6.04,0-12.08,0.017-18.12-0.014c-1.249-0.007-2.824,0.344-2.827-1.764
		c-0.003-2.119,1.581-1.757,2.825-1.759c12.227-0.024,24.455-0.024,36.683,0c1.244,0.002,2.827-0.36,2.826,1.757
		c0,2.109-1.573,1.761-2.824,1.767C357.728,104.426,351.541,104.409,345.354,104.409z"/>
	<path fill="#7F7F81" d="M197.739,95.701c-5.745,0-11.491,0.052-17.234-0.038c-1.402-0.022-3.625,0.835-3.585-1.876
		c0.035-2.376,2.025-1.68,3.325-1.685c11.932-0.049,23.864-0.043,35.795-0.007c1.346,0.004,3.265-0.528,3.158,1.882
		c-0.105,2.36-2.034,1.68-3.34,1.695C209.818,95.738,203.778,95.701,197.739,95.701z"/>
	<path fill="#7F7F81" d="M247.116,113.157c-5.884,0.002-11.769,0.033-17.652-0.021c-1.336-0.012-3.231,0.555-3.212-1.839
		c0.016-2.055,1.657-1.703,2.898-1.706c12.21-0.026,24.419-0.023,36.629-0.004c1.128,0.002,2.559-0.227,2.602,1.545
		c0.045,1.861-1.307,2.026-2.729,2.025C259.473,113.152,253.295,113.154,247.116,113.157z"/>
	<path fill="#194C51" d="M288.996,126.857c3.821,0,7.641,0.014,11.462-0.007c1.312-0.007,2.359,0.23,2.371,1.852
		c0.011,1.518-0.806,2.009-2.234,2.003c-7.935-0.03-15.87-0.026-23.806-0.005c-1.454,0.004-2.159-0.548-2.113-2.079
		c0.051-1.709,1.179-1.765,2.416-1.764C281.061,126.858,285.029,126.857,288.996,126.857z"/>
	<path fill="#194C51" d="M340.342,115.084c-4.562-0.001-9.124,0.002-13.686-0.002c-1.181-0.001-2.351,0.137-2.366-1.696
		c-0.013-1.681,0.851-1.901,2.209-1.897c9.419,0.026,18.837,0.014,28.256,0.011c1.208,0,2.304-0.073,2.365,1.724
		c0.073,2.186-1.375,1.849-2.649,1.854C349.761,115.096,345.051,115.085,340.342,115.084z"/>
	<path fill="#194C51" d="M289.927,92.094c3.952,0,7.905,0.028,11.856-0.014c1.486-0.016,2.583,0.178,2.498,2.079
		c-0.082,1.803-1.331,1.61-2.475,1.612c-8.197,0.011-16.394,0.013-24.591-0.001c-1.13-0.002-2.402,0.236-2.49-1.588
		c-0.091-1.883,0.958-2.12,2.468-2.104C281.437,92.124,285.682,92.094,289.927,92.094z"/>
	<path fill="#194C51" d="M289.385,109.519c3.822-0.001,7.644-0.018,11.465,0.009c1.111,0.008,2.431-0.304,2.513,1.556
		c0.086,1.932-1.063,2.066-2.532,2.061c-7.938-0.027-15.875-0.023-23.813-0.006c-1.309,0.003-2.283-0.155-2.3-1.851
		c-0.018-1.775,1.085-1.773,2.318-1.771C281.153,109.525,285.269,109.521,289.385,109.519z"/>
	<path fill="#4B7E7F" d="M332.223,122.832c-0.292,2.465-1.611,4.225-4.092,4.329c-2.706,0.114-4.466-1.586-4.447-4.303
		c0.018-2.495,1.707-4.104,4.195-4.135C330.405,118.692,331.75,120.397,332.223,122.832z"/>
	<path fill="#4B7E7F" d="M339.29,137.655c-2.43-0.394-4.185-1.661-4.143-4.223c0.045-2.708,1.722-4.368,4.477-4.211
		c2.513,0.143,4.03,1.858,3.934,4.334C343.462,136.041,341.789,137.402,339.29,137.655z"/>
	<path fill="#4B7E7F" d="M327.977,137.661c-2.39-0.279-4.198-1.486-4.289-4.023c-0.097-2.703,1.515-4.428,4.272-4.421
		c2.546,0.006,4.101,1.689,4.144,4.138C332.148,135.848,330.504,137.265,327.977,137.661z"/>
	<path fill="#4B7E7F" d="M339.283,127.271c-2.39-0.428-4.144-1.716-4.137-4.25c0.008-2.723,1.756-4.399,4.456-4.284
		c2.494,0.107,4.041,1.88,3.951,4.355C343.463,125.556,341.819,126.967,339.283,127.271z"/>
	<path fill="#4B7E7F" d="M367.105,122.788c-0.142,2.894-1.705,4.419-4.2,4.368c-2.477-0.05-4.105-1.616-4.057-4.276
		c0.048-2.645,1.685-4.16,4.186-4.143C365.582,118.756,366.991,120.396,367.105,122.788z"/>
	<path fill="#4B7E7F" d="M351.478,127.289c-2.527-0.548-4.203-1.811-4.099-4.478c0.102-2.631,1.758-4.137,4.265-4.063
		c2.524,0.074,4.027,1.685,3.971,4.337C355.558,125.794,353.795,126.88,351.478,127.289z"/>
	<path fill="#4B7E7F" d="M355.637,133.233c-0.098,2.852-1.642,4.395-4.142,4.338c-2.431-0.055-4.15-1.539-4.121-4.22
		c0.029-2.646,1.633-4.114,4.16-4.138C354.146,129.189,355.46,130.844,355.637,133.233z"/>
	<path fill="#4B7E7F" d="M367.093,133.143c-0.052,2.872-1.562,4.442-4.069,4.424c-2.433-0.018-4.163-1.462-4.18-4.15
		c-0.017-2.66,1.567-4.145,4.086-4.205C365.525,129.15,366.896,130.762,367.093,133.143z"/>
	<path fill="#194C51" d="M100.341,157.473c12.207,0,24.415-0.032,36.622,0.041c1.495,0.009,3.816-1.018,3.894,2.011
		c0.077,3.007-2.18,2.203-3.754,2.205c-24.856,0.037-49.712,0.038-74.569-0.004c-1.557-0.003-3.82,0.874-3.905-2.083
		c-0.088-3.056,2.233-2.132,3.765-2.139C75.044,157.448,87.693,157.473,100.341,157.473z"/>
	<path fill="#194C51" d="M330.998,161.759c-10.874,0-21.749,0.017-32.623-0.018c-1.624-0.005-3.776,0.673-3.75-2.25
		c0.027-3.099,2.381-2.012,3.853-2.016c21.896-0.062,43.792-0.058,65.687-0.009c1.501,0.003,3.764-0.965,3.701,2.148
		c-0.062,3.047-2.284,2.101-3.803,2.11C353.041,161.789,342.019,161.759,330.998,161.759z"/>
	<path fill="#4B7E7F" d="M205.849,51.035c-3.87-4.073-7.014-7.148-9.872-10.469c-1.967-2.286-3.606-2.836-5.465-0.096
		c-2.223,3.277-3.877,3.288-6.281-0.205c-4.634-6.734-4.846-6.586-9.795-0.008c-2.034,2.704-4.074,5.403-6.117,8.099
		c-0.176,0.233-0.404,0.426-1.452,1.514c0-5.549-0.075-10.255,0.024-14.958c0.078-3.661-1.561-8.423,0.629-10.695
		c2.406-2.497,7.258-0.772,11.036-0.834c7.946-0.13,15.895,0.005,23.842-0.067c2.238-0.02,3.557,0.334,3.504,3.088
		C205.752,34.174,205.849,41.949,205.849,51.035z"/>
	<path fill="#4B7E7F" d="M219.065,50.216c0-8.945,0.075-16.451-0.043-23.955c-0.038-2.414,0.96-2.965,3.149-2.95
		c10.898,0.076,21.797,0.094,32.694-0.008c2.559-0.024,3.254,0.944,3.215,3.375c-0.122,7.655-0.045,15.312-0.045,24.309
		c-3.61-3.785-6.753-6.697-9.423-9.994c-2.378-2.935-4.272-3.167-6.392-0.001c-1.974,2.949-3.391,2.557-5.413-0.258
		c-5.108-7.113-5.238-7.01-10.598,0.121C224.12,43.635,221.992,46.384,219.065,50.216z"/>
	<path fill="#4B7E7F" d="M114.695,50.093c0-9.093-0.002-16.952,0.002-24.812c0.001-1.94,1.379-1.936,2.758-1.935
		c11.03,0.002,22.061,0.062,33.09-0.044c2.636-0.025,3.188,1.093,3.155,3.447c-0.107,7.635-0.04,15.272-0.04,24.296
		c-3.765-3.96-6.973-7.026-9.801-10.409c-2.185-2.614-3.851-2.691-5.788,0.061c-1.855,2.636-3.366,3.334-5.697,0.018
		c-5.006-7.121-5.185-6.982-10.572,0.152C119.716,43.629,117.58,46.352,114.695,50.093z"/>
	<path fill="#4B7E7F" d="M62.466,48.685c0-7.487,0.07-14.974-0.04-22.459c-0.036-2.449,1.091-2.922,3.217-2.91
		c10.877,0.063,21.755,0.085,32.631-0.013c2.542-0.023,3.276,0.933,3.238,3.372c-0.119,7.64-0.044,15.283-0.044,24.346
		c-3.64-3.813-6.744-6.747-9.458-10.007c-2.315-2.78-4.209-3.369-6.375-0.048c-1.895,2.905-3.352,2.659-5.41-0.178
		c-5.163-7.116-5.295-7.015-10.586-0.009c-2.092,2.77-4.202,5.526-6.304,8.288C63.045,48.942,62.755,48.813,62.466,48.685z"/>
	<path fill="#4B7E7F" d="M310.217,51.025c-3.767-3.989-6.917-7.015-9.685-10.357c-2.135-2.578-3.831-2.883-5.777-0.039
		c-2.102,3.072-3.667,3.147-5.985-0.186c-4.799-6.901-4.998-6.76-10.058-0.026c-2.191,2.916-4.393,5.824-7.435,9.857
		c0-9.202,0.001-17.161,0-25.12c0-1.673,1.144-1.803,2.403-1.803c11.32,0.001,22.641,0.042,33.96-0.039
		c2.302-0.017,2.616,1.1,2.601,2.995C310.182,34.096,310.217,41.886,310.217,51.025z"/>
	<path fill="#4B7E7F" d="M362.398,51.042c-3.769-4.022-6.905-7.071-9.677-10.421c-2.163-2.613-3.894-2.765-5.794,0.035
		c-2.162,3.185-3.717,2.936-5.977-0.266c-4.809-6.812-4.995-6.677-10.076,0.08c-2.189,2.911-4.389,5.813-7.408,9.808
		c0-9.206-0.001-17.178,0.001-25.151c0-1.682,1.171-1.777,2.418-1.777c11.326,0.001,22.652,0.044,33.978-0.038
		c2.341-0.017,2.571,1.172,2.558,3.028C362.366,34.132,362.398,41.926,362.398,51.042z"/>
	<path fill="#4B7E7F" d="M99.067,52.932c-11.843,0-23.009,0-34.888,0c3.359-4.494,6.406-8.543,9.417-12.617
		c0.861-1.165,1.636-1.668,2.632-0.148c0.481,0.734,1.08,1.39,1.615,2.09c4.194,5.488,4.226,5.527,9.442,1.028
		c1.075-0.927,1.738-1.312,2.828-0.088C92.907,46.332,95.793,49.385,99.067,52.932z"/>
	<path fill="#4B7E7F" d="M220.827,52.832c3.313-4.419,6.314-8.367,9.247-12.365c0.996-1.358,1.848-1.836,2.934-0.137
		c0.473,0.74,1.043,1.418,1.577,2.118c4.227,5.532,4.311,5.618,9.119,0.99c1.542-1.485,2.306-1.07,3.459,0.223
		c2.624,2.944,5.332,5.813,8.43,9.171C243.882,52.832,232.717,52.832,220.827,52.832z"/>
	<path fill="#4B7E7F" d="M203.582,53.039c-12.011,0-23.115,0-35.092,0c3.456-4.614,6.595-8.745,9.662-12.928
		c1.124-1.534,1.828-0.849,2.641,0.254c1.306,1.772,2.747,3.45,3.97,5.276c1.599,2.387,2.883,2.16,4.746,0.123
		c3.681-4.025,3.784-3.923,7.542,0.192C199.018,48.109,201.003,50.243,203.582,53.039z"/>
	<path fill="#4B7E7F" d="M116.493,52.769c3.286-4.39,6.35-8.439,9.359-12.529c0.95-1.292,1.689-1.372,2.644-0.005
		c1.175,1.682,2.576,3.212,3.695,4.928c1.674,2.567,3.39,3.187,5.259,0.326c2.411-3.69,4.501-3.581,7.05,0.011
		c1.767,2.489,4.136,4.551,6.671,7.27C139.551,52.769,128.418,52.769,116.493,52.769z"/>
	<path fill="#4B7E7F" d="M307.925,52.941c-11.986,0-23.136,0-35.02,0c3.432-4.537,6.544-8.544,9.527-12.643
		c1.239-1.703,2.024-1.114,2.914,0.213c0.407,0.608,0.858,1.187,1.303,1.769c4.167,5.448,4.229,5.518,9.408,1.03
		c1.441-1.249,2.193-0.833,3.213,0.284C301.935,46.514,304.639,49.399,307.925,52.941z"/>
	<path fill="#4B7E7F" d="M360.264,53.107c-12.143,0-23.182,0-35.267,0c3.588-4.747,6.79-8.973,9.98-13.208
		c1.023-1.359,1.695-0.524,2.359,0.354c1.331,1.762,2.733,3.478,3.955,5.313c1.526,2.29,3.148,2.667,4.712,0.247
		c2.768-4.285,5.126-3.365,7.777,0.164C355.511,48.28,357.658,50.272,360.264,53.107z"/>
	<path fill="#FEEDF2" d="M195.469,30.472c-0.027,1.256-0.551,2-1.508,2.074c-1.177,0.091-1.963-0.649-1.915-1.849
		c0.039-0.98,0.769-1.518,1.761-1.551C194.865,29.111,195.361,29.72,195.469,30.472z"/>
	<path fill="#FEECF1" d="M247.652,30.834c-0.114,0.971-0.591,1.711-1.606,1.716c-1.215,0.006-1.919-0.81-1.794-1.966
		c0.1-0.925,0.855-1.483,1.865-1.448C247.193,29.173,247.645,29.809,247.652,30.834z"/>
	<path fill="#FEEEF3" d="M143.271,30.846c-0.1,0.992-0.626,1.697-1.622,1.701c-1.21,0.005-1.92-0.797-1.79-1.972
		c0.105-0.957,0.889-1.467,1.88-1.432C142.803,29.18,143.28,29.808,143.271,30.846z"/>
	<path fill="#FEEAF0" d="M89.371,29.111c1.019,0.042,1.681,0.484,1.715,1.578c0.032,1.033-0.557,1.776-1.492,1.866
		c-1.174,0.113-1.969-0.602-1.966-1.845C87.631,29.637,88.389,29.212,89.371,29.111z"/>
	<path fill="#FEE0E9" d="M298.326,32.675c-1.159-0.112-1.935-0.741-1.925-1.909c0.008-0.946,0.676-1.577,1.664-1.667
		c0.998-0.091,1.758,0.397,1.884,1.374C300.094,31.602,299.524,32.411,298.326,32.675z"/>
	<path fill="#FEDFE9" d="M352.203,30.625c-0.112,1.122-0.602,2.011-1.824,2.027c-0.964,0.013-1.654-0.689-1.765-1.612
		c-0.146-1.222,0.63-1.901,1.798-1.955C351.402,29.039,352.012,29.634,352.203,30.625z"/>
</g>
<g>
	<path fill="#C52275" d="M342.863,179.126c0.551-1.069,1.41-1.68,2.625-1.755c3.439-0.248,6.886-0.071,10.328-0.101
		c2.318-0.019,4.635-0.09,6.949,0.131c0.24,2.04,0.139,4.088,0.056,6.132c-0.506,0.439-1.08,0.353-1.658,0.203
		c-5.029-1.305-10.148-2.228-15.185-3.495C344.915,179.97,343.771,179.869,342.863,179.126z"/>
	<path fill="#B32074" d="M362.826,194.63c0,1.365,0,2.727,0,4.092c-1.601,0.386-3.072-0.319-4.564-0.63
		c-4.609-0.968-9.162-2.213-13.771-3.199c-0.78-0.169-1.658-0.229-2.235-0.93c-0.049-1.2-0.038-2.4-0.007-3.6
		c0.42-0.578,0.949-0.315,1.451-0.184c4.227,1.118,8.521,1.946,12.774,2.959C358.589,193.64,360.73,194.045,362.826,194.63z"/>
	<path fill="#C22275" d="M342.417,190.254c0,1.264,0,2.531,0.004,3.795c0.6,0.889,0.338,1.886,0.371,2.85
		c0.015,0.694,0.03,1.391-0.004,2.085c0.022,0.608,0.022,1.215,0,1.819c0.038,0.968,0.022,1.935-0.004,2.903
		c0.007,0.551,0.022,1.103-0.458,1.504c-0.255-0.454-0.15-0.953-0.15-1.429c-0.004-7.249-0.004-14.499,0.007-21.748
		c0-1.016-0.045-2.055,0.683-2.907c2.862,0.645,5.746,1.196,8.573,1.958c3.342,0.896,6.807,1.226,10.092,2.355
		c0.398,0.135,0.863,0.071,1.294,0.098c0,0.975,0,1.946,0,2.922c-0.765,0.619-1.56,0.263-2.359,0.09
		c-5.213-1.129-10.366-2.52-15.602-3.537c-2.066-0.401-2.07-0.368-2.081,1.804c0.022,0.855,0.034,1.71,0.007,2.565
		C342.762,188.349,343.021,189.357,342.417,190.254z"/>
	<path fill="#B82174" d="M342.417,190.254c0-0.975,0-1.95,0-2.922c0.503-0.461,1.08-0.334,1.654-0.214
		c5.033,1.069,10.028,2.291,15.009,3.585c1.249,0.326,2.655,0.098,3.747,1.009c0,0.975,0,1.946,0,2.922
		c-3.754-0.071-7.283-1.309-10.887-2.134C348.763,191.769,345.507,191.341,342.417,190.254z"/>
	<path fill="#BE2275" d="M342.413,184.722c-0.004-0.049-0.011-0.098-0.015-0.146c-0.09-2.449-0.105-2.37,2.329-1.98
		c5.01,0.803,9.848,2.366,14.833,3.274c1.088,0.199,2.111,0.758,3.267,0.581c0,0.975,0,1.946,0,2.922
		c-0.585,0.461-1.219,0.218-1.815,0.079c-5.757-1.328-11.559-2.453-17.27-3.972C343.227,185.345,342.672,185.296,342.413,184.722z"
		/>
	<path fill="#AF1F74" d="M342.417,196.971c0-0.971,0-1.946,0-2.918c3.004,0.683,6.008,1.358,9.008,2.044
		c3.799,0.87,7.598,1.751,11.397,2.629c0,0.878,0,1.751,0,2.629c-0.915,0.308-1.815,0.116-2.712-0.083
		c-4.665-1.028-9.26-2.389-13.981-3.169C344.855,197.886,343.58,197.601,342.417,196.971z"/>
	<path fill="#831971" d="M365.152,222.387c-0.634,0.326-1.328,0.27-2.003,0.27c-7.054,0.011-14.109,0.011-21.163,0
		c-0.671,0-1.369,0.079-1.999-0.263c0.585-0.596,1.346-0.48,2.059-0.48c3.78,0,7.564-0.06,11.345,0.045c1.598,0.011,3.203,0,4.815,0
		c-4.8-0.956-9.541-2.171-14.311-3.263c-3.642-0.833-7.309-1.556-10.929-2.49c-0.679-0.176-1.343-0.18-1.999,0.083
		c-0.544-0.608-0.855-1.339-1.114-2.096c0.383-0.75,1.013-0.581,1.646-0.469c3.439,0.615,6.766,1.725,10.19,2.381
		c5.768,1.103,11.424,2.689,17.173,3.882c1.616,0.334,3.207,0.776,4.819,1.121C364.342,221.251,365.182,221.367,365.152,222.387z"/>
	<path fill="#A81E73" d="M342.421,203.684c0-0.971,0-1.946,0-2.918c0.383-0.341,0.814-0.244,1.245-0.135
		c5.854,1.451,11.772,2.625,17.604,4.182c0.649,0.173,1.575,0.195,1.294,1.328c-0.491,0.919-0.934,1.883-2.081,2.168
		c-2.997-1.305-6.229-1.729-9.372-2.468C348.2,205.154,345.275,204.561,342.421,203.684z"/>
	<path fill="#7C1770" d="M353.754,222.368c-4.59,0.011-9.177,0.019-13.768,0.03c-3.424-0.465-6.094-2.183-8.18-4.887
		c0.21-1.114,1.076-0.754,1.699-0.66c1.916,0.281,3.765,0.908,5.671,1.271c4.137,0.791,8.153,2.13,12.327,2.768
		C352.404,221.025,353.447,221.205,353.754,222.368z"/>
	<path fill="#BB2175" d="M342.413,184.722c4.65,1.028,9.207,2.464,13.925,3.21c2.183,0.345,4.324,0.953,6.484,1.444
		c0,0.78,0,1.556,0,2.336c-3.608-0.345-7.032-1.526-10.55-2.299c-3.282-0.72-6.507-1.714-9.86-2.081
		C342.413,186.462,342.413,185.592,342.413,184.722z"/>
	<path fill="#CB2577" d="M375.975,177.394c0.293,2.145,0.323,4.29-0.019,6.432c-2.066,0.315-4.144,0.064-6.218,0.135
		c-0.525,0.019-0.645-0.289-0.641-0.743c0.007-1.744,0.007-3.488,0-5.228c0-0.465,0.146-0.746,0.66-0.728
		C371.827,177.334,373.909,177.094,375.975,177.394z"/>
	<path fill="#AD1F74" d="M342.417,196.971c2.828,0.544,5.689,0.968,8.48,1.669c2.614,0.656,5.247,1.215,7.868,1.826
		c1.35,0.315,2.708,0.593,4.062,0.889c0,0.679,0,1.361,0,2.04c-0.833,0.608-1.714,0.21-2.528,0.022
		c-5.479-1.279-10.966-2.524-16.468-3.717c-0.529-0.113-1.043-0.251-1.414-0.683C342.417,198.332,342.417,197.649,342.417,196.971z"
		/>
	<path fill="#A41E73" d="M342.421,203.684c0.713-0.315,1.335-0.071,2.059,0.131c2.254,0.641,4.564,1.088,6.848,1.628
		c2.809,0.664,5.607,1.369,8.423,2.003c0.544,0.124,0.761,0.338,0.728,0.859c-1.624,0.686-3.312,0.289-4.977,0.304
		c-0.131-0.06-0.27-0.12-0.416-0.105c-4.017,0.473-7.786-0.788-11.611-1.65c-0.36-0.083-0.623-0.244-0.829-0.536
		c-0.334-0.304-0.338-0.701-0.319-1.106C342.357,204.704,342.387,204.194,342.421,203.684z"/>
	<path fill="#871971" d="M365.152,222.387c-0.473-0.941-1.463-0.9-2.265-1.088c-6.188-1.451-12.391-2.839-18.587-4.26
		c-4.403-1.009-8.802-2.033-13.201-3.064c-0.465-0.109-0.859-0.008-1.249,0.218c-0.195-0.458-0.443-0.9-0.364-1.425
		c0.053-0.056,0.105-0.116,0.154-0.173c0.66-0.353,1.32-0.116,1.965,0.03c1.916,0.428,3.814,0.956,5.749,1.298
		c0.443,0.079,0.81,0.285,1.14,0.57c1.193,1.125,2.727,1.256,4.234,1.373c1.238,0.098,2.487,0.064,3.728,0.086
		c3.282,0.623,6.496,1.556,9.762,2.239c3.278,0.686,6.496,1.62,9.792,2.231c0.679,0.128,1.448,0.323,1.796,1.091
		C367.061,222.222,366.112,222.316,365.152,222.387z"/>
	<path fill="#AA1E73" d="M342.417,199.015c3.687,0.686,7.317,1.631,10.981,2.408c3.139,0.664,6.222,1.628,9.428,1.969
		c0.071,0.93,0.248,1.871-0.266,2.745c-0.007-0.66-0.551-0.769-1.001-0.866c-4.099-0.889-8.15-1.999-12.267-2.835
		c-2.299-0.465-4.613-0.998-6.874-1.673C342.417,200.181,342.417,199.6,342.417,199.015z"/>
	<path fill="#BF2375" d="M329.186,211.301c-0.33-0.638-0.218-1.331-0.218-2.003c-0.008-10.25,0.019-20.499-0.022-30.749
		c-0.004-1.193,0.293-1.504,1.481-1.305c3.582,0.608,5.427,2.847,5.517,6.871c-1.609-0.63-3.353-0.773-4.973-1.369
		c-0.949-0.349-1.35,0.038-1.343,1.005c0.007,0.964,0.011,1.928,0.011,2.892c0.045,1.208,0.038,2.415,0.011,3.623
		c0.038,1.343,0.041,2.689,0,4.032c0.03,1.073,0.041,2.149-0.004,3.222c0.019,1.065,0.045,2.13,0,3.195
		c0.022,0.964,0.034,1.928-0.004,2.892c0.011,0.604,0.03,1.211,0,1.815c0.019,0.69,0.026,1.376,0.007,2.066
		c-0.019,0.866,0.041,1.736-0.019,2.603C329.621,210.547,329.591,210.993,329.186,211.301z"/>
	<path fill="#801870" d="M353.754,222.368c-1.695-1.478-3.912-1.2-5.884-1.736c-2.04-0.559-4.065-1.2-6.139-1.568
		c-2.997-0.529-5.914-1.388-8.903-1.928c-0.379-0.068-0.788-0.038-1.02,0.379c-0.394-0.33-0.709-0.713-0.844-1.223
		c0.015-0.533,0.03-0.945,0.825-0.716c1.241,0.356,2.531,0.518,3.792,0.844c3.683,0.945,7.426,1.65,11.142,2.468
		c1.646,0.364,3.285,0.773,4.928,1.159c2.535,0.596,5.07,1.185,7.602,1.785c0.18,0.041,0.379,0.109,0.371,0.54
		C357.673,222.368,355.712,222.368,353.754,222.368z"/>
	<path fill="#B92175" d="M329.253,186.458c-0.007-1.11,0.022-2.224-0.03-3.334c-0.045-0.979,0.45-1.234,1.253-0.968
		c1.511,0.503,3.015,1.005,4.617,1.088c0.596,0.03,0.484,0.671,0.859,0.874c0.075,0.529,0.21,1.054,0.21,1.583
		c0.015,8.127,0.015,16.254,0.015,24.377c-0.705-0.146-0.525-0.746-0.623-1.208c-0.034-0.668-0.03-1.335-0.015-2.006
		c-0.007-0.596-0.034-1.193-0.004-1.785c-0.03-0.96-0.038-1.92-0.008-2.88c-0.038-1.155-0.038-2.31-0.004-3.465
		c-0.034-1.069-0.038-2.134,0-3.203c-0.026-1.215-0.038-2.43,0.007-3.642c-0.09-1.103,0.375-2.336-0.244-3.282
		c-0.634-0.964-1.988-0.514-2.963-0.923C331.305,187.265,330.108,187.283,329.253,186.458z"/>
	<path fill="#8A1A71" d="M367.811,221.513c-3.758-1.376-7.733-1.879-11.577-2.918c-2.374-0.641-4.8-1.091-7.163-1.774
		c-0.87-0.251-2.018,0.218-2.61-0.87c1.751,0,3.503,0,5.258,0c3.593,0.791,7.148,1.748,10.749,2.501
		c1.856,0.39,3.653,1.001,5.521,1.35c0.518,0.098,1.024,0.33,1.309,0.844C368.943,221.183,368.426,221.434,367.811,221.513z"/>
	<path fill="#A41E73" d="M376.005,210.438c-0.015,0.184-0.03,0.368-0.045,0.548c-0.353,0.469,0.011,1.061-0.27,1.541
		c-0.075,0.93-0.349,1.785-0.904,2.546c-1.553-1.95-3.799-1.834-5.952-1.988c-0.323-0.022-0.66,0.214-0.975-0.049
		c0.533-1.02,0.938-2.081,1.121-3.222c0.176-0.236,0.071-0.626,0.409-0.776c0.461-0.203,0.956-0.233,1.403-0.056
		c1.571,0.619,3.289,0.6,4.875,1.148C375.814,210.194,375.923,210.299,376.005,210.438z"/>
	<path fill="#911B72" d="M372.161,218.588c-0.375,0.585-0.81,1.114-1.47,1.403c-4.088-1.016-8.21-1.886-12.294-2.922
		c-0.821-0.21-1.871-0.053-2.299-1.118c2.393-0.011,4.785-0.022,7.178-0.034c2.974-0.086,5.734,0.844,8.491,1.781
		C372.15,217.83,372.461,218.1,372.161,218.588z"/>
	<path fill="#BC2376" d="M372.454,197.578c-0.971-0.135-2.516,0.536-3.278-0.251c-0.75-0.776-0.21-2.31-0.225-3.507
		c-0.038-3.004-0.011-3.004,3.027-3.004c1.069,0,2.138,0.038,3.203-0.011c0.773-0.038,1.013,0.263,0.99,1.013
		c-0.041,1.553-0.06,3.105,0.007,4.654c0.041,0.923-0.311,1.193-1.178,1.125C374.231,197.529,373.451,197.578,372.454,197.578z"/>
	<path fill="#8D1A71" d="M356.098,215.951c1.71,0.788,3.574,1.013,5.382,1.444c2.715,0.653,5.449,1.223,8.168,1.86
		c0.416,0.098,0.829,0.3,1.043,0.735c-0.555,0.026-0.769,0.776-1.395,0.656c-4.485-1.298-9.057-2.243-13.599-3.312
		c-1.339-0.315-2.824-0.45-3.983-1.384C353.177,215.951,354.636,215.951,356.098,215.951z"/>
	<path fill="#921B72" d="M335.925,208.942c0.068,0.383-0.101,0.818,0.248,1.136c0.131,0.593,0.259,1.185,0.39,1.778
		c-2.494-0.334-4.947-0.848-7.306-1.748c-0.004-0.874-0.004-1.748-0.008-2.621C331.53,207.73,333.769,208.135,335.925,208.942z"/>
	<path fill="#AC2175" d="M369.247,209.234c-0.086,0.191-0.176,0.383-0.263,0.578c-0.015-1.5,0.007-3.004-0.056-4.504
		c-0.034-0.803,0.308-0.986,1.028-0.971c1.744,0.038,3.492,0.015,5.236,0.011c0.521,0,1.001,0.022,0.968,0.735
		c-0.083,1.785,0.191,3.578-0.15,5.356l-0.083-0.06c-0.559-0.728-0.326-1.586-0.375-2.393c-0.038-0.626-0.146-1.163-0.885-1.298
		c-1.29-0.236-2.532-0.664-3.814-0.938c-1.088-0.233-1.245,0.191-1.223,1.106C369.652,207.659,369.832,208.518,369.247,209.234z"/>
	<path fill="#971C72" d="M372.161,218.588c-0.034-0.319-0.188-0.488-0.521-0.593c-2.745-0.87-5.562-1.444-8.367-2.078
		c0.998-0.413,1.999-0.825,3-1.238c1.954,0.533,3.927,0.99,5.873,1.541c0.544,0.154,1.478,0.12,1.181,1.193
		C373.042,217.909,372.765,218.408,372.161,218.588z"/>
	<path fill="#9F1D73" d="M367.859,213.033c1.988-0.806,3.814,0.022,5.704,0.484c0.968,0.236,1.335,0.626,1.223,1.556
		c-0.041,0.401-0.232,0.716-0.529,0.983c-1.459-0.63-3.019-0.881-4.564-1.185c-0.893-0.176-1.8-0.341-2.269-1.279
		C367.571,213.401,367.713,213.217,367.859,213.033z"/>
	<path fill="#9A1C72" d="M367.424,213.589c1.594,1.028,3.465,1.088,5.236,1.448c0.735,0.15,1.279,0.338,1.598,1.016
		c-0.176,0.548-0.488,0.998-0.93,1.361c-0.12-0.788-0.833-0.709-1.335-0.848c-1.519-0.428-3.049-0.81-4.59-1.155
		c-0.495-0.113-0.941-0.195-1.133-0.731C366.656,214.316,367.042,213.952,367.424,213.589z"/>
	<path fill="#8D1B72" d="M329.257,210.108c2.509,0.274,4.965,0.773,7.306,1.748c0.206,0.386,0.413,0.773,0.623,1.155
		c-0.566,0.45-1.193,0.259-1.785,0.113c-1.44-0.356-2.925-0.484-4.35-0.9c-0.638-0.188-1.121-0.068-1.493,0.484l-0.067,0.056
		c-0.33-0.443-0.293-0.956-0.296-1.463C329.212,210.903,329.234,210.506,329.257,210.108z"/>
	<path fill="#A11F74" d="M342.642,206.317c2.588,0.42,5.1,1.099,7.598,1.92c1.091,0.36,2.389,0.079,3.593,0.128
		c0.559,0.022,1.166-0.199,1.665,0.24c-3.18,0.019-6.361,0.09-9.537,0.034C344.416,208.612,343.216,207.858,342.642,206.317z"/>
	<path fill="#891A71" d="M329.553,212.711c-0.139-1.013,0.21-1.234,1.226-0.986c2.115,0.514,4.268,0.87,6.402,1.29
		c0.439,0.491,0.874,0.986,1.313,1.478C335.46,214.162,332.599,212.992,329.553,212.711z"/>
	<path fill="#C92979" d="M375.975,177.394c-1.838,0.004-3.679,0.049-5.517-0.007c-0.964-0.03-1.279,0.319-1.234,1.26
		c0.064,1.305,0.079,2.618-0.004,3.919c-0.067,1.076,0.405,1.305,1.365,1.275c1.789-0.056,3.582-0.015,5.371-0.015
		c-2.141,0.48-4.309,0.105-6.466,0.199c-0.548,0.022-0.555-0.42-0.555-0.821c0-1.744,0.004-3.488,0-5.232
		c0-0.416,0.038-0.825,0.585-0.795C371.674,177.289,373.841,176.876,375.975,177.394z"/>
	<path fill="#CA2879" d="M362.766,177.401c-5.761-0.011-11.517-0.022-17.278-0.03c0.326-0.064,0.649-0.184,0.975-0.184
		c5.172-0.011,10.347-0.011,15.519-0.004C362.26,177.18,362.575,177.094,362.766,177.401z"/>
	<path fill="#A81F74" d="M375.69,212.527c0.034-0.525-0.229-1.099,0.27-1.541C376.001,211.522,376.005,212.051,375.69,212.527z"/>
	<path fill="#B01F74" d="M335.925,191.713c0,1.264,0,2.531,0,3.795c-0.311,0.281-0.69,0.398-1.08,0.304
		c-1.875-0.454-3.803-0.69-5.592-1.47c0-1.361,0-2.727,0-4.088c0.191-0.169,0.431-0.293,0.668-0.229
		C331.923,190.58,334.035,190.756,335.925,191.713z"/>
	<path fill="#B52074" d="M335.925,191.713c-1.778-0.079-3.435-0.713-5.145-1.106c-0.51-0.116-1.016-0.236-1.526-0.353
		c0-1.264,0-2.532,0-3.795c1.946,0.319,3.762,1.193,5.757,1.309c0.645,0.038,1.001,0.443,0.949,1.189
		C335.891,189.868,335.933,190.794,335.925,191.713z"/>
	<path fill="#AB1F74" d="M329.253,194.342c1.736-0.124,3.308,0.63,4.958,0.949c0.574,0.113,1.133,0.229,1.714,0.218
		c0,1.073,0,2.141,0,3.214c-0.15,0.124-0.308,0.281-0.495,0.285c-2.179,0.03-4.272-0.315-6.177-1.451
		C329.253,196.483,329.253,195.411,329.253,194.342z"/>
	<path fill="#A71E73" d="M329.253,197.556c2.235,0.323,4.354,1.309,6.672,1.166c0,1.166,0,2.336,0,3.503
		c-0.233,0.203-0.514,0.3-0.799,0.225c-1.969-0.514-4.088-0.518-5.873-1.684C329.253,199.697,329.253,198.625,329.253,197.556z"/>
	<path fill="#A41D73" d="M329.253,200.766c2.224,0.488,4.448,0.975,6.672,1.459c0,0.971,0,1.946,0,2.918
		c-1.478,0.326-2.813-0.431-4.227-0.611c-0.818-0.105-1.725-0.293-2.445-0.848C329.253,202.712,329.253,201.737,329.253,200.766z"/>
	<path fill="#991C72" d="M335.925,208.942c-2.284-0.21-4.538-0.559-6.676-1.451c0-0.683,0-1.369,0.004-2.051
		c0.619-0.54,1.309-0.221,1.943-0.094c1.635,0.326,3.357,0.42,4.733,1.549C335.925,207.577,335.925,208.259,335.925,208.942z"/>
	<path fill="#9F1D73" d="M335.925,206.894c-2.194-0.626-4.384-1.275-6.672-1.455c0-0.585,0-1.17,0-1.751
		c2.265,0.304,4.485,0.806,6.672,1.459C335.925,205.728,335.925,206.309,335.925,206.894z"/>
	<path fill="#A81F74" d="M369.247,209.234c0-0.536-0.004-1.069-0.004-1.605c0-2.779,0.007-2.802,2.749-2.096
		c1.076,0.278,2.108,0.728,3.233,0.78c0.698,0.03,0.735,0.484,0.731,1.005c-0.015,1.02-0.019,2.04-0.03,3.06
		c-1.643-0.195-3.3-0.311-4.849-0.956C370.47,209.167,369.858,209.272,369.247,209.234z"/>
	<path fill="#B82275" d="M372.465,197.259c-0.049,0-0.098,0-0.146,0c-3.315,0-3.555-0.296-3.087-3.608
		c0.075-0.54,0.251-0.784,0.818-0.735c1.883,0.169,3.627,0.93,5.479,1.279c0.923,0.176,0.308,1.53,0.401,2.344
		c0.083,0.698-0.48,0.72-0.99,0.716C374.115,197.256,373.29,197.259,372.465,197.259z"/>
</g>
</svg>
