<?xml version="1.0" encoding="utf-8"?>
<!-- Generator: Adobe Illustrator 17.0.0, SVG Export Plug-In . SVG Version: 6.00 Build 0)  -->
<!DOCTYPE svg PUBLIC "-//W3C//DTD SVG 1.1//EN" "http://www.w3.org/Graphics/SVG/1.1/DTD/svg11.dtd">
<svg version="1.1" id="Layer_1" xmlns="http://www.w3.org/2000/svg" xmlns:xlink="http://www.w3.org/1999/xlink" x="0px" y="0px"
	 width="418px" height="130.33px" viewBox="-158.84 -82.585 418 245.33" enable-background="new -158.84 -82.585 418 245.33"
	 xml:space="preserve">
<rect x="-158.84" y="-81.252" fill="#FFFFFF" width="418" height="242.665"/>
<g>
	<path fill="#C52275" d="M184.163,111.135c0.497-0.963,1.27-1.513,2.364-1.581c3.097-0.223,6.201-0.064,9.302-0.091
		c2.087-0.017,4.175-0.081,6.258,0.118c0.216,1.837,0.125,3.681,0.051,5.522c-0.456,0.395-0.973,0.317-1.493,0.182
		c-4.529-1.175-9.139-2.006-13.675-3.148C186.01,111.895,184.98,111.804,184.163,111.135z"/>
	<path fill="#B32074" d="M202.141,125.097c0,1.229,0,2.455,0,3.685c-1.442,0.348-2.766-0.287-4.11-0.567
		c-4.151-0.871-8.251-1.993-12.402-2.881c-0.702-0.152-1.493-0.206-2.013-0.838c-0.044-1.081-0.034-2.162-0.007-3.242
		c0.378-0.52,0.855-0.284,1.307-0.165c3.806,1.006,7.674,1.753,11.504,2.665C198.324,124.206,200.253,124.57,202.141,125.097z"/>
	<path fill="#C22275" d="M183.761,121.156c0,1.138,0,2.28,0.003,3.418c0.54,0.8,0.304,1.699,0.334,2.567
		c0.014,0.625,0.027,1.253-0.003,1.878c0.02,0.547,0.02,1.094,0,1.638c0.034,0.871,0.02,1.743-0.003,2.614
		c0.007,0.496,0.02,0.993-0.412,1.354c-0.23-0.409-0.135-0.858-0.135-1.287c-0.003-6.529-0.003-13.057,0.007-19.586
		c0-0.915-0.041-1.851,0.615-2.618c2.577,0.581,5.174,1.077,7.721,1.763c3.009,0.807,6.13,1.104,9.089,2.121
		c0.358,0.122,0.777,0.064,1.165,0.088c0,0.878,0,1.753,0,2.631c-0.689,0.557-1.405,0.236-2.124,0.081
		c-4.695-1.017-9.335-2.27-14.05-3.185c-1.861-0.361-1.864-0.331-1.874,1.625c0.02,0.77,0.03,1.54,0.007,2.31
		C184.071,119.44,184.304,120.349,183.761,121.156z"/>
	<path fill="#B82174" d="M183.761,121.156c0-0.878,0-1.756,0-2.631c0.453-0.415,0.973-0.301,1.489-0.193
		c4.533,0.963,9.031,2.064,13.517,3.229c1.125,0.294,2.391,0.088,3.374,0.909c0,0.878,0,1.753,0,2.631
		c-3.381-0.064-6.559-1.179-9.805-1.922C189.475,122.52,186.544,122.135,183.761,121.156z"/>
	<path fill="#BE2275" d="M183.757,116.174c-0.003-0.044-0.01-0.088-0.014-0.132c-0.081-2.205-0.095-2.135,2.097-1.783
		c4.512,0.723,8.869,2.131,13.358,2.949c0.979,0.179,1.902,0.682,2.942,0.524c0,0.878,0,1.753,0,2.631
		c-0.527,0.415-1.098,0.196-1.635,0.071c-5.184-1.196-10.409-2.209-15.553-3.577C184.49,116.735,183.99,116.691,183.757,116.174z"/>
	<path fill="#AF1F74" d="M183.761,127.205c0-0.875,0-1.753,0-2.628c2.705,0.615,5.411,1.223,8.113,1.841
		c3.421,0.784,6.843,1.577,10.264,2.368c0,0.79,0,1.577,0,2.368c-0.824,0.277-1.635,0.105-2.442-0.074
		c-4.202-0.925-8.339-2.151-12.591-2.854C185.956,128.029,184.808,127.772,183.761,127.205z"/>
	<path fill="#831971" d="M204.235,150.094c-0.571,0.294-1.196,0.243-1.804,0.243c-6.353,0.01-12.706,0.01-19.059,0
		c-0.605,0-1.233,0.071-1.8-0.236c0.527-0.537,1.212-0.432,1.854-0.432c3.404,0,6.812-0.054,10.217,0.041
		c1.439,0.01,2.884,0,4.337,0c-4.323-0.861-8.592-1.956-12.888-2.938c-3.28-0.75-6.583-1.402-9.842-2.243
		c-0.611-0.159-1.209-0.162-1.8,0.074c-0.49-0.547-0.77-1.206-1.003-1.888c0.345-0.675,0.912-0.523,1.483-0.422
		c3.097,0.554,6.093,1.554,9.177,2.145c5.195,0.993,10.288,2.422,15.465,3.496c1.456,0.301,2.888,0.699,4.34,1.01
		C203.505,149.071,204.262,149.175,204.235,150.094z"/>
	<path fill="#A81E73" d="M183.764,133.251c0-0.875,0-1.753,0-2.628c0.345-0.307,0.733-0.22,1.121-0.122
		c5.272,1.307,10.602,2.364,15.854,3.766c0.584,0.155,1.419,0.176,1.165,1.196c-0.442,0.827-0.841,1.695-1.874,1.952
		c-2.699-1.175-5.61-1.557-8.44-2.222C188.969,134.575,186.334,134.041,183.764,133.251z"/>
	<path fill="#7C1770" d="M193.971,150.077c-4.134,0.01-8.265,0.017-12.399,0.027c-3.084-0.419-5.488-1.966-7.366-4.401
		c0.189-1.003,0.969-0.679,1.53-0.594c1.726,0.253,3.391,0.817,5.107,1.145c3.725,0.713,7.343,1.918,11.102,2.493
		C192.755,148.868,193.694,149.03,193.971,150.077z"/>
	<path fill="#BB2175" d="M183.757,116.174c4.188,0.925,8.292,2.219,12.541,2.891c1.966,0.311,3.894,0.858,5.84,1.3
		c0,0.703,0,1.402,0,2.104c-3.249-0.311-6.333-1.375-9.501-2.07c-2.955-0.648-5.86-1.544-8.879-1.874
		C183.757,117.741,183.757,116.958,183.757,116.174z"/>
	<path fill="#CB2577" d="M213.982,109.574c0.263,1.932,0.29,3.864-0.017,5.792c-1.861,0.284-3.732,0.057-5.6,0.122
		c-0.473,0.017-0.581-0.26-0.578-0.669c0.007-1.571,0.007-3.141,0-4.708c0-0.419,0.132-0.672,0.594-0.655
		C210.247,109.52,212.121,109.304,213.982,109.574z"/>
	<path fill="#AD1F74" d="M183.761,127.205c2.547,0.49,5.124,0.871,7.636,1.503c2.354,0.591,4.725,1.094,7.086,1.645
		c1.216,0.284,2.439,0.534,3.658,0.8c0,0.611,0,1.226,0,1.837c-0.75,0.547-1.544,0.189-2.276,0.02
		c-4.934-1.152-9.876-2.273-14.831-3.347c-0.476-0.101-0.939-0.226-1.273-0.615C183.761,128.431,183.761,127.816,183.761,127.205z"
		/>
	<path fill="#A41E73" d="M183.764,133.251c0.642-0.284,1.202-0.064,1.854,0.118c2.03,0.578,4.11,0.979,6.167,1.466
		c2.53,0.598,5.049,1.233,7.586,1.804c0.49,0.111,0.686,0.304,0.655,0.773c-1.462,0.618-2.982,0.26-4.482,0.274
		c-0.118-0.054-0.243-0.108-0.375-0.095c-3.617,0.426-7.012-0.709-10.457-1.486c-0.324-0.074-0.561-0.22-0.746-0.483
		c-0.301-0.274-0.304-0.632-0.287-0.996C183.707,134.169,183.734,133.71,183.764,133.251z"/>
	<path fill="#871971" d="M204.235,150.094c-0.426-0.848-1.317-0.811-2.04-0.979c-5.573-1.307-11.159-2.557-16.739-3.837
		c-3.965-0.909-7.927-1.831-11.889-2.759c-0.419-0.098-0.773-0.007-1.125,0.196c-0.176-0.412-0.399-0.811-0.328-1.283
		c0.047-0.051,0.095-0.105,0.138-0.155c0.594-0.317,1.189-0.105,1.77,0.027c1.726,0.385,3.435,0.861,5.178,1.169
		c0.399,0.071,0.73,0.257,1.027,0.513c1.074,1.013,2.455,1.131,3.813,1.236c1.115,0.088,2.239,0.057,3.357,0.078
		c2.955,0.561,5.85,1.402,8.792,2.016c2.952,0.618,5.85,1.459,8.819,2.01c0.611,0.115,1.304,0.29,1.618,0.983
		C205.954,149.945,205.099,150.03,204.235,150.094z"/>
	<path fill="#AA1E73" d="M183.761,129.046c3.32,0.618,6.589,1.469,9.889,2.168c2.827,0.598,5.603,1.466,8.491,1.773
		c0.064,0.838,0.223,1.685-0.24,2.472c-0.007-0.594-0.497-0.692-0.902-0.78c-3.692-0.8-7.339-1.8-11.048-2.553
		c-2.07-0.419-4.154-0.898-6.191-1.506C183.761,130.096,183.761,129.573,183.761,129.046z"/>
	<path fill="#BF2375" d="M171.845,140.11c-0.297-0.574-0.196-1.199-0.196-1.804c-0.007-9.231,0.017-18.461-0.02-27.692
		c-0.003-1.074,0.263-1.354,1.334-1.175c3.225,0.547,4.887,2.563,4.968,6.188c-1.449-0.567-3.019-0.696-4.479-1.233
		c-0.855-0.314-1.216,0.034-1.209,0.905c0.007,0.868,0.01,1.736,0.01,2.604c0.04,1.088,0.034,2.175,0.01,3.263
		c0.034,1.209,0.037,2.422,0,3.631c0.027,0.966,0.037,1.935-0.003,2.901c0.017,0.959,0.041,1.918,0,2.878
		c0.02,0.868,0.03,1.736-0.003,2.604c0.01,0.544,0.027,1.091,0,1.635c0.017,0.621,0.024,1.24,0.007,1.861
		c-0.017,0.78,0.037,1.564-0.017,2.344C172.237,139.431,172.21,139.833,171.845,140.11z"/>
	<path fill="#801870" d="M193.971,150.077c-1.527-1.331-3.523-1.081-5.299-1.564c-1.837-0.503-3.661-1.081-5.529-1.412
		c-2.699-0.476-5.326-1.25-8.018-1.736c-0.341-0.061-0.709-0.034-0.919,0.341c-0.355-0.297-0.638-0.642-0.76-1.101
		c0.014-0.48,0.027-0.851,0.743-0.645c1.118,0.321,2.28,0.466,3.415,0.76c3.317,0.851,6.687,1.486,10.034,2.222
		c1.483,0.328,2.959,0.696,4.438,1.044c2.283,0.537,4.566,1.067,6.846,1.608c0.162,0.037,0.341,0.098,0.334,0.486
		C197.5,150.077,195.734,150.077,193.971,150.077z"/>
	<path fill="#B92175" d="M171.906,117.738c-0.007-1,0.02-2.003-0.027-3.003c-0.041-0.882,0.405-1.111,1.128-0.871
		c1.361,0.453,2.715,0.905,4.158,0.979c0.537,0.027,0.436,0.605,0.773,0.787c0.068,0.476,0.189,0.949,0.189,1.425
		c0.014,7.319,0.014,14.638,0.014,21.954c-0.635-0.132-0.473-0.672-0.561-1.088c-0.03-0.601-0.027-1.202-0.014-1.807
		c-0.007-0.537-0.03-1.074-0.003-1.608c-0.027-0.865-0.034-1.729-0.007-2.594c-0.034-1.04-0.034-2.081-0.003-3.121
		c-0.03-0.963-0.034-1.922,0-2.884c-0.024-1.094-0.034-2.189,0.007-3.28c-0.081-0.993,0.338-2.104-0.22-2.955
		c-0.571-0.868-1.79-0.463-2.668-0.831C173.753,118.464,172.676,118.481,171.906,117.738z"/>
	<path fill="#8A1A71" d="M206.629,149.307c-3.384-1.24-6.964-1.692-10.426-2.628c-2.138-0.578-4.323-0.983-6.451-1.598
		c-0.784-0.226-1.817,0.196-2.351-0.784c1.577,0,3.155,0,4.735,0c3.236,0.713,6.437,1.574,9.68,2.253
		c1.672,0.351,3.29,0.902,4.972,1.216c0.466,0.088,0.922,0.297,1.179,0.76C207.649,149.01,207.183,149.236,206.629,149.307z"/>
	<path fill="#A41E73" d="M214.009,139.333c-0.014,0.165-0.027,0.331-0.041,0.493c-0.317,0.422,0.01,0.956-0.243,1.388
		c-0.068,0.838-0.314,1.608-0.814,2.293c-1.398-1.756-3.421-1.652-5.36-1.79c-0.29-0.02-0.594,0.193-0.878-0.044
		c0.48-0.919,0.844-1.874,1.01-2.901c0.159-0.213,0.064-0.564,0.368-0.699c0.415-0.182,0.861-0.209,1.263-0.051
		c1.415,0.557,2.962,0.54,4.391,1.034C213.837,139.114,213.935,139.208,214.009,139.333z"/>
	<path fill="#911B72" d="M210.547,146.673c-0.338,0.527-0.73,1.003-1.324,1.263c-3.681-0.915-7.393-1.699-11.071-2.631
		c-0.74-0.189-1.685-0.047-2.07-1.006c2.155-0.01,4.31-0.02,6.464-0.03c2.678-0.078,5.164,0.76,7.647,1.604
		C210.537,145.99,210.818,146.234,210.547,146.673z"/>
	<path fill="#BC2376" d="M210.811,127.752c-0.875-0.122-2.266,0.483-2.952-0.226c-0.675-0.699-0.189-2.081-0.203-3.158
		c-0.034-2.705-0.01-2.705,2.726-2.705c0.963,0,1.925,0.034,2.884-0.01c0.696-0.034,0.912,0.236,0.892,0.912
		c-0.037,1.398-0.054,2.797,0.007,4.191c0.037,0.831-0.28,1.074-1.061,1.013C212.412,127.708,211.709,127.752,210.811,127.752z"/>
	<path fill="#8D1A71" d="M196.082,144.298c1.54,0.709,3.219,0.912,4.847,1.3c2.445,0.588,4.907,1.101,7.356,1.675
		c0.375,0.088,0.746,0.27,0.939,0.662c-0.5,0.024-0.692,0.699-1.256,0.591c-4.039-1.169-8.157-2.02-12.247-2.982
		c-1.206-0.284-2.543-0.405-3.587-1.246C193.451,144.298,194.764,144.298,196.082,144.298z"/>
	<path fill="#921B72" d="M177.914,137.986c0.061,0.345-0.091,0.736,0.223,1.023c0.118,0.534,0.233,1.067,0.351,1.601
		c-2.246-0.301-4.455-0.763-6.579-1.574c-0.003-0.787-0.003-1.574-0.007-2.361C173.956,136.895,175.972,137.26,177.914,137.986z"/>
	<path fill="#AC2175" d="M207.923,138.249c-0.078,0.172-0.159,0.345-0.236,0.52c-0.014-1.351,0.007-2.705-0.051-4.056
		c-0.03-0.723,0.277-0.888,0.925-0.875c1.571,0.034,3.144,0.014,4.715,0.01c0.469,0,0.902,0.02,0.871,0.662
		c-0.074,1.608,0.172,3.222-0.135,4.823l-0.074-0.054c-0.503-0.655-0.294-1.429-0.338-2.155c-0.034-0.564-0.132-1.047-0.797-1.169
		c-1.162-0.213-2.28-0.598-3.435-0.844c-0.979-0.209-1.121,0.172-1.101,0.996C208.288,136.831,208.45,137.604,207.923,138.249z"/>
	<path fill="#971C72" d="M210.547,146.673c-0.03-0.287-0.169-0.439-0.469-0.534c-2.472-0.784-5.009-1.3-7.535-1.871
		c0.898-0.372,1.8-0.743,2.702-1.115c1.76,0.48,3.536,0.892,5.289,1.388c0.49,0.138,1.331,0.108,1.064,1.074
		C211.341,146.061,211.091,146.511,210.547,146.673z"/>
	<path fill="#9F1D73" d="M206.673,141.671c1.79-0.726,3.435,0.02,5.137,0.436c0.871,0.213,1.202,0.564,1.101,1.402
		c-0.037,0.361-0.209,0.645-0.476,0.885c-1.314-0.567-2.719-0.794-4.11-1.067c-0.804-0.159-1.621-0.307-2.043-1.152
		C206.413,142.002,206.542,141.836,206.673,141.671z"/>
	<path fill="#9A1C72" d="M206.282,142.171c1.435,0.925,3.121,0.979,4.715,1.304c0.662,0.135,1.152,0.304,1.439,0.915
		c-0.159,0.493-0.439,0.898-0.838,1.226c-0.108-0.709-0.75-0.638-1.202-0.763c-1.368-0.385-2.746-0.73-4.134-1.04
		c-0.446-0.101-0.848-0.176-1.02-0.659C205.589,142.826,205.937,142.498,206.282,142.171z"/>
	<path fill="#8D1B72" d="M171.909,139.036c2.26,0.247,4.472,0.696,6.579,1.574c0.186,0.348,0.372,0.696,0.561,1.04
		c-0.51,0.405-1.074,0.233-1.608,0.101c-1.297-0.321-2.634-0.436-3.918-0.811c-0.574-0.169-1.01-0.061-1.344,0.436l-0.061,0.051
		c-0.297-0.399-0.263-0.861-0.267-1.317C171.869,139.752,171.889,139.394,171.909,139.036z"/>
	<path fill="#A11F74" d="M183.963,135.622c2.33,0.378,4.593,0.99,6.843,1.729c0.983,0.324,2.151,0.071,3.236,0.115
		c0.503,0.02,1.05-0.179,1.5,0.216c-2.864,0.017-5.728,0.081-8.589,0.03C185.561,137.689,184.48,137.01,183.963,135.622z"/>
	<path fill="#891A71" d="M172.176,141.38c-0.125-0.912,0.189-1.111,1.104-0.888c1.905,0.463,3.844,0.784,5.765,1.162
		c0.395,0.442,0.787,0.888,1.182,1.331C177.495,142.687,174.918,141.633,172.176,141.38z"/>
	<path fill="#C92979" d="M213.982,109.574c-1.655,0.003-3.313,0.044-4.968-0.007c-0.868-0.027-1.152,0.287-1.111,1.135
		c0.057,1.175,0.071,2.357-0.003,3.529c-0.061,0.969,0.365,1.175,1.229,1.148c1.611-0.051,3.225-0.014,4.837-0.014
		c-1.929,0.432-3.881,0.095-5.823,0.179c-0.493,0.02-0.5-0.378-0.5-0.74c0-1.571,0.003-3.141,0-4.712
		c0-0.375,0.034-0.743,0.527-0.716C210.108,109.48,212.06,109.108,213.982,109.574z"/>
	<path fill="#CA2879" d="M202.087,109.581c-5.188-0.01-10.372-0.02-15.56-0.027c0.294-0.057,0.584-0.165,0.878-0.165
		c4.658-0.01,9.318-0.01,13.976-0.003C201.631,109.382,201.915,109.304,202.087,109.581z"/>
	<path fill="#A81F74" d="M213.726,141.215c0.03-0.473-0.206-0.99,0.243-1.388C214.006,140.31,214.009,140.786,213.726,141.215z"/>
	<path fill="#B01F74" d="M177.914,122.47c0,1.138,0,2.28,0,3.418c-0.28,0.253-0.621,0.358-0.973,0.274
		c-1.689-0.409-3.425-0.621-5.036-1.324c0-1.226,0-2.455,0-3.681c0.172-0.152,0.388-0.263,0.601-0.206
		C174.31,121.45,176.212,121.608,177.914,122.47z"/>
	<path fill="#B52074" d="M177.914,122.47c-1.601-0.071-3.094-0.642-4.634-0.996c-0.459-0.105-0.915-0.213-1.375-0.317
		c0-1.138,0-2.28,0-3.418c1.753,0.287,3.388,1.074,5.184,1.179c0.581,0.034,0.902,0.399,0.855,1.071
		C177.884,120.808,177.921,121.642,177.914,122.47z"/>
	<path fill="#AB1F74" d="M171.906,124.837c1.564-0.111,2.979,0.567,4.465,0.854c0.517,0.101,1.02,0.206,1.544,0.196
		c0,0.966,0,1.929,0,2.894c-0.135,0.111-0.277,0.253-0.446,0.257c-1.962,0.027-3.847-0.284-5.563-1.307
		C171.906,126.766,171.906,125.8,171.906,124.837z"/>
	<path fill="#A71E73" d="M171.906,127.732c2.013,0.29,3.921,1.179,6.009,1.05c0,1.05,0,2.104,0,3.155
		c-0.209,0.182-0.463,0.27-0.719,0.203c-1.773-0.463-3.681-0.466-5.289-1.516C171.906,129.66,171.906,128.694,171.906,127.732z"/>
	<path fill="#A41D73" d="M171.906,130.623c2.003,0.439,4.006,0.878,6.009,1.314c0,0.875,0,1.753,0,2.628
		c-1.331,0.294-2.533-0.388-3.806-0.551c-0.736-0.095-1.554-0.263-2.202-0.763C171.906,132.376,171.906,131.498,171.906,130.623z"/>
	<path fill="#991C72" d="M177.914,137.986c-2.057-0.189-4.087-0.503-6.012-1.307c0-0.615,0-1.233,0.003-1.847
		c0.557-0.486,1.179-0.199,1.75-0.084c1.473,0.294,3.023,0.378,4.262,1.395C177.914,136.756,177.914,137.371,177.914,137.986z"/>
	<path fill="#9F1D73" d="M177.914,136.142c-1.976-0.564-3.948-1.148-6.009-1.31c0-0.527,0-1.054,0-1.577
		c2.04,0.274,4.039,0.726,6.009,1.314C177.914,135.091,177.914,135.615,177.914,136.142z"/>
	<path fill="#A81F74" d="M207.923,138.249c0-0.483-0.003-0.963-0.003-1.446c0-2.503,0.007-2.523,2.476-1.888
		c0.969,0.25,1.898,0.655,2.911,0.703c0.628,0.027,0.662,0.436,0.659,0.905c-0.014,0.919-0.017,1.837-0.027,2.756
		c-1.479-0.176-2.972-0.28-4.367-0.861C209.024,138.188,208.474,138.283,207.923,138.249z"/>
	<path fill="#B82275" d="M210.821,127.465c-0.044,0-0.088,0-0.132,0c-2.986,0-3.202-0.267-2.78-3.249
		c0.068-0.486,0.226-0.706,0.736-0.662c1.695,0.152,3.266,0.838,4.934,1.152c0.831,0.159,0.277,1.378,0.361,2.111
		c0.074,0.628-0.432,0.648-0.892,0.645C212.307,127.462,211.564,127.465,210.821,127.465z"/>
</g>
<g>
	<path fill="#D8D9D9" d="M52.783,95.642c-54.591,0-109.182-0.038-163.777,0.079c-4.001,0.008-5.657-0.826-5.359-5.178
		c0.392-5.702,0.264-11.46,0.03-17.181c-0.132-3.273,1.124-4.386,4.186-3.99c0.592,0.075,1.207,0.011,1.806,0.011
		c108.88,0,217.764,0,326.644,0c5.936,0,5.936,0.004,5.94,5.774c0.004,5.43-0.2,10.868,0.072,16.284
		c0.177,3.5-1.135,4.288-4.42,4.269c-21.262-0.128-42.527-0.068-63.789-0.068C120.342,95.642,86.564,95.642,52.783,95.642z"/>
	<path fill="#4B7E7F" d="M-105.492,2.748c0-13.395,0.045-26.79-0.041-40.185c-0.015-2.297,0.943-2.719,2.96-2.715
		c21.56,0.049,43.123,0.053,64.683-0.004c2.134-0.008,2.904,0.656,2.892,2.836c-0.072,13.829-0.038,27.658-0.038,42.614
		c-6.06-5.819-11.43-10.963-16.789-16.114c-6.63-6.377-5.438-6.547-12.192-0.004c-4.744,4.593-4.752,4.567-8.994-0.618
		c-2.101-2.564-4.322-5.038-6.347-7.659c-2.364-3.062-4.442-2.972-6.856,0.011c-5.589,6.916-11.317,13.719-16.978,20.579
		c-0.464,0.566-0.826,1.214-1.237,1.825C-104.783,3.129-105.138,2.94-105.492,2.748z"/>
	<path fill="#4B7E7F" d="M-102.453,8.536c6.256-7.591,12.196-14.719,18.037-21.929c1.437-1.772,2.297-1.211,3.447,0.219
		c2.828,3.515,5.849,6.879,8.591,10.454c2.104,2.742,3.948,3.221,6.592,0.6c2.53-2.512,4.959-7.146,7.889-6.716
		c3.07,0.449,5.672,4.522,8.338,7.15c3.3,3.254,6.452,6.652,9.895,10.224C-60.404,8.536-81.032,8.536-102.453,8.536z"/>
	<path fill="#194C51" d="M9.988-47.307c-10.555,0-21.111-0.124-31.659,0.079c-3.066,0.06-3.737-0.924-3.786-3.805
		c-0.049-3.066,1.003-3.722,3.884-3.707c21.107,0.117,42.214,0.098,63.321,0.019c2.662-0.011,4.031,0.268,4.009,3.56
		c-0.019,3.258-1.037,3.979-4.111,3.926C31.098-47.42,20.543-47.307,9.988-47.307z"/>
	<path fill="#194C51" d="M-70.111-47.307c-10.695,0-21.39-0.132-32.081,0.083c-3.092,0.06-3.402-1.207-3.304-3.696
		c0.087-2.24-0.155-3.865,3.16-3.839c21.537,0.166,43.078,0.17,64.615,0c3.451-0.026,2.908,1.818,3.081,3.926
		c0.215,2.64-0.445,3.658-3.39,3.605C-48.721-47.424-59.416-47.307-70.111-47.307z"/>
	<path fill="#194C51" d="M87.835-47.307c-10.548,0-21.1-0.17-31.64,0.094c-3.492,0.087-3.322-1.584-3.469-4.043
		c-0.17-2.847,0.807-3.503,3.552-3.488c21.247,0.113,42.493,0.132,63.74-0.011c3.085-0.023,3.639,0.992,3.688,3.805
		c0.053,2.987-0.849,3.756-3.775,3.707C109.236-47.412,98.534-47.307,87.835-47.307z"/>
	<path fill="#194C51" d="M167.5-54.679c10.231,0,20.462,0.181,30.686-0.098c3.567-0.098,3.228,1.697,3.405,4.077
		c0.219,2.881-0.833,3.469-3.545,3.454c-20.609-0.113-41.218-0.117-61.828,0.004c-2.862,0.019-3.526-0.882-3.496-3.59
		c0.03-2.719,0.434-3.99,3.635-3.922C146.737-54.547,157.119-54.679,167.5-54.679z"/>
	<path fill="#4B7E7F" d="M120.471,11.372c-2.244-2.395-4.582-4.71-6.705-7.207c-1.727-2.029-3.262-2.561-5.001-0.147
		c-1.595,2.214-2.821,2.447-4.676-0.068c-4.148-5.615-4.288-5.506-8.564,0.173c-1.61,2.138-3.251,4.261-5.857,6.226
		c0-6.317-0.049-12.633,0.034-18.946c0.023-1.72,1.527-1.542,2.715-1.546c8.723-0.008,17.442,0.015,26.164-0.023
		c1.723-0.008,2.938,0.283,2.923,2.391c-0.041,6.264-0.015,12.528-0.015,18.788C121.149,11.131,120.81,11.252,120.471,11.372z"/>
	<path fill="#4B7E7F" d="M89.577-19.819c0-5.849,0.053-11.702-0.026-17.551c-0.03-2.266,1.075-2.73,3.073-2.715
		c8.591,0.072,17.181,0.094,25.768-0.011c2.319-0.03,3.205,0.667,3.153,3.07c-0.128,6-0.041,12.007-0.041,18.629
		c-3.511-1.908-5.374-4.808-7.576-7.233c-1.957-2.153-3.541-2.662-5.34-0.072c-1.882,2.715-3.285,1.705-4.597-0.517
		c-0.305-0.517-0.758-0.947-1.06-1.463c-1.923-3.311-3.666-3.869-5.966-0.136c-1.863,3.028-4.292,5.706-6.471,8.538
		C90.188-19.461,89.883-19.642,89.577-19.819z"/>
	<path fill="#4B7E7F" d="M53.137,11.976c0-7.486,0.049-13.591-0.026-19.693c-0.026-2.116,1.063-2.459,2.825-2.447
		c8.745,0.041,17.491,0.079,26.232-0.023c2.323-0.026,2.753,1.037,2.73,3.021c-0.072,6.015-0.026,12.03-0.026,19.335
		c-3.036-3.164-5.453-5.487-7.629-8.014c-1.769-2.055-3.311-2.515-4.978-0.06c-1.727,2.546-3.19,2.127-4.639-0.275
		c-0.618-1.026-1.471-1.912-2.138-2.915c-1.407-2.116-2.61-1.98-4.058,0.049C59.024,4.328,56.456,7.59,53.137,11.976z"/>
	<path fill="#4B7E7F" d="M84.815-17.745c-2.647-2.783-4.548-4.522-6.136-6.505c-2.387-2.983-4.514-4.793-7.508-0.547
		c-1.584,2.244-2.47-0.098-3.288-1.071c-4.597-5.476-4.574-5.495-8.907,0.204c-1.686,2.214-3.368,4.431-5.838,7.678
		c0-7.422,0.053-13.512-0.03-19.599c-0.026-2.067,0.958-2.5,2.76-2.489c8.719,0.049,17.438,0.011,26.153,0.034
		c1.128,0.004,2.734-0.343,2.757,1.433C84.867-31.988,84.815-25.366,84.815-17.745z"/>
	<path fill="#4B7E7F" d="M-3.019-23.993c-1.833-2.715-3.59-5.08-6.618-1.026c-1.738,2.327-2.44-0.249-3.179-1.146
		c-3.794-4.597-3.756-4.631-7.271-0.008c-1.539,2.029-3.073,4.062-5.464,7.214c0-6.777-0.053-12.335,0.03-17.89
		c0.026-1.821,1.625-1.437,2.742-1.441c7.535-0.03,15.069,0.004,22.6-0.03c1.531-0.008,2.606,0.17,2.576,2.138
		C2.317-30.672,2.37-25.163,2.37-19.163c-1.286-0.95-1.991-1.467-2.693-1.984C-1.763-21.58-2.725-22.47-3.019-23.993z"/>
	<path fill="#4B7E7F" d="M2.381,21.98c-2.391-2.5-4.028-4.035-5.457-5.747c-2.025-2.429-3.824-4.378-6.539-0.634
		c-1.697,2.342-2.474-0.158-3.168-1.097c-4.254-5.766-3.782-4.578-7.301-0.045c-1.561,2.018-3.092,4.058-5.464,7.169
		c0-6.716-0.03-12.271,0.023-17.826c0.015-1.516,1.286-1.429,2.331-1.429c7.693-0.015,15.382,0.045,23.076-0.045
		c2.044-0.023,2.557,0.822,2.527,2.689C2.328,10.264,2.381,15.513,2.381,21.98z"/>
	<path fill="#4B7E7F" d="M71.755,26.732c5.121,0,10.25,0.147,15.364-0.045c3.997-0.151,2.802,2.644,2.847,4.623
		c0.045,2.052,0.962,4.616-2.953,4.548c-10.242-0.181-20.492-0.196-30.731,0.004c-4.25,0.083-2.968-2.742-3.115-4.884
		c-0.158-2.3-0.441-4.507,3.224-4.314C61.501,26.932,66.634,26.732,71.755,26.732z"/>
	<path fill="#4B7E7F" d="M-88.054,55.943c-4.97,0-9.952-0.189-14.915,0.057c-4.216,0.211-3.032-2.67-3.149-4.838
		c-0.124-2.266-0.498-4.435,3.198-4.359c10.242,0.211,20.492,0.181,30.735,0.023c3.967-0.06,2.847,2.621,2.87,4.62
		c0.023,2.025,1.037,4.721-2.919,4.552C-77.503,55.774-82.782,55.943-88.054,55.943z"/>
	<path fill="#7F7F81" d="M168.854-33.749c-10.548,0-21.092,0.026-31.64-0.034c-1.312-0.008-3.356,0.792-3.481-1.629
		c-0.143-2.828,2.157-1.969,3.583-1.972c20.79-0.053,41.581-0.049,62.375,0c1.294,0.004,3.337-0.83,3.462,1.625
		c0.147,2.851-2.146,1.965-3.564,1.972C189.343-33.715,179.1-33.749,168.854-33.749z"/>
	<path fill="#7F7F81" d="M-69.866,28.629c-10.227,0-20.455,0.041-30.682-0.045c-1.407-0.011-3.715,1.011-3.881-1.652
		c-0.173-2.813,2.206-1.908,3.613-1.912c20.756-0.057,41.513-0.053,62.269-0.011c1.331,0.004,3.386-0.713,3.462,1.667
		c0.087,2.772-2.214,1.908-3.647,1.916C-49.11,28.659-59.488,28.629-69.866,28.629z"/>
	<path fill="#7F7F81" d="M168.375-24.789c-10.239,0-20.477,0.041-30.716-0.045c-1.414-0.011-3.726,1.011-3.907-1.64
		c-0.189-2.779,2.176-1.942,3.609-1.946c20.779-0.053,41.558-0.049,62.337,0c1.305,0.004,3.356-0.788,3.454,1.648
		c0.109,2.813-2.18,1.938-3.609,1.95C189.154-24.759,178.765-24.789,168.375-24.789z"/>
	<path fill="#7F7F81" d="M-70.017,19.676c-10.235,0-20.47,0.038-30.701-0.045c-1.399-0.011-3.737,0.958-3.718-1.814
		c0.015-2.779,2.357-1.769,3.745-1.772c20.621-0.064,41.237-0.064,61.858-0.004c1.41,0.004,3.756-0.95,3.741,1.799
		c-0.015,2.719-2.342,1.784-3.764,1.795C-49.249,19.71-59.635,19.676-70.017,19.676z"/>
	<path fill="#7F7F81" d="M157.183-15.833c-6.765,0-13.531,0.019-20.3-0.011c-1.433-0.008-3.262,0.392-3.232-1.98
		c0.03-2.172,1.682-2.18,3.213-2.18c13.983-0.011,27.967-0.008,41.95-0.011c1.459,0,2.723,0.136,2.727,2.085
		c0.004,1.942-1.241,2.104-2.711,2.101C171.619-15.84,164.401-15.833,157.183-15.833z"/>
	<path fill="#7F7F81" d="M-80.942,37.593c-6.777,0-13.553,0.015-20.33-0.011c-1.441-0.008-3.202,0.377-3.281-1.976
		c-0.079-2.312,1.565-2.183,3.089-2.187c13.855-0.008,27.71-0.008,41.562,0.004c1.535,0,3.262-0.004,3.141,2.21
		c-0.121,2.199-1.927,1.946-3.402,1.95C-67.087,37.608-74.014,37.593-80.942,37.593z"/>
	<path fill="#4B7E7F" d="M119.573-15.942c-9.835,0-18.777,0-28.465,0c3.009-4.031,5.732-7.678,8.651-11.589
		c0.916,1.033,1.689,1.738,2.266,2.576c2.217,3.221,4.307,6.758,7.897,1.218c0.773-1.195,1.686-0.867,2.557,0.102
		C114.644-21.229,116.865-18.869,119.573-15.942z"/>
	<path fill="#4B7E7F" d="M63.153-27.305c1.674,0.75,2.387,2.138,3.156,3.356c2.044,3.232,4.065,4.725,6.754,0.626
		c1.226-1.87,2.346-1.135,3.515,0.204c1.957,2.24,4.013,4.39,6.49,7.082c-9.65,0-18.644,0-28.333,0
		C57.711-20.022,60.438-23.673,63.153-27.305z"/>
	<path fill="#194C51" d="M163.801,12.647c5.57,0,11.144,0.004,16.714-0.004c1.55-0.004,3.092-0.155,2.972,2.214
		c-0.113,2.138-1.603,1.81-2.904,1.81c-11.445,0.015-22.887,0.008-34.332,0.008c-1.392,0-2.734,0.091-2.753-1.98
		c-0.019-2.036,1.256-2.055,2.685-2.052C152.058,12.654,157.929,12.647,163.801,12.647z"/>
	<path fill="#194C51" d="M163.371-1.521c-5.57,0-11.14,0.019-16.71-0.015c-1.41-0.008-3.164,0.456-3.153-2.006
		s1.765-1.98,3.172-1.984c11.291-0.023,22.582-0.023,33.876,0c1.278,0.004,2.806-0.392,2.926,1.772
		c0.132,2.353-1.38,2.236-2.945,2.233C174.817-1.529,169.092-1.521,163.371-1.521z"/>
	<path fill="#4B7E7F" d="M63.372,2.386c0.864,0.996,1.637,1.716,2.21,2.572c2.187,3.273,4.265,6.656,7.87,1.263
		c1.018-1.524,1.991-0.618,2.866,0.347c2.089,2.297,4.197,4.574,6.747,7.346c-9.692,0-18.686,0-28.397,0
		C57.745,9.834,60.498,6.191,63.372,2.386z"/>
	<path fill="#4B7E7F" d="M91.116,13.865c2.738-3.613,5.197-6.788,7.565-10.027c0.841-1.15,1.501-1.301,2.372-0.106
		c0.796,1.094,1.754,2.085,2.447,3.239c1.629,2.708,3.349,3.319,5.321,0.404c1.652-2.44,3.047-2.161,4.763,0.034
		c1.64,2.097,3.598,3.948,5.924,6.456C109.832,13.865,100.902,13.865,91.116,13.865z"/>
	<path fill="#4B7E7F" d="M-1.412-19.989c0.916,1.475,3.273,3.266-1.063,3.172c-6.984-0.147-13.976-0.041-21.115-0.041
		c0.23-2.391,1.765-3.511,2.768-4.895c1.305-1.799,2.598-4.42,4.344-4.842c1.569-0.381,2.685,2.678,3.914,4.273
		c1.478,1.916,2.617,0.984,3.511-0.347c1.637-2.447,3.209-2.044,4.921-0.189C-2.642-22.451-1.673-21.557-1.412-19.989z"/>
	<path fill="#194C51" d="M163.827,32.091c5.423,0,10.85-0.053,16.272,0.038c1.267,0.023,3.247-0.886,3.326,1.701
		c0.087,2.904-2.108,1.976-3.522,1.984c-10.997,0.06-21.997,0.06-32.997,0c-1.286-0.008-3.247,0.83-3.337-1.723
		c-0.102-2.953,2.153-1.931,3.534-1.957C152.676,32.027,158.254,32.091,163.827,32.091z"/>
	<path fill="#7F7F81" d="M24.216,14.989c-5.423,0-10.846,0.019-16.269-0.015c-1.29-0.008-2.923,0.302-3.017-1.746
		c-0.094-2.093,1.52-1.904,2.84-1.904c11.147-0.023,22.291-0.019,33.439-0.004c1.346,0,2.915-0.136,2.776,1.957
		c-0.14,2.059-1.776,1.686-3.051,1.697C35.364,15.011,29.79,14.989,24.216,14.989z"/>
	<path fill="#7F7F81" d="M24.461,6.036c-5.555,0-11.106,0.019-16.661-0.015C6.518,6.013,4.908,6.334,4.916,4.203
		c0.008-2.101,1.599-1.829,2.889-1.833c11.106-0.023,22.212-0.023,33.322,0c1.294,0.004,2.87-0.275,2.874,1.837
		c0.004,2.138-1.599,1.806-2.877,1.814C35.567,6.055,30.016,6.036,24.461,6.036z"/>
	<path fill="#7F7F81" d="M24.948-38.312c5.404,0,10.804-0.019,16.208,0.011c1.294,0.008,2.881-0.29,2.843,1.848
		c-0.038,2.123-1.637,1.784-2.911,1.784c-11.106,0.026-22.212,0.023-33.318,0c-1.297-0.004-2.889,0.264-2.855-1.855
		c0.034-2.119,1.652-1.769,2.923-1.776C13.54-38.335,19.246-38.312,24.948-38.312z"/>
	<path fill="#7F7F81" d="M24.906-29.348c5.276,0,10.548-0.038,15.824,0.026c1.361,0.015,3.315-0.577,3.251,1.901
		c-0.053,2.097-1.731,1.716-3.002,1.72c-11,0.026-22.005,0.026-33.005,0c-1.271-0.004-2.957,0.37-3.036-1.697
		c-0.094-2.47,1.87-1.908,3.239-1.923C13.751-29.382,19.329-29.348,24.906-29.348z"/>
	<path fill="#4B7E7F" d="M-24.111,23.251c2.776-3.658,5.102-6.724,7.61-10.027c1.09,1.373,2.025,2.334,2.704,3.454
		c1.656,2.73,3.33,3.824,5.559,0.539c0.992-1.463,2.055-1.407,3.239-0.041c1.644,1.897,3.424,3.669,5.694,6.075
		C-7.857,23.251-15.573,23.251-24.111,23.251z"/>
	<path fill="#7F7F81" d="M17.982,23.938c-3.458,0-6.916,0.008-10.371-0.004c-1.554-0.004-3.213-0.019-3.149-2.206
		c0.053-1.859,1.486-1.987,2.919-1.987c7.214,0.004,14.432-0.004,21.646,0.008c1.407,0,2.877,0.094,2.934,1.972
		c0.068,2.202-1.618,2.195-3.153,2.206C25.2,23.953,21.591,23.938,17.982,23.938z"/>
	<path fill="#7F7F81" d="M17.881-16.734c-3.609,0-7.214,0-10.823,0c-1.546,0-2.715-0.49-2.595-2.3
		c0.106-1.573,1.278-1.874,2.576-1.874c7.516-0.004,15.032,0,22.548,0.019c1.35,0.004,2.402,0.517,2.402,2.059
		c0,1.524-1.011,2.074-2.383,2.078c-3.907,0.015-7.818,0.004-11.724,0.004C17.881-16.742,17.881-16.738,17.881-16.734z"/>
	<path fill="#4B7E7F" d="M137.456,9.758c2.451,0.46,4.239,1.708,4.224,4.42c-0.019,2.9-1.772,4.529-4.593,4.408
		c-2.636-0.113-4.163-1.972-4.073-4.518C133.104,11.516,134.805,10.045,137.456,9.758z"/>
	<path fill="#4B7E7F" d="M141.77,33.505c-0.328,2.655-1.671,4.246-4.371,4.265c-2.719,0.023-4.333-1.682-4.405-4.16
		c-0.079-2.768,1.72-4.589,4.552-4.465C140.081,29.263,141.585,30.907,141.77,33.505z"/>
	<path fill="#4B7E7F" d="M137.207-8.396c2.508,0.253,4.31,1.475,4.469,4.144c0.17,2.892-1.531,4.623-4.329,4.691
		c-2.64,0.06-4.265-1.731-4.333-4.273C132.946-6.401,134.571-7.947,137.207-8.396z"/>
	<path fill="#FEF3F7" d="M-1.412-19.989c-0.905-0.958-1.81-1.912-2.719-2.87c0.37-0.377,0.739-0.758,1.109-1.135
		c1.165,0.698,2.082,1.633,2.704,2.847C-0.681-20.762-1.047-20.377-1.412-19.989z"/>
	<path fill="#194C51" d="M-63.968,83.925c-12.792,0-25.587,0.026-38.379-0.038c-1.403-0.008-3.59,0.954-3.643-1.908
		c-0.053-2.964,2.131-2.357,3.82-2.361c25.587-0.023,51.171-0.023,76.758,0.004c1.531,0,3.518-0.577,3.628,2.085
		c0.128,3.187-2.27,2.176-3.805,2.183C-38.381,83.955-51.173,83.925-63.968,83.925z"/>
	<path fill="#194C51" d="M173.082,83.936c-11.31,0-22.619,0.019-33.929-0.023c-1.478-0.008-3.541,0.743-3.515-2.085
		c0.023-2.598,1.818-2.293,3.466-2.293c22.77-0.004,45.544,0.004,68.314-0.011c1.75,0,3.311-0.102,3.239,2.466
		c-0.072,2.553-1.837,1.923-3.19,1.927C196.003,83.952,184.542,83.936,173.082,83.936z"/>
	<path fill="#FEF2F6" d="M-56.505-24.876c-1.972-0.253-3.451-1.063-3.518-3.013c-0.068-1.935,1.252-3.036,3.138-3.13
		c1.916-0.098,3.19,0.875,3.307,2.881C-53.458-26.049-54.948-25.347-56.505-24.876z"/>
	<path fill="#FEE5ED" d="M111.367-5.473c1.101-0.136,1.459,0.532,1.539,1.297c0.064,0.603-0.245,1.184-0.947,1.282
		c-0.792,0.109-1.535-0.068-1.678-0.996C110.145-4.764,110.745-5.217,111.367-5.473z"/>
	<path fill="#FEDEE8" d="M113.072-34.145c-0.117,0.815-0.49,1.399-1.384,1.418c-0.848,0.019-1.475-0.422-1.463-1.271
		c0.008-0.777,0.505-1.388,1.361-1.463C112.506-35.544,112.849-34.892,113.072-34.145z"/>
	<path fill="#FEE2EB" d="M76.567-4.93c-0.004,1.803-0.637,2.244-1.418,2.21c-0.784-0.034-1.373-0.551-1.312-1.471
		c0.057-0.882,0.63-1.395,1.433-1.369C76.096-5.53,76.567-4.934,76.567-4.93z"/>
	<path fill="#FEE5ED" d="M75.213-35.484c0.822,0.113,1.309,0.626,1.343,1.414c0.038,0.849-0.554,1.346-1.343,1.339
		c-0.773-0.008-1.395-0.479-1.358-1.335C73.893-34.862,74.414-35.348,75.213-35.484z"/>
	<path fill="#FEDBE6" d="M-5.025-32.592c-0.317,0.6-0.818,0.796-1.456,0.622c-0.652-0.177-1.052-0.615-0.848-1.286
		c0.245-0.811,0.86-1.218,1.686-0.818C-5.078-33.798-4.818-33.255-5.025-32.592z"/>
	<path fill="#FED2E0" d="M-4.867,7.307C-5.04,8.404-5.47,8.861-6.36,8.736c-0.671-0.094-1.097-0.592-1.03-1.165
		c0.087-0.739,0.615-1.392,1.456-1.184C-5.485,6.496-5.142,7.054-4.867,7.307z"/>
</g>
<rect x="-115.741" y="155.037" fill="#FEFEFE" width="337.93" height="15.416"/>
</svg>
