<?xml version="1.0" encoding="utf-8"?>
<!-- Generator: Adobe Illustrator 17.0.0, SVG Export Plug-In . SVG Version: 6.00 Build 0)  -->
<!DOCTYPE svg PUBLIC "-//W3C//DTD SVG 1.1//EN" "http://www.w3.org/Graphics/SVG/1.1/DTD/svg11.dtd">
<svg version="1.1" id="Layer_1" xmlns="http://www.w3.org/2000/svg" xmlns:xlink="http://www.w3.org/1999/xlink" x="0px" y="0px"
	 width="239.67px" height="55.67px" viewBox="0 0 239.67 55.67" enable-background="new 0 0 239.67 55.67" xml:space="preserve">
<rect x="3.652" y="27.835" fill="#7F7F81" width="232.367" height="22.25"/>
<rect x="3.653" y="6.085" fill="#005C62" width="232.365" height="22.25"/>
<path fill="#FEFEFE" d="M60.655,19.024c-2.366,0.001-4.731,0.011-7.096-0.004c-1.252-0.007-2.237-0.509-2.157-1.893
	c0.07-1.215,1.018-1.647,2.159-1.647c4.814,0,9.63-0.008,14.444,0.007c1.156,0.004,2.044,0.551,2.044,1.765
	s-0.891,1.753-2.046,1.762C65.553,19.038,63.104,19.024,60.655,19.024z"/>
<path fill="#FEFEFE" d="M85.083,15.481c2.366,0,4.731-0.004,7.096,0.002c1.246,0.004,2.251,0.467,2.214,1.845
	c-0.032,1.217-0.963,1.694-2.11,1.695c-4.814,0.006-9.63,0.007-14.444-0.002c-1.15-0.002-2.074-0.5-2.09-1.716
	c-0.017-1.377,0.998-1.822,2.24-1.823C80.352,15.479,82.718,15.481,85.083,15.481z"/>
<path fill="#FEFEFE" d="M109.006,15.233c2.366-0.001,4.731-0.01,7.096,0.004c1.253,0.007,2.237,0.512,2.16,1.891
	c-0.068,1.213-1.014,1.648-2.157,1.648c-4.814,0-9.63,0.007-14.444-0.008c-1.153-0.004-2.044-0.543-2.045-1.761
	c-0.001-1.22,0.89-1.755,2.043-1.765C104.107,15.218,106.556,15.234,109.006,15.233z"/>
<path fill="#FAFBFB" d="M21.908,17.171c0.038,2.617-1.632,4.397-4.125,4.397c-2.381,0.001-3.981-1.697-3.995-4.235
	c-0.015-2.599,1.669-4.384,4.143-4.394C20.307,12.93,21.871,14.595,21.908,17.171z"/>
<path fill="#FAFBFB" d="M39.159,17.319c-0.028,2.594-1.771,4.328-4.274,4.25c-2.355-0.075-3.898-1.831-3.846-4.383
	c0.052-2.587,1.789-4.307,4.29-4.246C37.668,12.997,39.186,14.733,39.159,17.319z"/>
<path fill="#F7F9F9" d="M30.352,19.076c-0.13,0.76,0.477,2.06-1.019,2.331c-1.858,0.335-3.741,0.43-5.264-1.01
	c-1.369-1.295-1.559-4.043-0.449-5.636c1.041-1.495,4.234-2.433,5.751-1.704c0.327,0.157,0.574,0.33,0.547,0.736
	c-0.033,0.483-0.287,0.839-0.756,0.851c-0.585,0.017-1.187-0.215-1.755-0.141c-1.418,0.183-2.344,1-2.422,2.475
	c-0.074,1.396,0.535,2.479,1.927,2.932c0.519,0.169,1.258,0.431,1.497-0.357c0.145-0.477,0.433-1.273-0.385-1.48
	c-0.769-0.194-1.106-0.665-0.75-1.237c0.399-0.638,1.24-0.294,1.891-0.344c0.65-0.05,1.194,0.076,1.187,0.907
	C30.349,17.905,30.352,18.412,30.352,19.076z"/>
<path fill="#F7F9F9" d="M7.786,16.867c0-1.011,0.01-2.021-0.004-3.032c-0.009-0.66,0.126-1.101,0.94-1.159
	c1.023-0.073,1.063,0.521,1.048,1.257c-0.018,0.841,0,1.685-0.004,2.527c-0.007,1.713-0.513,3.779,2.484,3.211
	c0.55-0.103,0.914,0.318,0.86,0.958c-0.047,0.55-0.422,0.678-0.863,0.683c-1.179,0.016-2.358-0.001-3.538,0.006
	c-0.816,0.006-0.939-0.503-0.927-1.165C7.799,19.057,7.786,17.961,7.786,16.867z"/>
<path fill="#075F65" d="M15.793,17.205c0.191-1.318,0.559-2.716,2.108-2.658c1.501,0.056,1.987,1.42,1.949,2.766
	c-0.039,1.325-0.491,2.703-2.057,2.654C16.248,19.92,15.953,18.511,15.793,17.205z"/>
<path fill="#075F65" d="M37.154,17.281c-0.188,1.281-0.492,2.695-2.058,2.687c-1.547-0.008-1.992-1.385-2-2.714
	c-0.008-1.344,0.485-2.706,2.007-2.707C36.634,14.546,36.995,15.938,37.154,17.281z"/>
<g>
	<path fill="#C52275" d="M220.453,30.933c0.213-0.413,0.545-0.649,1.015-0.679c1.329-0.096,2.661-0.028,3.992-0.039
		c0.896-0.007,1.792-0.035,2.686,0.051c0.093,0.788,0.054,1.58,0.022,2.37c-0.196,0.169-0.418,0.136-0.641,0.078
		c-1.944-0.504-3.922-0.861-5.869-1.351C221.245,31.259,220.803,31.22,220.453,30.933z"/>
	<path fill="#B32074" d="M228.168,36.925c0,0.528,0,1.054,0,1.581c-0.619,0.149-1.187-0.123-1.764-0.243
		c-1.782-0.374-3.541-0.855-5.323-1.236c-0.301-0.065-0.641-0.088-0.864-0.36c-0.019-0.464-0.014-0.928-0.003-1.392
		c0.162-0.223,0.367-0.122,0.561-0.071c1.634,0.432,3.293,0.752,4.937,1.144C226.53,36.542,227.358,36.699,228.168,36.925z"/>
	<path fill="#C22275" d="M220.28,35.234c0,0.488,0,0.978,0.002,1.467c0.232,0.344,0.13,0.729,0.143,1.102
		c0.006,0.268,0.012,0.538-0.002,0.806c0.009,0.235,0.009,0.47,0,0.703c0.014,0.374,0.009,0.748-0.002,1.122
		c0.003,0.213,0.009,0.426-0.177,0.581c-0.099-0.175-0.058-0.368-0.058-0.552c-0.002-2.802-0.002-5.604,0.003-8.406
		c0-0.393-0.018-0.794,0.264-1.123c1.106,0.249,2.221,0.462,3.314,0.757c1.292,0.346,2.631,0.474,3.901,0.91
		c0.153,0.052,0.333,0.028,0.5,0.038c0,0.377,0,0.752,0,1.129c-0.296,0.239-0.603,0.101-0.912,0.035
		c-2.015-0.436-4.007-0.974-6.03-1.367c-0.798-0.155-0.8-0.142-0.804,0.697c0.009,0.33,0.013,0.661,0.003,0.991
		C220.413,34.497,220.513,34.887,220.28,35.234z"/>
	<path fill="#B82174" d="M220.28,35.234c0-0.377,0-0.754,0-1.129c0.194-0.178,0.418-0.129,0.639-0.083
		c1.945,0.413,3.876,0.886,5.801,1.386c0.483,0.126,1.026,0.038,1.448,0.39c0,0.377,0,0.752,0,1.129
		c-1.451-0.028-2.815-0.506-4.208-0.825C222.732,35.819,221.474,35.654,220.28,35.234z"/>
	<path fill="#BE2275" d="M220.279,33.096c-0.002-0.019-0.004-0.038-0.006-0.056c-0.035-0.947-0.041-0.916,0.9-0.765
		c1.937,0.31,3.806,0.915,5.733,1.266c0.42,0.077,0.816,0.293,1.262,0.225c0,0.377,0,0.752,0,1.129
		c-0.226,0.178-0.471,0.084-0.702,0.03c-2.225-0.513-4.467-0.948-6.675-1.535C220.593,33.336,220.379,33.317,220.279,33.096z"/>
	<path fill="#AF1F74" d="M220.28,37.83c0-0.375,0-0.752,0-1.128c1.161,0.264,2.322,0.525,3.482,0.79
		c1.468,0.336,2.937,0.677,4.405,1.016c0,0.339,0,0.677,0,1.016c-0.354,0.119-0.702,0.045-1.048-0.032
		c-1.803-0.397-3.579-0.924-5.404-1.225C221.222,38.183,220.73,38.073,220.28,37.83z"/>
	<path fill="#831971" d="M229.067,47.653c-0.245,0.126-0.513,0.104-0.774,0.104c-2.727,0.004-5.453,0.004-8.18,0
		c-0.259,0-0.529,0.03-0.772-0.101c0.226-0.231,0.52-0.185,0.796-0.185c1.461,0,2.924-0.023,4.385,0.018
		c0.617,0.004,1.238,0,1.861,0c-1.855-0.37-3.688-0.839-5.531-1.261c-1.407-0.322-2.825-0.601-4.224-0.962
		c-0.263-0.068-0.519-0.07-0.772,0.032c-0.21-0.235-0.33-0.518-0.43-0.81c0.148-0.29,0.391-0.225,0.636-0.181
		c1.329,0.238,2.615,0.667,3.938,0.92c2.229,0.426,4.415,1.039,6.637,1.5c0.625,0.129,1.239,0.3,1.863,0.434
		C228.754,47.214,229.079,47.259,229.067,47.653z"/>
	<path fill="#A81E73" d="M220.282,40.424c0-0.375,0-0.752,0-1.128c0.148-0.132,0.315-0.094,0.481-0.052
		c2.263,0.561,4.55,1.015,6.804,1.616c0.251,0.067,0.609,0.076,0.5,0.513c-0.19,0.355-0.361,0.728-0.804,0.838
		c-1.158-0.504-2.408-0.668-3.622-0.954C222.515,40.993,221.385,40.763,220.282,40.424z"/>
	<path fill="#7C1770" d="M224.662,47.646c-1.774,0.004-3.547,0.007-5.321,0.012c-1.324-0.18-2.355-0.844-3.161-1.889
		c0.081-0.43,0.416-0.291,0.657-0.255c0.741,0.109,1.455,0.351,2.192,0.492c1.599,0.306,3.151,0.823,4.764,1.07
		C224.14,47.127,224.543,47.196,224.662,47.646z"/>
	<path fill="#BB2175" d="M220.279,33.096c1.797,0.397,3.559,0.952,5.382,1.241c0.844,0.133,1.671,0.368,2.506,0.558
		c0,0.301,0,0.601,0,0.903c-1.394-0.133-2.718-0.59-4.077-0.888c-1.268-0.278-2.515-0.663-3.811-0.804
		C220.279,33.768,220.279,33.432,220.279,33.096z"/>
	<path fill="#CB2577" d="M233.25,30.263c0.113,0.829,0.125,1.658-0.007,2.486c-0.798,0.122-1.602,0.025-2.403,0.052
		c-0.203,0.007-0.249-0.112-0.248-0.287c0.003-0.674,0.003-1.348,0-2.021c0-0.18,0.056-0.289,0.255-0.281
		C231.647,30.24,232.452,30.147,233.25,30.263z"/>
	<path fill="#AD1F74" d="M220.28,37.83c1.093,0.21,2.199,0.374,3.277,0.645c1.01,0.254,2.028,0.47,3.041,0.706
		c0.522,0.122,1.047,0.229,1.57,0.344c0,0.263,0,0.526,0,0.788c-0.322,0.235-0.663,0.081-0.977,0.009
		c-2.118-0.494-4.238-0.975-6.365-1.437c-0.204-0.044-0.403-0.097-0.546-0.264C220.28,38.356,220.28,38.092,220.28,37.83z"/>
	<path fill="#A41E73" d="M220.282,40.424c0.275-0.122,0.516-0.028,0.796,0.051c0.871,0.248,1.764,0.42,2.647,0.629
		c1.086,0.257,2.167,0.529,3.256,0.774c0.21,0.048,0.294,0.13,0.281,0.332c-0.628,0.265-1.28,0.112-1.923,0.117
		c-0.051-0.023-0.104-0.046-0.161-0.041c-1.553,0.183-3.009-0.304-4.488-0.638c-0.139-0.032-0.241-0.094-0.32-0.207
		c-0.129-0.117-0.13-0.271-0.123-0.428C220.257,40.818,220.268,40.621,220.282,40.424z"/>
	<path fill="#871971" d="M229.067,47.653c-0.183-0.364-0.565-0.348-0.876-0.42c-2.392-0.561-4.789-1.097-7.184-1.646
		c-1.702-0.39-3.402-0.786-5.102-1.184c-0.18-0.042-0.332-0.003-0.483,0.084c-0.076-0.177-0.171-0.348-0.141-0.551
		c0.02-0.022,0.041-0.045,0.06-0.067c0.255-0.136,0.51-0.045,0.76,0.012c0.741,0.165,1.474,0.37,2.222,0.502
		c0.171,0.03,0.313,0.11,0.441,0.22c0.461,0.435,1.054,0.486,1.636,0.531c0.478,0.038,0.961,0.025,1.441,0.033
		c1.268,0.241,2.51,0.601,3.773,0.865c1.267,0.265,2.51,0.626,3.785,0.862c0.263,0.049,0.559,0.125,0.694,0.422
		C229.805,47.589,229.438,47.625,229.067,47.653z"/>
	<path fill="#AA1E73" d="M220.28,38.62c1.425,0.265,2.828,0.631,4.244,0.931c1.213,0.257,2.405,0.629,3.644,0.761
		c0.028,0.36,0.096,0.723-0.103,1.061c-0.003-0.255-0.213-0.297-0.387-0.335c-1.584-0.344-3.15-0.772-4.742-1.096
		c-0.888-0.18-1.783-0.386-2.657-0.647C220.28,39.07,220.28,38.846,220.28,38.62z"/>
	<path fill="#BF2375" d="M215.166,43.368c-0.127-0.247-0.084-0.515-0.084-0.774c-0.003-3.961,0.007-7.923-0.009-11.884
		c-0.002-0.461,0.113-0.581,0.573-0.504c1.384,0.235,2.098,1.1,2.132,2.656c-0.622-0.243-1.296-0.299-1.922-0.529
		c-0.367-0.135-0.522,0.014-0.519,0.388c0.003,0.372,0.004,0.745,0.004,1.118c0.018,0.467,0.014,0.934,0.004,1.4
		c0.014,0.519,0.016,1.039,0,1.558c0.012,0.414,0.016,0.83-0.002,1.245c0.007,0.412,0.018,0.823,0,1.235
		c0.009,0.372,0.013,0.745-0.002,1.118c0.004,0.233,0.012,0.468,0,0.702c0.007,0.267,0.01,0.532,0.003,0.799
		c-0.007,0.335,0.016,0.671-0.007,1.006C215.334,43.077,215.323,43.249,215.166,43.368z"/>
	<path fill="#801870" d="M224.662,47.646c-0.655-0.571-1.512-0.464-2.274-0.671c-0.788-0.216-1.571-0.464-2.373-0.606
		c-1.158-0.204-2.286-0.536-3.441-0.745c-0.146-0.026-0.304-0.014-0.394,0.146c-0.152-0.127-0.274-0.275-0.326-0.472
		c0.006-0.206,0.012-0.365,0.319-0.277c0.48,0.138,0.978,0.2,1.465,0.326c1.423,0.365,2.87,0.638,4.306,0.954
		c0.636,0.141,1.27,0.299,1.905,0.448c0.98,0.231,1.96,0.458,2.938,0.69c0.07,0.016,0.146,0.042,0.143,0.209
		C226.176,47.646,225.419,47.646,224.662,47.646z"/>
	<path fill="#B92175" d="M215.192,33.767c-0.003-0.429,0.009-0.86-0.012-1.289c-0.018-0.378,0.174-0.477,0.484-0.374
		c0.584,0.194,1.165,0.388,1.784,0.42c0.231,0.012,0.187,0.259,0.332,0.338c0.029,0.204,0.081,0.407,0.081,0.612
		c0.006,3.141,0.006,6.282,0.006,9.422c-0.273-0.056-0.203-0.289-0.241-0.467c-0.013-0.258-0.012-0.516-0.006-0.776
		c-0.003-0.231-0.013-0.461-0.002-0.69c-0.012-0.371-0.014-0.742-0.003-1.113c-0.014-0.446-0.014-0.893-0.002-1.34
		c-0.013-0.413-0.014-0.825,0-1.238c-0.01-0.47-0.014-0.939,0.003-1.407c-0.035-0.426,0.145-0.903-0.094-1.268
		c-0.245-0.372-0.768-0.199-1.145-0.356C215.985,34.078,215.523,34.085,215.192,33.767z"/>
	<path fill="#8A1A71" d="M230.095,47.315c-1.452-0.532-2.989-0.726-4.475-1.128c-0.918-0.248-1.855-0.422-2.769-0.686
		c-0.336-0.097-0.78,0.084-1.009-0.336c0.677,0,1.354,0,2.032,0c1.389,0.306,2.763,0.675,4.154,0.967
		c0.717,0.151,1.412,0.387,2.134,0.522c0.2,0.038,0.396,0.127,0.506,0.326C230.532,47.188,230.333,47.285,230.095,47.315z"/>
	<path fill="#A41E73" d="M233.262,43.035c-0.006,0.071-0.012,0.142-0.018,0.212c-0.136,0.181,0.004,0.41-0.104,0.596
		c-0.029,0.36-0.135,0.69-0.349,0.984c-0.6-0.754-1.468-0.709-2.3-0.768c-0.125-0.009-0.255,0.083-0.377-0.019
		c0.206-0.394,0.362-0.804,0.434-1.245c0.068-0.091,0.028-0.242,0.158-0.3c0.178-0.078,0.37-0.09,0.542-0.022
		c0.607,0.239,1.271,0.232,1.884,0.444C233.188,42.94,233.23,42.981,233.262,43.035z"/>
	<path fill="#911B72" d="M231.776,46.184c-0.145,0.226-0.313,0.43-0.568,0.542c-1.58-0.393-3.173-0.729-4.752-1.129
		c-0.317-0.081-0.723-0.02-0.888-0.432c0.925-0.004,1.849-0.009,2.774-0.013c1.149-0.033,2.216,0.326,3.282,0.689
		C231.772,45.892,231.892,45.996,231.776,46.184z"/>
	<path fill="#BC2376" d="M231.889,38.064c-0.375-0.052-0.973,0.207-1.267-0.097c-0.29-0.3-0.081-0.893-0.087-1.355
		c-0.014-1.161-0.004-1.161,1.17-1.161c0.413,0,0.826,0.014,1.238-0.004c0.299-0.014,0.391,0.101,0.382,0.391
		c-0.016,0.6-0.023,1.2,0.003,1.799c0.016,0.356-0.12,0.461-0.455,0.435C232.576,38.045,232.275,38.064,231.889,38.064z"/>
	<path fill="#8D1A71" d="M225.568,45.165c0.661,0.304,1.381,0.391,2.08,0.558c1.049,0.252,2.106,0.472,3.157,0.719
		c0.161,0.038,0.32,0.116,0.403,0.284c-0.215,0.01-0.297,0.3-0.539,0.254c-1.734-0.502-3.501-0.867-5.256-1.28
		c-0.518-0.122-1.091-0.174-1.539-0.535C224.438,45.165,225.003,45.165,225.568,45.165z"/>
	<path fill="#921B72" d="M217.771,42.456c0.026,0.148-0.039,0.316,0.096,0.439c0.051,0.229,0.1,0.458,0.151,0.687
		c-0.964-0.129-1.912-0.328-2.824-0.675c-0.002-0.338-0.002-0.675-0.003-1.013C216.072,41.988,216.937,42.145,217.771,42.456z"/>
	<path fill="#AC2175" d="M230.65,42.569c-0.033,0.074-0.068,0.148-0.101,0.223c-0.006-0.58,0.003-1.161-0.022-1.741
		c-0.013-0.31,0.119-0.381,0.397-0.375c0.674,0.014,1.35,0.006,2.024,0.004c0.201,0,0.387,0.009,0.374,0.284
		c-0.032,0.69,0.074,1.383-0.058,2.07l-0.032-0.023c-0.216-0.281-0.126-0.613-0.145-0.925c-0.014-0.242-0.056-0.45-0.342-0.502
		c-0.499-0.091-0.978-0.257-1.474-0.362c-0.42-0.09-0.481,0.074-0.472,0.428C230.806,41.96,230.876,42.293,230.65,42.569z"/>
	<path fill="#971C72" d="M231.776,46.184c-0.013-0.123-0.072-0.189-0.201-0.229c-1.061-0.336-2.15-0.558-3.234-0.803
		c0.386-0.159,0.772-0.319,1.16-0.478c0.755,0.206,1.518,0.382,2.27,0.596c0.21,0.06,0.571,0.046,0.457,0.461
		C232.117,45.922,232.009,46.115,231.776,46.184z"/>
	<path fill="#9F1D73" d="M230.114,44.038c0.768-0.312,1.474,0.009,2.205,0.187c0.374,0.091,0.516,0.242,0.472,0.601
		c-0.016,0.155-0.09,0.277-0.204,0.38c-0.564-0.243-1.167-0.341-1.764-0.458c-0.345-0.068-0.696-0.132-0.877-0.494
		C230.002,44.18,230.057,44.109,230.114,44.038z"/>
	<path fill="#9A1C72" d="M229.945,44.252c0.616,0.397,1.34,0.42,2.024,0.559c0.284,0.058,0.494,0.13,0.617,0.393
		c-0.068,0.212-0.189,0.386-0.36,0.526c-0.046-0.304-0.322-0.274-0.516-0.328c-0.587-0.165-1.178-0.313-1.774-0.446
		c-0.191-0.044-0.364-0.076-0.438-0.283C229.648,44.534,229.797,44.393,229.945,44.252z"/>
	<path fill="#8D1B72" d="M215.194,42.907c0.97,0.106,1.919,0.299,2.824,0.675c0.08,0.149,0.159,0.299,0.241,0.446
		c-0.219,0.174-0.461,0.1-0.69,0.044c-0.557-0.138-1.131-0.187-1.682-0.348c-0.247-0.072-0.434-0.026-0.577,0.187l-0.026,0.022
		c-0.127-0.171-0.113-0.37-0.115-0.565C215.176,43.214,215.185,43.061,215.194,42.907z"/>
	<path fill="#A11F74" d="M220.367,41.442c1,0.162,1.971,0.425,2.937,0.742c0.422,0.139,0.923,0.03,1.389,0.049
		c0.216,0.009,0.451-0.077,0.643,0.093c-1.229,0.007-2.458,0.035-3.686,0.013C221.052,42.329,220.589,42.038,220.367,41.442z"/>
	<path fill="#891A71" d="M215.308,43.913c-0.054-0.391,0.081-0.477,0.474-0.381c0.818,0.199,1.65,0.336,2.474,0.499
		c0.169,0.19,0.338,0.381,0.507,0.571C217.591,44.474,216.485,44.022,215.308,43.913z"/>
	<path fill="#C92979" d="M233.25,30.263c-0.71,0.002-1.422,0.019-2.132-0.003c-0.372-0.012-0.494,0.123-0.477,0.487
		c0.025,0.504,0.03,1.012-0.002,1.515c-0.026,0.416,0.157,0.504,0.528,0.493c0.691-0.022,1.384-0.006,2.076-0.006
		c-0.828,0.185-1.666,0.041-2.499,0.077c-0.212,0.009-0.215-0.162-0.215-0.317c0-0.674,0.002-1.348,0-2.022
		c0-0.161,0.014-0.319,0.226-0.307C231.588,30.223,232.425,30.063,233.25,30.263z"/>
	<path fill="#CA2879" d="M228.145,30.266c-2.226-0.004-4.451-0.009-6.678-0.012c0.126-0.025,0.251-0.071,0.377-0.071
		c1.999-0.004,3.999-0.004,5.998-0.002C227.95,30.18,228.071,30.147,228.145,30.266z"/>
	<path fill="#A81F74" d="M233.14,43.842c0.013-0.203-0.088-0.425,0.104-0.596C233.261,43.453,233.262,43.658,233.14,43.842z"/>
	<path fill="#B01F74" d="M217.771,35.797c0,0.488,0,0.978,0,1.467c-0.12,0.109-0.267,0.153-0.418,0.117
		c-0.725-0.175-1.47-0.267-2.161-0.568c0-0.526,0-1.054,0-1.58c0.074-0.065,0.167-0.113,0.258-0.088
		C216.224,35.359,217.04,35.428,217.771,35.797z"/>
	<path fill="#B52074" d="M217.771,35.797c-0.687-0.03-1.328-0.275-1.989-0.428c-0.197-0.045-0.393-0.091-0.59-0.136
		c0-0.488,0-0.978,0-1.467c0.752,0.123,1.454,0.461,2.225,0.506c0.249,0.014,0.387,0.171,0.367,0.46
		C217.758,35.084,217.774,35.442,217.771,35.797z"/>
	<path fill="#AB1F74" d="M215.192,36.813c0.671-0.048,1.278,0.243,1.916,0.367c0.222,0.044,0.438,0.088,0.663,0.084
		c0,0.414,0,0.828,0,1.242c-0.058,0.048-0.119,0.109-0.191,0.11c-0.842,0.012-1.651-0.122-2.387-0.561
		C215.192,37.641,215.192,37.226,215.192,36.813z"/>
	<path fill="#A71E73" d="M215.192,38.056c0.864,0.125,1.683,0.506,2.579,0.451c0,0.451,0,0.903,0,1.354
		c-0.09,0.078-0.199,0.116-0.309,0.087c-0.761-0.199-1.58-0.2-2.27-0.651C215.192,38.883,215.192,38.469,215.192,38.056z"/>
	<path fill="#A41D73" d="M215.192,39.297c0.86,0.189,1.719,0.377,2.579,0.564c0,0.375,0,0.752,0,1.128
		c-0.571,0.126-1.087-0.167-1.634-0.236c-0.316-0.041-0.667-0.113-0.945-0.328C215.192,40.049,215.192,39.672,215.192,39.297z"/>
	<path fill="#991C72" d="M217.771,42.456c-0.883-0.081-1.754-0.216-2.58-0.561c0-0.264,0-0.529,0.002-0.793
		c0.239-0.209,0.506-0.086,0.751-0.036c0.632,0.126,1.297,0.162,1.829,0.599C217.771,41.929,217.771,42.193,217.771,42.456z"/>
	<path fill="#9F1D73" d="M217.771,41.665c-0.848-0.242-1.694-0.493-2.579-0.562c0-0.226,0-0.452,0-0.677
		c0.876,0.117,1.734,0.312,2.579,0.564C217.771,41.214,217.771,41.439,217.771,41.665z"/>
	<path fill="#A81F74" d="M230.65,42.569c0-0.207-0.002-0.413-0.002-0.62c0-1.074,0.003-1.083,1.063-0.81
		c0.416,0.107,0.814,0.281,1.25,0.301c0.27,0.012,0.284,0.187,0.283,0.388c-0.006,0.394-0.007,0.788-0.012,1.183
		c-0.635-0.076-1.276-0.12-1.874-0.37C231.123,42.543,230.886,42.584,230.65,42.569z"/>
	<path fill="#B82275" d="M231.893,37.941c-0.019,0-0.038,0-0.056,0c-1.281,0-1.374-0.115-1.193-1.394
		c0.029-0.209,0.097-0.303,0.316-0.284c0.728,0.065,1.402,0.36,2.118,0.494c0.356,0.068,0.119,0.591,0.155,0.906
		c0.032,0.27-0.185,0.278-0.382,0.277C232.531,37.94,232.212,37.941,231.893,37.941z"/>
</g>
</svg>
