<?xml version="1.0" encoding="utf-8"?>
<!-- Generator: Adobe Illustrator 17.0.0, SVG Export Plug-In . SVG Version: 6.00 Build 0)  -->
<!DOCTYPE svg PUBLIC "-//W3C//DTD SVG 1.1//EN" "http://www.w3.org/Graphics/SVG/1.1/DTD/svg11.dtd">
<svg version="1.1" id="Layer_1" xmlns="http://www.w3.org/2000/svg" xmlns:xlink="http://www.w3.org/1999/xlink" x="0px" y="0px"
	 width="239.67px" height="55.67px" viewBox="0 0 239.67 55.67" enable-background="new 0 0 239.67 55.67" xml:space="preserve">
<rect x="3.652" y="27.835" fill="#7F7F81" width="232.367" height="22.25"/>
<rect x="3.653" y="6.085" fill="#005C62" width="232.365" height="22.25"/>
<path fill="#FEFEFE" d="M191.066,19.396c-2.366,0.001-4.731,0.011-7.096-0.004c-1.252-0.007-2.237-0.509-2.157-1.893
	c0.07-1.215,1.018-1.647,2.159-1.647c4.814,0,9.63-0.008,14.444,0.007c1.156,0.004,2.044,0.551,2.044,1.765
	s-0.891,1.753-2.046,1.762C195.964,19.41,193.515,19.396,191.066,19.396z"/>
<path fill="#FEFEFE" d="M219.246,15.855c2.366-0.001,4.731-0.01,7.096,0.004c1.253,0.007,2.237,0.512,2.16,1.891
	c-0.068,1.213-1.014,1.648-2.157,1.648c-4.814,0-9.63,0.007-14.444-0.008c-1.153-0.004-2.044-0.543-2.045-1.761
	c-0.001-1.22,0.89-1.755,2.043-1.765C214.347,15.84,216.796,15.856,219.246,15.855z"/>
<path fill="#FEFEFE" d="M33.694,19.396c-5.63,0.001-11.258,0.011-16.886-0.004c-2.979-0.007-5.323-0.509-5.133-1.893
	c0.167-1.215,2.423-1.647,5.138-1.647c11.456,0,22.917-0.008,34.372,0.007c2.751,0.004,4.864,0.551,4.864,1.765
	s-2.12,1.753-4.869,1.762C45.35,19.41,39.522,19.396,33.694,19.396z"/>
<path fill="#FEFEFE" d="M97.828,19.396c-5.63,0.001-11.258,0.011-16.886-0.004c-2.979-0.007-5.323-0.509-5.133-1.893
	c0.167-1.215,2.423-1.647,5.138-1.647c11.456,0,22.917-0.008,34.372,0.007c2.751,0.004,4.864,0.551,4.864,1.765
	s-2.12,1.753-4.869,1.762C109.484,19.41,103.656,19.396,97.828,19.396z"/>
</svg>
