<?xml version="1.0" encoding="utf-8"?>
<!-- Generator: Adobe Illustrator 17.0.0, SVG Export Plug-In . SVG Version: 6.00 Build 0)  -->
<!DOCTYPE svg PUBLIC "-//W3C//DTD SVG 1.1//EN" "http://www.w3.org/Graphics/SVG/1.1/DTD/svg11.dtd">
<svg version="1.1" id="Layer_1" xmlns="http://www.w3.org/2000/svg" xmlns:xlink="http://www.w3.org/1999/xlink" x="0px" y="0px"
	 width="239.67px" height="55.67px" viewBox="-2.835 -2.835 239.67 55.67" enable-background="new -2.835 -2.835 239.67 55.67"
	 xml:space="preserve">
<rect x="0.817" y="24.75" fill="#7F7F81" width="232.367" height="22.25"/>
<rect x="0.818" y="3" fill="#005C62" width="232.365" height="22.25"/>
<path fill="#FEFEFE" d="M17.82,15.939c-2.366,0.001-4.731,0.011-7.096-0.004c-1.252-0.007-2.237-0.509-2.157-1.893
	c0.07-1.215,1.018-1.647,2.159-1.647c4.814,0,9.63-0.008,14.444,0.007c1.156,0.004,2.044,0.551,2.044,1.765
	s-0.891,1.753-2.046,1.762C22.718,15.953,20.269,15.939,17.82,15.939z"/>
<path fill="#FEFEFE" d="M42.248,12.396c2.366,0,4.731-0.004,7.096,0.002c1.246,0.004,2.251,0.467,2.214,1.845
	c-0.032,1.217-0.963,1.694-2.11,1.695c-4.814,0.006-9.63,0.007-14.444-0.002c-1.15-0.002-2.074-0.5-2.09-1.716
	c-0.017-1.377,0.998-1.822,2.24-1.823C37.517,12.394,39.883,12.396,42.248,12.396z"/>
<path fill="#FEFEFE" d="M66.171,12.148c2.366-0.001,4.731-0.01,7.096,0.004c1.253,0.007,2.237,0.512,2.16,1.891
	c-0.068,1.213-1.014,1.648-2.157,1.648c-4.814,0-9.63,0.007-14.444-0.008c-1.153-0.004-2.044-0.543-2.045-1.761
	c-0.001-1.22,0.89-1.755,2.043-1.765C61.272,12.133,63.721,12.149,66.171,12.148z"/>
</svg>
