<?xml version="1.0" encoding="utf-8"?>
<!-- Generator: Adobe Illustrator 17.0.0, SVG Export Plug-In . SVG Version: 6.00 Build 0)  -->
<!DOCTYPE svg PUBLIC "-//W3C//DTD SVG 1.1//EN" "http://www.w3.org/Graphics/SVG/1.1/DTD/svg11.dtd">
<svg version="1.1" id="Layer_1" xmlns="http://www.w3.org/2000/svg" xmlns:xlink="http://www.w3.org/1999/xlink" x="0px" y="0px"
	 width="239.67px" height="55.67px" viewBox="0 0 239.67 55.67" enable-background="new 0 0 239.67 55.67" xml:space="preserve">
<rect x="3.652" y="27.835" fill="#7F7F81" width="232.367" height="22.25"/>
<rect x="3.653" y="6.085" fill="#005C62" width="232.365" height="22.25"/>
<path fill="#FEFEFE" d="M21.304,18.476c-2.366,0.001-4.731,0.011-7.096-0.004c-1.252-0.007-2.237-0.509-2.157-1.893
	c0.07-1.215,1.018-1.647,2.159-1.647c4.814,0,9.63-0.008,14.444,0.007c1.156,0.004,2.044,0.551,2.044,1.765
	s-0.891,1.753-2.046,1.762C26.202,18.49,23.753,18.476,21.304,18.476z"/>
<path fill="#FEFEFE" d="M45.732,14.932c2.366,0,4.731-0.004,7.096,0.002c1.246,0.004,2.251,0.467,2.214,1.845
	c-0.032,1.217-0.963,1.694-2.11,1.695c-4.814,0.006-9.63,0.007-14.444-0.002c-1.15-0.002-2.074-0.5-2.09-1.716
	c-0.017-1.377,0.998-1.822,2.24-1.823C41.001,14.93,43.367,14.932,45.732,14.932z"/>
<path fill="#FEFEFE" d="M204.187,18.476c-5.63,0.001-11.258,0.011-16.886-0.004c-2.979-0.007-5.323-0.509-5.133-1.893
	c0.167-1.215,2.423-1.647,5.138-1.647c11.456,0,22.917-0.008,34.372,0.007c2.751,0.004,4.864,0.551,4.864,1.765
	s-2.12,1.753-4.869,1.762C215.843,18.49,210.015,18.476,204.187,18.476z"/>
</svg>
