<?xml version="1.0" encoding="utf-8"?>
<!-- Generator: Adobe Illustrator 17.0.0, SVG Export Plug-In . SVG Version: 6.00 Build 0)  -->
<!DOCTYPE svg PUBLIC "-//W3C//DTD SVG 1.1//EN" "http://www.w3.org/Graphics/SVG/1.1/DTD/svg11.dtd">
<svg version="1.1" id="Layer_1" xmlns="http://www.w3.org/2000/svg" xmlns:xlink="http://www.w3.org/1999/xlink" x="0px" y="0px"
	 width="239.667px" height="55.667px" viewBox="145.742 28.522 239.667 55.667"
	 enable-background="new 145.742 28.522 239.667 55.667" xml:space="preserve">
<g>
	<path fill="#7F7F81" d="M382.919,57.608c0,7.555-0.03,15.11,0.032,22.664c0.009,1.148-0.164,1.686-1.409,1.434
		c-0.358-0.072-0.744-0.011-1.117-0.011c-76.387,0-152.773-0.011-229.16,0.057c-2.157,0.002-2.586-0.554-2.547-2.6
		c0.136-7.179,0.053-14.362,0.053-21.544c0.715-0.841,1.641-1.159,2.726-1.186c1.213-0.03,2.425-0.052,3.638-0.052
		c73.807-0.002,147.613-0.008,221.42,0.032C378.706,56.403,381.091,55.688,382.919,57.608z"/>
	<path fill="#005C62" d="M382.919,57.608c-78.05,0-156.099,0-234.149,0c0-8.123,0.033-16.245-0.036-24.367
		c-0.01-1.204,0.231-1.651,1.438-1.412c0.359,0.071,0.745,0.011,1.118,0.011c76.369,0,152.738,0.01,229.107-0.053
		c2.1-0.002,2.618,0.467,2.578,2.575C382.831,42.109,382.919,49.859,382.919,57.608z"/>
	<path fill="#FEFEFE" d="M313.162,46.962c-2.612,0-5.223,0.005-7.834-0.002c-1.374-0.004-2.485-0.514-2.442-2.039
		c0.038-1.344,1.068-1.867,2.333-1.868c5.316-0.007,10.632-0.008,15.948,0.001c1.272,0.002,2.289,0.56,2.305,1.898
		c0.018,1.517-1.104,2.009-2.476,2.01C318.385,46.962,315.773,46.962,313.162,46.962z"/>
	<path fill="#FEFEFE" d="M340.066,43.045c2.518,0,5.036,0.011,7.554-0.004c1.445-0.009,2.763,0.335,2.731,2.034
		c-0.028,1.506-1.239,1.896-2.593,1.893c-5.13-0.011-10.259-0.011-15.389,0c-1.352,0.003-2.563-0.386-2.591-1.895
		c-0.031-1.703,1.289-2.04,2.732-2.032C335.03,43.055,337.548,43.045,340.066,43.045z"/>
	<path fill="#FEFEFE" d="M366.952,46.965c-2.518,0-5.036-0.01-7.554,0.004c-1.443,0.008-2.763-0.33-2.73-2.034
		c0.029-1.508,1.241-1.896,2.592-1.893c5.13,0.01,10.259,0.011,15.389,0c1.355-0.003,2.563,0.392,2.591,1.896
		c0.031,1.701-1.289,2.04-2.733,2.031C371.989,46.954,369.471,46.965,366.952,46.965z"/>
	<path fill="#FAFBFB" d="M169.499,45.076c-0.03,2.863-1.956,4.779-4.719,4.692c-2.6-0.082-4.303-2.022-4.247-4.839
		c0.057-2.855,1.976-4.756,4.736-4.688C167.852,40.305,169.528,42.221,169.499,45.076z"/>
	<path fill="#FAFBFB" d="M188.542,44.907c0.044,2.889-1.798,4.857-4.548,4.861c-2.63,0.004-4.399-1.866-4.418-4.669
		c-0.019-2.871,1.838-4.844,4.569-4.857C186.771,40.229,188.499,42.063,188.542,44.907z"/>
	<path fill="#F7F9F9" d="M178.806,46.696c0.032,2.928-0.894,3.581-4.308,3.025c-1.928-0.314-3.309-1.361-3.731-3.296
		c-0.442-2.022-0.17-3.921,1.714-5.231c1.662-1.155,3.503-1.111,5.375-0.76c0.46,0.086,0.552,0.519,0.473,0.878
		c-0.242,1.104-1.05,0.75-1.781,0.658c-1.413-0.179-2.595,0.223-3.325,1.529c-0.672,1.204-0.427,2.396,0.334,3.417
		c0.703,0.943,1.909,1.692,2.866,0.908c0.793-0.649,0.695-1.862-0.81-2.183c-0.149-0.032-0.345-0.72-0.229-0.965
		c0.421-0.885,1.294-0.445,1.978-0.5c0.624-0.05,1.389-0.143,1.438,0.842C178.828,45.576,178.806,46.137,178.806,46.696z"/>
	<path fill="#F7F9F9" d="M157.107,49.771c-2.29,0.578-3.003-0.578-2.712-2.987c0.188-1.558,0.009-3.158,0.048-4.739
		c0.019-0.757-0.329-1.738,1.044-1.816c1.431-0.081,1.101,0.912,1.126,1.681c0.033,1.022,0.068,2.05-0.004,3.068
		c-0.129,1.826-0.11,3.416,2.494,2.951c0.702-0.126,1.297,0.188,1.203,1.095c-0.083,0.798-0.704,0.721-1.243,0.742
		C158.505,49.788,157.946,49.771,157.107,49.771z"/>
	<path fill="#075F65" d="M167.284,45.035c-0.207,1.415-0.544,2.976-2.272,2.967c-1.708-0.009-2.2-1.529-2.209-2.996
		c-0.009-1.483,0.536-2.988,2.216-2.989C166.711,42.015,167.109,43.552,167.284,45.035z"/>
	<path fill="#075F65" d="M186.328,44.886c-0.145,1.463-0.474,3.013-2.158,3.114c-1.74,0.105-2.253-1.418-2.32-2.879
		c-0.068-1.49,0.461-2.997,2.101-3.106C185.676,41.902,186.091,43.452,186.328,44.886z"/>
</g>
</svg>
