<?xml version="1.0" encoding="utf-8"?>
<!-- Generator: Adobe Illustrator 17.0.0, SVG Export Plug-In . SVG Version: 6.00 Build 0)  -->
<!DOCTYPE svg PUBLIC "-//W3C//DTD SVG 1.1//EN" "http://www.w3.org/Graphics/SVG/1.1/DTD/svg11.dtd">
<svg version="1.1" id="Layer_1" xmlns="http://www.w3.org/2000/svg" xmlns:xlink="http://www.w3.org/1999/xlink" x="0px" y="0px"
	 width="239.67px" height="55.67px" viewBox="0 0 239.67 55.67" enable-background="new 0 0 239.67 55.67" xml:space="preserve">
<rect x="3.652" y="27.835" fill="#7F7F81" width="232.367" height="22.25"/>
<rect x="3.653" y="6.085" fill="#005C62" width="232.365" height="22.25"/>
<path fill="#FEFEFE" d="M195.083,14.257c2.366,0,4.731-0.004,7.096,0.002c1.246,0.004,2.251,0.467,2.214,1.845
	c-0.032,1.217-0.963,1.694-2.11,1.695c-4.814,0.006-9.63,0.007-14.444-0.002c-1.15-0.002-2.074-0.5-2.09-1.716
	c-0.017-1.377,0.998-1.822,2.24-1.823C190.352,14.255,192.718,14.257,195.083,14.257z"/>
<path fill="#FEFEFE" d="M219.006,14.259c2.366-0.001,4.731-0.01,7.096,0.004c1.253,0.007,2.237,0.512,2.16,1.891
	c-0.068,1.213-1.014,1.648-2.157,1.648c-4.814,0-9.63,0.007-14.444-0.008c-1.153-0.004-2.044-0.543-2.045-1.761
	c-0.001-1.22,0.89-1.755,2.043-1.765C214.107,14.244,216.556,14.26,219.006,14.259z"/>
<ellipse fill="#FEFEFE" cx="31.626" cy="16.029" rx="5.125" ry="4.697"/>
<ellipse fill="#FEFEFE" cx="16.46" cy="16.029" rx="5.125" ry="4.697"/>
<ellipse fill="#FEFEFE" cx="46.792" cy="16.029" rx="5.125" ry="4.697"/>
<ellipse fill="#FEFEFE" cx="61.957" cy="16.029" rx="5.125" ry="4.697"/>
</svg>
