<?xml version="1.0" encoding="utf-8"?>
<!-- Generator: Adobe Illustrator 17.0.0, SVG Export Plug-In . SVG Version: 6.00 Build 0)  -->
<!DOCTYPE svg PUBLIC "-//W3C//DTD SVG 1.1//EN" "http://www.w3.org/Graphics/SVG/1.1/DTD/svg11.dtd">
<svg version="1.1" id="Layer_1" xmlns="http://www.w3.org/2000/svg" xmlns:xlink="http://www.w3.org/1999/xlink" x="0px" y="0px"
	 width="239.67px" height="55.67px" viewBox="-2.835 -2.835 239.67 55.67" enable-background="new -2.835 -2.835 239.67 55.67"
	 xml:space="preserve">
<rect x="1.285" y="24.25" fill="#7F7F81" width="232.367" height="22.25"/>
<rect x="1.287" y="2.5" fill="#005C62" width="232.365" height="22.25"/>
<g>
	<path fill="#FEFEFE" d="M53.111,10.644c2.352,0,4.703,0.012,7.054-0.004c1.4-0.01,2.681,0.318,2.659,1.964
		c-0.02,1.459-1.19,1.848-2.505,1.845c-4.973-0.011-9.949-0.011-14.922,0.001c-1.31,0.003-2.487-0.364-2.522-1.828
		c-0.038-1.654,1.238-1.987,2.638-1.98C48.046,10.653,50.579,10.644,53.111,10.644z"/>
	<path fill="#FEFEFE" d="M79.475,10.644c2.442,0,4.883,0.01,7.325-0.004c1.402-0.008,2.677,0.332,2.638,1.982
		c-0.034,1.461-1.213,1.829-2.523,1.826c-4.973-0.011-9.949-0.011-14.922-0.001c-1.314,0.003-2.483-0.385-2.503-1.846
		c-0.022-1.65,1.263-1.971,2.66-1.961C74.591,10.655,77.033,10.644,79.475,10.644z"/>
	<path fill="#FEFEFE" d="M155.442,14.441c-2.532,0.001-5.065,0.012-7.597-0.004c-1.339-0.008-2.394-0.544-2.31-2.025
		c0.074-1.3,1.088-1.764,2.31-1.764c5.155,0,10.309-0.008,15.464,0.008c1.237,0.004,2.19,0.589,2.19,1.889
		c0.001,1.301-0.952,1.877-2.19,1.887C160.688,14.455,158.065,14.44,155.442,14.441z"/>
	<path fill="#FEFEFE" d="M181.65,10.649c2.532-0.001,5.065-0.011,7.597,0.004c1.341,0.008,2.394,0.548,2.312,2.024
		c-0.072,1.298-1.086,1.764-2.309,1.764c-5.155,0-10.309,0.008-15.464-0.009c-1.235-0.004-2.189-0.581-2.19-1.886
		c-0.001-1.305,0.952-1.877,2.187-1.889C176.403,10.633,179.026,10.65,181.65,10.649z"/>
	<path fill="#FAFBFB" d="M115.588,12.459c0.038,2.803-1.749,4.706-4.42,4.704c-2.548-0.001-4.261-1.819-4.275-4.536
		c-0.015-2.783,1.789-4.693,4.439-4.701C113.876,7.918,115.55,9.701,115.588,12.459z"/>
	<path fill="#FAFBFB" d="M134.057,12.492c0.025,2.8-1.777,4.691-4.453,4.672c-2.54-0.018-4.243-1.851-4.243-4.57
		c0-2.779,1.818-4.676,4.472-4.669C132.367,7.932,134.032,9.734,134.057,12.492z"/>
	<path fill="#F7F9F9" d="M124.615,14.192c0.029,2.832-0.877,3.467-4.185,2.925c-1.871-0.306-3.206-1.327-3.613-3.202
		c-0.426-1.961-0.159-3.803,1.67-5.07c1.612-1.116,3.397-1.076,5.213-0.73c0.446,0.085,0.529,0.507,0.451,0.855
		c-0.24,1.072-1.028,0.716-1.731,0.629c-1.371-0.169-2.517,0.222-3.221,1.491c-0.649,1.168-0.408,2.325,0.332,3.313
		c0.682,0.91,1.852,1.64,2.78,0.87c0.769-0.637,0.654-1.806-0.794-2.117c-0.143-0.031-0.332-0.702-0.216-0.937
		c0.415-0.848,1.26-0.425,1.924-0.478c0.608-0.049,1.345-0.13,1.388,0.823C124.635,13.106,124.615,13.65,124.615,14.192z"/>
	<path fill="#F7F9F9" d="M100.979,12.498c0.001-1.082,0.029-2.166-0.008-3.246c-0.029-0.855,0.183-1.353,1.184-1.342
		c0.952,0.011,0.945,0.591,0.944,1.245c-0.002,0.993,0.025,1.984-0.004,2.976c-0.05,1.805-0.372,3.772,2.562,3.256
		c0.583-0.102,1.028,0.247,1.028,0.938c0,0.761-0.54,0.814-1.1,0.84c-0.089,0.004-0.181-0.004-0.271,0.006
		C100.978,17.616,100.978,17.616,100.979,12.498z"/>
	<path fill="#075F65" d="M113.441,12.493c-0.17,1.398-0.487,2.906-2.143,2.958c-1.677,0.052-2.162-1.423-2.202-2.842
		c-0.041-1.442,0.478-2.902,2.087-2.962C112.843,9.584,113.238,11.082,113.441,12.493z"/>
	<path fill="#075F65" d="M131.908,12.651c-0.232,1.347-0.567,2.868-2.259,2.8c-1.635-0.066-2.103-1.538-2.083-2.965
		c0.021-1.436,0.56-2.894,2.205-2.839C131.392,9.701,131.772,11.189,131.908,12.651z"/>
</g>
</svg>
