<?xml version="1.0" encoding="utf-8"?>
<!-- Generator: Adobe Illustrator 17.0.0, SVG Export Plug-In . SVG Version: 6.00 Build 0)  -->
<!DOCTYPE svg PUBLIC "-//W3C//DTD SVG 1.1//EN" "http://www.w3.org/Graphics/SVG/1.1/DTD/svg11.dtd">
<svg version="1.1" id="Layer_1" xmlns="http://www.w3.org/2000/svg" xmlns:xlink="http://www.w3.org/1999/xlink" x="0px" y="0px"
	 width="239.67px" height="55.67px" viewBox="0 0 239.67 55.67" enable-background="new 0 0 239.67 55.67" xml:space="preserve">
<rect x="3.652" y="27.835" fill="#7F7F81" width="232.367" height="22.25"/>
<rect x="3.653" y="6.085" fill="#005C62" width="232.365" height="22.25"/>
<path fill="#FEFEFE" d="M32.694,18.698c-5.63,0.001-11.258,0.011-16.886-0.004c-2.979-0.007-5.323-0.509-5.133-1.893
	c0.167-1.215,2.423-1.647,5.138-1.647c11.456,0,22.917-0.008,34.372,0.007c2.751,0.004,4.864,0.551,4.864,1.765
	s-2.12,1.753-4.869,1.762C44.35,18.712,38.522,18.698,32.694,18.698z"/>
<path fill="#FEFEFE" d="M97.48,18.698c-5.63,0.001-11.258,0.011-16.886-0.004c-2.979-0.007-5.323-0.509-5.133-1.893
	c0.167-1.215,2.423-1.647,5.138-1.647c11.456,0,22.917-0.008,34.372,0.007c2.751,0.004,4.864,0.551,4.864,1.765
	s-2.12,1.753-4.869,1.762C109.136,18.712,103.308,18.698,97.48,18.698z"/>
<ellipse fill="#FEFEFE" cx="193.626" cy="16.927" rx="5.125" ry="4.697"/>
<ellipse fill="#FEFEFE" cx="178.46" cy="16.927" rx="5.125" ry="4.697"/>
<ellipse fill="#FEFEFE" cx="208.792" cy="16.927" rx="5.125" ry="4.697"/>
<ellipse fill="#FEFEFE" cx="223.958" cy="16.927" rx="5.125" ry="4.697"/>
</svg>
