<?xml version="1.0" encoding="utf-8"?>
<!-- Generator: Adobe Illustrator 17.0.0, SVG Export Plug-In . SVG Version: 6.00 Build 0)  -->
<!DOCTYPE svg PUBLIC "-//W3C//DTD SVG 1.1//EN" "http://www.w3.org/Graphics/SVG/1.1/DTD/svg11.dtd">
<svg version="1.1" id="Layer_1" xmlns="http://www.w3.org/2000/svg" xmlns:xlink="http://www.w3.org/1999/xlink" x="0px" y="0px"
	 width="239.67px" height="55.67px" viewBox="0 0 239.67 55.67" enable-background="new 0 0 239.67 55.67" xml:space="preserve">
<rect x="3.648" y="2.585" fill="#F7F9F9" width="229.466" height="52.085"/>
<path fill="#808081" d="M3.616,48.643c0-6.035,0-12.071,0-18.106c0.767-0.701,1.806-0.863,2.947-0.881
	c1.371-0.021,2.743-0.028,4.114-0.028c71.875-0.001,143.752,0.001,215.627-0.004c8.518-0.001,6.891,0.132,6.98,5.195
	c0.071,4.044-0.088,8.093,0.065,12.134c0.06,1.587-0.636,1.935-2.642,1.927c-14.631-0.061-29.263-0.033-43.893-0.033
	c-59.987,0-119.976,0.001-179.963-0.01C5.773,48.837,4.657,49.04,3.616,48.643z"/>
<path fill="#005C62" d="M118.495,27.052c-35.368,0-70.736-0.028-106.104,0.067c-2.19,0.006-2.947-0.553-2.812-3.568
	c0.22-4.898,0.11-9.827,0.031-14.739c-0.026-1.695,0.383-2.363,1.674-2.141c0.442,0.076,0.899,0.012,1.348,0.012
	c70.556,0,141.113,0.016,211.669-0.068c2.382-0.003,3.257,0.619,3.084,3.921c-0.244,4.658-0.135,9.358-0.027,14.036
	c0.046,1.998-0.428,2.562-1.95,2.525c-4.858-0.12-9.719-0.044-14.579-0.044C180.052,27.052,149.274,27.052,118.495,27.052z"/>
<path fill="#FEFEFE" d="M154.896,15.013c2.563,0.001,5.125-0.006,7.689,0.004c1.305,0.005,2.35,0.51,2.293,1.951
	c-0.051,1.267-1.029,1.751-2.231,1.752c-4.949,0.004-9.898-0.003-14.847,0.008c-1.294,0.003-2.4-0.403-2.423-1.83
	c-0.024-1.43,1.06-1.888,2.363-1.886C150.124,15.016,152.51,15.013,154.896,15.013z"/>
<path fill="#FEFEFE" d="M180.743,18.726c-2.386,0-4.773-0.017-7.158,0.007c-1.34,0.014-2.661-0.189-2.724-1.79
	c-0.063-1.61,1.198-1.939,2.571-1.936c4.772,0.011,9.545,0.012,14.317-0.001c1.368-0.004,2.644,0.315,2.598,1.915
	c-0.046,1.595-1.364,1.824-2.709,1.81C185.338,18.708,183.041,18.726,180.743,18.726z"/>
<path fill="#FEFEFE" d="M205.834,18.727c-2.386-0.001-4.772-0.003-7.158-0.001c-1.302,0.001-2.384-0.464-2.35-1.897
	c0.034-1.427,1.142-1.821,2.434-1.82c4.86,0.011,9.721,0.011,14.582-0.001c1.279-0.004,2.434,0.35,2.479,1.773
	c0.052,1.613-1.191,1.955-2.564,1.949C210.783,18.719,208.308,18.728,205.834,18.727z"/>
<path fill="#FAFBFB" d="M35.794,16.826c0.02,2.734-1.746,4.578-4.36,4.555c-2.479-0.022-4.14-1.818-4.136-4.474
	c0.004-2.713,1.784-4.563,4.379-4.552C34.147,12.367,35.774,14.133,35.794,16.826z"/>
<path fill="#FAFBFB" d="M53.837,16.959c-0.038,2.709-1.874,4.515-4.494,4.42c-2.461-0.089-4.063-1.934-3.999-4.606
	c0.065-2.701,1.892-4.492,4.51-4.417C52.299,12.427,53.877,14.249,53.837,16.959z"/>
<path fill="#F7F9F9" d="M44.613,18.634c0.606,2.5-0.993,2.814-3.033,2.766c-2.02-0.049-3.688-0.654-4.417-2.696
	c-0.632-1.771-0.525-3.529,0.853-4.943c1.511-1.55,3.469-1.559,5.451-1.299c0.531,0.07,0.792,0.419,0.689,0.919
	c-0.168,0.827-0.753,0.789-1.435,0.659c-1.422-0.271-2.642,0.068-3.406,1.413c-0.588,1.034-0.418,2.085,0.18,3.018
	c0.669,1.045,1.821,1.827,2.863,1.056c0.762-0.565,0.63-1.755-0.78-2.061c-0.14-0.031-0.323-0.687-0.209-0.916
	c0.408-0.825,1.232-0.414,1.882-0.465c0.595-0.048,1.314-0.124,1.355,0.807C44.632,17.42,44.613,17.951,44.613,18.634z"/>
<path fill="#F7F9F9" d="M21.526,16.424c0-1.057,0.012-2.114-0.004-3.172c-0.013-0.856,0.507-0.973,1.201-0.982
	c0.732-0.01,0.871,0.406,0.868,1.001c-0.006,0.969-0.011,1.938,0.004,2.907c0.028,1.74-0.616,3.971,2.554,3.395
	c0.572-0.104,0.983,0.293,0.943,0.967c-0.045,0.746-0.599,0.736-1.128,0.764c-0.088,0.005-0.177-0.004-0.264,0.005
	c-4.182,0.383-4.182,0.383-4.182-3.829c0-0.352,0-0.705,0-1.057C21.52,16.424,21.523,16.424,21.526,16.424z"/>
<path fill="#075F65" d="M29.396,16.863c0.178-1.394,0.559-2.854,2.169-2.829c1.584,0.024,2.097,1.45,2.075,2.857
	c-0.021,1.388-0.487,2.829-2.116,2.814C29.894,19.69,29.581,18.212,29.396,16.863z"/>
<path fill="#075F65" d="M47.442,16.723c0.237-1.347,0.632-2.818,2.272-2.688c1.545,0.123,2.045,1.551,1.969,2.964
	c-0.075,1.382-0.565,2.827-2.219,2.704C47.879,19.588,47.567,18.124,47.442,16.723z"/>
</svg>
