<?xml version="1.0" encoding="utf-8"?>
<!-- Generator: Adobe Illustrator 17.0.0, SVG Export Plug-In . SVG Version: 6.00 Build 0)  -->
<!DOCTYPE svg PUBLIC "-//W3C//DTD SVG 1.1//EN" "http://www.w3.org/Graphics/SVG/1.1/DTD/svg11.dtd">
<svg version="1.1" id="Layer_1" xmlns="http://www.w3.org/2000/svg" xmlns:xlink="http://www.w3.org/1999/xlink" x="0px" y="0px"
	 width="239.67px" height="55.67px" viewBox="-2.835 -2.835 239.67 55.67" enable-background="new -2.835 -2.835 239.67 55.67"
	 xml:space="preserve">
<rect x="0.816" y="24.75" fill="#7F7F81" width="232.367" height="22.25"/>
<rect x="0.817" y="3" fill="#005C62" width="232.365" height="22.25"/>
<path fill="#FAFBFB" d="M30.97,14.776c-0.04,2.852-1.97,4.75-4.728,4.65c-2.589-0.094-4.274-2.035-4.207-4.846
	c0.068-2.842,1.991-4.726,4.744-4.646C29.351,10.009,31.01,11.926,30.97,14.776z"/>
<path fill="#FAFBFB" d="M41.012,14.688c0.02-2.854,1.902-4.783,4.64-4.755c2.589,0.026,4.292,1.903,4.298,4.736
	c0.006,2.868-1.87,4.8-4.621,4.758C42.728,19.388,40.993,17.483,41.012,14.688z"/>
<path fill="#F7F9F9" d="M40.271,16.531c-0.158,0.983,0.544,2.513-1.319,2.763c-2.259,0.304-4.609,0.46-6.054-1.748
	c-1.276-1.95-1.295-4.111,0.268-5.961c1.56-1.845,3.745-1.828,5.926-1.53c0.552,0.075,0.782,0.477,0.662,1.003
	c-0.114,0.495-0.432,0.791-0.996,0.737c-0.644-0.062-1.319-0.244-1.93-0.122c-1.532,0.306-2.5,1.256-2.481,2.895
	c0.018,1.547,0.755,2.671,2.31,3.09c0.517,0.139,1.229,0.282,1.452-0.365c0.163-0.471,0.156-1.317-0.136-1.556
	c-0.52-0.424-1.645-0.473-1.11-1.431c0.535-0.957,1.692-0.446,2.559-0.425c1.158,0.027,0.759,1.038,0.844,1.707
	C40.3,15.863,40.271,16.146,40.271,16.531z"/>
<path fill="#F7F9F9" d="M18.621,19.43c-2.278,0.574-2.996-0.57-2.704-2.975c0.189-1.553,0.009-3.148,0.048-4.722
	c0.018-0.755-0.329-1.732,1.038-1.812c1.425-0.083,1.1,0.906,1.124,1.674c0.032,1.019,0.067,2.043-0.005,3.058
	c-0.128,1.818-0.115,3.406,2.484,2.942c0.698-0.125,1.294,0.185,1.201,1.09c-0.082,0.795-0.699,0.721-1.237,0.741
	C20.015,19.447,19.458,19.43,18.621,19.43z"/>
<path fill="#075F65" d="M28.762,14.71c-0.207,1.41-0.542,2.966-2.264,2.957c-1.702-0.009-2.193-1.524-2.201-2.986
	c-0.009-1.478,0.534-2.978,2.208-2.979C28.191,11.7,28.588,13.233,28.762,14.71z"/>
<path fill="#075F65" d="M47.743,14.623c-0.172,1.442-0.503,2.99-2.201,3.044c-1.721,0.054-2.223-1.461-2.264-2.921
	c-0.041-1.481,0.489-2.982,2.144-3.044C47.13,11.638,47.532,13.177,47.743,14.623z"/>
<g>
	<path fill="#FEFEFE" d="M206.974,6.392c2.737,0,5.475,0.043,8.211-0.021c1.17-0.028,1.799,0.118,1.766,1.564
		c-0.097,4.145-0.08,8.295-0.007,12.442c0.021,1.245-0.431,1.51-1.575,1.5c-5.641-0.049-11.281-0.057-16.922,0.004
		c-1.237,0.013-1.522-0.418-1.505-1.57c0.059-4.147,0.068-8.296-0.004-12.442c-0.021-1.245,0.429-1.528,1.575-1.5
		C201.332,6.438,204.153,6.392,206.974,6.392z"/>
	<path fill="#015C62" d="M207.009,20.846c-2.406,0-4.815-0.069-7.217,0.028c-1.361,0.055-1.904-0.288-1.857-1.766
		c0.107-3.316,0.105-6.639,0.001-9.954c-0.046-1.461,0.467-1.803,1.843-1.782c4.81,0.075,9.625,0.064,14.436,0.005
		c1.249-0.016,1.765,0.271,1.727,1.64c-0.092,3.399-0.09,6.804-0.001,10.203c0.036,1.352-0.445,1.698-1.715,1.653
		C211.823,20.784,209.415,20.846,207.009,20.846z"/>
	<path fill="#E2EAEB" d="M206.983,17.34c-1.657-0.001-3.314,0.001-4.971-0.002c-0.593-0.001-1.195-0.002-1.212-0.843
		c-0.014-0.781,0.477-0.975,1.129-0.976c3.314-0.003,6.629-0.004,9.943,0c0.614,0.001,1.178,0.093,1.207,0.895
		c0.038,1.044-0.73,0.917-1.374,0.921C210.131,17.351,208.557,17.341,206.983,17.34z"/>
	<path fill="#FAFBFB" d="M206.941,13.071c-1.571,0-3.142,0.009-4.713-0.004c-0.646-0.005-1.42,0.111-1.389-0.912
		c0.026-0.875,0.709-0.754,1.265-0.756c3.225-0.009,6.45-0.009,9.675,0c0.556,0.001,1.239-0.119,1.265,0.756
		c0.03,1.023-0.744,0.907-1.389,0.912C210.083,13.08,208.511,13.071,206.941,13.071z"/>
</g>
</svg>
