<?xml version="1.0" encoding="utf-8"?>
<!-- Generator: Adobe Illustrator 17.0.0, SVG Export Plug-In . SVG Version: 6.00 Build 0)  -->
<!DOCTYPE svg PUBLIC "-//W3C//DTD SVG 1.1//EN" "http://www.w3.org/Graphics/SVG/1.1/DTD/svg11.dtd">
<svg version="1.1" id="Layer_1" xmlns="http://www.w3.org/2000/svg" xmlns:xlink="http://www.w3.org/1999/xlink" x="0px" y="0px"
	 width="239.67px" height="55.67px" viewBox="-2.835 -2.835 239.67 55.67" enable-background="new -2.835 -2.835 239.67 55.67"
	 xml:space="preserve">
<rect x="1.172" y="4.131" fill="#848484" width="232.365" height="42.432"/>
<path fill="#848484" d="M117.735,43.55c-35.915,0-71.831,0.001-107.746-0.001c-5.932-0.001-8.18-2.512-8.185-9.139
	c-0.005-6.798-0.027-13.596,0.009-20.393C1.84,8.802,4.345,5.952,8.963,5.951c72.484-0.013,144.969-0.013,217.455,0
	c4.74,0.001,7.181,2.863,7.199,8.334c0.022,6.904,0.018,13.808,0.002,20.712c-0.014,5.826-2.416,8.547-7.577,8.549
	C189.939,43.555,153.836,43.55,117.735,43.55z"/>
<g>
	<path fill="#98988D" d="M218.268,35.941c-0.04-7.185-0.078-14.37-0.118-21.555c2.127,0.963,1.779,3.133,1.852,4.719
		c0.229,5.032,0.542,10.095-0.323,15.119C219.525,35.126,219.251,35.787,218.268,35.941z"/>
	<path fill="#878785" d="M119.475,39.32c-34.041,0-68.082,0.001-102.123-0.001c-6.737-0.001-9.074-2.227-9.077-8.637
		c-0.003-4.09-0.007-8.18,0.001-12.271c0.011-5.874,2.491-8.236,8.687-8.236c53.996-0.004,107.993-0.002,161.989-0.002
		c14.448,0,28.894-0.005,43.342,0.003c6.186,0.004,8.659,2.365,8.669,8.252c0.008,4.261,0.009,8.522-0.001,12.783
		c-0.014,5.704-2.533,8.106-8.551,8.107C188.099,39.324,153.786,39.32,119.475,39.32z"/>
	<path fill="#005F65" d="M222.517,35.839c-0.059,0.138-0.087,0.283-0.083,0.433c-2.126,1.332-4.559,1.063-6.881,1.067
		c-26.143,0.042-52.285,0.026-78.428,0.026c-39.302,0-78.604,0.01-117.906-0.023c-2.329-0.002-4.753,0.23-6.9-1.039l0.048,0.047
		c-1.353-1.774-0.987-3.896-1.039-5.836c-0.125-4.765-0.263-9.542,0.179-14.307c0.088-0.947,0.267-1.815,0.859-2.584l-0.048,0.047
		c2.147-1.269,4.57-1.036,6.899-1.039c28.159-0.037,56.318-0.024,84.476-0.024c37.283,0,74.564-0.01,111.847,0.023
		c2.328,0.002,4.753-0.23,6.899,1.039l-0.048-0.047c1.316,1.687,0.989,3.725,1.036,5.58c0.122,4.845,0.276,9.702-0.18,14.547
		C223.174,34.524,223.062,35.239,222.517,35.839z"/>
	<path fill="#97978D" d="M222.751,13.728c-0.615-0.017-1.23-0.047-1.844-0.047c-68.91-0.002-137.821-0.002-206.732,0
		c-0.615,0-1.23,0.031-1.844,0.047c0.813-1.837,2.772-1.484,4.296-1.879c0.905-0.234,1.917-0.134,2.882-0.135
		c65.355-0.005,130.71-0.011,196.065,0.022C218.116,11.738,220.911,11.345,222.751,13.728z"/>
	<path fill="#98988D" d="M12.45,13.764c0,7.477,0,14.953,0,22.43c-2.47-1.139-2.012-3.506-2.076-5.269
		c-0.177-4.849-0.564-9.73,0.353-14.578C10.944,15.195,11.268,14.282,12.45,13.764z"/>
	<path fill="#98988D" d="M222.88,36.164c-0.12-7.476-0.24-14.951-0.36-22.427c2.488,1.099,2.068,3.473,2.16,5.235
		c0.255,4.845,0.72,9.72-0.119,14.581C224.364,34.709,224.054,35.627,222.88,36.164z"/>
	<path fill="#FEFEFE" d="M162.975,26.72c-2.409,0.001-4.819,0.008-7.228-0.002c-1.228-0.006-2.202-0.478-2.136-1.846
		c0.058-1.206,0.983-1.632,2.106-1.633c4.736-0.002,9.472-0.008,14.208,0.006c1.135,0.004,2.011,0.516,2.022,1.72
		c0.012,1.208-0.858,1.734-1.993,1.747C167.627,26.736,165.301,26.72,162.975,26.72z"/>
	<path fill="#FEFEFE" d="M186.69,26.721c-2.326,0-4.653,0.005-6.979-0.002c-1.224-0.004-2.21-0.453-2.166-1.82
		c0.038-1.208,0.955-1.657,2.081-1.658c4.736-0.006,9.472-0.008,14.208,0.002c1.132,0.002,2.034,0.492,2.045,1.695
		c0.011,1.361-0.988,1.784-2.209,1.784C191.343,26.721,189.016,26.721,186.69,26.721z"/>
	<path fill="#FEFEFE" d="M207.97,26.465c-2.213,0.001-4.427-0.005-6.64,0.004c-1.197,0.005-2.223-0.371-2.234-1.707
		c-0.012-1.337,1.004-1.735,2.204-1.735c4.591,0.003,9.181-0.003,13.772,0.006c1.213,0.002,2.172,0.474,2.108,1.821
		c-0.057,1.189-0.968,1.61-2.078,1.611C212.724,26.466,210.347,26.465,207.97,26.465z"/>
	<path fill="#FAFBFB" d="M24.46,24.913c0.05-2.542,1.759-4.234,4.217-4.174c2.314,0.057,3.791,1.746,3.764,4.305
		c-0.026,2.561-1.729,4.252-4.201,4.176C25.914,29.148,24.41,27.436,24.46,24.913z"/>
	<path fill="#FAFBFB" d="M48.727,25.04c-0.025,2.562-1.724,4.254-4.198,4.18c-2.328-0.071-3.832-1.78-3.785-4.303
		c0.047-2.543,1.756-4.236,4.214-4.179C47.274,20.793,48.753,22.482,48.727,25.04z"/>
	<path fill="#F7F9F9" d="M40.071,26.581c0.008,2.559-2.574,3.587-5.306,2.118c-1.923-1.035-2.641-3.825-1.505-5.853
		c0.963-1.719,4.358-2.828,5.929-1.967c0.462,0.253,0.541,0.586,0.384,1.009c-0.294,0.791-0.906,0.47-1.461,0.397
		c-1.242-0.164-2.298,0.152-2.983,1.286c-0.576,0.953-0.396,1.895,0.063,2.834c0.316,0.646,0.876,1.007,1.515,1.189
		c0.518,0.146,1.231,0.416,1.454-0.372c0.135-0.474,0.419-1.243-0.388-1.44c-0.757-0.185-1.077-0.654-0.731-1.21
		c0.388-0.626,1.21-0.294,1.847-0.338c0.618-0.042,1.183,0.036,1.183,0.863C40.071,25.589,40.071,26.085,40.071,26.581z"/>
	<path fill="#F7F9F9" d="M19.029,24.832c-0.001-0.828-0.031-1.657,0.008-2.483c0.032-0.674-0.294-1.548,0.928-1.62
		c1.272-0.075,0.979,0.807,1.007,1.493c0.027,0.661-0.01,1.325,0.009,1.987c0.05,1.677-0.7,3.925,2.462,3.383
		c0.553-0.095,0.878,0.347,0.821,0.964c-0.05,0.545-0.434,0.651-0.862,0.656c-1.159,0.015-2.318,0-3.477,0.006
		c-0.81,0.004-0.91-0.513-0.9-1.157C19.043,26.984,19.03,25.908,19.029,24.832z"/>
	<path fill="#076268" d="M26.416,25.242c0.141-1.501,0.496-2.867,1.973-2.921c1.503-0.056,2.006,1.286,2.029,2.6
		c0.022,1.308-0.416,2.656-1.906,2.727C26.948,27.72,26.71,26.268,26.416,25.242z"/>
	<path fill="#076268" d="M46.756,24.956c-0.17,1.274-0.471,2.662-1.987,2.689c-1.523,0.027-1.975-1.327-2.001-2.628
		c-0.026-1.321,0.462-2.661,1.935-2.697C46.212,22.284,46.575,23.657,46.756,24.956z"/>
</g>
</svg>
