<?xml version="1.0" encoding="utf-8"?>
<!-- Generator: Adobe Illustrator 17.0.0, SVG Export Plug-In . SVG Version: 6.00 Build 0)  -->
<!DOCTYPE svg PUBLIC "-//W3C//DTD SVG 1.1//EN" "http://www.w3.org/Graphics/SVG/1.1/DTD/svg11.dtd">
<svg version="1.1" id="Layer_1" xmlns="http://www.w3.org/2000/svg" xmlns:xlink="http://www.w3.org/1999/xlink" x="0px" y="0px"
	 width="239.67px" height="55.67px" viewBox="-2.835 -2.835 239.67 55.67" enable-background="new -2.835 -2.835 239.67 55.67"
	 xml:space="preserve">
<rect x="0.816" y="24.071" fill="#7F7F81" width="232.367" height="22.25"/>
<rect x="0.818" y="3.889" fill="#005C62" width="232.365" height="22.25"/>
<path fill="#FEFEFE" d="M148.527,16.793c-2.463,0.001-4.928-0.006-7.391,0.004c-1.334,0.005-2.478-0.424-2.493-1.899
	c-0.015-1.478,1.115-1.936,2.453-1.936c5.11,0.003,10.219-0.003,15.329,0.006c1.35,0.002,2.421,0.536,2.353,2.026
	c-0.06,1.31-1.076,1.797-2.313,1.798C153.819,16.794,151.173,16.793,148.527,16.793z"/>
<path fill="#FEFEFE" d="M182.153,12.962c2.463,0,4.928,0.01,7.391-0.004c1.415-0.008,2.701,0.335,2.661,2
	c-0.035,1.474-1.223,1.846-2.546,1.843c-5.018-0.011-10.037-0.011-15.055-0.001c-1.326,0.002-2.506-0.388-2.525-1.863
	c-0.022-1.665,1.274-1.988,2.683-1.979C177.226,12.972,179.69,12.962,182.153,12.962z"/>
<path fill="#FEFEFE" d="M216.054,16.792c-2.555,0.001-5.11,0.011-7.664-0.004c-1.352-0.008-2.416-0.548-2.332-2.042
	c0.074-1.312,1.097-1.781,2.329-1.781c5.201-0.001,10.402-0.008,15.603,0.008c1.249,0.004,2.208,0.593,2.211,1.904
	c0.002,1.313-0.96,1.895-2.208,1.906C221.346,16.807,218.7,16.791,216.054,16.792z"/>
<path fill="#FDFDFD" d="M198.693,23.641c0-5.748,0-11.495,0-17.244c0.399-0.004,0.797-0.008,1.196-0.011
	c0.118,5.72,0.099,11.443,0,17.166C199.491,23.583,199.092,23.612,198.693,23.641z"/>
<path fill="#FDFDFD" d="M165.853,23.641c0-5.748,0-11.495,0-17.244c0.399-0.004,0.797-0.008,1.196-0.011
	c0.118,5.72,0.099,11.443,0,17.166C166.65,23.583,166.251,23.612,165.853,23.641z"/>
</svg>
