<?xml version="1.0" encoding="utf-8"?>
<!-- Generator: Adobe Illustrator 17.0.0, SVG Export Plug-In . SVG Version: 6.00 Build 0)  -->
<!DOCTYPE svg PUBLIC "-//W3C//DTD SVG 1.1//EN" "http://www.w3.org/Graphics/SVG/1.1/DTD/svg11.dtd">
<svg version="1.1" id="Layer_1" xmlns="http://www.w3.org/2000/svg" xmlns:xlink="http://www.w3.org/1999/xlink" x="0px" y="0px"
	 width="239.67px" height="55.67px" viewBox="-2.835 -2.835 239.67 55.67" enable-background="new -2.835 -2.835 239.67 55.67"
	 xml:space="preserve">
<rect x="0.816" y="23.966" fill="#7F7F81" width="232.367" height="22.25"/>
<rect x="0.818" y="3.784" fill="#005C62" width="232.365" height="22.25"/>
<path fill="#FEFEFE" d="M115.034,16.582c-2.605,0.001-5.211,0.009-7.817-0.001c-1.379-0.006-2.468-0.546-2.397-2.066
	c0.062-1.334,1.089-1.835,2.355-1.835c5.304,0.001,10.608-0.007,15.912,0.007c1.272,0.004,2.258,0.59,2.274,1.924
	c0.016,1.34-0.96,1.947-2.232,1.961C120.431,16.6,117.733,16.581,115.034,16.582z"/>
<path fill="#FEFEFE" d="M149.321,16.587c-2.512,0-5.025-0.018-7.538,0.007c-1.411,0.015-2.802-0.198-2.869-1.885
	c-0.067-1.695,1.262-2.042,2.707-2.038c5.025,0.012,10.05,0.013,15.075-0.001c1.441-0.004,2.784,0.332,2.735,2.017
	c-0.048,1.68-1.436,1.92-2.853,1.906C154.161,16.569,151.741,16.587,149.321,16.587z"/>
<path fill="#FEFEFE" d="M183.819,12.676c2.512,0,5.025,0.011,7.538-0.004c1.443-0.009,2.757,0.338,2.724,2.031
	c-0.029,1.499-1.238,1.891-2.59,1.888c-5.118-0.011-10.236-0.011-15.354,0.001c-1.354,0.004-2.555-0.391-2.581-1.893
	c-0.029-1.697,1.282-2.036,2.725-2.026C178.795,12.689,181.307,12.676,183.819,12.676z"/>
<path fill="#FAFBFB" d="M44.396,15.144c0.021,2.879-1.837,4.821-4.59,4.798c-2.611-0.022-4.36-1.913-4.356-4.71
	c0.004-2.856,1.878-4.806,4.61-4.794C42.661,10.449,44.374,12.308,44.396,15.144z"/>
<path fill="#FAFBFB" d="M63.396,15.153c0.018,2.878-1.845,4.817-4.599,4.789c-2.609-0.026-4.355-1.921-4.348-4.718
	c0.008-2.856,1.884-4.801,4.618-4.786C61.667,10.453,63.378,12.316,63.396,15.153z"/>
<path fill="#F7F9F9" d="M53.693,17.192c-0.146,0.833,0.531,2.273-1.113,2.568c-2.144,0.386-4.319,0.494-5.989-1.305
	c-1.431-1.54-1.464-4.579-0.149-6.229c1.177-1.478,4.615-2.396,6.165-1.662c0.359,0.17,0.637,0.356,0.61,0.804
	c-0.033,0.531-0.309,0.929-0.825,0.944c-0.643,0.02-1.305-0.234-1.933-0.154c-1.562,0.198-2.586,1.095-2.675,2.719
	c-0.084,1.537,0.581,2.732,2.114,3.235c0.575,0.189,1.385,0.473,1.655-0.382c0.165-0.523,0.48-1.403-0.414-1.636
	c-0.837-0.217-1.228-0.714-0.836-1.357c0.436-0.713,1.361-0.33,2.077-0.386c0.708-0.055,1.321,0.068,1.316,0.989
	C53.691,15.899,53.693,16.457,53.693,17.192z"/>
<path fill="#F7F9F9" d="M29.366,15.12c0.001-1.113,0.031-2.228-0.008-3.34c-0.031-0.894,0.225-1.375,1.238-1.358
	c0.993,0.016,0.951,0.641,0.951,1.302c0.001,1.02,0.027,2.042-0.004,3.062c-0.056,1.871-0.347,3.872,2.659,3.33
	c0.601-0.109,1.052,0.276,1.036,0.985c-0.018,0.782-0.584,0.816-1.154,0.842c-0.092,0.004-0.186-0.004-0.279,0.006
	C29.364,20.387,29.364,20.387,29.366,15.12z"/>
<g>
	<path fill="#FEFEFE" d="M131.28,8.033c0.242-0.556-0.4-1.61,0.676-1.536c1.27,0.088,0.581,1.241,0.639,1.899
		c0.045,0.512,0.475,1.563-0.592,1.497C130.681,9.813,131.647,8.609,131.28,8.033z"/>
	<path fill="#FEFEFE" d="M131.288,12.47c0.263-0.553-0.497-1.74,0.8-1.572c1.058,0.136,0.503,1.191,0.505,1.804
		c0.002,0.564,0.562,1.732-0.722,1.572C130.794,14.138,131.552,13.072,131.288,12.47z"/>
	<path fill="#FEFEFE" d="M131.28,16.814c0.242-0.556-0.4-1.61,0.676-1.536c1.27,0.088,0.581,1.241,0.639,1.899
		c0.045,0.512,0.475,1.563-0.592,1.497C130.681,18.594,131.647,17.389,131.28,16.814z"/>
	<path fill="#FEFEFE" d="M132.688,21.486c-0.255,0.581,0.394,1.625-0.668,1.576c-1.307-0.06-0.594-1.226-0.654-1.879
		c-0.048-0.512-0.479-1.556,0.572-1.515C133.281,19.721,132.287,20.947,132.688,21.486z"/>
</g>
<g>
	<path fill="#FEFEFE" d="M166.882,8.033c0.242-0.556-0.4-1.61,0.676-1.536c1.27,0.088,0.581,1.241,0.639,1.899
		c0.045,0.512,0.475,1.563-0.592,1.497C166.284,9.813,167.25,8.609,166.882,8.033z"/>
	<path fill="#FEFEFE" d="M166.891,12.47c0.263-0.553-0.497-1.74,0.8-1.572c1.058,0.136,0.503,1.191,0.505,1.804
		c0.002,0.564,0.562,1.732-0.722,1.572C166.397,14.138,167.155,13.072,166.891,12.47z"/>
	<path fill="#FEFEFE" d="M166.882,16.814c0.242-0.556-0.4-1.61,0.676-1.536c1.27,0.088,0.581,1.241,0.639,1.899
		c0.045,0.512,0.475,1.563-0.592,1.497C166.284,18.594,167.25,17.389,166.882,16.814z"/>
	<path fill="#FEFEFE" d="M168.291,21.486c-0.255,0.581,0.394,1.625-0.668,1.576c-1.307-0.06-0.594-1.226-0.654-1.879
		c-0.048-0.512-0.479-1.556,0.572-1.515C168.884,19.721,167.889,20.947,168.291,21.486z"/>
</g>
<path fill="#075F65" d="M42.211,15.007c-0.218,1.604-0.553,3.159-2.268,3.172c-1.711,0.014-2.206-1.502-2.227-2.965
	c-0.021-1.481,0.516-2.975,2.188-3.008C41.632,12.171,41.929,13.773,42.211,15.007z"/>
<path fill="#075F65" d="M56.664,15.367c0.108-1.525,0.497-3.052,2.143-3.158c1.706-0.109,2.271,1.392,2.321,2.865
	c0.049,1.473-0.428,2.986-2.089,3.104C57.283,18.304,56.929,16.731,56.664,15.367z"/>
</svg>
