<?xml version="1.0" encoding="utf-8"?>
<!-- Generator: Adobe Illustrator 17.0.0, SVG Export Plug-In . SVG Version: 6.00 Build 0)  -->
<!DOCTYPE svg PUBLIC "-//W3C//DTD SVG 1.1//EN" "http://www.w3.org/Graphics/SVG/1.1/DTD/svg11.dtd">
<svg version="1.1" id="Layer_1" xmlns="http://www.w3.org/2000/svg" xmlns:xlink="http://www.w3.org/1999/xlink" x="0px" y="0px"
	 width="239.67px" height="55.67px" viewBox="-2.835 -2.835 239.67 55.67" enable-background="new -2.835 -2.835 239.67 55.67"
	 xml:space="preserve">
<rect x="0.816" y="24.75" fill="#7F7F81" width="232.367" height="22.25"/>
<rect x="0.817" y="3" fill="#7F7F81" width="232.365" height="22.25"/>
<g>
	<rect x="7.786" y="9.418" fill="#005A5F" stroke="#FFFFFF" stroke-miterlimit="10" width="17.925" height="12.429"/>
	<g>
		<path fill="#FFFFFF" d="M16.746,19.073c-1.831,0-3.664-0.009-5.495,0.003c-1.055,0.007-2.008-0.214-1.982-1.231
			c0.021-0.897,0.896-1.147,1.885-1.144c3.731,0.009,7.463,0.009,11.194,0c0.993-0.003,1.863,0.252,1.881,1.148
			c0.021,1.015-0.933,1.235-1.988,1.228C20.409,19.064,18.577,19.073,16.746,19.073z"/>
		<path fill="#FFFFFF" d="M16.758,12.19c1.9,0,3.799-0.001,5.699,0c1.004,0.001,1.805,0.334,1.777,1.275
			c-0.026,0.829-0.767,1.172-1.693,1.172c-3.868,0.003-7.734,0.004-11.602-0.001c-0.928-0.001-1.664-0.358-1.677-1.187
			c-0.014-0.94,0.794-1.261,1.797-1.261C12.958,12.19,14.858,12.19,16.758,12.19z"/>
	</g>
</g>
</svg>
