<?xml version="1.0" encoding="utf-8"?>
<!-- Generator: Adobe Illustrator 17.0.0, SVG Export Plug-In . SVG Version: 6.00 Build 0)  -->
<!DOCTYPE svg PUBLIC "-//W3C//DTD SVG 1.1//EN" "http://www.w3.org/Graphics/SVG/1.1/DTD/svg11.dtd">
<svg version="1.1" id="Layer_1" xmlns="http://www.w3.org/2000/svg" xmlns:xlink="http://www.w3.org/1999/xlink" x="0px" y="0px"
	 width="239.67px" height="55.67px" viewBox="-2.835 -2.835 239.67 55.67" enable-background="new -2.835 -2.835 239.67 55.67"
	 xml:space="preserve">
<rect x="0.816" y="3.184" fill="#005A5F" width="232.367" height="44"/>
<g>
	<g>
		<path fill="#F9FAFA" d="M105.946,13.483c0.059-3.156,2.137-5.212,5.205-5.149c2.838,0.059,4.684,2.168,4.649,5.311
			c-0.035,3.162-2.135,5.249-5.188,5.158C107.744,18.718,105.888,16.603,105.946,13.483z"/>
		<path fill="#F9FAFA" d="M136.728,13.458c0.044,3.192-1.963,5.339-4.998,5.345c-2.902,0.007-4.833-2.034-4.854-5.132
			c-0.023-3.181,1.983-5.314,5.018-5.337C134.793,8.313,136.685,10.318,136.728,13.458z"/>
		<path fill="#F5F7F6" d="M126.082,15.763c-0.081,1.098,0.455,2.712-1.558,2.931c-2.591,0.281-5.259,0.439-6.787-2.258
			c-1.198-2.115-1.156-4.377,0.47-6.294c1.721-2.031,4.123-1.977,6.514-1.702c0.617,0.071,0.917,0.504,0.799,1.068
			c-0.253,1.202-1.142,0.835-1.946,0.728c-1.696-0.227-3.052,0.357-3.803,1.929c-0.641,1.342-0.239,2.625,0.663,3.704
			c0.603,0.722,1.484,1.256,2.434,1.034c1.533-0.358,1.224-1.723,0.497-2.238c-0.709-0.503-1.649-0.762-1.028-1.645
			c0.546-0.776,1.72-0.323,2.62-0.361c0.998-0.042,1.139,0.634,1.126,1.42C126.076,14.588,126.082,15.099,126.082,15.763z"/>
		<path fill="#F6F8F7" d="M102.161,18.808c-2.476,0.616-3.307-0.61-2.979-3.28c0.211-1.712,0.009-3.47,0.054-5.207
			c0.021-0.832-0.359-1.914,1.149-1.995c1.554-0.084,1.231,0.994,1.252,1.85c0.031,1.327,0.062,2.659-0.005,3.985
			c-0.079,1.566-0.075,2.905,2.152,2.621c0.833-0.106,2.075-0.253,1.902,1.22c-0.145,1.231-1.257,0.677-1.976,0.794
			C103.312,18.861,102.895,18.808,102.161,18.808z"/>
	</g>
	<path fill="#0D5C62" d="M113.366,13.603c-0.244,1.544-0.606,3.266-2.498,3.254c-1.869-0.01-2.413-1.685-2.424-3.288
		c-0.011-1.621,0.598-3.278,2.433-3.279C112.725,10.29,113.163,11.983,113.366,13.603z"/>
	<path fill="#0D5C62" d="M134.296,13.445c-0.175,1.593-0.531,3.3-2.373,3.412c-1.905,0.115-2.471-1.565-2.546-3.159
		c-0.077-1.63,0.515-3.287,2.306-3.406C133.57,10.167,134.022,11.874,134.296,13.445z"/>
</g>
<path fill="#FFFFFF" d="M117.917,36.137c-2.73,0-5.461-0.012-8.192,0.005c-1.574,0.01-2.993-0.319-2.956-1.835
	c0.033-1.338,1.335-1.71,2.81-1.706c5.562,0.013,11.125,0.014,16.687,0c1.479-0.004,2.777,0.376,2.805,1.712
	c0.031,1.514-1.39,1.841-2.963,1.83C123.378,36.124,120.648,36.137,117.917,36.137z"/>
<path fill="#FFFFFF" d="M117.917,42.747c-2.73,0-5.461-0.012-8.192,0.005c-1.574,0.009-2.993-0.309-2.956-1.775
	c0.033-1.293,1.335-1.653,2.81-1.649c5.562,0.013,11.125,0.013,16.687,0c1.479-0.004,2.777,0.363,2.805,1.655
	c0.031,1.464-1.39,1.78-2.963,1.769C123.378,42.735,120.648,42.747,117.917,42.747z"/>
<path fill="#FFFFFF" d="M117.935,25.877c2.832,0,5.663-0.002,8.496,0.001c1.496,0.002,2.692,0.497,2.649,1.9
	c-0.038,1.235-1.142,1.747-2.524,1.747c-5.764,0.004-11.529,0.006-17.293-0.002c-1.383-0.002-2.481-0.534-2.499-1.769
	c-0.021-1.4,1.185-1.88,2.678-1.88C112.271,25.877,115.104,25.877,117.935,25.877z"/>
<g>
	<rect x="206.715" y="9.276" fill="#005A5F" stroke="#FFFFFF" stroke-miterlimit="10" width="12.569" height="8.715"/>
	<g>
		<path fill="#FFFFFF" d="M212.998,16.046c-1.284,0-2.569-0.006-3.853,0.002c-0.74,0.005-1.408-0.15-1.39-0.863
			c0.016-0.629,0.628-0.804,1.322-0.802c2.616,0.006,5.233,0.006,7.849,0c0.696-0.002,1.306,0.177,1.319,0.805
			c0.015,0.712-0.654,0.866-1.394,0.861C215.567,16.04,214.282,16.046,212.998,16.046z"/>
		<path fill="#FFFFFF" d="M213.007,11.22c1.332,0,2.664-0.001,3.996,0c0.704,0.001,1.266,0.234,1.246,0.894
			c-0.018,0.581-0.538,0.822-1.187,0.822c-2.712,0.002-5.423,0.003-8.135-0.001c-0.651-0.001-1.167-0.251-1.176-0.832
			c-0.01-0.659,0.557-0.884,1.26-0.884C210.343,11.22,211.675,11.22,213.007,11.22z"/>
	</g>
</g>
</svg>
