<?xml version="1.0" encoding="utf-8"?>
<!-- Generator: Adobe Illustrator 17.0.0, SVG Export Plug-In . SVG Version: 6.00 Build 0)  -->
<!DOCTYPE svg PUBLIC "-//W3C//DTD SVG 1.1//EN" "http://www.w3.org/Graphics/SVG/1.1/DTD/svg11.dtd">
<svg version="1.1" id="Layer_1" xmlns="http://www.w3.org/2000/svg" xmlns:xlink="http://www.w3.org/1999/xlink" x="0px" y="0px"
	 width="239.67px" height="55.67px" viewBox="-2.835 -2.835 239.67 55.67" enable-background="new -2.835 -2.835 239.67 55.67"
	 xml:space="preserve">
<rect x="0.816" y="24.75" fill="#7F7F81" width="232.367" height="22.25"/>
<rect x="0.817" y="3" fill="#7F7F81" width="232.365" height="22.25"/>
<g>
	<rect x="35.404" y="10.266" fill="#005A5F" stroke="#FFFFFF" stroke-miterlimit="10" width="12.569" height="8.715"/>
	<g>
		<path fill="#FFFFFF" d="M41.687,17.036c-1.284,0-2.569-0.006-3.853,0.002c-0.74,0.005-1.408-0.15-1.39-0.863
			c0.015-0.629,0.628-0.804,1.322-0.802c2.616,0.006,5.233,0.006,7.849,0c0.696-0.002,1.306,0.177,1.319,0.805
			c0.015,0.712-0.654,0.866-1.394,0.861C44.255,17.03,42.971,17.036,41.687,17.036z"/>
		<path fill="#FFFFFF" d="M41.695,12.21c1.332,0,2.664-0.001,3.996,0c0.704,0.001,1.266,0.234,1.246,0.894
			c-0.018,0.581-0.538,0.822-1.187,0.822c-2.712,0.002-5.423,0.003-8.135-0.001c-0.651-0.001-1.167-0.251-1.176-0.832
			c-0.01-0.659,0.557-0.884,1.26-0.884C39.031,12.21,40.363,12.21,41.695,12.21z"/>
	</g>
</g>
<rect x="0.816" y="3" fill="#005A5F" width="31.687" height="44"/>
<path fill="#FFFFFF" d="M17.266,36.797c3,0,5.999-0.002,8.999,0.001c1.585,0.002,2.851,0.526,2.806,2.013
	c-0.04,1.308-1.21,1.85-2.674,1.851c-6.106,0.004-12.212,0.006-18.318-0.002c-1.465-0.002-2.628-0.566-2.647-1.874
	c-0.022-1.483,1.255-1.991,2.837-1.991C11.267,36.798,14.267,36.797,17.266,36.797z"/>
<g>
	<g>
		<path fill="#F9FAFA" d="M14.885,14.318c0.053-2.853,1.932-4.711,4.704-4.654c2.565,0.053,4.233,1.959,4.202,4.8
			c-0.032,2.857-1.929,4.744-4.689,4.662C16.51,19.05,14.833,17.138,14.885,14.318z"/>
		<path fill="#F6F8F7" d="M11.464,19.132c-2.238,0.556-2.99-0.551-2.692-2.965c0.19-1.547,0.009-3.137,0.048-4.706
			c0.019-0.752-0.324-1.73,1.039-1.803c1.405-0.076,1.113,0.898,1.131,1.672c0.028,1.2,0.056,2.404-0.004,3.602
			c-0.072,1.416-0.067,2.626,1.946,2.369c0.753-0.096,1.876-0.229,1.719,1.102c-0.131,1.112-1.137,0.612-1.786,0.718
			C12.504,19.18,12.127,19.132,11.464,19.132z"/>
	</g>
	<path fill="#0D5C62" d="M21.592,14.427c-0.22,1.395-0.548,2.951-2.258,2.942c-1.69-0.01-2.181-1.523-2.191-2.972
		c-0.01-1.465,0.54-2.962,2.199-2.964C21.013,11.432,21.408,12.962,21.592,14.427z"/>
</g>
</svg>
