<?xml version="1.0" encoding="utf-8"?>
<!-- Generator: Adobe Illustrator 17.0.0, SVG Export Plug-In . SVG Version: 6.00 Build 0)  -->
<!DOCTYPE svg PUBLIC "-//W3C//DTD SVG 1.1//EN" "http://www.w3.org/Graphics/SVG/1.1/DTD/svg11.dtd">
<svg version="1.1" id="Layer_1" xmlns="http://www.w3.org/2000/svg" xmlns:xlink="http://www.w3.org/1999/xlink" x="0px" y="0px"
	 width="239.67px" height="55.67px" viewBox="-2.835 -2.835 239.67 55.67" enable-background="new -2.835 -2.835 239.67 55.67"
	 xml:space="preserve">
<rect x="0.816" y="24.75" fill="#7F7F81" width="232.367" height="22.25"/>
<rect x="0.817" y="3" fill="#7F7F81" width="232.365" height="22.25"/>
<rect x="1.244" y="3" fill="#005A5F" width="57.625" height="44"/>
<g>
	<path fill="#FFFFFF" d="M30.21,34.571c-2.425,0-4.851-0.011-7.276,0.004c-1.398,0.009-2.658-0.283-2.625-1.63
		c0.029-1.188,1.186-1.519,2.496-1.515c4.94,0.012,9.881,0.013,14.821,0c1.314-0.003,2.466,0.334,2.491,1.52
		c0.028,1.345-1.234,1.635-2.632,1.625C35.06,34.56,32.635,34.571,30.21,34.571z"/>
	<path fill="#FFFFFF" d="M30.21,40.443c-2.425,0-4.851-0.011-7.276,0.004c-1.398,0.008-2.658-0.274-2.625-1.576
		c0.029-1.149,1.186-1.468,2.496-1.465c4.94,0.012,9.881,0.012,14.821,0c1.314-0.003,2.466,0.323,2.491,1.47
		c0.028,1.301-1.234,1.581-2.632,1.571C35.06,40.431,32.635,40.443,30.21,40.443z"/>
	<path fill="#FFFFFF" d="M30.226,25.458c2.516,0,5.03-0.002,7.546,0.001c1.329,0.002,2.391,0.441,2.353,1.688
		c-0.034,1.097-1.015,1.551-2.242,1.552c-5.12,0.003-10.24,0.005-15.36-0.002c-1.228-0.002-2.204-0.475-2.22-1.571
		c-0.018-1.244,1.052-1.669,2.379-1.669C25.195,25.458,27.71,25.458,30.226,25.458z"/>
</g>
<g>
	<g>
		<path fill="#F9FAFA" d="M21.136,12.165c0.044-2.392,1.62-3.95,3.944-3.902c2.151,0.044,3.549,1.643,3.523,4.025
			c-0.027,2.396-1.617,3.978-3.932,3.909C22.498,16.132,21.093,14.529,21.136,12.165z"/>
		<path fill="#F9FAFA" d="M44.467,12.145c0.034,2.419-1.488,4.046-3.788,4.052c-2.199,0.005-3.663-1.542-3.679-3.89
			c-0.017-2.411,1.503-4.027,3.803-4.045C43,8.246,44.434,9.765,44.467,12.145z"/>
		<path fill="#F5F7F6" d="M36.398,13.892c-0.061,0.833,0.345,2.056-1.181,2.221c-1.964,0.214-3.986,0.333-5.144-1.711
			c-0.908-1.603-0.875-3.317,0.356-4.77c1.305-1.539,3.125-1.498,4.937-1.29c0.468,0.054,0.695,0.382,0.605,0.809
			c-0.192,0.911-0.865,0.633-1.474,0.552c-1.285-0.172-2.313,0.271-2.882,1.462c-0.485,1.017-0.181,1.99,0.502,2.806
			c0.458,0.547,1.125,0.952,1.845,0.784c1.162-0.272,0.927-1.306,0.376-1.696c-0.537-0.382-1.25-0.577-0.779-1.246
			c0.413-0.588,1.304-0.244,1.986-0.273c0.756-0.032,0.863,0.481,0.854,1.076C36.393,13.002,36.398,13.389,36.398,13.892z"/>
		<path fill="#F6F8F7" d="M18.268,16.201c-1.877,0.466-2.507-0.462-2.257-2.486c0.159-1.297,0.008-2.63,0.04-3.946
			c0.016-0.631-0.272-1.451,0.871-1.512C18.1,8.193,17.855,9.01,17.87,9.659c0.023,1.006,0.047,2.016-0.003,3.02
			c-0.06,1.187-0.056,2.202,1.632,1.986c0.631-0.08,1.573-0.192,1.441,0.924c-0.11,0.932-0.953,0.513-1.498,0.602
			C19.14,16.241,18.823,16.201,18.268,16.201z"/>
	</g>
	<path fill="#0D5C62" d="M26.76,12.255c-0.184,1.17-0.46,2.474-1.893,2.467c-1.417-0.008-1.829-1.277-1.837-2.492
		c-0.008-1.228,0.453-2.484,1.844-2.485C26.275,9.744,26.606,11.027,26.76,12.255z"/>
	<path fill="#0D5C62" d="M42.623,12.135c-0.132,1.207-0.402,2.502-1.799,2.586c-1.444,0.087-1.872-1.186-1.929-2.395
		c-0.059-1.236,0.391-2.491,1.748-2.582C42.073,9.65,42.415,10.945,42.623,12.135z"/>
</g>
<g>
	<rect x="63.239" y="6.597" fill="#005A5F" stroke="#FFFFFF" stroke-miterlimit="10" width="12.569" height="8.715"/>
	<g>
		<path fill="#FFFFFF" d="M69.522,13.366c-1.284,0-2.569-0.006-3.853,0.002c-0.74,0.005-1.408-0.15-1.39-0.863
			c0.015-0.629,0.628-0.804,1.322-0.802c2.616,0.006,5.233,0.006,7.849,0c0.696-0.002,1.306,0.177,1.319,0.805
			c0.015,0.712-0.654,0.866-1.394,0.861C72.09,13.36,70.806,13.366,69.522,13.366z"/>
		<path fill="#FFFFFF" d="M69.53,8.54c1.332,0,2.664-0.001,3.996,0c0.704,0.001,1.266,0.234,1.246,0.894
			c-0.018,0.581-0.538,0.822-1.187,0.822c-2.712,0.002-5.423,0.003-8.135-0.001c-0.651-0.001-1.167-0.251-1.176-0.832
			c-0.01-0.659,0.557-0.884,1.26-0.884C66.866,8.54,68.198,8.54,69.53,8.54z"/>
	</g>
</g>
</svg>
