<?xml version="1.0" encoding="utf-8"?>
<!-- Generator: Adobe Illustrator 17.0.0, SVG Export Plug-In . SVG Version: 6.00 Build 0)  -->
<!DOCTYPE svg PUBLIC "-//W3C//DTD SVG 1.1//EN" "http://www.w3.org/Graphics/SVG/1.1/DTD/svg11.dtd">
<svg version="1.1" id="Layer_1" xmlns="http://www.w3.org/2000/svg" xmlns:xlink="http://www.w3.org/1999/xlink" x="0px" y="0px"
	 width="239.67px" height="55.67px" viewBox="0 0 239.67 55.67" enable-background="new 0 0 239.67 55.67" xml:space="preserve">
<rect x="3.651" y="27.75" fill="#7F7F81" width="232.367" height="22.25"/>
<rect x="3.652" y="6" fill="#005C62" width="232.365" height="22.25"/>
<path fill="#FEFEFE" d="M31.442,40.589c-5.19,0.001-10.377,0.011-15.564-0.004c-2.746-0.007-4.907-0.509-4.731-1.893
	c0.154-1.215,2.233-1.647,4.736-1.647c10.559,0,21.122-0.008,31.682,0.007c2.536,0.004,4.483,0.551,4.483,1.765
	s-1.954,1.753-4.488,1.762C42.185,40.603,36.813,40.589,31.442,40.589z"/>
<path fill="#FEFEFE" d="M22.03,18.304c-2.784,0.001-5.567,0.011-8.35-0.004c-1.473-0.007-2.632-0.509-2.538-1.893
	c0.082-1.215,1.198-1.647,2.541-1.647c5.665,0,11.332-0.008,16.997,0.007c1.36,0.004,2.405,0.551,2.405,1.765
	s-1.049,1.753-2.408,1.762C27.794,18.318,24.912,18.304,22.03,18.304z"/>
<path fill="#FEFEFE" d="M60.78,18.304c-2.784,0.001-5.567,0.011-8.35-0.004c-1.473-0.007-2.632-0.509-2.538-1.893
	c0.082-1.215,1.198-1.647,2.541-1.647c5.665,0,11.332-0.008,16.997,0.007c1.36,0.004,2.405,0.551,2.405,1.765
	s-1.049,1.753-2.408,1.762C66.544,18.318,63.662,18.304,60.78,18.304z"/>
<path fill="#FEFEFE" d="M196.161,18.304c-2.366,0.001-4.731,0.011-7.096-0.004c-1.252-0.007-2.237-0.509-2.157-1.893
	c0.07-1.215,1.018-1.647,2.159-1.647c4.814,0,9.63-0.008,14.444,0.007c1.156,0.004,2.044,0.551,2.044,1.765
	s-0.891,1.753-2.046,1.762C201.059,18.318,198.61,18.304,196.161,18.304z"/>
<path fill="#FEFEFE" d="M219.729,18.304c-2.366,0.001-4.731,0.011-7.096-0.004c-1.252-0.007-2.237-0.509-2.157-1.893
	c0.07-1.215,1.018-1.647,2.159-1.647c4.814,0,9.63-0.008,14.444,0.007c1.156,0.004,2.044,0.551,2.044,1.765
	s-0.891,1.753-2.046,1.762C224.627,18.318,222.178,18.304,219.729,18.304z"/>
<path fill="#FEFEFE" d="M172.593,18.304c-2.366,0.001-4.731,0.011-7.096-0.004c-1.252-0.007-2.237-0.509-2.157-1.893
	c0.07-1.215,1.018-1.647,2.159-1.647c4.814,0,9.63-0.008,14.444,0.007c1.156,0.004,2.044,0.551,2.044,1.765
	s-0.891,1.753-2.046,1.762C177.491,18.318,175.042,18.304,172.593,18.304z"/>
<ellipse fill="#FEFEFE" cx="224.602" cy="38.818" rx="5.125" ry="4.697"/>
<ellipse fill="#FEFEFE" cx="209.681" cy="38.818" rx="5.125" ry="4.697"/>
<path fill="#7F7F81" d="M110.141,38.767c0.191-1.318,0.559-2.716,2.108-2.658c1.501,0.056,1.987,1.42,1.949,2.766
	c-0.039,1.325-0.491,2.703-2.057,2.654C110.596,41.482,110.301,40.073,110.141,38.767z"/>
<path fill="#7F7F81" d="M131.502,38.842c-0.188,1.281-0.492,2.695-2.058,2.687c-1.547-0.008-1.992-1.385-2-2.714
	c-0.008-1.344,0.485-2.706,2.007-2.707C130.982,36.107,131.343,37.499,131.502,38.842z"/>
<path fill="#FAFBFB" d="M121.579,38.736c0.038,2.617-1.632,4.397-4.125,4.397c-2.381,0.001-3.981-1.697-3.995-4.235
	c-0.015-2.599,1.669-4.384,4.143-4.394C119.978,34.495,121.542,36.16,121.579,38.736z"/>
<path fill="#FAFBFB" d="M138.83,38.882c-0.028,2.594-1.771,4.328-4.274,4.25c-2.355-0.075-3.898-1.831-3.846-4.383
	c0.052-2.587,1.789-4.307,4.29-4.246C137.339,34.56,138.857,36.296,138.83,38.882z"/>
<path fill="#F7F9F9" d="M130.023,40.684c-0.13,0.76,0.477,2.06-1.019,2.331c-1.858,0.335-3.741,0.43-5.264-1.01
	c-1.369-1.295-1.559-4.043-0.449-5.636c1.041-1.495,4.234-2.433,5.751-1.704c0.327,0.157,0.574,0.33,0.547,0.736
	c-0.033,0.483-0.287,0.839-0.756,0.851c-0.585,0.017-1.187-0.215-1.755-0.141c-1.418,0.183-2.344,1-2.422,2.475
	c-0.074,1.396,0.535,2.479,1.927,2.932c0.519,0.169,1.258,0.431,1.497-0.357c0.145-0.477,0.433-1.273-0.385-1.48
	c-0.769-0.194-1.106-0.665-0.75-1.237c0.399-0.638,1.24-0.294,1.891-0.344c0.65-0.05,1.194,0.076,1.187,0.907
	C130.02,39.513,130.023,40.02,130.023,40.684z"/>
<path fill="#F7F9F9" d="M107.457,38.691c0-1.011,0.01-2.021-0.004-3.032c-0.009-0.66,0.126-1.101,0.94-1.159
	c1.023-0.073,1.063,0.521,1.048,1.257c-0.018,0.841,0,1.685-0.004,2.527c-0.007,1.713-0.513,3.779,2.484,3.211
	c0.55-0.103,0.914,0.318,0.86,0.958c-0.047,0.55-0.422,0.678-0.863,0.683c-1.179,0.016-2.358-0.001-3.538,0.006
	c-0.816,0.006-0.939-0.503-0.927-1.165C107.47,40.881,107.457,39.785,107.457,38.691z"/>
<path fill="#7F7F81" d="M115.464,38.767c0.191-1.318,0.559-2.716,2.108-2.658c1.501,0.056,1.987,1.42,1.949,2.766
	c-0.039,1.325-0.491,2.703-2.057,2.654C115.919,41.482,115.624,40.073,115.464,38.767z"/>
<path fill="#7F7F81" d="M136.825,38.842c-0.188,1.281-0.492,2.695-2.058,2.687c-1.547-0.008-1.992-1.385-2-2.714
	c-0.008-1.344,0.485-2.706,2.007-2.707C136.305,36.107,136.666,37.499,136.825,38.842z"/>
</svg>
