<?xml version="1.0" encoding="utf-8"?>
<!-- Generator: Adobe Illustrator 17.0.0, SVG Export Plug-In . SVG Version: 6.00 Build 0)  -->
<!DOCTYPE svg PUBLIC "-//W3C//DTD SVG 1.1//EN" "http://www.w3.org/Graphics/SVG/1.1/DTD/svg11.dtd">
<svg version="1.1" id="Layer_1" xmlns="http://www.w3.org/2000/svg" xmlns:xlink="http://www.w3.org/1999/xlink" x="0px" y="0px"
	 width="239.67px" height="55.67px" viewBox="-2.835 -2.835 239.67 55.67" enable-background="new -2.835 -2.835 239.67 55.67"
	 xml:space="preserve">
<rect x="1.165" y="4.173" fill="#005C62" width="232.365" height="42.432"/>
<path fill="#FEFEFE" d="M85.455,32.363c-2.847,0-5.694-0.02-8.541,0.008c-1.655,0.017-3.299-0.228-3.379-2.215
	c-0.081-1.998,1.492-2.403,3.187-2.399c5.914,0.012,11.827,0.013,17.74-0.001c1.694-0.004,3.275,0.387,3.219,2.374
	c-0.055,1.983-1.689,2.259-3.354,2.244C91.368,32.342,88.411,32.363,85.455,32.363z"/>
<path fill="#FEFEFE" d="M116.882,27.762c2.956,0,5.914,0.012,8.87-0.004c1.698-0.01,3.242,0.399,3.199,2.395
	c-0.038,1.769-1.463,2.22-3.051,2.215c-6.023-0.014-12.045-0.012-18.068-0.001c-1.59,0.004-3.008-0.461-3.035-2.231
	c-0.03-1.998,1.524-2.39,3.215-2.38C110.968,27.774,113.925,27.762,116.882,27.762z"/>
<path fill="#FEFEFE" d="M148.463,27.762c2.847,0,5.694,0.014,8.541-0.005c1.695-0.012,3.245,0.388,3.215,2.382
	c-0.027,1.767-1.446,2.233-3.037,2.231c-6.023-0.012-12.045-0.012-18.068,0c-1.586,0.004-3.01-0.446-3.049-2.217
	c-0.043-2,1.505-2.402,3.199-2.393C142.33,27.773,145.397,27.762,148.463,27.762z"/>
<path fill="#FAFBFB" d="M42.794,30.16c-0.041,3.36-2.309,5.604-5.555,5.494c-3.052-0.104-5.045-2.384-4.972-5.694
	c0.073-3.351,2.333-5.576,5.575-5.49C40.875,24.55,42.835,26.804,42.794,30.16z"/>
<path fill="#FAFBFB" d="M65.157,30.16c-0.041,3.36-2.309,5.604-5.555,5.494c-3.052-0.104-5.045-2.384-4.972-5.694
	c0.073-3.351,2.333-5.576,5.575-5.49C63.237,24.55,65.198,26.804,65.157,30.16z"/>
<path fill="#F7F9F9" d="M53.751,32.311c-0.061,1.357,0.445,3.031-1.737,3.236c-2.794,0.263-5.626,0.417-7.209-2.545
	c-1.169-2.186-1.135-4.497,0.482-6.478c1.809-2.216,4.358-2.246,6.939-1.934c0.625,0.075,1.044,0.415,0.937,1.072
	c-0.213,1.311-1.142,0.882-2.021,0.865c-3.527-0.065-5.311,2.34-3.966,5.169c0.467,0.981,1.22,1.55,2.18,1.846
	c0.595,0.183,1.407,0.406,1.778-0.288c0.349-0.652,0.529-1.765-0.195-2.046c-0.975-0.378-1.798-0.781-1.132-1.731
	c0.592-0.844,1.844-0.349,2.805-0.383c1.106-0.038,1.141,0.769,1.136,1.573C53.746,31.215,53.749,31.764,53.751,32.311z"/>
<path fill="#F7F9F9" d="M25.108,29.899c0-1.31,0.013-2.621-0.004-3.931c-0.012-0.855,0.163-1.428,1.217-1.503
	c1.326-0.094,1.378,0.674,1.357,1.629c-0.024,1.091,0,2.184-0.004,3.276c-0.009,2.22-0.665,4.899,3.221,4.162
	c0.711-0.134,1.185,0.411,1.114,1.242c-0.06,0.711-0.548,0.878-1.118,0.886c-1.529,0.019-3.057-0.001-4.587,0.008
	c-1.057,0.006-1.217-0.652-1.203-1.511C25.125,32.738,25.108,31.318,25.108,29.899z"/>
<path fill="#075F65" d="M34.866,29.996c0.247-1.709,0.724-3.521,2.734-3.446c1.946,0.073,2.576,1.84,2.526,3.587
	c-0.05,1.718-0.637,3.504-2.667,3.441C35.454,33.515,35.071,31.688,34.866,29.996z"/>
<path fill="#075F65" d="M62.577,29.737c-0.204,1.918-0.59,3.74-2.575,3.841c-2.039,0.104-2.638-1.683-2.706-3.399
	c-0.069-1.747,0.548-3.508,2.485-3.63C61.843,26.42,62.205,28.317,62.577,29.737z"/>
<rect x="170.791" y="31.478" fill="#F7F9F9" width="38.805" height="2.105"/>
<g>
	<ellipse fill="none" stroke="#FEFEFE" stroke-width="2" stroke-miterlimit="10" cx="199.419" cy="19.999" rx="5.095" ry="4.899"/>
	
		<rect x="204.546" y="23.028" transform="matrix(0.6937 -0.7202 0.7202 0.6937 43.9703 155.7451)" fill="#FEFEFE" width="1.136" height="6.286"/>
</g>
</svg>
