<?xml version="1.0" encoding="utf-8"?>
<!-- Generator: Adobe Illustrator 17.0.0, SVG Export Plug-In . SVG Version: 6.00 Build 0)  -->
<!DOCTYPE svg PUBLIC "-//W3C//DTD SVG 1.1//EN" "http://www.w3.org/Graphics/SVG/1.1/DTD/svg11.dtd">
<svg version="1.1" id="Layer_1" xmlns="http://www.w3.org/2000/svg" xmlns:xlink="http://www.w3.org/1999/xlink" x="0px" y="0px"
	 width="239.67px" height="55.67px" viewBox="-2.835 -2.835 239.67 55.67" enable-background="new -2.835 -2.835 239.67 55.67"
	 xml:space="preserve">
<rect x="0.816" y="2.802" fill="#005A5F" width="232.367" height="44"/>
<path fill="#FEFEFE" d="M81.607,26.86c-3.218,0-6.436-0.023-9.653,0.009c-1.871,0.019-3.729-0.258-3.819-2.504
	c-0.091-2.258,1.686-2.716,3.602-2.712c6.684,0.013,13.367,0.015,20.05-0.001c1.915-0.004,3.7,0.437,3.638,2.683
	c-0.062,2.241-1.909,2.553-3.791,2.536C88.291,26.837,84.949,26.86,81.607,26.86z"/>
<path fill="#FEFEFE" d="M117.127,21.66c3.341,0,6.684,0.014,10.025-0.005c1.919-0.011,3.664,0.451,3.616,2.707
	c-0.043,1.999-1.654,2.509-3.448,2.504c-6.807-0.016-13.614-0.014-20.421-0.001c-1.797,0.004-3.4-0.521-3.43-2.522
	c-0.034-2.258,1.722-2.701,3.634-2.69C110.444,21.674,113.785,21.66,117.127,21.66z"/>
<path fill="#FEFEFE" d="M152.821,21.66c3.218,0,6.436,0.016,9.653-0.006c1.916-0.013,3.668,0.439,3.634,2.692
	c-0.03,1.997-1.634,2.524-3.432,2.521c-6.807-0.014-13.614-0.014-20.421,0c-1.793,0.004-3.402-0.504-3.446-2.506
	c-0.049-2.261,1.701-2.715,3.616-2.705C145.89,21.673,149.356,21.66,152.821,21.66z"/>
<path fill="#FAFBFB" d="M33.391,24.371c-0.046,3.798-2.61,6.334-6.279,6.209c-3.45-0.117-5.702-2.695-5.62-6.436
	c0.083-3.787,2.637-6.302,6.301-6.205C31.221,18.031,33.438,20.577,33.391,24.371z"/>
<path fill="#FAFBFB" d="M58.666,24.371c-0.046,3.798-2.61,6.334-6.279,6.209c-3.45-0.117-5.702-2.695-5.62-6.436
	c0.083-3.787,2.637-6.302,6.301-6.205C56.496,18.031,58.713,20.577,58.666,24.371z"/>
<path fill="#F7F9F9" d="M45.775,26.802c-0.069,1.534,0.503,3.426-1.963,3.658c-3.158,0.297-6.359,0.471-8.148-2.876
	c-1.321-2.471-1.283-5.083,0.545-7.322c2.045-2.505,4.926-2.539,7.843-2.186c0.706,0.085,1.18,0.469,1.059,1.212
	c-0.241,1.482-1.291,0.997-2.284,0.978c-3.986-0.074-6.003,2.645-4.482,5.842c0.528,1.109,1.379,1.752,2.464,2.086
	c0.673,0.207,1.59,0.459,2.009-0.325c0.394-0.737,0.598-1.995-0.22-2.313c-1.102-0.427-2.032-0.883-1.279-1.957
	c0.669-0.954,2.084-0.395,3.17-0.433c1.25-0.043,1.29,0.869,1.284,1.778C45.769,25.563,45.772,26.183,45.775,26.802z"/>
<path fill="#F7F9F9" d="M13.401,24.075c0-1.481,0.015-2.962-0.005-4.443c-0.013-0.966,0.184-1.614,1.376-1.699
	c1.499-0.106,1.558,0.762,1.534,1.841c-0.027,1.233,0,2.468-0.005,3.703c-0.01,2.509-0.752,5.537,3.64,4.704
	c0.804-0.152,1.339,0.465,1.259,1.404c-0.068,0.804-0.619,0.992-1.264,1.001c-1.728,0.022-3.455-0.001-5.184,0.009
	c-1.195,0.007-1.376-0.737-1.36-1.708C13.42,27.284,13.401,25.679,13.401,24.075z"/>
<path fill="#075F65" d="M24.43,24.185c0.279-1.932,0.818-3.98,3.09-3.895c2.2,0.083,2.912,2.08,2.855,4.054
	c-0.056,1.942-0.72,3.96-3.014,3.889C25.095,28.162,24.663,26.097,24.43,24.185z"/>
<path fill="#075F65" d="M55.75,23.892c-0.23,2.168-0.667,4.227-2.91,4.341c-2.304,0.117-2.982-1.902-3.058-3.842
	c-0.078-1.975,0.619-3.965,2.809-4.103C54.921,20.143,55.33,22.287,55.75,23.892z"/>
<polygon fill="#FEFEFE" points="220.487,31.284 178.011,31.284 178.011,19.501 183.902,19.501 220.487,19.501 "/>
<path fill="#7E7E80" d="M208.049,25.392c0-1.527-0.003-3.054,0.001-4.581c0.003-1.073,0.638-1.71,1.717-1.712
	c3.024-0.005,6.048-0.005,9.071,0c1.136,0.001,1.769,0.636,1.77,1.759c0.002,3.024,0.002,6.048,0,9.071
	c-0.001,1.12-0.636,1.756-1.772,1.757c-3.024,0.004-6.048,0.005-9.071,0c-1.079-0.002-1.713-0.642-1.715-1.715
	C208.046,28.445,208.049,26.918,208.049,25.392z"/>
<path fill="#FEFEFE" d="M213.555,21.47c2.281,0.006,3.783,2.356,2.82,4.433c-0.106,0.23-0.093,0.358,0.088,0.53
	c0.505,0.48,0.994,0.978,1.481,1.476c0.368,0.376,0.389,0.868,0.067,1.183c-0.316,0.311-0.779,0.3-1.151-0.056
	c-0.503-0.482-0.995-0.975-1.478-1.478c-0.178-0.186-0.318-0.227-0.571-0.11c-1.177,0.548-2.538,0.303-3.456-0.588
	c-0.933-0.906-1.21-2.27-0.708-3.481C211.126,22.224,212.279,21.467,213.555,21.47z"/>
<path fill="#7E7E81" d="M213.542,23.827c0.878,0.001,1.552,0.667,1.558,1.538c0.007,0.877-0.698,1.596-1.564,1.595
	c-0.847-0.001-1.554-0.706-1.562-1.556C211.967,24.509,212.647,23.825,213.542,23.827z"/>
</svg>
